<?xml version="1.0" standalone="no"?>
<!DOCTYPE svg PUBLIC "-//W3C//DTD SVG 20010904//EN"
 "http://www.w3.org/TR/2001/REC-SVG-20010904/DTD/svg10.dtd">
<svg version="1.0" xmlns="http://www.w3.org/2000/svg"
 width="500.000000pt" height="500.000000pt" viewBox="0 0 500.000000 500.000000"
 preserveAspectRatio="xMidYMid meet">
<metadata>
Created by potrace 1.14, written by Peter Selinger 2001-2017
</metadata>
<g transform="translate(0.000000,500.000000) scale(0.100000,-0.100000)"
fill="#000000" stroke="none">
<path d="M0 2500 l0 -2500 2500 0 2500 0 0 2500 0 2500 -2500 0 -2500 0 0
-2500z m3000 1875 c239 -33 452 -93 635 -179 103 -48 149 -89 181 -161 46
-102 73 -363 75 -705 0 -124 4 -322 9 -440 12 -334 -9 -573 -75 -845 -52 -217
-186 -641 -230 -730 -42 -87 -120 -186 -197 -253 -36 -32 -474 -360 -579 -435
-110 -78 -217 -123 -336 -142 -33 -5 -43 -4 -43 7 0 7 23 131 52 275 l52 262
-17 88 c-23 124 -16 153 62 236 27 29 33 40 23 46 -8 5 -84 14 -170 20 -495
39 -556 49 -687 110 -87 41 -210 119 -201 128 3 3 85 -2 183 -11 98 -9 309
-20 468 -26 507 -18 567 -14 562 34 -2 21 2 21 203 26 245 6 253 9 337 113 81
102 215 260 233 274 8 7 35 18 59 24 24 7 57 26 75 43 32 33 93 137 79 135 -4
0 -34 -32 -66 -69 -82 -99 -97 -102 -285 -62 -81 17 -165 34 -187 37 l-40 5
30 -15 c17 -8 62 -29 100 -46 l70 -31 -93 -87 c-51 -49 -116 -101 -145 -117
-51 -28 -56 -28 -202 -29 -108 0 -159 4 -184 14 -31 13 -191 191 -191 213 0 4
31 8 69 8 53 0 74 4 92 19 23 19 24 19 5 40 -25 28 -56 26 -117 -6 -28 -14
-73 -28 -100 -31 -93 -9 -213 49 -252 122 -21 40 -22 53 -27 471 -5 425 -5
431 -29 482 -24 53 -99 134 -145 154 -40 18 -39 37 4 101 69 104 49 153 -100
251 -109 71 -198 110 -345 152 -220 62 -241 77 -190 137 29 34 29 39 14 122
-21 111 19 160 156 191 184 42 416 72 760 99 112 9 535 -4 645 -19z m-1175
-967 c137 -86 195 -161 195 -249 l0 -41 -35 6 c-19 4 -59 18 -89 31 -92 41
-172 56 -334 64 -142 6 -156 9 -172 29 -23 28 -34 109 -21 144 13 36 33 45
115 53 39 4 81 11 95 16 14 5 55 7 91 6 61 -2 72 -7 155 -59z m173 -454 c41
-29 45 -48 22 -132 -51 -185 -104 -339 -127 -370 -51 -68 -344 -232 -414 -232
-77 0 -82 6 -160 216 -28 76 -73 183 -100 236 -55 110 -63 162 -29 193 24 22
50 23 313 11 108 -5 197 -5 197 -1 0 4 -8 13 -17 20 -15 11 -10 14 37 24 30 7
93 20 140 31 107 23 111 23 138 4z m-187 -786 c38 -56 122 -139 162 -159 32
-17 38 -25 35 -47 -4 -37 -59 -72 -112 -72 -23 1 -70 7 -106 15 -88 19 -120
19 -120 -1 0 -21 -42 -12 -87 19 -38 26 -79 97 -70 120 10 26 218 157 249 157
19 0 33 -9 49 -32z m-541 -376 c160 -273 202 -333 534 -767 81 -106 90 -125
62 -125 -33 0 -275 280 -410 473 -141 203 -357 599 -355 655 l0 27 25 -30 c14
-16 79 -122 144 -233z m1107 96 c11 -13 50 -62 87 -110 l66 -88 -186 0 c-177
0 -186 1 -172 18 8 9 43 53 78 97 62 78 87 105 100 105 4 0 16 -10 27 -22z
m-239 -552 c15 -8 40 -28 57 -45 33 -35 37 -70 17 -160 -16 -72 -15 -178 3
-276 41 -226 41 -245 0 -245 -14 0 -31 11 -43 28 -30 43 -239 542 -246 587 -9
57 9 85 69 106 61 22 107 24 143 5z"/>
<path d="M3110 3788 c-197 -13 -367 -85 -494 -209 -67 -66 -77 -80 -71 -100
10 -33 76 -130 98 -143 22 -14 88 20 292 149 165 105 212 124 330 132 138 9
268 -30 364 -109 25 -21 49 -38 53 -38 10 0 -8 57 -31 94 -29 46 -130 140
-177 164 -99 51 -219 70 -364 60z"/>
<path d="M3025 3210 c-107 -22 -255 -101 -280 -150 -35 -67 -13 -88 141 -139
97 -33 244 -50 418 -51 72 0 87 4 168 41 83 38 94 41 146 34 31 -3 67 -9 80
-12 27 -6 30 13 2 22 -11 3 -23 17 -26 29 -5 20 -13 24 -63 29 -56 5 -92 17
-258 91 -109 49 -208 69 -300 62 -40 -3 -73 -2 -73 3 0 4 28 14 63 21 78 16
105 30 57 29 -19 -1 -53 -5 -75 -9z"/>
</g>
</svg>
