  0
SECTION
  2
HEADER
  9
$ACADVER
  1
AC1009
  9
$EXTMIN
 10
0.0
 20
0.0
 30
0.0
  9
$EXTMAX
 10
1000.0
 20
1000.0
 30
0.0
  9
$FILLMODE
 70
 0
  9
$SPLFRAME
 70
 1
  0
ENDSEC
  0
SECTION
  2
TABLES
  0
TABLE
  2
LAYER
 70
1
  0
LAYER
  2
0
 70
     0
 62
     7
  6
CONTINUOUS
  0
ENDTAB
  0
ENDSEC
  0
SECTION
  2
ENTITIES
  0
LINE
  8
0
 62
     0
 10
0
 20
88.1944
 30
0.0
 11
0
 21
0
 31
0.0
  0
LINE
  8
0
 62
     0
 10
0
 20
0
 30
0.0
 11
176.389
 21
0
 31
0.0
  0
LINE
  8
0
 62
     0
 10
176.389
 20
0
 30
0.0
 11
176.389
 21
176.389
 31
0.0
  0
LINE
  8
0
 62
     0
 10
176.389
 20
176.389
 30
0.0
 11
0
 21
176.389
 31
0.0
  0
LINE
  8
0
 62
     0
 10
0
 20
176.389
 30
0.0
 11
0
 21
88.1944
 31
0.0
  0
LINE
  8
0
 62
     0
 10
105.833
 20
154.34
 30
0.0
 11
111.982
 21
153.29
 31
0.0
  0
LINE
  8
0
 62
     0
 10
111.982
 20
153.29
 30
0.0
 11
117.774
 21
151.885
 31
0.0
  0
LINE
  8
0
 62
     0
 10
117.774
 20
151.885
 30
0.0
 11
123.195
 21
150.129
 31
0.0
  0
LINE
  8
0
 62
     0
 10
123.195
 20
150.129
 30
0.0
 11
128.235
 21
148.026
 31
0.0
  0
LINE
  8
0
 62
     0
 10
128.235
 20
148.026
 30
0.0
 11
130.606
 21
146.782
 31
0.0
  0
LINE
  8
0
 62
     0
 10
130.606
 20
146.782
 30
0.0
 11
132.366
 21
145.504
 31
0.0
  0
LINE
  8
0
 62
     0
 10
132.366
 20
145.504
 30
0.0
 11
133.656
 21
144.067
 31
0.0
  0
LINE
  8
0
 62
     0
 10
133.656
 20
144.067
 30
0.0
 11
134.621
 21
142.346
 31
0.0
  0
LINE
  8
0
 62
     0
 10
134.621
 20
142.346
 30
0.0
 11
135.708
 21
138.639
 31
0.0
  0
LINE
  8
0
 62
     0
 10
135.708
 20
138.639
 30
0.0
 11
136.524
 21
133.085
 31
0.0
  0
LINE
  8
0
 62
     0
 10
136.524
 20
133.085
 30
0.0
 11
137.05
 21
125.946
 31
0.0
  0
LINE
  8
0
 62
     0
 10
137.05
 20
125.946
 30
0.0
 11
137.267
 21
117.475
 31
0.0
  0
LINE
  8
0
 62
     0
 10
137.267
 20
117.475
 30
0.0
 11
137.29
 21
113.79
 31
0.0
  0
LINE
  8
0
 62
     0
 10
137.29
 20
113.79
 30
0.0
 11
137.359
 21
109.635
 31
0.0
  0
LINE
  8
0
 62
     0
 10
137.359
 20
109.635
 30
0.0
 11
137.459
 21
105.52
 31
0.0
  0
LINE
  8
0
 62
     0
 10
137.459
 20
105.52
 30
0.0
 11
137.583
 21
101.953
 31
0.0
  0
LINE
  8
0
 62
     0
 10
137.583
 20
101.953
 30
0.0
 11
137.676
 21
93.6748
 31
0.0
  0
LINE
  8
0
 62
     0
 10
137.676
 20
93.6748
 30
0.0
 11
137.291
 21
86.2281
 31
0.0
  0
LINE
  8
0
 62
     0
 10
137.291
 20
86.2281
 30
0.0
 11
136.393
 21
79.193
 31
0.0
  0
LINE
  8
0
 62
     0
 10
136.393
 20
79.193
 30
0.0
 11
134.938
 21
72.1431
 31
0.0
  0
LINE
  8
0
 62
     0
 10
134.938
 20
72.1431
 30
0.0
 11
134.126
 21
68.9681
 31
0.0
  0
LINE
  8
0
 62
     0
 10
134.126
 20
68.9681
 30
0.0
 11
133.113
 21
65.3313
 31
0.0
  0
LINE
  8
0
 62
     0
 10
133.113
 20
65.3313
 30
0.0
 11
131.972
 21
61.4592
 31
0.0
  0
LINE
  8
0
 62
     0
 10
131.972
 20
61.4592
 30
0.0
 11
130.774
 21
57.5744
 31
0.0
  0
LINE
  8
0
 62
     0
 10
130.774
 20
57.5744
 30
0.0
 11
129.588
 21
53.9006
 31
0.0
  0
LINE
  8
0
 62
     0
 10
129.588
 20
53.9006
 30
0.0
 11
128.487
 21
50.6621
 31
0.0
  0
LINE
  8
0
 62
     0
 10
128.487
 20
50.6621
 30
0.0
 11
127.542
 21
48.0854
 31
0.0
  0
LINE
  8
0
 62
     0
 10
127.542
 20
48.0854
 30
0.0
 11
126.824
 21
46.3903
 31
0.0
  0
LINE
  8
0
 62
     0
 10
126.824
 20
46.3903
 30
0.0
 11
125.494
 21
44.0337
 31
0.0
  0
LINE
  8
0
 62
     0
 10
125.494
 20
44.0337
 30
0.0
 11
123.811
 21
41.6638
 31
0.0
  0
LINE
  8
0
 62
     0
 10
123.811
 20
41.6638
 30
0.0
 11
121.897
 21
39.4257
 31
0.0
  0
LINE
  8
0
 62
     0
 10
121.897
 20
39.4257
 30
0.0
 11
119.874
 21
37.4646
 31
0.0
  0
LINE
  8
0
 62
     0
 10
119.874
 20
37.4646
 30
0.0
 11
118.783
 21
36.5912
 31
0.0
  0
LINE
  8
0
 62
     0
 10
118.783
 20
36.5912
 30
0.0
 11
116.666
 21
34.9636
 31
0.0
  0
LINE
  8
0
 62
     0
 10
116.666
 20
34.9636
 30
0.0
 11
113.829
 21
32.8111
 31
0.0
  0
LINE
  8
0
 62
     0
 10
113.829
 20
32.8111
 30
0.0
 11
110.573
 21
30.3609
 31
0.0
  0
LINE
  8
0
 62
     0
 10
110.573
 20
30.3609
 30
0.0
 11
107.203
 21
27.8405
 31
0.0
  0
LINE
  8
0
 62
     0
 10
107.203
 20
27.8405
 30
0.0
 11
104.023
 21
25.4744
 31
0.0
  0
LINE
  8
0
 62
     0
 10
104.023
 20
25.4744
 30
0.0
 11
101.335
 21
23.4928
 31
0.0
  0
LINE
  8
0
 62
     0
 10
101.335
 20
23.4928
 30
0.0
 11
99.4474
 21
22.1189
 31
0.0
  0
LINE
  8
0
 62
     0
 10
99.4474
 20
22.1189
 30
0.0
 11
93.6392
 21
18.8336
 31
0.0
  0
LINE
  8
0
 62
     0
 10
93.6392
 20
18.8336
 30
0.0
 11
87.5951
 21
17.1097
 31
0.0
  0
LINE
  8
0
 62
     0
 10
87.5951
 20
17.1097
 30
0.0
 11
86.8659
 21
17.0202
 31
0.0
  0
LINE
  8
0
 62
     0
 10
86.8659
 20
17.0202
 30
0.0
 11
86.3988
 21
17.0229
 31
0.0
  0
LINE
  8
0
 62
     0
 10
86.3988
 20
17.0229
 30
0.0
 11
86.1508
 21
17.1304
 31
0.0
  0
LINE
  8
0
 62
     0
 10
86.1508
 20
17.1304
 30
0.0
 11
86.0778
 21
17.3564
 31
0.0
  0
LINE
  8
0
 62
     0
 10
86.0778
 20
17.3564
 30
0.0
 11
86.2196
 21
18.2631
 31
0.0
  0
LINE
  8
0
 62
     0
 10
86.2196
 20
18.2631
 30
0.0
 11
86.6112
 21
20.395
 31
0.0
  0
LINE
  8
0
 62
     0
 10
86.6112
 20
20.395
 30
0.0
 11
87.194
 21
23.4349
 31
0.0
  0
LINE
  8
0
 62
     0
 10
87.194
 20
23.4349
 30
0.0
 11
87.9119
 21
27.0578
 31
0.0
  0
LINE
  8
0
 62
     0
 10
87.9119
 20
27.0578
 30
0.0
 11
89.746
 21
36.3001
 31
0.0
  0
LINE
  8
0
 62
     0
 10
89.746
 20
36.3001
 30
0.0
 11
89.1466
 21
39.4049
 31
0.0
  0
LINE
  8
0
 62
     0
 10
89.1466
 20
39.4049
 30
0.0
 11
88.7582
 21
42.1404
 31
0.0
  0
LINE
  8
0
 62
     0
 10
88.7582
 20
42.1404
 30
0.0
 11
88.9042
 21
44.111
 31
0.0
  0
LINE
  8
0
 62
     0
 10
88.9042
 20
44.111
 30
0.0
 11
89.717
 21
45.81
 31
0.0
  0
LINE
  8
0
 62
     0
 10
89.717
 20
45.81
 30
0.0
 11
91.3335
 21
47.7312
 31
0.0
  0
LINE
  8
0
 62
     0
 10
91.3335
 20
47.7312
 30
0.0
 11
91.911
 21
48.387
 31
0.0
  0
LINE
  8
0
 62
     0
 10
91.911
 20
48.387
 30
0.0
 11
92.2295
 21
48.8474
 31
0.0
  0
LINE
  8
0
 62
     0
 10
92.2295
 20
48.8474
 30
0.0
 11
92.3011
 21
49.1546
 31
0.0
  0
LINE
  8
0
 62
     0
 10
92.3011
 20
49.1546
 30
0.0
 11
92.1452
 21
49.3529
 31
0.0
  0
LINE
  8
0
 62
     0
 10
92.1452
 20
49.3529
 30
0.0
 11
91.5155
 21
49.5088
 31
0.0
  0
LINE
  8
0
 62
     0
 10
91.5155
 20
49.5088
 30
0.0
 11
90.1774
 21
49.6933
 31
0.0
  0
LINE
  8
0
 62
     0
 10
90.1774
 20
49.6933
 30
0.0
 11
88.3253
 21
49.8849
 31
0.0
  0
LINE
  8
0
 62
     0
 10
88.3253
 20
49.8849
 30
0.0
 11
86.148
 21
50.0585
 31
0.0
  0
LINE
  8
0
 62
     0
 10
86.148
 20
50.0585
 30
0.0
 11
80.2816
 21
50.5326
 31
0.0
  0
LINE
  8
0
 62
     0
 10
80.2816
 20
50.5326
 30
0.0
 11
75.6433
 21
50.9432
 31
0.0
  0
LINE
  8
0
 62
     0
 10
75.6433
 20
50.9432
 30
0.0
 11
72.0231
 21
51.3249
 31
0.0
  0
LINE
  8
0
 62
     0
 10
72.0231
 20
51.3249
 30
0.0
 11
69.2146
 21
51.7095
 31
0.0
  0
LINE
  8
0
 62
     0
 10
69.2146
 20
51.7095
 30
0.0
 11
67.007
 21
52.13
 31
0.0
  0
LINE
  8
0
 62
     0
 10
67.007
 20
52.13
 30
0.0
 11
65.1923
 21
52.6189
 31
0.0
  0
LINE
  8
0
 62
     0
 10
65.1923
 20
52.6189
 30
0.0
 11
63.5635
 21
53.2116
 31
0.0
  0
LINE
  8
0
 62
     0
 10
63.5635
 20
53.2116
 30
0.0
 11
61.9125
 21
53.939
 31
0.0
  0
LINE
  8
0
 62
     0
 10
61.9125
 20
53.939
 30
0.0
 11
59.4653
 21
55.2111
 31
0.0
  0
LINE
  8
0
 62
     0
 10
59.4653
 20
55.2111
 30
0.0
 11
57.0964
 21
56.6208
 31
0.0
  0
LINE
  8
0
 62
     0
 10
57.0964
 20
56.6208
 30
0.0
 11
55.3628
 21
57.8196
 31
0.0
  0
LINE
  8
0
 62
     0
 10
55.3628
 20
57.8196
 30
0.0
 11
54.821
 21
58.4549
 31
0.0
  0
LINE
  8
0
 62
     0
 10
54.821
 20
58.4549
 30
0.0
 11
55.3875
 21
58.4839
 31
0.0
  0
LINE
  8
0
 62
     0
 10
55.3875
 20
58.4839
 30
0.0
 11
56.7916
 21
58.4207
 31
0.0
  0
LINE
  8
0
 62
     0
 10
56.7916
 20
58.4207
 30
0.0
 11
58.8243
 21
58.2771
 31
0.0
  0
LINE
  8
0
 62
     0
 10
58.8243
 20
58.2771
 30
0.0
 11
61.2771
 21
58.0679
 31
0.0
  0
LINE
  8
0
 62
     0
 10
61.2771
 20
58.0679
 30
0.0
 11
64.5266
 21
57.821
 31
0.0
  0
LINE
  8
0
 62
     0
 10
64.5266
 20
57.821
 30
0.0
 11
68.7257
 21
57.5702
 31
0.0
  0
LINE
  8
0
 62
     0
 10
68.7257
 20
57.5702
 30
0.0
 11
73.3266
 21
57.3387
 31
0.0
  0
LINE
  8
0
 62
     0
 10
73.3266
 20
57.3387
 30
0.0
 11
77.7875
 21
57.15
 31
0.0
  0
LINE
  8
0
 62
     0
 10
77.7875
 20
57.15
 30
0.0
 11
83.7805
 21
56.9503
 31
0.0
  0
LINE
  8
0
 62
     0
 10
83.7805
 20
56.9503
 30
0.0
 11
88.4548
 21
56.8318
 31
0.0
  0
LINE
  8
0
 62
     0
 10
88.4548
 20
56.8318
 30
0.0
 11
91.966
 21
56.8043
 31
0.0
  0
LINE
  8
0
 62
     0
 10
91.966
 20
56.8043
 30
0.0
 11
94.4728
 21
56.8773
 31
0.0
  0
LINE
  8
0
 62
     0
 10
94.4728
 20
56.8773
 30
0.0
 11
96.1334
 21
57.059
 31
0.0
  0
LINE
  8
0
 62
     0
 10
96.1334
 20
57.059
 30
0.0
 11
97.1049
 21
57.3595
 31
0.0
  0
LINE
  8
0
 62
     0
 10
97.1049
 20
57.3595
 30
0.0
 11
97.5445
 21
57.7868
 31
0.0
  0
LINE
  8
0
 62
     0
 10
97.5445
 20
57.7868
 30
0.0
 11
97.6133
 21
58.3487
 31
0.0
  0
LINE
  8
0
 62
     0
 10
97.6133
 20
58.3487
 30
0.0
 11
97.6094
 21
58.5943
 31
0.0
  0
LINE
  8
0
 62
     0
 10
97.6094
 20
58.5943
 30
0.0
 11
97.7043
 21
58.7816
 31
0.0
  0
LINE
  8
0
 62
     0
 10
97.7043
 20
58.7816
 30
0.0
 11
97.9784
 21
58.9195
 31
0.0
  0
LINE
  8
0
 62
     0
 10
97.9784
 20
58.9195
 30
0.0
 11
98.5076
 21
59.0201
 31
0.0
  0
LINE
  8
0
 62
     0
 10
98.5076
 20
59.0201
 30
0.0
 11
99.3733
 21
59.0945
 31
0.0
  0
LINE
  8
0
 62
     0
 10
99.3733
 20
59.0945
 30
0.0
 11
100.653
 21
59.1538
 31
0.0
  0
LINE
  8
0
 62
     0
 10
100.653
 20
59.1538
 30
0.0
 11
102.428
 21
59.2074
 31
0.0
  0
LINE
  8
0
 62
     0
 10
102.428
 20
59.2074
 30
0.0
 11
104.775
 21
59.2667
 31
0.0
  0
LINE
  8
0
 62
     0
 10
104.775
 20
59.2667
 30
0.0
 11
107.646
 21
59.3492
 31
0.0
  0
LINE
  8
0
 62
     0
 10
107.646
 20
59.3492
 30
0.0
 11
109.861
 21
59.4639
 31
0.0
  0
LINE
  8
0
 62
     0
 10
109.861
 20
59.4639
 30
0.0
 11
111.552
 21
59.654
 31
0.0
  0
LINE
  8
0
 62
     0
 10
111.552
 20
59.654
 30
0.0
 11
112.849
 21
59.9641
 31
0.0
  0
LINE
  8
0
 62
     0
 10
112.849
 20
59.9641
 30
0.0
 11
113.878
 21
60.4354
 31
0.0
  0
LINE
  8
0
 62
     0
 10
113.878
 20
60.4354
 30
0.0
 11
114.771
 21
61.1131
 31
0.0
  0
LINE
  8
0
 62
     0
 10
114.771
 20
61.1131
 30
0.0
 11
115.656
 21
62.0377
 31
0.0
  0
LINE
  8
0
 62
     0
 10
115.656
 20
62.0377
 30
0.0
 11
116.663
 21
63.2534
 31
0.0
  0
LINE
  8
0
 62
     0
 10
116.663
 20
63.2534
 30
0.0
 11
117.81
 21
64.6825
 31
0.0
  0
LINE
  8
0
 62
     0
 10
117.81
 20
64.6825
 30
0.0
 11
119.064
 21
66.2132
 31
0.0
  0
LINE
  8
0
 62
     0
 10
119.064
 20
66.2132
 30
0.0
 11
120.352
 21
67.7637
 31
0.0
  0
LINE
  8
0
 62
     0
 10
120.352
 20
67.7637
 30
0.0
 11
121.606
 21
69.2506
 31
0.0
  0
LINE
  8
0
 62
     0
 10
121.606
 20
69.2506
 30
0.0
 11
122.756
 21
70.5926
 31
0.0
  0
LINE
  8
0
 62
     0
 10
122.756
 20
70.5926
 30
0.0
 11
123.733
 21
71.7077
 31
0.0
  0
LINE
  8
0
 62
     0
 10
123.733
 20
71.7077
 30
0.0
 11
124.465
 21
72.5096
 31
0.0
  0
LINE
  8
0
 62
     0
 10
124.465
 20
72.5096
 30
0.0
 11
124.883
 21
72.9188
 31
0.0
  0
LINE
  8
0
 62
     0
 10
124.883
 20
72.9188
 30
0.0
 11
125.712
 21
73.3559
 31
0.0
  0
LINE
  8
0
 62
     0
 10
125.712
 20
73.3559
 30
0.0
 11
126.964
 21
73.7665
 31
0.0
  0
LINE
  8
0
 62
     0
 10
126.964
 20
73.7665
 30
0.0
 11
127.645
 21
74.0241
 31
0.0
  0
LINE
  8
0
 62
     0
 10
127.645
 20
74.0241
 30
0.0
 11
128.367
 21
74.392
 31
0.0
  0
LINE
  8
0
 62
     0
 10
128.367
 20
74.392
 30
0.0
 11
129.048
 21
74.8273
 31
0.0
  0
LINE
  8
0
 62
     0
 10
129.048
 20
74.8273
 30
0.0
 11
129.61
 21
75.2821
 31
0.0
  0
LINE
  8
0
 62
     0
 10
129.61
 20
75.2821
 30
0.0
 11
130.074
 21
75.8254
 31
0.0
  0
LINE
  8
0
 62
     0
 10
130.074
 20
75.8254
 30
0.0
 11
130.591
 21
76.5281
 31
0.0
  0
LINE
  8
0
 62
     0
 10
130.591
 20
76.5281
 30
0.0
 11
131.118
 21
77.3204
 31
0.0
  0
LINE
  8
0
 62
     0
 10
131.118
 20
77.3204
 30
0.0
 11
131.612
 21
78.1279
 31
0.0
  0
LINE
  8
0
 62
     0
 10
131.612
 20
78.1279
 30
0.0
 11
132.03
 21
78.8776
 31
0.0
  0
LINE
  8
0
 62
     0
 10
132.03
 20
78.8776
 30
0.0
 11
132.329
 21
79.4949
 31
0.0
  0
LINE
  8
0
 62
     0
 10
132.329
 20
79.4949
 30
0.0
 11
132.465
 21
79.9098
 31
0.0
  0
LINE
  8
0
 62
     0
 10
132.465
 20
79.9098
 30
0.0
 11
132.398
 21
80.0446
 31
0.0
  0
LINE
  8
0
 62
     0
 10
132.398
 20
80.0446
 30
0.0
 11
132.132
 21
79.8491
 31
0.0
  0
LINE
  8
0
 62
     0
 10
132.132
 20
79.8491
 30
0.0
 11
131.603
 21
79.3186
 31
0.0
  0
LINE
  8
0
 62
     0
 10
131.603
 20
79.3186
 30
0.0
 11
130.889
 21
78.5428
 31
0.0
  0
LINE
  8
0
 62
     0
 10
130.889
 20
78.5428
 30
0.0
 11
130.069
 21
77.6111
 31
0.0
  0
LINE
  8
0
 62
     0
 10
130.069
 20
77.6111
 30
0.0
 11
129.078
 21
76.4575
 31
0.0
  0
LINE
  8
0
 62
     0
 10
129.078
 20
76.4575
 30
0.0
 11
128.21
 21
75.5978
 31
0.0
  0
LINE
  8
0
 62
     0
 10
128.21
 20
75.5978
 30
0.0
 11
127.365
 21
75.0136
 31
0.0
  0
LINE
  8
0
 62
     0
 10
127.365
 20
75.0136
 30
0.0
 11
126.443
 21
74.6799
 31
0.0
  0
LINE
  8
0
 62
     0
 10
126.443
 20
74.6799
 30
0.0
 11
125.348
 21
74.5755
 31
0.0
  0
LINE
  8
0
 62
     0
 10
125.348
 20
74.5755
 30
0.0
 11
123.977
 21
74.6799
 31
0.0
  0
LINE
  8
0
 62
     0
 10
123.977
 20
74.6799
 30
0.0
 11
122.232
 21
74.9709
 31
0.0
  0
LINE
  8
0
 62
     0
 10
122.232
 20
74.9709
 30
0.0
 11
120.015
 21
75.4242
 31
0.0
  0
LINE
  8
0
 62
     0
 10
120.015
 20
75.4242
 30
0.0
 11
117.887
 21
75.8666
 31
0.0
  0
LINE
  8
0
 62
     0
 10
117.887
 20
75.8666
 30
0.0
 11
115.936
 21
76.2621
 31
0.0
  0
LINE
  8
0
 62
     0
 10
115.936
 20
76.2621
 30
0.0
 11
114.373
 21
76.5651
 31
0.0
  0
LINE
  8
0
 62
     0
 10
114.373
 20
76.5651
 30
0.0
 11
113.418
 21
76.7292
 31
0.0
  0
LINE
  8
0
 62
     0
 10
113.418
 20
76.7292
 30
0.0
 11
112.007
 21
76.9056
 31
0.0
  0
LINE
  8
0
 62
     0
 10
112.007
 20
76.9056
 30
0.0
 11
113.065
 21
76.3764
 31
0.0
  0
LINE
  8
0
 62
     0
 10
113.065
 20
76.3764
 30
0.0
 11
113.68
 21
76.0885
 31
0.0
  0
LINE
  8
0
 62
     0
 10
113.68
 20
76.0885
 30
0.0
 11
114.551
 21
75.6846
 31
0.0
  0
LINE
  8
0
 62
     0
 10
114.551
 20
75.6846
 30
0.0
 11
115.559
 21
75.2217
 31
0.0
  0
LINE
  8
0
 62
     0
 10
115.559
 20
75.2217
 30
0.0
 11
116.593
 21
74.7529
 31
0.0
  0
LINE
  8
0
 62
     0
 10
116.593
 20
74.7529
 30
0.0
 11
119.063
 21
73.6604
 31
0.0
  0
LINE
  8
0
 62
     0
 10
119.063
 20
73.6604
 30
0.0
 11
115.781
 21
70.5915
 31
0.0
  0
LINE
  8
0
 62
     0
 10
115.781
 20
70.5915
 30
0.0
 11
114.366
 21
69.2976
 31
0.0
  0
LINE
  8
0
 62
     0
 10
114.366
 20
69.2976
 30
0.0
 11
112.933
 21
68.0918
 31
0.0
  0
LINE
  8
0
 62
     0
 10
112.933
 20
68.0918
 30
0.0
 11
111.643
 21
67.1036
 31
0.0
  0
LINE
  8
0
 62
     0
 10
111.643
 20
67.1036
 30
0.0
 11
110.666
 21
66.4626
 31
0.0
  0
LINE
  8
0
 62
     0
 10
110.666
 20
66.4626
 30
0.0
 11
109.518
 21
65.8922
 31
0.0
  0
LINE
  8
0
 62
     0
 10
109.518
 20
65.8922
 30
0.0
 11
108.359
 21
65.5959
 31
0.0
  0
LINE
  8
0
 62
     0
 10
108.359
 20
65.5959
 30
0.0
 11
106.573
 21
65.4773
 31
0.0
  0
LINE
  8
0
 62
     0
 10
106.573
 20
65.4773
 30
0.0
 11
103.54
 21
65.4403
 31
0.0
  0
LINE
  8
0
 62
     0
 10
103.54
 20
65.4403
 30
0.0
 11
101.042
 21
65.4678
 31
0.0
  0
LINE
  8
0
 62
     0
 10
101.042
 20
65.4678
 30
0.0
 11
99.1969
 21
65.5546
 31
0.0
  0
LINE
  8
0
 62
     0
 10
99.1969
 20
65.5546
 30
0.0
 11
97.9001
 21
65.7091
 31
0.0
  0
LINE
  8
0
 62
     0
 10
97.9001
 20
65.7091
 30
0.0
 11
97.0499
 21
65.9335
 31
0.0
  0
LINE
  8
0
 62
     0
 10
97.0499
 20
65.9335
 30
0.0
 11
96.4449
 21
66.3568
 31
0.0
  0
LINE
  8
0
 62
     0
 10
96.4449
 20
66.3568
 30
0.0
 11
95.534
 21
67.1932
 31
0.0
  0
LINE
  8
0
 62
     0
 10
95.534
 20
67.1932
 30
0.0
 11
94.4354
 21
68.3094
 31
0.0
  0
LINE
  8
0
 62
     0
 10
94.4354
 20
68.3094
 30
0.0
 11
93.2699
 21
69.5731
 31
0.0
  0
LINE
  8
0
 62
     0
 10
93.2699
 20
69.5731
 30
0.0
 11
92.1537
 21
70.8519
 31
0.0
  0
LINE
  8
0
 62
     0
 10
92.1537
 20
70.8519
 30
0.0
 11
91.2096
 21
72.0122
 31
0.0
  0
LINE
  8
0
 62
     0
 10
91.2096
 20
72.0122
 30
0.0
 11
90.5549
 21
72.9216
 31
0.0
  0
LINE
  8
0
 62
     0
 10
90.5549
 20
72.9216
 30
0.0
 11
90.3111
 21
73.448
 31
0.0
  0
LINE
  8
0
 62
     0
 10
90.3111
 20
73.448
 30
0.0
 11
90.5027
 21
73.5528
 31
0.0
  0
LINE
  8
0
 62
     0
 10
90.5027
 20
73.5528
 30
0.0
 11
91.0248
 21
73.6438
 31
0.0
  0
LINE
  8
0
 62
     0
 10
91.0248
 20
73.6438
 30
0.0
 11
91.7995
 21
73.7073
 31
0.0
  0
LINE
  8
0
 62
     0
 10
91.7995
 20
73.7073
 30
0.0
 11
92.7446
 21
73.7306
 31
0.0
  0
LINE
  8
0
 62
     0
 10
92.7446
 20
73.7306
 30
0.0
 11
93.9504
 21
73.7609
 31
0.0
  0
LINE
  8
0
 62
     0
 10
93.9504
 20
73.7609
 30
0.0
 11
94.8312
 21
73.8671
 31
0.0
  0
LINE
  8
0
 62
     0
 10
94.8312
 20
73.8671
 30
0.0
 11
95.4786
 21
74.0738
 31
0.0
  0
LINE
  8
0
 62
     0
 10
95.4786
 20
74.0738
 30
0.0
 11
95.9915
 21
74.4001
 31
0.0
  0
LINE
  8
0
 62
     0
 10
95.9915
 20
74.4001
 30
0.0
 11
96.4544
 21
74.7998
 31
0.0
  0
LINE
  8
0
 62
     0
 10
96.4544
 20
74.7998
 30
0.0
 11
96.6336
 21
75.081
 31
0.0
  0
LINE
  8
0
 62
     0
 10
96.6336
 20
75.081
 30
0.0
 11
96.5359
 21
75.3731
 31
0.0
  0
LINE
  8
0
 62
     0
 10
96.5359
 20
75.3731
 30
0.0
 11
96.1679
 21
75.8112
 31
0.0
  0
LINE
  8
0
 62
     0
 10
96.1679
 20
75.8112
 30
0.0
 11
95.4525
 21
76.3545
 31
0.0
  0
LINE
  8
0
 62
     0
 10
95.4525
 20
76.3545
 30
0.0
 11
94.579
 21
76.5006
 31
0.0
  0
LINE
  8
0
 62
     0
 10
94.579
 20
76.5006
 30
0.0
 11
93.4681
 21
76.2497
 31
0.0
  0
LINE
  8
0
 62
     0
 10
93.4681
 20
76.2497
 30
0.0
 11
92.039
 21
75.6006
 31
0.0
  0
LINE
  8
0
 62
     0
 10
92.039
 20
75.6006
 30
0.0
 11
91.2054
 21
75.2369
 31
0.0
  0
LINE
  8
0
 62
     0
 10
91.2054
 20
75.2369
 30
0.0
 11
90.2628
 21
74.9088
 31
0.0
  0
LINE
  8
0
 62
     0
 10
90.2628
 20
74.9088
 30
0.0
 11
89.3258
 21
74.6538
 31
0.0
  0
LINE
  8
0
 62
     0
 10
89.3258
 20
74.6538
 30
0.0
 11
88.5112
 21
74.5063
 31
0.0
  0
LINE
  8
0
 62
     0
 10
88.5112
 20
74.5063
 30
0.0
 11
85.9317
 21
74.6841
 31
0.0
  0
LINE
  8
0
 62
     0
 10
85.9317
 20
74.6841
 30
0.0
 11
83.3519
 21
75.5745
 31
0.0
  0
LINE
  8
0
 62
     0
 10
83.3519
 20
75.5745
 30
0.0
 11
81.1294
 21
77.0075
 31
0.0
  0
LINE
  8
0
 62
     0
 10
81.1294
 20
77.0075
 30
0.0
 11
79.6216
 21
78.8098
 31
0.0
  0
LINE
  8
0
 62
     0
 10
79.6216
 20
78.8098
 30
0.0
 11
79.375
 21
79.3253
 31
0.0
  0
LINE
  8
0
 62
     0
 10
79.375
 20
79.3253
 30
0.0
 11
79.1849
 21
79.9289
 31
0.0
  0
LINE
  8
0
 62
     0
 10
79.1849
 20
79.9289
 30
0.0
 11
79.0416
 21
80.7999
 31
0.0
  0
LINE
  8
0
 62
     0
 10
79.0416
 20
80.7999
 30
0.0
 11
78.934
 21
82.1186
 31
0.0
  0
LINE
  8
0
 62
     0
 10
78.934
 20
82.1186
 30
0.0
 11
78.8529
 21
84.0617
 31
0.0
  0
LINE
  8
0
 62
     0
 10
78.8529
 20
84.0617
 30
0.0
 11
78.788
 21
86.808
 31
0.0
  0
LINE
  8
0
 62
     0
 10
78.788
 20
86.808
 30
0.0
 11
78.7301
 21
90.5372
 31
0.0
  0
LINE
  8
0
 62
     0
 10
78.7301
 20
90.5372
 30
0.0
 11
78.6694
 21
95.4264
 31
0.0
  0
LINE
  8
0
 62
     0
 10
78.6694
 20
95.4264
 30
0.0
 11
78.6088
 21
100.389
 31
0.0
  0
LINE
  8
0
 62
     0
 10
78.6088
 20
100.389
 30
0.0
 11
78.5537
 21
104.156
 31
0.0
  0
LINE
  8
0
 62
     0
 10
78.5537
 20
104.156
 30
0.0
 11
78.4902
 21
106.922
 31
0.0
  0
LINE
  8
0
 62
     0
 10
78.4902
 20
106.922
 30
0.0
 11
78.4091
 21
108.877
 31
0.0
  0
LINE
  8
0
 62
     0
 10
78.4091
 20
108.877
 30
0.0
 11
78.2948
 21
110.214
 31
0.0
  0
LINE
  8
0
 62
     0
 10
78.2948
 20
110.214
 30
0.0
 11
78.1375
 21
111.124
 31
0.0
  0
LINE
  8
0
 62
     0
 10
78.1375
 20
111.124
 30
0.0
 11
77.9254
 21
111.799
 31
0.0
  0
LINE
  8
0
 62
     0
 10
77.9254
 20
111.799
 30
0.0
 11
77.6471
 21
112.43
 31
0.0
  0
LINE
  8
0
 62
     0
 10
77.6471
 20
112.43
 30
0.0
 11
77.2502
 21
113.173
 31
0.0
  0
LINE
  8
0
 62
     0
 10
77.2502
 20
113.173
 30
0.0
 11
76.7182
 21
113.969
 31
0.0
  0
LINE
  8
0
 62
     0
 10
76.7182
 20
113.969
 30
0.0
 11
76.0829
 21
114.785
 31
0.0
  0
LINE
  8
0
 62
     0
 10
76.0829
 20
114.785
 30
0.0
 11
75.3787
 21
115.584
 31
0.0
  0
LINE
  8
0
 62
     0
 10
75.3787
 20
115.584
 30
0.0
 11
74.6386
 21
116.328
 31
0.0
  0
LINE
  8
0
 62
     0
 10
74.6386
 20
116.328
 30
0.0
 11
73.896
 21
116.98
 31
0.0
  0
LINE
  8
0
 62
     0
 10
73.896
 20
116.98
 30
0.0
 11
73.182
 21
117.505
 31
0.0
  0
LINE
  8
0
 62
     0
 10
73.182
 20
117.505
 30
0.0
 11
72.5318
 21
117.864
 31
0.0
  0
LINE
  8
0
 62
     0
 10
72.5318
 20
117.864
 30
0.0
 11
71.7448
 21
118.371
 31
0.0
  0
LINE
  8
0
 62
     0
 10
71.7448
 20
118.371
 30
0.0
 11
71.5038
 21
119.036
 31
0.0
  0
LINE
  8
0
 62
     0
 10
71.5038
 20
119.036
 30
0.0
 11
71.8111
 21
120.007
 31
0.0
  0
LINE
  8
0
 62
     0
 10
71.8111
 20
120.007
 30
0.0
 11
72.6722
 21
121.426
 31
0.0
  0
LINE
  8
0
 62
     0
 10
72.6722
 20
121.426
 30
0.0
 11
73.8861
 21
123.872
 31
0.0
  0
LINE
  8
0
 62
     0
 10
73.8861
 20
123.872
 30
0.0
 11
73.7912
 21
125.934
 31
0.0
  0
LINE
  8
0
 62
     0
 10
73.7912
 20
125.934
 30
0.0
 11
72.2545
 21
127.955
 31
0.0
  0
LINE
  8
0
 62
     0
 10
72.2545
 20
127.955
 30
0.0
 11
69.1444
 21
130.281
 31
0.0
  0
LINE
  8
0
 62
     0
 10
69.1444
 20
130.281
 30
0.0
 11
66.3497
 21
131.968
 31
0.0
  0
LINE
  8
0
 62
     0
 10
66.3497
 20
131.968
 30
0.0
 11
63.5607
 21
133.346
 31
0.0
  0
LINE
  8
0
 62
     0
 10
63.5607
 20
133.346
 30
0.0
 11
60.5222
 21
134.534
 31
0.0
  0
LINE
  8
0
 62
     0
 10
60.5222
 20
134.534
 30
0.0
 11
56.9736
 21
135.643
 31
0.0
  0
LINE
  8
0
 62
     0
 10
56.9736
 20
135.643
 30
0.0
 11
54.3828
 21
136.393
 31
0.0
  0
LINE
  8
0
 62
     0
 10
54.3828
 20
136.393
 30
0.0
 11
52.3984
 21
137.024
 31
0.0
  0
LINE
  8
0
 62
     0
 10
52.3984
 20
137.024
 30
0.0
 11
50.9669
 21
137.576
 31
0.0
  0
LINE
  8
0
 62
     0
 10
50.9669
 20
137.576
 30
0.0
 11
50.0366
 21
138.086
 31
0.0
  0
LINE
  8
0
 62
     0
 10
50.0366
 20
138.086
 30
0.0
 11
49.5543
 21
138.593
 31
0.0
  0
LINE
  8
0
 62
     0
 10
49.5543
 20
138.593
 30
0.0
 11
49.4676
 21
139.136
 31
0.0
  0
LINE
  8
0
 62
     0
 10
49.4676
 20
139.136
 30
0.0
 11
49.7237
 21
139.751
 31
0.0
  0
LINE
  8
0
 62
     0
 10
49.7237
 20
139.751
 30
0.0
 11
50.2708
 21
140.476
 31
0.0
  0
LINE
  8
0
 62
     0
 10
50.2708
 20
140.476
 30
0.0
 11
50.607
 21
140.886
 31
0.0
  0
LINE
  8
0
 62
     0
 10
50.607
 20
140.886
 30
0.0
 11
50.8522
 21
141.243
 31
0.0
  0
LINE
  8
0
 62
     0
 10
50.8522
 20
141.243
 30
0.0
 11
51.0148
 21
141.593
 31
0.0
  0
LINE
  8
0
 62
     0
 10
51.0148
 20
141.593
 30
0.0
 11
51.0992
 21
141.981
 31
0.0
  0
LINE
  8
0
 62
     0
 10
51.0992
 20
141.981
 30
0.0
 11
51.1101
 21
142.449
 31
0.0
  0
LINE
  8
0
 62
     0
 10
51.1101
 20
142.449
 30
0.0
 11
51.0536
 21
143.042
 31
0.0
  0
LINE
  8
0
 62
     0
 10
51.0536
 20
143.042
 30
0.0
 11
50.9365
 21
143.804
 31
0.0
  0
LINE
  8
0
 62
     0
 10
50.9365
 20
143.804
 30
0.0
 11
50.764
 21
144.779
 31
0.0
  0
LINE
  8
0
 62
     0
 10
50.764
 20
144.779
 30
0.0
 11
50.6317
 21
147.332
 31
0.0
  0
LINE
  8
0
 62
     0
 10
50.6317
 20
147.332
 30
0.0
 11
51.4255
 21
149.207
 31
0.0
  0
LINE
  8
0
 62
     0
 10
51.4255
 20
149.207
 30
0.0
 11
53.2638
 21
150.555
 31
0.0
  0
LINE
  8
0
 62
     0
 10
53.2638
 20
150.555
 30
0.0
 11
56.2681
 21
151.518
 31
0.0
  0
LINE
  8
0
 62
     0
 10
56.2681
 20
151.518
 30
0.0
 11
61.4881
 21
152.556
 31
0.0
  0
LINE
  8
0
 62
     0
 10
61.4881
 20
152.556
 30
0.0
 11
67.5569
 21
153.463
 31
0.0
  0
LINE
  8
0
 62
     0
 10
67.5569
 20
153.463
 30
0.0
 11
74.6827
 21
154.271
 31
0.0
  0
LINE
  8
0
 62
     0
 10
74.6827
 20
154.271
 30
0.0
 11
83.0792
 21
155.01
 31
0.0
  0
LINE
  8
0
 62
     0
 10
83.0792
 20
155.01
 30
0.0
 11
85.0318
 21
155.096
 31
0.0
  0
LINE
  8
0
 62
     0
 10
85.0318
 20
155.096
 30
0.0
 11
87.7549
 21
155.115
 31
0.0
  0
LINE
  8
0
 62
     0
 10
87.7549
 20
155.115
 30
0.0
 11
90.9906
 21
155.078
 31
0.0
  0
LINE
  8
0
 62
     0
 10
90.9906
 20
155.078
 30
0.0
 11
94.4824
 21
154.994
 31
0.0
  0
LINE
  8
0
 62
     0
 10
94.4824
 20
154.994
 30
0.0
 11
97.9689
 21
154.869
 31
0.0
  0
LINE
  8
0
 62
     0
 10
97.9689
 20
154.869
 30
0.0
 11
101.196
 21
154.714
 31
0.0
  0
LINE
  8
0
 62
     0
 10
101.196
 20
154.714
 30
0.0
 11
103.903
 21
154.535
 31
0.0
  0
LINE
  8
0
 62
     0
 10
103.903
 20
154.535
 30
0.0
 11
105.833
 21
154.34
 31
0.0
  0
LINE
  8
0
 62
     0
 10
64.3819
 20
120.227
 30
0.0
 11
67.4949
 21
118.011
 31
0.0
  0
LINE
  8
0
 62
     0
 10
67.4949
 20
118.011
 30
0.0
 11
69.6337
 21
115.861
 31
0.0
  0
LINE
  8
0
 62
     0
 10
69.6337
 20
115.861
 30
0.0
 11
70.8656
 21
113.698
 31
0.0
  0
LINE
  8
0
 62
     0
 10
70.8656
 20
113.698
 30
0.0
 11
71.2611
 21
111.442
 31
0.0
  0
LINE
  8
0
 62
     0
 10
71.2611
 20
111.442
 30
0.0
 11
71.2611
 21
109.996
 31
0.0
  0
LINE
  8
0
 62
     0
 10
71.2611
 20
109.996
 30
0.0
 11
70.0264
 21
110.207
 31
0.0
  0
LINE
  8
0
 62
     0
 10
70.0264
 20
110.207
 30
0.0
 11
69.402
 21
110.374
 31
0.0
  0
LINE
  8
0
 62
     0
 10
69.402
 20
110.374
 30
0.0
 11
68.6015
 21
110.636
 31
0.0
  0
LINE
  8
0
 62
     0
 10
68.6015
 20
110.636
 30
0.0
 11
67.7291
 21
110.957
 31
0.0
  0
LINE
  8
0
 62
     0
 10
67.7291
 20
110.957
 30
0.0
 11
66.8874
 21
111.301
 31
0.0
  0
LINE
  8
0
 62
     0
 10
66.8874
 20
111.301
 30
0.0
 11
64.4797
 21
112.226
 31
0.0
  0
LINE
  8
0
 62
     0
 10
64.4797
 20
112.226
 30
0.0
 11
61.9206
 21
112.868
 31
0.0
  0
LINE
  8
0
 62
     0
 10
61.9206
 20
112.868
 30
0.0
 11
58.8987
 21
113.291
 31
0.0
  0
LINE
  8
0
 62
     0
 10
58.8987
 20
113.291
 30
0.0
 11
55.1035
 21
113.558
 31
0.0
  0
LINE
  8
0
 62
     0
 10
55.1035
 20
113.558
 30
0.0
 11
52.1215
 21
113.71
 31
0.0
  0
LINE
  8
0
 62
     0
 10
52.1215
 20
113.71
 30
0.0
 11
50.4031
 21
113.887
 31
0.0
  0
LINE
  8
0
 62
     0
 10
50.4031
 20
113.887
 30
0.0
 11
49.5169
 21
114.155
 31
0.0
  0
LINE
  8
0
 62
     0
 10
49.5169
 20
114.155
 30
0.0
 11
49.0361
 21
114.583
 31
0.0
  0
LINE
  8
0
 62
     0
 10
49.0361
 20
114.583
 30
0.0
 11
48.5126
 21
115.62
 31
0.0
  0
LINE
  8
0
 62
     0
 10
48.5126
 20
115.62
 30
0.0
 11
48.1887
 21
117.03
 31
0.0
  0
LINE
  8
0
 62
     0
 10
48.1887
 20
117.03
 30
0.0
 11
48.103
 21
118.486
 31
0.0
  0
LINE
  8
0
 62
     0
 10
48.103
 20
118.486
 30
0.0
 11
48.2946
 21
119.662
 31
0.0
  0
LINE
  8
0
 62
     0
 10
48.2946
 20
119.662
 30
0.0
 11
48.7151
 21
120.452
 31
0.0
  0
LINE
  8
0
 62
     0
 10
48.7151
 20
120.452
 30
0.0
 11
49.4097
 21
120.968
 31
0.0
  0
LINE
  8
0
 62
     0
 10
49.4097
 20
120.968
 30
0.0
 11
50.5615
 21
121.301
 31
0.0
  0
LINE
  8
0
 62
     0
 10
50.5615
 20
121.301
 30
0.0
 11
52.3515
 21
121.532
 31
0.0
  0
LINE
  8
0
 62
     0
 10
52.3515
 20
121.532
 30
0.0
 11
53.3866
 21
121.656
 31
0.0
  0
LINE
  8
0
 62
     0
 10
53.3866
 20
121.656
 30
0.0
 11
54.3581
 21
121.802
 31
0.0
  0
LINE
  8
0
 62
     0
 10
54.3581
 20
121.802
 30
0.0
 11
55.1642
 21
121.955
 31
0.0
  0
LINE
  8
0
 62
     0
 10
55.1642
 20
121.955
 30
0.0
 11
55.7029
 21
122.097
 31
0.0
  0
LINE
  8
0
 62
     0
 10
55.7029
 20
122.097
 30
0.0
 11
56.2335
 21
122.21
 31
0.0
  0
LINE
  8
0
 62
     0
 10
56.2335
 20
122.21
 30
0.0
 11
57.0163
 21
122.283
 31
0.0
  0
LINE
  8
0
 62
     0
 10
57.0163
 20
122.283
 30
0.0
 11
57.9452
 21
122.316
 31
0.0
  0
LINE
  8
0
 62
     0
 10
57.9452
 20
122.316
 30
0.0
 11
58.9139
 21
122.308
 31
0.0
  0
LINE
  8
0
 62
     0
 10
58.9139
 20
122.308
 30
0.0
 11
59.6456
 21
122.275
 31
0.0
  0
LINE
  8
0
 62
     0
 10
59.6456
 20
122.275
 30
0.0
 11
60.2643
 21
122.211
 31
0.0
  0
LINE
  8
0
 62
     0
 10
60.2643
 20
122.211
 30
0.0
 11
60.8171
 21
122.102
 31
0.0
  0
LINE
  8
0
 62
     0
 10
60.8171
 20
122.102
 30
0.0
 11
61.3558
 21
121.929
 31
0.0
  0
LINE
  8
0
 62
     0
 10
61.3558
 20
121.929
 30
0.0
 11
61.9319
 21
121.674
 31
0.0
  0
LINE
  8
0
 62
     0
 10
61.9319
 20
121.674
 30
0.0
 11
62.5948
 21
121.317
 31
0.0
  0
LINE
  8
0
 62
     0
 10
62.5948
 20
121.317
 30
0.0
 11
63.3938
 21
120.84
 31
0.0
  0
LINE
  8
0
 62
     0
 10
63.3938
 20
120.84
 30
0.0
 11
64.3819
 21
120.227
 31
0.0
  0
LINE
  8
0
 62
     0
 10
70.4854
 20
104.21
 30
0.0
 11
71.3299
 21
103.469
 31
0.0
  0
LINE
  8
0
 62
     0
 10
71.3299
 20
103.469
 30
0.0
 11
71.7187
 21
102.61
 31
0.0
  0
LINE
  8
0
 62
     0
 10
71.7187
 20
102.61
 30
0.0
 11
71.6855
 21
101.389
 31
0.0
  0
LINE
  8
0
 62
     0
 10
71.6855
 20
101.389
 30
0.0
 11
71.2611
 21
99.5535
 31
0.0
  0
LINE
  8
0
 62
     0
 10
71.2611
 20
99.5535
 30
0.0
 11
69.9149
 21
94.9152
 31
0.0
  0
LINE
  8
0
 62
     0
 10
69.9149
 20
94.9152
 30
0.0
 11
68.6499
 21
90.9906
 31
0.0
  0
LINE
  8
0
 62
     0
 10
68.6499
 20
90.9906
 30
0.0
 11
67.5693
 21
88.0844
 31
0.0
  0
LINE
  8
0
 62
     0
 10
67.5693
 20
88.0844
 30
0.0
 11
66.7812
 21
86.5008
 31
0.0
  0
LINE
  8
0
 62
     0
 10
66.7812
 20
86.5008
 30
0.0
 11
65.738
 21
85.4604
 31
0.0
  0
LINE
  8
0
 62
     0
 10
65.738
 20
85.4604
 30
0.0
 11
64.0856
 21
84.2105
 31
0.0
  0
LINE
  8
0
 62
     0
 10
64.0856
 20
84.2105
 30
0.0
 11
62.0187
 21
82.8573
 31
0.0
  0
LINE
  8
0
 62
     0
 10
62.0187
 20
82.8573
 30
0.0
 11
59.7285
 21
81.5097
 31
0.0
  0
LINE
  8
0
 62
     0
 10
59.7285
 20
81.5097
 30
0.0
 11
57.4065
 21
80.2749
 31
0.0
  0
LINE
  8
0
 62
     0
 10
57.4065
 20
80.2749
 30
0.0
 11
55.2457
 21
79.2593
 31
0.0
  0
LINE
  8
0
 62
     0
 10
55.2457
 20
79.2593
 30
0.0
 11
53.4377
 21
78.5703
 31
0.0
  0
LINE
  8
0
 62
     0
 10
53.4377
 20
78.5703
 30
0.0
 11
52.1751
 21
78.3167
 31
0.0
  0
LINE
  8
0
 62
     0
 10
52.1751
 20
78.3167
 30
0.0
 11
51.2657
 21
78.3414
 31
0.0
  0
LINE
  8
0
 62
     0
 10
51.2657
 20
78.3414
 30
0.0
 11
50.534
 21
78.4669
 31
0.0
  0
LINE
  8
0
 62
     0
 10
50.534
 20
78.4669
 30
0.0
 11
49.9209
 21
78.7756
 31
0.0
  0
LINE
  8
0
 62
     0
 10
49.9209
 20
78.7756
 30
0.0
 11
49.3656
 21
79.3489
 31
0.0
  0
LINE
  8
0
 62
     0
 10
49.3656
 20
79.3489
 30
0.0
 11
48.8086
 21
80.2707
 31
0.0
  0
LINE
  8
0
 62
     0
 10
48.8086
 20
80.2707
 30
0.0
 11
48.1912
 21
81.6211
 31
0.0
  0
LINE
  8
0
 62
     0
 10
48.1912
 20
81.6211
 30
0.0
 11
47.4514
 21
83.4831
 31
0.0
  0
LINE
  8
0
 62
     0
 10
47.4514
 20
83.4831
 30
0.0
 11
46.5307
 21
85.9374
 31
0.0
  0
LINE
  8
0
 62
     0
 10
46.5307
 20
85.9374
 30
0.0
 11
45.6971
 21
88.1063
 31
0.0
  0
LINE
  8
0
 62
     0
 10
45.6971
 20
88.1063
 30
0.0
 11
44.7544
 21
90.4035
 31
0.0
  0
LINE
  8
0
 62
     0
 10
44.7544
 20
90.4035
 30
0.0
 11
43.8175
 21
92.5505
 31
0.0
  0
LINE
  8
0
 62
     0
 10
43.8175
 20
92.5505
 30
0.0
 11
43.0029
 21
94.2619
 31
0.0
  0
LINE
  8
0
 62
     0
 10
43.0029
 20
94.2619
 30
0.0
 11
41.8553
 21
96.81
 31
0.0
  0
LINE
  8
0
 62
     0
 10
41.8553
 20
96.81
 30
0.0
 11
41.3135
 21
98.7118
 31
0.0
  0
LINE
  8
0
 62
     0
 10
41.3135
 20
98.7118
 30
0.0
 11
41.3604
 21
100.091
 31
0.0
  0
LINE
  8
0
 62
     0
 10
41.3604
 20
100.091
 30
0.0
 11
41.9806
 21
101.071
 31
0.0
  0
LINE
  8
0
 62
     0
 10
41.9806
 20
101.071
 30
0.0
 11
42.3168
 21
101.328
 31
0.0
  0
LINE
  8
0
 62
     0
 10
42.3168
 20
101.328
 30
0.0
 11
42.7577
 21
101.519
 31
0.0
  0
LINE
  8
0
 62
     0
 10
42.7577
 20
101.519
 30
0.0
 11
43.3987
 21
101.647
 31
0.0
  0
LINE
  8
0
 62
     0
 10
43.3987
 20
101.647
 30
0.0
 11
44.3385
 21
101.716
 31
0.0
  0
LINE
  8
0
 62
     0
 10
44.3385
 20
101.716
 30
0.0
 11
45.6738
 21
101.728
 31
0.0
  0
LINE
  8
0
 62
     0
 10
45.6738
 20
101.728
 30
0.0
 11
47.5008
 21
101.687
 31
0.0
  0
LINE
  8
0
 62
     0
 10
47.5008
 20
101.687
 30
0.0
 11
49.9181
 21
101.597
 31
0.0
  0
LINE
  8
0
 62
     0
 10
49.9181
 20
101.597
 30
0.0
 11
53.0229
 21
101.46
 31
0.0
  0
LINE
  8
0
 62
     0
 10
53.0229
 20
101.46
 30
0.0
 11
55.7156
 21
101.36
 31
0.0
  0
LINE
  8
0
 62
     0
 10
55.7156
 20
101.36
 30
0.0
 11
57.9258
 21
101.323
 31
0.0
  0
LINE
  8
0
 62
     0
 10
57.9258
 20
101.323
 30
0.0
 11
59.4212
 21
101.346
 31
0.0
  0
LINE
  8
0
 62
     0
 10
59.4212
 20
101.346
 30
0.0
 11
59.9722
 21
101.424
 31
0.0
  0
LINE
  8
0
 62
     0
 10
59.9722
 20
101.424
 30
0.0
 11
59.7902
 21
101.738
 31
0.0
  0
LINE
  8
0
 62
     0
 10
59.7902
 20
101.738
 30
0.0
 11
59.3729
 21
102.129
 31
0.0
  0
LINE
  8
0
 62
     0
 10
59.3729
 20
102.129
 30
0.0
 11
59.1192
 21
102.376
 31
0.0
  0
LINE
  8
0
 62
     0
 10
59.1192
 20
102.376
 30
0.0
 11
59.2046
 21
102.566
 31
0.0
  0
LINE
  8
0
 62
     0
 10
59.2046
 20
102.566
 30
0.0
 11
59.6995
 21
102.749
 31
0.0
  0
LINE
  8
0
 62
     0
 10
59.6995
 20
102.749
 30
0.0
 11
60.6778
 21
102.975
 31
0.0
  0
LINE
  8
0
 62
     0
 10
60.6778
 20
102.975
 30
0.0
 11
61.6617
 21
103.197
 31
0.0
  0
LINE
  8
0
 62
     0
 10
61.6617
 20
103.197
 30
0.0
 11
62.9211
 21
103.47
 31
0.0
  0
LINE
  8
0
 62
     0
 10
62.9211
 20
103.47
 30
0.0
 11
64.2938
 21
103.77
 31
0.0
  0
LINE
  8
0
 62
     0
 10
64.2938
 20
103.77
 30
0.0
 11
65.6167
 21
104.069
 31
0.0
  0
LINE
  8
0
 62
     0
 10
65.6167
 20
104.069
 30
0.0
 11
66.8694
 21
104.337
 31
0.0
  0
LINE
  8
0
 62
     0
 10
66.8694
 20
104.337
 30
0.0
 11
67.8353
 21
104.528
 31
0.0
  0
LINE
  8
0
 62
     0
 10
67.8353
 20
104.528
 30
0.0
 11
68.5641
 21
104.648
 31
0.0
  0
LINE
  8
0
 62
     0
 10
68.5641
 20
104.648
 30
0.0
 11
69.1085
 21
104.696
 31
0.0
  0
LINE
  8
0
 62
     0
 10
69.1085
 20
104.696
 30
0.0
 11
69.5205
 21
104.676
 31
0.0
  0
LINE
  8
0
 62
     0
 10
69.5205
 20
104.676
 30
0.0
 11
69.8528
 21
104.586
 31
0.0
  0
LINE
  8
0
 62
     0
 10
69.8528
 20
104.586
 30
0.0
 11
70.1573
 21
104.43
 31
0.0
  0
LINE
  8
0
 62
     0
 10
70.1573
 20
104.43
 30
0.0
 11
70.4854
 21
104.21
 31
0.0
  0
LINE
  8
0
 62
     0
 10
63.8888
 20
76.4826
 30
0.0
 11
65.1482
 21
74.8714
 31
0.0
  0
LINE
  8
0
 62
     0
 10
65.1482
 20
74.8714
 30
0.0
 11
66.7191
 21
73.2014
 31
0.0
  0
LINE
  8
0
 62
     0
 10
66.7191
 20
73.2014
 30
0.0
 11
68.3024
 21
71.7695
 31
0.0
  0
LINE
  8
0
 62
     0
 10
68.3024
 20
71.7695
 30
0.0
 11
69.6034
 21
70.8723
 31
0.0
  0
LINE
  8
0
 62
     0
 10
69.6034
 20
70.8723
 30
0.0
 11
70.2867
 21
70.4702
 31
0.0
  0
LINE
  8
0
 62
     0
 10
70.2867
 20
70.4702
 30
0.0
 11
70.6836
 21
70.1104
 31
0.0
  0
LINE
  8
0
 62
     0
 10
70.6836
 20
70.1104
 30
0.0
 11
70.8477
 21
69.7177
 31
0.0
  0
LINE
  8
0
 62
     0
 10
70.8477
 20
69.7177
 30
0.0
 11
70.8381
 21
69.2146
 31
0.0
  0
LINE
  8
0
 62
     0
 10
70.8381
 20
69.2146
 30
0.0
 11
70.4233
 21
68.2681
 31
0.0
  0
LINE
  8
0
 62
     0
 10
70.4233
 20
68.2681
 30
0.0
 11
69.5096
 21
67.4564
 31
0.0
  0
LINE
  8
0
 62
     0
 10
69.5096
 20
67.4564
 30
0.0
 11
68.272
 21
66.8884
 31
0.0
  0
LINE
  8
0
 62
     0
 10
68.272
 20
66.8884
 30
0.0
 11
66.8874
 21
66.675
 31
0.0
  0
LINE
  8
0
 62
     0
 10
66.8874
 20
66.675
 30
0.0
 11
66.1388
 21
66.7343
 31
0.0
  0
LINE
  8
0
 62
     0
 10
66.1388
 20
66.7343
 30
0.0
 11
65.188
 21
66.8472
 31
0.0
  0
LINE
  8
0
 62
     0
 10
65.188
 20
66.8472
 30
0.0
 11
64.1533
 21
67.0084
 31
0.0
  0
LINE
  8
0
 62
     0
 10
64.1533
 20
67.0084
 30
0.0
 11
63.1472
 21
67.2042
 31
0.0
  0
LINE
  8
0
 62
     0
 10
63.1472
 20
67.2042
 30
0.0
 11
61.1752
 21
67.5802
 31
0.0
  0
LINE
  8
0
 62
     0
 10
61.1752
 20
67.5802
 30
0.0
 11
59.866
 21
67.703
 31
0.0
  0
LINE
  8
0
 62
     0
 10
59.866
 20
67.703
 30
0.0
 11
59.1386
 21
67.5665
 31
0.0
  0
LINE
  8
0
 62
     0
 10
59.1386
 20
67.5665
 30
0.0
 11
58.9139
 21
67.1682
 31
0.0
  0
LINE
  8
0
 62
     0
 10
58.9139
 20
67.1682
 30
0.0
 11
58.6574
 21
66.8073
 31
0.0
  0
LINE
  8
0
 62
     0
 10
58.6574
 20
66.8073
 30
0.0
 11
57.9741
 21
66.8168
 31
0.0
  0
LINE
  8
0
 62
     0
 10
57.9741
 20
66.8168
 30
0.0
 11
56.993
 21
67.1696
 31
0.0
  0
LINE
  8
0
 62
     0
 10
56.993
 20
67.1696
 30
0.0
 11
55.8451
 21
67.8395
 31
0.0
  0
LINE
  8
0
 62
     0
 10
55.8451
 20
67.8395
 30
0.0
 11
54.8488
 21
68.7737
 31
0.0
  0
LINE
  8
0
 62
     0
 10
54.8488
 20
68.7737
 30
0.0
 11
53.9873
 21
69.9961
 31
0.0
  0
LINE
  8
0
 62
     0
 10
53.9873
 20
69.9961
 30
0.0
 11
53.4377
 21
71.199
 31
0.0
  0
LINE
  8
0
 62
     0
 10
53.4377
 20
71.199
 30
0.0
 11
53.3756
 21
72.0729
 31
0.0
  0
LINE
  8
0
 62
     0
 10
53.3756
 20
72.0729
 30
0.0
 11
53.8081
 21
72.5745
 31
0.0
  0
LINE
  8
0
 62
     0
 10
53.8081
 20
72.5745
 30
0.0
 11
54.7426
 21
73.3256
 31
0.0
  0
LINE
  8
0
 62
     0
 10
54.7426
 20
73.3256
 30
0.0
 11
56.0215
 21
74.228
 31
0.0
  0
LINE
  8
0
 62
     0
 10
56.0215
 20
74.228
 30
0.0
 11
57.489
 21
75.1858
 31
0.0
  0
LINE
  8
0
 62
     0
 10
57.489
 20
75.1858
 30
0.0
 11
58.9926
 21
76.1009
 31
0.0
  0
LINE
  8
0
 62
     0
 10
58.9926
 20
76.1009
 30
0.0
 11
60.3747
 21
76.8752
 31
0.0
  0
LINE
  8
0
 62
     0
 10
60.3747
 20
76.8752
 30
0.0
 11
61.4811
 21
77.4114
 31
0.0
  0
LINE
  8
0
 62
     0
 10
61.4811
 20
77.4114
 30
0.0
 11
62.1591
 21
77.6111
 31
0.0
  0
LINE
  8
0
 62
     0
 10
62.1591
 20
77.6111
 30
0.0
 11
63.0633
 21
77.3522
 31
0.0
  0
LINE
  8
0
 62
     0
 10
63.0633
 20
77.3522
 30
0.0
 11
63.8888
 21
76.4826
 31
0.0
  0
LINE
  8
0
 62
     0
 10
44.8028
 20
63.2174
 30
0.0
 11
46.7512
 21
59.9186
 31
0.0
  0
LINE
  8
0
 62
     0
 10
46.7512
 20
59.9186
 30
0.0
 11
48.4794
 21
57.0798
 31
0.0
  0
LINE
  8
0
 62
     0
 10
48.4794
 20
57.0798
 30
0.0
 11
50.1551
 21
54.4615
 31
0.0
  0
LINE
  8
0
 62
     0
 10
50.1551
 20
54.4615
 30
0.0
 11
51.9451
 21
51.8185
 31
0.0
  0
LINE
  8
0
 62
     0
 10
51.9451
 20
51.8185
 30
0.0
 11
54.0205
 21
48.9109
 31
0.0
  0
LINE
  8
0
 62
     0
 10
54.0205
 20
48.9109
 30
0.0
 11
56.5492
 21
45.4932
 31
0.0
  0
LINE
  8
0
 62
     0
 10
56.5492
 20
45.4932
 30
0.0
 11
59.6995
 21
41.3233
 31
0.0
  0
LINE
  8
0
 62
     0
 10
59.6995
 20
41.3233
 30
0.0
 11
63.6404
 21
36.1597
 31
0.0
  0
LINE
  8
0
 62
     0
 10
63.6404
 20
36.1597
 30
0.0
 11
64.5954
 21
34.8974
 31
0.0
  0
LINE
  8
0
 62
     0
 10
64.5954
 20
34.8974
 30
0.0
 11
65.326
 21
33.8942
 31
0.0
  0
LINE
  8
0
 62
     0
 10
65.326
 20
33.8942
 30
0.0
 11
65.8481
 21
33.1211
 31
0.0
  0
LINE
  8
0
 62
     0
 10
65.8481
 20
33.1211
 30
0.0
 11
66.1762
 21
32.5534
 31
0.0
  0
LINE
  8
0
 62
     0
 10
66.1762
 20
32.5534
 30
0.0
 11
66.3236
 21
32.1593
 31
0.0
  0
LINE
  8
0
 62
     0
 10
66.3236
 20
32.1593
 30
0.0
 11
66.3042
 21
31.914
 31
0.0
  0
LINE
  8
0
 62
     0
 10
66.3042
 20
31.914
 30
0.0
 11
66.1349
 21
31.7872
 31
0.0
  0
LINE
  8
0
 62
     0
 10
66.1349
 20
31.7872
 30
0.0
 11
65.829
 21
31.75
 31
0.0
  0
LINE
  8
0
 62
     0
 10
65.829
 20
31.75
 30
0.0
 11
65.0681
 21
32.1882
 31
0.0
  0
LINE
  8
0
 62
     0
 10
65.0681
 20
32.1882
 30
0.0
 11
63.7466
 21
33.4009
 31
0.0
  0
LINE
  8
0
 62
     0
 10
63.7466
 20
33.4009
 30
0.0
 11
61.995
 21
35.2351
 31
0.0
  0
LINE
  8
0
 62
     0
 10
61.995
 20
35.2351
 30
0.0
 11
59.9461
 21
37.5405
 31
0.0
  0
LINE
  8
0
 62
     0
 10
59.9461
 20
37.5405
 30
0.0
 11
57.7261
 21
40.1655
 31
0.0
  0
LINE
  8
0
 62
     0
 10
57.7261
 20
40.1655
 30
0.0
 11
55.4701
 21
42.9577
 31
0.0
  0
LINE
  8
0
 62
     0
 10
55.4701
 20
42.9577
 30
0.0
 11
53.3054
 21
45.7659
 31
0.0
  0
LINE
  8
0
 62
     0
 10
53.3054
 20
45.7659
 30
0.0
 11
51.3652
 21
48.4367
 31
0.0
  0
LINE
  8
0
 62
     0
 10
51.3652
 20
48.4367
 30
0.0
 11
49.3945
 21
51.405
 31
0.0
  0
LINE
  8
0
 62
     0
 10
49.3945
 20
51.405
 30
0.0
 11
47.2983
 21
54.791
 31
0.0
  0
LINE
  8
0
 62
     0
 10
47.2983
 20
54.791
 30
0.0
 11
45.1968
 21
58.3752
 31
0.0
  0
LINE
  8
0
 62
     0
 10
45.1968
 20
58.3752
 30
0.0
 11
43.2096
 21
61.9358
 31
0.0
  0
LINE
  8
0
 62
     0
 10
43.2096
 20
61.9358
 30
0.0
 11
41.4595
 21
65.253
 31
0.0
  0
LINE
  8
0
 62
     0
 10
41.4595
 20
65.253
 30
0.0
 11
40.0678
 21
68.1069
 31
0.0
  0
LINE
  8
0
 62
     0
 10
40.0678
 20
68.1069
 30
0.0
 11
39.1541
 21
70.2772
 31
0.0
  0
LINE
  8
0
 62
     0
 10
39.1541
 20
70.2772
 30
0.0
 11
38.8415
 21
71.5437
 31
0.0
  0
LINE
  8
0
 62
     0
 10
38.8415
 20
71.5437
 30
0.0
 11
38.8415
 21
72.4958
 31
0.0
  0
LINE
  8
0
 62
     0
 10
38.8415
 20
72.4958
 30
0.0
 11
39.7235
 21
71.4375
 31
0.0
  0
LINE
  8
0
 62
     0
 10
39.7235
 20
71.4375
 30
0.0
 11
40.4012
 21
70.466
 31
0.0
  0
LINE
  8
0
 62
     0
 10
40.4012
 20
70.466
 30
0.0
 11
41.5879
 21
68.5849
 31
0.0
  0
LINE
  8
0
 62
     0
 10
41.5879
 20
68.5849
 30
0.0
 11
43.1105
 21
66.0756
 31
0.0
  0
LINE
  8
0
 62
     0
 10
43.1105
 20
66.0756
 30
0.0
 11
44.8028
 21
63.2174
 31
0.0
  0
LINE
  8
0
 62
     0
 10
83.8549
 20
66.6048
 30
0.0
 11
84.3139
 21
66.0439
 31
0.0
  0
LINE
  8
0
 62
     0
 10
84.3139
 20
66.0439
 30
0.0
 11
85.0456
 21
65.1274
 31
0.0
  0
LINE
  8
0
 62
     0
 10
85.0456
 20
65.1274
 30
0.0
 11
85.9483
 21
63.9808
 31
0.0
  0
LINE
  8
0
 62
     0
 10
85.9483
 20
63.9808
 30
0.0
 11
86.9237
 21
62.7242
 31
0.0
  0
LINE
  8
0
 62
     0
 10
86.9237
 20
62.7242
 30
0.0
 11
89.2528
 21
59.6194
 31
0.0
  0
LINE
  8
0
 62
     0
 10
89.2528
 20
59.6194
 30
0.0
 11
82.6904
 21
59.6194
 31
0.0
  0
LINE
  8
0
 62
     0
 10
82.6904
 20
59.6194
 30
0.0
 11
79.0388
 21
59.6346
 31
0.0
  0
LINE
  8
0
 62
     0
 10
79.0388
 20
59.6346
 30
0.0
 11
77.1303
 21
59.7133
 31
0.0
  0
LINE
  8
0
 62
     0
 10
77.1303
 20
59.7133
 30
0.0
 11
76.484
 21
59.9034
 31
0.0
  0
LINE
  8
0
 62
     0
 10
76.484
 20
59.9034
 30
0.0
 11
76.623
 21
60.2548
 31
0.0
  0
LINE
  8
0
 62
     0
 10
76.623
 20
60.2548
 30
0.0
 11
76.998
 21
60.7053
 31
0.0
  0
LINE
  8
0
 62
     0
 10
76.998
 20
60.7053
 30
0.0
 11
77.6414
 21
61.5033
 31
0.0
  0
LINE
  8
0
 62
     0
 10
77.6414
 20
61.5033
 30
0.0
 11
78.4627
 21
62.5327
 31
0.0
  0
LINE
  8
0
 62
     0
 10
78.4627
 20
62.5327
 30
0.0
 11
79.375
 21
63.6764
 31
0.0
  0
LINE
  8
0
 62
     0
 10
79.375
 20
63.6764
 30
0.0
 11
80.7833
 21
65.417
 31
0.0
  0
LINE
  8
0
 62
     0
 10
80.7833
 20
65.417
 30
0.0
 11
81.7866
 21
66.5607
 31
0.0
  0
LINE
  8
0
 62
     0
 10
81.7866
 20
66.5607
 30
0.0
 11
82.4646
 21
67.189
 31
0.0
  0
LINE
  8
0
 62
     0
 10
82.4646
 20
67.189
 30
0.0
 11
82.9028
 21
67.3806
 31
0.0
  0
LINE
  8
0
 62
     0
 10
82.9028
 20
67.3806
 30
0.0
 11
83.2859
 21
67.152
 31
0.0
  0
LINE
  8
0
 62
     0
 10
83.2859
 20
67.152
 30
0.0
 11
83.8549
 21
66.6048
 31
0.0
  0
LINE
  8
0
 62
     0
 10
75.4242
 20
47.1318
 30
0.0
 11
76.4025
 21
46.4577
 31
0.0
  0
LINE
  8
0
 62
     0
 10
76.4025
 20
46.4577
 30
0.0
 11
77.4347
 21
45.5443
 31
0.0
  0
LINE
  8
0
 62
     0
 10
77.4347
 20
45.5443
 30
0.0
 11
78.1184
 21
44.5879
 31
0.0
  0
LINE
  8
0
 62
     0
 10
78.1184
 20
44.5879
 30
0.0
 11
78.4352
 21
43.4495
 31
0.0
  0
LINE
  8
0
 62
     0
 10
78.4352
 20
43.4495
 30
0.0
 11
78.4006
 21
41.9474
 31
0.0
  0
LINE
  8
0
 62
     0
 10
78.4006
 20
41.9474
 30
0.0
 11
78.0341
 21
39.8999
 31
0.0
  0
LINE
  8
0
 62
     0
 10
78.0341
 20
39.8999
 30
0.0
 11
77.6372
 21
35.3755
 31
0.0
  0
LINE
  8
0
 62
     0
 10
77.6372
 20
35.3755
 30
0.0
 11
78.1403
 21
30.1625
 31
0.0
  0
LINE
  8
0
 62
     0
 10
78.1403
 20
30.1625
 30
0.0
 11
78.6144
 21
27.5029
 31
0.0
  0
LINE
  8
0
 62
     0
 10
78.6144
 20
27.5029
 30
0.0
 11
78.9534
 21
25.4496
 31
0.0
  0
LINE
  8
0
 62
     0
 10
78.9534
 20
25.4496
 30
0.0
 11
79.1573
 21
23.9241
 31
0.0
  0
LINE
  8
0
 62
     0
 10
79.1573
 20
23.9241
 30
0.0
 11
79.2247
 21
22.852
 31
0.0
  0
LINE
  8
0
 62
     0
 10
79.2247
 20
22.852
 30
0.0
 11
79.1573
 21
22.152
 31
0.0
  0
LINE
  8
0
 62
     0
 10
79.1573
 20
22.152
 30
0.0
 11
78.9534
 21
21.7496
 31
0.0
  0
LINE
  8
0
 62
     0
 10
78.9534
 20
21.7496
 30
0.0
 11
78.6144
 21
21.5649
 31
0.0
  0
LINE
  8
0
 62
     0
 10
78.6144
 20
21.5649
 30
0.0
 11
78.1403
 21
21.5194
 31
0.0
  0
LINE
  8
0
 62
     0
 10
78.1403
 20
21.5194
 30
0.0
 11
77.3546
 21
21.7895
 31
0.0
  0
LINE
  8
0
 62
     0
 10
77.3546
 20
21.7895
 30
0.0
 11
76.623
 21
22.5075
 31
0.0
  0
LINE
  8
0
 62
     0
 10
76.623
 20
22.5075
 30
0.0
 11
75.9562
 21
23.7684
 31
0.0
  0
LINE
  8
0
 62
     0
 10
75.9562
 20
23.7684
 30
0.0
 11
74.8552
 21
26.1607
 31
0.0
  0
LINE
  8
0
 62
     0
 10
74.8552
 20
26.1607
 30
0.0
 11
73.4769
 21
29.3081
 31
0.0
  0
LINE
  8
0
 62
     0
 10
73.4769
 20
29.3081
 30
0.0
 11
71.979
 21
32.8359
 31
0.0
  0
LINE
  8
0
 62
     0
 10
71.979
 20
32.8359
 30
0.0
 11
70.5196
 21
36.3664
 31
0.0
  0
LINE
  8
0
 62
     0
 10
70.5196
 20
36.3664
 30
0.0
 11
69.2559
 21
39.5235
 31
0.0
  0
LINE
  8
0
 62
     0
 10
69.2559
 20
39.5235
 30
0.0
 11
68.345
 21
41.9322
 31
0.0
  0
LINE
  8
0
 62
     0
 10
68.345
 20
41.9322
 30
0.0
 11
67.9457
 21
43.2153
 31
0.0
  0
LINE
  8
0
 62
     0
 10
67.9457
 20
43.2153
 30
0.0
 11
67.8931
 21
44.5438
 31
0.0
  0
LINE
  8
0
 62
     0
 10
67.8931
 20
44.5438
 30
0.0
 11
68.2487
 21
45.562
 31
0.0
  0
LINE
  8
0
 62
     0
 10
68.2487
 20
45.562
 30
0.0
 11
69.0605
 21
46.3419
 31
0.0
  0
LINE
  8
0
 62
     0
 10
69.0605
 20
46.3419
 30
0.0
 11
70.3792
 21
46.9554
 31
0.0
  0
LINE
  8
0
 62
     0
 10
70.3792
 20
46.9554
 30
0.0
 11
71.8965
 21
47.4045
 31
0.0
  0
LINE
  8
0
 62
     0
 10
71.8965
 20
47.4045
 30
0.0
 11
73.2317
 21
47.5865
 31
0.0
  0
LINE
  8
0
 62
     0
 10
73.2317
 20
47.5865
 30
0.0
 11
74.4015
 21
47.4969
 31
0.0
  0
LINE
  8
0
 62
     0
 10
74.4015
 20
47.4969
 30
0.0
 11
75.4242
 21
47.1318
 31
0.0
  0
LINE
  8
0
 62
     0
 10
109.714
 20
133.633
 30
0.0
 11
104.688
 21
132.902
 31
0.0
  0
LINE
  8
0
 62
     0
 10
104.688
 20
132.902
 30
0.0
 11
100.075
 21
131.415
 31
0.0
  0
LINE
  8
0
 62
     0
 10
100.075
 20
131.415
 30
0.0
 11
95.9224
 21
129.193
 31
0.0
  0
LINE
  8
0
 62
     0
 10
95.9224
 20
129.193
 30
0.0
 11
92.2874
 21
126.258
 31
0.0
  0
LINE
  8
0
 62
     0
 10
92.2874
 20
126.258
 30
0.0
 11
91.4908
 21
125.469
 31
0.0
  0
LINE
  8
0
 62
     0
 10
91.4908
 20
125.469
 30
0.0
 11
90.8678
 21
124.825
 31
0.0
  0
LINE
  8
0
 62
     0
 10
90.8678
 20
124.825
 30
0.0
 11
90.3993
 21
124.306
 31
0.0
  0
LINE
  8
0
 62
     0
 10
90.3993
 20
124.306
 30
0.0
 11
90.0673
 21
123.887
 31
0.0
  0
LINE
  8
0
 62
     0
 10
90.0673
 20
123.887
 30
0.0
 11
89.8578
 21
123.544
 31
0.0
  0
LINE
  8
0
 62
     0
 10
89.8578
 20
123.544
 30
0.0
 11
89.7502
 21
123.253
 31
0.0
  0
LINE
  8
0
 62
     0
 10
89.7502
 20
123.253
 30
0.0
 11
89.7308
 21
122.99
 31
0.0
  0
LINE
  8
0
 62
     0
 10
89.7308
 20
122.99
 30
0.0
 11
89.7819
 21
122.731
 31
0.0
  0
LINE
  8
0
 62
     0
 10
89.7819
 20
122.731
 30
0.0
 11
89.9996
 21
122.2
 31
0.0
  0
LINE
  8
0
 62
     0
 10
89.9996
 20
122.2
 30
0.0
 11
90.3609
 21
121.517
 31
0.0
  0
LINE
  8
0
 62
     0
 10
90.3609
 20
121.517
 30
0.0
 11
90.8251
 21
120.745
 31
0.0
  0
LINE
  8
0
 62
     0
 10
90.8251
 20
120.745
 30
0.0
 11
91.3515
 21
119.944
 31
0.0
  0
LINE
  8
0
 62
     0
 10
91.3515
 20
119.944
 30
0.0
 11
91.8972
 21
119.178
 31
0.0
  0
LINE
  8
0
 62
     0
 10
91.8972
 20
119.178
 30
0.0
 11
92.4207
 21
118.506
 31
0.0
  0
LINE
  8
0
 62
     0
 10
92.4207
 20
118.506
 30
0.0
 11
92.8825
 21
117.988
 31
0.0
  0
LINE
  8
0
 62
     0
 10
92.8825
 20
117.988
 30
0.0
 11
93.2395
 21
117.687
 31
0.0
  0
LINE
  8
0
 62
     0
 10
93.2395
 20
117.687
 30
0.0
 11
93.6089
 21
117.585
 31
0.0
  0
LINE
  8
0
 62
     0
 10
93.6089
 20
117.585
 30
0.0
 11
94.1641
 21
117.661
 31
0.0
  0
LINE
  8
0
 62
     0
 10
94.1641
 20
117.661
 30
0.0
 11
94.9413
 21
117.934
 31
0.0
  0
LINE
  8
0
 62
     0
 10
94.9413
 20
117.934
 30
0.0
 11
95.9817
 21
118.424
 31
0.0
  0
LINE
  8
0
 62
     0
 10
95.9817
 20
118.424
 30
0.0
 11
97.3226
 21
119.151
 31
0.0
  0
LINE
  8
0
 62
     0
 10
97.3226
 20
119.151
 30
0.0
 11
99.0039
 21
120.133
 31
0.0
  0
LINE
  8
0
 62
     0
 10
99.0039
 20
120.133
 30
0.0
 11
101.063
 21
121.392
 31
0.0
  0
LINE
  8
0
 62
     0
 10
101.063
 20
121.392
 30
0.0
 11
103.54
 21
122.943
 31
0.0
  0
LINE
  8
0
 62
     0
 10
103.54
 20
122.943
 30
0.0
 11
107.229
 21
125.195
 31
0.0
  0
LINE
  8
0
 62
     0
 10
107.229
 20
125.195
 30
0.0
 11
109.983
 21
126.555
 31
0.0
  0
LINE
  8
0
 62
     0
 10
109.983
 20
126.555
 30
0.0
 11
112.425
 21
127.274
 31
0.0
  0
LINE
  8
0
 62
     0
 10
112.425
 20
127.274
 30
0.0
 11
115.182
 21
127.599
 31
0.0
  0
LINE
  8
0
 62
     0
 10
115.182
 20
127.599
 30
0.0
 11
118.765
 21
127.525
 31
0.0
  0
LINE
  8
0
 62
     0
 10
118.765
 20
127.525
 30
0.0
 11
122.157
 21
126.842
 31
0.0
  0
LINE
  8
0
 62
     0
 10
122.157
 20
126.842
 30
0.0
 11
125.272
 21
125.577
 31
0.0
  0
LINE
  8
0
 62
     0
 10
125.272
 20
125.577
 30
0.0
 11
128.022
 21
123.755
 31
0.0
  0
LINE
  8
0
 62
     0
 10
128.022
 20
123.755
 30
0.0
 11
128.666
 21
123.232
 31
0.0
  0
LINE
  8
0
 62
     0
 10
128.666
 20
123.232
 30
0.0
 11
129.235
 21
122.807
 31
0.0
  0
LINE
  8
0
 62
     0
 10
129.235
 20
122.807
 30
0.0
 11
129.664
 21
122.52
 31
0.0
  0
LINE
  8
0
 62
     0
 10
129.664
 20
122.52
 30
0.0
 11
129.892
 21
122.414
 31
0.0
  0
LINE
  8
0
 62
     0
 10
129.892
 20
122.414
 30
0.0
 11
129.983
 21
122.749
 31
0.0
  0
LINE
  8
0
 62
     0
 10
129.983
 20
122.749
 30
0.0
 11
129.782
 21
123.583
 31
0.0
  0
LINE
  8
0
 62
     0
 10
129.782
 20
123.583
 30
0.0
 11
129.36
 21
124.661
 31
0.0
  0
LINE
  8
0
 62
     0
 10
129.36
 20
124.661
 30
0.0
 11
128.8
 21
125.729
 31
0.0
  0
LINE
  8
0
 62
     0
 10
128.8
 20
125.729
 30
0.0
 11
127.624
 21
127.2
 31
0.0
  0
LINE
  8
0
 62
     0
 10
127.624
 20
127.2
 30
0.0
 11
125.914
 21
128.914
 31
0.0
  0
LINE
  8
0
 62
     0
 10
125.914
 20
128.914
 30
0.0
 11
124.085
 21
130.484
 31
0.0
  0
LINE
  8
0
 62
     0
 10
124.085
 20
130.484
 30
0.0
 11
122.554
 21
131.516
 31
0.0
  0
LINE
  8
0
 62
     0
 10
122.554
 20
131.516
 30
0.0
 11
119.794
 21
132.655
 31
0.0
  0
LINE
  8
0
 62
     0
 10
119.794
 20
132.655
 30
0.0
 11
116.742
 21
133.382
 31
0.0
  0
LINE
  8
0
 62
     0
 10
116.742
 20
133.382
 30
0.0
 11
113.386
 21
133.704
 31
0.0
  0
LINE
  8
0
 62
     0
 10
113.386
 20
133.704
 30
0.0
 11
109.714
 21
133.633
 31
0.0
  0
LINE
  8
0
 62
     0
 10
106.715
 20
113.242
 30
0.0
 11
103.703
 21
112.331
 31
0.0
  0
LINE
  8
0
 62
     0
 10
103.703
 20
112.331
 30
0.0
 11
100.691
 21
110.954
 31
0.0
  0
LINE
  8
0
 62
     0
 10
100.691
 20
110.954
 30
0.0
 11
98.2211
 21
109.397
 31
0.0
  0
LINE
  8
0
 62
     0
 10
98.2211
 20
109.397
 30
0.0
 11
96.8375
 21
107.95
 31
0.0
  0
LINE
  8
0
 62
     0
 10
96.8375
 20
107.95
 30
0.0
 11
96.4738
 21
107.135
 31
0.0
  0
LINE
  8
0
 62
     0
 10
96.4738
 20
107.135
 30
0.0
 11
96.3291
 21
106.441
 31
0.0
  0
LINE
  8
0
 62
     0
 10
96.3291
 20
106.441
 30
0.0
 11
96.435
 21
105.835
 31
0.0
  0
LINE
  8
0
 62
     0
 10
96.435
 20
105.835
 30
0.0
 11
96.8237
 21
105.288
 31
0.0
  0
LINE
  8
0
 62
     0
 10
96.8237
 20
105.288
 30
0.0
 11
97.5237
 21
104.767
 31
0.0
  0
LINE
  8
0
 62
     0
 10
97.5237
 20
104.767
 30
0.0
 11
98.5682
 21
104.24
 31
0.0
  0
LINE
  8
0
 62
     0
 10
98.5682
 20
104.24
 30
0.0
 11
99.9878
 21
103.678
 31
0.0
  0
LINE
  8
0
 62
     0
 10
99.9878
 20
103.678
 30
0.0
 11
101.812
 21
103.047
 31
0.0
  0
LINE
  8
0
 62
     0
 10
101.812
 20
103.047
 30
0.0
 11
104.696
 21
102.281
 31
0.0
  0
LINE
  8
0
 62
     0
 10
104.696
 20
102.281
 30
0.0
 11
108.165
 21
101.724
 31
0.0
  0
LINE
  8
0
 62
     0
 10
108.165
 20
101.724
 30
0.0
 11
112.145
 21
101.381
 31
0.0
  0
LINE
  8
0
 62
     0
 10
112.145
 20
101.381
 30
0.0
 11
116.557
 21
101.247
 31
0.0
  0
LINE
  8
0
 62
     0
 10
116.557
 20
101.247
 30
0.0
 11
118.153
 21
101.29
 31
0.0
  0
LINE
  8
0
 62
     0
 10
118.153
 20
101.29
 30
0.0
 11
119.402
 21
101.481
 31
0.0
  0
LINE
  8
0
 62
     0
 10
119.402
 20
101.481
 30
0.0
 11
120.709
 21
101.917
 31
0.0
  0
LINE
  8
0
 62
     0
 10
120.709
 20
101.917
 30
0.0
 11
122.484
 21
102.694
 31
0.0
  0
LINE
  8
0
 62
     0
 10
122.484
 20
102.694
 30
0.0
 11
123.471
 21
103.141
 31
0.0
  0
LINE
  8
0
 62
     0
 10
123.471
 20
103.141
 30
0.0
 11
124.266
 21
103.482
 31
0.0
  0
LINE
  8
0
 62
     0
 10
124.266
 20
103.482
 30
0.0
 11
124.916
 21
103.728
 31
0.0
  0
LINE
  8
0
 62
     0
 10
124.916
 20
103.728
 30
0.0
 11
125.469
 21
103.889
 31
0.0
  0
LINE
  8
0
 62
     0
 10
125.469
 20
103.889
 30
0.0
 11
125.971
 21
103.976
 31
0.0
  0
LINE
  8
0
 62
     0
 10
125.971
 20
103.976
 30
0.0
 11
126.468
 21
103.999
 31
0.0
  0
LINE
  8
0
 62
     0
 10
126.468
 20
103.999
 30
0.0
 11
127.007
 21
103.967
 31
0.0
  0
LINE
  8
0
 62
     0
 10
127.007
 20
103.967
 30
0.0
 11
127.635
 21
103.893
 31
0.0
  0
LINE
  8
0
 62
     0
 10
127.635
 20
103.893
 30
0.0
 11
129.284
 21
103.682
 31
0.0
  0
LINE
  8
0
 62
     0
 10
129.284
 20
103.682
 30
0.0
 11
130.458
 21
103.47
 31
0.0
  0
LINE
  8
0
 62
     0
 10
130.458
 20
103.47
 30
0.0
 11
131.009
 21
103.458
 31
0.0
  0
LINE
  8
0
 62
     0
 10
131.009
 20
103.458
 30
0.0
 11
131.22
 21
103.66
 31
0.0
  0
LINE
  8
0
 62
     0
 10
131.22
 20
103.66
 30
0.0
 11
131.066
 21
103.962
 31
0.0
  0
LINE
  8
0
 62
     0
 10
131.066
 20
103.962
 30
0.0
 11
130.528
 21
104.246
 31
0.0
  0
LINE
  8
0
 62
     0
 10
130.528
 20
104.246
 30
0.0
 11
129.963
 21
104.638
 31
0.0
  0
LINE
  8
0
 62
     0
 10
129.963
 20
104.638
 30
0.0
 11
129.61
 21
105.268
 31
0.0
  0
LINE
  8
0
 62
     0
 10
129.61
 20
105.268
 30
0.0
 11
129.436
 21
105.702
 31
0.0
  0
LINE
  8
0
 62
     0
 10
129.436
 20
105.702
 30
0.0
 11
129.095
 21
105.979
 31
0.0
  0
LINE
  8
0
 62
     0
 10
129.095
 20
105.979
 30
0.0
 11
128.454
 21
106.157
 31
0.0
  0
LINE
  8
0
 62
     0
 10
128.454
 20
106.157
 30
0.0
 11
127.389
 21
106.292
 31
0.0
  0
LINE
  8
0
 62
     0
 10
127.389
 20
106.292
 30
0.0
 11
125.955
 21
106.502
 31
0.0
  0
LINE
  8
0
 62
     0
 10
125.955
 20
106.502
 30
0.0
 11
124.292
 21
106.986
 31
0.0
  0
LINE
  8
0
 62
     0
 10
124.292
 20
106.986
 30
0.0
 11
121.9
 21
107.925
 31
0.0
  0
LINE
  8
0
 62
     0
 10
121.9
 20
107.925
 30
0.0
 11
118.287
 21
109.502
 31
0.0
  0
LINE
  8
0
 62
     0
 10
118.287
 20
109.502
 30
0.0
 11
112.769
 21
111.337
 31
0.0
  0
LINE
  8
0
 62
     0
 10
112.769
 20
111.337
 30
0.0
 11
107.703
 21
111.69
 31
0.0
  0
LINE
  8
0
 62
     0
 10
107.703
 20
111.69
 30
0.0
 11
106.704
 21
111.638
 31
0.0
  0
LINE
  8
0
 62
     0
 10
106.704
 20
111.638
 30
0.0
 11
105.886
 21
111.638
 31
0.0
  0
LINE
  8
0
 62
     0
 10
105.886
 20
111.638
 30
0.0
 11
105.332
 21
111.69
 31
0.0
  0
LINE
  8
0
 62
     0
 10
105.332
 20
111.69
 30
0.0
 11
105.128
 21
111.795
 31
0.0
  0
LINE
  8
0
 62
     0
 10
105.128
 20
111.795
 30
0.0
 11
105.301
 21
111.937
 31
0.0
  0
LINE
  8
0
 62
     0
 10
105.301
 20
111.937
 30
0.0
 11
105.775
 21
112.127
 31
0.0
  0
LINE
  8
0
 62
     0
 10
105.775
 20
112.127
 30
0.0
 11
106.481
 21
112.336
 31
0.0
  0
LINE
  8
0
 62
     0
 10
106.481
 20
112.336
 30
0.0
 11
107.351
 21
112.536
 31
0.0
  0
LINE
  8
0
 62
     0
 10
107.351
 20
112.536
 30
0.0
 11
109.063
 21
112.94
 31
0.0
  0
LINE
  8
0
 62
     0
 10
109.063
 20
112.94
 30
0.0
 11
110.023
 21
113.273
 31
0.0
  0
LINE
  8
0
 62
     0
 10
110.023
 20
113.273
 30
0.0
 11
110.148
 21
113.494
 31
0.0
  0
LINE
  8
0
 62
     0
 10
110.148
 20
113.494
 30
0.0
 11
109.361
 21
113.558
 31
0.0
  0
LINE
  8
0
 62
     0
 10
109.361
 20
113.558
 30
0.0
 11
108.077
 21
113.44
 31
0.0
  0
LINE
  8
0
 62
     0
 10
108.077
 20
113.44
 30
0.0
 11
106.715
 21
113.242
 31
0.0
  0
ENDSEC
  0
EOF
