<?xml version="1.0" standalone="no"?>
<!DOCTYPE svg PUBLIC "-//W3C//DTD SVG 20010904//EN"
 "http://www.w3.org/TR/2001/REC-SVG-20010904/DTD/svg10.dtd">
<svg version="1.0" xmlns="http://www.w3.org/2000/svg"
 width="233.000000pt" height="210.000000pt" viewBox="0 0 233.000000 210.000000"
 preserveAspectRatio="xMidYMid meet">
<metadata>
Created by potrace 1.14, written by Peter Selinger 2001-2017
</metadata>
<g transform="translate(0.000000,210.000000) scale(0.100000,-0.100000)"
fill="#000000" stroke="none">
<path d="M610 2095 c0 -3 13 -26 29 -52 16 -27 46 -82 66 -124 31 -66 37 -91
45 -185 6 -72 17 -132 33 -178 l25 -68 -26 25 c-15 13 -46 35 -69 47 -49 27
-50 33 -33 197 9 81 7 99 -10 156 -11 36 -27 78 -35 94 -14 26 -15 21 -15 -84
0 -125 -13 -178 -61 -255 -49 -76 -52 -101 -19 -145 15 -21 42 -51 60 -68 29
-27 60 -74 60 -90 0 -4 -11 6 -24 22 -40 48 -206 117 -221 93 -3 -5 17 -24 45
-42 55 -36 70 -65 70 -137 0 -42 5 -52 40 -86 27 -26 40 -48 40 -66 0 -30 50
-80 128 -130 59 -37 35 -37 -43 0 -68 33 -117 75 -162 142 -30 43 -108 107
-118 97 -3 -3 8 -31 25 -63 28 -53 38 -95 24 -95 -4 0 -23 10 -43 22 -20 13
-38 21 -41 20 -10 -6 -19 76 -19 184 -1 138 23 241 79 338 22 38 38 71 36 73
-8 9 -80 -86 -112 -149 -64 -127 -79 -201 -79 -393 1 -164 13 -253 51 -360 3
-11 -7 0 -23 25 -41 62 -146 157 -223 203 -69 39 -102 49 -80 22 7 -8 17 -12
23 -8 5 3 7 2 4 -4 -3 -5 10 -32 29 -59 20 -27 63 -102 96 -168 65 -129 118
-195 208 -256 79 -54 160 -92 181 -87 11 3 50 -16 100 -48 102 -68 319 -149
334 -125 6 10 -63 165 -70 158 -3 -3 9 -35 26 -72 17 -37 29 -70 26 -73 -9 -8
-172 44 -232 74 -140 70 -276 201 -342 329 -123 235 -135 579 -30 817 14 31
28 57 31 57 3 0 -4 -25 -15 -57 -26 -76 -42 -222 -34 -302 17 -163 66 -329
124 -418 85 -130 180 -214 330 -288 49 -25 93 -50 96 -55 4 -6 11 -8 16 -5 12
8 64 -75 89 -142 25 -68 25 -77 -2 -59 -27 17 -92 30 -112 23 -13 -5 -13 -10
0 -37 19 -36 10 -72 -36 -140 -29 -44 -38 -70 -22 -70 4 0 31 9 60 20 74 28
87 27 66 -5 -9 -14 -14 -28 -11 -31 3 -3 31 4 62 15 56 21 75 21 75 -2 0 -7
13 -25 30 -40 33 -31 34 -30 44 40 5 35 2 46 -20 72 -18 22 -22 31 -11 31 8 0
20 7 27 15 12 14 15 14 30 0 9 -8 22 -15 29 -15 7 0 1 -14 -14 -32 -18 -21
-25 -38 -21 -52 3 -12 6 -36 6 -54 l0 -33 35 28 c19 15 35 33 35 40 0 23 19
23 75 2 31 -11 59 -18 62 -15 3 3 -2 17 -11 31 -21 32 -8 33 69 4 62 -23 76
-19 55 14 -8 12 -27 46 -43 76 -27 47 -29 57 -19 89 6 19 9 40 5 45 -7 12 -82
0 -110 -19 -21 -13 -23 -13 -23 4 0 21 74 177 88 186 6 3 -5 -25 -24 -63 -54
-110 -50 -114 92 -66 115 38 201 84 279 148 28 22 41 31 31 19 -11 -12 -16
-25 -13 -29 10 -10 147 61 215 112 81 59 128 121 195 257 31 62 78 141 106
176 28 34 46 62 41 62 -16 0 -88 -38 -138 -72 -58 -40 -147 -130 -167 -169
-25 -47 -26 -31 -5 50 11 40 25 123 32 183 26 241 -43 501 -163 613 l-42 40
22 -35 c80 -127 104 -211 105 -370 1 -118 -10 -214 -23 -206 -4 3 -20 -4 -37
-15 -16 -10 -32 -19 -36 -19 -16 0 -7 40 22 95 17 32 28 60 25 63 -10 10 -88
-54 -118 -97 -59 -86 -139 -146 -222 -165 -25 -6 -20 -1 25 29 80 53 120 95
120 125 0 17 14 39 40 65 35 34 40 44 40 86 0 74 16 105 72 139 64 40 53 56
-23 34 -69 -21 -100 -37 -144 -75 -59 -52 -39 -14 36 68 65 71 70 81 66 113
-2 19 -18 57 -35 84 -53 82 -66 138 -65 260 0 97 -1 107 -13 85 -8 -13 -23
-54 -35 -91 -19 -62 -20 -76 -10 -168 18 -169 20 -162 -48 -199 -32 -17 -62
-38 -65 -47 -4 -9 -8 -15 -11 -12 -2 2 7 31 20 65 17 40 27 89 31 149 8 120
33 203 94 303 27 47 48 86 46 89 -8 7 -123 -86 -214 -173 l-86 -82 -1 -104
c-1 -119 -16 -163 -80 -239 -21 -25 -46 -63 -56 -85 -14 -31 -19 -35 -19 -17
0 25 36 103 79 170 34 54 50 112 25 91 -8 -7 -13 -18 -10 -26 3 -8 2 -12 -3
-8 -5 3 -19 -9 -32 -26 -12 -17 -40 -40 -63 -50 -36 -16 -43 -24 -61 -79 -11
-34 -25 -62 -30 -63 -6 -1 -19 26 -30 61 -19 57 -25 65 -61 81 -36 17 -81 63
-113 116 -10 18 -11 16 -7 -13 2 -18 18 -54 35 -80 40 -63 81 -152 81 -177 -1
-14 -6 -9 -16 15 -8 19 -33 56 -55 82 -67 80 -84 128 -84 243 l-1 99 -43 48
c-44 49 -240 218 -253 218 -5 0 -8 -2 -8 -5z m1046 -77 c-7 -18 -29 -64 -47
-102 -27 -58 -34 -87 -42 -180 -7 -92 -15 -127 -48 -210 -43 -109 -49 -136
-19 -91 11 17 18 36 15 42 -2 7 -1 12 3 10 4 -1 18 6 32 16 14 10 46 31 73 47
46 29 47 30 47 82 0 29 -4 90 -10 136 -8 70 -6 90 9 140 l19 57 1 -60 c1 -86
25 -166 71 -244 22 -37 40 -77 40 -89 0 -12 -28 -53 -65 -95 -36 -41 -72 -94
-80 -117 -22 -62 -31 -70 -84 -70 -126 0 -254 -129 -250 -251 2 -38 -2 -55
-14 -64 -28 -20 -20 -37 16 -33 l32 3 0 58 c0 62 13 82 50 72 64 -17 105 -17
130 -1 15 10 34 14 46 11 13 -4 28 0 40 11 23 20 25 39 4 30 -8 -3 -22 -3 -30
0 -11 5 -12 10 -2 25 9 15 9 23 -1 39 -11 18 -9 24 17 50 22 22 39 30 65 30
41 0 43 6 19 48 -16 28 -16 31 0 55 17 26 119 80 172 92 l30 6 -30 -19 c-56
-35 -69 -58 -73 -129 -4 -61 -7 -68 -44 -104 -27 -26 -40 -48 -41 -69 -2 -38
-75 -101 -164 -142 -35 -15 -63 -31 -63 -34 0 -4 22 -4 48 -1 104 12 214 83
273 176 16 24 43 54 62 66 l33 23 -22 -47 c-12 -25 -25 -58 -28 -73 -5 -24 -3
-28 14 -28 11 0 32 7 46 17 l25 16 -7 -29 c-20 -84 -89 -160 -173 -189 -25 -9
-83 -19 -128 -22 -75 -5 -87 -4 -138 22 -61 29 -73 28 -56 -4 10 -17 6 -26
-23 -59 -41 -45 -56 -80 -56 -128 0 -19 -7 -49 -16 -65 -8 -17 -14 -32 -12
-33 2 -2 18 1 36 6 40 11 50 32 27 58 -17 19 -17 22 -1 65 16 41 65 95 87 95
5 0 9 -13 9 -29 0 -17 6 -31 16 -35 32 -12 125 -5 174 13 l49 19 -26 -34 c-18
-24 -31 -33 -44 -29 -25 8 -111 -31 -145 -66 -15 -16 -36 -29 -46 -29 -25 0
-68 -44 -68 -70 0 -18 4 -20 23 -14 12 3 24 11 26 17 12 33 61 67 113 80 60
15 69 8 18 -13 -21 -9 -33 -22 -36 -39 -4 -20 -17 -31 -49 -45 -24 -9 -61 -36
-81 -58 -37 -41 -103 -170 -105 -205 -3 -52 -17 43 -18 120 -1 48 -5 87 -10
87 -11 0 -61 -76 -61 -93 0 -8 8 -22 19 -31 10 -9 22 -36 25 -59 4 -23 12 -57
18 -76 10 -33 12 -33 25 -16 7 11 11 26 8 34 -3 9 -3 12 1 9 3 -4 18 -1 33 6
14 7 43 16 64 19 34 5 38 4 31 -11 -23 -54 -14 -88 49 -183 l17 -25 -75 25
c-41 13 -78 22 -81 18 -3 -3 1 -16 10 -29 25 -36 20 -37 -41 -12 l-58 23 -12
-27 c-6 -15 -20 -35 -31 -45 -19 -18 -20 -18 -20 5 -1 13 -2 36 -3 52 -1 22 6
36 25 51 30 24 33 35 8 35 -10 0 -28 7 -40 16 -20 14 -24 14 -38 0 -8 -9 -24
-16 -35 -16 -23 0 -25 -18 -4 -27 25 -9 45 -56 33 -77 -5 -10 -8 -27 -5 -38 5
-19 5 -19 -15 -1 -11 10 -24 28 -29 41 -10 27 -24 27 -89 3 l-50 -19 21 30
c12 16 18 32 15 35 -3 3 -40 -5 -81 -18 l-75 -25 22 35 c60 99 67 125 47 163
-6 11 -9 21 -7 23 9 10 92 -15 112 -34 12 -12 25 -18 29 -15 3 3 3 -3 0 -15
-3 -12 -1 -21 5 -21 6 0 18 34 28 75 12 49 26 82 41 97 l23 22 12 -32 c16 -42
31 -40 47 4 12 33 11 38 -7 57 l-21 20 -19 -23 -19 -23 -22 37 c-13 20 -26 35
-28 32 -3 -3 4 -18 16 -35 20 -28 20 -61 0 -61 -5 0 -14 -10 -19 -22 -7 -17
-9 -1 -7 60 1 45 -1 82 -5 82 -5 0 -8 -31 -8 -69 0 -37 -3 -89 -6 -115 l-7
-46 -22 65 c-42 118 -106 200 -180 226 -22 8 -35 20 -35 30 0 16 -16 33 -66
67 -17 11 -17 11 3 2 12 -5 31 -10 43 -10 30 0 80 -28 80 -45 0 -8 5 -15 10
-15 6 0 10 -7 10 -15 0 -8 3 -15 8 -15 4 0 18 -3 30 -7 21 -5 23 -3 20 23 -4
34 -30 64 -58 64 -10 0 -34 13 -52 29 -45 39 -93 62 -133 64 -24 2 -44 13 -66
35 -17 18 -30 32 -28 32 2 0 28 -9 57 -20 58 -22 161 -27 180 -8 7 7 12 22 12
35 0 13 4 23 10 23 19 0 78 -69 90 -105 10 -31 10 -39 -5 -55 -23 -26 -13 -47
27 -58 41 -11 44 -9 24 20 -9 12 -16 37 -16 54 0 56 -12 94 -39 123 -51 54
-52 57 -41 85 12 32 10 32 -57 0 -49 -24 -62 -26 -136 -21 -168 11 -270 82
-303 211 -7 29 -7 29 17 13 13 -10 34 -17 46 -17 20 0 23 4 17 28 -4 15 -17
49 -30 75 l-24 48 31 -21 c16 -12 47 -45 68 -74 51 -69 104 -114 167 -143 61
-28 162 -44 149 -24 -4 7 -16 10 -27 8 -11 -3 -17 -3 -14 0 3 4 -16 19 -43 33
-84 46 -141 99 -141 130 0 19 -13 40 -40 68 -36 36 -40 45 -40 90 0 70 -12 96
-62 132 -41 30 -41 31 -13 25 47 -11 128 -50 153 -74 22 -22 31 -81 12 -81 -5
0 -10 -9 -10 -20 0 -16 7 -20 36 -20 26 0 43 -8 66 -30 29 -29 29 -32 13 -50
-13 -14 -14 -23 -6 -39 12 -22 1 -34 -23 -25 -22 9 -20 -9 4 -31 11 -10 26
-15 35 -11 9 3 30 -1 47 -10 30 -16 57 -15 129 2 40 9 63 -19 55 -69 -8 -46 5
-67 40 -67 30 0 30 14 3 41 -17 17 -20 29 -15 61 18 109 -119 248 -244 248
-54 0 -73 15 -88 72 -6 23 -35 65 -72 105 -33 38 -63 79 -67 93 -5 18 6 47 39
110 47 88 67 157 69 238 l1 47 18 -55 c10 -30 16 -66 14 -80 -3 -14 -8 -70
-13 -125 -10 -115 -8 -121 71 -161 26 -13 52 -33 58 -44 6 -11 15 -18 20 -15
6 3 8 0 5 -7 -3 -7 6 -26 20 -43 29 -35 28 -32 -23 91 -37 88 -40 104 -51 231
-8 88 -15 115 -50 191 -23 49 -41 92 -41 96 0 14 65 -38 148 -118 l82 -80 0
-86 c0 -104 19 -172 62 -229 89 -115 96 -132 105 -241 5 -59 3 -69 -21 -104
-30 -44 -33 -70 -11 -88 9 -7 22 -19 30 -26 7 -6 18 -12 24 -12 14 0 14 138 1
274 -10 101 -33 167 -91 256 l-23 35 31 -33 c17 -18 46 -38 64 -46 28 -12 36
-23 53 -77 16 -49 25 -64 40 -64 15 0 24 15 41 64 16 49 27 66 46 73 13 5 42
26 63 46 l39 37 -22 -35 c-60 -95 -81 -149 -91 -237 -10 -93 -14 -293 -5 -293
3 0 19 10 35 22 36 26 39 58 8 100 -16 23 -21 43 -19 87 3 95 27 160 87 235
68 85 87 146 82 259 l-3 82 55 55 c55 55 177 160 186 160 2 0 -2 -15 -10 -32z
m312 -471 c51 -122 65 -218 59 -396 -6 -162 -24 -255 -67 -354 -12 -26 -18
-52 -15 -57 4 -6 2 -9 -3 -8 -5 2 -28 -25 -51 -59 -70 -104 -202 -213 -324
-268 -57 -26 -217 -76 -217 -69 0 16 69 151 83 163 9 7 15 17 12 21 -3 5 0 12
6 16 8 4 9 3 5 -4 -12 -19 3 -14 92 30 96 49 174 112 250 201 67 78 114 174
149 302 24 89 27 118 27 260 1 148 -1 165 -26 232 -33 93 -19 86 20 -10z
m-287 -255 c-37 -7 -67 -25 -90 -53 -21 -27 -22 -33 -11 -55 10 -18 11 -27 2
-36 -14 -14 2 -38 27 -38 13 0 13 -2 2 -9 -7 -5 -21 -6 -31 -4 -10 3 -32 -3
-50 -12 -23 -12 -43 -15 -73 -9 -41 7 -41 7 -15 16 41 14 50 77 13 92 -19 7
-65 -31 -65 -54 0 -33 19 -31 22 2 2 28 7 33 28 33 16 0 26 -6 28 -18 5 -26
-14 -44 -56 -52 -20 -4 -45 -14 -54 -22 -17 -15 -18 -14 -18 14 0 36 54 116
102 148 38 26 98 45 142 45 32 0 76 34 76 59 0 9 8 4 18 -14 17 -27 17 -30 3
-33z m-928 -12 c104 -1 237 -114 237 -201 0 -21 -1 -21 -18 -6 -10 10 -25 17
-33 17 -11 0 -14 9 -11 34 3 26 -1 37 -19 50 -31 21 -36 20 -54 -8 -20 -30
-10 -55 28 -71 l30 -13 -41 -7 c-29 -5 -51 -2 -76 10 -20 10 -42 15 -49 12 -8
-3 -20 -1 -28 4 -12 7 -11 9 2 9 22 0 44 26 29 35 -13 8 -13 45 0 45 40 0 -38
86 -87 96 -31 6 -31 7 -17 30 l16 23 25 -29 c20 -24 33 -30 66 -30z m1504
-253 c-23 -29 -71 -109 -105 -179 -55 -112 -71 -134 -132 -191 -71 -65 -259
-177 -215 -127 11 12 18 23 15 25 -3 1 14 27 37 56 24 30 50 63 59 74 15 19
15 19 4 -3 -6 -12 -31 -48 -56 -80 l-45 -57 49 52 c31 32 71 93 106 162 66
130 129 202 234 271 42 28 80 50 84 50 5 0 -11 -24 -35 -53z m-2110 -16 c94
-66 133 -114 205 -253 46 -87 76 -131 117 -170 l55 -53 -50 56 c-45 51 -91
119 -81 119 2 0 17 -19 32 -41 15 -23 45 -61 67 -85 22 -23 39 -46 39 -51 -1
-4 3 -8 8 -8 5 0 13 -3 17 -7 14 -14 -37 1 -88 27 -82 41 -174 112 -213 162
-20 26 -56 89 -81 141 -24 52 -57 113 -73 136 -32 47 -44 76 -32 76 4 0 39
-22 78 -49z m358 -82 c87 -59 262 -79 340 -39 47 24 44 24 38 2 -3 -12 10 -36
36 -66 23 -26 41 -53 41 -59 0 -11 -39 32 -40 44 0 10 -77 49 -83 42 -4 -3 -4
-17 0 -31 3 -15 1 -27 -8 -33 -25 -16 -103 -9 -174 15 -38 14 -72 22 -74 20
-3 -2 15 -25 39 -49 32 -33 52 -45 73 -45 32 0 78 -20 117 -49 24 -19 24 -19
-32 -6 -31 7 -61 16 -67 20 -6 3 -11 2 -11 -3 0 -11 39 -52 50 -52 16 0 40
-31 40 -51 0 -19 -3 -19 -52 8 -69 37 -201 162 -249 237 -37 56 -71 133 -85
193 -5 22 0 18 27 -22 19 -27 52 -62 74 -76z m1396 29 c-50 -149 -199 -307
-371 -394 -28 -14 -54 -24 -57 -21 -2 3 12 11 31 18 27 10 36 19 36 36 0 15
10 28 33 39 31 17 56 41 57 57 0 5 -5 5 -11 2 -6 -4 -36 -13 -67 -20 l-56 -13
24 19 c35 29 85 49 118 49 20 0 40 13 72 45 24 24 42 47 39 50 -3 2 -36 -7
-75 -20 -69 -25 -147 -32 -172 -16 -8 4 -13 19 -12 32 1 13 2 27 1 32 -2 16
-80 -34 -100 -65 -11 -18 -21 -28 -21 -21 0 6 18 33 41 59 26 30 39 54 36 66
-6 23 -6 23 38 -3 31 -19 47 -21 134 -17 89 3 106 7 167 38 45 23 78 49 99 76
16 23 32 40 34 38 1 -1 -6 -31 -18 -66z"/>
<path d="M1125 885 c-14 -83 -26 -113 -55 -146 -44 -51 -42 -100 8 -150 21
-21 51 -41 66 -45 41 -10 99 20 125 66 21 38 29 100 12 100 -16 0 -60 75 -66
115 -13 82 -17 95 -26 89 -5 -3 -9 -46 -9 -96 0 -72 4 -95 17 -110 16 -18 16
-20 -4 -39 -14 -14 -27 -19 -41 -15 -25 8 -37 37 -20 47 16 10 24 163 10 199
-9 24 -10 23 -17 -15z m116 -148 c52 -64 37 -126 -41 -171 -33 -19 -33 -19
-76 3 -41 22 -74 68 -74 104 0 9 11 29 25 45 14 17 32 46 40 66 9 20 18 36 21
36 13 0 -7 -94 -23 -112 -15 -17 -15 -20 7 -43 30 -32 63 -32 89 1 21 26 21
26 1 51 -15 20 -20 40 -19 87 l1 61 9 -44 c5 -25 23 -62 40 -84z"/>
<path d="M10 1301 c0 -33 77 -159 128 -210 64 -63 112 -102 127 -101 5 0 8 19
7 43 -5 83 -9 91 -63 116 -28 12 -84 55 -125 93 -41 39 -74 65 -74 59z m105
-103 c16 -16 54 -40 82 -55 37 -20 53 -34 53 -48 0 -11 3 -37 7 -59 l6 -38
-59 45 c-61 46 -106 103 -137 171 -18 38 -18 39 0 25 10 -8 31 -26 48 -41z"/>
</g>
</svg>
