  0
SECTION
  2
HEADER
  9
$ACADVER
  1
AC1009
  9
$EXTMIN
 10
0.0
 20
0.0
 30
0.0
  9
$EXTMAX
 10
1000.0
 20
1000.0
 30
0.0
  9
$FILLMODE
 70
 0
  9
$SPLFRAME
 70
 1
  0
ENDSEC
  0
SECTION
  2
TABLES
  0
TABLE
  2
LAYER
 70
1
  0
LAYER
  2
0
 70
     0
 62
     7
  6
CONTINUOUS
  0
ENDTAB
  0
ENDSEC
  0
SECTION
  2
ENTITIES
  0
LINE
  8
0
 62
     0
 10
29.9682
 20
0.814419
 30
0.0
 11
29.9241
 21
1.56132
 31
0.0
  0
LINE
  8
0
 62
     0
 10
29.9241
 20
1.56132
 30
0.0
 11
29.8235
 21
2.18006
 31
0.0
  0
LINE
  8
0
 62
     0
 10
29.8235
 20
2.18006
 30
0.0
 11
29.8855
 21
2.7795
 31
0.0
  0
LINE
  8
0
 62
     0
 10
29.8855
 20
2.7795
 30
0.0
 11
30.3568
 21
3.514
 31
0.0
  0
LINE
  8
0
 62
     0
 10
30.3568
 20
3.514
 30
0.0
 11
30.7867
 21
4.12859
 31
0.0
  0
LINE
  8
0
 62
     0
 10
30.7867
 20
4.12859
 30
0.0
 11
30.6614
 21
4.3174
 31
0.0
  0
LINE
  8
0
 62
     0
 10
30.6614
 20
4.3174
 30
0.0
 11
30.3086
 21
4.42352
 31
0.0
  0
LINE
  8
0
 62
     0
 10
30.3086
 20
4.42352
 30
0.0
 11
29.9889
 21
4.67843
 31
0.0
  0
LINE
  8
0
 62
     0
 10
29.9889
 20
4.67843
 30
0.0
 11
29.6127
 21
4.90167
 31
0.0
  0
LINE
  8
0
 62
     0
 10
29.6127
 20
4.90167
 30
0.0
 11
28.965
 21
4.62333
 31
0.0
  0
LINE
  8
0
 62
     0
 10
28.965
 20
4.62333
 30
0.0
 11
28.2415
 21
4.20853
 31
0.0
  0
LINE
  8
0
 62
     0
 10
28.2415
 20
4.20853
 30
0.0
 11
28.8699
 21
3.46025
 31
0.0
  0
LINE
  8
0
 62
     0
 10
28.8699
 20
3.46025
 30
0.0
 11
29.3233
 21
2.73265
 31
0.0
  0
LINE
  8
0
 62
     0
 10
29.3233
 20
2.73265
 30
0.0
 11
29.3247
 21
2.05466
 31
0.0
  0
LINE
  8
0
 62
     0
 10
29.3247
 20
2.05466
 30
0.0
 11
29.1827
 21
1.44143
 31
0.0
  0
LINE
  8
0
 62
     0
 10
29.1827
 20
1.44143
 30
0.0
 11
29.0862
 21
0.888834
 31
0.0
  0
LINE
  8
0
 62
     0
 10
29.0862
 20
0.888834
 30
0.0
 11
29.0298
 21
0.507118
 31
0.0
  0
LINE
  8
0
 62
     0
 10
29.0298
 20
0.507118
 30
0.0
 11
28.9884
 21
0.300412
 31
0.0
  0
LINE
  8
0
 62
     0
 10
28.9884
 20
0.300412
 30
0.0
 11
28.7073
 21
0.376206
 31
0.0
  0
LINE
  8
0
 62
     0
 10
28.7073
 20
0.376206
 30
0.0
 11
28.1767
 21
0.781346
 31
0.0
  0
LINE
  8
0
 62
     0
 10
28.1767
 20
0.781346
 30
0.0
 11
27.6628
 21
1.28433
 31
0.0
  0
LINE
  8
0
 62
     0
 10
27.6628
 20
1.28433
 30
0.0
 11
27.4326
 21
1.65365
 31
0.0
  0
LINE
  8
0
 62
     0
 10
27.4326
 20
1.65365
 30
0.0
 11
27.3389
 21
2.01056
 31
0.0
  0
LINE
  8
0
 62
     0
 10
27.3389
 20
2.01056
 30
0.0
 11
27.0261
 21
2.14423
 31
0.0
  0
LINE
  8
0
 62
     0
 10
27.0261
 20
2.14423
 30
0.0
 11
26.4404
 21
2.05879
 31
0.0
  0
LINE
  8
0
 62
     0
 10
26.4404
 20
2.05879
 30
0.0
 11
25.5282
 21
1.757
 31
0.0
  0
LINE
  8
0
 62
     0
 10
25.5282
 20
1.757
 30
0.0
 11
24.4698
 21
1.42351
 31
0.0
  0
LINE
  8
0
 62
     0
 10
24.4698
 20
1.42351
 30
0.0
 11
23.9407
 21
1.37528
 31
0.0
  0
LINE
  8
0
 62
     0
 10
23.9407
 20
1.37528
 30
0.0
 11
23.9903
 21
1.70188
 31
0.0
  0
LINE
  8
0
 62
     0
 10
23.9903
 20
1.70188
 30
0.0
 11
24.3292
 21
2.2655
 31
0.0
  0
LINE
  8
0
 62
     0
 10
24.3292
 20
2.2655
 30
0.0
 11
24.8736
 21
3.00137
 31
0.0
  0
LINE
  8
0
 62
     0
 10
24.8736
 20
3.00137
 30
0.0
 11
23.9296
 21
2.7423
 31
0.0
  0
LINE
  8
0
 62
     0
 10
23.9296
 20
2.7423
 30
0.0
 11
22.9802
 21
2.44602
 31
0.0
  0
LINE
  8
0
 62
     0
 10
22.9802
 20
2.44602
 30
0.0
 11
22.0238
 21
2.09875
 31
0.0
  0
LINE
  8
0
 62
     0
 10
22.0238
 20
2.09875
 30
0.0
 11
21.2921
 21
1.87965
 31
0.0
  0
LINE
  8
0
 62
     0
 10
21.2921
 20
1.87965
 30
0.0
 11
20.8842
 21
1.89067
 31
0.0
  0
LINE
  8
0
 62
     0
 10
20.8842
 20
1.89067
 30
0.0
 11
20.9283
 21
2.29168
 31
0.0
  0
LINE
  8
0
 62
     0
 10
20.9283
 20
2.29168
 30
0.0
 11
21.2852
 21
3.00275
 31
0.0
  0
LINE
  8
0
 62
     0
 10
21.2852
 20
3.00275
 30
0.0
 11
22.0789
 21
4.37526
 31
0.0
  0
LINE
  8
0
 62
     0
 10
22.0789
 20
4.37526
 30
0.0
 11
22.5475
 21
5.42533
 31
0.0
  0
LINE
  8
0
 62
     0
 10
22.5475
 20
5.42533
 30
0.0
 11
22.7197
 21
6.23976
 31
0.0
  0
LINE
  8
0
 62
     0
 10
22.7197
 20
6.23976
 30
0.0
 11
22.6288
 21
6.90397
 31
0.0
  0
LINE
  8
0
 62
     0
 10
22.6288
 20
6.90397
 30
0.0
 11
22.4813
 21
7.5227
 31
0.0
  0
LINE
  8
0
 62
     0
 10
22.4813
 20
7.5227
 30
0.0
 11
22.5075
 21
7.92095
 31
0.0
  0
LINE
  8
0
 62
     0
 10
22.5075
 20
7.92095
 30
0.0
 11
22.9485
 21
8.05878
 31
0.0
  0
LINE
  8
0
 62
     0
 10
22.9485
 20
8.05878
 30
0.0
 11
23.7629
 21
7.97059
 31
0.0
  0
LINE
  8
0
 62
     0
 10
23.7629
 20
7.97059
 30
0.0
 11
24.6862
 21
7.70738
 31
0.0
  0
LINE
  8
0
 62
     0
 10
24.6862
 20
7.70738
 30
0.0
 11
25.4537
 21
7.32427
 31
0.0
  0
LINE
  8
0
 62
     0
 10
25.4537
 20
7.32427
 30
0.0
 11
26.1414
 21
6.83782
 31
0.0
  0
LINE
  8
0
 62
     0
 10
26.1414
 20
6.83782
 30
0.0
 11
25.677
 21
8.18691
 31
0.0
  0
LINE
  8
0
 62
     0
 10
25.677
 20
8.18691
 30
0.0
 11
25.1602
 21
9.51812
 31
0.0
  0
LINE
  8
0
 62
     0
 10
25.1602
 20
9.51812
 30
0.0
 11
24.5677
 21
10.7942
 31
0.0
  0
LINE
  8
0
 62
     0
 10
24.5677
 20
10.7942
 30
0.0
 11
23.9944
 21
11.8222
 31
0.0
  0
LINE
  8
0
 62
     0
 10
23.9944
 20
11.8222
 30
0.0
 11
23.541
 21
12.4065
 31
0.0
  0
LINE
  8
0
 62
     0
 10
23.541
 20
12.4065
 30
0.0
 11
23.4749
 21
12.3665
 31
0.0
  0
LINE
  8
0
 62
     0
 10
23.4749
 20
12.3665
 30
0.0
 11
23.5713
 21
12.0275
 31
0.0
  0
LINE
  8
0
 62
     0
 10
23.5713
 20
12.0275
 30
0.0
 11
23.8097
 21
11.4446
 31
0.0
  0
LINE
  8
0
 62
     0
 10
23.8097
 20
11.4446
 30
0.0
 11
24.1708
 21
10.6757
 31
0.0
  0
LINE
  8
0
 62
     0
 10
24.1708
 20
10.6757
 30
0.0
 11
24.5484
 21
9.86536
 31
0.0
  0
LINE
  8
0
 62
     0
 10
24.5484
 20
9.86536
 30
0.0
 11
24.8364
 21
9.16534
 31
0.0
  0
LINE
  8
0
 62
     0
 10
24.8364
 20
9.16534
 30
0.0
 11
25.0059
 21
8.65269
 31
0.0
  0
LINE
  8
0
 62
     0
 10
25.0059
 20
8.65269
 30
0.0
 11
25.0293
 21
8.39914
 31
0.0
  0
LINE
  8
0
 62
     0
 10
25.0293
 20
8.39914
 30
0.0
 11
24.4505
 21
8.37159
 31
0.0
  0
LINE
  8
0
 62
     0
 10
24.4505
 20
8.37159
 30
0.0
 11
23.1813
 21
8.64168
 31
0.0
  0
LINE
  8
0
 62
     0
 10
23.1813
 20
8.64168
 30
0.0
 11
21.536
 21
9.1295
 31
0.0
  0
LINE
  8
0
 62
     0
 10
21.536
 20
9.1295
 30
0.0
 11
19.8327
 21
9.75099
 31
0.0
  0
LINE
  8
0
 62
     0
 10
19.8327
 20
9.75099
 30
0.0
 11
17.5066
 21
10.9182
 31
0.0
  0
LINE
  8
0
 62
     0
 10
17.5066
 20
10.9182
 30
0.0
 11
15.2053
 21
12.474
 31
0.0
  0
LINE
  8
0
 62
     0
 10
15.2053
 20
12.474
 30
0.0
 11
13.1107
 21
14.2792
 31
0.0
  0
LINE
  8
0
 62
     0
 10
13.1107
 20
14.2792
 30
0.0
 11
11.4143
 21
16.1878
 31
0.0
  0
LINE
  8
0
 62
     0
 10
11.4143
 20
16.1878
 30
0.0
 11
10.5461
 21
17.3288
 31
0.0
  0
LINE
  8
0
 62
     0
 10
10.5461
 20
17.3288
 30
0.0
 11
10.1051
 21
17.8594
 31
0.0
  0
LINE
  8
0
 62
     0
 10
10.1051
 20
17.8594
 30
0.0
 11
10.0321
 21
17.8387
 31
0.0
  0
LINE
  8
0
 62
     0
 10
10.0321
 20
17.8387
 30
0.0
 11
10.2719
 21
17.322
 31
0.0
  0
LINE
  8
0
 62
     0
 10
10.2719
 20
17.322
 30
0.0
 11
10.5778
 21
16.8479
 31
0.0
  0
LINE
  8
0
 62
     0
 10
10.5778
 20
16.8479
 30
0.0
 11
11.0987
 21
16.174
 31
0.0
  0
LINE
  8
0
 62
     0
 10
11.0987
 20
16.174
 30
0.0
 11
11.7602
 21
15.3927
 31
0.0
  0
LINE
  8
0
 62
     0
 10
11.7602
 20
15.3927
 30
0.0
 11
12.4919
 21
14.5907
 31
0.0
  0
LINE
  8
0
 62
     0
 10
12.4919
 20
14.5907
 30
0.0
 11
13.1258
 21
13.9044
 31
0.0
  0
LINE
  8
0
 62
     0
 10
13.1258
 20
13.9044
 30
0.0
 11
13.5695
 21
13.378
 31
0.0
  0
LINE
  8
0
 62
     0
 10
13.5695
 20
13.378
 30
0.0
 11
13.8176
 21
13.0073
 31
0.0
  0
LINE
  8
0
 62
     0
 10
13.8176
 20
13.0073
 30
0.0
 11
13.8727
 21
12.7896
 31
0.0
  0
LINE
  8
0
 62
     0
 10
13.8727
 20
12.7896
 30
0.0
 11
13.7308
 21
12.7207
 31
0.0
  0
LINE
  8
0
 62
     0
 10
13.7308
 20
12.7207
 30
0.0
 11
13.3931
 21
12.7964
 31
0.0
  0
LINE
  8
0
 62
     0
 10
13.3931
 20
12.7964
 30
0.0
 11
12.8557
 21
13.0128
 31
0.0
  0
LINE
  8
0
 62
     0
 10
12.8557
 20
13.0128
 30
0.0
 11
12.1199
 21
13.3656
 31
0.0
  0
LINE
  8
0
 62
     0
 10
12.1199
 20
13.3656
 30
0.0
 11
10.593
 21
14.231
 31
0.0
  0
LINE
  8
0
 62
     0
 10
10.593
 20
14.231
 30
0.0
 11
9.07302
 21
15.2701
 31
0.0
  0
LINE
  8
0
 62
     0
 10
9.07302
 20
15.2701
 30
0.0
 11
7.69909
 21
16.378
 31
0.0
  0
LINE
  8
0
 62
     0
 10
7.69909
 20
16.378
 30
0.0
 11
6.61046
 21
17.4515
 31
0.0
  0
LINE
  8
0
 62
     0
 10
6.61046
 20
17.4515
 30
0.0
 11
6.06612
 21
18.1777
 31
0.0
  0
LINE
  8
0
 62
     0
 10
6.06612
 20
18.1777
 30
0.0
 11
5.37298
 21
19.2595
 31
0.0
  0
LINE
  8
0
 62
     0
 10
5.37298
 20
19.2595
 30
0.0
 11
4.62058
 21
20.5493
 31
0.0
  0
LINE
  8
0
 62
     0
 10
4.62058
 20
20.5493
 30
0.0
 11
3.8971
 21
21.9025
 31
0.0
  0
LINE
  8
0
 62
     0
 10
3.8971
 20
21.9025
 30
0.0
 11
3.16673
 21
23.2723
 31
0.0
  0
LINE
  8
0
 62
     0
 10
3.16673
 20
23.2723
 30
0.0
 11
2.39779
 21
24.6035
 31
0.0
  0
LINE
  8
0
 62
     0
 10
2.39779
 20
24.6035
 30
0.0
 11
1.68121
 21
25.7445
 31
0.0
  0
LINE
  8
0
 62
     0
 10
1.68121
 20
25.7445
 30
0.0
 11
1.1107
 21
26.5424
 31
0.0
  0
LINE
  8
0
 62
     0
 10
1.1107
 20
26.5424
 30
0.0
 11
0.694531
 21
27.0853
 31
0.0
  0
LINE
  8
0
 62
     0
 10
0.694531
 20
27.0853
 30
0.0
 11
0.405144
 21
27.5305
 31
0.0
  0
LINE
  8
0
 62
     0
 10
0.405144
 20
27.5305
 30
0.0
 11
0.26734
 21
27.8309
 31
0.0
  0
LINE
  8
0
 62
     0
 10
0.26734
 20
27.8309
 30
0.0
 11
0.308681
 21
27.9397
 31
0.0
  0
LINE
  8
0
 62
     0
 10
0.308681
 20
27.9397
 30
0.0
 11
0.649055
 21
27.8557
 31
0.0
  0
LINE
  8
0
 62
     0
 10
0.649055
 20
27.8557
 30
0.0
 11
1.16307
 21
27.62
 31
0.0
  0
LINE
  8
0
 62
     0
 10
1.16307
 20
27.62
 30
0.0
 11
1.80661
 21
27.2631
 31
0.0
  0
LINE
  8
0
 62
     0
 10
1.80661
 20
27.2631
 30
0.0
 11
2.53421
 21
26.8125
 31
0.0
  0
LINE
  8
0
 62
     0
 10
2.53421
 20
26.8125
 30
0.0
 11
3.30454
 21
26.2957
 31
0.0
  0
LINE
  8
0
 62
     0
 10
3.30454
 20
26.2957
 30
0.0
 11
4.07211
 21
25.7418
 31
0.0
  0
LINE
  8
0
 62
     0
 10
4.07211
 20
25.7418
 30
0.0
 11
4.79143
 21
25.1809
 31
0.0
  0
LINE
  8
0
 62
     0
 10
4.79143
 20
25.1809
 30
0.0
 11
5.42258
 21
24.6379
 31
0.0
  0
LINE
  8
0
 62
     0
 10
5.42258
 20
24.6379
 30
0.0
 11
6.0923
 21
23.9751
 31
0.0
  0
LINE
  8
0
 62
     0
 10
6.0923
 20
23.9751
 30
0.0
 11
6.79372
 21
23.2034
 31
0.0
  0
LINE
  8
0
 62
     0
 10
6.79372
 20
23.2034
 30
0.0
 11
7.44142
 21
22.4193
 31
0.0
  0
LINE
  8
0
 62
     0
 10
7.44142
 20
22.4193
 30
0.0
 11
7.95267
 21
21.7165
 31
0.0
  0
LINE
  8
0
 62
     0
 10
7.95267
 20
21.7165
 30
0.0
 11
8.3275
 21
21.1653
 31
0.0
  0
LINE
  8
0
 62
     0
 10
8.3275
 20
21.1653
 30
0.0
 11
8.60446
 21
20.7905
 31
0.0
  0
LINE
  8
0
 62
     0
 10
8.60446
 20
20.7905
 30
0.0
 11
8.75605
 21
20.6251
 31
0.0
  0
LINE
  8
0
 62
     0
 10
8.75605
 20
20.6251
 30
0.0
 11
8.75605
 21
20.7009
 31
0.0
  0
LINE
  8
0
 62
     0
 10
8.75605
 20
20.7009
 30
0.0
 11
8.62651
 21
21.0798
 31
0.0
  0
LINE
  8
0
 62
     0
 10
8.62651
 20
21.0798
 30
0.0
 11
8.4267
 21
21.7317
 31
0.0
  0
LINE
  8
0
 62
     0
 10
8.4267
 20
21.7317
 30
0.0
 11
8.18141
 21
22.5681
 31
0.0
  0
LINE
  8
0
 62
     0
 10
8.18141
 20
22.5681
 30
0.0
 11
7.91958
 21
23.4942
 31
0.0
  0
LINE
  8
0
 62
     0
 10
7.91958
 20
23.4942
 30
0.0
 11
7.58472
 21
24.8447
 31
0.0
  0
LINE
  8
0
 62
     0
 10
7.58472
 20
24.8447
 30
0.0
 11
7.39041
 21
26.1497
 31
0.0
  0
LINE
  8
0
 62
     0
 10
7.39041
 20
26.1497
 30
0.0
 11
7.29671
 21
27.8088
 31
0.0
  0
LINE
  8
0
 62
     0
 10
7.29671
 20
27.8088
 30
0.0
 11
7.26362
 21
30.2259
 31
0.0
  0
LINE
  8
0
 62
     0
 10
7.26362
 20
30.2259
 30
0.0
 11
7.26916
 21
32.6333
 31
0.0
  0
LINE
  8
0
 62
     0
 10
7.26916
 20
32.6333
 30
0.0
 11
7.34081
 21
34.2511
 31
0.0
  0
LINE
  8
0
 62
     0
 10
7.34081
 20
34.2511
 30
0.0
 11
7.51032
 21
35.4623
 31
0.0
  0
LINE
  8
0
 62
     0
 10
7.51032
 20
35.4623
 30
0.0
 11
7.81209
 21
36.6504
 31
0.0
  0
LINE
  8
0
 62
     0
 10
7.81209
 20
36.6504
 30
0.0
 11
9.23837
 21
40.2759
 31
0.0
  0
LINE
  8
0
 62
     0
 10
9.23837
 20
40.2759
 30
0.0
 11
11.056
 21
43.1285
 31
0.0
  0
LINE
  8
0
 62
     0
 10
11.056
 20
43.1285
 30
0.0
 11
11.7092
 21
43.8118
 31
0.0
  0
LINE
  8
0
 62
     0
 10
11.7092
 20
43.8118
 30
0.0
 11
12.0881
 21
44.0697
 31
0.0
  0
LINE
  8
0
 62
     0
 10
12.0881
 20
44.0697
 30
0.0
 11
12.1212
 21
43.8905
 31
0.0
  0
LINE
  8
0
 62
     0
 10
12.1212
 20
43.8905
 30
0.0
 11
11.7437
 21
43.258
 31
0.0
  0
LINE
  8
0
 62
     0
 10
11.7437
 20
43.258
 30
0.0
 11
11.056
 21
42.1488
 31
0.0
  0
LINE
  8
0
 62
     0
 10
11.056
 20
42.1488
 30
0.0
 11
10.4455
 21
40.8919
 31
0.0
  0
LINE
  8
0
 62
     0
 10
10.4455
 20
40.8919
 30
0.0
 11
9.93704
 21
39.5496
 31
0.0
  0
LINE
  8
0
 62
     0
 10
9.93704
 20
39.5496
 30
0.0
 11
9.55668
 21
38.1773
 31
0.0
  0
LINE
  8
0
 62
     0
 10
9.55668
 20
38.1773
 30
0.0
 11
9.35411
 21
36.963
 31
0.0
  0
LINE
  8
0
 62
     0
 10
9.35411
 20
36.963
 30
0.0
 11
9.22457
 21
35.5163
 31
0.0
  0
LINE
  8
0
 62
     0
 10
9.22457
 20
35.5163
 30
0.0
 11
9.16259
 21
33.9617
 31
0.0
  0
LINE
  8
0
 62
     0
 10
9.16259
 20
33.9617
 30
0.0
 11
9.16672
 21
32.4211
 31
0.0
  0
LINE
  8
0
 62
     0
 10
9.16672
 20
32.4211
 30
0.0
 11
9.23424
 21
31.0183
 31
0.0
  0
LINE
  8
0
 62
     0
 10
9.23424
 20
31.0183
 30
0.0
 11
9.36103
 21
29.8786
 31
0.0
  0
LINE
  8
0
 62
     0
 10
9.36103
 20
29.8786
 30
0.0
 11
9.5443
 21
29.1221
 31
0.0
  0
LINE
  8
0
 62
     0
 10
9.5443
 20
29.1221
 30
0.0
 11
9.7827
 21
28.8741
 31
0.0
  0
LINE
  8
0
 62
     0
 10
9.7827
 20
28.8741
 30
0.0
 11
10.192
 21
28.7624
 31
0.0
  0
LINE
  8
0
 62
     0
 10
10.192
 20
28.7624
 30
0.0
 11
10.8245
 21
28.4289
 31
0.0
  0
LINE
  8
0
 62
     0
 10
10.8245
 20
28.4289
 30
0.0
 11
11.4308
 21
28.0844
 31
0.0
  0
LINE
  8
0
 62
     0
 10
11.4308
 20
28.0844
 30
0.0
 11
11.7781
 21
27.9397
 31
0.0
  0
LINE
  8
0
 62
     0
 10
11.7781
 20
27.9397
 30
0.0
 11
11.9407
 21
28.1285
 31
0.0
  0
LINE
  8
0
 62
     0
 10
11.9407
 20
28.1285
 30
0.0
 11
11.8814
 21
28.6425
 31
0.0
  0
LINE
  8
0
 62
     0
 10
11.8814
 20
28.6425
 30
0.0
 11
11.6182
 21
29.4115
 31
0.0
  0
LINE
  8
0
 62
     0
 10
11.6182
 20
29.4115
 30
0.0
 11
11.1704
 21
30.3637
 31
0.0
  0
LINE
  8
0
 62
     0
 10
11.1704
 20
30.3637
 30
0.0
 11
10.8824
 21
30.9411
 31
0.0
  0
LINE
  8
0
 62
     0
 10
10.8824
 20
30.9411
 30
0.0
 11
10.666
 21
31.4331
 31
0.0
  0
LINE
  8
0
 62
     0
 10
10.666
 20
31.4331
 30
0.0
 11
10.5406
 21
31.7872
 31
0.0
  0
LINE
  8
0
 62
     0
 10
10.5406
 20
31.7872
 30
0.0
 11
10.531
 21
31.9512
 31
0.0
  0
LINE
  8
0
 62
     0
 10
10.531
 20
31.9512
 30
0.0
 11
11.0257
 21
31.8327
 31
0.0
  0
LINE
  8
0
 62
     0
 10
11.0257
 20
31.8327
 30
0.0
 11
11.898
 21
31.1836
 31
0.0
  0
LINE
  8
0
 62
     0
 10
11.898
 20
31.1836
 30
0.0
 11
12.8833
 21
30.2328
 31
0.0
  0
LINE
  8
0
 62
     0
 10
12.8833
 20
30.2328
 30
0.0
 11
13.7197
 21
29.2048
 31
0.0
  0
LINE
  8
0
 62
     0
 10
13.7197
 20
29.2048
 30
0.0
 11
14.5576
 21
28.1106
 31
0.0
  0
LINE
  8
0
 62
     0
 10
14.5576
 20
28.1106
 30
0.0
 11
15.4726
 21
27.2162
 31
0.0
  0
LINE
  8
0
 62
     0
 10
15.4726
 20
27.2162
 30
0.0
 11
16.5406
 21
26.4583
 31
0.0
  0
LINE
  8
0
 62
     0
 10
16.5406
 20
26.4583
 30
0.0
 11
17.8387
 21
25.7735
 31
0.0
  0
LINE
  8
0
 62
     0
 10
17.8387
 20
25.7735
 30
0.0
 11
18.9949
 21
25.287
 31
0.0
  0
LINE
  8
0
 62
     0
 10
18.9949
 20
25.287
 30
0.0
 11
19.5185
 21
25.1809
 31
0.0
  0
LINE
  8
0
 62
     0
 10
19.5185
 20
25.1809
 30
0.0
 11
19.3766
 21
25.4427
 31
0.0
  0
LINE
  8
0
 62
     0
 10
19.3766
 20
25.4427
 30
0.0
 11
18.536
 21
26.056
 31
0.0
  0
LINE
  8
0
 62
     0
 10
18.536
 20
26.056
 30
0.0
 11
17.2048
 21
26.9985
 31
0.0
  0
LINE
  8
0
 62
     0
 10
17.2048
 20
26.9985
 30
0.0
 11
16.254
 21
27.8391
 31
0.0
  0
LINE
  8
0
 62
     0
 10
16.254
 20
27.8391
 30
0.0
 11
15.6834
 21
28.575
 31
0.0
  0
LINE
  8
0
 62
     0
 10
15.6834
 20
28.575
 30
0.0
 11
15.4947
 21
29.2075
 31
0.0
  0
LINE
  8
0
 62
     0
 10
15.4947
 20
29.2075
 30
0.0
 11
15.237
 21
29.9531
 31
0.0
  0
LINE
  8
0
 62
     0
 10
15.237
 20
29.9531
 30
0.0
 11
14.4777
 21
30.8612
 31
0.0
  0
LINE
  8
0
 62
     0
 10
14.4777
 20
30.8612
 30
0.0
 11
13.9402
 21
31.4248
 31
0.0
  0
LINE
  8
0
 62
     0
 10
13.9402
 20
31.4248
 30
0.0
 11
13.6329
 21
31.885
 31
0.0
  0
LINE
  8
0
 62
     0
 10
13.6329
 20
31.885
 30
0.0
 11
13.4938
 21
32.3784
 31
0.0
  0
LINE
  8
0
 62
     0
 10
13.4938
 20
32.3784
 30
0.0
 11
13.4621
 21
33.0329
 31
0.0
  0
LINE
  8
0
 62
     0
 10
13.4621
 20
33.0329
 30
0.0
 11
13.3766
 21
34.2594
 31
0.0
  0
LINE
  8
0
 62
     0
 10
13.3766
 20
34.2594
 30
0.0
 11
13.0845
 21
35.1855
 31
0.0
  0
LINE
  8
0
 62
     0
 10
13.0845
 20
35.1855
 30
0.0
 11
12.5277
 21
35.9184
 31
0.0
  0
LINE
  8
0
 62
     0
 10
12.5277
 20
35.9184
 30
0.0
 11
11.6499
 21
36.5718
 31
0.0
  0
LINE
  8
0
 62
     0
 10
11.6499
 20
36.5718
 30
0.0
 11
10.7997
 21
37.1863
 31
0.0
  0
LINE
  8
0
 62
     0
 10
10.7997
 20
37.1863
 30
0.0
 11
10.5296
 21
37.5737
 31
0.0
  0
LINE
  8
0
 62
     0
 10
10.5296
 20
37.5737
 30
0.0
 11
11.457
 21
37.6135
 31
0.0
  0
LINE
  8
0
 62
     0
 10
11.457
 20
37.6135
 30
0.0
 11
13.1975
 21
37.0099
 31
0.0
  0
LINE
  8
0
 62
     0
 10
13.1975
 20
37.0099
 30
0.0
 11
15.0399
 21
36.0673
 31
0.0
  0
LINE
  8
0
 62
     0
 10
15.0399
 20
36.0673
 30
0.0
 11
16.2788
 21
35.0918
 31
0.0
  0
LINE
  8
0
 62
     0
 10
16.2788
 20
35.0918
 30
0.0
 11
16.6205
 21
34.71
 31
0.0
  0
LINE
  8
0
 62
     0
 10
16.6205
 20
34.71
 30
0.0
 11
16.7638
 21
34.6535
 31
0.0
  0
LINE
  8
0
 62
     0
 10
16.7638
 20
34.6535
 30
0.0
 11
16.6329
 21
35.0821
 31
0.0
  0
LINE
  8
0
 62
     0
 10
16.6329
 20
35.0821
 30
0.0
 11
16.2443
 21
35.7064
 31
0.0
  0
LINE
  8
0
 62
     0
 10
16.2443
 20
35.7064
 30
0.0
 11
15.5966
 21
36.5263
 31
0.0
  0
LINE
  8
0
 62
     0
 10
15.5966
 20
36.5263
 30
0.0
 11
14.694
 21
37.5377
 31
0.0
  0
LINE
  8
0
 62
     0
 10
14.694
 20
37.5377
 30
0.0
 11
13.6453
 21
38.8013
 31
0.0
  0
LINE
  8
0
 62
     0
 10
13.6453
 20
38.8013
 30
0.0
 11
13.2333
 21
39.8321
 31
0.0
  0
LINE
  8
0
 62
     0
 10
13.2333
 20
39.8321
 30
0.0
 11
13.4304
 21
40.9317
 31
0.0
  0
LINE
  8
0
 62
     0
 10
13.4304
 20
40.9317
 30
0.0
 11
14.2048
 21
42.4021
 31
0.0
  0
LINE
  8
0
 62
     0
 10
14.2048
 20
42.4021
 30
0.0
 11
15.0247
 21
43.9374
 31
0.0
  0
LINE
  8
0
 62
     0
 10
15.0247
 20
43.9374
 30
0.0
 11
15.5208
 21
45.3651
 31
0.0
  0
LINE
  8
0
 62
     0
 10
15.5208
 20
45.3651
 30
0.0
 11
15.762
 21
46.9593
 31
0.0
  0
LINE
  8
0
 62
     0
 10
15.762
 20
46.9593
 30
0.0
 11
15.813
 21
48.9892
 31
0.0
  0
LINE
  8
0
 62
     0
 10
15.813
 20
48.9892
 30
0.0
 11
15.8089
 21
50.4017
 31
0.0
  0
LINE
  8
0
 62
     0
 10
15.8089
 20
50.4017
 30
0.0
 11
15.8474
 21
51.1059
 31
0.0
  0
LINE
  8
0
 62
     0
 10
15.8474
 20
51.1059
 30
0.0
 11
15.9522
 21
51.2382
 31
0.0
  0
LINE
  8
0
 62
     0
 10
15.9522
 20
51.2382
 30
0.0
 11
16.1465
 21
50.9351
 31
0.0
  0
LINE
  8
0
 62
     0
 10
16.1465
 20
50.9351
 30
0.0
 11
16.5475
 21
49.9636
 31
0.0
  0
LINE
  8
0
 62
     0
 10
16.5475
 20
49.9636
 30
0.0
 11
17.0146
 21
48.5909
 31
0.0
  0
LINE
  8
0
 62
     0
 10
17.0146
 20
48.5909
 30
0.0
 11
17.2751
 21
47.6472
 31
0.0
  0
LINE
  8
0
 62
     0
 10
17.2751
 20
47.6472
 30
0.0
 11
17.3964
 21
46.8464
 31
0.0
  0
LINE
  8
0
 62
     0
 10
17.3964
 20
46.8464
 30
0.0
 11
17.3895
 21
45.955
 31
0.0
  0
LINE
  8
0
 62
     0
 10
17.3895
 20
45.955
 30
0.0
 11
17.2737
 21
44.7407
 31
0.0
  0
LINE
  8
0
 62
     0
 10
17.2737
 20
44.7407
 30
0.0
 11
17.1759
 21
43.7942
 31
0.0
  0
LINE
  8
0
 62
     0
 10
17.1759
 20
43.7942
 30
0.0
 11
17.0946
 21
42.8378
 31
0.0
  0
LINE
  8
0
 62
     0
 10
17.0946
 20
42.8378
 30
0.0
 11
17.0408
 21
41.9848
 31
0.0
  0
LINE
  8
0
 62
     0
 10
17.0408
 20
41.9848
 30
0.0
 11
17.0202
 21
41.3438
 31
0.0
  0
LINE
  8
0
 62
     0
 10
17.0202
 20
41.3438
 30
0.0
 11
17.0408
 21
40.6562
 31
0.0
  0
LINE
  8
0
 62
     0
 10
17.0408
 20
40.6562
 30
0.0
 11
17.1662
 21
40.2332
 31
0.0
  0
LINE
  8
0
 62
     0
 10
17.1662
 20
40.2332
 30
0.0
 11
17.4887
 21
39.9313
 31
0.0
  0
LINE
  8
0
 62
     0
 10
17.4887
 20
39.9313
 30
0.0
 11
18.0978
 21
39.6007
 31
0.0
  0
LINE
  8
0
 62
     0
 10
18.0978
 20
39.6007
 30
0.0
 11
19.0679
 21
39.0246
 31
0.0
  0
LINE
  8
0
 62
     0
 10
19.0679
 20
39.0246
 30
0.0
 11
19.8851
 21
38.3949
 31
0.0
  0
LINE
  8
0
 62
     0
 10
19.8851
 20
38.3949
 30
0.0
 11
20.5948
 21
37.7306
 31
0.0
  0
LINE
  8
0
 62
     0
 10
20.5948
 20
37.7306
 30
0.0
 11
19.9444
 21
39.4589
 31
0.0
  0
LINE
  8
0
 62
     0
 10
19.9444
 20
39.4589
 30
0.0
 11
19.3973
 21
41.4295
 31
0.0
  0
LINE
  8
0
 62
     0
 10
19.3973
 20
41.4295
 30
0.0
 11
19.0693
 21
43.899
 31
0.0
  0
LINE
  8
0
 62
     0
 10
19.0693
 20
43.899
 30
0.0
 11
18.9591
 21
45.0109
 31
0.0
  0
LINE
  8
0
 62
     0
 10
18.9591
 20
45.0109
 30
0.0
 11
18.824
 21
46.0361
 31
0.0
  0
LINE
  8
0
 62
     0
 10
18.824
 20
46.0361
 30
0.0
 11
18.6821
 21
46.8616
 31
0.0
  0
LINE
  8
0
 62
     0
 10
18.6821
 20
46.8616
 30
0.0
 11
18.5498
 21
47.3699
 31
0.0
  0
LINE
  8
0
 62
     0
 10
18.5498
 20
47.3699
 30
0.0
 11
18.0303
 21
48.5373
 31
0.0
  0
LINE
  8
0
 62
     0
 10
18.0303
 20
48.5373
 30
0.0
 11
17.2889
 21
50.0257
 31
0.0
  0
LINE
  8
0
 62
     0
 10
17.2889
 20
50.0257
 30
0.0
 11
16.5255
 21
51.4435
 31
0.0
  0
LINE
  8
0
 62
     0
 10
16.5255
 20
51.4435
 30
0.0
 11
15.9439
 21
52.4013
 31
0.0
  0
LINE
  8
0
 62
     0
 10
15.9439
 20
52.4013
 30
0.0
 11
15.627
 21
52.947
 31
0.0
  0
LINE
  8
0
 62
     0
 10
15.627
 20
52.947
 30
0.0
 11
15.5787
 21
53.2557
 31
0.0
  0
LINE
  8
0
 62
     0
 10
15.5787
 20
53.2557
 30
0.0
 11
16.2939
 21
52.8754
 31
0.0
  0
LINE
  8
0
 62
     0
 10
16.2939
 20
52.8754
 30
0.0
 11
17.8235
 21
51.6805
 31
0.0
  0
LINE
  8
0
 62
     0
 10
17.8235
 20
51.6805
 30
0.0
 11
19.699
 21
50.0599
 31
0.0
  0
LINE
  8
0
 62
     0
 10
19.699
 20
50.0599
 30
0.0
 11
21.4561
 21
48.3969
 31
0.0
  0
LINE
  8
0
 62
     0
 10
21.4561
 20
48.3969
 30
0.0
 11
23.2282
 21
46.6094
 31
0.0
  0
LINE
  8
0
 62
     0
 10
23.2282
 20
46.6094
 30
0.0
 11
23.2365
 21
44.0683
 31
0.0
  0
LINE
  8
0
 62
     0
 10
23.2365
 20
44.0683
 30
0.0
 11
23.3302
 21
42.1541
 31
0.0
  0
LINE
  8
0
 62
     0
 10
23.3302
 20
42.1541
 30
0.0
 11
23.6678
 21
40.6576
 31
0.0
  0
LINE
  8
0
 62
     0
 10
23.6678
 20
40.6576
 30
0.0
 11
24.3513
 21
39.2878
 31
0.0
  0
LINE
  8
0
 62
     0
 10
24.3513
 20
39.2878
 30
0.0
 11
25.4882
 21
37.7529
 31
0.0
  0
LINE
  8
0
 62
     0
 10
25.4882
 20
37.7529
 30
0.0
 11
25.9623
 21
37.1119
 31
0.0
  0
LINE
  8
0
 62
     0
 10
25.9623
 20
37.1119
 30
0.0
 11
26.3908
 21
36.4285
 31
0.0
  0
LINE
  8
0
 62
     0
 10
26.3908
 20
36.4285
 30
0.0
 11
26.727
 21
35.7808
 31
0.0
  0
LINE
  8
0
 62
     0
 10
26.727
 20
35.7808
 30
0.0
 11
26.9269
 21
35.2461
 31
0.0
  0
LINE
  8
0
 62
     0
 10
26.9269
 20
35.2461
 30
0.0
 11
27.1777
 21
34.3228
 31
0.0
  0
LINE
  8
0
 62
     0
 10
27.1777
 20
34.3228
 30
0.0
 11
27.3182
 21
33.9424
 31
0.0
  0
LINE
  8
0
 62
     0
 10
27.3182
 20
33.9424
 30
0.0
 11
27.3513
 21
34.1023
 31
0.0
  0
LINE
  8
0
 62
     0
 10
27.3513
 20
34.1023
 30
0.0
 11
27.2796
 21
34.7982
 31
0.0
  0
LINE
  8
0
 62
     0
 10
27.2796
 20
34.7982
 30
0.0
 11
27.0316
 21
35.887
 31
0.0
  0
LINE
  8
0
 62
     0
 10
27.0316
 20
35.887
 30
0.0
 11
26.5658
 21
37.1683
 31
0.0
  0
LINE
  8
0
 62
     0
 10
26.5658
 20
37.1683
 30
0.0
 11
25.9264
 21
38.5353
 31
0.0
  0
LINE
  8
0
 62
     0
 10
25.9264
 20
38.5353
 30
0.0
 11
25.1575
 21
39.8776
 31
0.0
  0
LINE
  8
0
 62
     0
 10
25.1575
 20
39.8776
 30
0.0
 11
24.5952
 21
40.9469
 31
0.0
  0
LINE
  8
0
 62
     0
 10
24.5952
 20
40.9469
 30
0.0
 11
24.259
 21
41.9104
 31
0.0
  0
LINE
  8
0
 62
     0
 10
24.259
 20
41.9104
 30
0.0
 11
24.084
 21
42.799
 31
0.0
  0
LINE
  8
0
 62
     0
 10
24.084
 20
42.799
 30
0.0
 11
24.8254
 21
41.6553
 31
0.0
  0
LINE
  8
0
 62
     0
 10
24.8254
 20
41.6553
 30
0.0
 11
25.3904
 21
40.845
 31
0.0
  0
LINE
  8
0
 62
     0
 10
25.3904
 20
40.845
 30
0.0
 11
25.9264
 21
40.2484
 31
0.0
  0
LINE
  8
0
 62
     0
 10
25.9264
 20
40.2484
 30
0.0
 11
26.5548
 21
39.7524
 31
0.0
  0
LINE
  8
0
 62
     0
 10
26.5548
 20
39.7524
 30
0.0
 11
27.3995
 21
39.2384
 31
0.0
  0
LINE
  8
0
 62
     0
 10
27.3995
 20
39.2384
 30
0.0
 11
27.8708
 21
38.9199
 31
0.0
  0
LINE
  8
0
 62
     0
 10
27.8708
 20
38.9199
 30
0.0
 11
28.2305
 21
38.5314
 31
0.0
  0
LINE
  8
0
 62
     0
 10
28.2305
 20
38.5314
 30
0.0
 11
28.5295
 21
37.998
 31
0.0
  0
LINE
  8
0
 62
     0
 10
28.5295
 20
37.998
 30
0.0
 11
28.823
 21
37.2428
 31
0.0
  0
LINE
  8
0
 62
     0
 10
28.823
 20
37.2428
 30
0.0
 11
29.2585
 21
36.1982
 31
0.0
  0
LINE
  8
0
 62
     0
 10
29.2585
 20
36.1982
 30
0.0
 11
29.5837
 21
35.7685
 31
0.0
  0
LINE
  8
0
 62
     0
 10
29.5837
 20
35.7685
 30
0.0
 11
29.9117
 21
36.2313
 31
0.0
  0
LINE
  8
0
 62
     0
 10
29.9117
 20
36.2313
 30
0.0
 11
30.3513
 21
37.3338
 31
0.0
  0
LINE
  8
0
 62
     0
 10
30.3513
 20
37.3338
 30
0.0
 11
30.6586
 21
38.1758
 31
0.0
  0
LINE
  8
0
 62
     0
 10
30.6586
 20
38.1758
 30
0.0
 11
30.9549
 21
38.7078
 31
0.0
  0
LINE
  8
0
 62
     0
 10
30.9549
 20
38.7078
 30
0.0
 11
31.3325
 21
39.0564
 31
0.0
  0
LINE
  8
0
 62
     0
 10
31.3325
 20
39.0564
 30
0.0
 11
31.8905
 21
39.3471
 31
0.0
  0
LINE
  8
0
 62
     0
 10
31.8905
 20
39.3471
 30
0.0
 11
32.902
 21
40.036
 31
0.0
  0
LINE
  8
0
 62
     0
 10
32.902
 20
40.036
 30
0.0
 11
33.9053
 21
41.1095
 31
0.0
  0
LINE
  8
0
 62
     0
 10
33.9053
 20
41.1095
 30
0.0
 11
34.2966
 21
41.6183
 31
0.0
  0
LINE
  8
0
 62
     0
 10
34.2966
 20
41.6183
 30
0.0
 11
34.6259
 21
42.0342
 31
0.0
  0
LINE
  8
0
 62
     0
 10
34.6259
 20
42.0342
 30
0.0
 11
34.8575
 21
42.3153
 31
0.0
  0
LINE
  8
0
 62
     0
 10
34.8575
 20
42.3153
 30
0.0
 11
34.9595
 21
42.4173
 31
0.0
  0
LINE
  8
0
 62
     0
 10
34.9595
 20
42.4173
 30
0.0
 11
34.9553
 21
42.1294
 31
0.0
  0
LINE
  8
0
 62
     0
 10
34.9553
 20
42.1294
 30
0.0
 11
34.7031
 21
41.4182
 31
0.0
  0
LINE
  8
0
 62
     0
 10
34.7031
 20
41.4182
 30
0.0
 11
34.2966
 21
40.5197
 31
0.0
  0
LINE
  8
0
 62
     0
 10
34.2966
 20
40.5197
 30
0.0
 11
33.8322
 21
39.6667
 31
0.0
  0
LINE
  8
0
 62
     0
 10
33.8322
 20
39.6667
 30
0.0
 11
32.5313
 21
37.1644
 31
0.0
  0
LINE
  8
0
 62
     0
 10
32.5313
 20
37.1644
 30
0.0
 11
31.9043
 21
35.0173
 31
0.0
  0
LINE
  8
0
 62
     0
 10
31.9043
 20
35.0173
 30
0.0
 11
31.75
 21
33.9094
 31
0.0
  0
LINE
  8
0
 62
     0
 10
31.75
 20
33.9094
 30
0.0
 11
32.0862
 21
34.925
 31
0.0
  0
LINE
  8
0
 62
     0
 10
32.0862
 20
34.925
 30
0.0
 11
32.4308
 21
35.8606
 31
0.0
  0
LINE
  8
0
 62
     0
 10
32.4308
 20
35.8606
 30
0.0
 11
32.8083
 21
36.6229
 31
0.0
  0
LINE
  8
0
 62
     0
 10
32.8083
 20
36.6229
 30
0.0
 11
33.2851
 21
37.3271
 31
0.0
  0
LINE
  8
0
 62
     0
 10
33.2851
 20
37.3271
 30
0.0
 11
33.9301
 21
38.0891
 31
0.0
  0
LINE
  8
0
 62
     0
 10
33.9301
 20
38.0891
 30
0.0
 11
34.8823
 21
39.3291
 31
0.0
  0
LINE
  8
0
 62
     0
 10
34.8823
 20
39.3291
 30
0.0
 11
35.4983
 21
40.6396
 31
0.0
  0
LINE
  8
0
 62
     0
 10
35.4983
 20
40.6396
 30
0.0
 11
35.8359
 21
42.1954
 31
0.0
  0
LINE
  8
0
 62
     0
 10
35.8359
 20
42.1954
 30
0.0
 11
35.9544
 21
44.1773
 31
0.0
  0
LINE
  8
0
 62
     0
 10
35.9544
 20
44.1773
 30
0.0
 11
35.9876
 21
46.8256
 31
0.0
  0
LINE
  8
0
 62
     0
 10
35.9876
 20
46.8256
 30
0.0
 11
37.87
 21
48.6269
 31
0.0
  0
LINE
  8
0
 62
     0
 10
37.87
 20
48.6269
 30
0.0
 11
39.6325
 21
50.2391
 31
0.0
  0
LINE
  8
0
 62
     0
 10
39.6325
 20
50.2391
 30
0.0
 11
41.45
 21
51.7881
 31
0.0
  0
LINE
  8
0
 62
     0
 10
41.45
 20
51.7881
 30
0.0
 11
42.8971
 21
52.9276
 31
0.0
  0
LINE
  8
0
 62
     0
 10
42.8971
 20
52.9276
 30
0.0
 11
43.5515
 21
53.3065
 31
0.0
  0
LINE
  8
0
 62
     0
 10
43.5515
 20
53.3065
 30
0.0
 11
43.4922
 21
53.0973
 31
0.0
  0
LINE
  8
0
 62
     0
 10
43.4922
 20
53.0973
 30
0.0
 11
43.2537
 21
52.6023
 31
0.0
  0
LINE
  8
0
 62
     0
 10
43.2537
 20
52.6023
 30
0.0
 11
42.8763
 21
51.8943
 31
0.0
  0
LINE
  8
0
 62
     0
 10
42.8763
 20
51.8943
 30
0.0
 11
42.3954
 21
51.0494
 31
0.0
  0
LINE
  8
0
 62
     0
 10
42.3954
 20
51.0494
 30
0.0
 11
40.724
 21
47.4871
 31
0.0
  0
LINE
  8
0
 62
     0
 10
40.724
 20
47.4871
 30
0.0
 11
40.1299
 21
44.486
 31
0.0
  0
LINE
  8
0
 62
     0
 10
40.1299
 20
44.486
 30
0.0
 11
40.0484
 21
43.0265
 31
0.0
  0
LINE
  8
0
 62
     0
 10
40.0484
 20
43.0265
 30
0.0
 11
39.8212
 21
41.5604
 31
0.0
  0
LINE
  8
0
 62
     0
 10
39.8212
 20
41.5604
 30
0.0
 11
39.4614
 21
40.163
 31
0.0
  0
LINE
  8
0
 62
     0
 10
39.4614
 20
40.163
 30
0.0
 11
38.9848
 21
38.9075
 31
0.0
  0
LINE
  8
0
 62
     0
 10
38.9848
 20
38.9075
 30
0.0
 11
38.3247
 21
37.4646
 31
0.0
  0
LINE
  8
0
 62
     0
 10
38.3247
 20
37.4646
 30
0.0
 11
39.1654
 21
38.2545
 31
0.0
  0
LINE
  8
0
 62
     0
 10
39.1654
 20
38.2545
 30
0.0
 11
40.0748
 21
38.9862
 31
0.0
  0
LINE
  8
0
 62
     0
 10
40.0748
 20
38.9862
 30
0.0
 11
41.0849
 21
39.6353
 31
0.0
  0
LINE
  8
0
 62
     0
 10
41.0849
 20
39.6353
 30
0.0
 11
41.4955
 21
39.8695
 31
0.0
  0
LINE
  8
0
 62
     0
 10
41.4955
 20
39.8695
 30
0.0
 11
41.7985
 21
40.0967
 31
0.0
  0
LINE
  8
0
 62
     0
 10
41.7985
 20
40.0967
 30
0.0
 11
42.0038
 21
40.3722
 31
0.0
  0
LINE
  8
0
 62
     0
 10
42.0038
 20
40.3722
 30
0.0
 11
42.1199
 21
40.7529
 31
0.0
  0
LINE
  8
0
 62
     0
 10
42.1199
 20
40.7529
 30
0.0
 11
42.1569
 21
41.2944
 31
0.0
  0
LINE
  8
0
 62
     0
 10
42.1569
 20
41.2944
 30
0.0
 11
42.1252
 21
42.0522
 31
0.0
  0
LINE
  8
0
 62
     0
 10
42.1252
 20
42.0522
 30
0.0
 11
42.0317
 21
43.0844
 31
0.0
  0
LINE
  8
0
 62
     0
 10
42.0317
 20
43.0844
 30
0.0
 11
41.8867
 21
44.4429
 31
0.0
  0
LINE
  8
0
 62
     0
 10
41.8867
 20
44.4429
 30
0.0
 11
41.7491
 21
45.8777
 31
0.0
  0
LINE
  8
0
 62
     0
 10
41.7491
 20
45.8777
 30
0.0
 11
41.7354
 21
46.8658
 31
0.0
  0
LINE
  8
0
 62
     0
 10
41.7354
 20
46.8658
 30
0.0
 11
41.8592
 21
47.709
 31
0.0
  0
LINE
  8
0
 62
     0
 10
41.8592
 20
47.709
 30
0.0
 11
42.1432
 21
48.708
 31
0.0
  0
LINE
  8
0
 62
     0
 10
42.1432
 20
48.708
 30
0.0
 11
42.6226
 21
50.1001
 31
0.0
  0
LINE
  8
0
 62
     0
 10
42.6226
 20
50.1001
 30
0.0
 11
43.028
 21
51.0399
 31
0.0
  0
LINE
  8
0
 62
     0
 10
43.028
 20
51.0399
 30
0.0
 11
43.2125
 21
51.2865
 31
0.0
  0
LINE
  8
0
 62
     0
 10
43.2125
 20
51.2865
 30
0.0
 11
43.313
 21
51.1006
 31
0.0
  0
LINE
  8
0
 62
     0
 10
43.313
 20
51.1006
 30
0.0
 11
43.3504
 21
50.3439
 31
0.0
  0
LINE
  8
0
 62
     0
 10
43.3504
 20
50.3439
 30
0.0
 11
43.3433
 21
48.8805
 31
0.0
  0
LINE
  8
0
 62
     0
 10
43.3433
 20
48.8805
 30
0.0
 11
43.3959
 21
46.8355
 31
0.0
  0
LINE
  8
0
 62
     0
 10
43.3959
 20
46.8355
 30
0.0
 11
43.6492
 21
45.2067
 31
0.0
  0
LINE
  8
0
 62
     0
 10
43.6492
 20
45.2067
 30
0.0
 11
44.1646
 21
43.7624
 31
0.0
  0
LINE
  8
0
 62
     0
 10
44.1646
 20
43.7624
 30
0.0
 11
44.9986
 21
42.2684
 31
0.0
  0
LINE
  8
0
 62
     0
 10
44.9986
 20
42.2684
 30
0.0
 11
45.5884
 21
41.1318
 31
0.0
  0
LINE
  8
0
 62
     0
 10
45.5884
 20
41.1318
 30
0.0
 11
45.9024
 21
40.1355
 31
0.0
  0
LINE
  8
0
 62
     0
 10
45.9024
 20
40.1355
 30
0.0
 11
45.9161
 21
39.5979
 31
0.0
  0
LINE
  8
0
 62
     0
 10
45.9161
 20
39.5979
 30
0.0
 11
45.7193
 21
39.0744
 31
0.0
  0
LINE
  8
0
 62
     0
 10
45.7193
 20
39.0744
 30
0.0
 11
45.1926
 21
38.3646
 31
0.0
  0
LINE
  8
0
 62
     0
 10
45.1926
 20
38.3646
 30
0.0
 11
44.22
 21
37.2692
 31
0.0
  0
LINE
  8
0
 62
     0
 10
44.22
 20
37.2692
 30
0.0
 11
43.5652
 21
36.5347
 31
0.0
  0
LINE
  8
0
 62
     0
 10
43.5652
 20
36.5347
 30
0.0
 11
43.0541
 21
35.9227
 31
0.0
  0
LINE
  8
0
 62
     0
 10
43.0541
 20
35.9227
 30
0.0
 11
42.6918
 21
35.4471
 31
0.0
  0
LINE
  8
0
 62
     0
 10
42.6918
 20
35.4471
 30
0.0
 11
42.4864
 21
35.1193
 31
0.0
  0
LINE
  8
0
 62
     0
 10
42.4864
 20
35.1193
 30
0.0
 11
42.4423
 21
34.9553
 31
0.0
  0
LINE
  8
0
 62
     0
 10
42.4423
 20
34.9553
 30
0.0
 11
42.569
 21
34.9677
 31
0.0
  0
LINE
  8
0
 62
     0
 10
42.569
 20
34.9677
 30
0.0
 11
42.8706
 21
35.1675
 31
0.0
  0
LINE
  8
0
 62
     0
 10
42.8706
 20
35.1675
 30
0.0
 11
43.3571
 21
35.5699
 31
0.0
  0
LINE
  8
0
 62
     0
 10
43.3571
 20
35.5699
 30
0.0
 11
45.1954
 21
36.7743
 31
0.0
  0
LINE
  8
0
 62
     0
 10
45.1954
 20
36.7743
 30
0.0
 11
47.4391
 21
37.55
 31
0.0
  0
LINE
  8
0
 62
     0
 10
47.4391
 20
37.55
 30
0.0
 11
48.2836
 21
37.6742
 31
0.0
  0
LINE
  8
0
 62
     0
 10
48.2836
 20
37.6742
 30
0.0
 11
48.6008
 21
37.5599
 31
0.0
  0
LINE
  8
0
 62
     0
 10
48.6008
 20
37.5599
 30
0.0
 11
48.3828
 21
37.2332
 31
0.0
  0
LINE
  8
0
 62
     0
 10
48.3828
 20
37.2332
 30
0.0
 11
47.6264
 21
36.7164
 31
0.0
  0
LINE
  8
0
 62
     0
 10
47.6264
 20
36.7164
 30
0.0
 11
46.7349
 21
36.0701
 31
0.0
  0
LINE
  8
0
 62
     0
 10
46.7349
 20
36.0701
 30
0.0
 11
46.1451
 21
35.3162
 31
0.0
  0
LINE
  8
0
 62
     0
 10
46.1451
 20
35.3162
 30
0.0
 11
45.8198
 21
34.3862
 31
0.0
  0
LINE
  8
0
 62
     0
 10
45.8198
 20
34.3862
 30
0.0
 11
45.7207
 21
33.2107
 31
0.0
  0
LINE
  8
0
 62
     0
 10
45.7207
 20
33.2107
 30
0.0
 11
45.6928
 21
32.4459
 31
0.0
  0
LINE
  8
0
 62
     0
 10
45.6928
 20
32.4459
 30
0.0
 11
45.562
 21
31.9098
 31
0.0
  0
LINE
  8
0
 62
     0
 10
45.562
 20
31.9098
 30
0.0
 11
45.2561
 21
31.4386
 31
0.0
  0
LINE
  8
0
 62
     0
 10
45.2561
 20
31.4386
 30
0.0
 11
44.7036
 21
30.8612
 31
0.0
  0
LINE
  8
0
 62
     0
 10
44.7036
 20
30.8612
 30
0.0
 11
43.9346
 21
29.9434
 31
0.0
  0
LINE
  8
0
 62
     0
 10
43.9346
 20
29.9434
 30
0.0
 11
43.688
 21
29.1772
 31
0.0
  0
LINE
  8
0
 62
     0
 10
43.688
 20
29.1772
 30
0.0
 11
43.6203
 21
28.7941
 31
0.0
  0
LINE
  8
0
 62
     0
 10
43.6203
 20
28.7941
 30
0.0
 11
43.3973
 21
28.3917
 31
0.0
  0
LINE
  8
0
 62
     0
 10
43.3973
 20
28.3917
 30
0.0
 11
42.9853
 21
27.926
 31
0.0
  0
LINE
  8
0
 62
     0
 10
42.9853
 20
27.926
 30
0.0
 11
42.3541
 21
27.3541
 31
0.0
  0
LINE
  8
0
 62
     0
 10
42.3541
 20
27.3541
 30
0.0
 11
41.7558
 21
26.8704
 31
0.0
  0
LINE
  8
0
 62
     0
 10
41.7558
 20
26.8704
 30
0.0
 11
41.1138
 21
26.3908
 31
0.0
  0
LINE
  8
0
 62
     0
 10
41.1138
 20
26.3908
 30
0.0
 11
40.5035
 21
25.9705
 31
0.0
  0
LINE
  8
0
 62
     0
 10
40.5035
 20
25.9705
 30
0.0
 11
40.0043
 21
25.6632
 31
0.0
  0
LINE
  8
0
 62
     0
 10
40.0043
 20
25.6632
 30
0.0
 11
38.989
 21
25.1065
 31
0.0
  0
LINE
  8
0
 62
     0
 10
38.989
 20
25.1065
 30
0.0
 11
39.8776
 21
25.2843
 31
0.0
  0
LINE
  8
0
 62
     0
 10
39.8776
 20
25.2843
 30
0.0
 11
41.4225
 21
25.7776
 31
0.0
  0
LINE
  8
0
 62
     0
 10
41.4225
 20
25.7776
 30
0.0
 11
42.8886
 21
26.6072
 31
0.0
  0
LINE
  8
0
 62
     0
 10
42.8886
 20
26.6072
 30
0.0
 11
44.2323
 21
27.7482
 31
0.0
  0
LINE
  8
0
 62
     0
 10
44.2323
 20
27.7482
 30
0.0
 11
45.4173
 21
29.1689
 31
0.0
  0
LINE
  8
0
 62
     0
 10
45.4173
 20
29.1689
 30
0.0
 11
46.2855
 21
30.2245
 31
0.0
  0
LINE
  8
0
 62
     0
 10
46.2855
 20
30.2245
 30
0.0
 11
47.2846
 21
31.185
 31
0.0
  0
LINE
  8
0
 62
     0
 10
47.2846
 20
31.185
 30
0.0
 11
48.157
 21
31.8327
 31
0.0
  0
LINE
  8
0
 62
     0
 10
48.157
 20
31.8327
 30
0.0
 11
48.6516
 21
31.9512
 31
0.0
  0
LINE
  8
0
 62
     0
 10
48.6516
 20
31.9512
 30
0.0
 11
48.6406
 21
31.7872
 31
0.0
  0
LINE
  8
0
 62
     0
 10
48.6406
 20
31.7872
 30
0.0
 11
48.5151
 21
31.4331
 31
0.0
  0
LINE
  8
0
 62
     0
 10
48.5151
 20
31.4331
 30
0.0
 11
48.2988
 21
30.9411
 31
0.0
  0
LINE
  8
0
 62
     0
 10
48.2988
 20
30.9411
 30
0.0
 11
48.0124
 21
30.3637
 31
0.0
  0
LINE
  8
0
 62
     0
 10
48.0124
 20
30.3637
 30
0.0
 11
47.5534
 21
29.3949
 31
0.0
  0
LINE
  8
0
 62
     0
 10
47.5534
 20
29.3949
 30
0.0
 11
47.2955
 21
28.6274
 31
0.0
  0
LINE
  8
0
 62
     0
 10
47.2955
 20
28.6274
 30
0.0
 11
47.2504
 21
28.1216
 31
0.0
  0
LINE
  8
0
 62
     0
 10
47.2504
 20
28.1216
 30
0.0
 11
47.4349
 21
27.9411
 31
0.0
  0
LINE
  8
0
 62
     0
 10
47.4349
 20
27.9411
 30
0.0
 11
47.7919
 21
28.0899
 31
0.0
  0
LINE
  8
0
 62
     0
 10
47.7919
 20
28.0899
 30
0.0
 11
48.3856
 21
28.4441
 31
0.0
  0
LINE
  8
0
 62
     0
 10
48.3856
 20
28.4441
 30
0.0
 11
48.8047
 21
28.7073
 31
0.0
  0
LINE
  8
0
 62
     0
 10
48.8047
 20
28.7073
 30
0.0
 11
49.0527
 21
28.8024
 31
0.0
  0
LINE
  8
0
 62
     0
 10
49.0527
 20
28.8024
 30
0.0
 11
49.1945
 21
28.7362
 31
0.0
  0
LINE
  8
0
 62
     0
 10
49.1945
 20
28.7362
 30
0.0
 11
49.2979
 21
28.5116
 31
0.0
  0
LINE
  8
0
 62
     0
 10
49.2979
 20
28.5116
 30
0.0
 11
49.3794
 21
28.4992
 31
0.0
  0
LINE
  8
0
 62
     0
 10
49.3794
 20
28.4992
 30
0.0
 11
49.4923
 21
28.7845
 31
0.0
  0
LINE
  8
0
 62
     0
 10
49.4923
 20
28.7845
 30
0.0
 11
49.6175
 21
29.3191
 31
0.0
  0
LINE
  8
0
 62
     0
 10
49.6175
 20
29.3191
 30
0.0
 11
49.7445
 21
30.0509
 31
0.0
  0
LINE
  8
0
 62
     0
 10
49.7445
 20
30.0509
 30
0.0
 11
50.0186
 21
33.7743
 31
0.0
  0
LINE
  8
0
 62
     0
 10
50.0186
 20
33.7743
 30
0.0
 11
49.6919
 21
37.2332
 31
0.0
  0
LINE
  8
0
 62
     0
 10
49.6919
 20
37.2332
 30
0.0
 11
48.7592
 21
40.4467
 31
0.0
  0
LINE
  8
0
 62
     0
 10
48.7592
 20
40.4467
 30
0.0
 11
47.2186
 21
43.4344
 31
0.0
  0
LINE
  8
0
 62
     0
 10
47.2186
 20
43.4344
 30
0.0
 11
46.6492
 21
44.3234
 31
0.0
  0
LINE
  8
0
 62
     0
 10
46.6492
 20
44.3234
 30
0.0
 11
47.7284
 21
43.3063
 31
0.0
  0
LINE
  8
0
 62
     0
 10
47.7284
 20
43.3063
 30
0.0
 11
48.7839
 21
41.9834
 31
0.0
  0
LINE
  8
0
 62
     0
 10
48.7839
 20
41.9834
 30
0.0
 11
49.8546
 21
40.101
 31
0.0
  0
LINE
  8
0
 62
     0
 10
49.8546
 20
40.101
 30
0.0
 11
50.7792
 21
37.9786
 31
0.0
  0
LINE
  8
0
 62
     0
 10
50.7792
 20
37.9786
 30
0.0
 11
51.3994
 21
35.9406
 31
0.0
  0
LINE
  8
0
 62
     0
 10
51.3994
 20
35.9406
 30
0.0
 11
51.9299
 21
28.6494
 31
0.0
  0
LINE
  8
0
 62
     0
 10
51.9299
 20
28.6494
 30
0.0
 11
50.4155
 21
20.9544
 31
0.0
  0
LINE
  8
0
 62
     0
 10
50.4155
 20
20.9544
 30
0.0
 11
50.4733
 21
20.8635
 31
0.0
  0
LINE
  8
0
 62
     0
 10
50.4733
 20
20.8635
 30
0.0
 11
50.8441
 21
21.3596
 31
0.0
  0
LINE
  8
0
 62
     0
 10
50.8441
 20
21.3596
 30
0.0
 11
52.1533
 21
23.0601
 31
0.0
  0
LINE
  8
0
 62
     0
 10
52.1533
 20
23.0601
 30
0.0
 11
53.8095
 21
24.7317
 31
0.0
  0
LINE
  8
0
 62
     0
 10
53.8095
 20
24.7317
 30
0.0
 11
55.6299
 21
26.2062
 31
0.0
  0
LINE
  8
0
 62
     0
 10
55.6299
 20
26.2062
 30
0.0
 11
57.4269
 21
27.3169
 31
0.0
  0
LINE
  8
0
 62
     0
 10
57.4269
 20
27.3169
 30
0.0
 11
58.4687
 21
27.8005
 31
0.0
  0
LINE
  8
0
 62
     0
 10
58.4687
 20
27.8005
 30
0.0
 11
58.9058
 21
27.8639
 31
0.0
  0
LINE
  8
0
 62
     0
 10
58.9058
 20
27.8639
 30
0.0
 11
58.7608
 21
27.4781
 31
0.0
  0
LINE
  8
0
 62
     0
 10
58.7608
 20
27.4781
 30
0.0
 11
58.0623
 21
26.6154
 31
0.0
  0
LINE
  8
0
 62
     0
 10
58.0623
 20
26.6154
 30
0.0
 11
57.4795
 21
25.8396
 31
0.0
  0
LINE
  8
0
 62
     0
 10
57.4795
 20
25.8396
 30
0.0
 11
56.7489
 21
24.7069
 31
0.0
  0
LINE
  8
0
 62
     0
 10
56.7489
 20
24.7069
 30
0.0
 11
55.9636
 21
23.3702
 31
0.0
  0
LINE
  8
0
 62
     0
 10
55.9636
 20
23.3702
 30
0.0
 11
55.2192
 21
21.9797
 31
0.0
  0
LINE
  8
0
 62
     0
 10
55.2192
 20
21.9797
 30
0.0
 11
53.9228
 21
19.5599
 31
0.0
  0
LINE
  8
0
 62
     0
 10
53.9228
 20
19.5599
 30
0.0
 11
52.8147
 21
17.8511
 31
0.0
  0
LINE
  8
0
 62
     0
 10
52.8147
 20
17.8511
 30
0.0
 11
51.671
 21
16.5599
 31
0.0
  0
LINE
  8
0
 62
     0
 10
51.671
 20
16.5599
 30
0.0
 11
50.2737
 21
15.3941
 31
0.0
  0
LINE
  8
0
 62
     0
 10
50.2737
 20
15.3941
 30
0.0
 11
49.5695
 21
14.9007
 31
0.0
  0
LINE
  8
0
 62
     0
 10
49.5695
 20
14.9007
 30
0.0
 11
48.7482
 21
14.3812
 31
0.0
  0
LINE
  8
0
 62
     0
 10
48.7482
 20
14.3812
 30
0.0
 11
47.873
 21
13.8672
 31
0.0
  0
LINE
  8
0
 62
     0
 10
47.873
 20
13.8672
 30
0.0
 11
47.0034
 21
13.3931
 31
0.0
  0
LINE
  8
0
 62
     0
 10
47.0034
 20
13.3931
 30
0.0
 11
46.2001
 21
12.9894
 31
0.0
  0
LINE
  8
0
 62
     0
 10
46.2001
 20
12.9894
 30
0.0
 11
45.5249
 21
12.6876
 31
0.0
  0
LINE
  8
0
 62
     0
 10
45.5249
 20
12.6876
 30
0.0
 11
45.0384
 21
12.5195
 31
0.0
  0
LINE
  8
0
 62
     0
 10
45.0384
 20
12.5195
 30
0.0
 11
44.8014
 21
12.5181
 31
0.0
  0
LINE
  8
0
 62
     0
 10
44.8014
 20
12.5181
 30
0.0
 11
44.8814
 21
12.7165
 31
0.0
  0
LINE
  8
0
 62
     0
 10
44.8814
 20
12.7165
 30
0.0
 11
45.2162
 21
13.141
 31
0.0
  0
LINE
  8
0
 62
     0
 10
45.2162
 20
13.141
 30
0.0
 11
45.7482
 21
13.7322
 31
0.0
  0
LINE
  8
0
 62
     0
 10
45.7482
 20
13.7322
 30
0.0
 11
46.4287
 21
14.4253
 31
0.0
  0
LINE
  8
0
 62
     0
 10
46.4287
 20
14.4253
 30
0.0
 11
47.1509
 21
15.1749
 31
0.0
  0
LINE
  8
0
 62
     0
 10
47.1509
 20
15.1749
 30
0.0
 11
47.8056
 21
15.9191
 31
0.0
  0
LINE
  8
0
 62
     0
 10
47.8056
 20
15.9191
 30
0.0
 11
48.3196
 21
16.5709
 31
0.0
  0
LINE
  8
0
 62
     0
 10
48.3196
 20
16.5709
 30
0.0
 11
48.6198
 21
17.0436
 31
0.0
  0
LINE
  8
0
 62
     0
 10
48.6198
 20
17.0436
 30
0.0
 11
48.8446
 21
17.5204
 31
0.0
  0
LINE
  8
0
 62
     0
 10
48.8446
 20
17.5204
 30
0.0
 11
48.9162
 21
17.7037
 31
0.0
  0
LINE
  8
0
 62
     0
 10
48.9162
 20
17.7037
 30
0.0
 11
48.8308
 21
17.6155
 31
0.0
  0
LINE
  8
0
 62
     0
 10
48.8308
 20
17.6155
 30
0.0
 11
48.5895
 21
17.2723
 31
0.0
  0
LINE
  8
0
 62
     0
 10
48.5895
 20
17.2723
 30
0.0
 11
48.1432
 21
16.6977
 31
0.0
  0
LINE
  8
0
 62
     0
 10
48.1432
 20
16.6977
 30
0.0
 11
47.5354
 21
16.0032
 31
0.0
  0
LINE
  8
0
 62
     0
 10
47.5354
 20
16.0032
 30
0.0
 11
46.8147
 21
15.2356
 31
0.0
  0
LINE
  8
0
 62
     0
 10
46.8147
 20
15.2356
 30
0.0
 11
46.0237
 21
14.4405
 31
0.0
  0
LINE
  8
0
 62
     0
 10
46.0237
 20
14.4405
 30
0.0
 11
45.2106
 21
13.6646
 31
0.0
  0
LINE
  8
0
 62
     0
 10
45.2106
 20
13.6646
 30
0.0
 11
44.4225
 21
12.9494
 31
0.0
  0
LINE
  8
0
 62
     0
 10
44.4225
 20
12.9494
 30
0.0
 11
43.7032
 21
12.3431
 31
0.0
  0
LINE
  8
0
 62
     0
 10
43.7032
 20
12.3431
 30
0.0
 11
43.101
 21
11.8897
 31
0.0
  0
LINE
  8
0
 62
     0
 10
43.101
 20
11.8897
 30
0.0
 11
41.8705
 21
11.1263
 31
0.0
  0
LINE
  8
0
 62
     0
 10
41.8705
 20
11.1263
 30
0.0
 11
40.4827
 21
10.389
 31
0.0
  0
LINE
  8
0
 62
     0
 10
40.4827
 20
10.389
 30
0.0
 11
39.0317
 21
9.71102
 31
0.0
  0
LINE
  8
0
 62
     0
 10
39.0317
 20
9.71102
 30
0.0
 11
37.6107
 21
9.13088
 31
0.0
  0
LINE
  8
0
 62
     0
 10
37.6107
 20
9.13088
 30
0.0
 11
36.3167
 21
8.68303
 31
0.0
  0
LINE
  8
0
 62
     0
 10
36.3167
 20
8.68303
 30
0.0
 11
35.2419
 21
8.40465
 31
0.0
  0
LINE
  8
0
 62
     0
 10
35.2419
 20
8.40465
 30
0.0
 11
34.4827
 21
8.33025
 31
0.0
  0
LINE
  8
0
 62
     0
 10
34.4827
 20
8.33025
 30
0.0
 11
34.134
 21
8.49422
 31
0.0
  0
LINE
  8
0
 62
     0
 10
34.134
 20
8.49422
 30
0.0
 11
34.1643
 21
8.79464
 31
0.0
  0
LINE
  8
0
 62
     0
 10
34.1643
 20
8.79464
 30
0.0
 11
34.3476
 21
9.35824
 31
0.0
  0
LINE
  8
0
 62
     0
 10
34.3476
 20
9.35824
 30
0.0
 11
34.6522
 21
10.1065
 31
0.0
  0
LINE
  8
0
 62
     0
 10
34.6522
 20
10.1065
 30
0.0
 11
35.0477
 21
10.9582
 31
0.0
  0
LINE
  8
0
 62
     0
 10
35.0477
 20
10.9582
 30
0.0
 11
35.4129
 21
11.7326
 31
0.0
  0
LINE
  8
0
 62
     0
 10
35.4129
 20
11.7326
 30
0.0
 11
35.6362
 21
12.2714
 31
0.0
  0
LINE
  8
0
 62
     0
 10
35.6362
 20
12.2714
 30
0.0
 11
35.6993
 21
12.525
 31
0.0
  0
LINE
  8
0
 62
     0
 10
35.6993
 20
12.525
 30
0.0
 11
35.585
 21
12.445
 31
0.0
  0
LINE
  8
0
 62
     0
 10
35.585
 20
12.445
 30
0.0
 11
35.0159
 21
11.5838
 31
0.0
  0
LINE
  8
0
 62
     0
 10
35.0159
 20
11.5838
 30
0.0
 11
34.3834
 21
10.3918
 31
0.0
  0
LINE
  8
0
 62
     0
 10
34.3834
 20
10.3918
 30
0.0
 11
33.7964
 21
9.09645
 31
0.0
  0
LINE
  8
0
 62
     0
 10
33.7964
 20
9.09645
 30
0.0
 11
33.3678
 21
7.92508
 31
0.0
  0
LINE
  8
0
 62
     0
 10
33.3678
 20
7.92508
 30
0.0
 11
33.0371
 21
6.83507
 31
0.0
  0
LINE
  8
0
 62
     0
 10
33.0371
 20
6.83507
 30
0.0
 11
33.671
 21
7.33256
 31
0.0
  0
LINE
  8
0
 62
     0
 10
33.671
 20
7.33256
 30
0.0
 11
34.3834
 21
7.71701
 31
0.0
  0
LINE
  8
0
 62
     0
 10
34.3834
 20
7.71701
 30
0.0
 11
35.2764
 21
7.98435
 31
0.0
  0
LINE
  8
0
 62
     0
 10
35.2764
 20
7.98435
 30
0.0
 11
36.0976
 21
8.08083
 31
0.0
  0
LINE
  8
0
 62
     0
 10
36.0976
 20
8.08083
 30
0.0
 11
36.5979
 21
7.95267
 31
0.0
  0
LINE
  8
0
 62
     0
 10
36.5979
 20
7.95267
 30
0.0
 11
36.6737
 21
7.55579
 31
0.0
  0
LINE
  8
0
 62
     0
 10
36.6737
 20
7.55579
 30
0.0
 11
36.5097
 21
6.88605
 31
0.0
  0
LINE
  8
0
 62
     0
 10
36.5097
 20
6.88605
 30
0.0
 11
36.3622
 21
6.37342
 31
0.0
  0
LINE
  8
0
 62
     0
 10
36.3622
 20
6.37342
 30
0.0
 11
36.4035
 21
5.86906
 31
0.0
  0
LINE
  8
0
 62
     0
 10
36.4035
 20
5.86906
 30
0.0
 11
36.6931
 21
5.15525
 31
0.0
  0
LINE
  8
0
 62
     0
 10
36.6931
 20
5.15525
 30
0.0
 11
37.2897
 21
4.01147
 31
0.0
  0
LINE
  8
0
 62
     0
 10
37.2897
 20
4.01147
 30
0.0
 11
37.7031
 21
3.21221
 31
0.0
  0
LINE
  8
0
 62
     0
 10
37.7031
 20
3.21221
 30
0.0
 11
38.0227
 21
2.53559
 31
0.0
  0
LINE
  8
0
 62
     0
 10
38.0227
 20
2.53559
 30
0.0
 11
38.2157
 21
2.05741
 31
0.0
  0
LINE
  8
0
 62
     0
 10
38.2157
 20
2.05741
 30
0.0
 11
38.2517
 21
1.84519
 31
0.0
  0
LINE
  8
0
 62
     0
 10
38.2517
 20
1.84519
 30
0.0
 11
37.8753
 21
1.86586
 31
0.0
  0
LINE
  8
0
 62
     0
 10
37.8753
 20
1.86586
 30
0.0
 11
37.1574
 21
2.09875
 31
0.0
  0
LINE
  8
0
 62
     0
 10
37.1574
 20
2.09875
 30
0.0
 11
36.1996
 21
2.44602
 31
0.0
  0
LINE
  8
0
 62
     0
 10
36.1996
 20
2.44602
 30
0.0
 11
35.2516
 21
2.7423
 31
0.0
  0
LINE
  8
0
 62
     0
 10
35.2516
 20
2.7423
 30
0.0
 11
34.309
 21
3.00137
 31
0.0
  0
LINE
  8
0
 62
     0
 10
34.309
 20
3.00137
 30
0.0
 11
34.8534
 21
2.2655
 31
0.0
  0
LINE
  8
0
 62
     0
 10
34.8534
 20
2.2655
 30
0.0
 11
35.191
 21
1.70188
 31
0.0
  0
LINE
  8
0
 62
     0
 10
35.191
 20
1.70188
 30
0.0
 11
35.2419
 21
1.37528
 31
0.0
  0
LINE
  8
0
 62
     0
 10
35.2419
 20
1.37528
 30
0.0
 11
34.7114
 21
1.42351
 31
0.0
  0
LINE
  8
0
 62
     0
 10
34.7114
 20
1.42351
 30
0.0
 11
33.6544
 21
1.757
 31
0.0
  0
LINE
  8
0
 62
     0
 10
33.6544
 20
1.757
 30
0.0
 11
32.7546
 21
2.05466
 31
0.0
  0
LINE
  8
0
 62
     0
 10
32.7546
 20
2.05466
 30
0.0
 11
32.1662
 21
2.14423
 31
0.0
  0
LINE
  8
0
 62
     0
 10
32.1662
 20
2.14423
 30
0.0
 11
31.8464
 21
2.02709
 31
0.0
  0
LINE
  8
0
 62
     0
 10
31.8464
 20
2.02709
 30
0.0
 11
31.75
 21
1.69912
 31
0.0
  0
LINE
  8
0
 62
     0
 10
31.75
 20
1.69912
 30
0.0
 11
31.4882
 21
1.27744
 31
0.0
  0
LINE
  8
0
 62
     0
 10
31.4882
 20
1.27744
 30
0.0
 11
30.8612
 21
0.687641
 31
0.0
  0
LINE
  8
0
 62
     0
 10
30.8612
 20
0.687641
 30
0.0
 11
29.9723
 21
-0.0220486
 31
0.0
  0
LINE
  8
0
 62
     0
 10
29.9723
 20
-0.0220486
 30
0.0
 11
29.9682
 21
0.814419
 31
0.0
  0
LINE
  8
0
 62
     0
 10
32.2089
 20
11.4928
 30
0.0
 11
32.1303
 21
12.5732
 31
0.0
  0
LINE
  8
0
 62
     0
 10
32.1303
 20
12.5732
 30
0.0
 11
31.5268
 21
11.6003
 31
0.0
  0
LINE
  8
0
 62
     0
 10
31.5268
 20
11.6003
 30
0.0
 11
30.9218
 21
10.6274
 31
0.0
  0
LINE
  8
0
 62
     0
 10
30.9218
 20
10.6274
 30
0.0
 11
31.4634
 21
9.8957
 31
0.0
  0
LINE
  8
0
 62
     0
 10
31.4634
 20
9.8957
 30
0.0
 11
31.8575
 21
9.24662
 31
0.0
  0
LINE
  8
0
 62
     0
 10
31.8575
 20
9.24662
 30
0.0
 11
32.0491
 21
8.7092
 31
0.0
  0
LINE
  8
0
 62
     0
 10
32.0491
 20
8.7092
 30
0.0
 11
32.1207
 21
8.62101
 31
0.0
  0
LINE
  8
0
 62
     0
 10
32.1207
 20
8.62101
 30
0.0
 11
32.1896
 21
9.37066
 31
0.0
  0
LINE
  8
0
 62
     0
 10
32.1896
 20
9.37066
 30
0.0
 11
32.2282
 21
10.4855
 31
0.0
  0
LINE
  8
0
 62
     0
 10
32.2282
 20
10.4855
 30
0.0
 11
32.2089
 21
11.4928
 31
0.0
  0
LINE
  8
0
 62
     0
 10
27.7137
 20
9.97977
 30
0.0
 11
28.0527
 21
10.3312
 31
0.0
  0
LINE
  8
0
 62
     0
 10
28.0527
 20
10.3312
 30
0.0
 11
28.1947
 21
10.5365
 31
0.0
  0
LINE
  8
0
 62
     0
 10
28.1947
 20
10.5365
 30
0.0
 11
28.0265
 21
10.9086
 31
0.0
  0
LINE
  8
0
 62
     0
 10
28.0265
 20
10.9086
 30
0.0
 11
27.6503
 21
11.5576
 31
0.0
  0
LINE
  8
0
 62
     0
 10
27.6503
 20
11.5576
 30
0.0
 11
27.2535
 21
12.1722
 31
0.0
  0
LINE
  8
0
 62
     0
 10
27.2535
 20
12.1722
 30
0.0
 11
27.0261
 21
12.445
 31
0.0
  0
LINE
  8
0
 62
     0
 10
27.0261
 20
12.445
 30
0.0
 11
26.9627
 21
11.8677
 31
0.0
  0
LINE
  8
0
 62
     0
 10
26.9627
 20
11.8677
 30
0.0
 11
26.953
 21
10.4772
 31
0.0
  0
LINE
  8
0
 62
     0
 10
26.953
 20
10.4772
 30
0.0
 11
26.9737
 21
9.75374
 31
0.0
  0
LINE
  8
0
 62
     0
 10
26.9737
 20
9.75374
 30
0.0
 11
27.0095
 21
9.23699
 31
0.0
  0
LINE
  8
0
 62
     0
 10
27.0095
 20
9.23699
 30
0.0
 11
27.0564
 21
8.97516
 31
0.0
  0
LINE
  8
0
 62
     0
 10
27.0564
 20
8.97516
 30
0.0
 11
27.1074
 21
9.01651
 31
0.0
  0
LINE
  8
0
 62
     0
 10
27.1074
 20
9.01651
 30
0.0
 11
27.3361
 21
9.50983
 31
0.0
  0
LINE
  8
0
 62
     0
 10
27.3361
 20
9.50983
 30
0.0
 11
27.7137
 21
9.97977
 31
0.0
  0
LINE
  8
0
 62
     0
 10
29.9324
 20
11.096
 30
0.0
 11
29.6209
 21
11.3261
 31
0.0
  0
LINE
  8
0
 62
     0
 10
29.6209
 20
11.3261
 30
0.0
 11
29.264
 21
11.0849
 31
0.0
  0
LINE
  8
0
 62
     0
 10
29.264
 20
11.0849
 30
0.0
 11
29.0215
 21
10.6426
 31
0.0
  0
LINE
  8
0
 62
     0
 10
29.0215
 20
10.6426
 30
0.0
 11
29.2337
 21
9.94392
 31
0.0
  0
LINE
  8
0
 62
     0
 10
29.2337
 20
9.94392
 30
0.0
 11
29.5741
 21
9.17497
 31
0.0
  0
LINE
  8
0
 62
     0
 10
29.5741
 20
9.17497
 30
0.0
 11
29.902
 21
9.95634
 31
0.0
  0
LINE
  8
0
 62
     0
 10
29.902
 20
9.95634
 30
0.0
 11
30.0964
 21
10.6481
 31
0.0
  0
LINE
  8
0
 62
     0
 10
30.0964
 20
10.6481
 30
0.0
 11
29.9324
 21
11.096
 31
0.0
  0
LINE
  8
0
 62
     0
 10
38.3603
 20
14.0822
 30
0.0
 11
43.192
 21
17.2324
 31
0.0
  0
LINE
  8
0
 62
     0
 10
43.192
 20
17.2324
 30
0.0
 11
46.8133
 21
21.3362
 31
0.0
  0
LINE
  8
0
 62
     0
 10
46.8133
 20
21.3362
 30
0.0
 11
47.1181
 21
21.8557
 31
0.0
  0
LINE
  8
0
 62
     0
 10
47.1181
 20
21.8557
 30
0.0
 11
47.468
 21
22.5406
 31
0.0
  0
LINE
  8
0
 62
     0
 10
47.468
 20
22.5406
 30
0.0
 11
47.8345
 21
23.3274
 31
0.0
  0
LINE
  8
0
 62
     0
 10
47.8345
 20
23.3274
 30
0.0
 11
48.1926
 21
24.157
 31
0.0
  0
LINE
  8
0
 62
     0
 10
48.1926
 20
24.157
 30
0.0
 11
48.5165
 21
24.9645
 31
0.0
  0
LINE
  8
0
 62
     0
 10
48.5165
 20
24.9645
 30
0.0
 11
48.7796
 21
25.6894
 31
0.0
  0
LINE
  8
0
 62
     0
 10
48.7796
 20
25.6894
 30
0.0
 11
48.956
 21
26.2682
 31
0.0
  0
LINE
  8
0
 62
     0
 10
48.956
 20
26.2682
 30
0.0
 11
49.0224
 21
26.6375
 31
0.0
  0
LINE
  8
0
 62
     0
 10
49.0224
 20
26.6375
 30
0.0
 11
48.799
 21
26.3798
 31
0.0
  0
LINE
  8
0
 62
     0
 10
48.799
 20
26.3798
 30
0.0
 11
48.2632
 21
25.5736
 31
0.0
  0
LINE
  8
0
 62
     0
 10
48.2632
 20
25.5736
 30
0.0
 11
47.4708
 21
24.5952
 31
0.0
  0
LINE
  8
0
 62
     0
 10
47.4708
 20
24.5952
 30
0.0
 11
46.4249
 21
23.7229
 31
0.0
  0
LINE
  8
0
 62
     0
 10
46.4249
 20
23.7229
 30
0.0
 11
45.1901
 21
22.9995
 31
0.0
  0
LINE
  8
0
 62
     0
 10
45.1901
 20
22.9995
 30
0.0
 11
43.8326
 21
22.4703
 31
0.0
  0
LINE
  8
0
 62
     0
 10
43.8326
 20
22.4703
 30
0.0
 11
42.2589
 21
22.1699
 31
0.0
  0
LINE
  8
0
 62
     0
 10
42.2589
 20
22.1699
 30
0.0
 11
40.5335
 21
22.0955
 31
0.0
  0
LINE
  8
0
 62
     0
 10
40.5335
 20
22.0955
 30
0.0
 11
38.9283
 21
22.2429
 31
0.0
  0
LINE
  8
0
 62
     0
 10
38.9283
 20
22.2429
 30
0.0
 11
37.7197
 21
22.6053
 31
0.0
  0
LINE
  8
0
 62
     0
 10
37.7197
 20
22.6053
 30
0.0
 11
37.0388
 21
22.9512
 31
0.0
  0
LINE
  8
0
 62
     0
 10
37.0388
 20
22.9512
 30
0.0
 11
36.7249
 21
23.0697
 31
0.0
  0
LINE
  8
0
 62
     0
 10
36.7249
 20
23.0697
 30
0.0
 11
36.6656
 21
22.9664
 31
0.0
  0
LINE
  8
0
 62
     0
 10
36.6656
 20
22.9664
 30
0.0
 11
36.7467
 21
22.6439
 31
0.0
  0
LINE
  8
0
 62
     0
 10
36.7467
 20
22.6439
 30
0.0
 11
36.5689
 21
21.9866
 31
0.0
  0
LINE
  8
0
 62
     0
 10
36.5689
 20
21.9866
 30
0.0
 11
35.833
 21
20.9779
 31
0.0
  0
LINE
  8
0
 62
     0
 10
35.833
 20
20.9779
 30
0.0
 11
35.4309
 21
20.49
 31
0.0
  0
LINE
  8
0
 62
     0
 10
35.4309
 20
20.49
 30
0.0
 11
35.1014
 21
20.0463
 31
0.0
  0
LINE
  8
0
 62
     0
 10
35.1014
 20
20.0463
 30
0.0
 11
34.8795
 21
19.6949
 31
0.0
  0
LINE
  8
0
 62
     0
 10
34.8795
 20
19.6949
 30
0.0
 11
34.7982
 21
19.4841
 31
0.0
  0
LINE
  8
0
 62
     0
 10
34.7982
 20
19.4841
 30
0.0
 11
35.0284
 21
19.5557
 31
0.0
  0
LINE
  8
0
 62
     0
 10
35.0284
 20
19.5557
 30
0.0
 11
35.5822
 21
20.14
 31
0.0
  0
LINE
  8
0
 62
     0
 10
35.5822
 20
20.14
 30
0.0
 11
36.2574
 21
20.8263
 31
0.0
  0
LINE
  8
0
 62
     0
 10
36.2574
 20
20.8263
 30
0.0
 11
36.9962
 21
21.3968
 31
0.0
  0
LINE
  8
0
 62
     0
 10
36.9962
 20
21.3968
 30
0.0
 11
37.5998
 21
21.7193
 31
0.0
  0
LINE
  8
0
 62
     0
 10
37.5998
 20
21.7193
 30
0.0
 11
37.87
 21
21.66
 31
0.0
  0
LINE
  8
0
 62
     0
 10
37.87
 20
21.66
 30
0.0
 11
37.8975
 21
21.2976
 31
0.0
  0
LINE
  8
0
 62
     0
 10
37.8975
 20
21.2976
 30
0.0
 11
37.9331
 21
20.7009
 31
0.0
  0
LINE
  8
0
 62
     0
 10
37.9331
 20
20.7009
 30
0.0
 11
37.9829
 21
20.2723
 31
0.0
  0
LINE
  8
0
 62
     0
 10
37.9829
 20
20.2723
 30
0.0
 11
38.1512
 21
20.0353
 31
0.0
  0
LINE
  8
0
 62
     0
 10
38.1512
 20
20.0353
 30
0.0
 11
38.548
 21
19.9223
 31
0.0
  0
LINE
  8
0
 62
     0
 10
38.548
 20
19.9223
 30
0.0
 11
39.2864
 21
19.863
 31
0.0
  0
LINE
  8
0
 62
     0
 10
39.2864
 20
19.863
 30
0.0
 11
40.7349
 21
19.9595
 31
0.0
  0
LINE
  8
0
 62
     0
 10
40.7349
 20
19.9595
 30
0.0
 11
42.4614
 21
20.4115
 31
0.0
  0
LINE
  8
0
 62
     0
 10
42.4614
 20
20.4115
 30
0.0
 11
43.192
 21
20.6458
 31
0.0
  0
LINE
  8
0
 62
     0
 10
43.192
 20
20.6458
 30
0.0
 11
43.8079
 21
20.8208
 31
0.0
  0
LINE
  8
0
 62
     0
 10
43.8079
 20
20.8208
 30
0.0
 11
44.2433
 21
20.9214
 31
0.0
  0
LINE
  8
0
 62
     0
 10
44.2433
 20
20.9214
 30
0.0
 11
44.4348
 21
20.9269
 31
0.0
  0
LINE
  8
0
 62
     0
 10
44.4348
 20
20.9269
 30
0.0
 11
44.3893
 21
20.7946
 31
0.0
  0
LINE
  8
0
 62
     0
 10
44.3893
 20
20.7946
 30
0.0
 11
44.184
 21
20.5163
 31
0.0
  0
LINE
  8
0
 62
     0
 10
44.184
 20
20.5163
 30
0.0
 11
43.8535
 21
20.1304
 31
0.0
  0
LINE
  8
0
 62
     0
 10
43.8535
 20
20.1304
 30
0.0
 11
43.4287
 21
19.6798
 31
0.0
  0
LINE
  8
0
 62
     0
 10
43.4287
 20
19.6798
 30
0.0
 11
42.3912
 21
18.795
 31
0.0
  0
LINE
  8
0
 62
     0
 10
42.3912
 20
18.795
 30
0.0
 11
41.5562
 21
18.5415
 31
0.0
  0
LINE
  8
0
 62
     0
 10
41.5562
 20
18.5415
 30
0.0
 11
40.779
 21
18.4037
 31
0.0
  0
LINE
  8
0
 62
     0
 10
40.779
 20
18.4037
 30
0.0
 11
39.8279
 21
18.0592
 31
0.0
  0
LINE
  8
0
 62
     0
 10
39.8279
 20
18.0592
 30
0.0
 11
38.9449
 21
17.6113
 31
0.0
  0
LINE
  8
0
 62
     0
 10
38.9449
 20
17.6113
 30
0.0
 11
38.3702
 21
17.1649
 31
0.0
  0
LINE
  8
0
 62
     0
 10
38.3702
 20
17.1649
 30
0.0
 11
38.2834
 21
17.0077
 31
0.0
  0
LINE
  8
0
 62
     0
 10
38.2834
 20
17.0077
 30
0.0
 11
38.4059
 21
16.954
 31
0.0
  0
LINE
  8
0
 62
     0
 10
38.4059
 20
16.954
 30
0.0
 11
38.7847
 21
17.0009
 31
0.0
  0
LINE
  8
0
 62
     0
 10
38.7847
 20
17.0009
 30
0.0
 11
39.4727
 21
17.1497
 31
0.0
  0
LINE
  8
0
 62
     0
 10
39.4727
 20
17.1497
 30
0.0
 11
40.5268
 21
17.4267
 31
0.0
  0
LINE
  8
0
 62
     0
 10
40.5268
 20
17.4267
 30
0.0
 11
41.1275
 21
17.6403
 31
0.0
  0
LINE
  8
0
 62
     0
 10
41.1275
 20
17.6403
 30
0.0
 11
41.3205
 21
17.6954
 31
0.0
  0
LINE
  8
0
 62
     0
 10
41.3205
 20
17.6954
 30
0.0
 11
41.4016
 21
17.5852
 31
0.0
  0
LINE
  8
0
 62
     0
 10
41.4016
 20
17.5852
 30
0.0
 11
41.2365
 21
17.2737
 31
0.0
  0
LINE
  8
0
 62
     0
 10
41.2365
 20
17.2737
 30
0.0
 11
40.8189
 21
16.8383
 31
0.0
  0
LINE
  8
0
 62
     0
 10
40.8189
 20
16.8383
 30
0.0
 11
40.265
 21
16.3876
 31
0.0
  0
LINE
  8
0
 62
     0
 10
40.265
 20
16.3876
 30
0.0
 11
39.6875
 21
16.0252
 31
0.0
  0
LINE
  8
0
 62
     0
 10
39.6875
 20
16.0252
 30
0.0
 11
39.2769
 21
15.6545
 31
0.0
  0
LINE
  8
0
 62
     0
 10
39.2769
 20
15.6545
 30
0.0
 11
39.1086
 21
15.1667
 31
0.0
  0
LINE
  8
0
 62
     0
 10
39.1086
 20
15.1667
 30
0.0
 11
39.0342
 21
14.8649
 31
0.0
  0
LINE
  8
0
 62
     0
 10
39.0342
 20
14.8649
 30
0.0
 11
38.7946
 21
14.581
 31
0.0
  0
LINE
  8
0
 62
     0
 10
38.7946
 20
14.581
 30
0.0
 11
38.3466
 21
14.2806
 31
0.0
  0
LINE
  8
0
 62
     0
 10
38.3466
 20
14.2806
 30
0.0
 11
37.6481
 21
13.9278
 31
0.0
  0
LINE
  8
0
 62
     0
 10
37.6481
 20
13.9278
 30
0.0
 11
37.0981
 21
13.6633
 31
0.0
  0
LINE
  8
0
 62
     0
 10
37.0981
 20
13.6633
 30
0.0
 11
36.6794
 21
13.4428
 31
0.0
  0
LINE
  8
0
 62
     0
 10
36.6794
 20
13.4428
 30
0.0
 11
36.4299
 21
13.2912
 31
0.0
  0
LINE
  8
0
 62
     0
 10
36.4299
 20
13.2912
 30
0.0
 11
36.3926
 21
13.2292
 31
0.0
  0
LINE
  8
0
 62
     0
 10
36.3926
 20
13.2292
 30
0.0
 11
36.6088
 21
13.2898
 31
0.0
  0
LINE
  8
0
 62
     0
 10
36.6088
 20
13.2898
 30
0.0
 11
37.0512
 21
13.4717
 31
0.0
  0
LINE
  8
0
 62
     0
 10
37.0512
 20
13.4717
 30
0.0
 11
37.6562
 21
13.7445
 31
0.0
  0
LINE
  8
0
 62
     0
 10
37.6562
 20
13.7445
 30
0.0
 11
38.3603
 21
14.0822
 31
0.0
  0
LINE
  8
0
 62
     0
 10
22.3518
 20
13.6012
 30
0.0
 11
22.0872
 21
13.8079
 31
0.0
  0
LINE
  8
0
 62
     0
 10
22.0872
 20
13.8079
 30
0.0
 11
21.4836
 21
14.1015
 31
0.0
  0
LINE
  8
0
 62
     0
 10
21.4836
 20
14.1015
 30
0.0
 11
20.8235
 21
14.3605
 31
0.0
  0
LINE
  8
0
 62
     0
 10
20.8235
 20
14.3605
 30
0.0
 11
20.3922
 21
14.457
 31
0.0
  0
LINE
  8
0
 62
     0
 10
20.3922
 20
14.457
 30
0.0
 11
20.5493
 21
14.3013
 31
0.0
  0
LINE
  8
0
 62
     0
 10
20.5493
 20
14.3013
 30
0.0
 11
21.2094
 21
13.9554
 31
0.0
  0
LINE
  8
0
 62
     0
 10
21.2094
 20
13.9554
 30
0.0
 11
21.875
 21
13.644
 31
0.0
  0
LINE
  8
0
 62
     0
 10
21.875
 20
13.644
 30
0.0
 11
22.2126
 21
13.5034
 31
0.0
  0
LINE
  8
0
 62
     0
 10
22.2126
 20
13.5034
 30
0.0
 11
22.3352
 21
13.5006
 31
0.0
  0
LINE
  8
0
 62
     0
 10
22.3352
 20
13.5006
 30
0.0
 11
22.3518
 21
13.6012
 31
0.0
  0
LINE
  8
0
 62
     0
 10
30.7537
 20
14.519
 30
0.0
 11
31.4165
 21
15.0234
 31
0.0
  0
LINE
  8
0
 62
     0
 10
31.4165
 20
15.0234
 30
0.0
 11
31.9774
 21
15.6862
 31
0.0
  0
LINE
  8
0
 62
     0
 10
31.9774
 20
15.6862
 30
0.0
 11
32.366
 21
16.4083
 31
0.0
  0
LINE
  8
0
 62
     0
 10
32.366
 20
16.4083
 30
0.0
 11
32.5121
 21
17.0849
 31
0.0
  0
LINE
  8
0
 62
     0
 10
32.5121
 20
17.0849
 30
0.0
 11
32.2916
 21
17.6237
 31
0.0
  0
LINE
  8
0
 62
     0
 10
32.2916
 20
17.6237
 30
0.0
 11
31.7638
 21
18.3968
 31
0.0
  0
LINE
  8
0
 62
     0
 10
31.7638
 20
18.3968
 30
0.0
 11
31.3173
 21
19.0238
 31
0.0
  0
LINE
  8
0
 62
     0
 10
31.3173
 20
19.0238
 30
0.0
 11
30.9645
 21
19.6839
 31
0.0
  0
LINE
  8
0
 62
     0
 10
30.9645
 20
19.6839
 30
0.0
 11
30.6669
 21
20.4666
 31
0.0
  0
LINE
  8
0
 62
     0
 10
30.6669
 20
20.4666
 30
0.0
 11
30.383
 21
21.4629
 31
0.0
  0
LINE
  8
0
 62
     0
 10
30.383
 20
21.4629
 30
0.0
 11
30.3361
 21
21.5167
 31
0.0
  0
LINE
  8
0
 62
     0
 10
30.3361
 20
21.5167
 30
0.0
 11
30.3072
 21
21.2824
 31
0.0
  0
LINE
  8
0
 62
     0
 10
30.3072
 20
21.2824
 30
0.0
 11
30.2975
 21
20.8084
 31
0.0
  0
LINE
  8
0
 62
     0
 10
30.2975
 20
20.8084
 30
0.0
 11
30.31
 21
20.1345
 31
0.0
  0
LINE
  8
0
 62
     0
 10
30.31
 20
20.1345
 30
0.0
 11
30.3596
 21
19.214
 31
0.0
  0
LINE
  8
0
 62
     0
 10
30.3596
 20
19.214
 30
0.0
 11
30.4533
 21
18.5966
 31
0.0
  0
LINE
  8
0
 62
     0
 10
30.4533
 20
18.5966
 30
0.0
 11
30.6104
 21
18.2011
 31
0.0
  0
LINE
  8
0
 62
     0
 10
30.6104
 20
18.2011
 30
0.0
 11
30.8515
 21
17.9462
 31
0.0
  0
LINE
  8
0
 62
     0
 10
30.8515
 20
17.9462
 30
0.0
 11
31.1078
 21
17.734
 31
0.0
  0
LINE
  8
0
 62
     0
 10
31.1078
 20
17.734
 30
0.0
 11
31.174
 21
17.5507
 31
0.0
  0
LINE
  8
0
 62
     0
 10
31.174
 20
17.5507
 30
0.0
 11
31.0307
 21
17.3095
 31
0.0
  0
LINE
  8
0
 62
     0
 10
31.0307
 20
17.3095
 30
0.0
 11
30.6641
 21
16.9251
 31
0.0
  0
LINE
  8
0
 62
     0
 10
30.6641
 20
16.9251
 30
0.0
 11
30.055
 21
16.4483
 31
0.0
  0
LINE
  8
0
 62
     0
 10
30.055
 20
16.4483
 30
0.0
 11
29.4955
 21
16.2898
 31
0.0
  0
LINE
  8
0
 62
     0
 10
29.4955
 20
16.2898
 30
0.0
 11
28.9691
 21
16.451
 31
0.0
  0
LINE
  8
0
 62
     0
 10
28.9691
 20
16.451
 30
0.0
 11
28.462
 21
16.9306
 31
0.0
  0
LINE
  8
0
 62
     0
 10
28.462
 20
16.9306
 30
0.0
 11
28.1781
 21
17.315
 31
0.0
  0
LINE
  8
0
 62
     0
 10
28.1781
 20
17.315
 30
0.0
 11
28.072
 21
17.5755
 31
0.0
  0
LINE
  8
0
 62
     0
 10
28.072
 20
17.5755
 30
0.0
 11
28.1354
 21
17.8001
 31
0.0
  0
LINE
  8
0
 62
     0
 10
28.1354
 20
17.8001
 30
0.0
 11
28.36
 21
18.0771
 31
0.0
  0
LINE
  8
0
 62
     0
 10
28.36
 20
18.0771
 30
0.0
 11
28.6963
 21
18.813
 31
0.0
  0
LINE
  8
0
 62
     0
 10
28.6963
 20
18.813
 30
0.0
 11
28.8727
 21
20.0063
 31
0.0
  0
LINE
  8
0
 62
     0
 10
28.8727
 20
20.0063
 30
0.0
 11
28.9581
 21
21.4629
 31
0.0
  0
LINE
  8
0
 62
     0
 10
28.9581
 20
21.4629
 30
0.0
 11
28.5681
 21
20.4473
 31
0.0
  0
LINE
  8
0
 62
     0
 10
28.5681
 20
20.4473
 30
0.0
 11
28.0693
 21
19.4538
 31
0.0
  0
LINE
  8
0
 62
     0
 10
28.0693
 20
19.4538
 30
0.0
 11
27.423
 21
18.4933
 31
0.0
  0
LINE
  8
0
 62
     0
 10
27.423
 20
18.4933
 30
0.0
 11
26.8911
 21
17.6954
 31
0.0
  0
LINE
  8
0
 62
     0
 10
26.8911
 20
17.6954
 30
0.0
 11
26.6706
 21
17.0918
 31
0.0
  0
LINE
  8
0
 62
     0
 10
26.6706
 20
17.0918
 30
0.0
 11
26.8263
 21
16.3917
 31
0.0
  0
LINE
  8
0
 62
     0
 10
26.8263
 20
16.3917
 30
0.0
 11
27.2355
 21
15.6283
 31
0.0
  0
LINE
  8
0
 62
     0
 10
27.2355
 20
15.6283
 30
0.0
 11
27.8102
 21
14.9324
 31
0.0
  0
LINE
  8
0
 62
     0
 10
27.8102
 20
14.9324
 30
0.0
 11
28.4634
 21
14.4336
 31
0.0
  0
LINE
  8
0
 62
     0
 10
28.4634
 20
14.4336
 30
0.0
 11
29.111
 21
14.1097
 31
0.0
  0
LINE
  8
0
 62
     0
 10
29.111
 20
14.1097
 30
0.0
 11
29.5699
 21
14.0091
 31
0.0
  0
LINE
  8
0
 62
     0
 10
29.5699
 20
14.0091
 30
0.0
 11
30.0481
 21
14.1442
 31
0.0
  0
LINE
  8
0
 62
     0
 10
30.0481
 20
14.1442
 30
0.0
 11
30.7537
 21
14.519
 31
0.0
  0
LINE
  8
0
 62
     0
 10
19.9692
 20
15.3376
 30
0.0
 11
19.706
 21
15.8323
 31
0.0
  0
LINE
  8
0
 62
     0
 10
19.706
 20
15.8323
 30
0.0
 11
19.2953
 21
16.1313
 31
0.0
  0
LINE
  8
0
 62
     0
 10
19.2953
 20
16.1313
 30
0.0
 11
18.8226
 21
16.3849
 31
0.0
  0
LINE
  8
0
 62
     0
 10
18.8226
 20
16.3849
 30
0.0
 11
18.3279
 21
16.7928
 31
0.0
  0
LINE
  8
0
 62
     0
 10
18.3279
 20
16.7928
 30
0.0
 11
17.9366
 21
17.2351
 31
0.0
  0
LINE
  8
0
 62
     0
 10
17.9366
 20
17.2351
 30
0.0
 11
17.7794
 21
17.5893
 31
0.0
  0
LINE
  8
0
 62
     0
 10
17.7794
 20
17.5893
 30
0.0
 11
17.8594
 21
17.6954
 31
0.0
  0
LINE
  8
0
 62
     0
 10
17.8594
 20
17.6954
 30
0.0
 11
18.0551
 21
17.6403
 31
0.0
  0
LINE
  8
0
 62
     0
 10
18.0551
 20
17.6403
 30
0.0
 11
18.6531
 21
17.4267
 31
0.0
  0
LINE
  8
0
 62
     0
 10
18.6531
 20
17.4267
 30
0.0
 11
19.7101
 21
17.1497
 31
0.0
  0
LINE
  8
0
 62
     0
 10
19.7101
 20
17.1497
 30
0.0
 11
20.3963
 21
17.0009
 31
0.0
  0
LINE
  8
0
 62
     0
 10
20.3963
 20
17.0009
 30
0.0
 11
20.7753
 21
16.954
 31
0.0
  0
LINE
  8
0
 62
     0
 10
20.7753
 20
16.954
 30
0.0
 11
20.8966
 21
17.0077
 31
0.0
  0
LINE
  8
0
 62
     0
 10
20.8966
 20
17.0077
 30
0.0
 11
20.8111
 21
17.1649
 31
0.0
  0
LINE
  8
0
 62
     0
 10
20.8111
 20
17.1649
 30
0.0
 11
20.2351
 21
17.6113
 31
0.0
  0
LINE
  8
0
 62
     0
 10
20.2351
 20
17.6113
 30
0.0
 11
19.3518
 21
18.0592
 31
0.0
  0
LINE
  8
0
 62
     0
 10
19.3518
 20
18.0592
 30
0.0
 11
18.4023
 21
18.4037
 31
0.0
  0
LINE
  8
0
 62
     0
 10
18.4023
 20
18.4037
 30
0.0
 11
17.6251
 21
18.5415
 31
0.0
  0
LINE
  8
0
 62
     0
 10
17.6251
 20
18.5415
 30
0.0
 11
16.7886
 21
18.795
 31
0.0
  0
LINE
  8
0
 62
     0
 10
16.7886
 20
18.795
 30
0.0
 11
15.7538
 21
19.6798
 31
0.0
  0
LINE
  8
0
 62
     0
 10
15.7538
 20
19.6798
 30
0.0
 11
15.3293
 21
20.1318
 31
0.0
  0
LINE
  8
0
 62
     0
 10
15.3293
 20
20.1318
 30
0.0
 11
14.9999
 21
20.519
 31
0.0
  0
LINE
  8
0
 62
     0
 10
14.9999
 20
20.519
 30
0.0
 11
14.7987
 21
20.8015
 31
0.0
  0
LINE
  8
0
 62
     0
 10
14.7987
 20
20.8015
 30
0.0
 11
14.7574
 21
20.9379
 31
0.0
  0
LINE
  8
0
 62
     0
 10
14.7574
 20
20.9379
 30
0.0
 11
14.9393
 21
20.9365
 31
0.0
  0
LINE
  8
0
 62
     0
 10
14.9393
 20
20.9365
 30
0.0
 11
15.3458
 21
20.8401
 31
0.0
  0
LINE
  8
0
 62
     0
 10
15.3458
 20
20.8401
 30
0.0
 11
15.9177
 21
20.6678
 31
0.0
  0
LINE
  8
0
 62
     0
 10
15.9177
 20
20.6678
 30
0.0
 11
16.5943
 21
20.4349
 31
0.0
  0
LINE
  8
0
 62
     0
 10
16.5943
 20
20.4349
 30
0.0
 11
17.9241
 21
20.0518
 31
0.0
  0
LINE
  8
0
 62
     0
 10
17.9241
 20
20.0518
 30
0.0
 11
19.2223
 21
19.8479
 31
0.0
  0
LINE
  8
0
 62
     0
 10
19.2223
 20
19.8479
 30
0.0
 11
20.3206
 21
19.841
 31
0.0
  0
LINE
  8
0
 62
     0
 10
20.3206
 20
19.841
 30
0.0
 11
21.0523
 21
20.0422
 31
0.0
  0
LINE
  8
0
 62
     0
 10
21.0523
 20
20.0422
 30
0.0
 11
21.2728
 21
20.3743
 31
0.0
  0
LINE
  8
0
 62
     0
 10
21.2728
 20
20.3743
 30
0.0
 11
21.2424
 21
20.9117
 31
0.0
  0
LINE
  8
0
 62
     0
 10
21.2424
 20
20.9117
 30
0.0
 11
21.1928
 21
21.4106
 31
0.0
  0
LINE
  8
0
 62
     0
 10
21.1928
 20
21.4106
 30
0.0
 11
21.3045
 21
21.6972
 31
0.0
  0
LINE
  8
0
 62
     0
 10
21.3045
 20
21.6972
 30
0.0
 11
21.751
 21
21.6311
 31
0.0
  0
LINE
  8
0
 62
     0
 10
21.751
 20
21.6311
 30
0.0
 11
22.4441
 21
21.2025
 31
0.0
  0
LINE
  8
0
 62
     0
 10
22.4441
 20
21.2025
 30
0.0
 11
23.1938
 21
20.5562
 31
0.0
  0
LINE
  8
0
 62
     0
 10
23.1938
 20
20.5562
 30
0.0
 11
23.807
 21
19.8313
 31
0.0
  0
LINE
  8
0
 62
     0
 10
23.807
 20
19.8313
 30
0.0
 11
24.2218
 21
19.3298
 31
0.0
  0
LINE
  8
0
 62
     0
 10
24.2218
 20
19.3298
 30
0.0
 11
24.3844
 21
19.378
 31
0.0
  0
LINE
  8
0
 62
     0
 10
24.3844
 20
19.378
 30
0.0
 11
24.3017
 21
19.6301
 31
0.0
  0
LINE
  8
0
 62
     0
 10
24.3017
 20
19.6301
 30
0.0
 11
24.0798
 21
20.0146
 31
0.0
  0
LINE
  8
0
 62
     0
 10
24.0798
 20
20.0146
 30
0.0
 11
23.7505
 21
20.4818
 31
0.0
  0
LINE
  8
0
 62
     0
 10
23.7505
 20
20.4818
 30
0.0
 11
23.3481
 21
20.9779
 31
0.0
  0
LINE
  8
0
 62
     0
 10
23.3481
 20
20.9779
 30
0.0
 11
22.6109
 21
21.9866
 31
0.0
  0
LINE
  8
0
 62
     0
 10
22.6109
 20
21.9866
 30
0.0
 11
22.4359
 21
22.6439
 31
0.0
  0
LINE
  8
0
 62
     0
 10
22.4359
 20
22.6439
 30
0.0
 11
22.5158
 21
22.9664
 31
0.0
  0
LINE
  8
0
 62
     0
 10
22.5158
 20
22.9664
 30
0.0
 11
22.4551
 21
23.0697
 31
0.0
  0
LINE
  8
0
 62
     0
 10
22.4551
 20
23.0697
 30
0.0
 11
22.1423
 21
22.9512
 31
0.0
  0
LINE
  8
0
 62
     0
 10
22.1423
 20
22.9512
 30
0.0
 11
21.4629
 21
22.6053
 31
0.0
  0
LINE
  8
0
 62
     0
 10
21.4629
 20
22.6053
 30
0.0
 11
20.253
 21
22.2429
 31
0.0
  0
LINE
  8
0
 62
     0
 10
20.253
 20
22.2429
 30
0.0
 11
18.6476
 21
22.0955
 31
0.0
  0
LINE
  8
0
 62
     0
 10
18.6476
 20
22.0955
 30
0.0
 11
16.9209
 21
22.1699
 31
0.0
  0
LINE
  8
0
 62
     0
 10
16.9209
 20
22.1699
 30
0.0
 11
15.35
 21
22.4703
 31
0.0
  0
LINE
  8
0
 62
     0
 10
15.35
 20
22.4703
 30
0.0
 11
13.9899
 21
22.9995
 31
0.0
  0
LINE
  8
0
 62
     0
 10
13.9899
 20
22.9995
 30
0.0
 11
12.7551
 21
23.7229
 31
0.0
  0
LINE
  8
0
 62
     0
 10
12.7551
 20
23.7229
 30
0.0
 11
11.7092
 21
24.5952
 31
0.0
  0
LINE
  8
0
 62
     0
 10
11.7092
 20
24.5952
 30
0.0
 11
10.9182
 21
25.5736
 31
0.0
  0
LINE
  8
0
 62
     0
 10
10.9182
 20
25.5736
 30
0.0
 11
10.4014
 21
26.3329
 31
0.0
  0
LINE
  8
0
 62
     0
 10
10.4014
 20
26.3329
 30
0.0
 11
10.2003
 21
26.4528
 31
0.0
  0
LINE
  8
0
 62
     0
 10
10.2003
 20
26.4528
 30
0.0
 11
10.3036
 21
25.8961
 31
0.0
  0
LINE
  8
0
 62
     0
 10
10.3036
 20
25.8961
 30
0.0
 11
10.706
 21
24.6242
 31
0.0
  0
LINE
  8
0
 62
     0
 10
10.706
 20
24.6242
 30
0.0
 11
12.3927
 21
21.2659
 31
0.0
  0
LINE
  8
0
 62
     0
 10
12.3927
 20
21.2659
 30
0.0
 11
15.0757
 21
18.0344
 31
0.0
  0
LINE
  8
0
 62
     0
 10
15.0757
 20
18.0344
 30
0.0
 11
15.7262
 21
17.4363
 31
0.0
  0
LINE
  8
0
 62
     0
 10
15.7262
 20
17.4363
 30
0.0
 11
16.4703
 21
16.8148
 31
0.0
  0
LINE
  8
0
 62
     0
 10
16.4703
 20
16.8148
 30
0.0
 11
17.2558
 21
16.2044
 31
0.0
  0
LINE
  8
0
 62
     0
 10
17.2558
 20
16.2044
 30
0.0
 11
18.033
 21
15.6421
 31
0.0
  0
LINE
  8
0
 62
     0
 10
18.033
 20
15.6421
 30
0.0
 11
18.7482
 21
15.1653
 31
0.0
  0
LINE
  8
0
 62
     0
 10
18.7482
 20
15.1653
 30
0.0
 11
19.3518
 21
14.807
 31
0.0
  0
LINE
  8
0
 62
     0
 10
19.3518
 20
14.807
 30
0.0
 11
19.79
 21
14.6058
 31
0.0
  0
LINE
  8
0
 62
     0
 10
19.79
 20
14.6058
 30
0.0
 11
20.0133
 21
14.5948
 31
0.0
  0
LINE
  8
0
 62
     0
 10
20.0133
 20
14.5948
 30
0.0
 11
20.0463
 21
14.8608
 31
0.0
  0
LINE
  8
0
 62
     0
 10
20.0463
 20
14.8608
 30
0.0
 11
19.9692
 21
15.3376
 31
0.0
  0
LINE
  8
0
 62
     0
 10
23.3894
 20
15.31
 30
0.0
 11
23.1111
 21
15.7303
 31
0.0
  0
LINE
  8
0
 62
     0
 10
23.1111
 20
15.7303
 30
0.0
 11
22.6935
 21
16.0734
 31
0.0
  0
LINE
  8
0
 62
     0
 10
22.6935
 20
16.0734
 30
0.0
 11
22.265
 21
16.2581
 31
0.0
  0
LINE
  8
0
 62
     0
 10
22.265
 20
16.2581
 30
0.0
 11
21.959
 21
16.2016
 31
0.0
  0
LINE
  8
0
 62
     0
 10
21.959
 20
16.2016
 30
0.0
 11
22.112
 21
15.8833
 31
0.0
  0
LINE
  8
0
 62
     0
 10
22.112
 20
15.8833
 30
0.0
 11
22.626
 21
15.259
 31
0.0
  0
LINE
  8
0
 62
     0
 10
22.626
 20
15.259
 30
0.0
 11
23.1593
 21
14.734
 31
0.0
  0
LINE
  8
0
 62
     0
 10
23.1593
 20
14.734
 30
0.0
 11
23.468
 21
14.5673
 31
0.0
  0
LINE
  8
0
 62
     0
 10
23.468
 20
14.5673
 30
0.0
 11
23.5465
 21
14.7602
 31
0.0
  0
LINE
  8
0
 62
     0
 10
23.5465
 20
14.7602
 30
0.0
 11
23.3894
 21
15.31
 31
0.0
  0
LINE
  8
0
 62
     0
 10
36.7894
 20
15.4933
 30
0.0
 11
37.1341
 21
16.0721
 31
0.0
  0
LINE
  8
0
 62
     0
 10
37.1341
 20
16.0721
 30
0.0
 11
37.0127
 21
16.2553
 31
0.0
  0
LINE
  8
0
 62
     0
 10
37.0127
 20
16.2553
 30
0.0
 11
36.6448
 21
16.1644
 31
0.0
  0
LINE
  8
0
 62
     0
 10
36.6448
 20
16.1644
 30
0.0
 11
36.2701
 21
15.9205
 31
0.0
  0
LINE
  8
0
 62
     0
 10
36.2701
 20
15.9205
 30
0.0
 11
35.9463
 21
15.5746
 31
0.0
  0
LINE
  8
0
 62
     0
 10
35.9463
 20
15.5746
 30
0.0
 11
35.7311
 21
15.1763
 31
0.0
  0
LINE
  8
0
 62
     0
 10
35.7311
 20
15.1763
 30
0.0
 11
35.7022
 21
14.8029
 31
0.0
  0
LINE
  8
0
 62
     0
 10
35.7022
 20
14.8029
 30
0.0
 11
35.9336
 21
14.7491
 31
0.0
  0
LINE
  8
0
 62
     0
 10
35.9336
 20
14.7491
 30
0.0
 11
36.328
 21
14.9889
 31
0.0
  0
LINE
  8
0
 62
     0
 10
36.328
 20
14.9889
 30
0.0
 11
36.7894
 21
15.4933
 31
0.0
  0
LINE
  8
0
 62
     0
 10
24.8047
 20
16.6343
 30
0.0
 11
24.3733
 21
17.2351
 31
0.0
  0
LINE
  8
0
 62
     0
 10
24.3733
 20
17.2351
 30
0.0
 11
23.9793
 21
16.9788
 31
0.0
  0
LINE
  8
0
 62
     0
 10
23.9793
 20
16.9788
 30
0.0
 11
23.9889
 21
16.6729
 31
0.0
  0
LINE
  8
0
 62
     0
 10
23.9889
 20
16.6729
 30
0.0
 11
24.2673
 21
16.3435
 31
0.0
  0
LINE
  8
0
 62
     0
 10
24.2673
 20
16.3435
 30
0.0
 11
24.6903
 21
16.0762
 31
0.0
  0
LINE
  8
0
 62
     0
 10
24.6903
 20
16.0762
 30
0.0
 11
24.9191
 21
16.0335
 31
0.0
  0
LINE
  8
0
 62
     0
 10
24.9191
 20
16.0335
 30
0.0
 11
24.9563
 21
16.2195
 31
0.0
  0
LINE
  8
0
 62
     0
 10
24.9563
 20
16.2195
 30
0.0
 11
24.8047
 21
16.6343
 31
0.0
  0
LINE
  8
0
 62
     0
 10
34.9402
 20
16.3669
 30
0.0
 11
35.2887
 21
16.7376
 31
0.0
  0
LINE
  8
0
 62
     0
 10
35.2887
 20
16.7376
 30
0.0
 11
35.0435
 21
17.1276
 31
0.0
  0
LINE
  8
0
 62
     0
 10
35.0435
 20
17.1276
 30
0.0
 11
34.67
 21
17.3385
 31
0.0
  0
LINE
  8
0
 62
     0
 10
34.67
 20
17.3385
 30
0.0
 11
34.3669
 21
16.7624
 31
0.0
  0
LINE
  8
0
 62
     0
 10
34.3669
 20
16.7624
 30
0.0
 11
34.2181
 21
16.2691
 31
0.0
  0
LINE
  8
0
 62
     0
 10
34.2181
 20
16.2691
 30
0.0
 11
34.2567
 21
16.0445
 31
0.0
  0
LINE
  8
0
 62
     0
 10
34.2567
 20
16.0445
 30
0.0
 11
34.4923
 21
16.0803
 31
0.0
  0
LINE
  8
0
 62
     0
 10
34.4923
 20
16.0803
 30
0.0
 11
34.9402
 21
16.3669
 31
0.0
  0
LINE
  8
0
 62
     0
 10
25.8451
 20
24.4037
 30
0.0
 11
25.5295
 21
24.6958
 31
0.0
  0
LINE
  8
0
 62
     0
 10
25.5295
 20
24.6958
 30
0.0
 11
25.4
 21
25.0307
 31
0.0
  0
LINE
  8
0
 62
     0
 10
25.4
 20
25.0307
 30
0.0
 11
25.3242
 21
25.2925
 31
0.0
  0
LINE
  8
0
 62
     0
 10
25.3242
 20
25.2925
 30
0.0
 11
25.1465
 21
25.4
 31
0.0
  0
LINE
  8
0
 62
     0
 10
25.1465
 20
25.4
 30
0.0
 11
24.9659
 21
25.2581
 31
0.0
  0
LINE
  8
0
 62
     0
 10
24.9659
 20
25.2581
 30
0.0
 11
24.8915
 21
24.9136
 31
0.0
  0
LINE
  8
0
 62
     0
 10
24.8915
 20
24.9136
 30
0.0
 11
25.1395
 21
24.3596
 31
0.0
  0
LINE
  8
0
 62
     0
 10
25.1395
 20
24.3596
 30
0.0
 11
25.9085
 21
24.157
 31
0.0
  0
LINE
  8
0
 62
     0
 10
25.9085
 20
24.157
 30
0.0
 11
26.1138
 21
24.2025
 31
0.0
  0
LINE
  8
0
 62
     0
 10
26.1138
 20
24.2025
 30
0.0
 11
25.8451
 21
24.4037
 31
0.0
  0
LINE
  8
0
 62
     0
 10
33.9976
 20
24.3541
 30
0.0
 11
34.2126
 21
24.6366
 31
0.0
  0
LINE
  8
0
 62
     0
 10
34.2126
 20
24.6366
 30
0.0
 11
34.2511
 21
25.0073
 31
0.0
  0
LINE
  8
0
 62
     0
 10
34.2511
 20
25.0073
 30
0.0
 11
34.1822
 21
25.2098
 31
0.0
  0
LINE
  8
0
 62
     0
 10
34.1822
 20
25.2098
 30
0.0
 11
34.0679
 21
25.2484
 31
0.0
  0
LINE
  8
0
 62
     0
 10
34.0679
 20
25.2484
 30
0.0
 11
33.868
 21
25.1106
 31
0.0
  0
LINE
  8
0
 62
     0
 10
33.868
 20
25.1106
 30
0.0
 11
33.547
 21
24.7868
 31
0.0
  0
LINE
  8
0
 62
     0
 10
33.547
 20
24.7868
 30
0.0
 11
33.2493
 21
24.3761
 31
0.0
  0
LINE
  8
0
 62
     0
 10
33.2493
 20
24.3761
 30
0.0
 11
33.2507
 21
24.1419
 31
0.0
  0
LINE
  8
0
 62
     0
 10
33.2507
 20
24.1419
 30
0.0
 11
33.5125
 21
24.1226
 31
0.0
  0
LINE
  8
0
 62
     0
 10
33.5125
 20
24.1226
 30
0.0
 11
33.9976
 21
24.3541
 31
0.0
  0
LINE
  8
0
 62
     0
 10
24.7702
 20
28.7831
 30
0.0
 11
23.7822
 21
30.2038
 31
0.0
  0
LINE
  8
0
 62
     0
 10
23.7822
 20
30.2038
 30
0.0
 11
22.3752
 21
31.3903
 31
0.0
  0
LINE
  8
0
 62
     0
 10
22.3752
 20
31.3903
 30
0.0
 11
20.756
 21
32.2048
 31
0.0
  0
LINE
  8
0
 62
     0
 10
20.756
 20
32.2048
 30
0.0
 11
19.1354
 21
32.5093
 31
0.0
  0
LINE
  8
0
 62
     0
 10
19.1354
 20
32.5093
 30
0.0
 11
18.5815
 21
32.5424
 31
0.0
  0
LINE
  8
0
 62
     0
 10
18.5815
 20
32.5424
 30
0.0
 11
18.1612
 21
32.6595
 31
0.0
  0
LINE
  8
0
 62
     0
 10
18.1612
 20
32.6595
 30
0.0
 11
17.8056
 21
32.891
 31
0.0
  0
LINE
  8
0
 62
     0
 10
17.8056
 20
32.891
 30
0.0
 11
17.4446
 21
33.2659
 31
0.0
  0
LINE
  8
0
 62
     0
 10
17.4446
 20
33.2659
 30
0.0
 11
16.8107
 21
34.0183
 31
0.0
  0
LINE
  8
0
 62
     0
 10
16.8107
 20
34.0183
 30
0.0
 11
16.418
 21
33.4188
 31
0.0
  0
LINE
  8
0
 62
     0
 10
16.418
 20
33.4188
 30
0.0
 11
16.2112
 21
33.0757
 31
0.0
  0
LINE
  8
0
 62
     0
 10
16.2112
 20
33.0757
 30
0.0
 11
16.1919
 21
32.8772
 31
0.0
  0
LINE
  8
0
 62
     0
 10
16.1919
 20
32.8772
 30
0.0
 11
16.4028
 21
32.7601
 31
0.0
  0
LINE
  8
0
 62
     0
 10
16.4028
 20
32.7601
 30
0.0
 11
16.8824
 21
32.6567
 31
0.0
  0
LINE
  8
0
 62
     0
 10
16.8824
 20
32.6567
 30
0.0
 11
17.7202
 21
32.3026
 31
0.0
  0
LINE
  8
0
 62
     0
 10
17.7202
 20
32.3026
 30
0.0
 11
18.5208
 21
31.6081
 31
0.0
  0
LINE
  8
0
 62
     0
 10
18.5208
 20
31.6081
 30
0.0
 11
18.915
 21
31.1299
 31
0.0
  0
LINE
  8
0
 62
     0
 10
18.915
 20
31.1299
 30
0.0
 11
19.1065
 21
30.7895
 31
0.0
  0
LINE
  8
0
 62
     0
 10
19.1065
 20
30.7895
 30
0.0
 11
19.1216
 21
30.5111
 31
0.0
  0
LINE
  8
0
 62
     0
 10
19.1216
 20
30.5111
 30
0.0
 11
18.9866
 21
30.219
 31
0.0
  0
LINE
  8
0
 62
     0
 10
18.9866
 20
30.219
 30
0.0
 11
18.802
 21
29.7229
 31
0.0
  0
LINE
  8
0
 62
     0
 10
18.802
 20
29.7229
 30
0.0
 11
18.9701
 21
29.242
 31
0.0
  0
LINE
  8
0
 62
     0
 10
18.9701
 20
29.242
 30
0.0
 11
19.1024
 21
28.852
 31
0.0
  0
LINE
  8
0
 62
     0
 10
19.1024
 20
28.852
 30
0.0
 11
19.0169
 21
28.5171
 31
0.0
  0
LINE
  8
0
 62
     0
 10
19.0169
 20
28.5171
 30
0.0
 11
18.7399
 21
28.2815
 31
0.0
  0
LINE
  8
0
 62
     0
 10
18.7399
 20
28.2815
 30
0.0
 11
18.3003
 21
28.1892
 31
0.0
  0
LINE
  8
0
 62
     0
 10
18.3003
 20
28.1892
 30
0.0
 11
18.0468
 21
28.1451
 31
0.0
  0
LINE
  8
0
 62
     0
 10
18.0468
 20
28.1451
 30
0.0
 11
18.2645
 21
27.959
 31
0.0
  0
LINE
  8
0
 62
     0
 10
18.2645
 20
27.959
 30
0.0
 11
18.6173
 21
27.8391
 31
0.0
  0
LINE
  8
0
 62
     0
 10
18.6173
 20
27.8391
 30
0.0
 11
18.9659
 21
27.8639
 31
0.0
  0
LINE
  8
0
 62
     0
 10
18.9659
 20
27.8639
 30
0.0
 11
19.4717
 21
27.8322
 31
0.0
  0
LINE
  8
0
 62
     0
 10
19.4717
 20
27.8322
 30
0.0
 11
20.2117
 21
27.5676
 31
0.0
  0
LINE
  8
0
 62
     0
 10
20.2117
 20
27.5676
 30
0.0
 11
21.146
 21
27.2783
 31
0.0
  0
LINE
  8
0
 62
     0
 10
21.146
 20
27.2783
 30
0.0
 11
22.1589
 21
27.3155
 31
0.0
  0
LINE
  8
0
 62
     0
 10
22.1589
 20
27.3155
 30
0.0
 11
23.202
 21
27.4919
 31
0.0
  0
LINE
  8
0
 62
     0
 10
23.202
 20
27.4919
 30
0.0
 11
22.4331
 21
27.8143
 31
0.0
  0
LINE
  8
0
 62
     0
 10
22.4331
 20
27.8143
 30
0.0
 11
21.8502
 21
28.185
 31
0.0
  0
LINE
  8
0
 62
     0
 10
21.8502
 20
28.185
 30
0.0
 11
21.5484
 21
28.6632
 31
0.0
  0
LINE
  8
0
 62
     0
 10
21.5484
 20
28.6632
 30
0.0
 11
21.5387
 21
29.2062
 31
0.0
  0
LINE
  8
0
 62
     0
 10
21.5387
 20
29.2062
 30
0.0
 11
21.835
 21
29.7698
 31
0.0
  0
LINE
  8
0
 62
     0
 10
21.835
 20
29.7698
 30
0.0
 11
22.1038
 21
30.0784
 31
0.0
  0
LINE
  8
0
 62
     0
 10
22.1038
 20
30.0784
 30
0.0
 11
22.3187
 21
30.1928
 31
0.0
  0
LINE
  8
0
 62
     0
 10
22.3187
 20
30.1928
 30
0.0
 11
22.5764
 21
30.1212
 31
0.0
  0
LINE
  8
0
 62
     0
 10
22.5764
 20
30.1212
 30
0.0
 11
22.9788
 21
29.8731
 31
0.0
  0
LINE
  8
0
 62
     0
 10
22.9788
 20
29.8731
 30
0.0
 11
23.3261
 21
29.6099
 31
0.0
  0
LINE
  8
0
 62
     0
 10
23.3261
 20
29.6099
 30
0.0
 11
23.5231
 21
29.3426
 31
0.0
  0
LINE
  8
0
 62
     0
 10
23.5231
 20
29.3426
 30
0.0
 11
23.5948
 21
29.0105
 31
0.0
  0
LINE
  8
0
 62
     0
 10
23.5948
 20
29.0105
 30
0.0
 11
23.5713
 21
28.553
 31
0.0
  0
LINE
  8
0
 62
     0
 10
23.5713
 20
28.553
 30
0.0
 11
23.5768
 21
27.8639
 31
0.0
  0
LINE
  8
0
 62
     0
 10
23.5768
 20
27.8639
 30
0.0
 11
23.8966
 21
27.6862
 31
0.0
  0
LINE
  8
0
 62
     0
 10
23.8966
 20
27.6862
 30
0.0
 11
24.2989
 21
27.5621
 31
0.0
  0
LINE
  8
0
 62
     0
 10
24.2989
 20
27.5621
 30
0.0
 11
24.671
 21
27.2631
 31
0.0
  0
LINE
  8
0
 62
     0
 10
24.671
 20
27.2631
 30
0.0
 11
24.9769
 21
26.9903
 31
0.0
  0
LINE
  8
0
 62
     0
 10
24.9769
 20
26.9903
 30
0.0
 11
25.0996
 21
27.3802
 31
0.0
  0
LINE
  8
0
 62
     0
 10
25.0996
 20
27.3802
 30
0.0
 11
25.0348
 21
28.0155
 31
0.0
  0
LINE
  8
0
 62
     0
 10
25.0348
 20
28.0155
 30
0.0
 11
24.7702
 21
28.7831
 31
0.0
  0
LINE
  8
0
 62
     0
 10
27.5029
 20
28.6728
 30
0.0
 11
27.3554
 21
30.2893
 31
0.0
  0
LINE
  8
0
 62
     0
 10
27.3554
 20
30.2893
 30
0.0
 11
26.8911
 21
29.6857
 31
0.0
  0
LINE
  8
0
 62
     0
 10
26.8911
 20
29.6857
 30
0.0
 11
26.4473
 21
28.5667
 31
0.0
  0
LINE
  8
0
 62
     0
 10
26.4473
 20
28.5667
 30
0.0
 11
26.9668
 21
27.5125
 31
0.0
  0
LINE
  8
0
 62
     0
 10
26.9668
 20
27.5125
 30
0.0
 11
27.3747
 21
27.117
 31
0.0
  0
LINE
  8
0
 62
     0
 10
27.3747
 20
27.117
 30
0.0
 11
27.5842
 21
26.9903
 31
0.0
  0
LINE
  8
0
 62
     0
 10
27.5842
 20
26.9903
 30
0.0
 11
27.5869
 21
27.5125
 31
0.0
  0
LINE
  8
0
 62
     0
 10
27.5869
 20
27.5125
 30
0.0
 11
27.5029
 21
28.6728
 31
0.0
  0
LINE
  8
0
 62
     0
 10
32.7656
 20
28.4579
 30
0.0
 11
32.6278
 21
28.9388
 31
0.0
  0
LINE
  8
0
 62
     0
 10
32.6278
 20
28.9388
 30
0.0
 11
32.2957
 21
29.4928
 31
0.0
  0
LINE
  8
0
 62
     0
 10
32.2957
 20
29.4928
 30
0.0
 11
31.9264
 21
30.033
 31
0.0
  0
LINE
  8
0
 62
     0
 10
31.9264
 20
30.033
 30
0.0
 11
31.7004
 21
30.4794
 31
0.0
  0
LINE
  8
0
 62
     0
 10
31.7004
 20
30.4794
 30
0.0
 11
31.6522
 21
30.4726
 31
0.0
  0
LINE
  8
0
 62
     0
 10
31.6522
 20
30.4726
 30
0.0
 11
31.6122
 21
30.168
 31
0.0
  0
LINE
  8
0
 62
     0
 10
31.6122
 20
30.168
 30
0.0
 11
31.5832
 21
29.6223
 31
0.0
  0
LINE
  8
0
 62
     0
 10
31.5832
 20
29.6223
 30
0.0
 11
31.5736
 21
28.8837
 31
0.0
  0
LINE
  8
0
 62
     0
 10
31.5736
 20
28.8837
 30
0.0
 11
31.5722
 21
26.9062
 31
0.0
  0
LINE
  8
0
 62
     0
 10
31.5722
 20
26.9062
 30
0.0
 11
32.1689
 21
27.4671
 31
0.0
  0
LINE
  8
0
 62
     0
 10
32.1689
 20
27.4671
 30
0.0
 11
32.5892
 21
27.9907
 31
0.0
  0
LINE
  8
0
 62
     0
 10
32.5892
 20
27.9907
 30
0.0
 11
32.7656
 21
28.4579
 31
0.0
  0
LINE
  8
0
 62
     0
 10
35.4404
 20
27.6862
 30
0.0
 11
35.7533
 21
27.7496
 31
0.0
  0
LINE
  8
0
 62
     0
 10
35.7533
 20
27.7496
 30
0.0
 11
35.6112
 21
27.9907
 31
0.0
  0
LINE
  8
0
 62
     0
 10
35.6112
 20
27.9907
 30
0.0
 11
35.337
 21
28.8148
 31
0.0
  0
LINE
  8
0
 62
     0
 10
35.337
 20
28.8148
 30
0.0
 11
35.9572
 21
29.6857
 31
0.0
  0
LINE
  8
0
 62
     0
 10
35.9572
 20
29.6857
 30
0.0
 11
36.4917
 21
29.9999
 31
0.0
  0
LINE
  8
0
 62
     0
 10
36.4917
 20
29.9999
 30
0.0
 11
36.9341
 21
30.0398
 31
0.0
  0
LINE
  8
0
 62
     0
 10
36.9341
 20
30.0398
 30
0.0
 11
37.2731
 21
29.807
 31
0.0
  0
LINE
  8
0
 62
     0
 10
37.2731
 20
29.807
 30
0.0
 11
37.495
 21
29.3054
 31
0.0
  0
LINE
  8
0
 62
     0
 10
37.495
 20
29.3054
 30
0.0
 11
37.3394
 21
28.3545
 31
0.0
  0
LINE
  8
0
 62
     0
 10
37.3394
 20
28.3545
 30
0.0
 11
36.4575
 21
27.6917
 31
0.0
  0
LINE
  8
0
 62
     0
 10
36.4575
 20
27.6917
 30
0.0
 11
36.2479
 21
27.5029
 31
0.0
  0
LINE
  8
0
 62
     0
 10
36.2479
 20
27.5029
 30
0.0
 11
36.9976
 21
27.3196
 31
0.0
  0
LINE
  8
0
 62
     0
 10
36.9976
 20
27.3196
 30
0.0
 11
37.9938
 21
27.2769
 31
0.0
  0
LINE
  8
0
 62
     0
 10
37.9938
 20
27.2769
 30
0.0
 11
38.8511
 21
27.5539
 31
0.0
  0
LINE
  8
0
 62
     0
 10
38.8511
 20
27.5539
 30
0.0
 11
39.5414
 21
27.806
 31
0.0
  0
LINE
  8
0
 62
     0
 10
39.5414
 20
27.806
 30
0.0
 11
40.0816
 21
27.8322
 31
0.0
  0
LINE
  8
0
 62
     0
 10
40.0816
 20
27.8322
 30
0.0
 11
40.4978
 21
27.8088
 31
0.0
  0
LINE
  8
0
 62
     0
 10
40.4978
 20
27.8088
 30
0.0
 11
40.8947
 21
27.9411
 31
0.0
  0
LINE
  8
0
 62
     0
 10
40.8947
 20
27.9411
 30
0.0
 11
41.1357
 21
28.1451
 31
0.0
  0
LINE
  8
0
 62
     0
 10
41.1357
 20
28.1451
 30
0.0
 11
40.8615
 21
28.1892
 31
0.0
  0
LINE
  8
0
 62
     0
 10
40.8615
 20
28.1892
 30
0.0
 11
40.4618
 21
28.2994
 31
0.0
  0
LINE
  8
0
 62
     0
 10
40.4618
 20
28.2994
 30
0.0
 11
40.1493
 21
28.5516
 31
0.0
  0
LINE
  8
0
 62
     0
 10
40.1493
 20
28.5516
 30
0.0
 11
40.0057
 21
28.8451
 31
0.0
  0
LINE
  8
0
 62
     0
 10
40.0057
 20
28.8451
 30
0.0
 11
40.1204
 21
29.0752
 31
0.0
  0
LINE
  8
0
 62
     0
 10
40.1204
 20
29.0752
 30
0.0
 11
40.3119
 21
29.344
 31
0.0
  0
LINE
  8
0
 62
     0
 10
40.3119
 20
29.344
 30
0.0
 11
40.3793
 21
29.7298
 31
0.0
  0
LINE
  8
0
 62
     0
 10
40.3793
 20
29.7298
 30
0.0
 11
40.32
 21
30.0757
 31
0.0
  0
LINE
  8
0
 62
     0
 10
40.32
 20
30.0757
 30
0.0
 11
40.1327
 21
30.2259
 31
0.0
  0
LINE
  8
0
 62
     0
 10
40.1327
 20
30.2259
 30
0.0
 11
39.8625
 21
30.3279
 31
0.0
  0
LINE
  8
0
 62
     0
 10
39.8625
 20
30.3279
 30
0.0
 11
39.8558
 21
30.5938
 31
0.0
  0
LINE
  8
0
 62
     0
 10
39.8558
 20
30.5938
 30
0.0
 11
40.0583
 21
30.97
 31
0.0
  0
LINE
  8
0
 62
     0
 10
40.0583
 20
30.97
 30
0.0
 11
40.4178
 21
31.4041
 31
0.0
  0
LINE
  8
0
 62
     0
 10
40.4178
 20
31.4041
 30
0.0
 11
40.8852
 21
31.8396
 31
0.0
  0
LINE
  8
0
 62
     0
 10
40.8852
 20
31.8396
 30
0.0
 11
41.4045
 21
32.2213
 31
0.0
  0
LINE
  8
0
 62
     0
 10
41.4045
 20
32.2213
 30
0.0
 11
41.9283
 21
32.4983
 31
0.0
  0
LINE
  8
0
 62
     0
 10
41.9283
 20
32.4983
 30
0.0
 11
42.4021
 21
32.6113
 31
0.0
  0
LINE
  8
0
 62
     0
 10
42.4021
 20
32.6113
 30
0.0
 11
42.9507
 21
32.6485
 31
0.0
  0
LINE
  8
0
 62
     0
 10
42.9507
 20
32.6485
 30
0.0
 11
43.1793
 21
32.6967
 31
0.0
  0
LINE
  8
0
 62
     0
 10
43.1793
 20
32.6967
 30
0.0
 11
43.0308
 21
32.982
 31
0.0
  0
LINE
  8
0
 62
     0
 10
43.0308
 20
32.982
 30
0.0
 11
42.6724
 21
33.5855
 31
0.0
  0
LINE
  8
0
 62
     0
 10
42.6724
 20
33.5855
 30
0.0
 11
42.3139
 21
34.0665
 31
0.0
  0
LINE
  8
0
 62
     0
 10
42.3139
 20
34.0665
 30
0.0
 11
42.1651
 21
34.0527
 31
0.0
  0
LINE
  8
0
 62
     0
 10
42.1651
 20
34.0527
 30
0.0
 11
41.982
 21
33.5029
 31
0.0
  0
LINE
  8
0
 62
     0
 10
41.982
 20
33.5029
 30
0.0
 11
41.5078
 21
33.0068
 31
0.0
  0
LINE
  8
0
 62
     0
 10
41.5078
 20
33.0068
 30
0.0
 11
40.8534
 21
32.6499
 31
0.0
  0
LINE
  8
0
 62
     0
 10
40.8534
 20
32.6499
 30
0.0
 11
40.1256
 21
32.5121
 31
0.0
  0
LINE
  8
0
 62
     0
 10
40.1256
 20
32.5121
 30
0.0
 11
38.6045
 21
32.2943
 31
0.0
  0
LINE
  8
0
 62
     0
 10
38.6045
 20
32.2943
 30
0.0
 11
37.145
 21
31.6784
 31
0.0
  0
LINE
  8
0
 62
     0
 10
37.145
 20
31.6784
 30
0.0
 11
35.8454
 21
30.7206
 31
0.0
  0
LINE
  8
0
 62
     0
 10
35.8454
 20
30.7206
 30
0.0
 11
34.8065
 21
29.4762
 31
0.0
  0
LINE
  8
0
 62
     0
 10
34.8065
 20
29.4762
 30
0.0
 11
34.2622
 21
28.4193
 31
0.0
  0
LINE
  8
0
 62
     0
 10
34.2622
 20
28.4193
 30
0.0
 11
34.0362
 21
27.5608
 31
0.0
  0
LINE
  8
0
 62
     0
 10
34.0362
 20
27.5608
 30
0.0
 11
34.0458
 21
27.1735
 31
0.0
  0
LINE
  8
0
 62
     0
 10
34.0458
 20
27.1735
 30
0.0
 11
34.1023
 21
27.0109
 31
0.0
  0
LINE
  8
0
 62
     0
 10
34.1023
 20
27.0109
 30
0.0
 11
34.2415
 21
27.0495
 31
0.0
  0
LINE
  8
0
 62
     0
 10
34.2415
 20
27.0495
 30
0.0
 11
34.5006
 21
27.2659
 31
0.0
  0
LINE
  8
0
 62
     0
 10
34.5006
 20
27.2659
 30
0.0
 11
34.9677
 21
27.5635
 31
0.0
  0
LINE
  8
0
 62
     0
 10
34.9677
 20
27.5635
 30
0.0
 11
35.4404
 21
27.6862
 31
0.0
  0
LINE
  8
0
 62
     0
 10
5.46118
 20
25.9333
 30
0.0
 11
4.25951
 21
26.9489
 31
0.0
  0
LINE
  8
0
 62
     0
 10
4.25951
 20
26.9489
 30
0.0
 11
3.15571
 21
28.0307
 31
0.0
  0
LINE
  8
0
 62
     0
 10
3.15571
 20
28.0307
 30
0.0
 11
2.7423
 21
28.535
 31
0.0
  0
LINE
  8
0
 62
     0
 10
2.7423
 20
28.535
 30
0.0
 11
2.2779
 21
29.1855
 31
0.0
  0
LINE
  8
0
 62
     0
 10
2.2779
 20
29.1855
 30
0.0
 11
1.79558
 21
29.9268
 31
0.0
  0
LINE
  8
0
 62
     0
 10
1.79558
 20
29.9268
 30
0.0
 11
1.32705
 21
30.7027
 31
0.0
  0
LINE
  8
0
 62
     0
 10
1.32705
 20
30.7027
 30
0.0
 11
0.906748
 21
31.4579
 31
0.0
  0
LINE
  8
0
 62
     0
 10
0.906748
 20
31.4579
 30
0.0
 11
0.564995
 21
32.1331
 31
0.0
  0
LINE
  8
0
 62
     0
 10
0.564995
 20
32.1331
 30
0.0
 11
0.336241
 21
32.676
 31
0.0
  0
LINE
  8
0
 62
     0
 10
0.336241
 20
32.676
 30
0.0
 11
0.253559
 21
33.0261
 31
0.0
  0
LINE
  8
0
 62
     0
 10
0.253559
 20
33.0261
 30
0.0
 11
0.39963
 21
33.0081
 31
0.0
  0
LINE
  8
0
 62
     0
 10
0.39963
 20
33.0081
 30
0.0
 11
0.799264
 21
32.7284
 31
0.0
  0
LINE
  8
0
 62
     0
 10
0.799264
 20
32.7284
 30
0.0
 11
1.39044
 21
32.2351
 31
0.0
  0
LINE
  8
0
 62
     0
 10
1.39044
 20
32.2351
 30
0.0
 11
2.11253
 21
31.5736
 31
0.0
  0
LINE
  8
0
 62
     0
 10
2.11253
 20
31.5736
 30
0.0
 11
2.93109
 21
30.8419
 31
0.0
  0
LINE
  8
0
 62
     0
 10
2.93109
 20
30.8419
 30
0.0
 11
3.79099
 21
30.1529
 31
0.0
  0
LINE
  8
0
 62
     0
 10
3.79099
 20
30.1529
 30
0.0
 11
4.58886
 21
29.5851
 31
0.0
  0
LINE
  8
0
 62
     0
 10
4.58886
 20
29.5851
 30
0.0
 11
5.22277
 21
29.2144
 31
0.0
  0
LINE
  8
0
 62
     0
 10
5.22277
 20
29.2144
 30
0.0
 11
6.12814
 21
28.7803
 31
0.0
  0
LINE
  8
0
 62
     0
 10
6.12814
 20
28.7803
 30
0.0
 11
6.54569
 21
28.5709
 31
0.0
  0
LINE
  8
0
 62
     0
 10
6.54569
 20
28.5709
 30
0.0
 11
6.68073
 21
27.9852
 31
0.0
  0
LINE
  8
0
 62
     0
 10
6.68073
 20
27.9852
 30
0.0
 11
6.8199
 21
26.7946
 31
0.0
  0
LINE
  8
0
 62
     0
 10
6.8199
 20
26.7946
 30
0.0
 11
6.90397
 21
25.6109
 31
0.0
  0
LINE
  8
0
 62
     0
 10
6.90397
 20
25.6109
 30
0.0
 11
6.87779
 21
25.0445
 31
0.0
  0
LINE
  8
0
 62
     0
 10
6.87779
 20
25.0445
 30
0.0
 11
6.71932
 21
25.0913
 31
0.0
  0
LINE
  8
0
 62
     0
 10
6.71932
 20
25.0913
 30
0.0
 11
6.40098
 21
25.2746
 31
0.0
  0
LINE
  8
0
 62
     0
 10
6.40098
 20
25.2746
 30
0.0
 11
5.96554
 21
25.5654
 31
0.0
  0
LINE
  8
0
 62
     0
 10
5.96554
 20
25.5654
 30
0.0
 11
5.46118
 21
25.9333
 31
0.0
  0
LINE
  8
0
 62
     0
 10
52.1656
 20
25.6853
 30
0.0
 11
52.2774
 21
26.5341
 31
0.0
  0
LINE
  8
0
 62
     0
 10
52.2774
 20
26.5341
 30
0.0
 11
52.324
 21
27.456
 31
0.0
  0
LINE
  8
0
 62
     0
 10
52.324
 20
27.456
 30
0.0
 11
52.3543
 21
28.0197
 31
0.0
  0
LINE
  8
0
 62
     0
 10
52.3543
 20
28.0197
 30
0.0
 11
52.5268
 21
28.3945
 31
0.0
  0
LINE
  8
0
 62
     0
 10
52.5268
 20
28.3945
 30
0.0
 11
52.9594
 21
28.7225
 31
0.0
  0
LINE
  8
0
 62
     0
 10
52.9594
 20
28.7225
 30
0.0
 11
53.7711
 21
29.1386
 31
0.0
  0
LINE
  8
0
 62
     0
 10
53.7711
 20
29.1386
 30
0.0
 11
54.4795
 21
29.5493
 31
0.0
  0
LINE
  8
0
 62
     0
 10
54.4795
 20
29.5493
 30
0.0
 11
55.3007
 21
30.1322
 31
0.0
  0
LINE
  8
0
 62
     0
 10
55.3007
 20
30.1322
 30
0.0
 11
56.1552
 21
30.8226
 31
0.0
  0
LINE
  8
0
 62
     0
 10
56.1552
 20
30.8226
 30
0.0
 11
56.9584
 21
31.5598
 31
0.0
  0
LINE
  8
0
 62
     0
 10
56.9584
 20
31.5598
 30
0.0
 11
57.6432
 21
32.2254
 31
0.0
  0
LINE
  8
0
 62
     0
 10
57.6432
 20
32.2254
 30
0.0
 11
58.2207
 21
32.7711
 31
0.0
  0
LINE
  8
0
 62
     0
 10
58.2207
 20
32.7711
 30
0.0
 11
58.6299
 21
33.1391
 31
0.0
  0
LINE
  8
0
 62
     0
 10
58.6299
 20
33.1391
 30
0.0
 11
58.8119
 21
33.2741
 31
0.0
  0
LINE
  8
0
 62
     0
 10
58.8119
 20
33.2741
 30
0.0
 11
58.7678
 21
32.9572
 31
0.0
  0
LINE
  8
0
 62
     0
 10
58.7678
 20
32.9572
 30
0.0
 11
58.5061
 21
32.1937
 31
0.0
  0
LINE
  8
0
 62
     0
 10
58.5061
 20
32.1937
 30
0.0
 11
57.8252
 21
30.8074
 31
0.0
  0
LINE
  8
0
 62
     0
 10
57.8252
 20
30.8074
 30
0.0
 11
56.8635
 21
29.2723
 31
0.0
  0
LINE
  8
0
 62
     0
 10
56.8635
 20
29.2723
 30
0.0
 11
55.8299
 21
27.8942
 31
0.0
  0
LINE
  8
0
 62
     0
 10
55.8299
 20
27.8942
 30
0.0
 11
54.9314
 21
26.9765
 31
0.0
  0
LINE
  8
0
 62
     0
 10
54.9314
 20
26.9765
 30
0.0
 11
54.0551
 21
26.2861
 31
0.0
  0
LINE
  8
0
 62
     0
 10
54.0551
 20
26.2861
 30
0.0
 11
53.2088
 21
25.5902
 31
0.0
  0
LINE
  8
0
 62
     0
 10
53.2088
 20
25.5902
 30
0.0
 11
52.5709
 21
25.0913
 31
0.0
  0
LINE
  8
0
 62
     0
 10
52.5709
 20
25.0913
 30
0.0
 11
52.2168
 21
24.937
 31
0.0
  0
LINE
  8
0
 62
     0
 10
52.2168
 20
24.937
 30
0.0
 11
52.0968
 21
25.134
 31
0.0
  0
LINE
  8
0
 62
     0
 10
52.0968
 20
25.134
 30
0.0
 11
52.1656
 21
25.6853
 31
0.0
  0
ENDSEC
  0
EOF
