**ABCDEFGHIJKLMNOPQRSTUVWXYZabcdefghijklmnopqrstuvwxyz**************************
**PARASOLID !"#$%&'()*+,-./:;<=>?@[\]^_`{|}~0123456789**************************
**PART1;
MC=AMD64;
MC_MODEL=Intel64 Family 6 Model 158 Stepping 9, GenuineIntel;
MC_ID=unknown;
OS=Windows_NT;
OS_RELEASE=unknown;
FRU=Parasolid Version 29.0, build 201,  4-17-2017;
APPL=SOLIDWORKS 2017-2017222;
SITE=;
USER=unknown;
FORMAT=text;
GUISE=transmit;
KEY=Р.ПЗЦ.065.01-01 Заглушка;
FILE=Р.ПЗЦ.065.01-01 Заглушка.x_t;
DATE=Tue Jun 26 15:39:57 2018;
**PART2;
SCH=SCH_2900201_28101;
USFLD_SIZE=0;
**PART3;
**END_OF_HEADER*****************************************************************
T51 : TRANSMIT FILE created by modeller version 290020123 SCH_2900201_28101_1300
6203 0 12 33 CCCCCCI4 mesh1006 0 I8 polyline1008 0 CCCCCCCDI5 owner1040 0 CCCCCC
I13 boundary_mesh1006 0 I17 boundary_polyline1008 0 CCCA16 index_map_offset0 0 1
 dA9 index_map82 0 A17 node_id_index_map82 0 A20 schema_embedding_map82 0 A5 chi
ld12 0 A14 lowest_node_id0 0 1 dZ1 1657 2 3 0 0 0 0 0 0 1e3 1e-8 0 4 0 1 0 1 1 5
 6 7 0 0 0 8 9 0 0 0 0 0 0 0 81 255 2 2 804 10 1 0 0 0 0 11 0 70 11 CI9 list_typ
e0 0 1 uI10 notransmit0 0 1 lCCCDCCDI12 finger_index0 0 1 dI12 finger_block1012
 0 CZ3 0 4 T1 0 0 3 20 1 12 12 13 255 5 41 0 1 0 13 0 0 14 0 52 255 6 492 0 15 1
6 0 0 +0 -.003 0 0 1 0 .019 .707106781186548 .707106781186548 0 0 1 31 255 7 476
 0 9 17 0 0 -0 -.002 0 0 -1 0 0 0 -1 .02 19 8 CCCCCCCA5 owner12 0 Z8 45 0 1 14 0
 18 V0 16 255 9 473 0 ?19 0 20 7 0 0 1 17 255 19 0 21 19 19 0 22 9 0 0 +16 20 46
7 0 ?23 9 24 17 0 0 1 17 23 0 25 23 23 0 26 20 0 0 +16 24 69 0 ?27 20 28 29 0 0
 1 31 17 470 0 20 30 7 0 +0 -.003 0 0 -1 0 0 0 -1 .019 31 30 345 0 31 32 17 0 +-
122464679914735e-33 -867361737988404e-33 -.023 0 -1 0 0 0 -1 .0017 16 31 366 0 ?
33 34 35 30 0 0 1 31 32 285 0 36 37 30 0 +.023 -867361737988404e-33 -61232339957
3675e-34 0 -1 0 0 0 -1 .0017 16 36 306 0 ?38 39 40 32 0 0 1 31 37 225 0 41 42 32
 0 +2755455298081545e-33 -867361737988404e-33 .023 0 -1 0 0 0 -1 .0017 16 41 246
 0 ?43 44 45 37 0 0 1 31 42 176 0 46 29 37 0 +-.023 -867361737988404e-33 2816687
63803891e-32 0 -1 0 0 0 -1 .0017 16 46 186 0 ?47 48 49 42 0 0 1 31 29 88 0 24 50
 42 0 +0 -.003 0 0 -1 0 0 0 -1 .017 31 50 86 0 28 51 29 0 +0 .003 0 0 -1 0 0 0 -
1 .027 16 28 59 0 ?52 24 53 50 0 0 1 31 51 85 0 53 54 50 0 +0 -2186427939139685e
-34 0 0 -1 0 0 0 -1 .027 16 53 54 0 ?55 28 48 51 0 0 1 31 54 84 0 48 56 51 0 +0
 -1237572278751728e-33 0 0 -1 0 0 0 -1 .02 16 48 49 0 ?57 53 46 54 0 0 1 31 56 2
19 0 49 58 54 0 +-.023 .00135 281668763803891e-32 0 1 0 0 0 1 .0017 16 49 188 0
 ?59 46 44 56 0 0 1 31 58 220 0 44 60 56 0 +-.023 .003 281668763803891e-32 0 1 0
 0 0 1 .00335 16 44 187 0 ?61 49 41 58 0 0 1 31 60 279 0 45 62 58 0 +27554552980
81545e-33 .00135 .023 0 1 0 0 0 1 .0017 16 45 248 0 ?63 41 39 60 0 0 1 31 62 280
 0 39 64 60 0 +2755455298081545e-33 .003 .023 0 1 0 0 0 1 .00335 16 39 247 0 ?65
 45 36 62 0 0 1 31 64 339 0 40 66 62 0 +.023 .00135 -612323399573675e-34 0 1 0 0
 0 1 .0017 16 40 308 0 ?67 36 34 64 0 0 1 31 66 340 0 34 68 64 0 +.023 .003 -612
323399573675e-34 0 1 0 0 0 1 .00335 16 34 307 0 ?69 40 31 66 0 0 1 31 68 399 0 3
5 70 66 0 +-122464679914735e-33 .00135 -.023 0 1 0 0 0 1 .0017 16 35 368 0 ?71 3
1 72 68 0 0 1 31 70 400 0 72 73 68 0 +-122464679914735e-33 .003 -.023 0 1 0 0 0
 1 .00335 16 72 367 0 ?74 35 75 70 0 0 1 31 73 446 0 75 0 70 0 +244929359829471e
-33 .001 0 -1224646799147352e-31 1 0 -1 -1224646799147352e-31 0 .017 16 75 429 0
 ?76 72 0 73 0 0 1 17 76 0 77 76 76 0 78 75 0 0 +15 255 77 423 0 76 13 0 17 78 0
 79 78 78 0 76 75 0 0 -15 79 433 0 78 80 0 14 255 80 431 81 ?15 82 79 5 83 -0 0
 15 82 18 81 1 81 1642 84 80 85 0 0 86 87 14 15 485 86 ?0 80 88 5 6 +0 0 0 80 18
 14 82 387 89 ?80 90 91 5 92 -0 0 80 90 18 50 255 83 443 0 80 0 92 0 +2449293598
294705e-34 .001 0 -1224646799147352e-31 1 0 -1 -1224646799147352e-31 0 13 18 44
 0 0 0 0 0 0 8 13 14 13 426 93 ?94 0 95 5 96 +0 0 94 0 18 81 1 93 1645 84 13 97
 0 89 98 99 14 94 75 98 ?100 13 25 5 16 +0 0 100 13 18 15 95 113 0 27 13 77 51 2
55 96 81 0 13 101 16 0 -0 0 0 0 -1 0 .017 0 0 -1 50 101 80 0 100 102 96 0 +.017
 .003 0 0 1 0 0 0 1 50 16 82 0 94 96 6 0 +.02 -.003 0 0 -1 0 0 0 -1 14 100 67 10
3 ?104 94 105 5 101 +0 0 104 94 18 51 102 79 0 104 106 101 0 +0 0 0 0 -1 0 .027
 0 0 -1 14 104 62 107 ?108 100 109 5 102 +0 0 108 100 18 50 106 78 0 108 110 102
 0 +.027 -728107536332848e-33 0 0 -1 0 0 0 -1 14 108 57 111 ?112 104 113 5 106 +
0 0 112 104 18 51 110 77 0 112 114 106 0 +0 0 0 0 -1 0 .02 0 0 -1 14 112 52 115
 ?116 108 21 5 110 +0 0 116 108 18 51 114 216 0 116 117 110 0 +-.023 .003 281668
763803891e-32 0 1 0 .0017 0 0 1 14 116 202 118 ?119 112 120 5 114 -0 0 119 112 1
8 52 117 217 0 119 121 114 0 +-.023 .003 281668763803891e-32 0 1 0 .00335 .70710
6781186547 .707106781186548 0 0 1 14 119 207 122 ?123 116 124 5 117 -0 0 123 116
 18 51 121 276 0 123 125 117 0 +2755455298081545e-33 .003 .023 0 1 0 .0017 0 0 1
 14 123 262 126 ?127 119 128 5 121 -0 0 127 119 18 52 125 277 0 127 129 121 0 +2
755455298081545e-33 .003 .023 0 1 0 .00335 .707106781186548 .707106781186547 0 0
 1 14 127 267 130 ?131 123 132 5 125 -0 0 131 123 18 51 129 336 0 131 133 125 0
 +.023 .003 -612323399573675e-34 0 1 0 .0017 0 0 1 14 131 322 134 ?135 127 136 5
 129 -0 0 135 127 18 52 133 337 0 135 137 129 0 +.023 .003 -612323399573675e-34
 0 1 0 .00335 .707106781186547 .707106781186548 0 0 1 14 135 327 138 ?90 131 139
 5 133 -0 0 90 131 18 51 137 396 0 90 92 133 0 +-122464679914735e-33 .003 -.023
 0 1 0 .0017 0 0 1 14 90 382 140 ?82 135 141 5 137 -0 0 82 135 18 52 92 397 0 82
 83 137 0 +-122464679914735e-33 .003 -.023 0 1 0 .00335 .707106781186548 .707106
781186547 0 0 1 81 1 140 1657 84 90 142 0 138 0 143 15 141 385 0 33 90 144 17 33
 0 141 33 33 0 145 31 0 0 +15 144 386 0 71 90 0 17 71 0 144 71 71 0 146 35 0 0 +
17 146 0 91 146 146 0 71 35 0 0 -15 91 390 0 146 82 147 15 147 391 0 74 82 0 17
 74 0 147 74 74 0 148 72 0 0 +17 148 0 105 148 148 0 74 72 0 0 -15 105 355 0 148
 100 149 15 149 295 0 150 100 151 17 150 0 149 150 150 0 69 34 0 0 -15 151 235 0
 152 100 153 17 152 0 151 152 152 0 65 39 0 0 -15 153 164 0 154 100 155 17 154 0
 153 154 154 0 61 44 0 0 -15 155 66 0 156 100 0 17 156 0 155 156 156 0 52 28 0 0
 -17 52 0 109 52 52 0 156 28 0 0 +15 109 115 0 52 104 157 15 157 61 0 158 104 0
 17 158 0 157 158 158 0 55 53 0 0 -17 55 0 159 55 55 0 158 53 0 0 +15 159 116 0
 55 108 160 15 160 56 0 161 108 0 17 161 0 160 161 161 0 57 48 0 0 -17 57 0 162
 57 57 0 161 48 0 0 +15 162 117 0 57 112 0 17 61 0 163 61 61 0 154 44 0 0 +15 16
3 211 0 61 119 0 17 65 0 164 65 65 0 152 39 0 0 +15 164 271 0 65 127 0 17 69 0 1
65 69 69 0 150 34 0 0 +15 165 331 0 69 135 0 17 145 0 113 145 145 0 33 31 0 0 -1
5 113 344 0 145 108 166 15 166 284 0 167 108 168 17 167 0 166 167 167 0 38 36 0
 0 -15 168 224 0 169 108 170 17 169 0 168 169 169 0 43 41 0 0 -15 170 175 0 171
 108 159 17 171 0 170 171 171 0 47 46 0 0 -17 47 0 120 47 47 0 171 46 0 0 +15 12
0 205 0 47 116 172 15 172 206 0 59 116 0 17 59 0 172 59 59 0 173 49 0 0 +17 173
 0 124 173 173 0 59 49 0 0 -15 124 210 0 173 119 163 17 43 0 128 43 43 0 169 41
 0 0 +15 128 265 0 43 123 174 15 174 266 0 63 123 0 17 63 0 174 63 63 0 175 45 0
 0 +17 175 0 132 175 175 0 63 45 0 0 -15 132 270 0 175 127 164 17 38 0 136 38 38
 0 167 36 0 0 +15 136 325 0 38 131 176 15 176 326 0 67 131 0 17 67 0 176 67 67 0
 177 40 0 0 +17 177 0 139 177 177 0 67 40 0 0 -15 139 330 0 177 135 165 80 255 1
 84 178 179 9000 1 1 1 1 1 1 1 1 0 FFFFTFTFFFFFFF1 81 1 142 1603 180 90 0 140 18
1 182 183 81 1 138 1656 84 135 181 0 134 140 184 82 255 1 143 -501350069 81 1 18
1 1602 180 135 0 138 185 142 186 81 1 134 1655 84 131 185 0 130 138 187 82 1 184
 -482803381 81 1 185 1601 180 131 0 134 188 181 189 81 1 130 1654 84 127 188 0 1
26 134 190 82 1 187 -482213557 81 1 188 1600 180 127 0 130 191 185 192 81 1 126
 1653 84 123 191 0 122 130 193 82 1 190 -463732405 81 1 191 1599 180 123 0 126 1
94 188 195 81 1 122 1652 84 119 194 0 118 126 196 82 1 193 -463142581 81 1 194 1
598 180 119 0 122 197 191 198 81 1 118 1651 84 116 197 0 115 122 199 82 1 196 -4
44661429 81 1 197 1597 180 116 0 118 200 194 201 81 1 115 1650 84 112 200 0 111
 118 202 82 1 199 -444071605 81 1 200 1596 180 112 0 115 203 197 204 81 1 111 16
49 84 108 203 0 107 115 205 82 1 202 -524877487 81 1 203 1595 180 108 0 111 206
 200 207 81 1 107 1648 84 104 206 0 103 111 208 82 1 205 -524287669 81 1 206 159
4 180 104 0 107 209 203 210 81 1 103 1647 84 100 209 0 98 107 211 82 1 208 -5236
97846 81 1 209 1593 180 100 0 103 212 206 213 81 1 98 1646 84 94 212 0 93 103 21
4 82 1 211 -523108017 81 1 212 1592 180 94 0 98 97 209 215 82 1 214 -522190511 8
0 1 180 0 216 8001 0 0 0 0 3 5 0 0 0 FFFFTFTFFFFFFF2 81 1 97 1591 180 13 0 93 0
 212 217 83 255 3 215 .1019607843137254 .1019607843137254 .1019607843137254 83 3
 217 .1019607843137254 .1019607843137254 .1019607843137254 79 255 15 216 SDL/TYS
A_COLOUR83 3 213 .1019607843137254 .1019607843137254 .1019607843137254 83 3 210
 .1019607843137254 .1019607843137254 .1019607843137254 83 3 207 .101960784313725
4 .1019607843137254 .1019607843137254 83 3 204 .1019607843137254 .10196078431372
54 .1019607843137254 83 3 201 .1019607843137254 .1019607843137254 .1019607843137
254 83 3 198 .1019607843137254 .1019607843137254 .1019607843137254 83 3 195 .101
9607843137254 .1019607843137254 .1019607843137254 83 3 192 .1019607843137254 .10
19607843137254 .1019607843137254 83 3 189 .1019607843137254 .1019607843137254 .1
019607843137254 83 3 186 .1019607843137254 .1019607843137254 .1019607843137254 8
1 1 182 1604 180 82 0 89 142 85 218 83 3 183 .1019607843137254 .1019607843137254
 .1019607843137254 81 1 89 1644 84 82 182 0 86 93 219 81 1 85 1605 180 80 0 81 1
82 220 221 83 3 218 .1019607843137254 .1019607843137254 .1019607843137254 81 1 2
20 1606 180 15 0 86 85 0 222 83 3 221 .1019607843137254 .1019607843137254 .10196
07843137254 81 1 86 1643 84 15 220 0 81 89 223 83 3 222 .1019607843137254 .10196
07843137254 .1019607843137254 82 1 223 710738257 82 1 219 -501939893 79 14 179 S
WEntUnchanged15 21 474 0 19 112 162 17 27 0 95 27 27 0 224 24 0 0 +17 224 0 225
 224 224 0 27 24 0 0 -15 225 74 0 224 94 0 15 25 468 0 23 94 225 82 1 99 -942404
33 15 88 486 0 22 15 226 17 22 0 88 22 22 0 19 9 0 0 -15 226 487 0 26 15 0 17 26
 0 226 26 26 0 23 20 0 0 -82 1 87 -97189553 19 14 40 0 1 0 8 5 S0 74 4 CI16 inde
x_map_offset0 0 1 dCCZ20 12 3 0 0 140 2 220 0 0 0 0 0 0 0 0 0 0 0 0 0 0 0 0 0 80
 2 10 227 228 8004 0 0 0 0 3 5 0 0 0 FFTFFFFFFFFFFF2 3 83 1 11 1120 79 16 228 SD
L/TYSA_DENSITY1 0 
