**ABCDEFGHIJKLMNOPQRSTUVWXYZabcdefghijklmnopqrstuvwxyz**************************
**PARASOLID !"#$%&'()*+,-./:;<=>?@[\]^_`{|}~0123456789**************************
**PART1;
MC=AMD64;
MC_MODEL=Intel64 Family 6 Model 158 Stepping 9, GenuineIntel;
MC_ID=unknown;
OS=Windows_NT;
OS_RELEASE=unknown;
FRU=Parasolid Version 29.0, build 201,  4-17-2017;
APPL=SOLIDWORKS 2017-2017222;
SITE=;
USER=unknown;
FORMAT=text;
GUISE=transmit;
KEY=Р.ПЗЦ.041.03-00 Стакан вар 2 толще;
FILE=Р.ПЗЦ.041.03-00 Стакан вар 2 толще.x_t;
DATE=Thu Nov 22 19:43:02 2018;
**PART2;
SCH=SCH_2900201_28101;
USFLD_SIZE=0;
**PART3;
**END_OF_HEADER*****************************************************************
T51 : TRANSMIT FILE created by modeller version 290020123 SCH_2900201_28101_1300
6203 0 12 33 CCCCCCI4 mesh1006 0 I8 polyline1008 0 CCCCCCCDI5 owner1040 0 CCCCCC
I13 boundary_mesh1006 0 I17 boundary_polyline1008 0 CCCA16 index_map_offset0 0 1
 dA9 index_map82 0 A17 node_id_index_map82 0 A20 schema_embedding_map82 0 A5 chi
ld12 0 A14 lowest_node_id0 0 1 dZ1 1589 0 2 0 0 0 0 0 0 1e3 1e-8 0 3 0 1 0 1 1 4
 5 6 0 0 0 7 8 0 0 0 0 0 0 0 70 11 CI9 list_type0 0 1 uI10 notransmit0 0 1 lCCCD
CCDI12 finger_index0 0 1 dI12 finger_block1012 0 CZ2 0 4 T1 0 0 2 20 1 9 9 13 25
5 4 41 0 1 0 10 0 0 11 0 52 255 5 648 0 12 13 0 0 -.053 0 0 1 0 0 .0265 .7071067
81186546 .707106781186549 0 0 -1 31 255 6 618 0 8 14 0 0 +.053 0 0 -1 0 0 0 0 1
 .0265 19 8 CCCCCCCA5 owner12 0 Z7 45 0 1 11 0 15 V0 16 255 8 615 0 ?16 0 17 6 0
 0 1 17 255 16 0 18 16 16 0 19 8 0 0 +16 17 609 0 ?20 8 21 14 0 0 1 17 20 0 22 2
0 20 0 23 17 0 0 +16 21 603 0 ?24 17 25 26 0 0 1 31 14 612 0 17 26 6 0 +15358629
8822682e-32 0 0 1 0 0 0 0 -1 .0265 31 26 606 0 21 27 14 0 -.002 0 0 1 0 0 0 0 -1
 .0245 31 27 600 0 25 28 26 0 -.051 0 0 -1 0 0 0 0 1 .0245 16 25 597 0 ?29 21 30
 27 0 0 1 31 28 572 0 30 31 27 0 -.008 0 0 -1 0 0 0 0 1 .0295 16 30 569 0 ?32 25
 33 28 0 0 1 31 31 566 0 33 34 28 0 +.005 0 0 -1 0 0 0 0 1 .0325 16 33 563 0 ?35
 30 36 31 0 0 1 31 34 488 0 37 38 31 0 +.005 .0375 1075169526830564e-34 -1 0 0 0
 0 1 .00225 16 37 498 0 ?39 40 41 34 0 0 1 31 38 426 0 42 43 34 0 +.005 .01875 -
.03247595264191645 -1 0 0 0 0 1 .00225 16 42 436 0 ?44 45 46 38 0 0 1 31 43 352
 0 47 48 38 0 +.005 -.01875 -.03247595264191645 -1 0 0 0 0 1 .00225 16 47 374 0
 ?49 50 51 43 0 0 1 31 48 290 0 52 53 43 0 +.005 -.0375 0 -1 0 0 0 0 1 .00225 16
 52 312 0 ?54 55 56 48 0 0 1 31 53 240 0 57 58 48 0 +.005 -.01875 .0324759526419
1645 -1 0 0 0 0 1 .00225 16 57 250 0 ?59 60 61 53 0 0 1 31 58 178 0 62 63 53 0 +
.005 .01875 .03247595264191645 -1 0 0 0 0 1 .00225 16 62 188 0 ?64 65 66 58 0 0
 1 31 63 88 0 36 67 58 0 +867361737988404e-33 0 0 -1 0 0 0 0 1 .0425 16 36 69 0
 ?68 33 69 63 0 0 1 31 67 85 0 69 70 63 0 +.053 0 0 -1 0 0 0 0 1 .0295 16 69 54
 0 ?71 36 65 67 0 0 1 31 70 83 0 65 72 67 0 +.005 0 0 -1 0 0 0 0 1 .0425 16 65 4
7 0 ?73 69 62 70 0 0 1 31 72 222 0 66 74 70 0 +.00215 .01875 .03247595264191645
 -1 0 0 0 0 1 .00225 16 66 191 0 ?75 62 60 72 0 0 1 31 74 223 0 60 76 72 0 +0 .0
1875 .03247595264191645 -1 0 0 0 0 1 .0044 16 60 189 0 ?77 66 57 74 0 0 1 31 76
 284 0 61 78 74 0 +.00215 -.01875 .03247595264191645 -1 0 0 0 0 1 .00225 16 61 2
53 0 ?79 57 55 76 0 0 1 31 78 285 0 55 80 76 0 +0 -.01875 .03247595264191645 -1
 0 0 0 0 1 .0044 16 55 251 0 ?81 61 52 78 0 0 1 31 80 346 0 56 82 78 0 +.00215 -
.0375 0 -1 0 0 0 0 1 .00225 16 56 315 0 ?83 52 50 80 0 0 1 31 82 347 0 50 84 80
 0 +0 -.0375 0 -1 0 0 0 0 1 .0044 16 50 313 0 ?85 56 47 82 0 0 1 31 84 408 0 51
 86 82 0 +.00215 -.01875 -.03247595264191645 -1 0 0 0 0 1 .00225 16 51 377 0 ?87
 47 45 84 0 0 1 31 86 409 0 45 88 84 0 +0 -.01875 -.03247595264191645 -1 0 0 0 0
 1 .0044 16 45 375 0 ?89 51 42 86 0 0 1 31 88 470 0 46 90 86 0 +.00215 .01875 -.
03247595264191645 -1 0 0 0 0 1 .00225 16 46 439 0 ?91 42 40 88 0 0 1 31 90 471 0
 40 92 88 0 +0 .01875 -.03247595264191645 -1 0 0 0 0 1 .0044 16 40 437 0 ?93 46
 37 90 0 0 1 31 92 532 0 41 94 90 0 +.00215 .0375 1075169526830564e-34 -1 0 0 0
 0 1 .00225 16 41 501 0 ?95 37 96 92 0 0 1 31 94 533 0 96 0 92 0 +0 .0375 107516
9526830564e-34 -1 0 0 0 0 1 .0044 16 96 499 0 ?97 41 0 94 0 0 1 17 97 0 98 97 97
 0 99 96 0 0 +15 255 98 524 0 97 100 0 17 99 0 101 99 99 0 97 96 0 0 -15 101 474
 0 99 102 103 14 255 102 72 104 ?105 10 22 4 106 -0 0 105 10 15 15 103 412 0 107
 102 108 17 107 0 103 107 107 0 93 40 0 0 -15 108 362 0 109 102 110 17 109 0 108
 109 109 0 89 45 0 0 -15 110 300 0 111 102 112 17 111 0 110 111 111 0 85 50 0 0
 -15 112 226 0 113 102 114 17 113 0 112 113 113 0 81 55 0 0 -15 114 164 0 115 10
2 116 17 115 0 114 115 115 0 77 60 0 0 -15 116 71 0 68 102 0 17 68 0 116 68 68 0
 117 36 0 0 +17 117 0 118 117 117 0 68 36 0 0 -15 118 118 0 117 10 119 14 10 75
 120 ?102 0 118 4 121 -0 0 102 0 15 15 119 74 0 73 10 0 17 73 0 119 73 73 0 122
 65 0 0 +17 122 0 123 122 122 0 73 65 0 0 -15 123 113 0 122 124 0 14 124 52 125
 ?126 127 128 4 129 -0 0 126 127 15 81 255 1 125 1571 130 124 131 0 120 132 133
 14 126 192 132 ?134 124 135 4 136 -0 0 134 124 15 14 127 57 137 ?124 138 139 4
 140 -0 0 124 138 15 15 128 564 0 35 124 141 50 255 129 77 0 124 136 140 0 +.005
 .0295 0 -1 0 0 0 0 1 13 15 44 0 0 0 0 0 0 7 10 51 255 136 219 0 126 142 129 0 +
0 .01875 .03247595264191645 -1 0 0 .00225 0 0 1 51 140 78 0 127 129 143 0 -0 0 0
 -1 0 0 .0295 0 0 1 50 143 79 0 138 140 144 0 +.053 .0245 0 -1 0 0 0 0 1 14 138
 62 145 ?127 105 18 4 143 -0 0 127 105 15 51 144 80 0 105 143 106 0 +0 0 0 -1 0
 0 .0245 0 0 1 14 105 67 146 ?138 102 147 4 144 -0 0 138 102 15 50 106 81 0 102
 144 121 0 +153586298822682e-32 .0425 0 1 0 0 0 0 -1 51 121 82 0 10 106 148 0 -0
 0 0 -1 0 0 .0425 0 0 1 54 255 148 588 0 149 121 13 0 +.008 0 0 -1 0 0 .0325 .00
3 0 0 1 14 149 581 150 ?151 100 152 4 148 -0 0 151 100 15 52 13 635 0 151 148 5
 0 -.002 0 0 -1 0 0 .0245 .707106781186547 .707106781186548 0 0 1 14 151 628 153
 ?12 149 154 4 13 +0 0 12 149 15 81 1 153 1577 130 151 155 0 150 156 157 14 12 6
41 156 ?0 151 158 4 5 +0 0 0 151 15 15 154 629 0 23 151 159 17 23 0 154 23 23 0
 20 17 0 0 -15 159 630 0 160 151 0 17 160 0 159 160 160 0 24 21 0 0 -17 24 0 147
 24 24 0 160 21 0 0 +15 147 604 0 24 105 161 15 161 598 0 29 105 0 17 29 0 161 2
9 29 0 162 25 0 0 +17 162 0 158 162 162 0 29 25 0 0 -15 158 642 0 162 12 163 15
 163 643 0 19 12 0 17 19 0 163 19 19 0 16 8 0 0 -81 1 156 1578 130 12 164 0 153
 165 166 80 255 1 130 167 168 9000 1 1 1 1 1 1 1 1 0 FFFFTFTFFFFFFF1 81 1 164 15
24 169 12 0 156 155 0 170 81 1 165 1579 130 100 171 0 156 172 173 82 255 1 166 -
1967062650 14 100 520 165 ?149 174 175 4 176 -0 0 149 174 15 81 1 171 1521 169 1
00 0 165 177 178 179 81 1 172 1580 130 174 177 0 165 180 181 82 1 173 -209734822
0 14 174 502 172 ?100 182 183 4 184 -0 0 100 182 15 81 1 177 1520 169 174 0 172
 185 171 186 81 1 180 1581 130 182 185 0 172 187 188 82 1 181 -1979252348 14 182
 458 180 ?174 189 190 4 191 -0 0 174 189 15 81 1 185 1519 169 182 0 180 192 177
 193 81 1 187 1582 130 189 192 0 180 194 195 82 1 188 -2078211708 14 189 440 187
 ?182 196 197 4 198 -0 0 182 196 15 81 1 192 1518 169 189 0 187 199 185 200 81 1
 194 1583 130 196 199 0 187 201 202 82 1 195 -1982332540 14 196 396 194 ?189 203
 204 4 205 -0 0 189 203 15 81 1 199 1517 169 196 0 194 206 192 207 81 1 201 1584
 130 203 206 0 194 208 209 82 1 202 -2059140732 14 203 378 201 ?196 210 211 4 21
2 -0 0 196 210 15 81 1 206 1516 169 203 0 201 213 199 214 81 1 208 1585 130 210
 213 0 201 215 216 82 1 209 -1986330236 14 210 334 208 ?203 217 218 4 219 -0 0 2
03 217 15 81 1 213 1515 169 210 0 208 220 206 221 81 1 215 1586 130 217 220 0 20
8 222 223 82 1 216 -2040200828 14 217 316 215 ?210 224 225 4 226 -0 0 210 224 15
 81 1 220 1514 169 217 0 215 227 213 228 81 1 222 1587 130 224 227 0 215 229 230
 82 1 223 -1989410428 14 224 272 222 ?217 231 232 4 233 -0 0 217 231 15 81 1 227
 1513 169 224 0 222 234 220 235 81 1 229 1588 130 231 234 0 222 236 237 82 1 230
 -2021129852 14 231 254 229 ?224 134 238 4 239 -0 0 224 134 15 81 1 234 1512 169
 231 0 229 240 227 241 81 1 236 1589 130 134 240 0 229 0 242 82 1 237 -199157311
6 14 134 210 236 ?231 126 243 4 142 -0 0 231 126 15 81 1 240 1511 169 134 0 236
 244 234 245 82 1 242 -2002058876 80 1 169 0 246 8001 0 0 0 0 3 5 0 0 0 FFFFTFTF
FFFFFF2 81 1 244 1510 169 126 0 132 131 240 247 83 255 3 245 .1019607843137254 .
1019607843137254 .1019607843137254 81 1 132 1572 130 126 244 0 125 137 248 81 1
 131 1509 169 124 0 125 249 244 250 83 3 247 .1019607843137254 .1019607843137254
 .1019607843137254 81 1 249 1508 169 127 0 137 251 131 252 83 3 250 .10196078431
37254 .1019607843137254 .1019607843137254 81 1 137 1573 130 127 249 0 132 145 25
3 81 1 251 1507 169 138 0 145 254 249 255 83 3 252 .1019607843137254 .1019607843
137254 .1019607843137254 81 1 145 1574 130 138 251 0 137 146 256 81 1 254 1506 1
69 105 0 146 257 251 258 83 3 255 .1019607843137254 .1019607843137254 .101960784
3137254 81 1 146 1575 130 105 254 0 145 150 259 81 1 257 1505 169 102 0 104 260
 254 261 83 3 258 .1019607843137254 .1019607843137254 .1019607843137254 81 1 104
 1569 130 102 257 0 0 120 262 81 1 260 1504 169 10 0 120 0 257 263 83 3 261 .101
9607843137254 .1019607843137254 .1019607843137254 81 1 120 1570 130 10 260 0 104
 125 264 83 3 263 .1019607843137254 .1019607843137254 .1019607843137254 82 1 264
 -2117467773 82 1 262 -2117795450 81 1 150 1576 130 149 178 0 146 153 265 82 1 2
59 -2118385274 81 1 178 1522 169 149 0 150 171 155 266 82 1 265 -1975320187 81 1
 155 1523 169 151 0 153 178 164 267 83 3 266 .1019607843137254 .1019607843137254
 .1019607843137254 83 3 267 .1019607843137254 .1019607843137254 .101960784313725
4 82 1 256 -2118975098 82 1 253 -2119564923 82 1 248 -1994653308 79 255 15 246 S
DL/TYSA_COLOUR15 243 213 0 268 134 269 52 142 220 0 134 239 136 0 +0 .01875 .032
47595264191645 -1 0 0 .0044 .707106781186547 .707106781186548 0 0 1 51 239 281 0
 231 233 142 0 +0 -.01875 .03247595264191645 -1 0 0 .00225 0 0 1 52 233 282 0 22
4 226 239 0 +0 -.01875 .03247595264191645 -1 0 0 .0044 .707106781186547 .7071067
81186548 0 0 1 51 226 343 0 217 219 233 0 +0 -.0375 0 -1 0 0 .00225 0 0 1 52 219
 344 0 210 212 226 0 +0 -.0375 0 -1 0 0 .0044 .707106781186548 .707106781186548
 0 0 1 51 212 405 0 203 205 219 0 +0 -.01875 -.03247595264191645 -1 0 0 .00225 0
 0 1 52 205 406 0 196 198 212 0 +0 -.01875 -.03247595264191645 -1 0 0 .0044 .707
106781186547 .707106781186548 0 0 1 51 198 467 0 189 191 205 0 +0 .01875 -.03247
595264191645 -1 0 0 .00225 0 0 1 52 191 468 0 182 184 198 0 +0 .01875 -.03247595
264191645 -1 0 0 .0044 .707106781186547 .707106781186548 0 0 1 51 184 529 0 174
 176 191 0 +0 .0375 1075169526830564e-34 -1 0 0 .00225 0 0 1 52 176 530 0 100 0
 184 0 +0 .0375 1075169526830564e-34 -1 0 0 .0044 .707106781186548 .707106781186
548 0 0 1 17 268 0 243 268 268 0 75 66 0 0 -15 269 214 0 77 134 0 17 77 0 269 77
 77 0 115 60 0 0 +17 75 0 135 75 75 0 268 66 0 0 +15 135 195 0 75 126 270 15 270
 196 0 271 126 0 17 271 0 270 271 271 0 64 62 0 0 -17 64 0 272 64 64 0 271 62 0
 0 +15 272 176 0 64 124 123 83 3 241 .1019607843137254 .1019607843137254 .101960
7843137254 15 238 257 0 79 231 273 17 79 0 238 79 79 0 274 61 0 0 +15 273 258 0
 275 231 0 17 275 0 273 275 275 0 59 57 0 0 -17 59 0 276 59 59 0 275 57 0 0 +15
 276 238 0 59 124 272 17 274 0 232 274 274 0 79 61 0 0 -15 232 275 0 274 224 277
 15 277 276 0 81 224 0 17 81 0 277 81 81 0 113 55 0 0 +83 3 235 .101960784313725
4 .1019607843137254 .1019607843137254 83 3 228 .1019607843137254 .10196078431372
54 .1019607843137254 15 225 319 0 83 217 278 17 83 0 225 83 83 0 279 56 0 0 +15
 278 320 0 280 217 0 17 280 0 278 280 280 0 54 52 0 0 -17 54 0 281 54 54 0 280 5
2 0 0 +15 281 288 0 54 124 276 17 279 0 218 279 279 0 83 56 0 0 -15 218 337 0 27
9 210 282 15 282 338 0 85 210 0 17 85 0 282 85 85 0 111 50 0 0 +83 3 221 .101960
7843137254 .1019607843137254 .1019607843137254 83 3 214 .1019607843137254 .10196
07843137254 .1019607843137254 15 211 381 0 87 203 283 17 87 0 211 87 87 0 284 51
 0 0 +15 283 382 0 285 203 0 17 285 0 283 285 285 0 49 47 0 0 -17 49 0 286 49 49
 0 285 47 0 0 +15 286 350 0 49 124 281 17 284 0 204 284 284 0 87 51 0 0 -15 204
 399 0 284 196 287 15 287 400 0 89 196 0 17 89 0 287 89 89 0 109 45 0 0 +83 3 20
7 .1019607843137254 .1019607843137254 .1019607843137254 83 3 200 .10196078431372
54 .1019607843137254 .1019607843137254 15 197 443 0 91 189 288 17 91 0 197 91 91
 0 289 46 0 0 +15 288 444 0 290 189 0 17 290 0 288 290 290 0 44 42 0 0 -17 44 0
 291 44 44 0 290 42 0 0 +15 291 424 0 44 124 286 17 289 0 190 289 289 0 91 46 0
 0 -15 190 461 0 289 182 292 15 292 462 0 93 182 0 17 93 0 292 93 93 0 107 40 0
 0 +83 3 193 .1019607843137254 .1019607843137254 .1019607843137254 83 3 186 .101
9607843137254 .1019607843137254 .1019607843137254 15 183 505 0 95 174 293 17 95
 0 183 95 95 0 294 41 0 0 +15 293 506 0 295 174 0 17 295 0 293 295 295 0 39 37 0
 0 -17 39 0 141 39 39 0 295 37 0 0 +15 141 486 0 39 124 291 17 294 0 175 294 294
 0 95 41 0 0 -15 175 523 0 294 100 98 83 3 179 .1019607843137254 .10196078431372
54 .1019607843137254 83 3 170 .1019607843137254 .1019607843137254 .1019607843137
254 79 14 168 SWEntUnchanged82 1 157 -1968307834 15 152 582 0 296 149 297 17 296
 0 152 296 296 0 32 30 0 0 -15 297 583 0 298 149 0 17 298 0 297 298 298 0 35 33
 0 0 -17 35 0 128 35 35 0 298 33 0 0 +17 32 0 139 32 32 0 296 30 0 0 +15 139 570
 0 32 127 299 15 299 56 0 71 127 0 17 71 0 299 71 71 0 300 69 0 0 +17 300 0 301
 300 300 0 71 69 0 0 -15 301 115 0 300 138 0 15 18 616 0 16 138 301 82 1 133 -21
20154747 15 22 610 0 20 102 101 19 11 40 0 1 0 7 4 S0 74 4 CI16 index_map_offset
0 0 1 dCCZ20 9 2 0 0 236 164 0 0 0 0 0 0 0 0 0 0 0 0 0 0 0 0 0 0 1 0 
