  0
SECTION
  2
HEADER
  9
$ACADVER
  1
AC1009
  9
$EXTMIN
 10
0.0
 20
0.0
 30
0.0
  9
$EXTMAX
 10
1000.0
 20
1000.0
 30
0.0
  9
$FILLMODE
 70
 0
  9
$SPLFRAME
 70
 1
  0
ENDSEC
  0
SECTION
  2
TABLES
  0
TABLE
  2
LAYER
 70
1
  0
LAYER
  2
0
 70
     0
 62
     7
  6
CONTINUOUS
  0
ENDTAB
  0
ENDSEC
  0
SECTION
  2
ENTITIES
  0
LINE
  8
0
 62
     0
 10
52.6881
 20
1.0666
 30
0.0
 11
44.6017
 21
2.5287
 31
0.0
  0
LINE
  8
0
 62
     0
 10
44.6017
 20
2.5287
 30
0.0
 11
36.9164
 21
5.12078
 31
0.0
  0
LINE
  8
0
 62
     0
 10
36.9164
 20
5.12078
 30
0.0
 11
29.7339
 21
8.7588
 31
0.0
  0
LINE
  8
0
 62
     0
 10
29.7339
 20
8.7588
 30
0.0
 11
23.1579
 21
13.3601
 31
0.0
  0
LINE
  8
0
 62
     0
 10
23.1579
 20
13.3601
 30
0.0
 11
17.2916
 21
18.8391
 31
0.0
  0
LINE
  8
0
 62
     0
 10
17.2916
 20
18.8391
 30
0.0
 11
12.2384
 21
25.1147
 31
0.0
  0
LINE
  8
0
 62
     0
 10
12.2384
 20
25.1147
 30
0.0
 11
8.10147
 21
32.1028
 31
0.0
  0
LINE
  8
0
 62
     0
 10
8.10147
 20
32.1028
 30
0.0
 11
4.98299
 21
39.7178
 31
0.0
  0
LINE
  8
0
 62
     0
 10
4.98299
 20
39.7178
 30
0.0
 11
3.63802
 21
44.2323
 31
0.0
  0
LINE
  8
0
 62
     0
 10
3.63802
 20
44.2323
 30
0.0
 11
2.82774
 21
48.1736
 31
0.0
  0
LINE
  8
0
 62
     0
 10
2.82774
 20
48.1736
 30
0.0
 11
2.43086
 21
52.3339
 31
0.0
  0
LINE
  8
0
 62
     0
 10
2.43086
 20
52.3339
 30
0.0
 11
2.33164
 21
57.5028
 31
0.0
  0
LINE
  8
0
 62
     0
 10
2.33164
 20
57.5028
 30
0.0
 11
2.45842
 21
62.6057
 31
0.0
  0
LINE
  8
0
 62
     0
 10
2.45842
 20
62.6057
 30
0.0
 11
2.8925
 21
66.8196
 31
0.0
  0
LINE
  8
0
 62
     0
 10
2.8925
 20
66.8196
 30
0.0
 11
3.74001
 21
70.841
 31
0.0
  0
LINE
  8
0
 62
     0
 10
3.74001
 20
70.841
 30
0.0
 11
5.11253
 21
75.3664
 31
0.0
  0
LINE
  8
0
 62
     0
 10
5.11253
 20
75.3664
 30
0.0
 11
7.87548
 21
82.1009
 31
0.0
  0
LINE
  8
0
 62
     0
 10
7.87548
 20
82.1009
 30
0.0
 11
11.4915
 21
88.3846
 31
0.0
  0
LINE
  8
0
 62
     0
 10
11.4915
 20
88.3846
 30
0.0
 11
15.8778
 21
94.1447
 31
0.0
  0
LINE
  8
0
 62
     0
 10
15.8778
 20
94.1447
 30
0.0
 11
20.9558
 21
99.3112
 31
0.0
  0
LINE
  8
0
 62
     0
 10
20.9558
 20
99.3112
 30
0.0
 11
26.6402
 21
103.808
 31
0.0
  0
LINE
  8
0
 62
     0
 10
26.6402
 20
103.808
 30
0.0
 11
32.8524
 21
107.563
 31
0.0
  0
LINE
  8
0
 62
     0
 10
32.8524
 20
107.563
 30
0.0
 11
39.5111
 21
110.503
 31
0.0
  0
LINE
  8
0
 62
     0
 10
39.5111
 20
110.503
 30
0.0
 11
46.5349
 21
112.556
 31
0.0
  0
LINE
  8
0
 62
     0
 10
46.5349
 20
112.556
 30
0.0
 11
53.1178
 21
113.6
 31
0.0
  0
LINE
  8
0
 62
     0
 10
53.1178
 20
113.6
 30
0.0
 11
59.72
 21
113.852
 31
0.0
  0
LINE
  8
0
 62
     0
 10
59.72
 20
113.852
 30
0.0
 11
66.2753
 21
113.328
 31
0.0
  0
LINE
  8
0
 62
     0
 10
66.2753
 20
113.328
 30
0.0
 11
72.7191
 21
112.045
 31
0.0
  0
LINE
  8
0
 62
     0
 10
72.7191
 20
112.045
 30
0.0
 11
78.9852
 21
110.021
 31
0.0
  0
LINE
  8
0
 62
     0
 10
78.9852
 20
110.021
 30
0.0
 11
85.0085
 21
107.272
 31
0.0
  0
LINE
  8
0
 62
     0
 10
85.0085
 20
107.272
 30
0.0
 11
90.7217
 21
103.816
 31
0.0
  0
LINE
  8
0
 62
     0
 10
90.7217
 20
103.816
 30
0.0
 11
96.0632
 21
99.6693
 31
0.0
  0
LINE
  8
0
 62
     0
 10
96.0632
 20
99.6693
 30
0.0
 11
99.894
 21
95.9817
 31
0.0
  0
LINE
  8
0
 62
     0
 10
99.894
 20
95.9817
 30
0.0
 11
103.306
 21
92.0048
 31
0.0
  0
LINE
  8
0
 62
     0
 10
103.306
 20
92.0048
 30
0.0
 11
106.295
 21
87.7715
 31
0.0
  0
LINE
  8
0
 62
     0
 10
106.295
 20
87.7715
 30
0.0
 11
108.857
 21
83.3134
 31
0.0
  0
LINE
  8
0
 62
     0
 10
108.857
 20
83.3134
 30
0.0
 11
110.988
 21
78.668
 31
0.0
  0
LINE
  8
0
 62
     0
 10
110.988
 20
78.668
 30
0.0
 11
112.685
 21
73.8671
 31
0.0
  0
LINE
  8
0
 62
     0
 10
112.685
 20
73.8671
 30
0.0
 11
113.942
 21
68.9434
 31
0.0
  0
LINE
  8
0
 62
     0
 10
113.942
 20
68.9434
 30
0.0
 11
114.758
 21
63.9329
 31
0.0
  0
LINE
  8
0
 62
     0
 10
114.758
 20
63.9329
 30
0.0
 11
115.125
 21
58.8656
 31
0.0
  0
LINE
  8
0
 62
     0
 10
115.125
 20
58.8656
 30
0.0
 11
115.043
 21
53.7792
 31
0.0
  0
LINE
  8
0
 62
     0
 10
115.043
 20
53.7792
 30
0.0
 11
114.505
 21
48.7041
 31
0.0
  0
LINE
  8
0
 62
     0
 10
114.505
 20
48.7041
 30
0.0
 11
113.51
 21
43.6757
 31
0.0
  0
LINE
  8
0
 62
     0
 10
113.51
 20
43.6757
 30
0.0
 11
112.051
 21
38.7269
 31
0.0
  0
LINE
  8
0
 62
     0
 10
112.051
 20
38.7269
 30
0.0
 11
110.127
 21
33.8915
 31
0.0
  0
LINE
  8
0
 62
     0
 10
110.127
 20
33.8915
 30
0.0
 11
107.732
 21
29.2034
 31
0.0
  0
LINE
  8
0
 62
     0
 10
107.732
 20
29.2034
 30
0.0
 11
104.863
 21
24.6944
 31
0.0
  0
LINE
  8
0
 62
     0
 10
104.863
 20
24.6944
 30
0.0
 11
103.623
 21
23.0725
 31
0.0
  0
LINE
  8
0
 62
     0
 10
103.623
 20
23.0725
 30
0.0
 11
101.998
 21
21.1308
 31
0.0
  0
LINE
  8
0
 62
     0
 10
101.998
 20
21.1308
 30
0.0
 11
100.198
 21
19.1161
 31
0.0
  0
LINE
  8
0
 62
     0
 10
100.198
 20
19.1161
 30
0.0
 11
98.4331
 21
17.2696
 31
0.0
  0
LINE
  8
0
 62
     0
 10
98.4331
 20
17.2696
 30
0.0
 11
93.7024
 21
13.0321
 31
0.0
  0
LINE
  8
0
 62
     0
 10
93.7024
 20
13.0321
 30
0.0
 11
88.5885
 21
9.39133
 31
0.0
  0
LINE
  8
0
 62
     0
 10
88.5885
 20
9.39133
 30
0.0
 11
83.1413
 21
6.36379
 31
0.0
  0
LINE
  8
0
 62
     0
 10
83.1413
 20
6.36379
 30
0.0
 11
77.4129
 21
3.96737
 31
0.0
  0
LINE
  8
0
 62
     0
 10
77.4129
 20
3.96737
 30
0.0
 11
71.4513
 21
2.22278
 31
0.0
  0
LINE
  8
0
 62
     0
 10
71.4513
 20
2.22278
 30
0.0
 11
65.3094
 21
1.14515
 31
0.0
  0
LINE
  8
0
 62
     0
 10
65.3094
 20
1.14515
 30
0.0
 11
59.0381
 21
0.753787
 31
0.0
  0
LINE
  8
0
 62
     0
 10
59.0381
 20
0.753787
 30
0.0
 11
52.6881
 21
1.0666
 31
0.0
  0
LINE
  8
0
 62
     0
 10
66.675
 20
2.65824
 30
0.0
 11
75.5703
 21
4.757
 31
0.0
  0
LINE
  8
0
 62
     0
 10
75.5703
 20
4.757
 30
0.0
 11
83.7036
 21
8.08634
 31
0.0
  0
LINE
  8
0
 62
     0
 10
83.7036
 20
8.08634
 30
0.0
 11
91.1271
 21
12.6738
 31
0.0
  0
LINE
  8
0
 62
     0
 10
91.1271
 20
12.6738
 30
0.0
 11
97.8958
 21
18.547
 31
0.0
  0
LINE
  8
0
 62
     0
 10
97.8958
 20
18.547
 30
0.0
 11
103.214
 21
24.8226
 31
0.0
  0
LINE
  8
0
 62
     0
 10
103.214
 20
24.8226
 30
0.0
 11
107.585
 21
31.8878
 31
0.0
  0
LINE
  8
0
 62
     0
 10
107.585
 20
31.8878
 30
0.0
 11
110.912
 21
39.5524
 31
0.0
  0
LINE
  8
0
 62
     0
 10
110.912
 20
39.5524
 30
0.0
 11
113.093
 21
47.625
 31
0.0
  0
LINE
  8
0
 62
     0
 10
113.093
 20
47.625
 30
0.0
 11
113.596
 21
51.9726
 31
0.0
  0
LINE
  8
0
 62
     0
 10
113.596
 20
51.9726
 30
0.0
 11
113.764
 21
57.3264
 31
0.0
  0
LINE
  8
0
 62
     0
 10
113.764
 20
57.3264
 30
0.0
 11
113.596
 21
62.6816
 31
0.0
  0
LINE
  8
0
 62
     0
 10
113.596
 20
62.6816
 30
0.0
 11
113.093
 21
67.0278
 31
0.0
  0
LINE
  8
0
 62
     0
 10
113.093
 20
67.0278
 30
0.0
 11
110.902
 21
75.1995
 31
0.0
  0
LINE
  8
0
 62
     0
 10
110.902
 20
75.1995
 30
0.0
 11
107.621
 21
82.7899
 31
0.0
  0
LINE
  8
0
 62
     0
 10
107.621
 20
82.7899
 30
0.0
 11
103.328
 21
89.716
 31
0.0
  0
LINE
  8
0
 62
     0
 10
103.328
 20
89.716
 30
0.0
 11
98.104
 21
95.8963
 31
0.0
  0
LINE
  8
0
 62
     0
 10
98.104
 20
95.8963
 30
0.0
 11
92.0281
 21
101.251
 31
0.0
  0
LINE
  8
0
 62
     0
 10
92.0281
 20
101.251
 30
0.0
 11
85.1821
 21
105.697
 31
0.0
  0
LINE
  8
0
 62
     0
 10
85.1821
 20
105.697
 30
0.0
 11
77.6443
 21
109.15
 31
0.0
  0
LINE
  8
0
 62
     0
 10
77.6443
 20
109.15
 30
0.0
 11
69.4972
 21
111.531
 31
0.0
  0
LINE
  8
0
 62
     0
 10
69.4972
 20
111.531
 30
0.0
 11
67.3199
 21
111.946
 31
0.0
  0
LINE
  8
0
 62
     0
 10
67.3199
 20
111.946
 30
0.0
 11
65.1605
 21
112.189
 31
0.0
  0
LINE
  8
0
 62
     0
 10
65.1605
 20
112.189
 30
0.0
 11
62.4346
 21
112.303
 31
0.0
  0
LINE
  8
0
 62
     0
 10
62.4346
 20
112.303
 30
0.0
 11
58.5611
 21
112.331
 31
0.0
  0
LINE
  8
0
 62
     0
 10
58.5611
 20
112.331
 30
0.0
 11
53.1675
 21
112.212
 31
0.0
  0
LINE
  8
0
 62
     0
 10
53.1675
 20
112.212
 30
0.0
 11
48.8541
 21
111.768
 31
0.0
  0
LINE
  8
0
 62
     0
 10
48.8541
 20
111.768
 30
0.0
 11
44.8275
 21
110.876
 31
0.0
  0
LINE
  8
0
 62
     0
 10
44.8275
 20
110.876
 30
0.0
 11
40.2978
 21
109.404
 31
0.0
  0
LINE
  8
0
 62
     0
 10
40.2978
 20
109.404
 30
0.0
 11
33.4712
 21
106.438
 31
0.0
  0
LINE
  8
0
 62
     0
 10
33.4712
 20
106.438
 30
0.0
 11
27.1763
 21
102.642
 31
0.0
  0
LINE
  8
0
 62
     0
 10
27.1763
 20
102.642
 30
0.0
 11
21.4781
 21
98.0902
 31
0.0
  0
LINE
  8
0
 62
     0
 10
21.4781
 20
98.0902
 30
0.0
 11
16.44
 21
92.8606
 31
0.0
  0
LINE
  8
0
 62
     0
 10
16.44
 20
92.8606
 30
0.0
 11
12.1295
 21
87.0327
 31
0.0
  0
LINE
  8
0
 62
     0
 10
12.1295
 20
87.0327
 30
0.0
 11
8.61
 21
80.6842
 31
0.0
  0
LINE
  8
0
 62
     0
 10
8.61
 20
80.6842
 30
0.0
 11
5.95037
 21
73.8904
 31
0.0
  0
LINE
  8
0
 62
     0
 10
5.95037
 20
73.8904
 30
0.0
 11
4.21404
 21
66.7286
 31
0.0
  0
LINE
  8
0
 62
     0
 10
4.21404
 20
66.7286
 30
0.0
 11
3.689
 21
62.261
 31
0.0
  0
LINE
  8
0
 62
     0
 10
3.689
 20
62.261
 30
0.0
 11
3.51537
 21
57.3264
 31
0.0
  0
LINE
  8
0
 62
     0
 10
3.51537
 20
57.3264
 30
0.0
 11
3.689
 21
52.3931
 31
0.0
  0
LINE
  8
0
 62
     0
 10
3.689
 20
52.3931
 30
0.0
 11
4.21404
 21
47.9242
 31
0.0
  0
LINE
  8
0
 62
     0
 10
4.21404
 20
47.9242
 30
0.0
 11
5.96554
 21
40.7582
 31
0.0
  0
LINE
  8
0
 62
     0
 10
5.96554
 20
40.7582
 30
0.0
 11
8.66786
 21
33.9287
 31
0.0
  0
LINE
  8
0
 62
     0
 10
8.66786
 20
33.9287
 30
0.0
 11
12.2439
 21
27.5277
 31
0.0
  0
LINE
  8
0
 62
     0
 10
12.2439
 20
27.5277
 30
0.0
 11
16.615
 21
21.6462
 31
0.0
  0
LINE
  8
0
 62
     0
 10
16.615
 20
21.6462
 30
0.0
 11
21.7055
 21
16.3766
 31
0.0
  0
LINE
  8
0
 62
     0
 10
21.7055
 20
16.3766
 30
0.0
 11
27.4381
 21
11.8084
 31
0.0
  0
LINE
  8
0
 62
     0
 10
27.4381
 20
11.8084
 30
0.0
 11
33.733
 21
8.03395
 31
0.0
  0
LINE
  8
0
 62
     0
 10
33.733
 20
8.03395
 30
0.0
 11
40.5172
 21
5.14145
 31
0.0
  0
LINE
  8
0
 62
     0
 10
40.5172
 20
5.14145
 30
0.0
 11
43.349
 21
4.26501
 31
0.0
  0
LINE
  8
0
 62
     0
 10
43.349
 20
4.26501
 30
0.0
 11
46.5155
 21
3.4451
 31
0.0
  0
LINE
  8
0
 62
     0
 10
46.5155
 20
3.4451
 30
0.0
 11
49.6066
 21
2.78226
 31
0.0
  0
LINE
  8
0
 62
     0
 10
49.6066
 20
2.78226
 30
0.0
 11
52.2111
 21
2.37023
 31
0.0
  0
LINE
  8
0
 62
     0
 10
52.2111
 20
2.37023
 30
0.0
 11
55.4094
 21
2.1897
 31
0.0
  0
LINE
  8
0
 62
     0
 10
55.4094
 20
2.1897
 30
0.0
 11
59.5051
 21
2.1897
 31
0.0
  0
LINE
  8
0
 62
     0
 10
59.5051
 20
2.1897
 30
0.0
 11
63.5688
 21
2.35231
 31
0.0
  0
LINE
  8
0
 62
     0
 10
63.5688
 20
2.35231
 30
0.0
 11
66.675
 21
2.65824
 31
0.0
  0
LINE
  8
0
 62
     0
 10
54.8418
 20
5.31509
 30
0.0
 11
54.7151
 21
5.68579
 31
0.0
  0
LINE
  8
0
 62
     0
 10
54.7151
 20
5.68579
 30
0.0
 11
54.8361
 21
5.89111
 31
0.0
  0
LINE
  8
0
 62
     0
 10
54.8361
 20
5.89111
 30
0.0
 11
55.1325
 21
5.89802
 31
0.0
  0
LINE
  8
0
 62
     0
 10
55.1325
 20
5.89802
 30
0.0
 11
55.535
 21
5.66787
 31
0.0
  0
LINE
  8
0
 62
     0
 10
55.535
 20
5.66787
 30
0.0
 11
56.1192
 21
5.40053
 31
0.0
  0
LINE
  8
0
 62
     0
 10
56.1192
 20
5.40053
 30
0.0
 11
56.811
 21
5.36469
 31
0.0
  0
LINE
  8
0
 62
     0
 10
56.811
 20
5.36469
 30
0.0
 11
57.4227
 21
5.54108
 31
0.0
  0
LINE
  8
0
 62
     0
 10
57.4227
 20
5.54108
 30
0.0
 11
57.7688
 21
5.90903
 31
0.0
  0
LINE
  8
0
 62
     0
 10
57.7688
 20
5.90903
 30
0.0
 11
57.5261
 21
6.24526
 31
0.0
  0
LINE
  8
0
 62
     0
 10
57.5261
 20
6.24526
 30
0.0
 11
56.4501
 21
6.35
 31
0.0
  0
LINE
  8
0
 62
     0
 10
56.4501
 20
6.35
 30
0.0
 11
55.6369
 21
6.37342
 31
0.0
  0
LINE
  8
0
 62
     0
 10
55.6369
 20
6.37342
 30
0.0
 11
55.2125
 21
6.49055
 31
0.0
  0
LINE
  8
0
 62
     0
 10
55.2125
 20
6.49055
 30
0.0
 11
55.0693
 21
6.78134
 31
0.0
  0
LINE
  8
0
 62
     0
 10
55.0693
 20
6.78134
 30
0.0
 11
55.0982
 21
7.32014
 31
0.0
  0
LINE
  8
0
 62
     0
 10
55.0982
 20
7.32014
 30
0.0
 11
55.2002
 21
7.82726
 31
0.0
  0
LINE
  8
0
 62
     0
 10
55.2002
 20
7.82726
 30
0.0
 11
55.415
 21
8.13731
 31
0.0
  0
LINE
  8
0
 62
     0
 10
55.415
 20
8.13731
 30
0.0
 11
55.8147
 21
8.3082
 31
0.0
  0
LINE
  8
0
 62
     0
 10
55.8147
 20
8.3082
 30
0.0
 11
56.4748
 21
8.39639
 31
0.0
  0
LINE
  8
0
 62
     0
 10
56.4748
 20
8.39639
 30
0.0
 11
57.5109
 21
8.3385
 31
0.0
  0
LINE
  8
0
 62
     0
 10
57.5109
 20
8.3385
 30
0.0
 11
58.1586
 21
7.99814
 31
0.0
  0
LINE
  8
0
 62
     0
 10
58.1586
 20
7.99814
 30
0.0
 11
58.3145
 21
7.74594
 31
0.0
  0
LINE
  8
0
 62
     0
 10
58.3145
 20
7.74594
 30
0.0
 11
58.2112
 21
7.61781
 31
0.0
  0
LINE
  8
0
 62
     0
 10
58.2112
 20
7.61781
 30
0.0
 11
57.7868
 21
7.59989
 31
0.0
  0
LINE
  8
0
 62
     0
 10
57.7868
 20
7.59989
 30
0.0
 11
56.9817
 21
7.67292
 31
0.0
  0
LINE
  8
0
 62
     0
 10
56.9817
 20
7.67292
 30
0.0
 11
55.8052
 21
7.70738
 31
0.0
  0
LINE
  8
0
 62
     0
 10
55.8052
 20
7.70738
 30
0.0
 11
55.3861
 21
7.47586
 31
0.0
  0
LINE
  8
0
 62
     0
 10
55.3861
 20
7.47586
 30
0.0
 11
55.7749
 21
7.17684
 31
0.0
  0
LINE
  8
0
 62
     0
 10
55.7749
 20
7.17684
 30
0.0
 11
56.709
 21
6.98803
 31
0.0
  0
LINE
  8
0
 62
     0
 10
56.709
 20
6.98803
 30
0.0
 11
57.4036
 21
6.89846
 31
0.0
  0
LINE
  8
0
 62
     0
 10
57.4036
 20
6.89846
 30
0.0
 11
57.8196
 21
6.72895
 31
0.0
  0
LINE
  8
0
 62
     0
 10
57.8196
 20
6.72895
 30
0.0
 11
58.039
 21
6.42027
 31
0.0
  0
LINE
  8
0
 62
     0
 10
58.039
 20
6.42027
 30
0.0
 11
58.1434
 21
5.90903
 31
0.0
  0
LINE
  8
0
 62
     0
 10
58.1434
 20
5.90903
 30
0.0
 11
58.1723
 21
5.36469
 31
0.0
  0
LINE
  8
0
 62
     0
 10
58.1723
 20
5.36469
 30
0.0
 11
58.0168
 21
5.07531
 31
0.0
  0
LINE
  8
0
 62
     0
 10
58.0168
 20
5.07531
 30
0.0
 11
57.555
 21
4.95956
 31
0.0
  0
LINE
  8
0
 62
     0
 10
57.555
 20
4.95956
 30
0.0
 11
56.6649
 21
4.93889
 31
0.0
  0
LINE
  8
0
 62
     0
 10
56.6649
 20
4.93889
 30
0.0
 11
55.4729
 21
5.05051
 31
0.0
  0
LINE
  8
0
 62
     0
 10
55.4729
 20
5.05051
 30
0.0
 11
54.8418
 21
5.31509
 31
0.0
  0
LINE
  8
0
 62
     0
 10
49.9099
 20
5.65686
 30
0.0
 11
49.8217
 21
6.33899
 31
0.0
  0
LINE
  8
0
 62
     0
 10
49.8217
 20
6.33899
 30
0.0
 11
49.9276
 21
7.46347
 31
0.0
  0
LINE
  8
0
 62
     0
 10
49.9276
 20
7.46347
 30
0.0
 11
50.1703
 21
8.90489
 31
0.0
  0
LINE
  8
0
 62
     0
 10
50.1703
 20
8.90489
 30
0.0
 11
51.7797
 21
8.6844
 31
0.0
  0
LINE
  8
0
 62
     0
 10
51.7797
 20
8.6844
 30
0.0
 11
52.8891
 21
8.50801
 31
0.0
  0
LINE
  8
0
 62
     0
 10
52.8891
 20
8.50801
 30
0.0
 11
53.4539
 21
8.31233
 31
0.0
  0
LINE
  8
0
 62
     0
 10
53.4539
 20
8.31233
 30
0.0
 11
53.5947
 21
8.00915
 31
0.0
  0
LINE
  8
0
 62
     0
 10
53.5947
 20
8.00915
 30
0.0
 11
53.4349
 21
7.5117
 31
0.0
  0
LINE
  8
0
 62
     0
 10
53.4349
 20
7.5117
 30
0.0
 11
53.177
 21
7.05831
 31
0.0
  0
LINE
  8
0
 62
     0
 10
53.177
 20
7.05831
 30
0.0
 11
53.0091
 21
7.5172
 31
0.0
  0
LINE
  8
0
 62
     0
 10
53.0091
 20
7.5172
 30
0.0
 11
52.6464
 21
7.99264
 31
0.0
  0
LINE
  8
0
 62
     0
 10
52.6464
 20
7.99264
 30
0.0
 11
51.7398
 21
8.04637
 31
0.0
  0
LINE
  8
0
 62
     0
 10
51.7398
 20
8.04637
 30
0.0
 11
51.1722
 21
7.95405
 31
0.0
  0
LINE
  8
0
 62
     0
 10
51.1722
 20
7.95405
 30
0.0
 11
50.8152
 21
7.77628
 31
0.0
  0
LINE
  8
0
 62
     0
 10
50.8152
 20
7.77628
 30
0.0
 11
50.6141
 21
7.4676
 31
0.0
  0
LINE
  8
0
 62
     0
 10
50.6141
 20
7.4676
 30
0.0
 11
50.5135
 21
6.97978
 31
0.0
  0
LINE
  8
0
 62
     0
 10
50.5135
 20
6.97978
 30
0.0
 11
50.4956
 21
6.48642
 31
0.0
  0
LINE
  8
0
 62
     0
 10
50.4956
 20
6.48642
 30
0.0
 11
50.6084
 21
6.15707
 31
0.0
  0
LINE
  8
0
 62
     0
 10
50.6084
 20
6.15707
 30
0.0
 11
50.8882
 21
5.93933
 31
0.0
  0
LINE
  8
0
 62
     0
 10
50.8882
 20
5.93933
 30
0.0
 11
51.3761
 21
5.77674
 31
0.0
  0
LINE
  8
0
 62
     0
 10
51.3761
 20
5.77674
 30
0.0
 11
52.131
 21
5.70371
 31
0.0
  0
LINE
  8
0
 62
     0
 10
52.131
 20
5.70371
 30
0.0
 11
52.4866
 21
5.94212
 31
0.0
  0
LINE
  8
0
 62
     0
 10
52.4866
 20
5.94212
 30
0.0
 11
52.6919
 21
6.26043
 31
0.0
  0
LINE
  8
0
 62
     0
 10
52.6919
 20
6.26043
 30
0.0
 11
52.9512
 21
6.33758
 31
0.0
  0
LINE
  8
0
 62
     0
 10
52.9512
 20
6.33758
 30
0.0
 11
53.1742
 21
6.18603
 31
0.0
  0
LINE
  8
0
 62
     0
 10
53.1742
 20
6.18603
 30
0.0
 11
53.2694
 21
5.82083
 31
0.0
  0
LINE
  8
0
 62
     0
 10
53.2694
 20
5.82083
 30
0.0
 11
53.1869
 21
5.57417
 31
0.0
  0
LINE
  8
0
 62
     0
 10
53.1869
 20
5.57417
 30
0.0
 11
52.9195
 21
5.41016
 31
0.0
  0
LINE
  8
0
 62
     0
 10
52.9195
 20
5.41016
 30
0.0
 11
52.4358
 21
5.32059
 31
0.0
  0
LINE
  8
0
 62
     0
 10
52.4358
 20
5.32059
 30
0.0
 11
51.7028
 21
5.29167
 31
0.0
  0
LINE
  8
0
 62
     0
 10
51.7028
 20
5.29167
 30
0.0
 11
50.5284
 21
5.39916
 31
0.0
  0
LINE
  8
0
 62
     0
 10
50.5284
 20
5.39916
 30
0.0
 11
49.9099
 21
5.65686
 31
0.0
  0
LINE
  8
0
 62
     0
 10
62.611
 20
6.74688
 30
0.0
 11
62.5285
 21
7.7749
 31
0.0
  0
LINE
  8
0
 62
     0
 10
62.5285
 20
7.7749
 30
0.0
 11
62.7599
 21
8.40465
 31
0.0
  0
LINE
  8
0
 62
     0
 10
62.7599
 20
8.40465
 30
0.0
 11
63.3786
 21
8.723
 31
0.0
  0
LINE
  8
0
 62
     0
 10
63.3786
 20
8.723
 30
0.0
 11
64.462
 21
8.81394
 31
0.0
  0
LINE
  8
0
 62
     0
 10
64.462
 20
8.81394
 30
0.0
 11
65.472
 21
8.61826
 31
0.0
  0
LINE
  8
0
 62
     0
 10
65.472
 20
8.61826
 30
0.0
 11
66.179
 21
7.9375
 31
0.0
  0
LINE
  8
0
 62
     0
 10
66.179
 20
7.9375
 30
0.0
 11
66.4792
 21
7.43313
 31
0.0
  0
LINE
  8
0
 62
     0
 10
66.4792
 20
7.43313
 30
0.0
 11
66.5797
 21
7.05556
 31
0.0
  0
LINE
  8
0
 62
     0
 10
66.5797
 20
7.05556
 30
0.0
 11
66.4792
 21
6.67935
 31
0.0
  0
LINE
  8
0
 62
     0
 10
66.4792
 20
6.67935
 30
0.0
 11
66.179
 21
6.17361
 31
0.0
  0
LINE
  8
0
 62
     0
 10
66.179
 20
6.17361
 30
0.0
 11
65.8329
 21
5.74506
 31
0.0
  0
LINE
  8
0
 62
     0
 10
65.8329
 20
5.74506
 30
0.0
 11
65.436
 21
5.47493
 31
0.0
  0
LINE
  8
0
 62
     0
 10
65.436
 20
5.47493
 30
0.0
 11
64.922
 21
5.33301
 31
0.0
  0
LINE
  8
0
 62
     0
 10
64.922
 20
5.33301
 30
0.0
 11
64.2288
 21
5.29167
 31
0.0
  0
LINE
  8
0
 62
     0
 10
64.2288
 20
5.29167
 30
0.0
 11
63.4464
 21
5.32059
 31
0.0
  0
LINE
  8
0
 62
     0
 10
63.4464
 20
5.32059
 30
0.0
 11
63.0093
 21
5.4901
 31
0.0
  0
LINE
  8
0
 62
     0
 10
63.0093
 20
5.4901
 30
0.0
 11
62.7765
 21
5.9242
 31
0.0
  0
LINE
  8
0
 62
     0
 10
62.7765
 20
5.9242
 30
0.0
 11
62.611
 21
6.74688
 31
0.0
  0
LINE
  8
0
 62
     0
 10
65.738
 20
6.35825
 30
0.0
 11
65.9116
 21
6.74137
 31
0.0
  0
LINE
  8
0
 62
     0
 10
65.9116
 20
6.74137
 30
0.0
 11
65.9116
 21
7.28292
 31
0.0
  0
LINE
  8
0
 62
     0
 10
65.9116
 20
7.28292
 30
0.0
 11
65.5133
 21
7.81346
 31
0.0
  0
LINE
  8
0
 62
     0
 10
65.5133
 20
7.81346
 30
0.0
 11
64.4673
 21
8.04637
 31
0.0
  0
LINE
  8
0
 62
     0
 10
64.4673
 20
8.04637
 30
0.0
 11
63.7893
 21
8.07805
 31
0.0
  0
LINE
  8
0
 62
     0
 10
63.7893
 20
8.07805
 30
0.0
 11
63.3871
 21
8.00915
 31
0.0
  0
LINE
  8
0
 62
     0
 10
63.3871
 20
8.00915
 30
0.0
 11
63.1956
 21
7.81346
 31
0.0
  0
LINE
  8
0
 62
     0
 10
63.1956
 20
7.81346
 30
0.0
 11
63.1472
 21
7.45793
 31
0.0
  0
LINE
  8
0
 62
     0
 10
63.1472
 20
7.45793
 30
0.0
 11
63.2202
 21
6.59391
 31
0.0
  0
LINE
  8
0
 62
     0
 10
63.2202
 20
6.59391
 30
0.0
 11
63.4573
 21
6.05786
 31
0.0
  0
LINE
  8
0
 62
     0
 10
63.4573
 20
6.05786
 30
0.0
 11
63.8775
 21
5.82634
 31
0.0
  0
LINE
  8
0
 62
     0
 10
63.8775
 20
5.82634
 30
0.0
 11
64.5072
 21
5.86906
 31
0.0
  0
LINE
  8
0
 62
     0
 10
64.5072
 20
5.86906
 30
0.0
 11
65.253
 21
6.10334
 31
0.0
  0
LINE
  8
0
 62
     0
 10
65.253
 20
6.10334
 30
0.0
 11
65.738
 21
6.35825
 31
0.0
  0
LINE
  8
0
 62
     0
 10
47.4747
 20
7.32014
 30
0.0
 11
47.7118
 21
8.27098
 31
0.0
  0
LINE
  8
0
 62
     0
 10
47.7118
 20
8.27098
 30
0.0
 11
47.9958
 21
8.92831
 31
0.0
  0
LINE
  8
0
 62
     0
 10
47.9958
 20
8.92831
 30
0.0
 11
48.2314
 21
9.14192
 31
0.0
  0
LINE
  8
0
 62
     0
 10
48.2314
 20
9.14192
 30
0.0
 11
48.3306
 21
8.75743
 31
0.0
  0
LINE
  8
0
 62
     0
 10
48.3306
 20
8.75743
 30
0.0
 11
48.2547
 21
7.84931
 31
0.0
  0
LINE
  8
0
 62
     0
 10
48.2547
 20
7.84931
 30
0.0
 11
48.0646
 21
6.95357
 31
0.0
  0
LINE
  8
0
 62
     0
 10
48.0646
 20
6.95357
 30
0.0
 11
47.8166
 21
6.27006
 31
0.0
  0
LINE
  8
0
 62
     0
 10
47.8166
 20
6.27006
 30
0.0
 11
47.5643
 21
5.99722
 31
0.0
  0
LINE
  8
0
 62
     0
 10
47.5643
 20
5.99722
 30
0.0
 11
47.4017
 21
6.38168
 31
0.0
  0
LINE
  8
0
 62
     0
 10
47.4017
 20
6.38168
 30
0.0
 11
47.4747
 21
7.32014
 31
0.0
  0
LINE
  8
0
 62
     0
 10
67.9538
 20
7.09965
 30
0.0
 11
67.7831
 21
8.11114
 31
0.0
  0
LINE
  8
0
 62
     0
 10
67.7831
 20
8.11114
 30
0.0
 11
67.7414
 21
8.77672
 31
0.0
  0
LINE
  8
0
 62
     0
 10
67.7414
 20
8.77672
 30
0.0
 11
67.8286
 21
9.0744
 31
0.0
  0
LINE
  8
0
 62
     0
 10
67.8286
 20
9.0744
 30
0.0
 11
68.0434
 21
8.97791
 31
0.0
  0
LINE
  8
0
 62
     0
 10
68.0434
 20
8.97791
 30
0.0
 11
68.3602
 21
8.30407
 31
0.0
  0
LINE
  8
0
 62
     0
 10
68.3602
 20
8.30407
 30
0.0
 11
68.5849
 21
7.30359
 31
0.0
  0
LINE
  8
0
 62
     0
 10
68.5849
 20
7.30359
 30
0.0
 11
68.6523
 21
6.3941
 31
0.0
  0
LINE
  8
0
 62
     0
 10
68.6523
 20
6.3941
 30
0.0
 11
68.4996
 21
5.99722
 31
0.0
  0
LINE
  8
0
 62
     0
 10
68.4996
 20
5.99722
 30
0.0
 11
68.2046
 21
6.32107
 31
0.0
  0
LINE
  8
0
 62
     0
 10
68.2046
 20
6.32107
 30
0.0
 11
67.9538
 21
7.09965
 31
0.0
  0
LINE
  8
0
 62
     0
 10
44.2376
 20
7.26503
 30
0.0
 11
44.6112
 21
8.37022
 31
0.0
  0
LINE
  8
0
 62
     0
 10
44.6112
 20
8.37022
 30
0.0
 11
44.7227
 21
9.10057
 31
0.0
  0
LINE
  8
0
 62
     0
 10
44.7227
 20
9.10057
 30
0.0
 11
44.5671
 21
9.53879
 31
0.0
  0
LINE
  8
0
 62
     0
 10
44.5671
 20
9.53879
 30
0.0
 11
44.1413
 21
9.76478
 31
0.0
  0
LINE
  8
0
 62
     0
 10
44.1413
 20
9.76478
 30
0.0
 11
43.6107
 21
10.0059
 31
0.0
  0
LINE
  8
0
 62
     0
 10
43.6107
 20
10.0059
 30
0.0
 11
43.3917
 21
10.3091
 31
0.0
  0
LINE
  8
0
 62
     0
 10
43.3917
 20
10.3091
 30
0.0
 11
43.5405
 21
10.4993
 31
0.0
  0
LINE
  8
0
 62
     0
 10
43.5405
 20
10.4993
 30
0.0
 11
43.899
 21
10.4648
 31
0.0
  0
LINE
  8
0
 62
     0
 10
43.899
 20
10.4648
 30
0.0
 11
44.6775
 21
10.214
 31
0.0
  0
LINE
  8
0
 62
     0
 10
44.6775
 20
10.214
 30
0.0
 11
45.8392
 21
9.88328
 31
0.0
  0
LINE
  8
0
 62
     0
 10
45.8392
 20
9.88328
 30
0.0
 11
46.7829
 21
9.57047
 31
0.0
  0
LINE
  8
0
 62
     0
 10
46.7829
 20
9.57047
 30
0.0
 11
47.2352
 21
9.31139
 31
0.0
  0
LINE
  8
0
 62
     0
 10
47.2352
 20
9.31139
 30
0.0
 11
47.1262
 21
9.18326
 31
0.0
  0
LINE
  8
0
 62
     0
 10
47.1262
 20
9.18326
 30
0.0
 11
46.3903
 21
9.25904
 31
0.0
  0
LINE
  8
0
 62
     0
 10
46.3903
 20
9.25904
 30
0.0
 11
45.9133
 21
9.30314
 31
0.0
  0
LINE
  8
0
 62
     0
 10
45.9133
 20
9.30314
 30
0.0
 11
45.5965
 21
9.16672
 31
0.0
  0
LINE
  8
0
 62
     0
 10
45.5965
 20
9.16672
 30
0.0
 11
45.3637
 21
8.7781
 31
0.0
  0
LINE
  8
0
 62
     0
 10
45.3637
 20
8.7781
 30
0.0
 11
45.1418
 21
8.06429
 31
0.0
  0
LINE
  8
0
 62
     0
 10
45.1418
 20
8.06429
 30
0.0
 11
44.7724
 21
7.10378
 31
0.0
  0
LINE
  8
0
 62
     0
 10
44.7724
 20
7.10378
 30
0.0
 11
44.3988
 21
6.70278
 31
0.0
  0
LINE
  8
0
 62
     0
 10
44.3988
 20
6.70278
 30
0.0
 11
44.1949
 21
6.86816
 31
0.0
  0
LINE
  8
0
 62
     0
 10
44.1949
 20
6.86816
 30
0.0
 11
44.2376
 21
7.26503
 31
0.0
  0
LINE
  8
0
 62
     0
 10
70.4441
 20
8.04774
 30
0.0
 11
69.9325
 21
8.61413
 31
0.0
  0
LINE
  8
0
 62
     0
 10
69.9325
 20
8.61413
 30
0.0
 11
69.5935
 21
9.07302
 31
0.0
  0
LINE
  8
0
 62
     0
 10
69.5935
 20
9.07302
 30
0.0
 11
69.4186
 21
9.41201
 31
0.0
  0
LINE
  8
0
 62
     0
 10
69.4186
 20
9.41201
 30
0.0
 11
69.4034
 21
9.61457
 31
0.0
  0
LINE
  8
0
 62
     0
 10
69.4034
 20
9.61457
 30
0.0
 11
69.5385
 21
9.66692
 31
0.0
  0
LINE
  8
0
 62
     0
 10
69.5385
 20
9.66692
 30
0.0
 11
69.8197
 21
9.55255
 31
0.0
  0
LINE
  8
0
 62
     0
 10
69.8197
 20
9.55255
 30
0.0
 11
70.2359
 21
9.25904
 31
0.0
  0
LINE
  8
0
 62
     0
 10
70.2359
 20
9.25904
 30
0.0
 11
70.7842
 21
8.76984
 31
0.0
  0
LINE
  8
0
 62
     0
 10
70.7842
 20
8.76984
 30
0.0
 11
71.9406
 21
7.64812
 31
0.0
  0
LINE
  8
0
 62
     0
 10
71.9406
 20
7.64812
 30
0.0
 11
72.1748
 21
9.11571
 31
0.0
  0
LINE
  8
0
 62
     0
 10
72.1748
 20
9.11571
 30
0.0
 11
72.4309
 21
10.1534
 31
0.0
  0
LINE
  8
0
 62
     0
 10
72.4309
 20
10.1534
 30
0.0
 11
72.7177
 21
10.5833
 31
0.0
  0
LINE
  8
0
 62
     0
 10
72.7177
 20
10.5833
 30
0.0
 11
72.934
 21
10.4745
 31
0.0
  0
LINE
  8
0
 62
     0
 10
72.934
 20
10.4745
 30
0.0
 11
73.025
 21
10.2099
 31
0.0
  0
LINE
  8
0
 62
     0
 10
73.025
 20
10.2099
 30
0.0
 11
72.8955
 21
9.33344
 31
0.0
  0
LINE
  8
0
 62
     0
 10
72.8955
 20
9.33344
 30
0.0
 11
72.595
 21
8.16487
 31
0.0
  0
LINE
  8
0
 62
     0
 10
72.595
 20
8.16487
 30
0.0
 11
72.2535
 21
7.14237
 31
0.0
  0
LINE
  8
0
 62
     0
 10
72.2535
 20
7.14237
 30
0.0
 11
71.997
 21
6.70278
 31
0.0
  0
LINE
  8
0
 62
     0
 10
71.997
 20
6.70278
 30
0.0
 11
71.7998
 21
6.80889
 31
0.0
  0
LINE
  8
0
 62
     0
 10
71.7998
 20
6.80889
 30
0.0
 11
71.4417
 21
7.09828
 31
0.0
  0
LINE
  8
0
 62
     0
 10
71.4417
 20
7.09828
 30
0.0
 11
70.9718
 21
7.52546
 31
0.0
  0
LINE
  8
0
 62
     0
 10
70.9718
 20
7.52546
 30
0.0
 11
70.4441
 21
8.04774
 31
0.0
  0
LINE
  8
0
 62
     0
 10
39.5993
 20
8.28753
 30
0.0
 11
38.789
 21
8.74917
 31
0.0
  0
LINE
  8
0
 62
     0
 10
38.789
 20
8.74917
 30
0.0
 11
38.4528
 21
9.15568
 31
0.0
  0
LINE
  8
0
 62
     0
 10
38.4528
 20
9.15568
 30
0.0
 11
38.5491
 21
9.42164
 31
0.0
  0
LINE
  8
0
 62
     0
 10
38.5491
 20
9.42164
 30
0.0
 11
38.7752
 21
9.51675
 31
0.0
  0
LINE
  8
0
 62
     0
 10
38.7752
 20
9.51675
 30
0.0
 11
39.0303
 21
9.43818
 31
0.0
  0
LINE
  8
0
 62
     0
 10
39.0303
 20
9.43818
 30
0.0
 11
39.2176
 21
9.18048
 31
0.0
  0
LINE
  8
0
 62
     0
 10
39.2176
 20
9.18048
 30
0.0
 11
39.6363
 21
8.87042
 31
0.0
  0
LINE
  8
0
 62
     0
 10
39.6363
 20
8.87042
 30
0.0
 11
40.4813
 21
8.60721
 31
0.0
  0
LINE
  8
0
 62
     0
 10
40.4813
 20
8.60721
 30
0.0
 11
41.348
 21
8.54661
 31
0.0
  0
LINE
  8
0
 62
     0
 10
41.348
 20
8.54661
 30
0.0
 11
41.6154
 21
8.7588
 31
0.0
  0
LINE
  8
0
 62
     0
 10
41.6154
 20
8.7588
 30
0.0
 11
41.293
 21
9.13776
 31
0.0
  0
LINE
  8
0
 62
     0
 10
41.293
 20
9.13776
 30
0.0
 11
40.3931
 21
9.57322
 31
0.0
  0
LINE
  8
0
 62
     0
 10
40.3931
 20
9.57322
 30
0.0
 11
39.66
 21
9.90258
 31
0.0
  0
LINE
  8
0
 62
     0
 10
39.66
 20
9.90258
 30
0.0
 11
39.2712
 21
10.2705
 31
0.0
  0
LINE
  8
0
 62
     0
 10
39.2712
 20
10.2705
 30
0.0
 11
39.183
 21
10.7487
 31
0.0
  0
LINE
  8
0
 62
     0
 10
39.183
 20
10.7487
 30
0.0
 11
39.3608
 21
11.406
 31
0.0
  0
LINE
  8
0
 62
     0
 10
39.3608
 20
11.406
 30
0.0
 11
39.5168
 21
11.6706
 31
0.0
  0
LINE
  8
0
 62
     0
 10
39.5168
 20
11.6706
 30
0.0
 11
39.7895
 21
11.7574
 31
0.0
  0
LINE
  8
0
 62
     0
 10
39.7895
 20
11.7574
 30
0.0
 11
40.2897
 21
11.6678
 31
0.0
  0
LINE
  8
0
 62
     0
 10
40.2897
 20
11.6678
 30
0.0
 11
41.1247
 21
11.4019
 31
0.0
  0
LINE
  8
0
 62
     0
 10
41.1247
 20
11.4019
 30
0.0
 11
42.2271
 21
10.881
 31
0.0
  0
LINE
  8
0
 62
     0
 10
42.2271
 20
10.881
 30
0.0
 11
42.6861
 21
10.3739
 31
0.0
  0
LINE
  8
0
 62
     0
 10
42.6861
 20
10.3739
 30
0.0
 11
42.5813
 21
10.0239
 31
0.0
  0
LINE
  8
0
 62
     0
 10
42.5813
 20
10.0239
 30
0.0
 11
42.3333
 21
9.87778
 31
0.0
  0
LINE
  8
0
 62
     0
 10
42.3333
 20
9.87778
 30
0.0
 11
42.0839
 21
9.97148
 31
0.0
  0
LINE
  8
0
 62
     0
 10
42.0839
 20
9.97148
 30
0.0
 11
41.9806
 21
10.1961
 31
0.0
  0
LINE
  8
0
 62
     0
 10
41.9806
 20
10.1961
 30
0.0
 11
41.6719
 21
10.5296
 31
0.0
  0
LINE
  8
0
 62
     0
 10
41.6719
 20
10.5296
 30
0.0
 11
40.9303
 21
10.881
 31
0.0
  0
LINE
  8
0
 62
     0
 10
40.9303
 20
10.881
 30
0.0
 11
40.0914
 21
11.0477
 31
0.0
  0
LINE
  8
0
 62
     0
 10
40.0914
 20
11.0477
 30
0.0
 11
39.6766
 21
10.9141
 31
0.0
  0
LINE
  8
0
 62
     0
 10
39.6766
 20
10.9141
 30
0.0
 11
39.7662
 21
10.5971
 31
0.0
  0
LINE
  8
0
 62
     0
 10
39.7662
 20
10.5971
 30
0.0
 11
40.4481
 21
10.2099
 31
0.0
  0
LINE
  8
0
 62
     0
 10
40.4481
 20
10.2099
 30
0.0
 11
41.4016
 21
9.78821
 31
0.0
  0
LINE
  8
0
 62
     0
 10
41.4016
 20
9.78821
 30
0.0
 11
41.9435
 21
9.38445
 31
0.0
  0
LINE
  8
0
 62
     0
 10
41.9435
 20
9.38445
 30
0.0
 11
42.1157
 21
8.94761
 31
0.0
  0
LINE
  8
0
 62
     0
 10
42.1157
 20
8.94761
 30
0.0
 11
41.9612
 21
8.42945
 31
0.0
  0
LINE
  8
0
 62
     0
 10
41.9612
 20
8.42945
 30
0.0
 11
41.6292
 21
7.9816
 31
0.0
  0
LINE
  8
0
 62
     0
 10
41.6292
 20
7.9816
 30
0.0
 11
41.1992
 21
7.81209
 31
0.0
  0
LINE
  8
0
 62
     0
 10
41.1992
 20
7.81209
 30
0.0
 11
40.5585
 21
7.91683
 31
0.0
  0
LINE
  8
0
 62
     0
 10
40.5585
 20
7.91683
 30
0.0
 11
39.5993
 21
8.28753
 31
0.0
  0
LINE
  8
0
 62
     0
 10
74.8785
 20
8.46667
 30
0.0
 11
74.4569
 21
9.60219
 31
0.0
  0
LINE
  8
0
 62
     0
 10
74.4569
 20
9.60219
 30
0.0
 11
74.2389
 21
10.367
 31
0.0
  0
LINE
  8
0
 62
     0
 10
74.2389
 20
10.367
 30
0.0
 11
74.217
 21
10.8011
 31
0.0
  0
LINE
  8
0
 62
     0
 10
74.217
 20
10.8011
 30
0.0
 11
74.385
 21
10.9361
 31
0.0
  0
LINE
  8
0
 62
     0
 10
74.385
 20
10.9361
 30
0.0
 11
74.7543
 21
10.5654
 31
0.0
  0
LINE
  8
0
 62
     0
 10
74.7543
 20
10.5654
 30
0.0
 11
75.1307
 21
9.70552
 31
0.0
  0
LINE
  8
0
 62
     0
 10
75.1307
 20
9.70552
 30
0.0
 11
75.3854
 21
8.73263
 31
0.0
  0
LINE
  8
0
 62
     0
 10
75.3854
 20
8.73263
 30
0.0
 11
75.3883
 21
8.02294
 31
0.0
  0
LINE
  8
0
 62
     0
 10
75.3883
 20
8.02294
 30
0.0
 11
75.172
 21
7.96092
 31
0.0
  0
LINE
  8
0
 62
     0
 10
75.172
 20
7.96092
 30
0.0
 11
74.8785
 21
8.46667
 31
0.0
  0
LINE
  8
0
 62
     0
 10
77.2583
 20
9.19289
 30
0.0
 11
77.3356
 21
9.40925
 31
0.0
  0
LINE
  8
0
 62
     0
 10
77.3356
 20
9.40925
 30
0.0
 11
77.5229
 21
9.40234
 31
0.0
  0
LINE
  8
0
 62
     0
 10
77.5229
 20
9.40234
 30
0.0
 11
78.0616
 21
9.4699
 31
0.0
  0
LINE
  8
0
 62
     0
 10
78.0616
 20
9.4699
 30
0.0
 11
78.9852
 21
9.85848
 31
0.0
  0
LINE
  8
0
 62
     0
 10
78.9852
 20
9.85848
 30
0.0
 11
79.714
 21
10.3573
 31
0.0
  0
LINE
  8
0
 62
     0
 10
79.714
 20
10.3573
 30
0.0
 11
79.7927
 21
10.6839
 31
0.0
  0
LINE
  8
0
 62
     0
 10
79.7927
 20
10.6839
 30
0.0
 11
79.2963
 21
10.7652
 31
0.0
  0
LINE
  8
0
 62
     0
 10
79.2963
 20
10.7652
 30
0.0
 11
78.3029
 21
10.5254
 31
0.0
  0
LINE
  8
0
 62
     0
 10
78.3029
 20
10.5254
 30
0.0
 11
77.6884
 21
10.3408
 31
0.0
  0
LINE
  8
0
 62
     0
 10
77.6884
 20
10.3408
 30
0.0
 11
77.2721
 21
10.3091
 31
0.0
  0
LINE
  8
0
 62
     0
 10
77.2721
 20
10.3091
 30
0.0
 11
76.9676
 21
10.4442
 31
0.0
  0
LINE
  8
0
 62
     0
 10
76.9676
 20
10.4442
 30
0.0
 11
76.6865
 21
10.7583
 31
0.0
  0
LINE
  8
0
 62
     0
 10
76.6865
 20
10.7583
 30
0.0
 11
76.4134
 21
11.2971
 31
0.0
  0
LINE
  8
0
 62
     0
 10
76.4134
 20
11.2971
 30
0.0
 11
76.4124
 21
11.6996
 31
0.0
  0
LINE
  8
0
 62
     0
 10
76.4124
 20
11.6996
 30
0.0
 11
76.9828
 21
12.1392
 31
0.0
  0
LINE
  8
0
 62
     0
 10
76.9828
 20
12.1392
 30
0.0
 11
77.9378
 21
12.5539
 31
0.0
  0
LINE
  8
0
 62
     0
 10
77.9378
 20
12.5539
 30
0.0
 11
78.8885
 21
12.8089
 31
0.0
  0
LINE
  8
0
 62
     0
 10
78.8885
 20
12.8089
 30
0.0
 11
79.4494
 21
12.7675
 31
0.0
  0
LINE
  8
0
 62
     0
 10
79.4494
 20
12.7675
 30
0.0
 11
79.2455
 21
12.4299
 31
0.0
  0
LINE
  8
0
 62
     0
 10
79.2455
 20
12.4299
 30
0.0
 11
78.3276
 21
12.0399
 31
0.0
  0
LINE
  8
0
 62
     0
 10
78.3276
 20
12.0399
 30
0.0
 11
77.3603
 21
11.6362
 31
0.0
  0
LINE
  8
0
 62
     0
 10
77.3603
 20
11.6362
 30
0.0
 11
76.9151
 21
11.2434
 31
0.0
  0
LINE
  8
0
 62
     0
 10
76.9151
 20
11.2434
 30
0.0
 11
77.0625
 21
11.0119
 31
0.0
  0
LINE
  8
0
 62
     0
 10
77.0625
 20
11.0119
 30
0.0
 11
77.8757
 21
11.0905
 31
0.0
  0
LINE
  8
0
 62
     0
 10
77.8757
 20
11.0905
 30
0.0
 11
79.0758
 21
11.344
 31
0.0
  0
LINE
  8
0
 62
     0
 10
79.0758
 20
11.344
 30
0.0
 11
79.8146
 21
11.3702
 31
0.0
  0
LINE
  8
0
 62
     0
 10
79.8146
 20
11.3702
 30
0.0
 11
80.2072
 21
11.1511
 31
0.0
  0
LINE
  8
0
 62
     0
 10
80.2072
 20
11.1511
 30
0.0
 11
80.3712
 21
10.6646
 31
0.0
  0
LINE
  8
0
 62
     0
 10
80.3712
 20
10.6646
 30
0.0
 11
80.3698
 21
10.2499
 31
0.0
  0
LINE
  8
0
 62
     0
 10
80.3698
 20
10.2499
 30
0.0
 11
80.2058
 21
9.9205
 31
0.0
  0
LINE
  8
0
 62
     0
 10
80.2058
 20
9.9205
 30
0.0
 11
79.8407
 21
9.63387
 31
0.0
  0
LINE
  8
0
 62
     0
 10
79.8407
 20
9.63387
 30
0.0
 11
79.2357
 21
9.34173
 31
0.0
  0
LINE
  8
0
 62
     0
 10
79.2357
 20
9.34173
 30
0.0
 11
78.3015
 21
8.9862
 31
0.0
  0
LINE
  8
0
 62
     0
 10
78.3015
 20
8.9862
 30
0.0
 11
77.6912
 21
8.84562
 31
0.0
  0
LINE
  8
0
 62
     0
 10
77.6912
 20
8.84562
 30
0.0
 11
77.3589
 21
8.91589
 31
0.0
  0
LINE
  8
0
 62
     0
 10
77.3589
 20
8.91589
 30
0.0
 11
77.2583
 21
9.19289
 31
0.0
  0
LINE
  8
0
 62
     0
 10
36.2398
 20
9.73861
 30
0.0
 11
36.2024
 21
9.94943
 31
0.0
  0
LINE
  8
0
 62
     0
 10
36.2024
 20
9.94943
 30
0.0
 11
36.2892
 21
10.3243
 31
0.0
  0
LINE
  8
0
 62
     0
 10
36.2892
 20
10.3243
 30
0.0
 11
36.4712
 21
10.8038
 31
0.0
  0
LINE
  8
0
 62
     0
 10
36.4712
 20
10.8038
 30
0.0
 11
36.715
 21
11.3289
 31
0.0
  0
LINE
  8
0
 62
     0
 10
36.715
 20
11.3289
 30
0.0
 11
36.9947
 21
11.8401
 31
0.0
  0
LINE
  8
0
 62
     0
 10
36.9947
 20
11.8401
 30
0.0
 11
37.2773
 21
12.2783
 31
0.0
  0
LINE
  8
0
 62
     0
 10
37.2773
 20
12.2783
 30
0.0
 11
37.5338
 21
12.5856
 31
0.0
  0
LINE
  8
0
 62
     0
 10
37.5338
 20
12.5856
 30
0.0
 11
37.7363
 21
12.7
 31
0.0
  0
LINE
  8
0
 62
     0
 10
37.7363
 20
12.7
 30
0.0
 11
37.8079
 21
12.3114
 31
0.0
  0
LINE
  8
0
 62
     0
 10
37.8079
 20
12.3114
 30
0.0
 11
37.5197
 21
11.3771
 31
0.0
  0
LINE
  8
0
 62
     0
 10
37.5197
 20
11.3771
 30
0.0
 11
37.0981
 21
10.4331
 31
0.0
  0
LINE
  8
0
 62
     0
 10
37.0981
 20
10.4331
 30
0.0
 11
36.7633
 21
9.86677
 31
0.0
  0
LINE
  8
0
 62
     0
 10
36.7633
 20
9.86677
 30
0.0
 11
36.485
 21
9.64628
 31
0.0
  0
LINE
  8
0
 62
     0
 10
36.485
 20
9.64628
 30
0.0
 11
36.2398
 21
9.73861
 31
0.0
  0
LINE
  8
0
 62
     0
 10
32.7201
 20
11.4915
 30
0.0
 11
32.2061
 21
11.8401
 31
0.0
  0
LINE
  8
0
 62
     0
 10
32.2061
 20
11.8401
 30
0.0
 11
31.7858
 21
12.1488
 31
0.0
  0
LINE
  8
0
 62
     0
 10
31.7858
 20
12.1488
 30
0.0
 11
31.5006
 21
12.3831
 31
0.0
  0
LINE
  8
0
 62
     0
 10
31.5006
 20
12.3831
 30
0.0
 11
31.3972
 21
12.5084
 31
0.0
  0
LINE
  8
0
 62
     0
 10
31.3972
 20
12.5084
 30
0.0
 11
31.4606
 21
12.7069
 31
0.0
  0
LINE
  8
0
 62
     0
 10
31.4606
 20
12.7069
 30
0.0
 11
31.6315
 21
13.0473
 31
0.0
  0
LINE
  8
0
 62
     0
 10
31.6315
 20
13.0473
 30
0.0
 11
31.8754
 21
13.4786
 31
0.0
  0
LINE
  8
0
 62
     0
 10
31.8754
 20
13.4786
 30
0.0
 11
32.1593
 21
13.9485
 31
0.0
  0
LINE
  8
0
 62
     0
 10
32.1593
 20
13.9485
 30
0.0
 11
32.4528
 21
14.4046
 31
0.0
  0
LINE
  8
0
 62
     0
 10
32.4528
 20
14.4046
 30
0.0
 11
32.7229
 21
14.7946
 31
0.0
  0
LINE
  8
0
 62
     0
 10
32.7229
 20
14.7946
 30
0.0
 11
32.9351
 21
15.0675
 31
0.0
  0
LINE
  8
0
 62
     0
 10
32.9351
 20
15.0675
 30
0.0
 11
33.0591
 21
15.1694
 31
0.0
  0
LINE
  8
0
 62
     0
 10
33.0591
 20
15.1694
 30
0.0
 11
33.3471
 21
15.1005
 31
0.0
  0
LINE
  8
0
 62
     0
 10
33.3471
 20
15.1005
 30
0.0
 11
33.755
 21
14.9117
 31
0.0
  0
LINE
  8
0
 62
     0
 10
33.755
 20
14.9117
 30
0.0
 11
34.2332
 21
14.6389
 31
0.0
  0
LINE
  8
0
 62
     0
 10
34.2332
 20
14.6389
 30
0.0
 11
34.7334
 21
14.3137
 31
0.0
  0
LINE
  8
0
 62
     0
 10
34.7334
 20
14.3137
 30
0.0
 11
35.2075
 21
13.9706
 31
0.0
  0
LINE
  8
0
 62
     0
 10
35.2075
 20
13.9706
 30
0.0
 11
35.6059
 21
13.6426
 31
0.0
  0
LINE
  8
0
 62
     0
 10
35.6059
 20
13.6426
 30
0.0
 11
35.88
 21
13.3628
 31
0.0
  0
LINE
  8
0
 62
     0
 10
35.88
 20
13.3628
 30
0.0
 11
35.9833
 21
13.1644
 31
0.0
  0
LINE
  8
0
 62
     0
 10
35.9833
 20
13.1644
 30
0.0
 11
35.9378
 21
12.8144
 31
0.0
  0
LINE
  8
0
 62
     0
 10
35.9378
 20
12.8144
 30
0.0
 11
35.7558
 21
12.7524
 31
0.0
  0
LINE
  8
0
 62
     0
 10
35.7558
 20
12.7524
 30
0.0
 11
35.3716
 21
13.0018
 31
0.0
  0
LINE
  8
0
 62
     0
 10
35.3716
 20
13.0018
 30
0.0
 11
34.7156
 21
13.5819
 31
0.0
  0
LINE
  8
0
 62
     0
 10
34.7156
 20
13.5819
 30
0.0
 11
33.97
 21
14.2103
 31
0.0
  0
LINE
  8
0
 62
     0
 10
33.97
 20
14.2103
 30
0.0
 11
33.467
 21
14.3991
 31
0.0
  0
LINE
  8
0
 62
     0
 10
33.467
 20
14.3991
 30
0.0
 11
33.0688
 21
14.1387
 31
0.0
  0
LINE
  8
0
 62
     0
 10
33.0688
 20
14.1387
 30
0.0
 11
32.6374
 21
13.4166
 31
0.0
  0
LINE
  8
0
 62
     0
 10
32.6374
 20
13.4166
 30
0.0
 11
32.3481
 21
12.8102
 31
0.0
  0
LINE
  8
0
 62
     0
 10
32.3481
 20
12.8102
 30
0.0
 11
32.3053
 21
12.4368
 31
0.0
  0
LINE
  8
0
 62
     0
 10
32.3053
 20
12.4368
 30
0.0
 11
32.5534
 21
12.157
 31
0.0
  0
LINE
  8
0
 62
     0
 10
32.5534
 20
12.157
 30
0.0
 11
33.1377
 21
11.8305
 31
0.0
  0
LINE
  8
0
 62
     0
 10
33.1377
 20
11.8305
 30
0.0
 11
33.9314
 21
11.5645
 31
0.0
  0
LINE
  8
0
 62
     0
 10
33.9314
 20
11.5645
 30
0.0
 11
34.411
 21
11.6527
 31
0.0
  0
LINE
  8
0
 62
     0
 10
34.411
 20
11.6527
 30
0.0
 11
34.4661
 21
12.0055
 31
0.0
  0
LINE
  8
0
 62
     0
 10
34.4661
 20
12.0055
 30
0.0
 11
33.9907
 21
12.536
 31
0.0
  0
LINE
  8
0
 62
     0
 10
33.9907
 20
12.536
 30
0.0
 11
33.6296
 21
12.8874
 31
0.0
  0
LINE
  8
0
 62
     0
 10
33.6296
 20
12.8874
 30
0.0
 11
33.7068
 21
13.0156
 31
0.0
  0
LINE
  8
0
 62
     0
 10
33.7068
 20
13.0156
 30
0.0
 11
34.1368
 21
12.9177
 31
0.0
  0
LINE
  8
0
 62
     0
 10
34.1368
 20
12.9177
 30
0.0
 11
34.8354
 21
12.587
 31
0.0
  0
LINE
  8
0
 62
     0
 10
34.8354
 20
12.587
 30
0.0
 11
35.2557
 21
12.3265
 31
0.0
  0
LINE
  8
0
 62
     0
 10
35.2557
 20
12.3265
 30
0.0
 11
35.4252
 21
12.0964
 31
0.0
  0
LINE
  8
0
 62
     0
 10
35.4252
 20
12.0964
 30
0.0
 11
35.3603
 21
11.807
 31
0.0
  0
LINE
  8
0
 62
     0
 10
35.3603
 20
11.807
 30
0.0
 11
35.0793
 21
11.3661
 31
0.0
  0
LINE
  8
0
 62
     0
 10
35.0793
 20
11.3661
 30
0.0
 11
34.659
 21
10.8314
 31
0.0
  0
LINE
  8
0
 62
     0
 10
34.659
 20
10.8314
 30
0.0
 11
34.2663
 21
10.6674
 31
0.0
  0
LINE
  8
0
 62
     0
 10
34.2663
 20
10.6674
 30
0.0
 11
33.6889
 21
10.8838
 31
0.0
  0
LINE
  8
0
 62
     0
 10
33.6889
 20
10.8838
 30
0.0
 11
32.7201
 21
11.4915
 31
0.0
  0
LINE
  8
0
 62
     0
 10
81.4987
 20
12.3334
 30
0.0
 11
81.0313
 21
13.2815
 31
0.0
  0
LINE
  8
0
 62
     0
 10
81.0313
 20
13.2815
 30
0.0
 11
80.8302
 21
13.8176
 31
0.0
  0
LINE
  8
0
 62
     0
 10
80.8302
 20
13.8176
 30
0.0
 11
80.8715
 21
14.0574
 31
0.0
  0
LINE
  8
0
 62
     0
 10
80.8715
 20
14.0574
 30
0.0
 11
81.1318
 21
14.1111
 31
0.0
  0
LINE
  8
0
 62
     0
 10
81.1318
 20
14.1111
 30
0.0
 11
81.2945
 21
14.005
 31
0.0
  0
LINE
  8
0
 62
     0
 10
81.2945
 20
14.005
 30
0.0
 11
81.5358
 21
13.717
 31
0.0
  0
LINE
  8
0
 62
     0
 10
81.5358
 20
13.717
 30
0.0
 11
81.8236
 21
13.3022
 31
0.0
  0
LINE
  8
0
 62
     0
 10
81.8236
 20
13.3022
 30
0.0
 11
82.1298
 21
12.8102
 31
0.0
  0
LINE
  8
0
 62
     0
 10
82.1298
 20
12.8102
 30
0.0
 11
82.4219
 21
12.2949
 31
0.0
  0
LINE
  8
0
 62
     0
 10
82.4219
 20
12.2949
 30
0.0
 11
82.6685
 21
11.8084
 31
0.0
  0
LINE
  8
0
 62
     0
 10
82.6685
 20
11.8084
 30
0.0
 11
82.8379
 21
11.4019
 31
0.0
  0
LINE
  8
0
 62
     0
 10
82.8379
 20
11.4019
 30
0.0
 11
82.9028
 21
11.1263
 31
0.0
  0
LINE
  8
0
 62
     0
 10
82.9028
 20
11.1263
 30
0.0
 11
82.7677
 21
10.87
 31
0.0
  0
LINE
  8
0
 62
     0
 10
82.7677
 20
10.87
 30
0.0
 11
82.4258
 21
11.0395
 31
0.0
  0
LINE
  8
0
 62
     0
 10
82.4258
 20
11.0395
 30
0.0
 11
81.9711
 21
11.5535
 31
0.0
  0
LINE
  8
0
 62
     0
 10
81.9711
 20
11.5535
 30
0.0
 11
81.4987
 21
12.3334
 31
0.0
  0
LINE
  8
0
 62
     0
 10
52.7403
 20
11.6899
 30
0.0
 11
50.468
 21
12.0633
 31
0.0
  0
LINE
  8
0
 62
     0
 10
50.468
 20
12.0633
 30
0.0
 11
47.8839
 21
12.6325
 31
0.0
  0
LINE
  8
0
 62
     0
 10
47.8839
 20
12.6325
 30
0.0
 11
45.1873
 21
13.3477
 31
0.0
  0
LINE
  8
0
 62
     0
 10
45.1873
 20
13.3477
 30
0.0
 11
42.576
 21
14.1607
 31
0.0
  0
LINE
  8
0
 62
     0
 10
42.576
 20
14.1607
 30
0.0
 11
40.6065
 21
14.8911
 31
0.0
  0
LINE
  8
0
 62
     0
 10
40.6065
 20
14.8911
 30
0.0
 11
38.5643
 21
15.7593
 31
0.0
  0
LINE
  8
0
 62
     0
 10
38.5643
 20
15.7593
 30
0.0
 11
36.5552
 21
16.706
 31
0.0
  0
LINE
  8
0
 62
     0
 10
36.5552
 20
16.706
 30
0.0
 11
34.6852
 21
17.6734
 31
0.0
  0
LINE
  8
0
 62
     0
 10
34.6852
 20
17.6734
 30
0.0
 11
33.0647
 21
18.6035
 31
0.0
  0
LINE
  8
0
 62
     0
 10
33.0647
 20
18.6035
 30
0.0
 11
31.7968
 21
19.4386
 31
0.0
  0
LINE
  8
0
 62
     0
 10
31.7968
 20
19.4386
 30
0.0
 11
30.9921
 21
20.1194
 31
0.0
  0
LINE
  8
0
 62
     0
 10
30.9921
 20
20.1194
 30
0.0
 11
30.7564
 21
20.5865
 31
0.0
  0
LINE
  8
0
 62
     0
 10
30.7564
 20
20.5865
 30
0.0
 11
31.0183
 21
21.0054
 31
0.0
  0
LINE
  8
0
 62
     0
 10
31.0183
 20
21.0054
 30
0.0
 11
31.6866
 21
21.8888
 31
0.0
  0
LINE
  8
0
 62
     0
 10
31.6866
 20
21.8888
 30
0.0
 11
32.7036
 21
23.1717
 31
0.0
  0
LINE
  8
0
 62
     0
 10
32.7036
 20
23.1717
 30
0.0
 11
34.0128
 21
24.7854
 31
0.0
  0
LINE
  8
0
 62
     0
 10
34.0128
 20
24.7854
 30
0.0
 11
35.5547
 21
26.6595
 31
0.0
  0
LINE
  8
0
 62
     0
 10
35.5547
 20
26.6595
 30
0.0
 11
37.2745
 21
28.7293
 31
0.0
  0
LINE
  8
0
 62
     0
 10
37.2745
 20
28.7293
 30
0.0
 11
39.1114
 21
30.9246
 31
0.0
  0
LINE
  8
0
 62
     0
 10
39.1114
 20
30.9246
 30
0.0
 11
41.0104
 21
33.179
 31
0.0
  0
LINE
  8
0
 62
     0
 10
41.0104
 20
33.179
 30
0.0
 11
42.9137
 21
35.4224
 31
0.0
  0
LINE
  8
0
 62
     0
 10
42.9137
 20
35.4224
 30
0.0
 11
44.7629
 21
37.5874
 31
0.0
  0
LINE
  8
0
 62
     0
 10
44.7629
 20
37.5874
 30
0.0
 11
46.5007
 21
39.6074
 31
0.0
  0
LINE
  8
0
 62
     0
 10
46.5007
 20
39.6074
 30
0.0
 11
48.0688
 21
41.4129
 31
0.0
  0
LINE
  8
0
 62
     0
 10
48.0688
 20
41.4129
 30
0.0
 11
49.4111
 21
42.9355
 31
0.0
  0
LINE
  8
0
 62
     0
 10
49.4111
 20
42.9355
 30
0.0
 11
50.4705
 21
44.1082
 31
0.0
  0
LINE
  8
0
 62
     0
 10
50.4705
 20
44.1082
 30
0.0
 11
51.1874
 21
44.8635
 31
0.0
  0
LINE
  8
0
 62
     0
 10
51.1874
 20
44.8635
 30
0.0
 11
51.5056
 21
45.1309
 31
0.0
  0
LINE
  8
0
 62
     0
 10
51.5056
 20
45.1309
 30
0.0
 11
51.9451
 21
44.873
 31
0.0
  0
LINE
  8
0
 62
     0
 10
51.9451
 20
44.873
 30
0.0
 11
52.7526
 21
44.1593
 31
0.0
  0
LINE
  8
0
 62
     0
 10
52.7526
 20
44.1593
 30
0.0
 11
53.8124
 21
43.0982
 31
0.0
  0
LINE
  8
0
 62
     0
 10
53.8124
 20
43.0982
 30
0.0
 11
55.0115
 21
41.7985
 31
0.0
  0
LINE
  8
0
 62
     0
 10
55.0115
 20
41.7985
 30
0.0
 11
56.188
 21
40.5007
 31
0.0
  0
LINE
  8
0
 62
     0
 10
56.188
 20
40.5007
 30
0.0
 11
57.1899
 21
39.4367
 31
0.0
  0
LINE
  8
0
 62
     0
 10
57.1899
 20
39.4367
 30
0.0
 11
57.9134
 21
38.7174
 31
0.0
  0
LINE
  8
0
 62
     0
 10
57.9134
 20
38.7174
 30
0.0
 11
58.2496
 21
38.4528
 31
0.0
  0
LINE
  8
0
 62
     0
 10
58.2496
 20
38.4528
 30
0.0
 11
58.5957
 21
38.7174
 31
0.0
  0
LINE
  8
0
 62
     0
 10
58.5957
 20
38.7174
 30
0.0
 11
59.3425
 21
39.4381
 31
0.0
  0
LINE
  8
0
 62
     0
 10
59.3425
 20
39.4381
 30
0.0
 11
60.3829
 21
40.5035
 31
0.0
  0
LINE
  8
0
 62
     0
 10
60.3829
 20
40.5035
 30
0.0
 11
61.6052
 21
41.8042
 31
0.0
  0
LINE
  8
0
 62
     0
 10
61.6052
 20
41.8042
 30
0.0
 11
62.8357
 21
43.1063
 31
0.0
  0
LINE
  8
0
 62
     0
 10
62.8357
 20
43.1063
 30
0.0
 11
63.8997
 21
44.1717
 31
0.0
  0
LINE
  8
0
 62
     0
 10
63.8997
 20
44.1717
 30
0.0
 11
64.6836
 21
44.8924
 31
0.0
  0
LINE
  8
0
 62
     0
 10
64.6836
 20
44.8924
 30
0.0
 11
65.0737
 21
45.1556
 31
0.0
  0
LINE
  8
0
 62
     0
 10
65.0737
 20
45.1556
 30
0.0
 11
65.3563
 21
44.8867
 31
0.0
  0
LINE
  8
0
 62
     0
 10
65.3563
 20
44.8867
 30
0.0
 11
66.0411
 21
44.1247
 31
0.0
  0
LINE
  8
0
 62
     0
 10
66.0411
 20
44.1247
 30
0.0
 11
67.0719
 21
42.9398
 31
0.0
  0
LINE
  8
0
 62
     0
 10
67.0719
 20
42.9398
 30
0.0
 11
68.3906
 21
41.4002
 31
0.0
  0
LINE
  8
0
 62
     0
 10
68.3906
 20
41.4002
 30
0.0
 11
69.9396
 21
39.576
 31
0.0
  0
LINE
  8
0
 62
     0
 10
69.9396
 20
39.576
 30
0.0
 11
71.6608
 21
37.5349
 31
0.0
  0
LINE
  8
0
 62
     0
 10
71.6608
 20
37.5349
 30
0.0
 11
73.4949
 21
35.348
 31
0.0
  0
LINE
  8
0
 62
     0
 10
73.4949
 20
35.348
 30
0.0
 11
75.3883
 21
33.0825
 31
0.0
  0
LINE
  8
0
 62
     0
 10
75.3883
 20
33.0825
 30
0.0
 11
77.2791
 21
30.8102
 31
0.0
  0
LINE
  8
0
 62
     0
 10
77.2791
 20
30.8102
 30
0.0
 11
79.1118
 21
28.5984
 31
0.0
  0
LINE
  8
0
 62
     0
 10
79.1118
 20
28.5984
 30
0.0
 11
80.8288
 21
26.5162
 31
0.0
  0
LINE
  8
0
 62
     0
 10
80.8288
 20
26.5162
 30
0.0
 11
82.3722
 21
24.6324
 31
0.0
  0
LINE
  8
0
 62
     0
 10
82.3722
 20
24.6324
 30
0.0
 11
83.6828
 21
23.0188
 31
0.0
  0
LINE
  8
0
 62
     0
 10
83.6828
 20
23.0188
 30
0.0
 11
84.7051
 21
21.7427
 31
0.0
  0
LINE
  8
0
 62
     0
 10
84.7051
 20
21.7427
 30
0.0
 11
85.3793
 21
20.8718
 31
0.0
  0
LINE
  8
0
 62
     0
 10
85.3793
 20
20.8718
 30
0.0
 11
85.6506
 21
20.4777
 31
0.0
  0
LINE
  8
0
 62
     0
 10
85.6506
 20
20.4777
 30
0.0
 11
85.4837
 21
20.2144
 31
0.0
  0
LINE
  8
0
 62
     0
 10
85.4837
 20
20.2144
 30
0.0
 11
84.9231
 21
19.7569
 31
0.0
  0
LINE
  8
0
 62
     0
 10
84.9231
 20
19.7569
 30
0.0
 11
84.0422
 21
19.1534
 31
0.0
  0
LINE
  8
0
 62
     0
 10
84.0422
 20
19.1534
 30
0.0
 11
82.9194
 21
18.4478
 31
0.0
  0
LINE
  8
0
 62
     0
 10
82.9194
 20
18.4478
 30
0.0
 11
81.6282
 21
17.6885
 31
0.0
  0
LINE
  8
0
 62
     0
 10
81.6282
 20
17.6885
 30
0.0
 11
80.2446
 21
16.9182
 31
0.0
  0
LINE
  8
0
 62
     0
 10
80.2446
 20
16.9182
 30
0.0
 11
78.843
 21
16.1851
 31
0.0
  0
LINE
  8
0
 62
     0
 10
78.843
 20
16.1851
 30
0.0
 11
77.5021
 21
15.5333
 31
0.0
  0
LINE
  8
0
 62
     0
 10
77.5021
 20
15.5333
 30
0.0
 11
71.5656
 21
13.2857
 31
0.0
  0
LINE
  8
0
 62
     0
 10
71.5656
 20
13.2857
 30
0.0
 11
65.3796
 21
11.8828
 31
0.0
  0
LINE
  8
0
 62
     0
 10
65.3796
 20
11.8828
 30
0.0
 11
59.0628
 21
11.3454
 31
0.0
  0
LINE
  8
0
 62
     0
 10
59.0628
 20
11.3454
 30
0.0
 11
52.7403
 21
11.6899
 31
0.0
  0
LINE
  8
0
 62
     0
 10
83.6316
 20
13.3725
 30
0.0
 11
83.1162
 21
14.1952
 31
0.0
  0
LINE
  8
0
 62
     0
 10
83.1162
 20
14.1952
 30
0.0
 11
82.9028
 21
14.7354
 31
0.0
  0
LINE
  8
0
 62
     0
 10
82.9028
 20
14.7354
 30
0.0
 11
83.0132
 21
14.9173
 31
0.0
  0
LINE
  8
0
 62
     0
 10
83.0132
 20
14.9173
 30
0.0
 11
83.3078
 21
15.2067
 31
0.0
  0
LINE
  8
0
 62
     0
 10
83.3078
 20
15.2067
 30
0.0
 11
83.7336
 21
15.5636
 31
0.0
  0
LINE
  8
0
 62
     0
 10
83.7336
 20
15.5636
 30
0.0
 11
84.2328
 21
15.948
 31
0.0
  0
LINE
  8
0
 62
     0
 10
84.2328
 20
15.948
 30
0.0
 11
84.7492
 21
16.3173
 31
0.0
  0
LINE
  8
0
 62
     0
 10
84.7492
 20
16.3173
 30
0.0
 11
85.2318
 21
16.6329
 31
0.0
  0
LINE
  8
0
 62
     0
 10
85.2318
 20
16.6329
 30
0.0
 11
85.6216
 21
16.852
 31
0.0
  0
LINE
  8
0
 62
     0
 10
85.6216
 20
16.852
 30
0.0
 11
85.8654
 21
16.9333
 31
0.0
  0
LINE
  8
0
 62
     0
 10
85.8654
 20
16.9333
 30
0.0
 11
86.2143
 21
16.5654
 31
0.0
  0
LINE
  8
0
 62
     0
 10
86.2143
 20
16.5654
 30
0.0
 11
86.7615
 21
15.7275
 31
0.0
  0
LINE
  8
0
 62
     0
 10
86.7615
 20
15.7275
 30
0.0
 11
87.2656
 21
14.8208
 31
0.0
  0
LINE
  8
0
 62
     0
 10
87.2656
 20
14.8208
 30
0.0
 11
87.4847
 21
14.2462
 31
0.0
  0
LINE
  8
0
 62
     0
 10
87.4847
 20
14.2462
 30
0.0
 11
87.3841
 21
14.0643
 31
0.0
  0
LINE
  8
0
 62
     0
 10
87.3841
 20
14.0643
 30
0.0
 11
87.1181
 21
13.8011
 31
0.0
  0
LINE
  8
0
 62
     0
 10
87.1181
 20
13.8011
 30
0.0
 11
86.7336
 21
13.491
 31
0.0
  0
LINE
  8
0
 62
     0
 10
86.7336
 20
13.491
 30
0.0
 11
86.2803
 21
13.1644
 31
0.0
  0
LINE
  8
0
 62
     0
 10
86.2803
 20
13.1644
 30
0.0
 11
85.8008
 21
12.8557
 31
0.0
  0
LINE
  8
0
 62
     0
 10
85.8008
 20
12.8557
 30
0.0
 11
85.3461
 21
12.5953
 31
0.0
  0
LINE
  8
0
 62
     0
 10
85.3461
 20
12.5953
 30
0.0
 11
84.9616
 21
12.4147
 31
0.0
  0
LINE
  8
0
 62
     0
 10
84.9616
 20
12.4147
 30
0.0
 11
84.6956
 21
12.3472
 31
0.0
  0
LINE
  8
0
 62
     0
 10
84.6956
 20
12.3472
 30
0.0
 11
84.2451
 21
12.649
 31
0.0
  0
LINE
  8
0
 62
     0
 10
84.2451
 20
12.649
 30
0.0
 11
83.6316
 21
13.3725
 31
0.0
  0
LINE
  8
0
 62
     0
 10
86.7833
 20
14.4088
 30
0.0
 11
86.6207
 21
14.818
 31
0.0
  0
LINE
  8
0
 62
     0
 10
86.6207
 20
14.818
 30
0.0
 11
86.2309
 21
15.4492
 31
0.0
  0
LINE
  8
0
 62
     0
 10
86.2309
 20
15.4492
 30
0.0
 11
85.8957
 21
15.886
 31
0.0
  0
LINE
  8
0
 62
     0
 10
85.8957
 20
15.886
 30
0.0
 11
85.6121
 21
16.0514
 31
0.0
  0
LINE
  8
0
 62
     0
 10
85.6121
 20
16.0514
 30
0.0
 11
85.2385
 21
15.9604
 31
0.0
  0
LINE
  8
0
 62
     0
 10
85.2385
 20
15.9604
 30
0.0
 11
84.6434
 21
15.6283
 31
0.0
  0
LINE
  8
0
 62
     0
 10
84.6434
 20
15.6283
 30
0.0
 11
83.9569
 21
15.1749
 31
0.0
  0
LINE
  8
0
 62
     0
 10
83.9569
 20
15.1749
 30
0.0
 11
83.6718
 21
14.7767
 31
0.0
  0
LINE
  8
0
 62
     0
 10
83.6718
 20
14.7767
 30
0.0
 11
83.7558
 21
14.2903
 31
0.0
  0
LINE
  8
0
 62
     0
 10
83.7558
 20
14.2903
 30
0.0
 11
84.176
 21
13.5723
 31
0.0
  0
LINE
  8
0
 62
     0
 10
84.176
 20
13.5723
 30
0.0
 11
84.7439
 21
12.7069
 31
0.0
  0
LINE
  8
0
 62
     0
 10
84.7439
 20
12.7069
 30
0.0
 11
85.7635
 21
13.4331
 31
0.0
  0
LINE
  8
0
 62
     0
 10
85.7635
 20
13.4331
 30
0.0
 11
86.4828
 21
14.0202
 31
0.0
  0
LINE
  8
0
 62
     0
 10
86.4828
 20
14.0202
 30
0.0
 11
86.7833
 21
14.4088
 31
0.0
  0
LINE
  8
0
 62
     0
 10
27.7813
 20
14.6458
 30
0.0
 11
27.2673
 21
15.0179
 31
0.0
  0
LINE
  8
0
 62
     0
 10
27.2673
 20
15.0179
 30
0.0
 11
26.847
 21
15.361
 31
0.0
  0
LINE
  8
0
 62
     0
 10
26.847
 20
15.361
 30
0.0
 11
26.5617
 21
15.6393
 31
0.0
  0
LINE
  8
0
 62
     0
 10
26.5617
 20
15.6393
 30
0.0
 11
26.4583
 21
15.813
 31
0.0
  0
LINE
  8
0
 62
     0
 10
26.4583
 20
15.813
 30
0.0
 11
26.5369
 21
16.0114
 31
0.0
  0
LINE
  8
0
 62
     0
 10
26.5369
 20
16.0114
 30
0.0
 11
26.7532
 21
16.3546
 31
0.0
  0
LINE
  8
0
 62
     0
 10
26.7532
 20
16.3546
 30
0.0
 11
27.0729
 21
16.7942
 31
0.0
  0
LINE
  8
0
 62
     0
 10
27.0729
 20
16.7942
 30
0.0
 11
27.4643
 21
17.282
 31
0.0
  0
LINE
  8
0
 62
     0
 10
27.4643
 20
17.282
 30
0.0
 11
28.4703
 21
18.4878
 31
0.0
  0
LINE
  8
0
 62
     0
 10
28.4703
 20
18.4878
 30
0.0
 11
29.9434
 21
17.3192
 31
0.0
  0
LINE
  8
0
 62
     0
 10
29.9434
 20
17.3192
 30
0.0
 11
31.4179
 21
16.152
 31
0.0
  0
LINE
  8
0
 62
     0
 10
31.4179
 20
16.152
 30
0.0
 11
30.7192
 21
15.0427
 31
0.0
  0
LINE
  8
0
 62
     0
 10
30.7192
 20
15.0427
 30
0.0
 11
30.1032
 21
14.2241
 31
0.0
  0
LINE
  8
0
 62
     0
 10
30.1032
 20
14.2241
 30
0.0
 11
29.5121
 21
13.8975
 31
0.0
  0
LINE
  8
0
 62
     0
 10
29.5121
 20
13.8975
 30
0.0
 11
28.7886
 21
14.0463
 31
0.0
  0
LINE
  8
0
 62
     0
 10
28.7886
 20
14.0463
 30
0.0
 11
27.7813
 21
14.6458
 31
0.0
  0
LINE
  8
0
 62
     0
 10
30.1542
 20
15.2576
 30
0.0
 11
30.4423
 21
15.7179
 31
0.0
  0
LINE
  8
0
 62
     0
 10
30.4423
 20
15.7179
 30
0.0
 11
30.4905
 21
16.0514
 31
0.0
  0
LINE
  8
0
 62
     0
 10
30.4905
 20
16.0514
 30
0.0
 11
30.2645
 21
16.3862
 31
0.0
  0
LINE
  8
0
 62
     0
 10
30.2645
 20
16.3862
 30
0.0
 11
29.7326
 21
16.8438
 31
0.0
  0
LINE
  8
0
 62
     0
 10
29.7326
 20
16.8438
 30
0.0
 11
29.0256
 21
17.3895
 31
0.0
  0
LINE
  8
0
 62
     0
 10
29.0256
 20
17.3895
 30
0.0
 11
28.5874
 21
17.5603
 31
0.0
  0
LINE
  8
0
 62
     0
 10
28.5874
 20
17.5603
 30
0.0
 11
28.2277
 21
17.3454
 31
0.0
  0
LINE
  8
0
 62
     0
 10
28.2277
 20
17.3454
 30
0.0
 11
27.7565
 21
16.7349
 31
0.0
  0
LINE
  8
0
 62
     0
 10
27.7565
 20
16.7349
 30
0.0
 11
27.405
 21
16.2195
 31
0.0
  0
LINE
  8
0
 62
     0
 10
27.405
 20
16.2195
 30
0.0
 11
27.3072
 21
15.8791
 31
0.0
  0
LINE
  8
0
 62
     0
 10
27.3072
 20
15.8791
 30
0.0
 11
27.4767
 21
15.576
 31
0.0
  0
LINE
  8
0
 62
     0
 10
27.4767
 20
15.576
 30
0.0
 11
27.9328
 21
15.1694
 31
0.0
  0
LINE
  8
0
 62
     0
 10
27.9328
 20
15.1694
 30
0.0
 11
28.6356
 21
14.672
 31
0.0
  0
LINE
  8
0
 62
     0
 10
28.6356
 20
14.672
 30
0.0
 11
29.1896
 21
14.5176
 31
0.0
  0
LINE
  8
0
 62
     0
 10
29.1896
 20
14.5176
 30
0.0
 11
29.6706
 21
14.7119
 31
0.0
  0
LINE
  8
0
 62
     0
 10
29.6706
 20
14.7119
 30
0.0
 11
30.1542
 21
15.2576
 31
0.0
  0
LINE
  8
0
 62
     0
 10
88.4149
 20
16.593
 30
0.0
 11
87.6819
 21
17.57
 31
0.0
  0
LINE
  8
0
 62
     0
 10
87.6819
 20
17.57
 30
0.0
 11
87.5729
 21
18.1143
 31
0.0
  0
LINE
  8
0
 62
     0
 10
87.5729
 20
18.1143
 30
0.0
 11
88.1408
 21
18.3114
 31
0.0
  0
LINE
  8
0
 62
     0
 10
88.1408
 20
18.3114
 30
0.0
 11
89.4362
 21
18.2425
 31
0.0
  0
LINE
  8
0
 62
     0
 10
89.4362
 20
18.2425
 30
0.0
 11
91.3818
 21
18.0413
 31
0.0
  0
LINE
  8
0
 62
     0
 10
91.3818
 20
18.0413
 30
0.0
 11
90.6459
 21
19.0748
 31
0.0
  0
LINE
  8
0
 62
     0
 10
90.6459
 20
19.0748
 30
0.0
 11
90.1816
 21
19.8727
 31
0.0
  0
LINE
  8
0
 62
     0
 10
90.1816
 20
19.8727
 30
0.0
 11
90.2656
 21
20.0835
 31
0.0
  0
LINE
  8
0
 62
     0
 10
90.2656
 20
20.0835
 30
0.0
 11
90.7591
 21
19.7404
 31
0.0
  0
LINE
  8
0
 62
     0
 10
90.7591
 20
19.7404
 30
0.0
 11
91.5225
 21
18.8736
 31
0.0
  0
LINE
  8
0
 62
     0
 10
91.5225
 20
18.8736
 30
0.0
 11
92.4638
 21
17.6389
 31
0.0
  0
LINE
  8
0
 62
     0
 10
92.4638
 20
17.6389
 30
0.0
 11
90.5055
 21
17.6389
 31
0.0
  0
LINE
  8
0
 62
     0
 10
90.5055
 20
17.6389
 30
0.0
 11
89.2736
 21
17.6044
 31
0.0
  0
LINE
  8
0
 62
     0
 10
89.2736
 20
17.6044
 30
0.0
 11
88.6905
 21
17.4515
 31
0.0
  0
LINE
  8
0
 62
     0
 10
88.6905
 20
17.4515
 30
0.0
 11
88.6714
 21
17.1125
 31
0.0
  0
LINE
  8
0
 62
     0
 10
88.6714
 20
17.1125
 30
0.0
 11
89.1328
 21
16.5185
 31
0.0
  0
LINE
  8
0
 62
     0
 10
89.1328
 20
16.5185
 30
0.0
 11
89.4898
 21
16.0059
 31
0.0
  0
LINE
  8
0
 62
     0
 10
89.4898
 20
16.0059
 30
0.0
 11
89.5297
 21
15.6821
 31
0.0
  0
LINE
  8
0
 62
     0
 10
89.5297
 20
15.6821
 30
0.0
 11
89.1233
 21
15.8722
 31
0.0
  0
LINE
  8
0
 62
     0
 10
89.1233
 20
15.8722
 30
0.0
 11
88.4149
 21
16.593
 31
0.0
  0
LINE
  8
0
 62
     0
 10
24.0054
 20
17.6706
 30
0.0
 11
22.7873
 21
18.6917
 31
0.0
  0
LINE
  8
0
 62
     0
 10
22.7873
 20
18.6917
 30
0.0
 11
23.9806
 21
19.9237
 31
0.0
  0
LINE
  8
0
 62
     0
 10
23.9806
 20
19.9237
 30
0.0
 11
24.8543
 21
20.7257
 31
0.0
  0
LINE
  8
0
 62
     0
 10
24.8543
 20
20.7257
 30
0.0
 11
25.3104
 21
20.9476
 31
0.0
  0
LINE
  8
0
 62
     0
 10
25.3104
 20
20.9476
 30
0.0
 11
25.287
 21
20.6072
 31
0.0
  0
LINE
  8
0
 62
     0
 10
25.287
 20
20.6072
 30
0.0
 11
24.7247
 21
19.7211
 31
0.0
  0
LINE
  8
0
 62
     0
 10
24.7247
 20
19.7211
 30
0.0
 11
23.9227
 21
18.6366
 31
0.0
  0
LINE
  8
0
 62
     0
 10
23.9227
 20
18.6366
 30
0.0
 11
24.722
 21
17.7863
 31
0.0
  0
LINE
  8
0
 62
     0
 10
24.722
 20
17.7863
 30
0.0
 11
25.298
 21
17.0808
 31
0.0
  0
LINE
  8
0
 62
     0
 10
25.298
 20
17.0808
 30
0.0
 11
25.3311
 21
16.819
 31
0.0
  0
LINE
  8
0
 62
     0
 10
25.3311
 20
16.819
 30
0.0
 11
24.8791
 21
17.0133
 31
0.0
  0
LINE
  8
0
 62
     0
 10
24.8791
 20
17.0133
 30
0.0
 11
24.0054
 21
17.6706
 31
0.0
  0
LINE
  8
0
 62
     0
 10
22.5378
 20
28.134
 30
0.0
 11
19.3559
 21
32.4569
 31
0.0
  0
LINE
  8
0
 62
     0
 10
19.3559
 20
32.4569
 30
0.0
 11
17.2255
 21
36.1294
 31
0.0
  0
LINE
  8
0
 62
     0
 10
17.2255
 20
36.1294
 30
0.0
 11
16.4303
 21
37.768
 31
0.0
  0
LINE
  8
0
 62
     0
 10
16.4303
 20
37.768
 30
0.0
 11
26.8222
 21
48.1651
 31
0.0
  0
LINE
  8
0
 62
     0
 10
26.8222
 20
48.1651
 30
0.0
 11
28.914
 21
50.2543
 31
0.0
  0
LINE
  8
0
 62
     0
 10
28.914
 20
50.2543
 30
0.0
 11
30.8749
 21
52.203
 31
0.0
  0
LINE
  8
0
 62
     0
 10
30.8749
 20
52.203
 30
0.0
 11
32.6609
 21
53.9679
 31
0.0
  0
LINE
  8
0
 62
     0
 10
32.6609
 20
53.9679
 30
0.0
 11
34.2291
 21
55.5075
 31
0.0
  0
LINE
  8
0
 62
     0
 10
34.2291
 20
55.5075
 30
0.0
 11
35.5367
 21
56.7806
 31
0.0
  0
LINE
  8
0
 62
     0
 10
35.5367
 20
56.7806
 30
0.0
 11
36.5372
 21
57.7413
 31
0.0
  0
LINE
  8
0
 62
     0
 10
36.5372
 20
57.7413
 30
0.0
 11
37.1891
 21
58.3501
 31
0.0
  0
LINE
  8
0
 62
     0
 10
37.1891
 20
58.3501
 30
0.0
 11
37.4495
 21
58.5611
 31
0.0
  0
LINE
  8
0
 62
     0
 10
37.4495
 20
58.5611
 30
0.0
 11
37.9621
 21
58.1381
 31
0.0
  0
LINE
  8
0
 62
     0
 10
37.9621
 20
58.1381
 30
0.0
 11
39.0578
 21
57.0149
 31
0.0
  0
LINE
  8
0
 62
     0
 10
39.0578
 20
57.0149
 30
0.0
 11
40.531
 21
55.4232
 31
0.0
  0
LINE
  8
0
 62
     0
 10
40.531
 20
55.4232
 30
0.0
 11
42.1802
 21
53.5891
 31
0.0
  0
LINE
  8
0
 62
     0
 10
42.1802
 20
53.5891
 30
0.0
 11
43.8051
 21
51.7398
 31
0.0
  0
LINE
  8
0
 62
     0
 10
43.8051
 20
51.7398
 30
0.0
 11
45.2025
 21
50.1015
 31
0.0
  0
LINE
  8
0
 62
     0
 10
45.2025
 20
50.1015
 30
0.0
 11
46.1712
 21
48.9024
 31
0.0
  0
LINE
  8
0
 62
     0
 10
46.1712
 20
48.9024
 30
0.0
 11
46.5088
 21
48.369
 31
0.0
  0
LINE
  8
0
 62
     0
 10
46.5088
 20
48.369
 30
0.0
 11
46.167
 21
47.9309
 31
0.0
  0
LINE
  8
0
 62
     0
 10
46.167
 20
47.9309
 30
0.0
 11
45.3291
 21
46.9692
 31
0.0
  0
LINE
  8
0
 62
     0
 10
45.3291
 20
46.9692
 30
0.0
 11
44.118
 21
45.6283
 31
0.0
  0
LINE
  8
0
 62
     0
 10
44.118
 20
45.6283
 30
0.0
 11
42.6614
 21
44.0461
 31
0.0
  0
LINE
  8
0
 62
     0
 10
42.6614
 20
44.0461
 30
0.0
 11
40.677
 21
41.9146
 31
0.0
  0
LINE
  8
0
 62
     0
 10
40.677
 20
41.9146
 30
0.0
 11
38.0298
 21
39.0673
 31
0.0
  0
LINE
  8
0
 62
     0
 10
38.0298
 20
39.0673
 30
0.0
 11
35.0655
 21
35.88
 31
0.0
  0
LINE
  8
0
 62
     0
 10
35.0655
 20
35.88
 30
0.0
 11
32.1317
 21
32.7201
 31
0.0
  0
LINE
  8
0
 62
     0
 10
32.1317
 20
32.7201
 30
0.0
 11
29.4652
 21
29.8786
 31
0.0
  0
LINE
  8
0
 62
     0
 10
29.4652
 20
29.8786
 30
0.0
 11
27.2355
 21
27.5511
 31
0.0
  0
LINE
  8
0
 62
     0
 10
27.2355
 20
27.5511
 30
0.0
 11
25.6756
 21
25.9788
 31
0.0
  0
LINE
  8
0
 62
     0
 10
25.6756
 20
25.9788
 30
0.0
 11
25.0197
 21
25.4
 31
0.0
  0
LINE
  8
0
 62
     0
 10
25.0197
 20
25.4
 30
0.0
 11
24.7275
 21
25.6164
 31
0.0
  0
LINE
  8
0
 62
     0
 10
24.7275
 20
25.6164
 30
0.0
 11
24.1625
 21
26.2034
 31
0.0
  0
LINE
  8
0
 62
     0
 10
24.1625
 20
26.2034
 30
0.0
 11
23.4046
 21
27.0729
 31
0.0
  0
LINE
  8
0
 62
     0
 10
23.4046
 20
27.0729
 30
0.0
 11
22.5378
 21
28.134
 31
0.0
  0
LINE
  8
0
 62
     0
 10
85.8587
 20
30.7826
 30
0.0
 11
83.5988
 21
33.2328
 31
0.0
  0
LINE
  8
0
 62
     0
 10
83.5988
 20
33.2328
 30
0.0
 11
80.8662
 21
36.1901
 31
0.0
  0
LINE
  8
0
 62
     0
 10
80.8662
 20
36.1901
 30
0.0
 11
78.0066
 21
39.2825
 31
0.0
  0
LINE
  8
0
 62
     0
 10
78.0066
 20
39.2825
 30
0.0
 11
75.3636
 21
42.1351
 31
0.0
  0
LINE
  8
0
 62
     0
 10
75.3636
 20
42.1351
 30
0.0
 11
73.0857
 21
44.6098
 31
0.0
  0
LINE
  8
0
 62
     0
 10
73.0857
 20
44.6098
 30
0.0
 11
71.2198
 21
46.6686
 31
0.0
  0
LINE
  8
0
 62
     0
 10
71.2198
 20
46.6686
 30
0.0
 11
69.959
 21
48.0977
 31
0.0
  0
LINE
  8
0
 62
     0
 10
69.959
 20
48.0977
 30
0.0
 11
69.4972
 21
48.6805
 31
0.0
  0
LINE
  8
0
 62
     0
 10
69.4972
 20
48.6805
 30
0.0
 11
69.8638
 21
49.2319
 31
0.0
  0
LINE
  8
0
 62
     0
 10
69.8638
 20
49.2319
 30
0.0
 11
70.8367
 21
50.3961
 31
0.0
  0
LINE
  8
0
 62
     0
 10
70.8367
 20
50.3961
 30
0.0
 11
72.2217
 21
51.9645
 31
0.0
  0
LINE
  8
0
 62
     0
 10
72.2217
 20
51.9645
 30
0.0
 11
73.8258
 21
53.7256
 31
0.0
  0
LINE
  8
0
 62
     0
 10
73.8258
 20
53.7256
 30
0.0
 11
75.4532
 21
55.4701
 31
0.0
  0
LINE
  8
0
 62
     0
 10
75.4532
 20
55.4701
 30
0.0
 11
76.9137
 21
56.9902
 31
0.0
  0
LINE
  8
0
 62
     0
 10
76.9137
 20
56.9902
 30
0.0
 11
78.0122
 21
58.0718
 31
0.0
  0
LINE
  8
0
 62
     0
 10
78.0122
 20
58.0718
 30
0.0
 11
78.5566
 21
58.5089
 31
0.0
  0
LINE
  8
0
 62
     0
 10
78.5566
 20
58.5089
 30
0.0
 11
78.9023
 21
58.3089
 31
0.0
  0
LINE
  8
0
 62
     0
 10
78.9023
 20
58.3089
 30
0.0
 11
79.6491
 21
57.6929
 31
0.0
  0
LINE
  8
0
 62
     0
 10
79.6491
 20
57.6929
 30
0.0
 11
80.7378
 21
56.7186
 31
0.0
  0
LINE
  8
0
 62
     0
 10
80.7378
 20
56.7186
 30
0.0
 11
82.1104
 21
55.4426
 31
0.0
  0
LINE
  8
0
 62
     0
 10
82.1104
 20
55.4426
 30
0.0
 11
83.7089
 21
53.9238
 31
0.0
  0
LINE
  8
0
 62
     0
 10
83.7089
 20
53.9238
 30
0.0
 11
85.4742
 21
52.2206
 31
0.0
  0
LINE
  8
0
 62
     0
 10
85.4742
 20
52.2206
 30
0.0
 11
87.3485
 21
50.3894
 31
0.0
  0
LINE
  8
0
 62
     0
 10
87.3485
 20
50.3894
 30
0.0
 11
89.2736
 21
48.489
 31
0.0
  0
LINE
  8
0
 62
     0
 10
89.2736
 20
48.489
 30
0.0
 11
91.1888
 21
46.5776
 31
0.0
  0
LINE
  8
0
 62
     0
 10
91.1888
 20
46.5776
 30
0.0
 11
93.0395
 21
44.7132
 31
0.0
  0
LINE
  8
0
 62
     0
 10
93.0395
 20
44.7132
 30
0.0
 11
94.7649
 21
42.9535
 31
0.0
  0
LINE
  8
0
 62
     0
 10
94.7649
 20
42.9535
 30
0.0
 11
96.3083
 21
41.3561
 31
0.0
  0
LINE
  8
0
 62
     0
 10
96.3083
 20
41.3561
 30
0.0
 11
97.6094
 21
39.9782
 31
0.0
  0
LINE
  8
0
 62
     0
 10
97.6094
 20
39.9782
 30
0.0
 11
98.6109
 21
38.8786
 31
0.0
  0
LINE
  8
0
 62
     0
 10
98.6109
 20
38.8786
 30
0.0
 11
99.2547
 21
38.1152
 31
0.0
  0
LINE
  8
0
 62
     0
 10
99.2547
 20
38.1152
 30
0.0
 11
99.4833
 21
37.7444
 31
0.0
  0
LINE
  8
0
 62
     0
 10
99.4833
 20
37.7444
 30
0.0
 11
99.1623
 21
36.74
 31
0.0
  0
LINE
  8
0
 62
     0
 10
99.1623
 20
36.74
 30
0.0
 11
98.3065
 21
35.151
 31
0.0
  0
LINE
  8
0
 62
     0
 10
98.3065
 20
35.151
 30
0.0
 11
97.076
 21
33.1997
 31
0.0
  0
LINE
  8
0
 62
     0
 10
97.076
 20
33.1997
 30
0.0
 11
95.6275
 21
31.1078
 31
0.0
  0
LINE
  8
0
 62
     0
 10
95.6275
 20
31.1078
 30
0.0
 11
94.1229
 21
29.0959
 31
0.0
  0
LINE
  8
0
 62
     0
 10
94.1229
 20
29.0959
 30
0.0
 11
92.7213
 21
27.3858
 31
0.0
  0
LINE
  8
0
 62
     0
 10
92.7213
 20
27.3858
 30
0.0
 11
91.579
 21
26.1993
 31
0.0
  0
LINE
  8
0
 62
     0
 10
91.579
 20
26.1993
 30
0.0
 11
90.8597
 21
25.7555
 31
0.0
  0
LINE
  8
0
 62
     0
 10
90.8597
 20
25.7555
 30
0.0
 11
90.69
 21
25.8589
 31
0.0
  0
LINE
  8
0
 62
     0
 10
90.69
 20
25.8589
 30
0.0
 11
90.3482
 21
26.1538
 31
0.0
  0
LINE
  8
0
 62
     0
 10
90.3482
 20
26.1538
 30
0.0
 11
89.8578
 21
26.6196
 31
0.0
  0
LINE
  8
0
 62
     0
 10
89.8578
 20
26.6196
 30
0.0
 11
89.2362
 21
27.2342
 31
0.0
  0
LINE
  8
0
 62
     0
 10
89.2362
 20
27.2342
 30
0.0
 11
88.5059
 21
27.9783
 31
0.0
  0
LINE
  8
0
 62
     0
 10
88.5059
 20
27.9783
 30
0.0
 11
87.6847
 21
28.8327
 31
0.0
  0
LINE
  8
0
 62
     0
 10
87.6847
 20
28.8327
 30
0.0
 11
86.7957
 21
29.7739
 31
0.0
  0
LINE
  8
0
 62
     0
 10
86.7957
 20
29.7739
 30
0.0
 11
85.8587
 21
30.7826
 31
0.0
  0
LINE
  8
0
 62
     0
 10
107.377
 20
39.9905
 30
0.0
 11
107.443
 21
40.4315
 31
0.0
  0
LINE
  8
0
 62
     0
 10
107.443
 20
40.4315
 30
0.0
 11
107.344
 21
40.7307
 31
0.0
  0
LINE
  8
0
 62
     0
 10
107.344
 20
40.7307
 30
0.0
 11
107.036
 21
40.9483
 31
0.0
  0
LINE
  8
0
 62
     0
 10
107.036
 20
40.9483
 30
0.0
 11
106.473
 21
41.1427
 31
0.0
  0
LINE
  8
0
 62
     0
 10
106.473
 20
41.1427
 30
0.0
 11
105.643
 21
41.4941
 31
0.0
  0
LINE
  8
0
 62
     0
 10
105.643
 20
41.4941
 30
0.0
 11
105.216
 21
41.891
 31
0.0
  0
LINE
  8
0
 62
     0
 10
105.216
 20
41.891
 30
0.0
 11
105.22
 21
42.0702
 31
0.0
  0
LINE
  8
0
 62
     0
 10
105.22
 20
42.0702
 30
0.0
 11
105.412
 21
42.1185
 31
0.0
  0
LINE
  8
0
 62
     0
 10
105.412
 20
42.1185
 30
0.0
 11
105.822
 21
42.0384
 31
0.0
  0
LINE
  8
0
 62
     0
 10
105.822
 20
42.0384
 30
0.0
 11
106.477
 21
41.8264
 31
0.0
  0
LINE
  8
0
 62
     0
 10
106.477
 20
41.8264
 30
0.0
 11
107.268
 21
41.5657
 31
0.0
  0
LINE
  8
0
 62
     0
 10
107.268
 20
41.5657
 30
0.0
 11
107.719
 21
41.5092
 31
0.0
  0
LINE
  8
0
 62
     0
 10
107.719
 20
41.5092
 30
0.0
 11
107.961
 21
41.6789
 31
0.0
  0
LINE
  8
0
 62
     0
 10
107.961
 20
41.6789
 30
0.0
 11
108.131
 21
42.0963
 31
0.0
  0
LINE
  8
0
 62
     0
 10
108.131
 20
42.0963
 30
0.0
 11
108.356
 21
42.5771
 31
0.0
  0
LINE
  8
0
 62
     0
 10
108.356
 20
42.5771
 30
0.0
 11
108.529
 21
42.3168
 31
0.0
  0
LINE
  8
0
 62
     0
 10
108.529
 20
42.3168
 30
0.0
 11
108.465
 21
41.5837
 31
0.0
  0
LINE
  8
0
 62
     0
 10
108.465
 20
41.5837
 30
0.0
 11
108.149
 21
40.5253
 31
0.0
  0
LINE
  8
0
 62
     0
 10
108.149
 20
40.5253
 30
0.0
 11
107.734
 21
39.5732
 31
0.0
  0
LINE
  8
0
 62
     0
 10
107.734
 20
39.5732
 30
0.0
 11
107.378
 21
39.1583
 31
0.0
  0
LINE
  8
0
 62
     0
 10
107.378
 20
39.1583
 30
0.0
 11
107.29
 21
39.4035
 31
0.0
  0
LINE
  8
0
 62
     0
 10
107.29
 20
39.4035
 30
0.0
 11
107.377
 21
39.9905
 31
0.0
  0
LINE
  8
0
 62
     0
 10
15.0427
 20
40.4813
 30
0.0
 11
14.3233
 21
42.2409
 31
0.0
  0
LINE
  8
0
 62
     0
 10
14.3233
 20
42.2409
 30
0.0
 11
13.5392
 21
44.7089
 31
0.0
  0
LINE
  8
0
 62
     0
 10
13.5392
 20
44.7089
 30
0.0
 11
12.8295
 21
47.4087
 31
0.0
  0
LINE
  8
0
 62
     0
 10
12.8295
 20
47.4087
 30
0.0
 11
12.3307
 21
49.8588
 31
0.0
  0
LINE
  8
0
 62
     0
 10
12.3307
 20
49.8588
 30
0.0
 11
11.8883
 21
52.6203
 31
0.0
  0
LINE
  8
0
 62
     0
 10
11.8883
 20
52.6203
 30
0.0
 11
12.9122
 21
53.625
 31
0.0
  0
LINE
  8
0
 62
     0
 10
12.9122
 20
53.625
 30
0.0
 11
14.5397
 21
55.1751
 31
0.0
  0
LINE
  8
0
 62
     0
 10
14.5397
 20
55.1751
 30
0.0
 11
16.7528
 21
57.2163
 31
0.0
  0
LINE
  8
0
 62
     0
 10
16.7528
 20
57.2163
 30
0.0
 11
19.3105
 21
59.5341
 31
0.0
  0
LINE
  8
0
 62
     0
 10
19.3105
 20
59.5341
 30
0.0
 11
21.97
 21
61.9125
 31
0.0
  0
LINE
  8
0
 62
     0
 10
21.97
 20
61.9125
 30
0.0
 11
24.4891
 21
64.1368
 31
0.0
  0
LINE
  8
0
 62
     0
 10
24.4891
 20
64.1368
 30
0.0
 11
26.6251
 21
65.9917
 31
0.0
  0
LINE
  8
0
 62
     0
 10
26.6251
 20
65.9917
 30
0.0
 11
28.1368
 21
67.262
 31
0.0
  0
LINE
  8
0
 62
     0
 10
28.1368
 20
67.262
 30
0.0
 11
28.7831
 21
67.7333
 31
0.0
  0
LINE
  8
0
 62
     0
 10
28.7831
 20
67.7333
 30
0.0
 11
29.2447
 21
67.4109
 31
0.0
  0
LINE
  8
0
 62
     0
 10
29.2447
 20
67.4109
 30
0.0
 11
30.1653
 21
66.5536
 31
0.0
  0
LINE
  8
0
 62
     0
 10
30.1653
 20
66.5536
 30
0.0
 11
31.3834
 21
65.3341
 31
0.0
  0
LINE
  8
0
 62
     0
 10
31.3834
 20
65.3341
 30
0.0
 11
32.7394
 21
63.9191
 31
0.0
  0
LINE
  8
0
 62
     0
 10
32.7394
 20
63.9191
 30
0.0
 11
34.072
 21
62.4815
 31
0.0
  0
LINE
  8
0
 62
     0
 10
34.072
 20
62.4815
 30
0.0
 11
35.2227
 21
61.189
 31
0.0
  0
LINE
  8
0
 62
     0
 10
35.2227
 20
61.189
 30
0.0
 11
36.0303
 21
60.2135
 31
0.0
  0
LINE
  8
0
 62
     0
 10
36.0303
 20
60.2135
 30
0.0
 11
36.3361
 21
59.7228
 31
0.0
  0
LINE
  8
0
 62
     0
 10
36.3361
 20
59.7228
 30
0.0
 11
36.1114
 21
59.4212
 31
0.0
  0
LINE
  8
0
 62
     0
 10
36.1114
 20
59.4212
 30
0.0
 11
35.4775
 21
58.7223
 31
0.0
  0
LINE
  8
0
 62
     0
 10
35.4775
 20
58.7223
 30
0.0
 11
34.4909
 21
57.6873
 31
0.0
  0
LINE
  8
0
 62
     0
 10
34.4909
 20
57.6873
 30
0.0
 11
33.2093
 21
56.3714
 31
0.0
  0
LINE
  8
0
 62
     0
 10
33.2093
 20
56.3714
 30
0.0
 11
31.6921
 21
54.8322
 31
0.0
  0
LINE
  8
0
 62
     0
 10
31.6921
 20
54.8322
 30
0.0
 11
29.9972
 21
53.1262
 31
0.0
  0
LINE
  8
0
 62
     0
 10
29.9972
 20
53.1262
 30
0.0
 11
28.1795
 21
51.3112
 31
0.0
  0
LINE
  8
0
 62
     0
 10
28.1795
 20
51.3112
 30
0.0
 11
26.2985
 21
49.4453
 31
0.0
  0
LINE
  8
0
 62
     0
 10
26.2985
 20
49.4453
 30
0.0
 11
24.4133
 21
47.5837
 31
0.0
  0
LINE
  8
0
 62
     0
 10
24.4133
 20
47.5837
 30
0.0
 11
22.5792
 21
45.7853
 31
0.0
  0
LINE
  8
0
 62
     0
 10
22.5792
 20
45.7853
 30
0.0
 11
20.8566
 21
44.1067
 31
0.0
  0
LINE
  8
0
 62
     0
 10
20.8566
 20
44.1067
 30
0.0
 11
19.3008
 21
42.605
 31
0.0
  0
LINE
  8
0
 62
     0
 10
19.3008
 20
42.605
 30
0.0
 11
17.971
 21
41.3371
 31
0.0
  0
LINE
  8
0
 62
     0
 10
17.971
 20
41.3371
 30
0.0
 11
16.9251
 21
40.3613
 31
0.0
  0
LINE
  8
0
 62
     0
 10
16.9251
 20
40.3613
 30
0.0
 11
16.2195
 21
39.7344
 31
0.0
  0
LINE
  8
0
 62
     0
 10
16.2195
 20
39.7344
 30
0.0
 11
15.915
 21
39.5111
 31
0.0
  0
LINE
  8
0
 62
     0
 10
15.915
 20
39.5111
 30
0.0
 11
15.5029
 21
39.7965
 31
0.0
  0
LINE
  8
0
 62
     0
 10
15.5029
 20
39.7965
 30
0.0
 11
15.0427
 21
40.4813
 31
0.0
  0
LINE
  8
0
 62
     0
 10
49.1409
 20
49.3078
 30
0.0
 11
41.723
 21
57.2946
 31
0.0
  0
LINE
  8
0
 62
     0
 10
41.723
 20
57.2946
 30
0.0
 11
35.4542
 21
64.0539
 31
0.0
  0
LINE
  8
0
 62
     0
 10
35.4542
 20
64.0539
 30
0.0
 11
30.2824
 21
69.6376
 31
0.0
  0
LINE
  8
0
 62
     0
 10
30.2824
 20
69.6376
 30
0.0
 11
26.1579
 21
74.1041
 31
0.0
  0
LINE
  8
0
 62
     0
 10
26.1579
 20
74.1041
 30
0.0
 11
23.0284
 21
77.5077
 31
0.0
  0
LINE
  8
0
 62
     0
 10
23.0284
 20
77.5077
 30
0.0
 11
20.8442
 21
79.9013
 31
0.0
  0
LINE
  8
0
 62
     0
 10
20.8442
 20
79.9013
 30
0.0
 11
19.5544
 21
81.3428
 31
0.0
  0
LINE
  8
0
 62
     0
 10
19.5544
 20
81.3428
 30
0.0
 11
19.1079
 21
81.8843
 31
0.0
  0
LINE
  8
0
 62
     0
 10
19.1079
 20
81.8843
 30
0.0
 11
19.2939
 21
82.4826
 31
0.0
  0
LINE
  8
0
 62
     0
 10
19.2939
 20
82.4826
 30
0.0
 11
19.9747
 21
83.5808
 31
0.0
  0
LINE
  8
0
 62
     0
 10
19.9747
 20
83.5808
 30
0.0
 11
20.9999
 21
85
 31
0.0
  0
LINE
  8
0
 62
     0
 10
20.9999
 20
85
 30
0.0
 11
22.2291
 21
86.5628
 31
0.0
  0
LINE
  8
0
 62
     0
 10
22.2291
 20
86.5628
 30
0.0
 11
23.5134
 21
88.0897
 31
0.0
  0
LINE
  8
0
 62
     0
 10
23.5134
 20
88.0897
 30
0.0
 11
24.7082
 21
89.4002
 31
0.0
  0
LINE
  8
0
 62
     0
 10
24.7082
 20
89.4002
 30
0.0
 11
25.6687
 21
90.3192
 31
0.0
  0
LINE
  8
0
 62
     0
 10
25.6687
 20
90.3192
 30
0.0
 11
26.2503
 21
90.6639
 31
0.0
  0
LINE
  8
0
 62
     0
 10
26.2503
 20
90.6639
 30
0.0
 11
26.5479
 21
90.5069
 31
0.0
  0
LINE
  8
0
 62
     0
 10
26.5479
 20
90.5069
 30
0.0
 11
27.2342
 21
90.0522
 31
0.0
  0
LINE
  8
0
 62
     0
 10
27.2342
 20
90.0522
 30
0.0
 11
28.2663
 21
89.3339
 31
0.0
  0
LINE
  8
0
 62
     0
 10
28.2663
 20
89.3339
 30
0.0
 11
29.5975
 21
88.3846
 31
0.0
  0
LINE
  8
0
 62
     0
 10
29.5975
 20
88.3846
 30
0.0
 11
31.1864
 21
87.2352
 31
0.0
  0
LINE
  8
0
 62
     0
 10
31.1864
 20
87.2352
 30
0.0
 11
32.9875
 21
85.918
 31
0.0
  0
LINE
  8
0
 62
     0
 10
32.9875
 20
85.918
 30
0.0
 11
34.9553
 21
84.4642
 31
0.0
  0
LINE
  8
0
 62
     0
 10
34.9553
 20
84.4642
 30
0.0
 11
37.0473
 21
82.9042
 31
0.0
  0
LINE
  8
0
 62
     0
 10
37.0473
 20
82.9042
 30
0.0
 11
39.135
 21
81.3513
 31
0.0
  0
LINE
  8
0
 62
     0
 10
39.135
 20
81.3513
 30
0.0
 11
41.0916
 21
79.9123
 31
0.0
  0
LINE
  8
0
 62
     0
 10
41.0916
 20
79.9123
 30
0.0
 11
42.8748
 21
78.6197
 31
0.0
  0
LINE
  8
0
 62
     0
 10
42.8748
 20
78.6197
 30
0.0
 11
44.4391
 21
77.5021
 31
0.0
  0
LINE
  8
0
 62
     0
 10
44.4391
 20
77.5021
 30
0.0
 11
45.7426
 21
76.5912
 31
0.0
  0
LINE
  8
0
 62
     0
 10
45.7426
 20
76.5912
 30
0.0
 11
46.7416
 21
75.9188
 31
0.0
  0
LINE
  8
0
 62
     0
 10
46.7416
 20
75.9188
 30
0.0
 11
47.3936
 21
75.5138
 31
0.0
  0
LINE
  8
0
 62
     0
 10
47.3936
 20
75.5138
 30
0.0
 11
47.6525
 21
75.4077
 31
0.0
  0
LINE
  8
0
 62
     0
 10
47.6525
 20
75.4077
 30
0.0
 11
48.0011
 21
76.0113
 31
0.0
  0
LINE
  8
0
 62
     0
 10
48.0011
 20
76.0113
 30
0.0
 11
48.7786
 21
77.4594
 31
0.0
  0
LINE
  8
0
 62
     0
 10
48.7786
 20
77.4594
 30
0.0
 11
49.8683
 21
79.5348
 31
0.0
  0
LINE
  8
0
 62
     0
 10
49.8683
 20
79.5348
 30
0.0
 11
51.157
 21
82.0208
 31
0.0
  0
LINE
  8
0
 62
     0
 10
51.157
 20
82.0208
 30
0.0
 11
52.4524
 21
84.522
 31
0.0
  0
LINE
  8
0
 62
     0
 10
52.4524
 20
84.522
 30
0.0
 11
53.5658
 21
86.6359
 31
0.0
  0
LINE
  8
0
 62
     0
 10
53.5658
 20
86.6359
 30
0.0
 11
54.3789
 21
88.1408
 31
0.0
  0
LINE
  8
0
 62
     0
 10
54.3789
 20
88.1408
 30
0.0
 11
54.7716
 21
88.8118
 31
0.0
  0
LINE
  8
0
 62
     0
 10
54.7716
 20
88.8118
 30
0.0
 11
55.3942
 21
89.0309
 31
0.0
  0
LINE
  8
0
 62
     0
 10
55.3942
 20
89.0309
 30
0.0
 11
56.7186
 21
89.1826
 31
0.0
  0
LINE
  8
0
 62
     0
 10
56.7186
 20
89.1826
 30
0.0
 11
58.5241
 21
89.2665
 31
0.0
  0
LINE
  8
0
 62
     0
 10
58.5241
 20
89.2665
 30
0.0
 11
60.5868
 21
89.2859
 31
0.0
  0
LINE
  8
0
 62
     0
 10
60.5868
 20
89.2859
 30
0.0
 11
62.6869
 21
89.2418
 31
0.0
  0
LINE
  8
0
 62
     0
 10
62.6869
 20
89.2418
 30
0.0
 11
64.6024
 21
89.1357
 31
0.0
  0
LINE
  8
0
 62
     0
 10
64.6024
 20
89.1357
 30
0.0
 11
66.1127
 21
88.9674
 31
0.0
  0
LINE
  8
0
 62
     0
 10
66.1127
 20
88.9674
 30
0.0
 11
66.996
 21
88.7402
 31
0.0
  0
LINE
  8
0
 62
     0
 10
66.996
 20
88.7402
 30
0.0
 11
67.7414
 21
88.1503
 31
0.0
  0
LINE
  8
0
 62
     0
 10
67.7414
 20
88.1503
 30
0.0
 11
68.3355
 21
87.3069
 31
0.0
  0
LINE
  8
0
 62
     0
 10
68.3355
 20
87.3069
 30
0.0
 11
68.694
 21
86.3671
 31
0.0
  0
LINE
  8
0
 62
     0
 10
68.694
 20
86.3671
 30
0.0
 11
68.731
 21
85.4879
 31
0.0
  0
LINE
  8
0
 62
     0
 10
68.731
 20
85.4879
 30
0.0
 11
68.5821
 21
85.1641
 31
0.0
  0
LINE
  8
0
 62
     0
 10
68.5821
 20
85.1641
 30
0.0
 11
68.2293
 21
84.9492
 31
0.0
  0
LINE
  8
0
 62
     0
 10
68.2293
 20
84.9492
 30
0.0
 11
67.5845
 21
84.8184
 31
0.0
  0
LINE
  8
0
 62
     0
 10
67.5845
 20
84.8184
 30
0.0
 11
66.5649
 21
84.7369
 31
0.0
  0
LINE
  8
0
 62
     0
 10
66.5649
 20
84.7369
 30
0.0
 11
64.987
 21
84.533
 31
0.0
  0
LINE
  8
0
 62
     0
 10
64.987
 20
84.533
 30
0.0
 11
64.3308
 21
84.1333
 31
0.0
  0
LINE
  8
0
 62
     0
 10
64.3308
 20
84.1333
 30
0.0
 11
64.4398
 21
83.5685
 31
0.0
  0
LINE
  8
0
 62
     0
 10
64.4398
 20
83.5685
 30
0.0
 11
64.8794
 21
82.4646
 31
0.0
  0
LINE
  8
0
 62
     0
 10
64.8794
 20
82.4646
 30
0.0
 11
65.5507
 21
81.0175
 31
0.0
  0
LINE
  8
0
 62
     0
 10
65.5507
 20
81.0175
 30
0.0
 11
66.3512
 21
79.4191
 31
0.0
  0
LINE
  8
0
 62
     0
 10
66.3512
 20
79.4191
 30
0.0
 11
67.1848
 21
77.8619
 31
0.0
  0
LINE
  8
0
 62
     0
 10
67.1848
 20
77.8619
 30
0.0
 11
67.9482
 21
76.539
 31
0.0
  0
LINE
  8
0
 62
     0
 10
67.9482
 20
76.539
 30
0.0
 11
68.5437
 21
75.6433
 31
0.0
  0
LINE
  8
0
 62
     0
 10
68.5437
 20
75.6433
 30
0.0
 11
68.8717
 21
75.3678
 31
0.0
  0
LINE
  8
0
 62
     0
 10
68.8717
 20
75.3678
 30
0.0
 11
69.143
 21
75.5608
 31
0.0
  0
LINE
  8
0
 62
     0
 10
69.143
 20
75.5608
 30
0.0
 11
69.8031
 21
76.0388
 31
0.0
  0
LINE
  8
0
 62
     0
 10
69.8031
 20
76.0388
 30
0.0
 11
70.8064
 21
76.7704
 31
0.0
  0
LINE
  8
0
 62
     0
 10
70.8064
 20
76.7704
 30
0.0
 11
72.1099
 21
77.7226
 31
0.0
  0
LINE
  8
0
 62
     0
 10
72.1099
 20
77.7226
 30
0.0
 11
73.6699
 21
78.8652
 31
0.0
  0
LINE
  8
0
 62
     0
 10
73.6699
 20
78.8652
 30
0.0
 11
75.4447
 21
80.1659
 31
0.0
  0
LINE
  8
0
 62
     0
 10
75.4447
 20
80.1659
 30
0.0
 11
77.3892
 21
81.5922
 31
0.0
  0
LINE
  8
0
 62
     0
 10
77.3892
 20
81.5922
 30
0.0
 11
79.4604
 21
83.1123
 31
0.0
  0
LINE
  8
0
 62
     0
 10
79.4604
 20
83.1123
 30
0.0
 11
81.5315
 21
84.6296
 31
0.0
  0
LINE
  8
0
 62
     0
 10
81.5315
 20
84.6296
 30
0.0
 11
83.4803
 21
86.0432
 31
0.0
  0
LINE
  8
0
 62
     0
 10
83.4803
 20
86.0432
 30
0.0
 11
85.2593
 21
87.3234
 31
0.0
  0
LINE
  8
0
 62
     0
 10
85.2593
 20
87.3234
 30
0.0
 11
86.8288
 21
88.4396
 31
0.0
  0
LINE
  8
0
 62
     0
 10
86.8288
 20
88.4396
 30
0.0
 11
88.1408
 21
89.3618
 31
0.0
  0
LINE
  8
0
 62
     0
 10
88.1408
 20
89.3618
 30
0.0
 11
89.1551
 21
90.0561
 31
0.0
  0
LINE
  8
0
 62
     0
 10
89.1551
 20
90.0561
 30
0.0
 11
89.8275
 21
90.4946
 31
0.0
  0
LINE
  8
0
 62
     0
 10
89.8275
 20
90.4946
 30
0.0
 11
90.1129
 21
90.6431
 31
0.0
  0
LINE
  8
0
 62
     0
 10
90.1129
 20
90.6431
 30
0.0
 11
90.6032
 21
90.2945
 31
0.0
  0
LINE
  8
0
 62
     0
 10
90.6032
 20
90.2945
 30
0.0
 11
91.477
 21
89.3907
 31
0.0
  0
LINE
  8
0
 62
     0
 10
91.477
 20
89.3907
 30
0.0
 11
92.5932
 21
88.1048
 31
0.0
  0
LINE
  8
0
 62
     0
 10
92.5932
 20
88.1048
 30
0.0
 11
93.817
 21
86.6112
 31
0.0
  0
LINE
  8
0
 62
     0
 10
93.817
 20
86.6112
 30
0.0
 11
95.0087
 21
85.0787
 31
0.0
  0
LINE
  8
0
 62
     0
 10
95.0087
 20
85.0787
 30
0.0
 11
96.03
 21
83.6842
 31
0.0
  0
LINE
  8
0
 62
     0
 10
96.03
 20
83.6842
 30
0.0
 11
96.7437
 21
82.5983
 31
0.0
  0
LINE
  8
0
 62
     0
 10
96.7437
 20
82.5983
 30
0.0
 11
97.0139
 21
81.9947
 31
0.0
  0
LINE
  8
0
 62
     0
 10
97.0139
 20
81.9947
 30
0.0
 11
96.5055
 21
81.2754
 31
0.0
  0
LINE
  8
0
 62
     0
 10
96.5055
 20
81.2754
 30
0.0
 11
95.1219
 21
79.6325
 31
0.0
  0
LINE
  8
0
 62
     0
 10
95.1219
 20
79.6325
 30
0.0
 11
93.0755
 21
77.3081
 31
0.0
  0
LINE
  8
0
 62
     0
 10
93.0755
 20
77.3081
 30
0.0
 11
90.5757
 21
74.549
 31
0.0
  0
LINE
  8
0
 62
     0
 10
90.5757
 20
74.549
 30
0.0
 11
89.0199
 21
72.8543
 31
0.0
  0
LINE
  8
0
 62
     0
 10
89.0199
 20
72.8543
 30
0.0
 11
87.0631
 21
70.7196
 31
0.0
  0
LINE
  8
0
 62
     0
 10
87.0631
 20
70.7196
 30
0.0
 11
84.7838
 21
68.2322
 31
0.0
  0
LINE
  8
0
 62
     0
 10
84.7838
 20
68.2322
 30
0.0
 11
82.2621
 21
65.4773
 31
0.0
  0
LINE
  8
0
 62
     0
 10
82.2621
 20
65.4773
 30
0.0
 11
79.5736
 21
62.5436
 31
0.0
  0
LINE
  8
0
 62
     0
 10
79.5736
 20
62.5436
 30
0.0
 11
76.8008
 21
59.5147
 31
0.0
  0
LINE
  8
0
 62
     0
 10
76.8008
 20
59.5147
 30
0.0
 11
74.0212
 21
56.479
 31
0.0
  0
LINE
  8
0
 62
     0
 10
74.0212
 20
56.479
 30
0.0
 11
71.3147
 21
53.5203
 31
0.0
  0
LINE
  8
0
 62
     0
 10
71.3147
 20
53.5203
 30
0.0
 11
68.7352
 21
50.7062
 31
0.0
  0
LINE
  8
0
 62
     0
 10
68.7352
 20
50.7062
 30
0.0
 11
66.325
 21
48.0811
 31
0.0
  0
LINE
  8
0
 62
     0
 10
66.325
 20
48.0811
 30
0.0
 11
64.1368
 21
45.7027
 31
0.0
  0
LINE
  8
0
 62
     0
 10
64.1368
 20
45.7027
 30
0.0
 11
62.2212
 21
43.6273
 31
0.0
  0
LINE
  8
0
 62
     0
 10
62.2212
 20
43.6273
 30
0.0
 11
60.6337
 21
41.9132
 31
0.0
  0
LINE
  8
0
 62
     0
 10
60.6337
 20
41.9132
 30
0.0
 11
59.4265
 21
40.6178
 31
0.0
  0
LINE
  8
0
 62
     0
 10
59.4265
 20
40.6178
 30
0.0
 11
58.6535
 21
39.7979
 31
0.0
  0
LINE
  8
0
 62
     0
 10
58.6535
 20
39.7979
 30
0.0
 11
58.3667
 21
39.5111
 31
0.0
  0
LINE
  8
0
 62
     0
 10
58.3667
 20
39.5111
 30
0.0
 11
58.1547
 21
39.7122
 31
0.0
  0
LINE
  8
0
 62
     0
 10
58.1547
 20
39.7122
 30
0.0
 11
57.5991
 21
40.284
 31
0.0
  0
LINE
  8
0
 62
     0
 10
57.5991
 20
40.284
 30
0.0
 11
56.7365
 21
41.191
 31
0.0
  0
LINE
  8
0
 62
     0
 10
56.7365
 20
41.191
 30
0.0
 11
55.6038
 21
42.3898
 31
0.0
  0
LINE
  8
0
 62
     0
 10
55.6038
 20
42.3898
 30
0.0
 11
54.241
 21
43.8408
 31
0.0
  0
LINE
  8
0
 62
     0
 10
54.241
 20
43.8408
 30
0.0
 11
52.6838
 21
45.5041
 31
0.0
  0
LINE
  8
0
 62
     0
 10
52.6838
 20
45.5041
 30
0.0
 11
50.9707
 21
47.3396
 31
0.0
  0
LINE
  8
0
 62
     0
 10
50.9707
 20
47.3396
 30
0.0
 11
49.1409
 21
49.3078
 31
0.0
  0
LINE
  8
0
 62
     0
 10
89.8701
 20
49.5487
 30
0.0
 11
87.8321
 21
51.5648
 31
0.0
  0
LINE
  8
0
 62
     0
 10
87.8321
 20
51.5648
 30
0.0
 11
85.9317
 21
53.4568
 31
0.0
  0
LINE
  8
0
 62
     0
 10
85.9317
 20
53.4568
 30
0.0
 11
84.2091
 21
55.185
 31
0.0
  0
LINE
  8
0
 62
     0
 10
84.2091
 20
55.185
 30
0.0
 11
82.707
 21
56.7048
 31
0.0
  0
LINE
  8
0
 62
     0
 10
82.707
 20
56.7048
 30
0.0
 11
81.4656
 21
57.9741
 31
0.0
  0
LINE
  8
0
 62
     0
 10
81.4656
 20
57.9741
 30
0.0
 11
80.5272
 21
58.9523
 31
0.0
  0
LINE
  8
0
 62
     0
 10
80.5272
 20
58.9523
 30
0.0
 11
79.9345
 21
59.5962
 31
0.0
  0
LINE
  8
0
 62
     0
 10
79.9345
 20
59.5962
 30
0.0
 11
79.7278
 21
59.8622
 31
0.0
  0
LINE
  8
0
 62
     0
 10
79.7278
 20
59.8622
 30
0.0
 11
80.0255
 21
60.3127
 31
0.0
  0
LINE
  8
0
 62
     0
 10
80.0255
 20
60.3127
 30
0.0
 11
80.8164
 21
61.2704
 31
0.0
  0
LINE
  8
0
 62
     0
 10
80.8164
 20
61.2704
 30
0.0
 11
81.9436
 21
62.563
 31
0.0
  0
LINE
  8
0
 62
     0
 10
81.9436
 20
62.563
 30
0.0
 11
83.2499
 21
64.0196
 31
0.0
  0
LINE
  8
0
 62
     0
 10
83.2499
 20
64.0196
 30
0.0
 11
84.5785
 21
65.4664
 31
0.0
  0
LINE
  8
0
 62
     0
 10
84.5785
 20
65.4664
 30
0.0
 11
85.7733
 21
66.7314
 31
0.0
  0
LINE
  8
0
 62
     0
 10
85.7733
 20
66.7314
 30
0.0
 11
86.6771
 21
67.6409
 31
0.0
  0
LINE
  8
0
 62
     0
 10
86.6771
 20
67.6409
 30
0.0
 11
87.1361
 21
68.024
 31
0.0
  0
LINE
  8
0
 62
     0
 10
87.1361
 20
68.024
 30
0.0
 11
87.9217
 21
67.4758
 31
0.0
  0
LINE
  8
0
 62
     0
 10
87.9217
 20
67.4758
 30
0.0
 11
89.8151
 21
65.8964
 31
0.0
  0
LINE
  8
0
 62
     0
 10
89.8151
 20
65.8964
 30
0.0
 11
92.5311
 21
63.5289
 31
0.0
  0
LINE
  8
0
 62
     0
 10
92.5311
 20
63.5289
 30
0.0
 11
95.7862
 21
60.6157
 31
0.0
  0
LINE
  8
0
 62
     0
 10
95.7862
 20
60.6157
 30
0.0
 11
104.098
 21
53.0931
 31
0.0
  0
LINE
  8
0
 62
     0
 10
104.098
 20
53.0931
 30
0.0
 11
103.89
 21
51.0632
 31
0.0
  0
LINE
  8
0
 62
     0
 10
103.89
 20
51.0632
 30
0.0
 11
103.66
 21
49.5074
 31
0.0
  0
LINE
  8
0
 62
     0
 10
103.66
 20
49.5074
 30
0.0
 11
103.289
 21
47.7326
 31
0.0
  0
LINE
  8
0
 62
     0
 10
103.289
 20
47.7326
 30
0.0
 11
102.815
 21
45.8639
 31
0.0
  0
LINE
  8
0
 62
     0
 10
102.815
 20
45.8639
 30
0.0
 11
102.279
 21
44.0323
 31
0.0
  0
LINE
  8
0
 62
     0
 10
102.279
 20
44.0323
 30
0.0
 11
101.721
 21
42.3651
 31
0.0
  0
LINE
  8
0
 62
     0
 10
101.721
 20
42.3651
 30
0.0
 11
101.181
 21
40.9896
 31
0.0
  0
LINE
  8
0
 62
     0
 10
101.181
 20
40.9896
 30
0.0
 11
100.697
 21
40.0346
 31
0.0
  0
LINE
  8
0
 62
     0
 10
100.697
 20
40.0346
 30
0.0
 11
100.314
 21
39.6282
 31
0.0
  0
LINE
  8
0
 62
     0
 10
100.314
 20
39.6282
 30
0.0
 11
100.046
 21
39.817
 31
0.0
  0
LINE
  8
0
 62
     0
 10
100.046
 20
39.817
 30
0.0
 11
99.3951
 21
40.386
 31
0.0
  0
LINE
  8
0
 62
     0
 10
99.3951
 20
40.386
 30
0.0
 11
98.407
 21
41.2972
 31
0.0
  0
LINE
  8
0
 62
     0
 10
98.407
 20
41.2972
 30
0.0
 11
97.1215
 21
42.5083
 31
0.0
  0
LINE
  8
0
 62
     0
 10
97.1215
 20
42.5083
 30
0.0
 11
95.582
 21
43.9801
 31
0.0
  0
LINE
  8
0
 62
     0
 10
95.582
 20
43.9801
 30
0.0
 11
93.8308
 21
45.671
 31
0.0
  0
LINE
  8
0
 62
     0
 10
93.8308
 20
45.671
 30
0.0
 11
91.9124
 21
47.541
 31
0.0
  0
LINE
  8
0
 62
     0
 10
91.9124
 20
47.541
 30
0.0
 11
89.8701
 21
49.5487
 31
0.0
  0
LINE
  8
0
 62
     0
 10
7.73631
 20
41.5149
 30
0.0
 11
7.44555
 21
42.4049
 31
0.0
  0
LINE
  8
0
 62
     0
 10
7.44555
 20
42.4049
 30
0.0
 11
7.31601
 21
43.0967
 31
0.0
  0
LINE
  8
0
 62
     0
 10
7.31601
 20
43.0967
 30
0.0
 11
7.35044
 21
43.5515
 31
0.0
  0
LINE
  8
0
 62
     0
 10
7.35044
 20
43.5515
 30
0.0
 11
7.55442
 21
43.7279
 31
0.0
  0
LINE
  8
0
 62
     0
 10
7.55442
 20
43.7279
 30
0.0
 11
7.81071
 21
43.4728
 31
0.0
  0
LINE
  8
0
 62
     0
 10
7.81071
 20
43.4728
 30
0.0
 11
7.97609
 21
42.817
 31
0.0
  0
LINE
  8
0
 62
     0
 10
7.97609
 20
42.817
 30
0.0
 11
8.13181
 21
42.1294
 31
0.0
  0
LINE
  8
0
 62
     0
 10
8.13181
 20
42.1294
 30
0.0
 11
8.40052
 21
41.5865
 31
0.0
  0
LINE
  8
0
 62
     0
 10
8.40052
 20
41.5865
 30
0.0
 11
8.71195
 21
41.2916
 31
0.0
  0
LINE
  8
0
 62
     0
 10
8.71195
 20
41.2916
 30
0.0
 11
8.99996
 21
41.3385
 31
0.0
  0
LINE
  8
0
 62
     0
 10
8.99996
 20
41.3385
 30
0.0
 11
9.02476
 21
41.7657
 31
0.0
  0
LINE
  8
0
 62
     0
 10
9.02476
 20
41.7657
 30
0.0
 11
8.81532
 21
42.5221
 31
0.0
  0
LINE
  8
0
 62
     0
 10
8.81532
 20
42.5221
 30
0.0
 11
8.59345
 21
43.3504
 31
0.0
  0
LINE
  8
0
 62
     0
 10
8.59345
 20
43.3504
 30
0.0
 11
8.6403
 21
43.9554
 31
0.0
  0
LINE
  8
0
 62
     0
 10
8.6403
 20
43.9554
 30
0.0
 11
8.95036
 21
44.3248
 31
0.0
  0
LINE
  8
0
 62
     0
 10
8.95036
 20
44.3248
 30
0.0
 11
9.52225
 21
44.45
 31
0.0
  0
LINE
  8
0
 62
     0
 10
9.52225
 20
44.45
 30
0.0
 11
9.91087
 21
44.3315
 31
0.0
  0
LINE
  8
0
 62
     0
 10
9.91087
 20
44.3315
 30
0.0
 11
10.2719
 21
44.0133
 31
0.0
  0
LINE
  8
0
 62
     0
 10
10.2719
 20
44.0133
 30
0.0
 11
10.582
 21
43.5571
 31
0.0
  0
LINE
  8
0
 62
     0
 10
10.582
 20
43.5571
 30
0.0
 11
10.8204
 21
43.0251
 31
0.0
  0
LINE
  8
0
 62
     0
 10
10.8204
 20
43.0251
 30
0.0
 11
10.965
 21
42.478
 31
0.0
  0
LINE
  8
0
 62
     0
 10
10.965
 20
42.478
 30
0.0
 11
10.9954
 21
41.9763
 31
0.0
  0
LINE
  8
0
 62
     0
 10
10.9954
 20
41.9763
 30
0.0
 11
10.8879
 21
41.5809
 31
0.0
  0
LINE
  8
0
 62
     0
 10
10.8879
 20
41.5809
 30
0.0
 11
10.6219
 21
41.3537
 31
0.0
  0
LINE
  8
0
 62
     0
 10
10.6219
 20
41.3537
 30
0.0
 11
10.3394
 21
41.3385
 31
0.0
  0
LINE
  8
0
 62
     0
 10
10.3394
 20
41.3385
 30
0.0
 11
10.3532
 21
41.541
 31
0.0
  0
LINE
  8
0
 62
     0
 10
10.3532
 20
41.541
 30
0.0
 11
10.4166
 21
42.1929
 31
0.0
  0
LINE
  8
0
 62
     0
 10
10.4166
 20
42.1929
 30
0.0
 11
10.1823
 21
43.0403
 31
0.0
  0
LINE
  8
0
 62
     0
 10
10.1823
 20
43.0403
 30
0.0
 11
9.80338
 21
43.7018
 31
0.0
  0
LINE
  8
0
 62
     0
 10
9.80338
 20
43.7018
 30
0.0
 11
9.43681
 21
43.7981
 31
0.0
  0
LINE
  8
0
 62
     0
 10
9.43681
 20
43.7981
 30
0.0
 11
9.26317
 21
43.2717
 31
0.0
  0
LINE
  8
0
 62
     0
 10
9.26317
 20
43.2717
 30
0.0
 11
9.44922
 21
42.3982
 31
0.0
  0
LINE
  8
0
 62
     0
 10
9.44922
 20
42.3982
 30
0.0
 11
9.58152
 21
41.7738
 31
0.0
  0
LINE
  8
0
 62
     0
 10
9.58152
 20
41.7738
 30
0.0
 11
9.53879
 21
41.2556
 31
0.0
  0
LINE
  8
0
 62
     0
 10
9.53879
 20
41.2556
 30
0.0
 11
9.35824
 21
40.8658
 31
0.0
  0
LINE
  8
0
 62
     0
 10
9.35824
 20
40.8658
 30
0.0
 11
9.07852
 21
40.6217
 31
0.0
  0
LINE
  8
0
 62
     0
 10
9.07852
 20
40.6217
 30
0.0
 11
8.73813
 21
40.5448
 31
0.0
  0
LINE
  8
0
 62
     0
 10
8.73813
 20
40.5448
 30
0.0
 11
8.37434
 21
40.6548
 31
0.0
  0
LINE
  8
0
 62
     0
 10
8.37434
 20
40.6548
 30
0.0
 11
8.02845
 21
40.972
 31
0.0
  0
LINE
  8
0
 62
     0
 10
8.02845
 20
40.972
 30
0.0
 11
7.73631
 21
41.5149
 31
0.0
  0
LINE
  8
0
 62
     0
 10
107.244
 20
43.9995
 30
0.0
 11
106.385
 21
44.2419
 31
0.0
  0
LINE
  8
0
 62
     0
 10
106.385
 20
44.2419
 30
0.0
 11
106.091
 21
44.5809
 31
0.0
  0
LINE
  8
0
 62
     0
 10
106.091
 20
44.5809
 30
0.0
 11
106.363
 21
45.055
 31
0.0
  0
LINE
  8
0
 62
     0
 10
106.363
 20
45.055
 30
0.0
 11
107.199
 21
45.6971
 31
0.0
  0
LINE
  8
0
 62
     0
 10
107.199
 20
45.6971
 30
0.0
 11
108.075
 21
46.3723
 31
0.0
  0
LINE
  8
0
 62
     0
 10
108.075
 20
46.3723
 30
0.0
 11
108.403
 21
46.8672
 31
0.0
  0
LINE
  8
0
 62
     0
 10
108.403
 20
46.8672
 30
0.0
 11
108.178
 21
47.1703
 31
0.0
  0
LINE
  8
0
 62
     0
 10
108.178
 20
47.1703
 30
0.0
 11
107.4
 21
47.2722
 31
0.0
  0
LINE
  8
0
 62
     0
 10
107.4
 20
47.2722
 30
0.0
 11
106.791
 21
47.3851
 31
0.0
  0
LINE
  8
0
 62
     0
 10
106.791
 20
47.3851
 30
0.0
 11
106.539
 21
47.6567
 31
0.0
  0
LINE
  8
0
 62
     0
 10
106.539
 20
47.6567
 30
0.0
 11
106.98
 21
47.8413
 31
0.0
  0
LINE
  8
0
 62
     0
 10
106.98
 20
47.8413
 30
0.0
 11
107.987
 21
47.807
 31
0.0
  0
LINE
  8
0
 62
     0
 10
107.987
 20
47.807
 30
0.0
 11
109.091
 21
47.607
 31
0.0
  0
LINE
  8
0
 62
     0
 10
109.091
 20
47.607
 30
0.0
 11
109.816
 21
47.293
 31
0.0
  0
LINE
  8
0
 62
     0
 10
109.816
 20
47.293
 30
0.0
 11
109.81
 21
47.1181
 31
0.0
  0
LINE
  8
0
 62
     0
 10
109.81
 20
47.1181
 30
0.0
 11
109.59
 21
46.8298
 31
0.0
  0
LINE
  8
0
 62
     0
 10
109.59
 20
46.8298
 30
0.0
 11
109.193
 21
46.4714
 31
0.0
  0
LINE
  8
0
 62
     0
 10
109.193
 20
46.4714
 30
0.0
 11
108.657
 21
46.0802
 31
0.0
  0
LINE
  8
0
 62
     0
 10
108.657
 20
46.0802
 30
0.0
 11
107.818
 21
45.423
 31
0.0
  0
LINE
  8
0
 62
     0
 10
107.818
 20
45.423
 30
0.0
 11
107.474
 21
44.9076
 31
0.0
  0
LINE
  8
0
 62
     0
 10
107.474
 20
44.9076
 30
0.0
 11
107.633
 21
44.5714
 31
0.0
  0
LINE
  8
0
 62
     0
 10
107.633
 20
44.5714
 30
0.0
 11
108.303
 21
44.45
 31
0.0
  0
LINE
  8
0
 62
     0
 10
108.303
 20
44.45
 30
0.0
 11
108.835
 21
44.3466
 31
0.0
  0
LINE
  8
0
 62
     0
 10
108.835
 20
44.3466
 30
0.0
 11
109.185
 21
44.0972
 31
0.0
  0
LINE
  8
0
 62
     0
 10
109.185
 20
44.0972
 30
0.0
 11
109.198
 21
43.8919
 31
0.0
  0
LINE
  8
0
 62
     0
 10
109.198
 20
43.8919
 30
0.0
 11
108.897
 21
43.8065
 31
0.0
  0
LINE
  8
0
 62
     0
 10
108.897
 20
43.8065
 30
0.0
 11
108.253
 21
43.8436
 31
0.0
  0
LINE
  8
0
 62
     0
 10
108.253
 20
43.8436
 30
0.0
 11
107.244
 21
43.9995
 31
0.0
  0
LINE
  8
0
 62
     0
 10
6.42719
 20
46.0375
 30
0.0
 11
6.13227
 21
47.2419
 31
0.0
  0
LINE
  8
0
 62
     0
 10
6.13227
 20
47.2419
 30
0.0
 11
6.0234
 21
48.1542
 31
0.0
  0
LINE
  8
0
 62
     0
 10
6.0234
 20
48.1542
 30
0.0
 11
6.04545
 21
48.5112
 31
0.0
  0
LINE
  8
0
 62
     0
 10
6.04545
 20
48.5112
 30
0.0
 11
6.10471
 21
48.6145
 31
0.0
  0
LINE
  8
0
 62
     0
 10
6.10471
 20
48.6145
 30
0.0
 11
6.22734
 21
48.4586
 31
0.0
  0
LINE
  8
0
 62
     0
 10
6.22734
 20
48.4586
 30
0.0
 11
6.44232
 21
48.0314
 31
0.0
  0
LINE
  8
0
 62
     0
 10
6.44232
 20
48.0314
 30
0.0
 11
6.6959
 21
47.6056
 31
0.0
  0
LINE
  8
0
 62
     0
 10
6.6959
 20
47.6056
 30
0.0
 11
7.00458
 21
47.3851
 31
0.0
  0
LINE
  8
0
 62
     0
 10
7.00458
 20
47.3851
 30
0.0
 11
7.46622
 21
47.3357
 31
0.0
  0
LINE
  8
0
 62
     0
 10
7.46622
 20
47.3357
 30
0.0
 11
8.18279
 21
47.4183
 31
0.0
  0
LINE
  8
0
 62
     0
 10
8.18279
 20
47.4183
 30
0.0
 11
9.14192
 21
47.4747
 31
0.0
  0
LINE
  8
0
 62
     0
 10
9.14192
 20
47.4747
 30
0.0
 11
9.49745
 21
47.3121
 31
0.0
  0
LINE
  8
0
 62
     0
 10
9.49745
 20
47.3121
 30
0.0
 11
9.22874
 21
47.0422
 31
0.0
  0
LINE
  8
0
 62
     0
 10
9.22874
 20
47.0422
 30
0.0
 11
8.31233
 21
46.7706
 31
0.0
  0
LINE
  8
0
 62
     0
 10
8.31233
 20
46.7706
 30
0.0
 11
7.70184
 21
46.6178
 31
0.0
  0
LINE
  8
0
 62
     0
 10
7.70184
 20
46.6178
 30
0.0
 11
7.31326
 21
46.3998
 31
0.0
  0
LINE
  8
0
 62
     0
 10
7.31326
 20
46.3998
 30
0.0
 11
7.08865
 21
46.0721
 31
0.0
  0
LINE
  8
0
 62
     0
 10
7.08865
 20
46.0721
 30
0.0
 11
6.97562
 21
45.5842
 31
0.0
  0
LINE
  8
0
 62
     0
 10
6.97562
 20
45.5842
 30
0.0
 11
6.89709
 21
45.0963
 31
0.0
  0
LINE
  8
0
 62
     0
 10
6.89709
 20
45.0963
 30
0.0
 11
6.80614
 21
44.9862
 31
0.0
  0
LINE
  8
0
 62
     0
 10
6.80614
 20
44.9862
 30
0.0
 11
6.66281
 21
45.2893
 31
0.0
  0
LINE
  8
0
 62
     0
 10
6.66281
 20
45.2893
 30
0.0
 11
6.42719
 21
46.0375
 31
0.0
  0
LINE
  8
0
 62
     0
 10
110.072
 20
48.8597
 30
0.0
 11
110.036
 21
49.4467
 31
0.0
  0
LINE
  8
0
 62
     0
 10
110.036
 20
49.4467
 30
0.0
 11
110.059
 21
50.359
 31
0.0
  0
LINE
  8
0
 62
     0
 10
110.059
 20
50.359
 30
0.0
 11
110.014
 21
51.1362
 31
0.0
  0
LINE
  8
0
 62
     0
 10
110.014
 20
51.1362
 30
0.0
 11
109.806
 21
51.4643
 31
0.0
  0
LINE
  8
0
 62
     0
 10
109.806
 20
51.4643
 30
0.0
 11
109.481
 21
51.3292
 31
0.0
  0
LINE
  8
0
 62
     0
 10
109.481
 20
51.3292
 30
0.0
 11
109.086
 21
50.7118
 31
0.0
  0
LINE
  8
0
 62
     0
 10
109.086
 20
50.7118
 30
0.0
 11
108.868
 21
50.2818
 31
0.0
  0
LINE
  8
0
 62
     0
 10
108.868
 20
50.2818
 30
0.0
 11
108.751
 21
50.1594
 31
0.0
  0
LINE
  8
0
 62
     0
 10
108.751
 20
50.1594
 30
0.0
 11
108.7
 21
50.3661
 31
0.0
  0
LINE
  8
0
 62
     0
 10
108.7
 20
50.3661
 30
0.0
 11
108.679
 21
50.9171
 31
0.0
  0
LINE
  8
0
 62
     0
 10
108.679
 20
50.9171
 30
0.0
 11
108.526
 21
51.635
 31
0.0
  0
LINE
  8
0
 62
     0
 10
108.526
 20
51.635
 30
0.0
 11
108.212
 21
51.7673
 31
0.0
  0
LINE
  8
0
 62
     0
 10
108.212
 20
51.7673
 30
0.0
 11
107.877
 21
51.3733
 31
0.0
  0
LINE
  8
0
 62
     0
 10
107.877
 20
51.3733
 30
0.0
 11
107.664
 21
50.5079
 31
0.0
  0
LINE
  8
0
 62
     0
 10
107.664
 20
50.5079
 30
0.0
 11
107.486
 21
49.7184
 31
0.0
  0
LINE
  8
0
 62
     0
 10
107.486
 20
49.7184
 30
0.0
 11
107.218
 21
49.3889
 31
0.0
  0
LINE
  8
0
 62
     0
 10
107.218
 20
49.3889
 30
0.0
 11
107.098
 21
49.8119
 31
0.0
  0
LINE
  8
0
 62
     0
 10
107.098
 20
49.8119
 30
0.0
 11
107.103
 21
50.7697
 31
0.0
  0
LINE
  8
0
 62
     0
 10
107.103
 20
50.7697
 30
0.0
 11
107.206
 21
51.8019
 31
0.0
  0
LINE
  8
0
 62
     0
 10
107.206
 20
51.8019
 30
0.0
 11
107.382
 21
52.4439
 31
0.0
  0
LINE
  8
0
 62
     0
 10
107.382
 20
52.4439
 30
0.0
 11
107.9
 21
52.4274
 31
0.0
  0
LINE
  8
0
 62
     0
 10
107.9
 20
52.4274
 30
0.0
 11
109.097
 21
52.3088
 31
0.0
  0
LINE
  8
0
 62
     0
 10
109.097
 20
52.3088
 30
0.0
 11
109.959
 21
52.185
 31
0.0
  0
LINE
  8
0
 62
     0
 10
109.959
 20
52.185
 30
0.0
 11
110.464
 21
52.0196
 31
0.0
  0
LINE
  8
0
 62
     0
 10
110.464
 20
52.0196
 30
0.0
 11
110.691
 21
51.7659
 31
0.0
  0
LINE
  8
0
 62
     0
 10
110.691
 20
51.7659
 30
0.0
 11
110.731
 21
51.3719
 31
0.0
  0
LINE
  8
0
 62
     0
 10
110.731
 20
51.3719
 30
0.0
 11
110.617
 21
50.4871
 31
0.0
  0
LINE
  8
0
 62
     0
 10
110.617
 20
50.4871
 30
0.0
 11
110.415
 21
49.5695
 31
0.0
  0
LINE
  8
0
 62
     0
 10
110.415
 20
49.5695
 30
0.0
 11
110.207
 21
48.9246
 31
0.0
  0
LINE
  8
0
 62
     0
 10
110.207
 20
48.9246
 30
0.0
 11
110.072
 21
48.8597
 31
0.0
  0
LINE
  8
0
 62
     0
 10
5.46118
 20
51.1969
 30
0.0
 11
5.37849
 21
52.3903
 31
0.0
  0
LINE
  8
0
 62
     0
 10
5.37849
 20
52.3903
 30
0.0
 11
5.69405
 21
52.9551
 31
0.0
  0
LINE
  8
0
 62
     0
 10
5.69405
 20
52.9551
 30
0.0
 11
6.21496
 21
53.1992
 31
0.0
  0
LINE
  8
0
 62
     0
 10
6.21496
 20
53.1992
 30
0.0
 11
6.67385
 21
53.2419
 31
0.0
  0
LINE
  8
0
 62
     0
 10
6.67385
 20
53.2419
 30
0.0
 11
7.03763
 21
53.0902
 31
0.0
  0
LINE
  8
0
 62
     0
 10
7.03763
 20
53.0902
 30
0.0
 11
7.27879
 21
52.7459
 31
0.0
  0
LINE
  8
0
 62
     0
 10
7.27879
 20
52.7459
 30
0.0
 11
7.40558
 21
52.5184
 31
0.0
  0
LINE
  8
0
 62
     0
 10
7.40558
 20
52.5184
 30
0.0
 11
7.56955
 21
52.4799
 31
0.0
  0
LINE
  8
0
 62
     0
 10
7.56955
 20
52.4799
 30
0.0
 11
7.80108
 21
52.6411
 31
0.0
  0
LINE
  8
0
 62
     0
 10
7.80108
 20
52.6411
 30
0.0
 11
8.13731
 21
53.0105
 31
0.0
  0
LINE
  8
0
 62
     0
 10
8.13731
 20
53.0105
 30
0.0
 11
8.46116
 21
53.3728
 31
0.0
  0
LINE
  8
0
 62
     0
 10
8.46116
 20
53.3728
 30
0.0
 11
8.6651
 21
53.5245
 31
0.0
  0
LINE
  8
0
 62
     0
 10
8.6651
 20
53.5245
 30
0.0
 11
8.7726
 21
53.4719
 31
0.0
  0
LINE
  8
0
 62
     0
 10
8.7726
 20
53.4719
 30
0.0
 11
8.80703
 21
53.2239
 31
0.0
  0
LINE
  8
0
 62
     0
 10
8.80703
 20
53.2239
 30
0.0
 11
8.6596
 21
52.6905
 31
0.0
  0
LINE
  8
0
 62
     0
 10
8.6596
 20
52.6905
 30
0.0
 11
8.29028
 21
52.2111
 31
0.0
  0
LINE
  8
0
 62
     0
 10
8.29028
 20
52.2111
 30
0.0
 11
7.8631
 21
51.6572
 31
0.0
  0
LINE
  8
0
 62
     0
 10
7.8631
 20
51.6572
 30
0.0
 11
7.76386
 21
51.0826
 31
0.0
  0
LINE
  8
0
 62
     0
 10
7.76386
 20
51.0826
 30
0.0
 11
7.97747
 21
50.6307
 31
0.0
  0
LINE
  8
0
 62
     0
 10
7.97747
 20
50.6307
 30
0.0
 11
8.48734
 21
50.4472
 31
0.0
  0
LINE
  8
0
 62
     0
 10
8.48734
 20
50.4472
 30
0.0
 11
8.93519
 21
50.3439
 31
0.0
  0
LINE
  8
0
 62
     0
 10
8.93519
 20
50.3439
 30
0.0
 11
8.99583
 21
50.0944
 31
0.0
  0
LINE
  8
0
 62
     0
 10
8.99583
 20
50.0944
 30
0.0
 11
8.38951
 21
49.8464
 31
0.0
  0
LINE
  8
0
 62
     0
 10
8.38951
 20
49.8464
 30
0.0
 11
7.24158
 21
49.7417
 31
0.0
  0
LINE
  8
0
 62
     0
 10
7.24158
 20
49.7417
 30
0.0
 11
6.35413
 21
49.7664
 31
0.0
  0
LINE
  8
0
 62
     0
 10
6.35413
 20
49.7664
 30
0.0
 11
5.87043
 21
49.9276
 31
0.0
  0
LINE
  8
0
 62
     0
 10
5.87043
 20
49.9276
 30
0.0
 11
5.6279
 21
50.3604
 31
0.0
  0
LINE
  8
0
 62
     0
 10
5.6279
 20
50.3604
 30
0.0
 11
5.46118
 21
51.1969
 31
0.0
  0
LINE
  8
0
 62
     0
 10
7.05556
 20
51.5056
 30
0.0
 11
6.92326
 21
52.2993
 31
0.0
  0
LINE
  8
0
 62
     0
 10
6.92326
 20
52.2993
 30
0.0
 11
6.52639
 21
52.5639
 31
0.0
  0
LINE
  8
0
 62
     0
 10
6.52639
 20
52.5639
 30
0.0
 11
6.12951
 21
52.2993
 31
0.0
  0
LINE
  8
0
 62
     0
 10
6.12951
 20
52.2993
 30
0.0
 11
5.99722
 21
51.5056
 31
0.0
  0
LINE
  8
0
 62
     0
 10
5.99722
 20
51.5056
 30
0.0
 11
6.12951
 21
50.7118
 31
0.0
  0
LINE
  8
0
 62
     0
 10
6.12951
 20
50.7118
 30
0.0
 11
6.52639
 21
50.4472
 31
0.0
  0
LINE
  8
0
 62
     0
 10
6.52639
 20
50.4472
 30
0.0
 11
6.92326
 21
50.7118
 31
0.0
  0
LINE
  8
0
 62
     0
 10
6.92326
 20
50.7118
 30
0.0
 11
7.05556
 21
51.5056
 31
0.0
  0
LINE
  8
0
 62
     0
 10
107.597
 20
54.3278
 30
0.0
 11
107.918
 21
54.5772
 31
0.0
  0
LINE
  8
0
 62
     0
 10
107.918
 20
54.5772
 30
0.0
 11
108.694
 21
54.6806
 31
0.0
  0
LINE
  8
0
 62
     0
 10
108.694
 20
54.6806
 30
0.0
 11
109.793
 21
54.6806
 31
0.0
  0
LINE
  8
0
 62
     0
 10
109.793
 20
54.6806
 30
0.0
 11
108.959
 21
55.3819
 31
0.0
  0
LINE
  8
0
 62
     0
 10
108.959
 20
55.3819
 30
0.0
 11
108.126
 21
56.0821
 31
0.0
  0
LINE
  8
0
 62
     0
 10
108.126
 20
56.0821
 30
0.0
 11
109.89
 21
57.4876
 31
0.0
  0
LINE
  8
0
 62
     0
 10
109.89
 20
57.4876
 30
0.0
 11
108.744
 21
57.4947
 31
0.0
  0
LINE
  8
0
 62
     0
 10
108.744
 20
57.4947
 30
0.0
 11
107.933
 21
57.6047
 31
0.0
  0
LINE
  8
0
 62
     0
 10
107.933
 20
57.6047
 30
0.0
 11
107.597
 21
57.8556
 31
0.0
  0
LINE
  8
0
 62
     0
 10
107.597
 20
57.8556
 30
0.0
 11
107.737
 21
57.9935
 31
0.0
  0
LINE
  8
0
 62
     0
 10
107.737
 20
57.9935
 30
0.0
 11
108.115
 21
58.105
 31
0.0
  0
LINE
  8
0
 62
     0
 10
108.115
 20
58.105
 30
0.0
 11
108.676
 21
58.1808
 31
0.0
  0
LINE
  8
0
 62
     0
 10
108.676
 20
58.1808
 30
0.0
 11
109.361
 21
58.2083
 31
0.0
  0
LINE
  8
0
 62
     0
 10
109.361
 20
58.2083
 30
0.0
 11
110.535
 21
58.1339
 31
0.0
  0
LINE
  8
0
 62
     0
 10
110.535
 20
58.1339
 30
0.0
 11
111.04
 21
57.9011
 31
0.0
  0
LINE
  8
0
 62
     0
 10
111.04
 20
57.9011
 30
0.0
 11
110.881
 21
57.4985
 31
0.0
  0
LINE
  8
0
 62
     0
 10
110.881
 20
57.4985
 30
0.0
 11
110.067
 21
56.9172
 31
0.0
  0
LINE
  8
0
 62
     0
 10
110.067
 20
56.9172
 30
0.0
 11
109.338
 21
56.4402
 31
0.0
  0
LINE
  8
0
 62
     0
 10
109.338
 20
56.4402
 30
0.0
 11
109.073
 21
56.0723
 31
0.0
  0
LINE
  8
0
 62
     0
 10
109.073
 20
56.0723
 30
0.0
 11
109.261
 21
55.71
 31
0.0
  0
LINE
  8
0
 62
     0
 10
109.261
 20
55.71
 30
0.0
 11
109.89
 21
55.2429
 31
0.0
  0
LINE
  8
0
 62
     0
 10
109.89
 20
55.2429
 30
0.0
 11
110.581
 21
54.6848
 31
0.0
  0
LINE
  8
0
 62
     0
 10
110.581
 20
54.6848
 30
0.0
 11
110.695
 21
54.2893
 31
0.0
  0
LINE
  8
0
 62
     0
 10
110.695
 20
54.2893
 30
0.0
 11
110.231
 21
54.0537
 31
0.0
  0
LINE
  8
0
 62
     0
 10
110.231
 20
54.0537
 30
0.0
 11
109.185
 21
53.975
 31
0.0
  0
LINE
  8
0
 62
     0
 10
109.185
 20
53.975
 30
0.0
 11
108.063
 21
54.0798
 31
0.0
  0
LINE
  8
0
 62
     0
 10
108.063
 20
54.0798
 30
0.0
 11
107.597
 21
54.3278
 31
0.0
  0
LINE
  8
0
 62
     0
 10
6.61458
 20
55.0566
 30
0.0
 11
5.68029
 21
55.6782
 31
0.0
  0
LINE
  8
0
 62
     0
 10
5.68029
 20
55.6782
 30
0.0
 11
5.29167
 21
56.1908
 31
0.0
  0
LINE
  8
0
 62
     0
 10
5.29167
 20
56.1908
 30
0.0
 11
5.4157
 21
56.4363
 31
0.0
  0
LINE
  8
0
 62
     0
 10
5.4157
 20
56.4363
 30
0.0
 11
5.75744
 21
56.7806
 31
0.0
  0
LINE
  8
0
 62
     0
 10
5.75744
 20
56.7806
 30
0.0
 11
6.26181
 21
57.1789
 31
0.0
  0
LINE
  8
0
 62
     0
 10
6.26181
 20
57.1789
 30
0.0
 11
6.87917
 21
57.5853
 31
0.0
  0
LINE
  8
0
 62
     0
 10
6.87917
 20
57.5853
 30
0.0
 11
7.63295
 21
58.0154
 31
0.0
  0
LINE
  8
0
 62
     0
 10
7.63295
 20
58.0154
 30
0.0
 11
8.12352
 21
58.2249
 31
0.0
  0
LINE
  8
0
 62
     0
 10
8.12352
 20
58.2249
 30
0.0
 11
8.38673
 21
58.2235
 31
0.0
  0
LINE
  8
0
 62
     0
 10
8.38673
 20
58.2235
 30
0.0
 11
8.46667
 21
58.0238
 31
0.0
  0
LINE
  8
0
 62
     0
 10
8.46667
 20
58.0238
 30
0.0
 11
8.36193
 21
57.6559
 31
0.0
  0
LINE
  8
0
 62
     0
 10
8.36193
 20
57.6559
 30
0.0
 11
8.11389
 21
57.5028
 31
0.0
  0
LINE
  8
0
 62
     0
 10
8.11389
 20
57.5028
 30
0.0
 11
7.80521
 21
57.1542
 31
0.0
  0
LINE
  8
0
 62
     0
 10
7.80521
 20
57.1542
 30
0.0
 11
7.77074
 21
56.3492
 31
0.0
  0
LINE
  8
0
 62
     0
 10
7.77074
 20
56.3492
 30
0.0
 11
7.97334
 21
55.4496
 31
0.0
  0
LINE
  8
0
 62
     0
 10
7.97334
 20
55.4496
 30
0.0
 11
8.37847
 21
54.8185
 31
0.0
  0
LINE
  8
0
 62
     0
 10
8.37847
 20
54.8185
 30
0.0
 11
8.73813
 21
54.4255
 31
0.0
  0
LINE
  8
0
 62
     0
 10
8.73813
 20
54.4255
 30
0.0
 11
8.45287
 21
54.3486
 31
0.0
  0
LINE
  8
0
 62
     0
 10
8.45287
 20
54.3486
 30
0.0
 11
7.68809
 21
54.5677
 31
0.0
  0
LINE
  8
0
 62
     0
 10
7.68809
 20
54.5677
 30
0.0
 11
6.61458
 21
55.0566
 31
0.0
  0
LINE
  8
0
 62
     0
 10
7.27879
 20
56.6924
 30
0.0
 11
6.95635
 21
56.7559
 31
0.0
  0
LINE
  8
0
 62
     0
 10
6.95635
 20
56.7559
 30
0.0
 11
6.45336
 21
56.6388
 31
0.0
  0
LINE
  8
0
 62
     0
 10
6.45336
 20
56.6388
 30
0.0
 11
6.11988
 21
56.4914
 31
0.0
  0
LINE
  8
0
 62
     0
 10
6.11988
 20
56.4914
 30
0.0
 11
6.01652
 21
56.3534
 31
0.0
  0
LINE
  8
0
 62
     0
 10
6.01652
 20
56.3534
 30
0.0
 11
6.15019
 21
56.1675
 31
0.0
  0
LINE
  8
0
 62
     0
 10
6.15019
 20
56.1675
 30
0.0
 11
6.52639
 21
55.8726
 31
0.0
  0
LINE
  8
0
 62
     0
 10
6.52639
 20
55.8726
 30
0.0
 11
6.90534
 21
55.6137
 31
0.0
  0
LINE
  8
0
 62
     0
 10
6.90534
 20
55.6137
 30
0.0
 11
7.13412
 21
55.5322
 31
0.0
  0
LINE
  8
0
 62
     0
 10
7.13412
 20
55.5322
 30
0.0
 11
7.26503
 21
55.6355
 31
0.0
  0
LINE
  8
0
 62
     0
 10
7.26503
 20
55.6355
 30
0.0
 11
7.35182
 21
55.9248
 31
0.0
  0
LINE
  8
0
 62
     0
 10
7.35182
 20
55.9248
 30
0.0
 11
7.37803
 21
56.388
 31
0.0
  0
LINE
  8
0
 62
     0
 10
7.37803
 20
56.388
 30
0.0
 11
7.27879
 21
56.6924
 31
0.0
  0
LINE
  8
0
 62
     0
 10
11.7409
 20
59.0021
 30
0.0
 11
12.445
 21
65.7352
 31
0.0
  0
LINE
  8
0
 62
     0
 10
12.445
 20
65.7352
 30
0.0
 11
13.9637
 21
71.8704
 31
0.0
  0
LINE
  8
0
 62
     0
 10
13.9637
 20
71.8704
 30
0.0
 11
14.9696
 21
74.6386
 31
0.0
  0
LINE
  8
0
 62
     0
 10
14.9696
 20
74.6386
 30
0.0
 11
16.112
 21
77.2954
 31
0.0
  0
LINE
  8
0
 62
     0
 10
16.112
 20
77.2954
 30
0.0
 11
17.1345
 21
79.2925
 31
0.0
  0
LINE
  8
0
 62
     0
 10
17.1345
 20
79.2925
 30
0.0
 11
17.7822
 21
80.0777
 31
0.0
  0
LINE
  8
0
 62
     0
 10
17.7822
 20
80.0777
 30
0.0
 11
18.3348
 21
79.6424
 31
0.0
  0
LINE
  8
0
 62
     0
 10
18.3348
 20
79.6424
 30
0.0
 11
19.5144
 21
78.4874
 31
0.0
  0
LINE
  8
0
 62
     0
 10
19.5144
 20
78.4874
 30
0.0
 11
21.1074
 21
76.8435
 31
0.0
  0
LINE
  8
0
 62
     0
 10
21.1074
 20
76.8435
 30
0.0
 11
22.8989
 21
74.9406
 31
0.0
  0
LINE
  8
0
 62
     0
 10
22.8989
 20
74.9406
 30
0.0
 11
24.6779
 21
73.007
 31
0.0
  0
LINE
  8
0
 62
     0
 10
24.6779
 20
73.007
 30
0.0
 11
26.2296
 21
71.272
 31
0.0
  0
LINE
  8
0
 62
     0
 10
26.2296
 20
71.272
 30
0.0
 11
27.3403
 21
69.9671
 31
0.0
  0
LINE
  8
0
 62
     0
 10
27.3403
 20
69.9671
 30
0.0
 11
27.7978
 21
69.318
 31
0.0
  0
LINE
  8
0
 62
     0
 10
27.7978
 20
69.318
 30
0.0
 11
27.1777
 21
68.5479
 31
0.0
  0
LINE
  8
0
 62
     0
 10
27.1777
 20
68.5479
 30
0.0
 11
25.4661
 21
66.8225
 31
0.0
  0
LINE
  8
0
 62
     0
 10
25.4661
 20
66.8225
 30
0.0
 11
23.0132
 21
64.4687
 31
0.0
  0
LINE
  8
0
 62
     0
 10
23.0132
 20
64.4687
 30
0.0
 11
20.1731
 21
61.8134
 31
0.0
  0
LINE
  8
0
 62
     0
 10
20.1731
 20
61.8134
 30
0.0
 11
17.2944
 21
59.1813
 31
0.0
  0
LINE
  8
0
 62
     0
 10
17.2944
 20
59.1813
 30
0.0
 11
14.734
 21
56.8992
 31
0.0
  0
LINE
  8
0
 62
     0
 10
14.734
 20
56.8992
 30
0.0
 11
12.8392
 21
55.2898
 31
0.0
  0
LINE
  8
0
 62
     0
 10
12.8392
 20
55.2898
 30
0.0
 11
11.9669
 21
54.6806
 31
0.0
  0
LINE
  8
0
 62
     0
 10
11.9669
 20
54.6806
 30
0.0
 11
11.7726
 21
54.8968
 31
0.0
  0
LINE
  8
0
 62
     0
 10
11.7726
 20
54.8968
 30
0.0
 11
11.6748
 21
55.6175
 31
0.0
  0
LINE
  8
0
 62
     0
 10
11.6748
 20
55.6175
 30
0.0
 11
11.6651
 21
56.9503
 31
0.0
  0
LINE
  8
0
 62
     0
 10
11.6651
 20
56.9503
 30
0.0
 11
11.7409
 21
59.0021
 31
0.0
  0
LINE
  8
0
 62
     0
 10
95.9432
 20
61.9347
 30
0.0
 11
92.994
 21
64.6493
 31
0.0
  0
LINE
  8
0
 62
     0
 10
92.994
 20
64.6493
 30
0.0
 11
90.5648
 21
66.9368
 31
0.0
  0
LINE
  8
0
 62
     0
 10
90.5648
 20
66.9368
 30
0.0
 11
88.9056
 21
68.5574
 31
0.0
  0
LINE
  8
0
 62
     0
 10
88.9056
 20
68.5574
 30
0.0
 11
88.2703
 21
69.2697
 31
0.0
  0
LINE
  8
0
 62
     0
 10
88.2703
 20
69.2697
 30
0.0
 11
88.6326
 21
69.9273
 31
0.0
  0
LINE
  8
0
 62
     0
 10
88.6326
 20
69.9273
 30
0.0
 11
89.6909
 21
71.2459
 31
0.0
  0
LINE
  8
0
 62
     0
 10
89.6909
 20
71.2459
 30
0.0
 11
91.2262
 21
72.9933
 31
0.0
  0
LINE
  8
0
 62
     0
 10
91.2262
 20
72.9933
 30
0.0
 11
93.0176
 21
74.9349
 31
0.0
  0
LINE
  8
0
 62
     0
 10
93.0176
 20
74.9349
 30
0.0
 11
94.8475
 21
76.8406
 31
0.0
  0
LINE
  8
0
 62
     0
 10
94.8475
 20
76.8406
 30
0.0
 11
96.4957
 21
78.4765
 31
0.0
  0
LINE
  8
0
 62
     0
 10
96.4957
 20
78.4765
 30
0.0
 11
97.7456
 21
79.6092
 31
0.0
  0
LINE
  8
0
 62
     0
 10
97.7456
 20
79.6092
 30
0.0
 11
98.3753
 21
80.0061
 31
0.0
  0
LINE
  8
0
 62
     0
 10
98.3753
 20
80.0061
 30
0.0
 11
98.9348
 21
79.5182
 31
0.0
  0
LINE
  8
0
 62
     0
 10
98.9348
 20
79.5182
 30
0.0
 11
99.6322
 21
78.3276
 31
0.0
  0
LINE
  8
0
 62
     0
 10
99.6322
 20
78.3276
 30
0.0
 11
100.416
 21
76.5775
 31
0.0
  0
LINE
  8
0
 62
     0
 10
100.416
 20
76.5775
 30
0.0
 11
101.239
 21
74.41
 31
0.0
  0
LINE
  8
0
 62
     0
 10
101.239
 20
74.41
 30
0.0
 11
102.049
 21
71.9667
 31
0.0
  0
LINE
  8
0
 62
     0
 10
102.049
 20
71.9667
 30
0.0
 11
102.796
 21
69.3882
 31
0.0
  0
LINE
  8
0
 62
     0
 10
102.796
 20
69.3882
 30
0.0
 11
103.43
 21
66.8168
 31
0.0
  0
LINE
  8
0
 62
     0
 10
103.43
 20
66.8168
 30
0.0
 11
103.903
 21
64.3929
 31
0.0
  0
LINE
  8
0
 62
     0
 10
103.903
 20
64.3929
 30
0.0
 11
104.282
 21
61.2041
 31
0.0
  0
LINE
  8
0
 62
     0
 10
104.282
 20
61.2041
 30
0.0
 11
104.422
 21
58.178
 31
0.0
  0
LINE
  8
0
 62
     0
 10
104.422
 20
58.178
 30
0.0
 11
104.319
 21
55.9209
 31
0.0
  0
LINE
  8
0
 62
     0
 10
104.319
 20
55.9209
 30
0.0
 11
103.969
 21
55.0333
 31
0.0
  0
LINE
  8
0
 62
     0
 10
103.969
 20
55.0333
 30
0.0
 11
103.195
 21
55.5791
 31
0.0
  0
LINE
  8
0
 62
     0
 10
103.195
 20
55.5791
 30
0.0
 11
101.424
 21
57.0618
 31
0.0
  0
LINE
  8
0
 62
     0
 10
101.424
 20
57.0618
 30
0.0
 11
98.9182
 21
59.2557
 31
0.0
  0
LINE
  8
0
 62
     0
 10
98.9182
 20
59.2557
 30
0.0
 11
95.9432
 21
61.9347
 31
0.0
  0
LINE
  8
0
 62
     0
 10
5.07806
 20
59.472
 30
0.0
 11
5.24069
 21
60.2463
 31
0.0
  0
LINE
  8
0
 62
     0
 10
5.24069
 20
60.2463
 30
0.0
 11
5.33301
 21
61.3241
 31
0.0
  0
LINE
  8
0
 62
     0
 10
5.33301
 20
61.3241
 30
0.0
 11
5.41016
 21
62.0656
 31
0.0
  0
LINE
  8
0
 62
     0
 10
5.41016
 20
62.0656
 30
0.0
 11
5.54937
 21
61.9125
 31
0.0
  0
LINE
  8
0
 62
     0
 10
5.54937
 20
61.9125
 30
0.0
 11
5.77811
 21
61.3421
 31
0.0
  0
LINE
  8
0
 62
     0
 10
5.77811
 20
61.3421
 30
0.0
 11
6.15294
 21
60.9632
 31
0.0
  0
LINE
  8
0
 62
     0
 10
6.15294
 20
60.9632
 30
0.0
 11
6.71241
 21
60.7522
 31
0.0
  0
LINE
  8
0
 62
     0
 10
6.71241
 20
60.7522
 30
0.0
 11
7.49653
 21
60.6834
 31
0.0
  0
LINE
  8
0
 62
     0
 10
7.49653
 20
60.6834
 30
0.0
 11
8.18141
 21
60.5868
 31
0.0
  0
LINE
  8
0
 62
     0
 10
8.18141
 20
60.5868
 30
0.0
 11
8.46667
 21
60.3582
 31
0.0
  0
LINE
  8
0
 62
     0
 10
8.46667
 20
60.3582
 30
0.0
 11
8.05187
 21
60.1899
 31
0.0
  0
LINE
  8
0
 62
     0
 10
8.05187
 20
60.1899
 30
0.0
 11
7.05556
 21
60.2287
 31
0.0
  0
LINE
  8
0
 62
     0
 10
7.05556
 20
60.2287
 30
0.0
 11
6.30178
 21
60.307
 31
0.0
  0
LINE
  8
0
 62
     0
 10
6.30178
 20
60.307
 30
0.0
 11
5.87597
 21
60.2643
 31
0.0
  0
LINE
  8
0
 62
     0
 10
5.87597
 20
60.2643
 30
0.0
 11
5.68717
 21
60.0632
 31
0.0
  0
LINE
  8
0
 62
     0
 10
5.68717
 20
60.0632
 30
0.0
 11
5.64444
 21
59.6664
 31
0.0
  0
LINE
  8
0
 62
     0
 10
5.64444
 20
59.6664
 30
0.0
 11
5.5287
 21
59.1358
 31
0.0
  0
LINE
  8
0
 62
     0
 10
5.5287
 20
59.1358
 30
0.0
 11
5.25445
 21
58.9139
 31
0.0
  0
LINE
  8
0
 62
     0
 10
5.25445
 20
58.9139
 30
0.0
 11
5.04088
 21
59.0779
 31
0.0
  0
LINE
  8
0
 62
     0
 10
5.04088
 20
59.0779
 30
0.0
 11
5.07806
 21
59.472
 31
0.0
  0
LINE
  8
0
 62
     0
 10
107.652
 20
60.325
 30
0.0
 11
107.546
 21
61.171
 31
0.0
  0
LINE
  8
0
 62
     0
 10
107.546
 20
61.171
 30
0.0
 11
107.385
 21
61.9647
 31
0.0
  0
LINE
  8
0
 62
     0
 10
107.385
 20
61.9647
 30
0.0
 11
107.323
 21
62.3782
 31
0.0
  0
LINE
  8
0
 62
     0
 10
107.323
 20
62.3782
 30
0.0
 11
107.492
 21
62.6223
 31
0.0
  0
LINE
  8
0
 62
     0
 10
107.492
 20
62.6223
 30
0.0
 11
107.997
 21
62.7585
 31
0.0
  0
LINE
  8
0
 62
     0
 10
107.997
 20
62.7585
 30
0.0
 11
108.948
 21
62.8467
 31
0.0
  0
LINE
  8
0
 62
     0
 10
108.948
 20
62.8467
 30
0.0
 11
110.716
 21
62.9708
 31
0.0
  0
LINE
  8
0
 62
     0
 10
110.716
 20
62.9708
 30
0.0
 11
110.866
 21
61.5597
 31
0.0
  0
LINE
  8
0
 62
     0
 10
110.866
 20
61.5597
 30
0.0
 11
110.91
 21
60.4118
 31
0.0
  0
LINE
  8
0
 62
     0
 10
110.91
 20
60.4118
 30
0.0
 11
110.801
 21
59.8262
 31
0.0
  0
LINE
  8
0
 62
     0
 10
110.801
 20
59.8262
 30
0.0
 11
110.612
 21
59.9239
 31
0.0
  0
LINE
  8
0
 62
     0
 10
110.612
 20
59.9239
 30
0.0
 11
110.419
 21
60.8266
 31
0.0
  0
LINE
  8
0
 62
     0
 10
110.419
 20
60.8266
 30
0.0
 11
110.167
 21
61.8367
 31
0.0
  0
LINE
  8
0
 62
     0
 10
110.167
 20
61.8367
 30
0.0
 11
109.813
 21
62.3369
 31
0.0
  0
LINE
  8
0
 62
     0
 10
109.813
 20
62.3369
 30
0.0
 11
109.485
 21
62.2515
 31
0.0
  0
LINE
  8
0
 62
     0
 10
109.485
 20
62.2515
 30
0.0
 11
109.313
 21
61.5005
 31
0.0
  0
LINE
  8
0
 62
     0
 10
109.313
 20
61.5005
 30
0.0
 11
109.245
 21
60.839
 31
0.0
  0
LINE
  8
0
 62
     0
 10
109.245
 20
60.839
 30
0.0
 11
109.112
 21
61.2951
 31
0.0
  0
LINE
  8
0
 62
     0
 10
109.112
 20
61.2951
 30
0.0
 11
108.831
 21
61.9689
 31
0.0
  0
LINE
  8
0
 62
     0
 10
108.831
 20
61.9689
 30
0.0
 11
108.446
 21
62.0723
 31
0.0
  0
LINE
  8
0
 62
     0
 10
108.446
 20
62.0723
 30
0.0
 11
108.079
 21
61.6536
 31
0.0
  0
LINE
  8
0
 62
     0
 10
108.079
 20
61.6536
 30
0.0
 11
107.854
 21
60.766
 31
0.0
  0
LINE
  8
0
 62
     0
 10
107.854
 20
60.766
 30
0.0
 11
107.737
 21
60.0481
 31
0.0
  0
LINE
  8
0
 62
     0
 10
107.737
 20
60.0481
 30
0.0
 11
107.652
 21
60.325
 31
0.0
  0
LINE
  8
0
 62
     0
 10
6.79097
 20
63.4023
 30
0.0
 11
6.16398
 21
63.5152
 31
0.0
  0
LINE
  8
0
 62
     0
 10
6.16398
 20
63.5152
 30
0.0
 11
5.81946
 21
63.7219
 31
0.0
  0
LINE
  8
0
 62
     0
 10
5.81946
 20
63.7219
 30
0.0
 11
5.67612
 21
64.1311
 31
0.0
  0
LINE
  8
0
 62
     0
 10
5.67612
 20
64.1311
 30
0.0
 11
5.64995
 21
64.8451
 31
0.0
  0
LINE
  8
0
 62
     0
 10
5.64995
 20
64.8451
 30
0.0
 11
5.76294
 21
65.9197
 31
0.0
  0
LINE
  8
0
 62
     0
 10
5.76294
 20
65.9197
 30
0.0
 11
6.03031
 21
66.675
 31
0.0
  0
LINE
  8
0
 62
     0
 10
6.03031
 20
66.675
 30
0.0
 11
6.19841
 21
66.8486
 31
0.0
  0
LINE
  8
0
 62
     0
 10
6.19841
 20
66.8486
 30
0.0
 11
6.28523
 21
66.7604
 31
0.0
  0
LINE
  8
0
 62
     0
 10
6.28523
 20
66.7604
 30
0.0
 11
6.29627
 21
66.3871
 31
0.0
  0
LINE
  8
0
 62
     0
 10
6.29627
 20
66.3871
 30
0.0
 11
6.23563
 21
65.7049
 31
0.0
  0
LINE
  8
0
 62
     0
 10
6.23563
 20
65.7049
 30
0.0
 11
6.17774
 21
64.9922
 31
0.0
  0
LINE
  8
0
 62
     0
 10
6.17774
 20
64.9922
 30
0.0
 11
6.20808
 21
64.5308
 31
0.0
  0
LINE
  8
0
 62
     0
 10
6.20808
 20
64.5308
 30
0.0
 11
6.33208
 21
64.2814
 31
0.0
  0
LINE
  8
0
 62
     0
 10
6.33208
 20
64.2814
 30
0.0
 11
6.55948
 21
64.2056
 31
0.0
  0
LINE
  8
0
 62
     0
 10
6.55948
 20
64.2056
 30
0.0
 11
6.90947
 21
64.4137
 31
0.0
  0
LINE
  8
0
 62
     0
 10
6.90947
 20
64.4137
 30
0.0
 11
7.05556
 21
64.9111
 31
0.0
  0
LINE
  8
0
 62
     0
 10
7.05556
 20
64.9111
 30
0.0
 11
7.16993
 21
65.4099
 31
0.0
  0
LINE
  8
0
 62
     0
 10
7.16993
 20
65.4099
 30
0.0
 11
7.44693
 21
65.6167
 31
0.0
  0
LINE
  8
0
 62
     0
 10
7.44693
 20
65.6167
 30
0.0
 11
7.67292
 21
65.3796
 31
0.0
  0
LINE
  8
0
 62
     0
 10
7.67292
 20
65.3796
 30
0.0
 11
7.6164
 21
64.7347
 31
0.0
  0
LINE
  8
0
 62
     0
 10
7.6164
 20
64.7347
 30
0.0
 11
7.5613
 21
64.0609
 31
0.0
  0
LINE
  8
0
 62
     0
 10
7.5613
 20
64.0609
 30
0.0
 11
7.88098
 21
63.8528
 31
0.0
  0
LINE
  8
0
 62
     0
 10
7.88098
 20
63.8528
 30
0.0
 11
8.33025
 21
64.2786
 31
0.0
  0
LINE
  8
0
 62
     0
 10
8.33025
 20
64.2786
 30
0.0
 11
8.72712
 21
65.3521
 31
0.0
  0
LINE
  8
0
 62
     0
 10
8.72712
 20
65.3521
 30
0.0
 11
9.08816
 21
66.8514
 31
0.0
  0
LINE
  8
0
 62
     0
 10
9.08816
 20
66.8514
 30
0.0
 11
9.1295
 21
65.5574
 31
0.0
  0
LINE
  8
0
 62
     0
 10
9.1295
 20
65.5574
 30
0.0
 11
9.1047
 21
64.5223
 31
0.0
  0
LINE
  8
0
 62
     0
 10
9.1047
 20
64.5223
 30
0.0
 11
8.95862
 21
63.7688
 31
0.0
  0
LINE
  8
0
 62
     0
 10
8.95862
 20
63.7688
 30
0.0
 11
8.70232
 21
63.3208
 31
0.0
  0
LINE
  8
0
 62
     0
 10
8.70232
 20
63.3208
 30
0.0
 11
8.34125
 21
63.2037
 31
0.0
  0
LINE
  8
0
 62
     0
 10
8.34125
 20
63.2037
 30
0.0
 11
7.71839
 21
63.2852
 31
0.0
  0
LINE
  8
0
 62
     0
 10
7.71839
 20
63.2852
 30
0.0
 11
6.79097
 21
63.4023
 31
0.0
  0
LINE
  8
0
 62
     0
 10
107.046
 20
65.0515
 30
0.0
 11
106.878
 21
66.1501
 31
0.0
  0
LINE
  8
0
 62
     0
 10
106.878
 20
66.1501
 30
0.0
 11
107.021
 21
66.9477
 31
0.0
  0
LINE
  8
0
 62
     0
 10
107.021
 20
66.9477
 30
0.0
 11
107.49
 21
67.4825
 31
0.0
  0
LINE
  8
0
 62
     0
 10
107.49
 20
67.4825
 30
0.0
 11
108.303
 21
67.7912
 31
0.0
  0
LINE
  8
0
 62
     0
 10
108.303
 20
67.7912
 30
0.0
 11
109.368
 21
67.8737
 31
0.0
  0
LINE
  8
0
 62
     0
 10
109.368
 20
67.8737
 30
0.0
 11
109.978
 21
67.4716
 31
0.0
  0
LINE
  8
0
 62
     0
 10
109.978
 20
67.4716
 30
0.0
 11
110.327
 21
66.6641
 31
0.0
  0
LINE
  8
0
 62
     0
 10
110.327
 20
66.6641
 30
0.0
 11
110.422
 21
65.7006
 31
0.0
  0
LINE
  8
0
 62
     0
 10
110.422
 20
65.7006
 30
0.0
 11
110.273
 21
64.8959
 31
0.0
  0
LINE
  8
0
 62
     0
 10
110.273
 20
64.8959
 30
0.0
 11
109.89
 21
64.5583
 31
0.0
  0
LINE
  8
0
 62
     0
 10
109.89
 20
64.5583
 30
0.0
 11
109.54
 21
64.6522
 31
0.0
  0
LINE
  8
0
 62
     0
 10
109.54
 20
64.6522
 30
0.0
 11
109.373
 21
64.8698
 31
0.0
  0
LINE
  8
0
 62
     0
 10
109.373
 20
64.8698
 30
0.0
 11
109.413
 21
65.1235
 31
0.0
  0
LINE
  8
0
 62
     0
 10
109.413
 20
65.1235
 30
0.0
 11
109.685
 21
65.3232
 31
0.0
  0
LINE
  8
0
 62
     0
 10
109.685
 20
65.3232
 30
0.0
 11
109.856
 21
65.6967
 31
0.0
  0
LINE
  8
0
 62
     0
 10
109.856
 20
65.6967
 30
0.0
 11
109.817
 21
66.4284
 31
0.0
  0
LINE
  8
0
 62
     0
 10
109.817
 20
66.4284
 30
0.0
 11
109.681
 21
66.9562
 31
0.0
  0
LINE
  8
0
 62
     0
 10
109.681
 20
66.9562
 30
0.0
 11
109.48
 21
67.2222
 31
0.0
  0
LINE
  8
0
 62
     0
 10
109.48
 20
67.2222
 30
0.0
 11
109.123
 21
67.2814
 31
0.0
  0
LINE
  8
0
 62
     0
 10
109.123
 20
67.2814
 30
0.0
 11
108.523
 21
67.1809
 31
0.0
  0
LINE
  8
0
 62
     0
 10
108.523
 20
67.1809
 30
0.0
 11
107.727
 21
67.0003
 31
0.0
  0
LINE
  8
0
 62
     0
 10
107.727
 20
67.0003
 30
0.0
 11
107.356
 21
66.8073
 31
0.0
  0
LINE
  8
0
 62
     0
 10
107.356
 20
66.8073
 30
0.0
 11
107.298
 21
66.4655
 31
0.0
  0
LINE
  8
0
 62
     0
 10
107.298
 20
66.4655
 30
0.0
 11
107.442
 21
65.8343
 31
0.0
  0
LINE
  8
0
 62
     0
 10
107.442
 20
65.8343
 30
0.0
 11
107.749
 21
65.1828
 31
0.0
  0
LINE
  8
0
 62
     0
 10
107.749
 20
65.1828
 30
0.0
 11
108.165
 21
64.9111
 31
0.0
  0
LINE
  8
0
 62
     0
 10
108.165
 20
64.9111
 30
0.0
 11
108.511
 21
64.8077
 31
0.0
  0
LINE
  8
0
 62
     0
 10
108.511
 20
64.8077
 30
0.0
 11
108.656
 21
64.5583
 31
0.0
  0
LINE
  8
0
 62
     0
 10
108.656
 20
64.5583
 30
0.0
 11
108.432
 21
64.196
 31
0.0
  0
LINE
  8
0
 62
     0
 10
108.432
 20
64.196
 30
0.0
 11
107.928
 21
64.207
 31
0.0
  0
LINE
  8
0
 62
     0
 10
107.928
 20
64.207
 30
0.0
 11
107.385
 21
64.5171
 31
0.0
  0
LINE
  8
0
 62
     0
 10
107.385
 20
64.5171
 30
0.0
 11
107.046
 21
65.0515
 31
0.0
  0
LINE
  8
0
 62
     0
 10
7.47448
 20
67.9856
 30
0.0
 11
6.84611
 21
68.2322
 31
0.0
  0
LINE
  8
0
 62
     0
 10
6.84611
 20
68.2322
 30
0.0
 11
6.48092
 21
68.6058
 31
0.0
  0
LINE
  8
0
 62
     0
 10
6.48092
 20
68.6058
 30
0.0
 11
6.46299
 21
69.4118
 31
0.0
  0
LINE
  8
0
 62
     0
 10
6.46299
 20
69.4118
 30
0.0
 11
6.70553
 21
70.5362
 31
0.0
  0
LINE
  8
0
 62
     0
 10
6.70553
 20
70.5362
 30
0.0
 11
7.08036
 21
71.5352
 31
0.0
  0
LINE
  8
0
 62
     0
 10
7.08036
 20
71.5352
 30
0.0
 11
7.45931
 21
71.9667
 31
0.0
  0
LINE
  8
0
 62
     0
 10
7.45931
 20
71.9667
 30
0.0
 11
7.65775
 21
71.7973
 31
0.0
  0
LINE
  8
0
 62
     0
 10
7.65775
 20
71.7973
 30
0.0
 11
7.5723
 21
71.3493
 31
0.0
  0
LINE
  8
0
 62
     0
 10
7.5723
 20
71.3493
 30
0.0
 11
7.33806
 21
70.6423
 31
0.0
  0
LINE
  8
0
 62
     0
 10
7.33806
 20
70.6423
 30
0.0
 11
7.14925
 21
69.8087
 31
0.0
  0
LINE
  8
0
 62
     0
 10
7.14925
 20
69.8087
 30
0.0
 11
7.10516
 21
69.3304
 31
0.0
  0
LINE
  8
0
 62
     0
 10
7.10516
 20
69.3304
 30
0.0
 11
7.19889
 21
69.0122
 31
0.0
  0
LINE
  8
0
 62
     0
 10
7.19889
 20
69.0122
 30
0.0
 11
7.47173
 21
68.8026
 31
0.0
  0
LINE
  8
0
 62
     0
 10
7.47173
 20
68.8026
 30
0.0
 11
7.95955
 21
68.6414
 31
0.0
  0
LINE
  8
0
 62
     0
 10
7.95955
 20
68.6414
 30
0.0
 11
8.65685
 21
68.5754
 31
0.0
  0
LINE
  8
0
 62
     0
 10
8.65685
 20
68.5754
 30
0.0
 11
9.14054
 21
68.7903
 31
0.0
  0
LINE
  8
0
 62
     0
 10
9.14054
 20
68.7903
 30
0.0
 11
9.42301
 21
69.299
 31
0.0
  0
LINE
  8
0
 62
     0
 10
9.42301
 20
69.299
 30
0.0
 11
9.5195
 21
70.1146
 31
0.0
  0
LINE
  8
0
 62
     0
 10
9.5195
 20
70.1146
 30
0.0
 11
9.43543
 21
70.6561
 31
0.0
  0
LINE
  8
0
 62
     0
 10
9.43543
 20
70.6561
 30
0.0
 11
9.21907
 21
70.8851
 31
0.0
  0
LINE
  8
0
 62
     0
 10
9.21907
 20
70.8851
 30
0.0
 11
8.94073
 21
70.7817
 31
0.0
  0
LINE
  8
0
 62
     0
 10
8.94073
 20
70.7817
 30
0.0
 11
8.67198
 21
70.328
 31
0.0
  0
LINE
  8
0
 62
     0
 10
8.67198
 20
70.328
 30
0.0
 11
8.43774
 21
69.9438
 31
0.0
  0
LINE
  8
0
 62
     0
 10
8.43774
 20
69.9438
 30
0.0
 11
8.25306
 21
69.9657
 31
0.0
  0
LINE
  8
0
 62
     0
 10
8.25306
 20
69.9657
 30
0.0
 11
8.18003
 21
70.309
 31
0.0
  0
LINE
  8
0
 62
     0
 10
8.18003
 20
70.309
 30
0.0
 11
8.28202
 21
70.8822
 31
0.0
  0
LINE
  8
0
 62
     0
 10
8.28202
 20
70.8822
 30
0.0
 11
8.63342
 21
71.3754
 31
0.0
  0
LINE
  8
0
 62
     0
 10
8.63342
 20
71.3754
 30
0.0
 11
9.17497
 21
71.5959
 31
0.0
  0
LINE
  8
0
 62
     0
 10
9.17497
 20
71.5959
 30
0.0
 11
9.72069
 21
71.52
 31
0.0
  0
LINE
  8
0
 62
     0
 10
9.72069
 20
71.52
 30
0.0
 11
10.0886
 21
71.1218
 31
0.0
  0
LINE
  8
0
 62
     0
 10
10.0886
 20
71.1218
 30
0.0
 11
10.1079
 21
70.3488
 31
0.0
  0
LINE
  8
0
 62
     0
 10
10.1079
 20
70.3488
 30
0.0
 11
9.88741
 21
69.1815
 31
0.0
  0
LINE
  8
0
 62
     0
 10
9.88741
 20
69.1815
 30
0.0
 11
9.60494
 21
68.3204
 31
0.0
  0
LINE
  8
0
 62
     0
 10
9.60494
 20
68.3204
 30
0.0
 11
9.23149
 21
67.896
 31
0.0
  0
LINE
  8
0
 62
     0
 10
9.23149
 20
67.896
 30
0.0
 11
8.58241
 21
67.8145
 31
0.0
  0
LINE
  8
0
 62
     0
 10
8.58241
 20
67.8145
 30
0.0
 11
7.47448
 21
67.9856
 31
0.0
  0
LINE
  8
0
 62
     0
 10
106.365
 20
69.4972
 30
0.0
 11
106.74
 21
70.9747
 31
0.0
  0
LINE
  8
0
 62
     0
 10
106.74
 20
70.9747
 30
0.0
 11
106.852
 21
71.7077
 31
0.0
  0
LINE
  8
0
 62
     0
 10
106.852
 20
71.7077
 30
0.0
 11
106.686
 21
71.913
 31
0.0
  0
LINE
  8
0
 62
     0
 10
106.686
 20
71.913
 30
0.0
 11
106.234
 21
71.8054
 31
0.0
  0
LINE
  8
0
 62
     0
 10
106.234
 20
71.8054
 30
0.0
 11
105.693
 21
71.7381
 31
0.0
  0
LINE
  8
0
 62
     0
 10
105.693
 20
71.7381
 30
0.0
 11
105.481
 21
71.9296
 31
0.0
  0
LINE
  8
0
 62
     0
 10
105.481
 20
71.9296
 30
0.0
 11
105.602
 21
72.1374
 31
0.0
  0
LINE
  8
0
 62
     0
 10
105.602
 20
72.1374
 30
0.0
 11
105.929
 21
72.3427
 31
0.0
  0
LINE
  8
0
 62
     0
 10
105.929
 20
72.3427
 30
0.0
 11
106.398
 21
72.5329
 31
0.0
  0
LINE
  8
0
 62
     0
 10
106.398
 20
72.5329
 30
0.0
 11
106.95
 21
72.693
 31
0.0
  0
LINE
  8
0
 62
     0
 10
106.95
 20
72.693
 30
0.0
 11
107.521
 21
72.8059
 31
0.0
  0
LINE
  8
0
 62
     0
 10
107.521
 20
72.8059
 30
0.0
 11
108.052
 21
72.8595
 31
0.0
  0
LINE
  8
0
 62
     0
 10
108.052
 20
72.8595
 30
0.0
 11
108.481
 21
72.8363
 31
0.0
  0
LINE
  8
0
 62
     0
 10
108.481
 20
72.8363
 30
0.0
 11
108.747
 21
72.7234
 31
0.0
  0
LINE
  8
0
 62
     0
 10
108.747
 20
72.7234
 30
0.0
 11
109.008
 21
72.0771
 31
0.0
  0
LINE
  8
0
 62
     0
 10
109.008
 20
72.0771
 30
0.0
 11
109.142
 21
71.0212
 31
0.0
  0
LINE
  8
0
 62
     0
 10
109.142
 20
71.0212
 30
0.0
 11
109.141
 21
70.273
 31
0.0
  0
LINE
  8
0
 62
     0
 10
109.141
 20
70.273
 30
0.0
 11
109.025
 21
69.8722
 31
0.0
  0
LINE
  8
0
 62
     0
 10
109.025
 20
69.8722
 30
0.0
 11
108.713
 21
69.7163
 31
0.0
  0
LINE
  8
0
 62
     0
 10
108.713
 20
69.7163
 30
0.0
 11
108.126
 21
69.6983
 31
0.0
  0
LINE
  8
0
 62
     0
 10
108.126
 20
69.6983
 30
0.0
 11
107.242
 21
69.5537
 31
0.0
  0
LINE
  8
0
 62
     0
 10
107.242
 20
69.5537
 30
0.0
 11
106.601
 21
69.1691
 31
0.0
  0
LINE
  8
0
 62
     0
 10
106.601
 20
69.1691
 30
0.0
 11
106.364
 21
68.9116
 31
0.0
  0
LINE
  8
0
 62
     0
 10
106.364
 20
68.9116
 30
0.0
 11
106.255
 21
68.8675
 31
0.0
  0
LINE
  8
0
 62
     0
 10
106.255
 20
68.8675
 30
0.0
 11
106.259
 21
69.0577
 31
0.0
  0
LINE
  8
0
 62
     0
 10
106.259
 20
69.0577
 30
0.0
 11
106.365
 21
69.4972
 31
0.0
  0
LINE
  8
0
 62
     0
 10
108.694
 20
71.1496
 30
0.0
 11
108.406
 21
71.815
 31
0.0
  0
LINE
  8
0
 62
     0
 10
108.406
 20
71.815
 30
0.0
 11
108.042
 21
72.208
 31
0.0
  0
LINE
  8
0
 62
     0
 10
108.042
 20
72.208
 30
0.0
 11
107.73
 21
72.2464
 31
0.0
  0
LINE
  8
0
 62
     0
 10
107.73
 20
72.2464
 30
0.0
 11
107.597
 21
71.8481
 31
0.0
  0
LINE
  8
0
 62
     0
 10
107.597
 20
71.8481
 30
0.0
 11
107.667
 21
71.2142
 31
0.0
  0
LINE
  8
0
 62
     0
 10
107.667
 20
71.2142
 30
0.0
 11
107.859
 21
70.6907
 31
0.0
  0
LINE
  8
0
 62
     0
 10
107.859
 20
70.6907
 30
0.0
 11
108.143
 21
70.3351
 31
0.0
  0
LINE
  8
0
 62
     0
 10
108.143
 20
70.3351
 30
0.0
 11
108.486
 21
70.2028
 31
0.0
  0
LINE
  8
0
 62
     0
 10
108.486
 20
70.2028
 30
0.0
 11
108.78
 21
70.4247
 31
0.0
  0
LINE
  8
0
 62
     0
 10
108.78
 20
70.4247
 30
0.0
 11
108.694
 21
71.1496
 31
0.0
  0
LINE
  8
0
 62
     0
 10
8.90764
 20
73.1118
 30
0.0
 11
8.25306
 21
73.3972
 31
0.0
  0
LINE
  8
0
 62
     0
 10
8.25306
 20
73.3972
 30
0.0
 11
7.82175
 21
73.7168
 31
0.0
  0
LINE
  8
0
 62
     0
 10
7.82175
 20
73.7168
 30
0.0
 11
7.70184
 21
73.9771
 31
0.0
  0
LINE
  8
0
 62
     0
 10
7.70184
 20
73.9771
 30
0.0
 11
7.98435
 21
74.0833
 31
0.0
  0
LINE
  8
0
 62
     0
 10
7.98435
 20
74.0833
 30
0.0
 11
8.7285
 21
73.9454
 31
0.0
  0
LINE
  8
0
 62
     0
 10
8.7285
 20
73.9454
 30
0.0
 11
9.71102
 21
73.6215
 31
0.0
  0
LINE
  8
0
 62
     0
 10
9.71102
 20
73.6215
 30
0.0
 11
10.5682
 21
73.2511
 31
0.0
  0
LINE
  8
0
 62
     0
 10
10.5682
 20
73.2511
 30
0.0
 11
10.9361
 21
72.9686
 31
0.0
  0
LINE
  8
0
 62
     0
 10
10.9361
 20
72.9686
 30
0.0
 11
10.8259
 21
72.7685
 31
0.0
  0
LINE
  8
0
 62
     0
 10
10.8259
 20
72.7685
 30
0.0
 11
10.4745
 21
72.7244
 31
0.0
  0
LINE
  8
0
 62
     0
 10
10.4745
 20
72.7244
 30
0.0
 11
9.8461
 21
72.8391
 31
0.0
  0
LINE
  8
0
 62
     0
 10
9.8461
 20
72.8391
 30
0.0
 11
8.90764
 21
73.1118
 31
0.0
  0
LINE
  8
0
 62
     0
 10
104.294
 20
75.2422
 30
0.0
 11
103.874
 21
76.4011
 31
0.0
  0
LINE
  8
0
 62
     0
 10
103.874
 20
76.4011
 30
0.0
 11
103.801
 21
77.0502
 31
0.0
  0
LINE
  8
0
 62
     0
 10
103.801
 20
77.0502
 30
0.0
 11
104.136
 21
77.4375
 31
0.0
  0
LINE
  8
0
 62
     0
 10
104.136
 20
77.4375
 30
0.0
 11
104.94
 21
77.8055
 31
0.0
  0
LINE
  8
0
 62
     0
 10
104.94
 20
77.8055
 30
0.0
 11
105.953
 21
78.19
 31
0.0
  0
LINE
  8
0
 62
     0
 10
105.953
 20
78.19
 30
0.0
 11
106.558
 21
78.2091
 31
0.0
  0
LINE
  8
0
 62
     0
 10
106.558
 20
78.2091
 30
0.0
 11
106.962
 21
77.7752
 31
0.0
  0
LINE
  8
0
 62
     0
 10
106.962
 20
77.7752
 30
0.0
 11
107.373
 21
76.805
 31
0.0
  0
LINE
  8
0
 62
     0
 10
107.373
 20
76.805
 30
0.0
 11
107.792
 21
75.6476
 31
0.0
  0
LINE
  8
0
 62
     0
 10
107.792
 20
75.6476
 30
0.0
 11
107.865
 21
74.9984
 31
0.0
  0
LINE
  8
0
 62
     0
 10
107.865
 20
74.9984
 30
0.0
 11
107.53
 21
74.6111
 31
0.0
  0
LINE
  8
0
 62
     0
 10
107.53
 20
74.6111
 30
0.0
 11
106.726
 21
74.2417
 31
0.0
  0
LINE
  8
0
 62
     0
 10
106.726
 20
74.2417
 30
0.0
 11
105.712
 21
73.8586
 31
0.0
  0
LINE
  8
0
 62
     0
 10
105.712
 20
73.8586
 30
0.0
 11
105.107
 21
73.8396
 31
0.0
  0
LINE
  8
0
 62
     0
 10
105.107
 20
73.8396
 30
0.0
 11
104.705
 21
74.2735
 31
0.0
  0
LINE
  8
0
 62
     0
 10
104.705
 20
74.2735
 30
0.0
 11
104.294
 21
75.2422
 31
0.0
  0
LINE
  8
0
 62
     0
 10
106.298
 20
74.8372
 30
0.0
 11
106.867
 21
75.1417
 31
0.0
  0
LINE
  8
0
 62
     0
 10
106.867
 20
75.1417
 30
0.0
 11
107.158
 21
75.3085
 31
0.0
  0
LINE
  8
0
 62
     0
 10
107.158
 20
75.3085
 30
0.0
 11
107.105
 21
75.6916
 31
0.0
  0
LINE
  8
0
 62
     0
 10
107.105
 20
75.6916
 30
0.0
 11
106.855
 21
76.5073
 31
0.0
  0
LINE
  8
0
 62
     0
 10
106.855
 20
76.5073
 30
0.0
 11
106.626
 21
77.0654
 31
0.0
  0
LINE
  8
0
 62
     0
 10
106.626
 20
77.0654
 30
0.0
 11
106.391
 21
77.3755
 31
0.0
  0
LINE
  8
0
 62
     0
 10
106.391
 20
77.3755
 30
0.0
 11
106.102
 21
77.476
 31
0.0
  0
LINE
  8
0
 62
     0
 10
106.102
 20
77.476
 30
0.0
 11
105.707
 21
77.4072
 31
0.0
  0
LINE
  8
0
 62
     0
 10
105.707
 20
77.4072
 30
0.0
 11
105.006
 21
77.1384
 31
0.0
  0
LINE
  8
0
 62
     0
 10
105.006
 20
77.1384
 30
0.0
 11
104.654
 21
76.8022
 31
0.0
  0
LINE
  8
0
 62
     0
 10
104.654
 20
76.8022
 30
0.0
 11
104.601
 21
76.3076
 31
0.0
  0
LINE
  8
0
 62
     0
 10
104.601
 20
76.3076
 30
0.0
 11
104.805
 21
75.5608
 31
0.0
  0
LINE
  8
0
 62
     0
 10
104.805
 20
75.5608
 30
0.0
 11
105.077
 21
74.8358
 31
0.0
  0
LINE
  8
0
 62
     0
 10
105.077
 20
74.8358
 30
0.0
 11
105.322
 21
74.5172
 31
0.0
  0
LINE
  8
0
 62
     0
 10
105.322
 20
74.5172
 30
0.0
 11
105.683
 21
74.5409
 31
0.0
  0
LINE
  8
0
 62
     0
 10
105.683
 20
74.5409
 30
0.0
 11
106.298
 21
74.8372
 31
0.0
  0
LINE
  8
0
 62
     0
 10
9.87778
 20
75.4641
 30
0.0
 11
9.14605
 21
75.8885
 31
0.0
  0
LINE
  8
0
 62
     0
 10
9.14605
 20
75.8885
 30
0.0
 11
8.82357
 21
76.3475
 31
0.0
  0
LINE
  8
0
 62
     0
 10
8.82357
 20
76.3475
 30
0.0
 11
8.86492
 21
77.0117
 31
0.0
  0
LINE
  8
0
 62
     0
 10
8.86492
 20
77.0117
 30
0.0
 11
9.22736
 21
78.0521
 31
0.0
  0
LINE
  8
0
 62
     0
 10
9.22736
 20
78.0521
 30
0.0
 11
9.57185
 21
78.6529
 31
0.0
  0
LINE
  8
0
 62
     0
 10
9.57185
 20
78.6529
 30
0.0
 11
9.98527
 21
78.9725
 31
0.0
  0
LINE
  8
0
 62
     0
 10
9.98527
 20
78.9725
 30
0.0
 11
10.4028
 21
78.9876
 31
0.0
  0
LINE
  8
0
 62
     0
 10
10.4028
 20
78.9876
 30
0.0
 11
10.7597
 21
78.6694
 31
0.0
  0
LINE
  8
0
 62
     0
 10
10.7597
 20
78.6694
 30
0.0
 11
10.768
 21
78.4214
 31
0.0
  0
LINE
  8
0
 62
     0
 10
10.768
 20
78.4214
 30
0.0
 11
10.4841
 21
78.3167
 31
0.0
  0
LINE
  8
0
 62
     0
 10
10.4841
 20
78.3167
 30
0.0
 11
10.0721
 21
78.0426
 31
0.0
  0
LINE
  8
0
 62
     0
 10
10.0721
 20
78.0426
 30
0.0
 11
9.59527
 21
77.4266
 31
0.0
  0
LINE
  8
0
 62
     0
 10
9.59527
 20
77.4266
 30
0.0
 11
9.25354
 21
76.7775
 31
0.0
  0
LINE
  8
0
 62
     0
 10
9.25354
 20
76.7775
 30
0.0
 11
9.24662
 21
76.4025
 31
0.0
  0
LINE
  8
0
 62
     0
 10
9.24662
 20
76.4025
 30
0.0
 11
9.58977
 21
76.2441
 31
0.0
  0
LINE
  8
0
 62
     0
 10
9.58977
 20
76.2441
 30
0.0
 11
10.2747
 21
75.9464
 31
0.0
  0
LINE
  8
0
 62
     0
 10
10.2747
 20
75.9464
 30
0.0
 11
10.7818
 21
75.7618
 31
0.0
  0
LINE
  8
0
 62
     0
 10
10.7818
 20
75.7618
 30
0.0
 11
11.1153
 21
75.7604
 31
0.0
  0
LINE
  8
0
 62
     0
 10
11.1153
 20
75.7604
 30
0.0
 11
11.3619
 21
75.9781
 31
0.0
  0
LINE
  8
0
 62
     0
 10
11.3619
 20
75.9781
 30
0.0
 11
11.6086
 21
76.4438
 31
0.0
  0
LINE
  8
0
 62
     0
 10
11.6086
 20
76.4438
 30
0.0
 11
11.8387
 21
77.2502
 31
0.0
  0
LINE
  8
0
 62
     0
 10
11.8387
 20
77.2502
 30
0.0
 11
11.6086
 21
77.8274
 31
0.0
  0
LINE
  8
0
 62
     0
 10
11.6086
 20
77.8274
 30
0.0
 11
11.4005
 21
78.2161
 31
0.0
  0
LINE
  8
0
 62
     0
 10
11.4005
 20
78.2161
 30
0.0
 11
11.7547
 21
78.3167
 31
0.0
  0
LINE
  8
0
 62
     0
 10
11.7547
 20
78.3167
 30
0.0
 11
12.2687
 21
78.2066
 31
0.0
  0
LINE
  8
0
 62
     0
 10
12.2687
 20
78.2066
 30
0.0
 11
12.5154
 21
77.8662
 31
0.0
  0
LINE
  8
0
 62
     0
 10
12.5154
 20
77.8662
 30
0.0
 11
12.4974
 21
77.2806
 31
0.0
  0
LINE
  8
0
 62
     0
 10
12.4974
 20
77.2806
 30
0.0
 11
12.2177
 21
76.4357
 31
0.0
  0
LINE
  8
0
 62
     0
 10
12.2177
 20
76.4357
 30
0.0
 11
11.7753
 21
75.5124
 31
0.0
  0
LINE
  8
0
 62
     0
 10
11.7753
 20
75.5124
 30
0.0
 11
11.344
 21
75.0866
 31
0.0
  0
LINE
  8
0
 62
     0
 10
11.344
 20
75.0866
 30
0.0
 11
10.7638
 21
75.0919
 31
0.0
  0
LINE
  8
0
 62
     0
 10
10.7638
 20
75.0919
 30
0.0
 11
9.87778
 21
75.4641
 31
0.0
  0
LINE
  8
0
 62
     0
 10
105.321
 20
80.4002
 30
0.0
 11
104.813
 21
81.1692
 31
0.0
  0
LINE
  8
0
 62
     0
 10
104.813
 20
81.1692
 30
0.0
 11
104.392
 21
81.4723
 31
0.0
  0
LINE
  8
0
 62
     0
 10
104.392
 20
81.4723
 30
0.0
 11
104.158
 21
81.2934
 31
0.0
  0
LINE
  8
0
 62
     0
 10
104.158
 20
81.2934
 30
0.0
 11
104.214
 21
80.6097
 31
0.0
  0
LINE
  8
0
 62
     0
 10
104.214
 20
80.6097
 30
0.0
 11
104.265
 21
80.0283
 31
0.0
  0
LINE
  8
0
 62
     0
 10
104.265
 20
80.0283
 30
0.0
 11
104.116
 21
79.7486
 31
0.0
  0
LINE
  8
0
 62
     0
 10
104.116
 20
79.7486
 30
0.0
 11
103.858
 21
79.8188
 31
0.0
  0
LINE
  8
0
 62
     0
 10
103.858
 20
79.8188
 30
0.0
 11
103.58
 21
80.2816
 31
0.0
  0
LINE
  8
0
 62
     0
 10
103.58
 20
80.2816
 30
0.0
 11
103.243
 21
80.6401
 31
0.0
  0
LINE
  8
0
 62
     0
 10
103.243
 20
80.6401
 30
0.0
 11
102.66
 21
80.6097
 31
0.0
  0
LINE
  8
0
 62
     0
 10
102.66
 20
80.6097
 30
0.0
 11
102.033
 21
80.5311
 31
0.0
  0
LINE
  8
0
 62
     0
 10
102.033
 20
80.5311
 30
0.0
 11
101.991
 21
80.7985
 31
0.0
  0
LINE
  8
0
 62
     0
 10
101.991
 20
80.7985
 30
0.0
 11
102.457
 21
81.2807
 31
0.0
  0
LINE
  8
0
 62
     0
 10
102.457
 20
81.2807
 30
0.0
 11
103.356
 21
81.8402
 31
0.0
  0
LINE
  8
0
 62
     0
 10
103.356
 20
81.8402
 30
0.0
 11
104.758
 21
82.5556
 31
0.0
  0
LINE
  8
0
 62
     0
 10
104.758
 20
82.5556
 30
0.0
 11
105.497
 21
81.1071
 31
0.0
  0
LINE
  8
0
 62
     0
 10
105.497
 20
81.1071
 30
0.0
 11
105.768
 21
80.5311
 31
0.0
  0
LINE
  8
0
 62
     0
 10
105.768
 20
80.5311
 30
0.0
 11
105.967
 21
80.0336
 31
0.0
  0
LINE
  8
0
 62
     0
 10
105.967
 20
80.0336
 30
0.0
 11
106.069
 21
79.6671
 31
0.0
  0
LINE
  8
0
 62
     0
 10
106.069
 20
79.6671
 30
0.0
 11
106.061
 21
79.484
 31
0.0
  0
LINE
  8
0
 62
     0
 10
106.061
 20
79.484
 30
0.0
 11
105.771
 21
79.6823
 31
0.0
  0
LINE
  8
0
 62
     0
 10
105.771
 20
79.6823
 30
0.0
 11
105.321
 21
80.4002
 31
0.0
  0
LINE
  8
0
 62
     0
 10
12.9646
 20
82.0678
 30
0.0
 11
12.0854
 21
82.6643
 31
0.0
  0
LINE
  8
0
 62
     0
 10
12.0854
 20
82.6643
 30
0.0
 11
11.7119
 21
83.0241
 31
0.0
  0
LINE
  8
0
 62
     0
 10
11.7119
 20
83.0241
 30
0.0
 11
11.8249
 21
83.1783
 31
0.0
  0
LINE
  8
0
 62
     0
 10
11.8249
 20
83.1783
 30
0.0
 11
12.4106
 21
83.1631
 31
0.0
  0
LINE
  8
0
 62
     0
 10
12.4106
 20
83.1631
 30
0.0
 11
12.7992
 21
83.2044
 31
0.0
  0
LINE
  8
0
 62
     0
 10
12.7992
 20
83.2044
 30
0.0
 11
13.1727
 21
83.3893
 31
0.0
  0
LINE
  8
0
 62
     0
 10
13.1727
 20
83.3893
 30
0.0
 11
13.5075
 21
83.6771
 31
0.0
  0
LINE
  8
0
 62
     0
 10
13.5075
 20
83.6771
 30
0.0
 11
13.779
 21
84.0327
 31
0.0
  0
LINE
  8
0
 62
     0
 10
13.779
 20
84.0327
 30
0.0
 11
13.9637
 21
84.4173
 31
0.0
  0
LINE
  8
0
 62
     0
 10
13.9637
 20
84.4173
 30
0.0
 11
14.0395
 21
84.7919
 31
0.0
  0
LINE
  8
0
 62
     0
 10
14.0395
 20
84.7919
 30
0.0
 11
13.9816
 21
85.12
 31
0.0
  0
LINE
  8
0
 62
     0
 10
13.9816
 20
85.12
 30
0.0
 11
13.768
 21
85.3627
 31
0.0
  0
LINE
  8
0
 62
     0
 10
13.768
 20
85.3627
 30
0.0
 11
13.4703
 21
85.6615
 31
0.0
  0
LINE
  8
0
 62
     0
 10
13.4703
 20
85.6615
 30
0.0
 11
13.4855
 21
85.9222
 31
0.0
  0
LINE
  8
0
 62
     0
 10
13.4855
 20
85.9222
 30
0.0
 11
13.6867
 21
85.955
 31
0.0
  0
LINE
  8
0
 62
     0
 10
13.6867
 20
85.955
 30
0.0
 11
14.0353
 21
85.8531
 31
0.0
  0
LINE
  8
0
 62
     0
 10
14.0353
 20
85.8531
 30
0.0
 11
14.4804
 21
85.652
 31
0.0
  0
LINE
  8
0
 62
     0
 10
14.4804
 20
85.652
 30
0.0
 11
14.9655
 21
85.3817
 31
0.0
  0
LINE
  8
0
 62
     0
 10
14.9655
 20
85.3817
 30
0.0
 11
15.4354
 21
85.0759
 31
0.0
  0
LINE
  8
0
 62
     0
 10
15.4354
 20
85.0759
 30
0.0
 11
15.8392
 21
84.7686
 31
0.0
  0
LINE
  8
0
 62
     0
 10
15.8392
 20
84.7686
 30
0.0
 11
16.1217
 21
84.4903
 31
0.0
  0
LINE
  8
0
 62
     0
 10
16.1217
 20
84.4903
 30
0.0
 11
16.2278
 21
84.2726
 31
0.0
  0
LINE
  8
0
 62
     0
 10
16.2278
 20
84.2726
 30
0.0
 11
16.0404
 21
84.1294
 31
0.0
  0
LINE
  8
0
 62
     0
 10
16.0404
 20
84.1294
 30
0.0
 11
15.5429
 21
84.303
 31
0.0
  0
LINE
  8
0
 62
     0
 10
15.5429
 20
84.303
 30
0.0
 11
14.8842
 21
84.4434
 31
0.0
  0
LINE
  8
0
 62
     0
 10
14.8842
 20
84.4434
 30
0.0
 11
14.3082
 21
83.8839
 31
0.0
  0
LINE
  8
0
 62
     0
 10
14.3082
 20
83.8839
 30
0.0
 11
13.914
 21
83.2086
 31
0.0
  0
LINE
  8
0
 62
     0
 10
13.914
 20
83.2086
 30
0.0
 11
13.7859
 21
82.6728
 31
0.0
  0
LINE
  8
0
 62
     0
 10
13.7859
 20
82.6728
 30
0.0
 11
13.9251
 21
82.2484
 31
0.0
  0
LINE
  8
0
 62
     0
 10
13.9251
 20
82.2484
 30
0.0
 11
14.333
 21
81.9108
 31
0.0
  0
LINE
  8
0
 62
     0
 10
14.333
 20
81.9108
 30
0.0
 11
14.6472
 21
81.631
 31
0.0
  0
LINE
  8
0
 62
     0
 10
14.6472
 20
81.631
 30
0.0
 11
14.5976
 21
81.4063
 31
0.0
  0
LINE
  8
0
 62
     0
 10
14.5976
 20
81.4063
 30
0.0
 11
14.3716
 21
81.4021
 31
0.0
  0
LINE
  8
0
 62
     0
 10
14.3716
 20
81.4021
 30
0.0
 11
13.9899
 21
81.5248
 31
0.0
  0
LINE
  8
0
 62
     0
 10
13.9899
 20
81.5248
 30
0.0
 11
13.502
 21
81.7548
 31
0.0
  0
LINE
  8
0
 62
     0
 10
13.502
 20
81.7548
 30
0.0
 11
12.9646
 21
82.0678
 31
0.0
  0
LINE
  8
0
 62
     0
 10
101.104
 20
84.3139
 30
0.0
 11
101.218
 21
85.4357
 31
0.0
  0
LINE
  8
0
 62
     0
 10
101.218
 20
85.4357
 30
0.0
 11
101.126
 21
85.9511
 31
0.0
  0
LINE
  8
0
 62
     0
 10
101.126
 20
85.9511
 30
0.0
 11
100.747
 21
85.9469
 31
0.0
  0
LINE
  8
0
 62
     0
 10
100.747
 20
85.9469
 30
0.0
 11
100
 21
85.5087
 31
0.0
  0
LINE
  8
0
 62
     0
 10
100
 20
85.5087
 30
0.0
 11
99.3856
 21
85.2138
 31
0.0
  0
LINE
  8
0
 62
     0
 10
99.3856
 20
85.2138
 30
0.0
 11
99.1306
 21
85.3034
 31
0.0
  0
LINE
  8
0
 62
     0
 10
99.1306
 20
85.3034
 30
0.0
 11
99.4696
 21
85.7416
 31
0.0
  0
LINE
  8
0
 62
     0
 10
99.4696
 20
85.7416
 30
0.0
 11
100.258
 21
86.3547
 31
0.0
  0
LINE
  8
0
 62
     0
 10
100.258
 20
86.3547
 30
0.0
 11
101.142
 21
86.9005
 31
0.0
  0
LINE
  8
0
 62
     0
 10
101.142
 20
86.9005
 30
0.0
 11
101.775
 21
87.1361
 31
0.0
  0
LINE
  8
0
 62
     0
 10
101.775
 20
87.1361
 30
0.0
 11
101.895
 21
86.6179
 31
0.0
  0
LINE
  8
0
 62
     0
 10
101.895
 20
86.6179
 30
0.0
 11
101.81
 21
85.3722
 31
0.0
  0
LINE
  8
0
 62
     0
 10
101.81
 20
85.3722
 30
0.0
 11
101.703
 21
84.1266
 31
0.0
  0
LINE
  8
0
 62
     0
 10
101.703
 20
84.1266
 30
0.0
 11
101.776
 21
83.6083
 31
0.0
  0
LINE
  8
0
 62
     0
 10
101.776
 20
83.6083
 30
0.0
 11
102.173
 21
83.7766
 31
0.0
  0
LINE
  8
0
 62
     0
 10
102.173
 20
83.7766
 30
0.0
 11
102.847
 21
84.1774
 31
0.0
  0
LINE
  8
0
 62
     0
 10
102.847
 20
84.1774
 30
0.0
 11
103.46
 21
84.4737
 31
0.0
  0
LINE
  8
0
 62
     0
 10
103.46
 20
84.4737
 30
0.0
 11
103.717
 21
84.3827
 31
0.0
  0
LINE
  8
0
 62
     0
 10
103.717
 20
84.3827
 30
0.0
 11
103.378
 21
83.9502
 31
0.0
  0
LINE
  8
0
 62
     0
 10
103.378
 20
83.9502
 30
0.0
 11
102.596
 21
83.3367
 31
0.0
  0
LINE
  8
0
 62
     0
 10
102.596
 20
83.3367
 30
0.0
 11
101.721
 21
82.7885
 31
0.0
  0
LINE
  8
0
 62
     0
 10
101.721
 20
82.7885
 30
0.0
 11
101.105
 21
82.55
 31
0.0
  0
LINE
  8
0
 62
     0
 10
101.105
 20
82.55
 30
0.0
 11
101.007
 21
83.0682
 31
0.0
  0
LINE
  8
0
 62
     0
 10
101.007
 20
83.0682
 30
0.0
 11
101.104
 21
84.3139
 31
0.0
  0
LINE
  8
0
 62
     0
 10
15.8695
 20
87.0479
 30
0.0
 11
14.796
 21
88.0181
 31
0.0
  0
LINE
  8
0
 62
     0
 10
14.796
 20
88.0181
 30
0.0
 11
15.7441
 21
89.341
 31
0.0
  0
LINE
  8
0
 62
     0
 10
15.7441
 20
89.341
 30
0.0
 11
16.1451
 21
89.855
 31
0.0
  0
LINE
  8
0
 62
     0
 10
16.1451
 20
89.855
 30
0.0
 11
16.5392
 21
90.2751
 31
0.0
  0
LINE
  8
0
 62
     0
 10
16.5392
 20
90.2751
 30
0.0
 11
16.8782
 21
90.5605
 31
0.0
  0
LINE
  8
0
 62
     0
 10
16.8782
 20
90.5605
 30
0.0
 11
17.118
 21
90.6639
 31
0.0
  0
LINE
  8
0
 62
     0
 10
17.118
 20
90.6639
 30
0.0
 11
17.7119
 21
90.4434
 31
0.0
  0
LINE
  8
0
 62
     0
 10
17.7119
 20
90.4434
 30
0.0
 11
18.4712
 21
89.9252
 31
0.0
  0
LINE
  8
0
 62
     0
 10
18.4712
 20
89.9252
 30
0.0
 11
19.1244
 21
89.323
 31
0.0
  0
LINE
  8
0
 62
     0
 10
19.1244
 20
89.323
 30
0.0
 11
19.4028
 21
88.8503
 31
0.0
  0
LINE
  8
0
 62
     0
 10
19.4028
 20
88.8503
 30
0.0
 11
19.3256
 21
88.5927
 31
0.0
  0
LINE
  8
0
 62
     0
 10
19.3256
 20
88.5927
 30
0.0
 11
19.1189
 21
88.2138
 31
0.0
  0
LINE
  8
0
 62
     0
 10
19.1189
 20
88.2138
 30
0.0
 11
18.8199
 21
87.7616
 31
0.0
  0
LINE
  8
0
 62
     0
 10
18.8199
 20
87.7616
 30
0.0
 11
18.4671
 21
87.2836
 31
0.0
  0
LINE
  8
0
 62
     0
 10
18.4671
 20
87.2836
 30
0.0
 11
18.095
 21
86.8288
 31
0.0
  0
LINE
  8
0
 62
     0
 10
18.095
 20
86.8288
 30
0.0
 11
17.7436
 21
86.4443
 31
0.0
  0
LINE
  8
0
 62
     0
 10
17.7436
 20
86.4443
 30
0.0
 11
17.4501
 21
86.1783
 31
0.0
  0
LINE
  8
0
 62
     0
 10
17.4501
 20
86.1783
 30
0.0
 11
17.2503
 21
86.0778
 31
0.0
  0
LINE
  8
0
 62
     0
 10
17.2503
 20
86.0778
 30
0.0
 11
16.7184
 21
86.3632
 31
0.0
  0
LINE
  8
0
 62
     0
 10
16.7184
 20
86.3632
 30
0.0
 11
15.8695
 21
87.0479
 31
0.0
  0
LINE
  8
0
 62
     0
 10
18.1281
 20
87.6529
 30
0.0
 11
18.5374
 21
88.3476
 31
0.0
  0
LINE
  8
0
 62
     0
 10
18.5374
 20
88.3476
 30
0.0
 11
18.6517
 21
88.816
 31
0.0
  0
LINE
  8
0
 62
     0
 10
18.6517
 20
88.816
 30
0.0
 11
18.4574
 21
89.1783
 31
0.0
  0
LINE
  8
0
 62
     0
 10
18.4574
 20
89.1783
 30
0.0
 11
17.9448
 21
89.5533
 31
0.0
  0
LINE
  8
0
 62
     0
 10
17.9448
 20
89.5533
 30
0.0
 11
17.5149
 21
89.7749
 31
0.0
  0
LINE
  8
0
 62
     0
 10
17.5149
 20
89.7749
 30
0.0
 11
17.1621
 21
89.7915
 31
0.0
  0
LINE
  8
0
 62
     0
 10
17.1621
 20
89.7915
 30
0.0
 11
16.7817
 21
89.5752
 31
0.0
  0
LINE
  8
0
 62
     0
 10
16.7817
 20
89.5752
 30
0.0
 11
16.2691
 21
89.0944
 31
0.0
  0
LINE
  8
0
 62
     0
 10
16.2691
 20
89.0944
 30
0.0
 11
15.3458
 21
88.1641
 31
0.0
  0
LINE
  8
0
 62
     0
 10
15.3458
 20
88.1641
 30
0.0
 11
16.2278
 21
87.4818
 31
0.0
  0
LINE
  8
0
 62
     0
 10
16.2278
 20
87.4818
 30
0.0
 11
16.9058
 21
86.9943
 31
0.0
  0
LINE
  8
0
 62
     0
 10
16.9058
 20
86.9943
 30
0.0
 11
17.3454
 21
86.8497
 31
0.0
  0
LINE
  8
0
 62
     0
 10
17.3454
 20
86.8497
 30
0.0
 11
17.7023
 21
87.0659
 31
0.0
  0
LINE
  8
0
 62
     0
 10
17.7023
 20
87.0659
 30
0.0
 11
18.1281
 21
87.6529
 31
0.0
  0
LINE
  8
0
 62
     0
 10
97.2591
 20
87.7838
 30
0.0
 11
96.2699
 21
89.0626
 31
0.0
  0
LINE
  8
0
 62
     0
 10
96.2699
 20
89.0626
 30
0.0
 11
97.4355
 21
90.0299
 31
0.0
  0
LINE
  8
0
 62
     0
 10
97.4355
 20
90.0299
 30
0.0
 11
98.3312
 21
90.7161
 31
0.0
  0
LINE
  8
0
 62
     0
 10
98.3312
 20
90.7161
 30
0.0
 11
98.848
 21
91.0071
 31
0.0
  0
LINE
  8
0
 62
     0
 10
98.848
 20
91.0071
 30
0.0
 11
99.0452
 21
90.9066
 31
0.0
  0
LINE
  8
0
 62
     0
 10
99.0452
 20
90.9066
 30
0.0
 11
99.3387
 21
90.6279
 31
0.0
  0
LINE
  8
0
 62
     0
 10
99.3387
 20
90.6279
 30
0.0
 11
99.6844
 21
90.2271
 31
0.0
  0
LINE
  8
0
 62
     0
 10
99.6844
 20
90.2271
 30
0.0
 11
100.046
 21
89.7611
 31
0.0
  0
LINE
  8
0
 62
     0
 10
100.046
 20
89.7611
 30
0.0
 11
100.378
 21
89.2845
 31
0.0
  0
LINE
  8
0
 62
     0
 10
100.378
 20
89.2845
 30
0.0
 11
100.642
 21
88.8517
 31
0.0
  0
LINE
  8
0
 62
     0
 10
100.642
 20
88.8517
 30
0.0
 11
100.798
 21
88.5183
 31
0.0
  0
LINE
  8
0
 62
     0
 10
100.798
 20
88.5183
 30
0.0
 11
100.806
 21
88.3405
 31
0.0
  0
LINE
  8
0
 62
     0
 10
100.806
 20
88.3405
 30
0.0
 11
100.446
 21
88.5278
 31
0.0
  0
LINE
  8
0
 62
     0
 10
100.446
 20
88.5278
 30
0.0
 11
99.847
 21
89.2362
 31
0.0
  0
LINE
  8
0
 62
     0
 10
99.847
 20
89.2362
 30
0.0
 11
99.2477
 21
89.8867
 31
0.0
  0
LINE
  8
0
 62
     0
 10
99.2477
 20
89.8867
 30
0.0
 11
98.7735
 21
90.1072
 31
0.0
  0
LINE
  8
0
 62
     0
 10
98.7735
 20
90.1072
 30
0.0
 11
98.5696
 21
89.8977
 31
0.0
  0
LINE
  8
0
 62
     0
 10
98.5696
 20
89.8977
 30
0.0
 11
98.7764
 21
89.2542
 31
0.0
  0
LINE
  8
0
 62
     0
 10
98.7764
 20
89.2542
 30
0.0
 11
99.0671
 21
88.6121
 31
0.0
  0
LINE
  8
0
 62
     0
 10
99.0671
 20
88.6121
 30
0.0
 11
99.0907
 21
88.313
 31
0.0
  0
LINE
  8
0
 62
     0
 10
99.0907
 20
88.313
 30
0.0
 11
98.866
 21
88.3846
 31
0.0
  0
LINE
  8
0
 62
     0
 10
98.866
 20
88.3846
 30
0.0
 11
98.4155
 21
88.8478
 31
0.0
  0
LINE
  8
0
 62
     0
 10
98.4155
 20
88.8478
 30
0.0
 11
98.0475
 21
89.2598
 31
0.0
  0
LINE
  8
0
 62
     0
 10
98.0475
 20
89.2598
 30
0.0
 11
97.8062
 21
89.4306
 31
0.0
  0
LINE
  8
0
 62
     0
 10
97.8062
 20
89.4306
 30
0.0
 11
97.6422
 21
89.3713
 31
0.0
  0
LINE
  8
0
 62
     0
 10
97.6422
 20
89.3713
 30
0.0
 11
97.5032
 21
89.0986
 31
0.0
  0
LINE
  8
0
 62
     0
 10
97.5032
 20
89.0986
 30
0.0
 11
97.5198
 21
88.495
 31
0.0
  0
LINE
  8
0
 62
     0
 10
97.5198
 20
88.495
 30
0.0
 11
97.8888
 21
87.8487
 31
0.0
  0
LINE
  8
0
 62
     0
 10
97.8888
 20
87.8487
 30
0.0
 11
98.2818
 21
87.2765
 31
0.0
  0
LINE
  8
0
 62
     0
 10
98.2818
 20
87.2765
 30
0.0
 11
98.3728
 21
86.8412
 31
0.0
  0
LINE
  8
0
 62
     0
 10
98.3728
 20
86.8412
 30
0.0
 11
98.2458
 21
86.8123
 31
0.0
  0
LINE
  8
0
 62
     0
 10
98.2458
 20
86.8123
 30
0.0
 11
97.9936
 21
86.9805
 31
0.0
  0
LINE
  8
0
 62
     0
 10
97.9936
 20
86.9805
 30
0.0
 11
97.6535
 21
87.3153
 31
0.0
  0
LINE
  8
0
 62
     0
 10
97.6535
 20
87.3153
 30
0.0
 11
97.2591
 21
87.7838
 31
0.0
  0
LINE
  8
0
 62
     0
 10
19.4855
 20
91.3088
 30
0.0
 11
18.6752
 21
92.0531
 31
0.0
  0
LINE
  8
0
 62
     0
 10
18.6752
 20
92.0531
 30
0.0
 11
18.3417
 21
92.516
 31
0.0
  0
LINE
  8
0
 62
     0
 10
18.3417
 20
92.516
 30
0.0
 11
18.7592
 21
92.7033
 31
0.0
  0
LINE
  8
0
 62
     0
 10
18.7592
 20
92.7033
 30
0.0
 11
19.7597
 21
92.7806
 31
0.0
  0
LINE
  8
0
 62
     0
 10
19.7597
 20
92.7806
 30
0.0
 11
21.1749
 21
92.7806
 31
0.0
  0
LINE
  8
0
 62
     0
 10
21.1749
 20
92.7806
 30
0.0
 11
20.9379
 21
94.2661
 31
0.0
  0
LINE
  8
0
 62
     0
 10
20.9379
 20
94.2661
 30
0.0
 11
20.6995
 21
95.7531
 31
0.0
  0
LINE
  8
0
 62
     0
 10
20.6995
 20
95.7531
 30
0.0
 11
22.1699
 21
94.5885
 31
0.0
  0
LINE
  8
0
 62
     0
 10
22.1699
 20
94.5885
 30
0.0
 11
22.7225
 21
94.1091
 31
0.0
  0
LINE
  8
0
 62
     0
 10
22.7225
 20
94.1091
 30
0.0
 11
23.1442
 21
93.6639
 31
0.0
  0
LINE
  8
0
 62
     0
 10
23.1442
 20
93.6639
 30
0.0
 11
23.3908
 21
93.3027
 31
0.0
  0
LINE
  8
0
 62
     0
 10
23.3908
 20
93.3027
 30
0.0
 11
23.4239
 21
93.0755
 31
0.0
  0
LINE
  8
0
 62
     0
 10
23.4239
 20
93.0755
 30
0.0
 11
23.0132
 21
93.0617
 31
0.0
  0
LINE
  8
0
 62
     0
 10
23.0132
 20
93.0617
 30
0.0
 11
22.3132
 21
93.5482
 31
0.0
  0
LINE
  8
0
 62
     0
 10
22.3132
 20
93.5482
 30
0.0
 11
21.4175
 21
94.3681
 31
0.0
  0
LINE
  8
0
 62
     0
 10
21.4175
 20
94.3681
 30
0.0
 11
21.6435
 21
93.1831
 31
0.0
  0
LINE
  8
0
 62
     0
 10
21.6435
 20
93.1831
 30
0.0
 11
21.7537
 21
92.5036
 31
0.0
  0
LINE
  8
0
 62
     0
 10
21.7537
 20
92.5036
 30
0.0
 11
21.6848
 21
92.1674
 31
0.0
  0
LINE
  8
0
 62
     0
 10
21.6848
 20
92.1674
 30
0.0
 11
21.3444
 21
92.0792
 31
0.0
  0
LINE
  8
0
 62
     0
 10
21.3444
 20
92.0792
 30
0.0
 11
20.6416
 21
92.1413
 31
0.0
  0
LINE
  8
0
 62
     0
 10
20.6416
 20
92.1413
 30
0.0
 11
19.4138
 21
92.2845
 31
0.0
  0
LINE
  8
0
 62
     0
 10
19.4138
 20
92.2845
 30
0.0
 11
20.1745
 21
91.4756
 31
0.0
  0
LINE
  8
0
 62
     0
 10
20.1745
 20
91.4756
 30
0.0
 11
20.7174
 21
90.8032
 31
0.0
  0
LINE
  8
0
 62
     0
 10
20.7174
 20
90.8032
 30
0.0
 11
20.745
 21
90.5411
 31
0.0
  0
LINE
  8
0
 62
     0
 10
20.745
 20
90.5411
 30
0.0
 11
20.3137
 21
90.7052
 31
0.0
  0
LINE
  8
0
 62
     0
 10
20.3137
 20
90.7052
 30
0.0
 11
19.4855
 21
91.3088
 31
0.0
  0
LINE
  8
0
 62
     0
 10
93.3609
 20
93.1457
 30
0.0
 11
93.1997
 21
94.2125
 31
0.0
  0
LINE
  8
0
 62
     0
 10
93.1997
 20
94.2125
 30
0.0
 11
93.1333
 21
95.1798
 31
0.0
  0
LINE
  8
0
 62
     0
 10
93.1333
 20
95.1798
 30
0.0
 11
93.1333
 21
96.0783
 31
0.0
  0
LINE
  8
0
 62
     0
 10
93.1333
 20
96.0783
 30
0.0
 11
92.2528
 21
95.2514
 31
0.0
  0
LINE
  8
0
 62
     0
 10
92.2528
 20
95.2514
 30
0.0
 11
91.5293
 21
94.6587
 31
0.0
  0
LINE
  8
0
 62
     0
 10
91.5293
 20
94.6587
 30
0.0
 11
91.2551
 21
94.6132
 31
0.0
  0
LINE
  8
0
 62
     0
 10
91.2551
 20
94.6132
 30
0.0
 11
91.4411
 21
95.057
 31
0.0
  0
LINE
  8
0
 62
     0
 10
91.4411
 20
95.057
 30
0.0
 11
92.1025
 21
95.9337
 31
0.0
  0
LINE
  8
0
 62
     0
 10
92.1025
 20
95.9337
 30
0.0
 11
92.5132
 21
96.387
 31
0.0
  0
LINE
  8
0
 62
     0
 10
92.5132
 20
96.387
 30
0.0
 11
92.8853
 21
96.7246
 31
0.0
  0
LINE
  8
0
 62
     0
 10
92.8853
 20
96.7246
 30
0.0
 11
93.176
 21
96.9133
 31
0.0
  0
LINE
  8
0
 62
     0
 10
93.176
 20
96.9133
 30
0.0
 11
93.3443
 21
96.9215
 31
0.0
  0
LINE
  8
0
 62
     0
 10
93.3443
 20
96.9215
 30
0.0
 11
93.5563
 21
96.2865
 31
0.0
  0
LINE
  8
0
 62
     0
 10
93.5563
 20
96.2865
 30
0.0
 11
93.7521
 21
95.075
 31
0.0
  0
LINE
  8
0
 62
     0
 10
93.7521
 20
95.075
 30
0.0
 11
93.9341
 21
93.453
 31
0.0
  0
LINE
  8
0
 62
     0
 10
93.9341
 20
93.453
 30
0.0
 11
94.7678
 21
94.2358
 31
0.0
  0
LINE
  8
0
 62
     0
 10
94.7678
 20
94.2358
 30
0.0
 11
95.5463
 21
94.8171
 31
0.0
  0
LINE
  8
0
 62
     0
 10
95.5463
 20
94.8171
 30
0.0
 11
95.8261
 21
94.7431
 31
0.0
  0
LINE
  8
0
 62
     0
 10
95.8261
 20
94.7431
 30
0.0
 11
95.5957
 21
94.1723
 31
0.0
  0
LINE
  8
0
 62
     0
 10
95.5957
 20
94.1723
 30
0.0
 11
94.8422
 21
93.2656
 31
0.0
  0
LINE
  8
0
 62
     0
 10
94.8422
 20
93.2656
 30
0.0
 11
93.5867
 21
92.0115
 31
0.0
  0
LINE
  8
0
 62
     0
 10
93.5867
 20
92.0115
 30
0.0
 11
93.3609
 21
93.1457
 31
0.0
  0
LINE
  8
0
 62
     0
 10
23.6389
 20
95.4236
 30
0.0
 11
22.4427
 21
96.6583
 31
0.0
  0
LINE
  8
0
 62
     0
 10
22.4427
 20
96.6583
 30
0.0
 11
23.4583
 21
97.718
 31
0.0
  0
LINE
  8
0
 62
     0
 10
23.4583
 20
97.718
 30
0.0
 11
24.3362
 21
98.4649
 31
0.0
  0
LINE
  8
0
 62
     0
 10
24.3362
 20
98.4649
 30
0.0
 11
25.0252
 21
98.7683
 31
0.0
  0
LINE
  8
0
 62
     0
 10
25.0252
 20
98.7683
 30
0.0
 11
25.1795
 21
98.6991
 31
0.0
  0
LINE
  8
0
 62
     0
 10
25.1795
 20
98.6991
 30
0.0
 11
25.1202
 21
98.5037
 31
0.0
  0
LINE
  8
0
 62
     0
 10
25.1202
 20
98.5037
 30
0.0
 11
24.8502
 21
98.1893
 31
0.0
  0
LINE
  8
0
 62
     0
 10
24.8502
 20
98.1893
 30
0.0
 11
24.3761
 21
97.7635
 31
0.0
  0
LINE
  8
0
 62
     0
 10
24.3761
 20
97.7635
 30
0.0
 11
23.7409
 21
97.1007
 31
0.0
  0
LINE
  8
0
 62
     0
 10
23.7409
 20
97.1007
 30
0.0
 11
23.5245
 21
96.6061
 31
0.0
  0
LINE
  8
0
 62
     0
 10
23.5245
 20
96.6061
 30
0.0
 11
23.7298
 21
96.4187
 31
0.0
  0
LINE
  8
0
 62
     0
 10
23.7298
 20
96.4187
 30
0.0
 11
24.3582
 21
96.6791
 31
0.0
  0
LINE
  8
0
 62
     0
 10
24.3582
 20
96.6791
 30
0.0
 11
24.9011
 21
96.9603
 31
0.0
  0
LINE
  8
0
 62
     0
 10
24.9011
 20
96.9603
 30
0.0
 11
25.1961
 21
96.9821
 31
0.0
  0
LINE
  8
0
 62
     0
 10
25.1961
 20
96.9821
 30
0.0
 11
25.2084
 21
96.7701
 31
0.0
  0
LINE
  8
0
 62
     0
 10
25.2084
 20
96.7701
 30
0.0
 11
24.9025
 21
96.3429
 31
0.0
  0
LINE
  8
0
 62
     0
 10
24.9025
 20
96.3429
 30
0.0
 11
24.5318
 21
95.7213
 31
0.0
  0
LINE
  8
0
 62
     0
 10
24.5318
 20
95.7213
 30
0.0
 11
24.6931
 21
95.4155
 31
0.0
  0
LINE
  8
0
 62
     0
 10
24.6931
 20
95.4155
 30
0.0
 11
25.2209
 21
95.4814
 31
0.0
  0
LINE
  8
0
 62
     0
 10
25.2209
 20
95.4814
 30
0.0
 11
25.954
 21
95.9788
 31
0.0
  0
LINE
  8
0
 62
     0
 10
25.954
 20
95.9788
 30
0.0
 11
26.6072
 21
96.4957
 31
0.0
  0
LINE
  8
0
 62
     0
 10
26.6072
 20
96.4957
 30
0.0
 11
26.9806
 21
96.6089
 31
0.0
  0
LINE
  8
0
 62
     0
 10
26.9806
 20
96.6089
 30
0.0
 11
26.9558
 21
96.4544
 31
0.0
  0
LINE
  8
0
 62
     0
 10
26.9558
 20
96.4544
 30
0.0
 11
26.7615
 21
96.1581
 31
0.0
  0
LINE
  8
0
 62
     0
 10
26.7615
 20
96.1581
 30
0.0
 11
26.4294
 21
95.764
 31
0.0
  0
LINE
  8
0
 62
     0
 10
26.4294
 20
95.764
 30
0.0
 11
25.9939
 21
95.3135
 31
0.0
  0
LINE
  8
0
 62
     0
 10
25.9939
 20
95.3135
 30
0.0
 11
24.835
 21
94.1888
 31
0.0
  0
LINE
  8
0
 62
     0
 10
24.835
 20
94.1888
 30
0.0
 11
23.6389
 21
95.4236
 31
0.0
  0
LINE
  8
0
 62
     0
 10
88.2869
 20
96.7493
 30
0.0
 11
87.4021
 21
97.4478
 31
0.0
  0
LINE
  8
0
 62
     0
 10
87.4021
 20
97.4478
 30
0.0
 11
87.0465
 21
98.0295
 31
0.0
  0
LINE
  8
0
 62
     0
 10
87.0465
 20
98.0295
 30
0.0
 11
87.1926
 21
98.6607
 31
0.0
  0
LINE
  8
0
 62
     0
 10
87.1926
 20
98.6607
 30
0.0
 11
87.8113
 21
99.5066
 31
0.0
  0
LINE
  8
0
 62
     0
 10
87.8113
 20
99.5066
 30
0.0
 11
88.7843
 21
100.673
 31
0.0
  0
LINE
  8
0
 62
     0
 10
88.7843
 20
100.673
 30
0.0
 11
89.844
 21
99.9173
 31
0.0
  0
LINE
  8
0
 62
     0
 10
89.844
 20
99.9173
 30
0.0
 11
90.9077
 21
99.0988
 31
0.0
  0
LINE
  8
0
 62
     0
 10
90.9077
 20
99.0988
 30
0.0
 11
91.3941
 21
98.4786
 31
0.0
  0
LINE
  8
0
 62
     0
 10
91.3941
 20
98.4786
 30
0.0
 11
91.3723
 21
97.8711
 31
0.0
  0
LINE
  8
0
 62
     0
 10
91.3723
 20
97.8711
 30
0.0
 11
90.9161
 21
97.0869
 31
0.0
  0
LINE
  8
0
 62
     0
 10
90.9161
 20
97.0869
 30
0.0
 11
90.3168
 21
96.3263
 31
0.0
  0
LINE
  8
0
 62
     0
 10
90.3168
 20
96.3263
 30
0.0
 11
89.8013
 21
96.0314
 31
0.0
  0
LINE
  8
0
 62
     0
 10
89.8013
 20
96.0314
 30
0.0
 11
89.1854
 21
96.1803
 31
0.0
  0
LINE
  8
0
 62
     0
 10
89.1854
 20
96.1803
 30
0.0
 11
88.2869
 21
96.7493
 31
0.0
  0
LINE
  8
0
 62
     0
 10
90.442
 20
97.5222
 30
0.0
 11
90.7369
 21
98.0239
 31
0.0
  0
LINE
  8
0
 62
     0
 10
90.7369
 20
98.0239
 30
0.0
 11
90.7796
 21
98.37
 31
0.0
  0
LINE
  8
0
 62
     0
 10
90.7796
 20
98.37
 30
0.0
 11
90.5302
 21
98.6977
 31
0.0
  0
LINE
  8
0
 62
     0
 10
90.5302
 20
98.6977
 30
0.0
 11
89.946
 21
99.1401
 31
0.0
  0
LINE
  8
0
 62
     0
 10
89.946
 20
99.1401
 30
0.0
 11
88.8848
 21
99.8954
 31
0.0
  0
LINE
  8
0
 62
     0
 10
88.8848
 20
99.8954
 30
0.0
 11
88.1959
 21
99.0713
 31
0.0
  0
LINE
  8
0
 62
     0
 10
88.1959
 20
99.0713
 30
0.0
 11
87.8113
 21
98.5848
 31
0.0
  0
LINE
  8
0
 62
     0
 10
87.8113
 20
98.5848
 30
0.0
 11
87.7051
 21
98.2528
 31
0.0
  0
LINE
  8
0
 62
     0
 10
87.7051
 20
98.2528
 30
0.0
 11
87.8953
 21
97.9276
 31
0.0
  0
LINE
  8
0
 62
     0
 10
87.8953
 20
97.9276
 30
0.0
 11
88.3998
 21
97.4549
 31
0.0
  0
LINE
  8
0
 62
     0
 10
88.3998
 20
97.4549
 30
0.0
 11
89.0944
 21
96.8954
 31
0.0
  0
LINE
  8
0
 62
     0
 10
89.0944
 20
96.8954
 30
0.0
 11
89.5809
 21
96.7161
 31
0.0
  0
LINE
  8
0
 62
     0
 10
89.5809
 20
96.7161
 30
0.0
 11
89.9873
 21
96.9243
 31
0.0
  0
LINE
  8
0
 62
     0
 10
89.9873
 20
96.9243
 30
0.0
 11
90.442
 21
97.5222
 31
0.0
  0
LINE
  8
0
 62
     0
 10
27.0095
 20
98.6688
 30
0.0
 11
26.4129
 21
99.6735
 31
0.0
  0
LINE
  8
0
 62
     0
 10
26.4129
 20
99.6735
 30
0.0
 11
26.326
 21
100.11
 31
0.0
  0
LINE
  8
0
 62
     0
 10
26.326
 20
100.11
 30
0.0
 11
26.6995
 21
99.9367
 31
0.0
  0
LINE
  8
0
 62
     0
 10
26.6995
 20
99.9367
 30
0.0
 11
27.4864
 21
99.1087
 31
0.0
  0
LINE
  8
0
 62
     0
 10
27.4864
 20
99.1087
 30
0.0
 11
28.0761
 21
98.4292
 31
0.0
  0
LINE
  8
0
 62
     0
 10
28.0761
 20
98.4292
 30
0.0
 11
28.4606
 21
98.141
 31
0.0
  0
LINE
  8
0
 62
     0
 10
28.4606
 20
98.141
 30
0.0
 11
28.79
 21
98.1989
 31
0.0
  0
LINE
  8
0
 62
     0
 10
28.79
 20
98.1989
 30
0.0
 11
29.2227
 21
98.5492
 31
0.0
  0
LINE
  8
0
 62
     0
 10
29.2227
 20
98.5492
 30
0.0
 11
29.8607
 21
98.9693
 31
0.0
  0
LINE
  8
0
 62
     0
 10
29.8607
 20
98.9693
 30
0.0
 11
30.3816
 21
99.0575
 31
0.0
  0
LINE
  8
0
 62
     0
 10
30.3816
 20
99.0575
 30
0.0
 11
30.4147
 21
98.9485
 31
0.0
  0
LINE
  8
0
 62
     0
 10
30.4147
 20
98.9485
 30
0.0
 11
30.2631
 21
98.7407
 31
0.0
  0
LINE
  8
0
 62
     0
 10
30.2631
 20
98.7407
 30
0.0
 11
29.9737
 21
98.4677
 31
0.0
  0
LINE
  8
0
 62
     0
 10
29.9737
 20
98.4677
 30
0.0
 11
29.592
 21
98.1646
 31
0.0
  0
LINE
  8
0
 62
     0
 10
29.592
 20
98.1646
 30
0.0
 11
29.1676
 21
97.8683
 31
0.0
  0
LINE
  8
0
 62
     0
 10
29.1676
 20
97.8683
 30
0.0
 11
28.7473
 21
97.6133
 31
0.0
  0
LINE
  8
0
 62
     0
 10
28.7473
 20
97.6133
 30
0.0
 11
28.3766
 21
97.4341
 31
0.0
  0
LINE
  8
0
 62
     0
 10
28.3766
 20
97.4341
 30
0.0
 11
28.1051
 21
97.3667
 31
0.0
  0
LINE
  8
0
 62
     0
 10
28.1051
 20
97.3667
 30
0.0
 11
27.9521
 21
97.47
 31
0.0
  0
LINE
  8
0
 62
     0
 10
27.9521
 20
97.47
 30
0.0
 11
27.6958
 21
97.7498
 31
0.0
  0
LINE
  8
0
 62
     0
 10
27.6958
 20
97.7498
 30
0.0
 11
27.3692
 21
98.1632
 31
0.0
  0
LINE
  8
0
 62
     0
 10
27.3692
 20
98.1632
 30
0.0
 11
27.0095
 21
98.6688
 31
0.0
  0
LINE
  8
0
 62
     0
 10
31.0238
 20
101.017
 30
0.0
 11
30.9838
 21
101.831
 31
0.0
  0
LINE
  8
0
 62
     0
 10
30.9838
 20
101.831
 30
0.0
 11
30.9948
 21
102.525
 31
0.0
  0
LINE
  8
0
 62
     0
 10
30.9948
 20
102.525
 30
0.0
 11
31.0486
 21
103.021
 31
0.0
  0
LINE
  8
0
 62
     0
 10
31.0486
 20
103.021
 30
0.0
 11
31.1437
 21
103.25
 31
0.0
  0
LINE
  8
0
 62
     0
 10
31.1437
 20
103.25
 30
0.0
 11
31.371
 21
103.233
 31
0.0
  0
LINE
  8
0
 62
     0
 10
31.371
 20
103.233
 30
0.0
 11
31.7982
 21
103.078
 31
0.0
  0
LINE
  8
0
 62
     0
 10
31.7982
 20
103.078
 30
0.0
 11
32.3522
 21
102.824
 31
0.0
  0
LINE
  8
0
 62
     0
 10
32.3522
 20
102.824
 30
0.0
 11
32.9627
 21
102.507
 31
0.0
  0
LINE
  8
0
 62
     0
 10
32.9627
 20
102.507
 30
0.0
 11
33.5607
 21
102.166
 31
0.0
  0
LINE
  8
0
 62
     0
 10
33.5607
 20
102.166
 30
0.0
 11
34.0761
 21
101.841
 31
0.0
  0
LINE
  8
0
 62
     0
 10
34.0761
 20
101.841
 30
0.0
 11
34.4358
 21
101.568
 31
0.0
  0
LINE
  8
0
 62
     0
 10
34.4358
 20
101.568
 30
0.0
 11
34.5722
 21
101.387
 31
0.0
  0
LINE
  8
0
 62
     0
 10
34.5722
 20
101.387
 30
0.0
 11
34.3807
 21
101.29
 31
0.0
  0
LINE
  8
0
 62
     0
 10
34.3807
 20
101.29
 30
0.0
 11
33.9204
 21
101.314
 31
0.0
  0
LINE
  8
0
 62
     0
 10
33.9204
 20
101.314
 30
0.0
 11
33.1239
 21
101.25
 31
0.0
  0
LINE
  8
0
 62
     0
 10
33.1239
 20
101.25
 30
0.0
 11
32.304
 21
100.886
 31
0.0
  0
LINE
  8
0
 62
     0
 10
32.304
 20
100.886
 30
0.0
 11
31.6384
 21
100.334
 31
0.0
  0
LINE
  8
0
 62
     0
 10
31.6384
 20
100.334
 30
0.0
 11
31.3063
 21
99.6982
 31
0.0
  0
LINE
  8
0
 62
     0
 10
31.3063
 20
99.6982
 30
0.0
 11
31.2443
 21
99.5729
 31
0.0
  0
LINE
  8
0
 62
     0
 10
31.2443
 20
99.5729
 30
0.0
 11
31.1699
 21
99.7797
 31
0.0
  0
LINE
  8
0
 62
     0
 10
31.1699
 20
99.7797
 30
0.0
 11
31.094
 21
100.276
 31
0.0
  0
LINE
  8
0
 62
     0
 10
31.094
 20
100.276
 30
0.0
 11
31.0238
 21
101.017
 31
0.0
  0
LINE
  8
0
 62
     0
 10
32.4156
 20
101.567
 30
0.0
 11
32.654
 21
101.896
 31
0.0
  0
LINE
  8
0
 62
     0
 10
32.654
 20
101.896
 30
0.0
 11
32.151
 21
102.279
 31
0.0
  0
LINE
  8
0
 62
     0
 10
32.151
 20
102.279
 30
0.0
 11
31.7569
 21
102.467
 31
0.0
  0
LINE
  8
0
 62
     0
 10
31.7569
 20
102.467
 30
0.0
 11
31.5281
 21
102.489
 31
0.0
  0
LINE
  8
0
 62
     0
 10
31.5281
 20
102.489
 30
0.0
 11
31.422
 21
102.328
 31
0.0
  0
LINE
  8
0
 62
     0
 10
31.422
 20
102.328
 30
0.0
 11
31.3972
 21
101.965
 31
0.0
  0
LINE
  8
0
 62
     0
 10
31.3972
 20
101.965
 30
0.0
 11
31.4482
 21
101.508
 31
0.0
  0
LINE
  8
0
 62
     0
 10
31.4482
 20
101.508
 30
0.0
 11
31.6205
 21
101.294
 31
0.0
  0
LINE
  8
0
 62
     0
 10
31.6205
 20
101.294
 30
0.0
 11
31.9346
 21
101.317
 31
0.0
  0
LINE
  8
0
 62
     0
 10
31.9346
 20
101.317
 30
0.0
 11
32.4156
 21
101.567
 31
0.0
  0
LINE
  8
0
 62
     0
 10
85.0209
 20
99.3951
 30
0.0
 11
85.0939
 21
99.6957
 31
0.0
  0
LINE
  8
0
 62
     0
 10
85.0939
 20
99.6957
 30
0.0
 11
85.2868
 21
100.109
 31
0.0
  0
LINE
  8
0
 62
     0
 10
85.2868
 20
100.109
 30
0.0
 11
85.5638
 21
100.584
 31
0.0
  0
LINE
  8
0
 62
     0
 10
85.5638
 20
100.584
 30
0.0
 11
85.8848
 21
101.071
 31
0.0
  0
LINE
  8
0
 62
     0
 10
85.8848
 20
101.071
 30
0.0
 11
86.2157
 21
101.513
 31
0.0
  0
LINE
  8
0
 62
     0
 10
86.2157
 20
101.513
 30
0.0
 11
86.5188
 21
101.86
 31
0.0
  0
LINE
  8
0
 62
     0
 10
86.5188
 20
101.86
 30
0.0
 11
86.7572
 21
102.06
 31
0.0
  0
LINE
  8
0
 62
     0
 10
86.7572
 20
102.06
 30
0.0
 11
86.8938
 21
102.059
 31
0.0
  0
LINE
  8
0
 62
     0
 10
86.8938
 20
102.059
 30
0.0
 11
86.9061
 21
101.825
 31
0.0
  0
LINE
  8
0
 62
     0
 10
86.9061
 20
101.825
 30
0.0
 11
86.7833
 21
101.439
 31
0.0
  0
LINE
  8
0
 62
     0
 10
86.7833
 20
101.439
 30
0.0
 11
86.5491
 21
100.954
 31
0.0
  0
LINE
  8
0
 62
     0
 10
86.5491
 20
100.954
 30
0.0
 11
86.2252
 21
100.425
 31
0.0
  0
LINE
  8
0
 62
     0
 10
86.2252
 20
100.425
 30
0.0
 11
85.6738
 21
99.6555
 31
0.0
  0
LINE
  8
0
 62
     0
 10
85.6738
 20
99.6555
 30
0.0
 11
85.2992
 21
99.2367
 31
0.0
  0
LINE
  8
0
 62
     0
 10
85.2992
 20
99.2367
 30
0.0
 11
85.0868
 21
99.1538
 31
0.0
  0
LINE
  8
0
 62
     0
 10
85.0868
 20
99.1538
 30
0.0
 11
85.0209
 21
99.3951
 31
0.0
  0
LINE
  8
0
 62
     0
 10
82.4618
 20
100.747
 30
0.0
 11
82.5281
 21
101.253
 31
0.0
  0
LINE
  8
0
 62
     0
 10
82.5281
 20
101.253
 30
0.0
 11
82.9772
 21
102.175
 31
0.0
  0
LINE
  8
0
 62
     0
 10
82.9772
 20
102.175
 30
0.0
 11
83.3727
 21
102.879
 31
0.0
  0
LINE
  8
0
 62
     0
 10
83.3727
 20
102.879
 30
0.0
 11
83.512
 21
103.3
 31
0.0
  0
LINE
  8
0
 62
     0
 10
83.512
 20
103.3
 30
0.0
 11
83.3974
 21
103.591
 31
0.0
  0
LINE
  8
0
 62
     0
 10
83.3974
 20
103.591
 30
0.0
 11
83.0351
 21
103.899
 31
0.0
  0
LINE
  8
0
 62
     0
 10
83.0351
 20
103.899
 30
0.0
 11
82.5969
 21
104.305
 31
0.0
  0
LINE
  8
0
 62
     0
 10
82.5969
 20
104.305
 30
0.0
 11
82.7373
 21
104.388
 31
0.0
  0
LINE
  8
0
 62
     0
 10
82.7373
 20
104.388
 30
0.0
 11
83.3561
 21
104.163
 31
0.0
  0
LINE
  8
0
 62
     0
 10
83.3561
 20
104.163
 30
0.0
 11
84.3538
 21
103.652
 31
0.0
  0
LINE
  8
0
 62
     0
 10
84.3538
 20
103.652
 30
0.0
 11
85.2234
 21
103.072
 31
0.0
  0
LINE
  8
0
 62
     0
 10
85.2234
 20
103.072
 30
0.0
 11
85.7003
 21
102.599
 31
0.0
  0
LINE
  8
0
 62
     0
 10
85.7003
 20
102.599
 30
0.0
 11
85.6686
 21
102.406
 31
0.0
  0
LINE
  8
0
 62
     0
 10
85.6686
 20
102.406
 30
0.0
 11
85.0152
 21
102.66
 31
0.0
  0
LINE
  8
0
 62
     0
 10
85.0152
 20
102.66
 30
0.0
 11
84.6197
 21
102.815
 31
0.0
  0
LINE
  8
0
 62
     0
 10
84.6197
 20
102.815
 30
0.0
 11
84.3015
 21
102.755
 31
0.0
  0
LINE
  8
0
 62
     0
 10
84.3015
 20
102.755
 30
0.0
 11
83.9777
 21
102.43
 31
0.0
  0
LINE
  8
0
 62
     0
 10
83.9777
 20
102.43
 30
0.0
 11
83.5699
 21
101.79
 31
0.0
  0
LINE
  8
0
 62
     0
 10
83.5699
 20
101.79
 30
0.0
 11
83.1039
 21
101.017
 31
0.0
  0
LINE
  8
0
 62
     0
 10
83.1039
 20
101.017
 30
0.0
 11
82.834
 21
100.649
 31
0.0
  0
LINE
  8
0
 62
     0
 10
82.834
 20
100.649
 30
0.0
 11
82.6534
 21
100.591
 31
0.0
  0
LINE
  8
0
 62
     0
 10
82.6534
 20
100.591
 30
0.0
 11
82.4618
 21
100.747
 31
0.0
  0
LINE
  8
0
 62
     0
 10
34.8382
 20
103.427
 30
0.0
 11
34.4468
 21
104.51
 31
0.0
  0
LINE
  8
0
 62
     0
 10
34.4468
 20
104.51
 30
0.0
 11
34.3779
 21
105.051
 31
0.0
  0
LINE
  8
0
 62
     0
 10
34.3779
 20
105.051
 30
0.0
 11
34.5695
 21
105.067
 31
0.0
  0
LINE
  8
0
 62
     0
 10
34.5695
 20
105.067
 30
0.0
 11
34.9774
 21
104.994
 31
0.0
  0
LINE
  8
0
 62
     0
 10
34.9774
 20
104.994
 30
0.0
 11
35.5424
 21
104.848
 31
0.0
  0
LINE
  8
0
 62
     0
 10
35.5424
 20
104.848
 30
0.0
 11
36.2038
 21
104.638
 31
0.0
  0
LINE
  8
0
 62
     0
 10
36.2038
 20
104.638
 30
0.0
 11
36.861
 21
104.418
 31
0.0
  0
LINE
  8
0
 62
     0
 10
36.861
 20
104.418
 30
0.0
 11
37.4177
 21
104.238
 31
0.0
  0
LINE
  8
0
 62
     0
 10
37.4177
 20
104.238
 30
0.0
 11
37.8146
 21
104.115
 31
0.0
  0
LINE
  8
0
 62
     0
 10
37.8146
 20
104.115
 30
0.0
 11
37.9952
 21
104.069
 31
0.0
  0
LINE
  8
0
 62
     0
 10
37.9952
 20
104.069
 30
0.0
 11
37.9236
 21
104.375
 31
0.0
  0
LINE
  8
0
 62
     0
 10
37.9236
 20
104.375
 30
0.0
 11
37.5804
 21
105.11
 31
0.0
  0
LINE
  8
0
 62
     0
 10
37.5804
 20
105.11
 30
0.0
 11
37.2237
 21
105.838
 31
0.0
  0
LINE
  8
0
 62
     0
 10
37.2237
 20
105.838
 30
0.0
 11
37.072
 21
106.273
 31
0.0
  0
LINE
  8
0
 62
     0
 10
37.072
 20
106.273
 30
0.0
 11
37.1147
 21
106.484
 31
0.0
  0
LINE
  8
0
 62
     0
 10
37.1147
 20
106.484
 30
0.0
 11
37.3408
 21
106.539
 31
0.0
  0
LINE
  8
0
 62
     0
 10
37.3408
 20
106.539
 30
0.0
 11
37.5239
 21
106.42
 31
0.0
  0
LINE
  8
0
 62
     0
 10
37.5239
 20
106.42
 30
0.0
 11
37.7582
 21
106.102
 31
0.0
  0
LINE
  8
0
 62
     0
 10
37.7582
 20
106.102
 30
0.0
 11
38.0174
 21
105.649
 31
0.0
  0
LINE
  8
0
 62
     0
 10
38.0174
 20
105.649
 30
0.0
 11
38.2722
 21
105.121
 31
0.0
  0
LINE
  8
0
 62
     0
 10
38.2722
 20
105.121
 30
0.0
 11
38.4955
 21
104.581
 31
0.0
  0
LINE
  8
0
 62
     0
 10
38.4955
 20
104.581
 30
0.0
 11
38.6609
 21
104.089
 31
0.0
  0
LINE
  8
0
 62
     0
 10
38.6609
 20
104.089
 30
0.0
 11
38.7396
 21
103.707
 31
0.0
  0
LINE
  8
0
 62
     0
 10
38.7396
 20
103.707
 30
0.0
 11
38.7036
 21
103.498
 31
0.0
  0
LINE
  8
0
 62
     0
 10
38.7036
 20
103.498
 30
0.0
 11
38.4912
 21
103.459
 31
0.0
  0
LINE
  8
0
 62
     0
 10
38.4912
 20
103.459
 30
0.0
 11
38.0753
 21
103.51
 31
0.0
  0
LINE
  8
0
 62
     0
 10
38.0753
 20
103.51
 30
0.0
 11
37.513
 21
103.641
 31
0.0
  0
LINE
  8
0
 62
     0
 10
37.513
 20
103.641
 30
0.0
 11
36.8653
 21
103.838
 31
0.0
  0
LINE
  8
0
 62
     0
 10
36.8653
 20
103.838
 30
0.0
 11
36.2839
 21
104.035
 31
0.0
  0
LINE
  8
0
 62
     0
 10
36.2839
 20
104.035
 30
0.0
 11
35.8581
 21
104.158
 31
0.0
  0
LINE
  8
0
 62
     0
 10
35.8581
 20
104.158
 30
0.0
 11
35.5769
 21
104.192
 31
0.0
  0
LINE
  8
0
 62
     0
 10
35.5769
 20
104.192
 30
0.0
 11
35.4252
 21
104.119
 31
0.0
  0
LINE
  8
0
 62
     0
 10
35.4252
 20
104.119
 30
0.0
 11
35.3935
 21
103.919
 31
0.0
  0
LINE
  8
0
 62
     0
 10
35.3935
 20
103.919
 30
0.0
 11
35.4679
 21
103.577
 31
0.0
  0
LINE
  8
0
 62
     0
 10
35.4679
 20
103.577
 30
0.0
 11
35.6387
 21
103.076
 31
0.0
  0
LINE
  8
0
 62
     0
 10
35.6387
 20
103.076
 30
0.0
 11
35.8937
 21
102.394
 31
0.0
  0
LINE
  8
0
 62
     0
 10
35.8937
 20
102.394
 30
0.0
 11
35.9212
 21
102.084
 31
0.0
  0
LINE
  8
0
 62
     0
 10
35.9212
 20
102.084
 30
0.0
 11
35.7558
 21
101.957
 31
0.0
  0
LINE
  8
0
 62
     0
 10
35.7558
 20
101.957
 30
0.0
 11
35.3617
 21
102.391
 31
0.0
  0
LINE
  8
0
 62
     0
 10
35.3617
 20
102.391
 30
0.0
 11
34.8382
 21
103.427
 31
0.0
  0
LINE
  8
0
 62
     0
 10
79.0346
 20
103.765
 30
0.0
 11
78.2394
 21
105.616
 31
0.0
  0
LINE
  8
0
 62
     0
 10
78.2394
 20
105.616
 30
0.0
 11
77.7088
 21
104.401
 31
0.0
  0
LINE
  8
0
 62
     0
 10
77.7088
 20
104.401
 30
0.0
 11
77.2915
 21
103.655
 31
0.0
  0
LINE
  8
0
 62
     0
 10
77.2915
 20
103.655
 30
0.0
 11
77.0336
 21
103.565
 31
0.0
  0
LINE
  8
0
 62
     0
 10
77.0336
 20
103.565
 30
0.0
 11
77.0929
 21
104.232
 31
0.0
  0
LINE
  8
0
 62
     0
 10
77.0929
 20
104.232
 30
0.0
 11
77.4333
 21
105.233
 31
0.0
  0
LINE
  8
0
 62
     0
 10
77.4333
 20
105.233
 30
0.0
 11
77.8785
 21
106.142
 31
0.0
  0
LINE
  8
0
 62
     0
 10
77.8785
 20
106.142
 30
0.0
 11
78.256
 21
106.539
 31
0.0
  0
LINE
  8
0
 62
     0
 10
78.256
 20
106.539
 30
0.0
 11
78.4214
 21
106.408
 31
0.0
  0
LINE
  8
0
 62
     0
 10
78.4214
 20
106.408
 30
0.0
 11
78.6652
 21
106.047
 31
0.0
  0
LINE
  8
0
 62
     0
 10
78.6652
 20
106.047
 30
0.0
 11
78.9534
 21
105.515
 31
0.0
  0
LINE
  8
0
 62
     0
 10
78.9534
 20
105.515
 30
0.0
 11
79.2551
 21
104.863
 31
0.0
  0
LINE
  8
0
 62
     0
 10
79.2551
 20
104.863
 30
0.0
 11
79.9705
 21
103.188
 31
0.0
  0
LINE
  8
0
 62
     0
 10
79.9705
 20
103.188
 30
0.0
 11
80.4347
 21
104.158
 31
0.0
  0
LINE
  8
0
 62
     0
 10
80.4347
 20
104.158
 30
0.0
 11
80.899
 21
104.935
 31
0.0
  0
LINE
  8
0
 62
     0
 10
80.899
 20
104.935
 30
0.0
 11
81.1911
 21
105.1
 31
0.0
  0
LINE
  8
0
 62
     0
 10
81.1911
 20
105.1
 30
0.0
 11
81.2341
 21
104.706
 31
0.0
  0
LINE
  8
0
 62
     0
 10
81.2341
 20
104.706
 30
0.0
 11
80.9487
 21
103.805
 31
0.0
  0
LINE
  8
0
 62
     0
 10
80.9487
 20
103.805
 30
0.0
 11
80.4125
 21
102.663
 31
0.0
  0
LINE
  8
0
 62
     0
 10
80.4125
 20
102.663
 30
0.0
 11
79.9952
 21
102.277
 31
0.0
  0
LINE
  8
0
 62
     0
 10
79.9952
 20
102.277
 30
0.0
 11
79.5761
 21
102.645
 31
0.0
  0
LINE
  8
0
 62
     0
 10
79.5761
 20
102.645
 30
0.0
 11
79.0346
 21
103.765
 31
0.0
  0
LINE
  8
0
 62
     0
 10
39.8999
 20
105.501
 30
0.0
 11
39.6614
 21
106.546
 31
0.0
  0
LINE
  8
0
 62
     0
 10
39.6614
 20
106.546
 30
0.0
 11
39.7701
 21
107.198
 31
0.0
  0
LINE
  8
0
 62
     0
 10
39.7701
 20
107.198
 30
0.0
 11
40.302
 21
107.582
 31
0.0
  0
LINE
  8
0
 62
     0
 10
40.302
 20
107.582
 30
0.0
 11
41.3329
 21
107.823
 31
0.0
  0
LINE
  8
0
 62
     0
 10
41.3329
 20
107.823
 30
0.0
 11
42.4145
 21
107.841
 31
0.0
  0
LINE
  8
0
 62
     0
 10
42.4145
 20
107.841
 30
0.0
 11
43.1532
 21
107.432
 31
0.0
  0
LINE
  8
0
 62
     0
 10
43.1532
 20
107.432
 30
0.0
 11
43.6922
 21
106.499
 31
0.0
  0
LINE
  8
0
 62
     0
 10
43.6922
 20
106.499
 30
0.0
 11
43.5158
 21
105.592
 31
0.0
  0
LINE
  8
0
 62
     0
 10
43.5158
 20
105.592
 30
0.0
 11
42.6819
 21
104.811
 31
0.0
  0
LINE
  8
0
 62
     0
 10
42.6819
 20
104.811
 30
0.0
 11
41.2489
 21
104.247
 31
0.0
  0
LINE
  8
0
 62
     0
 10
41.2489
 20
104.247
 30
0.0
 11
40.7472
 21
104.17
 31
0.0
  0
LINE
  8
0
 62
     0
 10
40.7472
 20
104.17
 30
0.0
 11
40.4153
 21
104.296
 31
0.0
  0
LINE
  8
0
 62
     0
 10
40.4153
 20
104.296
 30
0.0
 11
40.163
 21
104.712
 31
0.0
  0
LINE
  8
0
 62
     0
 10
40.163
 20
104.712
 30
0.0
 11
39.8999
 21
105.501
 31
0.0
  0
LINE
  8
0
 62
     0
 10
42.1584
 20
105.128
 30
0.0
 11
42.8378
 21
105.627
 31
0.0
  0
LINE
  8
0
 62
     0
 10
42.8378
 20
105.627
 30
0.0
 11
43.0223
 21
106.271
 31
0.0
  0
LINE
  8
0
 62
     0
 10
43.0223
 20
106.271
 30
0.0
 11
42.7302
 21
106.853
 31
0.0
  0
LINE
  8
0
 62
     0
 10
42.7302
 20
106.853
 30
0.0
 11
41.9806
 21
107.159
 31
0.0
  0
LINE
  8
0
 62
     0
 10
41.9806
 20
107.159
 30
0.0
 11
41.1138
 21
107.151
 31
0.0
  0
LINE
  8
0
 62
     0
 10
41.1138
 20
107.151
 30
0.0
 11
40.5874
 21
106.907
 31
0.0
  0
LINE
  8
0
 62
     0
 10
40.5874
 20
106.907
 30
0.0
 11
40.3987
 21
106.43
 31
0.0
  0
LINE
  8
0
 62
     0
 10
40.3987
 20
106.43
 30
0.0
 11
40.5476
 21
105.716
 31
0.0
  0
LINE
  8
0
 62
     0
 10
40.5476
 20
105.716
 30
0.0
 11
40.7956
 21
105.106
 31
0.0
  0
LINE
  8
0
 62
     0
 10
40.7956
 20
105.106
 30
0.0
 11
41.0393
 21
104.844
 31
0.0
  0
LINE
  8
0
 62
     0
 10
41.0393
 20
104.844
 30
0.0
 11
41.439
 21
104.87
 31
0.0
  0
LINE
  8
0
 62
     0
 10
41.439
 20
104.87
 30
0.0
 11
42.1584
 21
105.128
 31
0.0
  0
LINE
  8
0
 62
     0
 10
73.9069
 20
104.498
 30
0.0
 11
73.0938
 21
104.803
 31
0.0
  0
LINE
  8
0
 62
     0
 10
73.0938
 20
104.803
 30
0.0
 11
72.7396
 21
105.117
 31
0.0
  0
LINE
  8
0
 62
     0
 10
72.7396
 20
105.117
 30
0.0
 11
72.7467
 21
105.675
 31
0.0
  0
LINE
  8
0
 62
     0
 10
72.7467
 20
105.675
 30
0.0
 11
73.025
 21
106.714
 31
0.0
  0
LINE
  8
0
 62
     0
 10
73.025
 20
106.714
 30
0.0
 11
73.2839
 21
107.546
 31
0.0
  0
LINE
  8
0
 62
     0
 10
73.2839
 20
107.546
 30
0.0
 11
73.5252
 21
108.001
 31
0.0
  0
LINE
  8
0
 62
     0
 10
73.5252
 20
108.001
 30
0.0
 11
73.8145
 21
108.155
 31
0.0
  0
LINE
  8
0
 62
     0
 10
73.8145
 20
108.155
 30
0.0
 11
74.2199
 21
108.088
 31
0.0
  0
LINE
  8
0
 62
     0
 10
74.2199
 20
108.088
 30
0.0
 11
75.3043
 21
107.727
 31
0.0
  0
LINE
  8
0
 62
     0
 10
75.3043
 20
107.727
 30
0.0
 11
76.0264
 21
107.426
 31
0.0
  0
LINE
  8
0
 62
     0
 10
76.0264
 20
107.426
 30
0.0
 11
76.4275
 21
107.163
 31
0.0
  0
LINE
  8
0
 62
     0
 10
76.4275
 20
107.163
 30
0.0
 11
76.5528
 21
106.918
 31
0.0
  0
LINE
  8
0
 62
     0
 10
76.5528
 20
106.918
 30
0.0
 11
76.2071
 21
106.82
 31
0.0
  0
LINE
  8
0
 62
     0
 10
76.2071
 20
106.82
 30
0.0
 11
75.3636
 21
107.072
 31
0.0
  0
LINE
  8
0
 62
     0
 10
75.3636
 20
107.072
 30
0.0
 11
74.6277
 21
107.326
 31
0.0
  0
LINE
  8
0
 62
     0
 10
74.6277
 20
107.326
 30
0.0
 11
74.1204
 21
107.371
 31
0.0
  0
LINE
  8
0
 62
     0
 10
74.1204
 20
107.371
 30
0.0
 11
73.8258
 21
107.208
 31
0.0
  0
LINE
  8
0
 62
     0
 10
73.8258
 20
107.208
 30
0.0
 11
73.7306
 21
106.832
 31
0.0
  0
LINE
  8
0
 62
     0
 10
73.7306
 20
106.832
 30
0.0
 11
73.8794
 21
106.626
 31
0.0
  0
LINE
  8
0
 62
     0
 10
73.8794
 20
106.626
 30
0.0
 11
74.2389
 21
106.539
 31
0.0
  0
LINE
  8
0
 62
     0
 10
74.2389
 20
106.539
 30
0.0
 11
74.6704
 21
106.42
 31
0.0
  0
LINE
  8
0
 62
     0
 10
74.6704
 20
106.42
 30
0.0
 11
74.997
 21
106.135
 31
0.0
  0
LINE
  8
0
 62
     0
 10
74.997
 20
106.135
 30
0.0
 11
74.9667
 21
105.882
 31
0.0
  0
LINE
  8
0
 62
     0
 10
74.9667
 20
105.882
 30
0.0
 11
74.3119
 21
105.966
 31
0.0
  0
LINE
  8
0
 62
     0
 10
74.3119
 20
105.966
 30
0.0
 11
73.5873
 21
106.033
 31
0.0
  0
LINE
  8
0
 62
     0
 10
73.5873
 20
106.033
 30
0.0
 11
73.3778
 21
105.692
 31
0.0
  0
LINE
  8
0
 62
     0
 10
73.3778
 20
105.692
 30
0.0
 11
73.6865
 21
105.266
 31
0.0
  0
LINE
  8
0
 62
     0
 10
73.6865
 20
105.266
 30
0.0
 11
74.4319
 21
104.953
 31
0.0
  0
LINE
  8
0
 62
     0
 10
74.4319
 20
104.953
 30
0.0
 11
75.2355
 21
104.694
 31
0.0
  0
LINE
  8
0
 62
     0
 10
75.2355
 20
104.694
 30
0.0
 11
75.6874
 21
104.395
 31
0.0
  0
LINE
  8
0
 62
     0
 10
75.6874
 20
104.395
 30
0.0
 11
75.7068
 21
104.17
 31
0.0
  0
LINE
  8
0
 62
     0
 10
75.7068
 20
104.17
 30
0.0
 11
75.4006
 21
104.114
 31
0.0
  0
LINE
  8
0
 62
     0
 10
75.4006
 20
104.114
 30
0.0
 11
74.7917
 21
104.224
 31
0.0
  0
LINE
  8
0
 62
     0
 10
74.7917
 20
104.224
 30
0.0
 11
73.9069
 21
104.498
 31
0.0
  0
LINE
  8
0
 62
     0
 10
69.1804
 20
106.627
 30
0.0
 11
68.8922
 21
107.538
 31
0.0
  0
LINE
  8
0
 62
     0
 10
68.8922
 20
107.538
 30
0.0
 11
68.6223
 21
108.611
 31
0.0
  0
LINE
  8
0
 62
     0
 10
68.6223
 20
108.611
 30
0.0
 11
68.5352
 21
109.474
 31
0.0
  0
LINE
  8
0
 62
     0
 10
68.5352
 20
109.474
 30
0.0
 11
68.7433
 21
109.577
 31
0.0
  0
LINE
  8
0
 62
     0
 10
68.7433
 20
109.577
 30
0.0
 11
69.1099
 21
109.028
 31
0.0
  0
LINE
  8
0
 62
     0
 10
69.1099
 20
109.028
 30
0.0
 11
69.5043
 21
107.927
 31
0.0
  0
LINE
  8
0
 62
     0
 10
69.5043
 20
107.927
 30
0.0
 11
69.8817
 21
106.522
 31
0.0
  0
LINE
  8
0
 62
     0
 10
69.8817
 20
106.522
 30
0.0
 11
70.7789
 21
107.589
 31
0.0
  0
LINE
  8
0
 62
     0
 10
70.7789
 20
107.589
 30
0.0
 11
71.6015
 21
108.438
 31
0.0
  0
LINE
  8
0
 62
     0
 10
71.6015
 20
108.438
 30
0.0
 11
72.0079
 21
108.628
 31
0.0
  0
LINE
  8
0
 62
     0
 10
72.0079
 20
108.628
 30
0.0
 11
71.9197
 21
108.212
 31
0.0
  0
LINE
  8
0
 62
     0
 10
71.9197
 20
108.212
 30
0.0
 11
71.2611
 21
107.244
 31
0.0
  0
LINE
  8
0
 62
     0
 10
71.2611
 20
107.244
 30
0.0
 11
70.455
 21
106.31
 31
0.0
  0
LINE
  8
0
 62
     0
 10
70.455
 20
106.31
 30
0.0
 11
69.8983
 21
105.913
 31
0.0
  0
LINE
  8
0
 62
     0
 10
69.8983
 20
105.913
 30
0.0
 11
69.5015
 21
106.028
 31
0.0
  0
LINE
  8
0
 62
     0
 10
69.5015
 20
106.028
 30
0.0
 11
69.1804
 21
106.627
 31
0.0
  0
LINE
  8
0
 62
     0
 10
47.4927
 20
107.289
 30
0.0
 11
47.322
 21
108.3
 31
0.0
  0
LINE
  8
0
 62
     0
 10
47.322
 20
108.3
 30
0.0
 11
47.2803
 21
108.966
 31
0.0
  0
LINE
  8
0
 62
     0
 10
47.2803
 20
108.966
 30
0.0
 11
47.3675
 21
109.263
 31
0.0
  0
LINE
  8
0
 62
     0
 10
47.3675
 20
109.263
 30
0.0
 11
47.5823
 21
109.167
 31
0.0
  0
LINE
  8
0
 62
     0
 10
47.5823
 20
109.167
 30
0.0
 11
47.8991
 21
108.493
 31
0.0
  0
LINE
  8
0
 62
     0
 10
47.8991
 20
108.493
 30
0.0
 11
48.1238
 21
107.492
 31
0.0
  0
LINE
  8
0
 62
     0
 10
48.1238
 20
107.492
 30
0.0
 11
48.1912
 21
106.583
 31
0.0
  0
LINE
  8
0
 62
     0
 10
48.1912
 20
106.583
 30
0.0
 11
48.0385
 21
106.186
 31
0.0
  0
LINE
  8
0
 62
     0
 10
48.0385
 20
106.186
 30
0.0
 11
47.7435
 21
106.51
 31
0.0
  0
LINE
  8
0
 62
     0
 10
47.7435
 20
106.51
 30
0.0
 11
47.4927
 21
107.289
 31
0.0
  0
LINE
  8
0
 62
     0
 10
65.968
 20
107.069
 30
0.0
 11
65.3009
 21
107.654
 31
0.0
  0
LINE
  8
0
 62
     0
 10
65.3009
 20
107.654
 30
0.0
 11
64.739
 21
107.917
 31
0.0
  0
LINE
  8
0
 62
     0
 10
64.739
 20
107.917
 30
0.0
 11
64.3502
 21
107.844
 31
0.0
  0
LINE
  8
0
 62
     0
 10
64.3502
 20
107.844
 30
0.0
 11
64.2056
 21
107.421
 31
0.0
  0
LINE
  8
0
 62
     0
 10
64.2056
 20
107.421
 30
0.0
 11
64.0884
 21
107.047
 31
0.0
  0
LINE
  8
0
 62
     0
 10
64.0884
 20
107.047
 30
0.0
 11
63.8115
 21
106.892
 31
0.0
  0
LINE
  8
0
 62
     0
 10
63.8115
 20
106.892
 30
0.0
 11
63.584
 21
107.111
 31
0.0
  0
LINE
  8
0
 62
     0
 10
63.584
 20
107.111
 30
0.0
 11
63.6309
 21
107.685
 31
0.0
  0
LINE
  8
0
 62
     0
 10
63.6309
 20
107.685
 30
0.0
 11
63.7826
 21
108.479
 31
0.0
  0
LINE
  8
0
 62
     0
 10
63.7826
 20
108.479
 30
0.0
 11
63.8485
 21
109.273
 31
0.0
  0
LINE
  8
0
 62
     0
 10
63.8485
 20
109.273
 30
0.0
 11
63.8955
 21
109.679
 31
0.0
  0
LINE
  8
0
 62
     0
 10
63.8955
 20
109.679
 30
0.0
 11
64.0733
 21
109.921
 31
0.0
  0
LINE
  8
0
 62
     0
 10
64.0733
 20
109.921
 30
0.0
 11
64.4412
 21
110.038
 31
0.0
  0
LINE
  8
0
 62
     0
 10
64.4412
 20
110.038
 30
0.0
 11
65.0586
 21
110.067
 31
0.0
  0
LINE
  8
0
 62
     0
 10
65.0586
 20
110.067
 30
0.0
 11
66.0728
 21
110.005
 31
0.0
  0
LINE
  8
0
 62
     0
 10
66.0728
 20
110.005
 30
0.0
 11
66.8225
 21
109.853
 31
0.0
  0
LINE
  8
0
 62
     0
 10
66.8225
 20
109.853
 30
0.0
 11
67.2264
 21
109.444
 31
0.0
  0
LINE
  8
0
 62
     0
 10
67.2264
 20
109.444
 30
0.0
 11
67.3654
 21
108.786
 31
0.0
  0
LINE
  8
0
 62
     0
 10
67.3654
 20
108.786
 30
0.0
 11
67.2373
 21
108.131
 31
0.0
  0
LINE
  8
0
 62
     0
 10
67.2373
 20
108.131
 30
0.0
 11
66.8419
 21
107.721
 31
0.0
  0
LINE
  8
0
 62
     0
 10
66.8419
 20
107.721
 30
0.0
 11
66.5014
 21
107.455
 31
0.0
  0
LINE
  8
0
 62
     0
 10
66.5014
 20
107.455
 30
0.0
 11
66.7163
 21
107.018
 31
0.0
  0
LINE
  8
0
 62
     0
 10
66.7163
 20
107.018
 30
0.0
 11
67.032
 21
106.522
 31
0.0
  0
LINE
  8
0
 62
     0
 10
67.032
 20
106.522
 30
0.0
 11
66.9382
 21
106.371
 31
0.0
  0
LINE
  8
0
 62
     0
 10
66.9382
 20
106.371
 30
0.0
 11
66.5469
 21
106.555
 31
0.0
  0
LINE
  8
0
 62
     0
 10
66.5469
 20
106.555
 30
0.0
 11
65.968
 21
107.069
 31
0.0
  0
LINE
  8
0
 62
     0
 10
66.675
 20
108.832
 30
0.0
 11
66.5275
 21
109.207
 31
0.0
  0
LINE
  8
0
 62
     0
 10
66.5275
 20
109.207
 30
0.0
 11
66.1748
 21
109.361
 31
0.0
  0
LINE
  8
0
 62
     0
 10
66.1748
 20
109.361
 30
0.0
 11
65.6565
 21
109.425
 31
0.0
  0
LINE
  8
0
 62
     0
 10
65.6565
 20
109.425
 30
0.0
 11
65.1164
 21
109.575
 31
0.0
  0
LINE
  8
0
 62
     0
 10
65.1164
 20
109.575
 30
0.0
 11
64.703
 21
109.595
 31
0.0
  0
LINE
  8
0
 62
     0
 10
64.703
 20
109.595
 30
0.0
 11
64.5583
 21
109.252
 31
0.0
  0
LINE
  8
0
 62
     0
 10
64.5583
 20
109.252
 30
0.0
 11
64.9305
 21
108.595
 31
0.0
  0
LINE
  8
0
 62
     0
 10
64.9305
 20
108.595
 30
0.0
 11
66.0576
 21
108.33
 31
0.0
  0
LINE
  8
0
 62
     0
 10
66.0576
 20
108.33
 30
0.0
 11
66.493
 21
108.467
 31
0.0
  0
LINE
  8
0
 62
     0
 10
66.493
 20
108.467
 30
0.0
 11
66.675
 21
108.832
 31
0.0
  0
LINE
  8
0
 62
     0
 10
50.0063
 20
106.74
 30
0.0
 11
49.8189
 21
107.385
 31
0.0
  0
LINE
  8
0
 62
     0
 10
49.8189
 20
107.385
 30
0.0
 11
49.7417
 21
108.555
 31
0.0
  0
LINE
  8
0
 62
     0
 10
49.7417
 20
108.555
 30
0.0
 11
49.7417
 21
110.101
 31
0.0
  0
LINE
  8
0
 62
     0
 10
49.7417
 20
110.101
 30
0.0
 11
52.9167
 21
107.915
 31
0.0
  0
LINE
  8
0
 62
     0
 10
52.9167
 20
107.915
 30
0.0
 11
52.9389
 21
109.256
 31
0.0
  0
LINE
  8
0
 62
     0
 10
52.9389
 20
109.256
 30
0.0
 11
52.9594
 21
109.968
 31
0.0
  0
LINE
  8
0
 62
     0
 10
52.9594
 20
109.968
 30
0.0
 11
53.0105
 21
110.258
 31
0.0
  0
LINE
  8
0
 62
     0
 10
53.0105
 20
110.258
 30
0.0
 11
53.1163
 21
110.167
 31
0.0
  0
LINE
  8
0
 62
     0
 10
53.1163
 20
110.167
 30
0.0
 11
53.3079
 21
109.726
 31
0.0
  0
LINE
  8
0
 62
     0
 10
53.3079
 20
109.726
 30
0.0
 11
53.5217
 21
108.818
 31
0.0
  0
LINE
  8
0
 62
     0
 10
53.5217
 20
108.818
 30
0.0
 11
53.5506
 21
107.856
 31
0.0
  0
LINE
  8
0
 62
     0
 10
53.5506
 20
107.856
 30
0.0
 11
53.4458
 21
106.857
 31
0.0
  0
LINE
  8
0
 62
     0
 10
53.4458
 20
106.857
 30
0.0
 11
50.4913
 21
109.037
 31
0.0
  0
LINE
  8
0
 62
     0
 10
50.4913
 20
109.037
 30
0.0
 11
50.3813
 21
107.754
 31
0.0
  0
LINE
  8
0
 62
     0
 10
50.3813
 20
107.754
 30
0.0
 11
50.2253
 21
106.928
 31
0.0
  0
LINE
  8
0
 62
     0
 10
50.2253
 20
106.928
 30
0.0
 11
50.0063
 21
106.74
 31
0.0
  0
LINE
  8
0
 62
     0
 10
60.0258
 20
107.149
 30
0.0
 11
59.4198
 21
107.253
 31
0.0
  0
LINE
  8
0
 62
     0
 10
59.4198
 20
107.253
 30
0.0
 11
59.0903
 21
107.406
 31
0.0
  0
LINE
  8
0
 62
     0
 10
59.0903
 20
107.406
 30
0.0
 11
58.9841
 21
107.659
 31
0.0
  0
LINE
  8
0
 62
     0
 10
58.9841
 20
107.659
 30
0.0
 11
59.0504
 21
108.063
 31
0.0
  0
LINE
  8
0
 62
     0
 10
59.0504
 20
108.063
 30
0.0
 11
59.1979
 21
108.84
 31
0.0
  0
LINE
  8
0
 62
     0
 10
59.1979
 20
108.84
 30
0.0
 11
59.2624
 21
109.626
 31
0.0
  0
LINE
  8
0
 62
     0
 10
59.2624
 20
109.626
 30
0.0
 11
59.3136
 21
110.051
 31
0.0
  0
LINE
  8
0
 62
     0
 10
59.3136
 20
110.051
 30
0.0
 11
59.5355
 21
110.284
 31
0.0
  0
LINE
  8
0
 62
     0
 10
59.5355
 20
110.284
 30
0.0
 11
60.0396
 21
110.374
 31
0.0
  0
LINE
  8
0
 62
     0
 10
60.0396
 20
110.374
 30
0.0
 11
60.9424
 21
110.37
 31
0.0
  0
LINE
  8
0
 62
     0
 10
60.9424
 20
110.37
 30
0.0
 11
61.8892
 21
110.338
 31
0.0
  0
LINE
  8
0
 62
     0
 10
61.8892
 20
110.338
 30
0.0
 11
62.2406
 21
110.3
 31
0.0
  0
LINE
  8
0
 62
     0
 10
62.2406
 20
110.3
 30
0.0
 11
62.0282
 21
110.231
 31
0.0
  0
LINE
  8
0
 62
     0
 10
62.0282
 20
110.231
 30
0.0
 11
61.2842
 21
110.105
 31
0.0
  0
LINE
  8
0
 62
     0
 10
61.2842
 20
110.105
 30
0.0
 11
60.3924
 21
109.874
 31
0.0
  0
LINE
  8
0
 62
     0
 10
60.3924
 20
109.874
 30
0.0
 11
59.9916
 21
109.571
 31
0.0
  0
LINE
  8
0
 62
     0
 10
59.9916
 20
109.571
 30
0.0
 11
60.1003
 21
109.248
 31
0.0
  0
LINE
  8
0
 62
     0
 10
60.1003
 20
109.248
 30
0.0
 11
60.7452
 21
108.956
 31
0.0
  0
LINE
  8
0
 62
     0
 10
60.7452
 20
108.956
 30
0.0
 11
61.1724
 21
108.829
 31
0.0
  0
LINE
  8
0
 62
     0
 10
61.1724
 20
108.829
 30
0.0
 11
61.2965
 21
108.756
 31
0.0
  0
LINE
  8
0
 62
     0
 10
61.2965
 20
108.756
 30
0.0
 11
61.1064
 21
108.718
 31
0.0
  0
LINE
  8
0
 62
     0
 10
61.1064
 20
108.718
 30
0.0
 11
60.5896
 21
108.692
 31
0.0
  0
LINE
  8
0
 62
     0
 10
60.5896
 20
108.692
 30
0.0
 11
59.8745
 21
108.526
 31
0.0
  0
LINE
  8
0
 62
     0
 10
59.8745
 20
108.526
 30
0.0
 11
59.6194
 21
108.126
 31
0.0
  0
LINE
  8
0
 62
     0
 10
59.6194
 20
108.126
 30
0.0
 11
59.9419
 21
107.72
 31
0.0
  0
LINE
  8
0
 62
     0
 10
59.9419
 20
107.72
 30
0.0
 11
61.0306
 21
107.597
 31
0.0
  0
LINE
  8
0
 62
     0
 10
61.0306
 20
107.597
 30
0.0
 11
62.0268
 21
107.494
 31
0.0
  0
LINE
  8
0
 62
     0
 10
62.0268
 20
107.494
 30
0.0
 11
62.4417
 21
107.244
 31
0.0
  0
LINE
  8
0
 62
     0
 10
62.4417
 20
107.244
 30
0.0
 11
62.3715
 21
107.043
 31
0.0
  0
LINE
  8
0
 62
     0
 10
62.3715
 20
107.043
 30
0.0
 11
62.0529
 21
106.965
 31
0.0
  0
LINE
  8
0
 62
     0
 10
62.0529
 20
106.965
 30
0.0
 11
61.3255
 21
107.002
 31
0.0
  0
LINE
  8
0
 62
     0
 10
61.3255
 20
107.002
 30
0.0
 11
60.0258
 21
107.149
 31
0.0
  0
LINE
  8
0
 62
     0
 10
56.0917
 20
108.632
 30
0.0
 11
56.0613
 21
109.379
 31
0.0
  0
LINE
  8
0
 62
     0
 10
56.0613
 20
109.379
 30
0.0
 11
55.9319
 21
109.817
 31
0.0
  0
LINE
  8
0
 62
     0
 10
55.9319
 20
109.817
 30
0.0
 11
55.6398
 21
110.047
 31
0.0
  0
LINE
  8
0
 62
     0
 10
55.6398
 20
110.047
 30
0.0
 11
55.1215
 21
110.167
 31
0.0
  0
LINE
  8
0
 62
     0
 10
55.1215
 20
110.167
 30
0.0
 11
54.9106
 21
110.225
 31
0.0
  0
LINE
  8
0
 62
     0
 10
54.9106
 20
110.225
 30
0.0
 11
55.058
 21
110.271
 31
0.0
  0
LINE
  8
0
 62
     0
 10
55.058
 20
110.271
 30
0.0
 11
55.5226
 21
110.302
 31
0.0
  0
LINE
  8
0
 62
     0
 10
55.5226
 20
110.302
 30
0.0
 11
56.2681
 21
110.313
 31
0.0
  0
LINE
  8
0
 62
     0
 10
56.2681
 20
110.313
 30
0.0
 11
57.0107
 21
110.302
 31
0.0
  0
LINE
  8
0
 62
     0
 10
57.0107
 20
110.302
 30
0.0
 11
57.4696
 21
110.271
 31
0.0
  0
LINE
  8
0
 62
     0
 10
57.4696
 20
110.271
 30
0.0
 11
57.6076
 21
110.222
 31
0.0
  0
LINE
  8
0
 62
     0
 10
57.6076
 20
110.222
 30
0.0
 11
57.3885
 21
110.164
 31
0.0
  0
LINE
  8
0
 62
     0
 10
57.3885
 20
110.164
 30
0.0
 11
56.8371
 21
110.051
 31
0.0
  0
LINE
  8
0
 62
     0
 10
56.8371
 20
110.051
 30
0.0
 11
56.5672
 21
109.839
 31
0.0
  0
LINE
  8
0
 62
     0
 10
56.5672
 20
109.839
 30
0.0
 11
56.5161
 21
109.407
 31
0.0
  0
LINE
  8
0
 62
     0
 10
56.5161
 20
109.407
 30
0.0
 11
56.6251
 21
108.629
 31
0.0
  0
LINE
  8
0
 62
     0
 10
56.6251
 20
108.629
 30
0.0
 11
56.7009
 21
107.599
 31
0.0
  0
LINE
  8
0
 62
     0
 10
56.7009
 20
107.599
 30
0.0
 11
56.4762
 21
107.244
 31
0.0
  0
LINE
  8
0
 62
     0
 10
56.4762
 20
107.244
 30
0.0
 11
56.2031
 21
107.652
 31
0.0
  0
LINE
  8
0
 62
     0
 10
56.2031
 20
107.652
 30
0.0
 11
56.0917
 21
108.632
 31
0.0
  0
ENDSEC
  0
EOF
