<?xml version="1.0" standalone="no"?>
<!DOCTYPE svg PUBLIC "-//W3C//DTD SVG 20010904//EN"
 "http://www.w3.org/TR/2001/REC-SVG-20010904/DTD/svg10.dtd">
<svg version="1.0" xmlns="http://www.w3.org/2000/svg"
 width="760.000000pt" height="768.000000pt" viewBox="0 0 760.000000 768.000000"
 preserveAspectRatio="xMidYMid meet">
<metadata>
Created by potrace 1.14, written by Peter Selinger 2001-2017
</metadata>
<g transform="translate(0.000000,768.000000) scale(0.100000,-0.100000)"
fill="#000000" stroke="none">
<path d="M2 5833 l3 -1848 5 1840 5 1840 1785 5 1785 5 -1792 3 -1793 2 2
-1847z"/>
<path d="M3624 7672 c-7 -4 -13 -71 -17 -176 -4 -93 -9 -171 -11 -174 -3 -2
-58 -11 -123 -18 -291 -34 -416 -61 -691 -148 -79 -26 -147 -46 -151 -46 -5 0
-39 73 -76 163 -37 89 -69 164 -71 166 -11 12 -364 -137 -364 -155 0 -7 22
-64 50 -127 46 -105 79 -212 69 -221 -2 -2 -89 -56 -194 -121 -104 -65 -261
-174 -347 -242 -86 -68 -164 -126 -173 -130 -13 -4 -47 25 -129 111 -61 64
-119 116 -127 116 -19 0 -269 -253 -269 -272 0 -7 48 -61 106 -118 58 -58 109
-112 114 -121 7 -12 -50 -104 -236 -380 -224 -332 -248 -364 -272 -363 -15 1
-86 26 -157 57 -72 31 -138 57 -148 59 -15 2 -32 -30 -93 -176 -41 -99 -71
-183 -67 -186 5 -4 78 -35 163 -70 85 -34 157 -64 159 -66 2 -2 -26 -115 -63
-252 -77 -293 -103 -430 -118 -644 l-11 -158 -51 -1 c-28 -1 -112 -4 -186 -8
l-135 -6 -3 -197 -2 -198 189 0 189 0 5 -32 c4 -18 11 -71 17 -118 23 -175 51
-319 89 -453 22 -76 43 -157 46 -181 l7 -42 -161 -64 c-89 -35 -161 -69 -161
-76 0 -22 128 -332 146 -353 1 -1 65 22 141 52 207 84 183 87 244 -34 74 -148
193 -337 325 -513 63 -85 114 -157 114 -161 0 -5 -52 -61 -117 -126 l-116
-118 47 -53 c26 -29 89 -92 139 -140 l91 -86 114 109 c62 60 117 109 121 109
4 0 165 -113 357 -251 320 -230 349 -253 346 -278 -2 -14 -27 -81 -57 -148
-30 -67 -55 -134 -57 -148 -3 -25 5 -30 172 -101 203 -87 180 -93 236 55 21
53 48 117 61 144 28 56 17 56 193 -9 191 -70 434 -124 798 -175 l82 -11 0
-117 c0 -64 3 -146 7 -183 l6 -68 188 0 189 0 0 184 0 184 73 7 c228 21 418
62 750 163 l228 70 25 -57 c14 -31 44 -99 66 -151 22 -52 42 -98 45 -102 7
-13 345 121 358 143 3 4 -24 83 -60 175 -36 92 -62 171 -58 174 34 31 695 500
704 500 7 0 62 -49 123 -110 l112 -110 139 140 140 140 -113 113 c-61 62 -112
121 -112 131 0 20 25 58 85 131 63 76 274 407 340 533 32 62 61 112 65 112 3
0 75 -27 160 -60 160 -62 180 -68 180 -48 0 6 25 70 56 142 31 72 62 148 69
168 l14 37 -160 68 c-145 62 -159 70 -159 93 0 14 16 80 35 148 31 111 48 199
100 532 9 58 19 107 21 109 2 2 89 6 194 9 l190 5 0 192 0 192 -52 7 c-29 3
-114 6 -189 6 l-136 0 -7 73 c-26 286 -74 563 -131 752 -56 190 -67 237 -58
245 4 4 76 33 158 65 83 32 154 61 159 65 9 9 -67 207 -118 306 l-31 62 -143
-60 c-79 -33 -158 -62 -175 -65 -31 -5 -34 -3 -57 48 -61 132 -241 408 -353
541 -67 80 -97 123 -97 139 0 7 52 65 115 130 63 64 115 121 115 126 0 13
-260 273 -273 273 -6 0 -65 -53 -129 -117 -102 -101 -121 -116 -136 -107 -10
6 -97 72 -195 147 -173 133 -312 225 -452 302 -38 21 -71 39 -73 40 -2 2 29
82 68 179 38 97 70 178 70 181 0 3 -5 5 -11 5 -7 0 -80 29 -163 64 -83 35
-160 67 -171 70 -18 5 -28 -13 -89 -155 -39 -88 -73 -162 -77 -165 -4 -2 -108
25 -232 61 -311 90 -537 134 -684 135 l-63 0 0 178 0 179 -107 6 c-139 9 -245
9 -259 -1z m164 -1114 l-3 -291 -25 -8 c-119 -35 -303 -98 -443 -153 l-169
-66 -118 0 c-215 0 -293 -43 -398 -220 -39 -63 -68 -100 -91 -114 l-33 -19
-26 34 c-87 111 -165 168 -215 155 -37 -9 -61 -59 -61 -126 0 -70 20 -108 82
-153 40 -28 51 -43 57 -73 10 -58 22 -72 63 -83 28 -8 53 -29 102 -87 82 -96
82 -95 119 -238 34 -129 66 -191 130 -249 49 -44 120 -86 174 -102 42 -13 44
-16 33 -45 -4 -10 17 -41 59 -87 56 -61 74 -74 120 -87 30 -9 56 -20 59 -25 3
-4 0 -23 -7 -40 l-12 -33 -90 7 c-49 4 -91 11 -93 16 -2 4 -30 43 -63 85 -32
42 -68 92 -80 111 -13 21 -42 44 -79 63 -68 34 -154 125 -194 204 -18 36 -35
95 -47 168 -23 135 -31 161 -65 206 -28 36 -93 71 -131 72 -13 0 -23 6 -23 13
0 6 -9 27 -21 46 l-20 33 -24 -22 c-40 -38 -145 -190 -185 -270 -78 -156 -119
-347 -106 -505 4 -44 16 -128 27 -187 11 -59 21 -137 22 -175 2 -59 0 -68 -17
-71 -24 -5 -36 14 -36 56 0 21 -27 87 -75 182 -61 119 -85 158 -125 193 -57
51 -119 73 -181 63 -98 -16 -114 -47 -113 -221 0 -110 4 -139 22 -186 12 -31
31 -64 42 -74 21 -19 25 -86 12 -189 l-7 -50 -81 -46 c-144 -83 -174 -113
-188 -190 -3 -20 -39 -89 -80 -153 -83 -132 -90 -153 -131 -410 -29 -183 -31
-262 -9 -338 26 -88 118 -269 171 -334 61 -75 168 -156 253 -192 62 -27 72
-28 230 -28 143 0 170 -3 193 -18 27 -17 29 -17 86 3 32 12 71 20 87 18 38 -4
41 -21 43 -229 2 -266 25 -343 121 -391 72 -37 151 -38 259 -2 76 25 79 25
131 10 30 -9 84 -16 120 -16 l67 0 6 -72 c6 -75 10 -82 44 -92 18 -6 23 -1 36
36 l14 43 7 -42 c9 -48 12 -50 44 -27 22 15 22 15 21 -43 0 -76 -18 -124 -51
-142 -34 -19 -53 -5 -84 64 l-22 50 5 -45 c13 -112 66 -151 123 -90 l29 31 15
-30 c21 -40 63 -71 97 -71 31 0 85 40 94 70 9 28 21 25 35 -10 16 -39 46 -60
86 -60 32 0 52 16 76 63 l14 28 19 -41 c18 -41 57 -70 92 -70 28 0 64 29 78
63 l13 31 16 -32 c31 -60 87 -78 147 -47 l29 16 -2 -248 -3 -248 -120 2 c-475
6 -1083 221 -1545 546 -227 159 -463 379 -616 572 -444 562 -700 1331 -670
2015 20 454 115 827 316 1235 360 733 999 1289 1770 1540 275 89 513 133 848
154 l22 1 -2 -292z m259 -328 c252 -31 304 -44 419 -101 198 -99 341 -204 590
-437 409 -382 492 -499 527 -733 10 -74 10 -80 -22 -175 -35 -106 -51 -216
-76 -499 -18 -197 -22 -579 -7 -662 7 -42 6 -53 -4 -53 -25 0 -83 61 -108 113
-14 29 -25 44 -26 34 -1 -53 83 -162 154 -200 35 -19 57 -22 146 -23 l105 0
12 -100 c16 -140 15 -307 -2 -388 -18 -86 -88 -230 -154 -317 -94 -123 -258
-259 -314 -259 -10 0 -22 12 -28 27 -85 225 -228 354 -444 398 -63 13 -127 15
-310 13 -230 -3 -230 -3 -285 23 -30 14 -86 51 -125 82 -38 31 -71 54 -73 52
-2 -1 13 -24 32 -49 59 -77 67 -137 41 -286 -8 -47 -15 -86 -15 -87 0 -20 191
32 238 64 34 24 42 25 118 19 105 -8 205 -39 249 -77 19 -17 57 -56 84 -88
l49 -57 -34 -72 c-19 -41 -41 -72 -49 -72 -8 0 -21 -13 -29 -29 -9 -16 -27
-43 -42 -60 -22 -27 -26 -38 -21 -74 6 -42 30 -70 57 -65 18 4 29 58 29 146 1
34 5 62 11 62 34 0 78 -96 66 -144 -5 -19 -13 -26 -31 -26 -24 0 -25 -3 -25
-57 0 -58 -13 -129 -25 -141 -3 -3 -19 -1 -35 5 l-30 11 0 -53 c0 -30 -5 -66
-11 -82 -11 -26 -13 -21 -30 72 -17 88 -17 108 -6 182 8 46 12 83 9 83 -2 0
-16 -9 -32 -20 -30 -22 -35 -19 -73 43 -10 15 -21 27 -25 27 -14 0 -41 -67
-48 -121 -6 -43 -15 -61 -54 -104 -39 -43 -51 -66 -66 -124 -15 -56 -22 -70
-34 -65 -45 19 -53 18 -47 -7 3 -13 13 -44 22 -69 23 -61 18 -249 -8 -297 -19
-36 -71 -57 -122 -51 l-30 3 -13 110 c-12 104 -12 114 8 171 11 33 20 68 20
77 0 27 -18 20 -35 -14 -16 -29 -17 -30 -35 -14 -10 9 -38 41 -61 71 -75 93
-77 61 -4 -66 24 -41 50 -100 59 -130 19 -69 29 -204 18 -250 -7 -32 -12 -36
-60 -46 -29 -7 -79 -10 -112 -7 l-58 6 -7 81 c-4 44 -4 288 -2 541 6 554 5
546 124 700 72 91 95 139 96 195 1 61 -35 123 -102 173 -28 21 -60 54 -71 72
-46 74 -46 71 -42 1688 l4 1527 27 0 c15 0 99 -9 188 -20z m-981 -351 c105
-32 146 -59 178 -121 36 -67 72 -105 105 -113 l26 -6 34 -317 c18 -174 35
-326 37 -338 2 -11 36 -52 76 -91 59 -57 81 -72 115 -78 53 -8 63 -2 63 38 0
18 4 37 8 43 7 11 65 44 77 44 15 0 2 -75 -20 -116 -14 -26 -25 -60 -25 -75 0
-26 -3 -29 -34 -29 -30 0 -35 -4 -41 -30 -4 -16 -11 -30 -17 -30 -6 0 -67 45
-135 101 -69 55 -136 105 -149 111 -27 13 -24 -8 -65 388 -29 285 -40 340 -69
340 -6 0 -27 26 -46 58 -75 118 -113 141 -250 149 -52 3 -94 9 -94 13 0 12 54
59 80 69 38 15 72 13 146 -10z m2946 -10 c33 -16 189 -209 278 -343 537 -807
665 -1803 347 -2696 -145 -408 -350 -743 -660 -1080 -143 -155 -295 -285 -313
-267 -6 6 25 43 170 202 212 233 355 441 481 700 320 658 414 1420 265 2155
-86 427 -239 789 -501 1182 -110 165 -111 168 -67 147z m-4369 -1263 c43 -18
119 -101 151 -164 23 -46 55 -155 56 -189 0 -10 -25 -13 -94 -13 l-95 0 -45
89 c-67 136 -84 254 -38 280 22 14 27 13 65 -3z m123 -422 c30 -8 54 -19 54
-24 0 -5 -22 -16 -50 -25 -112 -37 -144 -119 -144 -370 -1 -93 3 -194 7 -222
6 -36 5 -53 -2 -53 -20 0 -33 43 -46 161 -8 65 -20 149 -26 186 -20 116 4 276
52 337 25 31 72 35 155 10z m161 -36 c6 -7 20 -43 32 -79 15 -47 37 -84 71
-123 27 -31 53 -63 58 -72 7 -13 13 -13 36 -3 35 16 53 1 37 -30 -9 -16 -21
-21 -49 -21 -32 0 -44 8 -99 65 -35 36 -65 78 -69 93 -3 15 -16 62 -28 105
-17 56 -20 77 -11 77 7 0 17 -6 22 -12z m1181 -104 c44 -8 117 -35 170 -60 74
-36 107 -59 166 -118 75 -77 138 -179 150 -246 l7 -35 -26 30 c-15 17 -44 51
-66 78 l-40 47 -65 0 -64 0 0 54 c0 45 -4 58 -22 70 -12 9 -26 16 -30 16 -5 0
-8 -34 -8 -76 l0 -75 -47 3 -48 3 0 99 c0 90 -2 100 -20 107 -11 4 -23 8 -27
8 -5 1 -8 -46 -8 -104 l0 -105 -50 0 -49 0 -3 108 c-3 101 -4 107 -25 110 -28
4 -36 -32 -31 -141 l3 -82 -47 -3 -48 -3 0 100 c0 100 0 101 -24 101 -35 0
-40 -15 -37 -106 l3 -81 -44 -6 c-23 -3 -45 -3 -48 -1 -3 3 -7 30 -10 60 -5
53 -5 53 -30 41 -21 -11 -25 -20 -25 -57 l0 -44 -58 3 c-57 2 -59 2 -97 -40
-22 -24 -42 -41 -44 -38 -12 11 64 147 110 198 85 94 194 153 341 185 89 19
100 19 191 0z m-1663 -190 c-8 -32 -15 -71 -15 -86 0 -28 -19 -78 -29 -78 -9
0 -48 61 -66 102 l-15 38 67 44 c38 24 69 42 71 41 1 -1 -4 -28 -13 -61z
m1976 -144 c18 -10 19 -24 19 -295 l0 -285 -50 0 -50 0 0 289 c0 267 1 290 18
294 30 8 43 7 63 -3z m-761 -123 c0 -68 3 -199 7 -290 l6 -167 -51 0 -52 0 0
290 0 290 45 0 45 0 0 -123z m160 -161 l0 -284 -22 -6 c-13 -3 -35 -6 -50 -6
l-28 0 0 290 0 290 50 0 50 0 0 -284z m150 -6 l0 -290 -45 0 -45 0 0 290 0
290 45 0 45 0 0 -290z m160 0 l0 -290 -44 0 c-42 0 -44 1 -50 38 -3 20 -6 151
-6 290 l0 252 50 0 50 0 0 -290z m150 0 l0 -290 -50 0 -50 0 0 290 0 290 50 0
50 0 0 -290z m-1778 160 c47 -14 68 -43 68 -97 0 -61 15 -66 208 -71 l162 -5
0 -92 0 -92 -39 -18 c-52 -23 -117 -89 -132 -132 -17 -52 -6 -104 50 -238 66
-161 66 -165 13 -185 -45 -17 -80 -45 -69 -56 4 -4 15 0 25 9 16 15 83 47 97
47 16 0 -30 -49 -62 -67 -52 -29 -161 -56 -201 -49 -113 18 -219 110 -287 250
-98 200 -100 419 -6 616 17 36 31 72 31 80 0 8 5 32 10 52 9 30 17 40 43 47
43 12 46 12 89 1z m512 -396 c9 -23 1 -31 -64 -64 -32 -16 -66 -40 -74 -52
-31 -43 -20 -133 40 -332 12 -37 -16 -5 -45 52 -38 76 -71 185 -71 236 0 60
36 107 111 145 70 35 94 38 103 15z m1774 -46 l3 -37 -58 -17 c-71 -20 -117
-65 -185 -179 -45 -74 -48 -84 -48 -147 0 -77 -14 -96 -30 -39 -21 78 19 247
79 335 48 69 146 129 206 124 27 -3 30 -7 33 -40z m-288 -53 c-33 -54 -116
-123 -194 -160 -179 -86 -383 -87 -555 -2 -76 37 -168 120 -177 160 -6 26 -5
27 40 27 44 0 46 -1 46 -28 0 -29 16 -52 36 -52 7 0 15 18 19 40 l7 40 48 0
49 0 3 -56 c2 -42 8 -60 21 -68 25 -16 37 7 37 72 l0 52 45 0 45 0 0 -42 c0
-24 3 -60 6 -80 6 -32 11 -38 30 -38 23 0 24 3 24 80 l0 80 44 0 43 0 7 -46
c3 -26 6 -59 6 -74 0 -24 3 -27 25 -22 24 4 25 8 25 73 l0 69 50 0 50 0 0 -45
c0 -44 1 -45 23 -34 28 15 37 28 37 57 0 20 5 22 63 22 34 1 73 7 87 15 33 18
37 3 10 -40z m-316 -307 c9 -77 7 -153 -4 -182 -8 -23 -15 -26 -60 -26 -27 0
-50 1 -50 3 0 1 -4 28 -10 61 -11 70 -44 117 -103 148 -48 26 -56 23 103 37
52 5 100 9 106 10 6 0 14 -22 18 -51z m-520 -119 c16 -46 -31 -126 -137 -237
-113 -118 -152 -189 -144 -258 7 -66 47 -109 153 -166 89 -48 134 -86 134
-113 0 -8 -19 -24 -42 -36 -35 -18 -47 -20 -77 -10 -58 17 -126 87 -177 181
-47 86 -88 139 -100 127 -4 -3 -1 -41 5 -84 16 -110 51 -164 166 -260 l50 -41
-30 -12 c-16 -7 -57 -14 -91 -17 -74 -7 -112 10 -153 67 -46 64 -60 141 -63
353 l-3 187 31 0 c17 0 52 -11 77 -25 l47 -24 16 32 c10 18 61 78 116 134 76
78 106 117 129 168 27 60 32 66 57 63 18 -2 29 -11 36 -29z m1896 -650 c24
-69 30 -100 30 -174 0 -132 -17 -271 -40 -322 -17 -39 -22 -43 -39 -33 -28 15
-36 30 -36 74 0 26 -6 42 -17 50 -24 15 -36 0 -47 -57 -9 -48 -34 -87 -56 -87
-31 0 -46 180 -25 291 11 57 40 121 57 126 6 2 15 -9 21 -24 l9 -28 7 40 c21
122 41 198 58 226 17 28 21 30 34 17 9 -8 28 -53 44 -99z m-1446 -81 c49 -22
73 -87 61 -165 -6 -42 -8 -44 -34 -38 -24 5 -29 1 -44 -30 -13 -28 -22 -35
-46 -35 -28 0 -30 3 -37 46 -15 100 13 216 53 227 10 3 19 5 20 6 1 0 13 -4
27 -11z m-169 -20 c15 -12 34 -36 41 -54 15 -36 18 -116 5 -149 -7 -18 -9 -18
-33 6 -14 14 -27 32 -30 39 -3 10 -14 4 -37 -23 -18 -20 -37 -37 -42 -37 -13
0 -11 143 2 177 13 34 38 63 54 63 7 0 25 -10 40 -22z m413 -12 c33 -33 43
-89 29 -161 -10 -49 -16 -60 -32 -60 -13 0 -27 13 -40 37 -11 21 -23 38 -27
38 -3 0 -10 -13 -16 -28 -5 -16 -18 -36 -27 -46 -16 -16 -19 -16 -27 -3 -4 9
-11 43 -14 76 -15 140 74 225 154 147z m199 19 c29 -21 45 -79 34 -128 -9 -39
-57 -117 -72 -117 -4 0 -11 16 -15 35 -8 45 -16 49 -52 31 l-30 -15 -6 37 c-3
20 -6 54 -6 75 0 76 87 124 147 82z m210 -24 c22 -33 23 -40 23 -288 0 -277
-6 -312 -55 -335 -22 -10 -30 -8 -53 8 -50 37 -62 77 -62 207 0 64 4 117 8
117 5 0 19 -12 33 -26 l24 -25 18 22 c13 17 21 19 29 11 21 -21 26 -13 33 54
9 83 -7 129 -37 113 -11 -6 -37 -26 -58 -45 -20 -19 -40 -34 -44 -34 -13 0 -6
181 9 210 32 61 95 66 132 11z m-462 -242 c4 -11 4 -31 1 -44 -3 -13 -2 -34 3
-46 8 -23 8 -23 24 8 25 47 43 49 51 5 8 -48 8 -151 0 -191 -15 -73 -88 -105
-132 -58 -31 33 -42 78 -42 174 l0 83 30 -6 c28 -6 30 -4 30 22 0 64 22 96 35
53z m-122 -143 c-1 -132 -13 -175 -54 -196 -31 -17 -70 -8 -91 21 -27 35 -37
89 -38 187 0 80 1 82 20 72 11 -6 20 -17 20 -25 0 -8 4 -15 10 -15 19 0 80 34
80 45 0 6 7 21 16 34 29 41 38 10 37 -123z m311 26 c-5 -54 -4 -56 11 -37 9
11 17 29 19 40 20 108 33 124 63 79 24 -37 23 -177 -2 -249 -39 -113 -110
-128 -151 -30 -16 39 -34 169 -34 246 l0 59 50 -25 50 -25 -6 -58z"/>
<path d="M4676 4258 c-3 -7 -7 -63 -10 -125 -7 -141 -18 -186 -71 -298 -132
-276 -472 -525 -657 -483 -23 5 -43 7 -45 4 -11 -11 55 -111 97 -148 45 -40
138 -93 147 -85 2 3 -8 24 -23 46 -15 23 -24 44 -21 47 14 15 113 -19 153 -52
78 -63 161 -86 400 -109 87 -8 183 -20 214 -27 85 -17 121 -6 177 56 66 72
102 140 86 164 -89 144 -109 256 -77 450 26 158 10 236 -70 336 -27 34 -276
236 -291 236 -3 0 -7 -6 -9 -12z"/>
<path d="M5791 7673 c1475 -3 1778 -5 1788 -17 8 -9 12 -513 14 -1842 l2
-1829 3 1848 2 1847 -1792 -2 -1793 -3 1776 -2z"/>
<path d="M2 1773 l-2 -1773 1793 2 1792 3 -1774 2 c-1289 2 -1778 6 -1787 14
-12 10 -14 310 -17 1768 l-2 1756 -3 -1772z"/>
<path d="M7588 1778 l-3 -1763 -1785 -5 -1785 -5 1793 -3 1792 -2 0 1770 c0
974 -2 1770 -5 1770 -3 0 -6 -793 -7 -1762z"/>
</g>
</svg>
