solid
 facet normal  0.000000e+00  1.000000e+00 -0.000000e+00
   outer loop
     vertex  1.920000e+01  2.220000e+01  0.000000e+00
     vertex  1.080000e+01  2.220000e+01  0.000000e+00
     vertex  1.080000e+01  2.220000e+01  1.000000e+00
   endloop
 endfacet
 facet normal  0.000000e+00  1.000000e+00  0.000000e+00
   outer loop
     vertex  1.920000e+01  2.220000e+01  1.000000e+00
     vertex  1.920000e+01  2.220000e+01  0.000000e+00
     vertex  1.080000e+01  2.220000e+01  1.000000e+00
   endloop
 endfacet
 facet normal  0.000000e+00  0.000000e+00 -1.000000e+00
   outer loop
     vertex  1.920000e+01  8.000000e+00  0.000000e+00
     vertex  1.080000e+01  8.000000e+00  0.000000e+00
     vertex  1.080000e+01  2.220000e+01  0.000000e+00
   endloop
 endfacet
 facet normal  0.000000e+00  0.000000e+00 -1.000000e+00
   outer loop
     vertex  1.920000e+01  8.000000e+00  0.000000e+00
     vertex  1.080000e+01  2.220000e+01  0.000000e+00
     vertex  1.920000e+01  2.220000e+01  0.000000e+00
   endloop
 endfacet
 facet normal  1.000000e+00  0.000000e+00  0.000000e+00
   outer loop
     vertex  1.920000e+01  8.000000e+00  0.000000e+00
     vertex  1.920000e+01  2.220000e+01  0.000000e+00
     vertex  1.920000e+01  2.220000e+01  1.000000e+00
   endloop
 endfacet
 facet normal  1.000000e+00 -0.000000e+00  0.000000e+00
   outer loop
     vertex  1.920000e+01  8.000000e+00  1.000000e+00
     vertex  1.920000e+01  8.000000e+00  0.000000e+00
     vertex  1.920000e+01  2.220000e+01  1.000000e+00
   endloop
 endfacet
 facet normal -0.000000e+00  0.000000e+00  1.000000e+00
   outer loop
     vertex  1.080000e+01  2.220000e+01  1.000000e+00
     vertex  1.080000e+01  8.000000e+00  1.000000e+00
     vertex  1.920000e+01  8.000000e+00  1.000000e+00
   endloop
 endfacet
 facet normal  0.000000e+00  0.000000e+00  1.000000e+00
   outer loop
     vertex  1.920000e+01  2.220000e+01  1.000000e+00
     vertex  1.080000e+01  2.220000e+01  1.000000e+00
     vertex  1.920000e+01  8.000000e+00  1.000000e+00
   endloop
 endfacet
 facet normal -1.000000e+00 -0.000000e+00 -0.000000e+00
   outer loop
     vertex  1.080000e+01  2.220000e+01  1.000000e+00
     vertex  1.080000e+01  2.220000e+01  0.000000e+00
     vertex  1.080000e+01  8.000000e+00  0.000000e+00
   endloop
 endfacet
 facet normal -1.000000e+00 -0.000000e+00  0.000000e+00
   outer loop
     vertex  1.080000e+01  2.220000e+01  1.000000e+00
     vertex  1.080000e+01  8.000000e+00  0.000000e+00
     vertex  1.080000e+01  8.000000e+00  1.000000e+00
   endloop
 endfacet
 facet normal  0.000000e+00  0.000000e+00 -1.000000e+00
   outer loop
     vertex  0.000000e+00  0.000000e+00  0.000000e+00
     vertex  1.000000e+01  8.000000e+00  0.000000e+00
     vertex  1.080000e+01  8.000000e+00  0.000000e+00
   endloop
 endfacet
 facet normal  0.000000e+00  0.000000e+00 -1.000000e+00
   outer loop
     vertex  1.920000e+01  8.000000e+00  0.000000e+00
     vertex  2.000000e+01  8.000000e+00  0.000000e+00
     vertex  3.000000e+01  0.000000e+00  0.000000e+00
   endloop
 endfacet
 facet normal  0.000000e+00  0.000000e+00 -1.000000e+00
   outer loop
     vertex  1.080000e+01  8.000000e+00  0.000000e+00
     vertex  1.920000e+01  8.000000e+00  0.000000e+00
     vertex  3.000000e+01  0.000000e+00  0.000000e+00
   endloop
 endfacet
 facet normal  0.000000e+00  0.000000e+00 -1.000000e+00
   outer loop
     vertex  0.000000e+00  0.000000e+00  0.000000e+00
     vertex  1.080000e+01  8.000000e+00  0.000000e+00
     vertex  3.000000e+01  0.000000e+00  0.000000e+00
   endloop
 endfacet
 facet normal -0.000000e+00  0.000000e+00 -1.000000e+00
   outer loop
     vertex  1.000000e+01  8.000000e+00  0.000000e+00
     vertex  0.000000e+00  0.000000e+00  0.000000e+00
     vertex  0.000000e+00  3.000000e+01  0.000000e+00
   endloop
 endfacet
 facet normal  0.000000e+00  0.000000e+00 -1.000000e+00
   outer loop
     vertex  1.000000e+01  8.000000e+00  0.000000e+00
     vertex  0.000000e+00  3.000000e+01  0.000000e+00
     vertex  1.000000e+01  2.300000e+01  0.000000e+00
   endloop
 endfacet
 facet normal  0.000000e+00  0.000000e+00 -1.000000e+00
   outer loop
     vertex  2.000000e+01  2.300000e+01  0.000000e+00
     vertex  1.000000e+01  2.300000e+01  0.000000e+00
     vertex  3.000000e+01  3.000000e+01  0.000000e+00
   endloop
 endfacet
 facet normal  0.000000e+00  0.000000e+00 -1.000000e+00
   outer loop
     vertex  2.000000e+01  8.000000e+00  0.000000e+00
     vertex  2.000000e+01  2.300000e+01  0.000000e+00
     vertex  3.000000e+01  3.000000e+01  0.000000e+00
   endloop
 endfacet
 facet normal  0.000000e+00  0.000000e+00 -1.000000e+00
   outer loop
     vertex  3.000000e+01  0.000000e+00  0.000000e+00
     vertex  2.000000e+01  8.000000e+00  0.000000e+00
     vertex  3.000000e+01  3.000000e+01  0.000000e+00
   endloop
 endfacet
 facet normal  0.000000e+00  0.000000e+00 -1.000000e+00
   outer loop
     vertex  1.000000e+01  2.300000e+01  0.000000e+00
     vertex  0.000000e+00  3.000000e+01  0.000000e+00
     vertex  3.000000e+01  3.000000e+01  0.000000e+00
   endloop
 endfacet
 facet normal  0.000000e+00  1.000000e+00  0.000000e+00
   outer loop
     vertex  2.000000e+01  8.000000e+00  1.000000e+00
     vertex  2.000000e+01  8.000000e+00  0.000000e+00
     vertex  1.920000e+01  8.000000e+00  0.000000e+00
   endloop
 endfacet
 facet normal  0.000000e+00  1.000000e+00 -0.000000e+00
   outer loop
     vertex  2.000000e+01  8.000000e+00  1.000000e+00
     vertex  1.920000e+01  8.000000e+00  0.000000e+00
     vertex  1.920000e+01  8.000000e+00  1.000000e+00
   endloop
 endfacet
 facet normal  0.000000e+00  0.000000e+00  1.000000e+00
   outer loop
     vertex  1.080000e+01  8.000000e+00  1.000000e+00
     vertex  1.000000e+01  8.000000e+00  1.000000e+00
     vertex  0.000000e+00  0.000000e+00  1.000000e+00
   endloop
 endfacet
 facet normal  0.000000e+00  0.000000e+00  1.000000e+00
   outer loop
     vertex  3.000000e+01  0.000000e+00  1.000000e+00
     vertex  2.000000e+01  8.000000e+00  1.000000e+00
     vertex  1.920000e+01  8.000000e+00  1.000000e+00
   endloop
 endfacet
 facet normal  0.000000e+00  0.000000e+00  1.000000e+00
   outer loop
     vertex  3.000000e+01  0.000000e+00  1.000000e+00
     vertex  1.920000e+01  8.000000e+00  1.000000e+00
     vertex  1.080000e+01  8.000000e+00  1.000000e+00
   endloop
 endfacet
 facet normal  0.000000e+00  0.000000e+00  1.000000e+00
   outer loop
     vertex  3.000000e+01  0.000000e+00  1.000000e+00
     vertex  1.080000e+01  8.000000e+00  1.000000e+00
     vertex  0.000000e+00  0.000000e+00  1.000000e+00
   endloop
 endfacet
 facet normal -0.000000e+00  0.000000e+00  1.000000e+00
   outer loop
     vertex  0.000000e+00  3.000000e+01  1.000000e+00
     vertex  0.000000e+00  0.000000e+00  1.000000e+00
     vertex  1.000000e+01  8.000000e+00  1.000000e+00
   endloop
 endfacet
 facet normal  0.000000e+00  0.000000e+00  1.000000e+00
   outer loop
     vertex  1.000000e+01  2.300000e+01  1.000000e+00
     vertex  0.000000e+00  3.000000e+01  1.000000e+00
     vertex  1.000000e+01  8.000000e+00  1.000000e+00
   endloop
 endfacet
 facet normal -0.000000e+00  0.000000e+00  1.000000e+00
   outer loop
     vertex  3.000000e+01  3.000000e+01  1.000000e+00
     vertex  1.000000e+01  2.300000e+01  1.000000e+00
     vertex  2.000000e+01  2.300000e+01  1.000000e+00
   endloop
 endfacet
 facet normal  0.000000e+00  0.000000e+00  1.000000e+00
   outer loop
     vertex  3.000000e+01  3.000000e+01  1.000000e+00
     vertex  2.000000e+01  2.300000e+01  1.000000e+00
     vertex  2.000000e+01  8.000000e+00  1.000000e+00
   endloop
 endfacet
 facet normal  0.000000e+00  0.000000e+00  1.000000e+00
   outer loop
     vertex  3.000000e+01  3.000000e+01  1.000000e+00
     vertex  2.000000e+01  8.000000e+00  1.000000e+00
     vertex  3.000000e+01  0.000000e+00  1.000000e+00
   endloop
 endfacet
 facet normal  0.000000e+00  0.000000e+00  1.000000e+00
   outer loop
     vertex  3.000000e+01  3.000000e+01  1.000000e+00
     vertex  0.000000e+00  3.000000e+01  1.000000e+00
     vertex  1.000000e+01  2.300000e+01  1.000000e+00
   endloop
 endfacet
 facet normal  0.000000e+00  1.000000e+00  0.000000e+00
   outer loop
     vertex  1.080000e+01  8.000000e+00  1.000000e+00
     vertex  1.080000e+01  8.000000e+00  0.000000e+00
     vertex  1.000000e+01  8.000000e+00  0.000000e+00
   endloop
 endfacet
 facet normal  0.000000e+00  1.000000e+00 -0.000000e+00
   outer loop
     vertex  1.080000e+01  8.000000e+00  1.000000e+00
     vertex  1.000000e+01  8.000000e+00  0.000000e+00
     vertex  1.000000e+01  8.000000e+00  1.000000e+00
   endloop
 endfacet
 facet normal -1.000000e+00 -0.000000e+00 -0.000000e+00
   outer loop
     vertex  0.000000e+00  3.000000e+01  1.000000e+00
     vertex  0.000000e+00  3.000000e+01  0.000000e+00
     vertex  0.000000e+00  0.000000e+00  1.000000e+00
   endloop
 endfacet
 facet normal -1.000000e+00  0.000000e+00  0.000000e+00
   outer loop
     vertex  0.000000e+00  3.000000e+01  0.000000e+00
     vertex  0.000000e+00  0.000000e+00  0.000000e+00
     vertex  0.000000e+00  0.000000e+00  1.000000e+00
   endloop
 endfacet
 facet normal  0.000000e+00  1.000000e+00  0.000000e+00
   outer loop
     vertex  3.000000e+01  3.000000e+01  1.000000e+00
     vertex  3.000000e+01  3.000000e+01  0.000000e+00
     vertex  0.000000e+00  3.000000e+01  0.000000e+00
   endloop
 endfacet
 facet normal  0.000000e+00  1.000000e+00 -0.000000e+00
   outer loop
     vertex  3.000000e+01  3.000000e+01  1.000000e+00
     vertex  0.000000e+00  3.000000e+01  0.000000e+00
     vertex  0.000000e+00  3.000000e+01  1.000000e+00
   endloop
 endfacet
 facet normal  0.000000e+00 -1.000000e+00  0.000000e+00
   outer loop
     vertex  0.000000e+00  0.000000e+00  0.000000e+00
     vertex  3.000000e+01  0.000000e+00  0.000000e+00
     vertex  3.000000e+01  0.000000e+00  1.000000e+00
   endloop
 endfacet
 facet normal  0.000000e+00 -1.000000e+00  0.000000e+00
   outer loop
     vertex  0.000000e+00  0.000000e+00  1.000000e+00
     vertex  0.000000e+00  0.000000e+00  0.000000e+00
     vertex  3.000000e+01  0.000000e+00  1.000000e+00
   endloop
 endfacet
 facet normal  1.000000e+00 -0.000000e+00  0.000000e+00
   outer loop
     vertex  3.000000e+01  0.000000e+00  1.000000e+00
     vertex  3.000000e+01  3.000000e+01  0.000000e+00
     vertex  3.000000e+01  3.000000e+01  1.000000e+00
   endloop
 endfacet
 facet normal  1.000000e+00 -0.000000e+00  0.000000e+00
   outer loop
     vertex  3.000000e+01  0.000000e+00  1.000000e+00
     vertex  3.000000e+01  0.000000e+00  0.000000e+00
     vertex  3.000000e+01  3.000000e+01  0.000000e+00
   endloop
 endfacet
 facet normal  0.000000e+00 -1.000000e+00  0.000000e+00
   outer loop
     vertex  1.000000e+01  2.300000e+01  0.000000e+00
     vertex  2.000000e+01  2.300000e+01  0.000000e+00
     vertex  2.000000e+01  2.300000e+01  1.000000e+00
   endloop
 endfacet
 facet normal  0.000000e+00 -1.000000e+00  0.000000e+00
   outer loop
     vertex  1.000000e+01  2.300000e+01  1.000000e+00
     vertex  1.000000e+01  2.300000e+01  0.000000e+00
     vertex  2.000000e+01  2.300000e+01  1.000000e+00
   endloop
 endfacet
 facet normal -1.000000e+00  0.000000e+00  0.000000e+00
   outer loop
     vertex  2.000000e+01  2.300000e+01  0.000000e+00
     vertex  2.000000e+01  8.000000e+00  0.000000e+00
     vertex  2.000000e+01  8.000000e+00  1.000000e+00
   endloop
 endfacet
 facet normal -1.000000e+00 -0.000000e+00 -0.000000e+00
   outer loop
     vertex  2.000000e+01  2.300000e+01  1.000000e+00
     vertex  2.000000e+01  2.300000e+01  0.000000e+00
     vertex  2.000000e+01  8.000000e+00  1.000000e+00
   endloop
 endfacet
 facet normal  1.000000e+00 -0.000000e+00  0.000000e+00
   outer loop
     vertex  1.000000e+01  8.000000e+00  1.000000e+00
     vertex  1.000000e+01  8.000000e+00  0.000000e+00
     vertex  1.000000e+01  2.300000e+01  0.000000e+00
   endloop
 endfacet
 facet normal  1.000000e+00 -0.000000e+00  0.000000e+00
   outer loop
     vertex  1.000000e+01  8.000000e+00  1.000000e+00
     vertex  1.000000e+01  2.300000e+01  0.000000e+00
     vertex  1.000000e+01  2.300000e+01  1.000000e+00
   endloop
 endfacet
endsolid
