solid
 facet normal  9.991458e-01  4.132497e-02  0.000000e+00
   outer loop
     vertex  1.494877e+00  1.238690e-01  1.000000e+01
     vertex  1.500000e+00 -3.673940e-16  1.000000e+01
     vertex  1.500000e+00 -3.673940e-16  0.000000e+00
   endloop
 endfacet
 facet normal  9.991458e-01  4.132497e-02  0.000000e+00
   outer loop
     vertex  1.494877e+00  1.238690e-01  1.000000e+01
     vertex  1.500000e+00 -3.673940e-16  0.000000e+00
     vertex  1.494877e+00  1.238690e-01  0.000000e+00
   endloop
 endfacet
 facet normal  9.923206e-01  1.236926e-01  0.000000e+00
   outer loop
     vertex  1.479542e+00  2.468919e-01  1.000000e+01
     vertex  1.494877e+00  1.238690e-01  1.000000e+01
     vertex  1.494877e+00  1.238690e-01  0.000000e+00
   endloop
 endfacet
 facet normal  9.923206e-01  1.236926e-01  0.000000e+00
   outer loop
     vertex  1.479542e+00  2.468919e-01  1.000000e+01
     vertex  1.494877e+00  1.238690e-01  0.000000e+00
     vertex  1.479542e+00  2.468919e-01  0.000000e+00
   endloop
 endfacet
 facet normal  9.787168e-01  2.052153e-01  0.000000e+00
   outer loop
     vertex  1.454100e+00  3.682282e-01  1.000000e+01
     vertex  1.479542e+00  2.468919e-01  1.000000e+01
     vertex  1.479542e+00  2.468919e-01  0.000000e+00
   endloop
 endfacet
 facet normal  9.787168e-01  2.052153e-01  0.000000e+00
   outer loop
     vertex  1.454100e+00  3.682282e-01  1.000000e+01
     vertex  1.479542e+00  2.468919e-01  0.000000e+00
     vertex  1.454100e+00  3.682282e-01  0.000000e+00
   endloop
 endfacet
 facet normal  9.584275e-01  2.853362e-01  0.000000e+00
   outer loop
     vertex  1.418726e+00  4.870492e-01  1.000000e+01
     vertex  1.454100e+00  3.682282e-01  1.000000e+01
     vertex  1.454100e+00  3.682282e-01  0.000000e+00
   endloop
 endfacet
 facet normal  9.584275e-01  2.853362e-01  0.000000e+00
   outer loop
     vertex  1.418726e+00  4.870492e-01  1.000000e+01
     vertex  1.454100e+00  3.682282e-01  0.000000e+00
     vertex  1.418726e+00  4.870492e-01  0.000000e+00
   endloop
 endfacet
 facet normal  9.315911e-01  3.635080e-01  0.000000e+00
   outer loop
     vertex  1.373660e+00  6.025431e-01  1.000000e+01
     vertex  1.418726e+00  4.870492e-01  1.000000e+01
     vertex  1.418726e+00  4.870492e-01  0.000000e+00
   endloop
 endfacet
 facet normal  9.315911e-01  3.635080e-01  0.000000e+00
   outer loop
     vertex  1.373660e+00  6.025431e-01  1.000000e+01
     vertex  1.418726e+00  4.870492e-01  0.000000e+00
     vertex  1.373660e+00  6.025431e-01  0.000000e+00
   endloop
 endfacet
 facet normal  8.983910e-01  4.391966e-01  0.000000e+00
   outer loop
     vertex  1.319211e+00  7.139211e-01  1.000000e+01
     vertex  1.373660e+00  6.025431e-01  1.000000e+01
     vertex  1.373660e+00  6.025431e-01  0.000000e+00
   endloop
 endfacet
 facet normal  8.983910e-01  4.391966e-01  0.000000e+00
   outer loop
     vertex  1.319211e+00  7.139211e-01  1.000000e+01
     vertex  1.373660e+00  6.025431e-01  0.000000e+00
     vertex  1.319211e+00  7.139211e-01  0.000000e+00
   endloop
 endfacet
 facet normal  8.590540e-01  5.118850e-01  0.000000e+00
   outer loop
     vertex  1.255750e+00  8.204222e-01  1.000000e+01
     vertex  1.319211e+00  7.139211e-01  0.000000e+00
     vertex  1.255750e+00  8.204222e-01  0.000000e+00
   endloop
 endfacet
 facet normal  8.590540e-01  5.118850e-01  0.000000e+00
   outer loop
     vertex  1.255750e+00  8.204222e-01  1.000000e+01
     vertex  1.319211e+00  7.139211e-01  1.000000e+01
     vertex  1.319211e+00  7.139211e-01  0.000000e+00
   endloop
 endfacet
 facet normal  8.138487e-01  5.810768e-01  0.000000e+00
   outer loop
     vertex  1.183711e+00  9.213191e-01  1.000000e+01
     vertex  1.255750e+00  8.204222e-01  0.000000e+00
     vertex  1.183711e+00  9.213191e-01  0.000000e+00
   endloop
 endfacet
 facet normal  8.138487e-01  5.810768e-01  0.000000e+00
   outer loop
     vertex  1.183711e+00  9.213191e-01  1.000000e+01
     vertex  1.255750e+00  8.204222e-01  1.000000e+01
     vertex  1.255750e+00  8.204222e-01  0.000000e+00
   endloop
 endfacet
 facet normal  7.630841e-01  6.462992e-01  0.000000e+00
   outer loop
     vertex  1.103586e+00  1.015922e+00  1.000000e+01
     vertex  1.183711e+00  9.213191e-01  0.000000e+00
     vertex  1.103586e+00  1.015922e+00  0.000000e+00
   endloop
 endfacet
 facet normal  7.630841e-01  6.462992e-01  0.000000e+00
   outer loop
     vertex  1.103586e+00  1.015922e+00  1.000000e+01
     vertex  1.183711e+00  9.213191e-01  1.000000e+01
     vertex  1.183711e+00  9.213191e-01  0.000000e+00
   endloop
 endfacet
 facet normal  7.071068e-01  7.071068e-01  0.000000e+00
   outer loop
     vertex  1.015922e+00  1.103586e+00  1.000000e+01
     vertex  1.103586e+00  1.015922e+00  0.000000e+00
     vertex  1.015922e+00  1.103586e+00  0.000000e+00
   endloop
 endfacet
 facet normal  7.071068e-01  7.071068e-01  0.000000e+00
   outer loop
     vertex  1.015922e+00  1.103586e+00  1.000000e+01
     vertex  1.103586e+00  1.015922e+00  1.000000e+01
     vertex  1.103586e+00  1.015922e+00  0.000000e+00
   endloop
 endfacet
 facet normal  6.462992e-01  7.630841e-01  0.000000e+00
   outer loop
     vertex  9.213191e-01  1.183711e+00  1.000000e+01
     vertex  1.015922e+00  1.103586e+00  0.000000e+00
     vertex  9.213191e-01  1.183711e+00  0.000000e+00
   endloop
 endfacet
 facet normal  6.462992e-01  7.630841e-01  0.000000e+00
   outer loop
     vertex  9.213191e-01  1.183711e+00  1.000000e+01
     vertex  1.015922e+00  1.103586e+00  1.000000e+01
     vertex  1.015922e+00  1.103586e+00  0.000000e+00
   endloop
 endfacet
 facet normal  5.810768e-01  8.138487e-01  0.000000e+00
   outer loop
     vertex  8.204222e-01  1.255750e+00  1.000000e+01
     vertex  9.213191e-01  1.183711e+00  1.000000e+01
     vertex  9.213191e-01  1.183711e+00  0.000000e+00
   endloop
 endfacet
 facet normal  5.810768e-01  8.138487e-01  0.000000e+00
   outer loop
     vertex  8.204222e-01  1.255750e+00  1.000000e+01
     vertex  9.213191e-01  1.183711e+00  0.000000e+00
     vertex  8.204222e-01  1.255750e+00  0.000000e+00
   endloop
 endfacet
 facet normal  5.118850e-01  8.590540e-01  0.000000e+00
   outer loop
     vertex  7.139211e-01  1.319211e+00  1.000000e+01
     vertex  8.204222e-01  1.255750e+00  1.000000e+01
     vertex  8.204222e-01  1.255750e+00  0.000000e+00
   endloop
 endfacet
 facet normal  5.118850e-01  8.590540e-01  0.000000e+00
   outer loop
     vertex  7.139211e-01  1.319211e+00  1.000000e+01
     vertex  8.204222e-01  1.255750e+00  0.000000e+00
     vertex  7.139211e-01  1.319211e+00  0.000000e+00
   endloop
 endfacet
 facet normal  4.391966e-01  8.983910e-01  0.000000e+00
   outer loop
     vertex  6.025431e-01  1.373660e+00  1.000000e+01
     vertex  7.139211e-01  1.319211e+00  1.000000e+01
     vertex  7.139211e-01  1.319211e+00  0.000000e+00
   endloop
 endfacet
 facet normal  4.391966e-01  8.983910e-01  0.000000e+00
   outer loop
     vertex  6.025431e-01  1.373660e+00  1.000000e+01
     vertex  7.139211e-01  1.319211e+00  0.000000e+00
     vertex  6.025431e-01  1.373660e+00  0.000000e+00
   endloop
 endfacet
 facet normal  3.635080e-01  9.315911e-01  0.000000e+00
   outer loop
     vertex  4.870492e-01  1.418726e+00  1.000000e+01
     vertex  6.025431e-01  1.373660e+00  1.000000e+01
     vertex  6.025431e-01  1.373660e+00  0.000000e+00
   endloop
 endfacet
 facet normal  3.635080e-01  9.315911e-01  0.000000e+00
   outer loop
     vertex  4.870492e-01  1.418726e+00  1.000000e+01
     vertex  6.025431e-01  1.373660e+00  0.000000e+00
     vertex  4.870492e-01  1.418726e+00  0.000000e+00
   endloop
 endfacet
 facet normal  2.853362e-01  9.584275e-01  0.000000e+00
   outer loop
     vertex  3.682282e-01  1.454100e+00  1.000000e+01
     vertex  4.870492e-01  1.418726e+00  1.000000e+01
     vertex  4.870492e-01  1.418726e+00  0.000000e+00
   endloop
 endfacet
 facet normal  2.853362e-01  9.584275e-01  0.000000e+00
   outer loop
     vertex  3.682282e-01  1.454100e+00  1.000000e+01
     vertex  4.870492e-01  1.418726e+00  0.000000e+00
     vertex  3.682282e-01  1.454100e+00  0.000000e+00
   endloop
 endfacet
 facet normal  2.052153e-01  9.787168e-01  0.000000e+00
   outer loop
     vertex  2.468919e-01  1.479542e+00  1.000000e+01
     vertex  3.682282e-01  1.454100e+00  1.000000e+01
     vertex  3.682282e-01  1.454100e+00  0.000000e+00
   endloop
 endfacet
 facet normal  2.052153e-01  9.787168e-01  0.000000e+00
   outer loop
     vertex  2.468919e-01  1.479542e+00  1.000000e+01
     vertex  3.682282e-01  1.454100e+00  0.000000e+00
     vertex  2.468919e-01  1.479542e+00  0.000000e+00
   endloop
 endfacet
 facet normal  1.236926e-01  9.923206e-01  0.000000e+00
   outer loop
     vertex  1.238690e-01  1.494877e+00  1.000000e+01
     vertex  2.468919e-01  1.479542e+00  1.000000e+01
     vertex  2.468919e-01  1.479542e+00  0.000000e+00
   endloop
 endfacet
 facet normal  1.236926e-01  9.923206e-01  0.000000e+00
   outer loop
     vertex  1.238690e-01  1.494877e+00  1.000000e+01
     vertex  2.468919e-01  1.479542e+00  0.000000e+00
     vertex  1.238690e-01  1.494877e+00  0.000000e+00
   endloop
 endfacet
 facet normal  4.132497e-02  9.991458e-01  0.000000e+00
   outer loop
     vertex  9.184851e-17  1.500000e+00  1.000000e+01
     vertex  1.238690e-01  1.494877e+00  1.000000e+01
     vertex  1.238690e-01  1.494877e+00  0.000000e+00
   endloop
 endfacet
 facet normal  4.132497e-02  9.991458e-01  0.000000e+00
   outer loop
     vertex  9.184851e-17  1.500000e+00  1.000000e+01
     vertex  1.238690e-01  1.494877e+00  0.000000e+00
     vertex  9.184851e-17  1.500000e+00  0.000000e+00
   endloop
 endfacet
 facet normal -4.132497e-02  9.991458e-01  0.000000e+00
   outer loop
     vertex -1.238690e-01  1.494877e+00  1.000000e+01
     vertex  9.184851e-17  1.500000e+00  1.000000e+01
     vertex  9.184851e-17  1.500000e+00  0.000000e+00
   endloop
 endfacet
 facet normal -4.132497e-02  9.991458e-01  0.000000e+00
   outer loop
     vertex -1.238690e-01  1.494877e+00  1.000000e+01
     vertex  9.184851e-17  1.500000e+00  0.000000e+00
     vertex -1.238690e-01  1.494877e+00  0.000000e+00
   endloop
 endfacet
 facet normal -1.236926e-01  9.923206e-01  0.000000e+00
   outer loop
     vertex -2.468919e-01  1.479542e+00  1.000000e+01
     vertex -1.238690e-01  1.494877e+00  1.000000e+01
     vertex -1.238690e-01  1.494877e+00  0.000000e+00
   endloop
 endfacet
 facet normal -1.236926e-01  9.923206e-01  0.000000e+00
   outer loop
     vertex -2.468919e-01  1.479542e+00  1.000000e+01
     vertex -1.238690e-01  1.494877e+00  0.000000e+00
     vertex -2.468919e-01  1.479542e+00  0.000000e+00
   endloop
 endfacet
 facet normal -2.052153e-01  9.787168e-01  0.000000e+00
   outer loop
     vertex -3.682282e-01  1.454100e+00  1.000000e+01
     vertex -2.468919e-01  1.479542e+00  1.000000e+01
     vertex -2.468919e-01  1.479542e+00  0.000000e+00
   endloop
 endfacet
 facet normal -2.052153e-01  9.787168e-01  0.000000e+00
   outer loop
     vertex -3.682282e-01  1.454100e+00  1.000000e+01
     vertex -2.468919e-01  1.479542e+00  0.000000e+00
     vertex -3.682282e-01  1.454100e+00  0.000000e+00
   endloop
 endfacet
 facet normal -2.853362e-01  9.584275e-01  0.000000e+00
   outer loop
     vertex -4.870492e-01  1.418726e+00  1.000000e+01
     vertex -3.682282e-01  1.454100e+00  1.000000e+01
     vertex -3.682282e-01  1.454100e+00  0.000000e+00
   endloop
 endfacet
 facet normal -2.853362e-01  9.584275e-01  0.000000e+00
   outer loop
     vertex -4.870492e-01  1.418726e+00  1.000000e+01
     vertex -3.682282e-01  1.454100e+00  0.000000e+00
     vertex -4.870492e-01  1.418726e+00  0.000000e+00
   endloop
 endfacet
 facet normal -3.635080e-01  9.315911e-01  0.000000e+00
   outer loop
     vertex -6.025431e-01  1.373660e+00  1.000000e+01
     vertex -4.870492e-01  1.418726e+00  0.000000e+00
     vertex -6.025431e-01  1.373660e+00  0.000000e+00
   endloop
 endfacet
 facet normal -3.635080e-01  9.315911e-01  0.000000e+00
   outer loop
     vertex -6.025431e-01  1.373660e+00  1.000000e+01
     vertex -4.870492e-01  1.418726e+00  1.000000e+01
     vertex -4.870492e-01  1.418726e+00  0.000000e+00
   endloop
 endfacet
 facet normal -4.391966e-01  8.983910e-01  0.000000e+00
   outer loop
     vertex -7.139211e-01  1.319211e+00  1.000000e+01
     vertex -6.025431e-01  1.373660e+00  0.000000e+00
     vertex -7.139211e-01  1.319211e+00  0.000000e+00
   endloop
 endfacet
 facet normal -4.391966e-01  8.983910e-01  0.000000e+00
   outer loop
     vertex -7.139211e-01  1.319211e+00  1.000000e+01
     vertex -6.025431e-01  1.373660e+00  1.000000e+01
     vertex -6.025431e-01  1.373660e+00  0.000000e+00
   endloop
 endfacet
 facet normal -5.118850e-01  8.590540e-01  0.000000e+00
   outer loop
     vertex -8.204222e-01  1.255750e+00  1.000000e+01
     vertex -7.139211e-01  1.319211e+00  0.000000e+00
     vertex -8.204222e-01  1.255750e+00  0.000000e+00
   endloop
 endfacet
 facet normal -5.118850e-01  8.590540e-01  0.000000e+00
   outer loop
     vertex -8.204222e-01  1.255750e+00  1.000000e+01
     vertex -7.139211e-01  1.319211e+00  1.000000e+01
     vertex -7.139211e-01  1.319211e+00  0.000000e+00
   endloop
 endfacet
 facet normal -5.810768e-01  8.138487e-01  0.000000e+00
   outer loop
     vertex -9.213191e-01  1.183711e+00  1.000000e+01
     vertex -8.204222e-01  1.255750e+00  0.000000e+00
     vertex -9.213191e-01  1.183711e+00  0.000000e+00
   endloop
 endfacet
 facet normal -5.810768e-01  8.138487e-01  0.000000e+00
   outer loop
     vertex -9.213191e-01  1.183711e+00  1.000000e+01
     vertex -8.204222e-01  1.255750e+00  1.000000e+01
     vertex -8.204222e-01  1.255750e+00  0.000000e+00
   endloop
 endfacet
 facet normal -6.462992e-01  7.630841e-01  0.000000e+00
   outer loop
     vertex -1.015922e+00  1.103586e+00  1.000000e+01
     vertex -9.213191e-01  1.183711e+00  0.000000e+00
     vertex -1.015922e+00  1.103586e+00  0.000000e+00
   endloop
 endfacet
 facet normal -6.462992e-01  7.630841e-01  0.000000e+00
   outer loop
     vertex -1.015922e+00  1.103586e+00  1.000000e+01
     vertex -9.213191e-01  1.183711e+00  1.000000e+01
     vertex -9.213191e-01  1.183711e+00  0.000000e+00
   endloop
 endfacet
 facet normal -7.071068e-01  7.071068e-01  0.000000e+00
   outer loop
     vertex -1.103586e+00  1.015922e+00  1.000000e+01
     vertex -1.015922e+00  1.103586e+00  0.000000e+00
     vertex -1.103586e+00  1.015922e+00  0.000000e+00
   endloop
 endfacet
 facet normal -7.071068e-01  7.071068e-01  0.000000e+00
   outer loop
     vertex -1.103586e+00  1.015922e+00  1.000000e+01
     vertex -1.015922e+00  1.103586e+00  1.000000e+01
     vertex -1.015922e+00  1.103586e+00  0.000000e+00
   endloop
 endfacet
 facet normal -7.630841e-01  6.462992e-01  0.000000e+00
   outer loop
     vertex -1.183711e+00  9.213191e-01  1.000000e+01
     vertex -1.103586e+00  1.015922e+00  0.000000e+00
     vertex -1.183711e+00  9.213191e-01  0.000000e+00
   endloop
 endfacet
 facet normal -7.630841e-01  6.462992e-01  0.000000e+00
   outer loop
     vertex -1.183711e+00  9.213191e-01  1.000000e+01
     vertex -1.103586e+00  1.015922e+00  1.000000e+01
     vertex -1.103586e+00  1.015922e+00  0.000000e+00
   endloop
 endfacet
 facet normal -8.138487e-01  5.810768e-01  0.000000e+00
   outer loop
     vertex -1.255750e+00  8.204222e-01  1.000000e+01
     vertex -1.183711e+00  9.213191e-01  0.000000e+00
     vertex -1.255750e+00  8.204222e-01  0.000000e+00
   endloop
 endfacet
 facet normal -8.138487e-01  5.810768e-01  0.000000e+00
   outer loop
     vertex -1.255750e+00  8.204222e-01  1.000000e+01
     vertex -1.183711e+00  9.213191e-01  1.000000e+01
     vertex -1.183711e+00  9.213191e-01  0.000000e+00
   endloop
 endfacet
 facet normal -8.590540e-01  5.118850e-01  0.000000e+00
   outer loop
     vertex -1.319211e+00  7.139211e-01  1.000000e+01
     vertex -1.255750e+00  8.204222e-01  0.000000e+00
     vertex -1.319211e+00  7.139211e-01  0.000000e+00
   endloop
 endfacet
 facet normal -8.590540e-01  5.118850e-01  0.000000e+00
   outer loop
     vertex -1.319211e+00  7.139211e-01  1.000000e+01
     vertex -1.255750e+00  8.204222e-01  1.000000e+01
     vertex -1.255750e+00  8.204222e-01  0.000000e+00
   endloop
 endfacet
 facet normal -8.983910e-01  4.391966e-01  0.000000e+00
   outer loop
     vertex -1.373660e+00  6.025431e-01  1.000000e+01
     vertex -1.319211e+00  7.139211e-01  0.000000e+00
     vertex -1.373660e+00  6.025431e-01  0.000000e+00
   endloop
 endfacet
 facet normal -8.983910e-01  4.391966e-01  0.000000e+00
   outer loop
     vertex -1.373660e+00  6.025431e-01  1.000000e+01
     vertex -1.319211e+00  7.139211e-01  1.000000e+01
     vertex -1.319211e+00  7.139211e-01  0.000000e+00
   endloop
 endfacet
 facet normal -9.315911e-01  3.635080e-01  0.000000e+00
   outer loop
     vertex -1.418726e+00  4.870492e-01  1.000000e+01
     vertex -1.373660e+00  6.025431e-01  0.000000e+00
     vertex -1.418726e+00  4.870492e-01  0.000000e+00
   endloop
 endfacet
 facet normal -9.315911e-01  3.635080e-01  0.000000e+00
   outer loop
     vertex -1.418726e+00  4.870492e-01  1.000000e+01
     vertex -1.373660e+00  6.025431e-01  1.000000e+01
     vertex -1.373660e+00  6.025431e-01  0.000000e+00
   endloop
 endfacet
 facet normal -9.584275e-01  2.853362e-01  0.000000e+00
   outer loop
     vertex -1.454100e+00  3.682282e-01  1.000000e+01
     vertex -1.418726e+00  4.870492e-01  0.000000e+00
     vertex -1.454100e+00  3.682282e-01  0.000000e+00
   endloop
 endfacet
 facet normal -9.584275e-01  2.853362e-01  0.000000e+00
   outer loop
     vertex -1.454100e+00  3.682282e-01  1.000000e+01
     vertex -1.418726e+00  4.870492e-01  1.000000e+01
     vertex -1.418726e+00  4.870492e-01  0.000000e+00
   endloop
 endfacet
 facet normal -9.787168e-01  2.052153e-01  0.000000e+00
   outer loop
     vertex -1.479542e+00  2.468919e-01  1.000000e+01
     vertex -1.454100e+00  3.682282e-01  1.000000e+01
     vertex -1.454100e+00  3.682282e-01  0.000000e+00
   endloop
 endfacet
 facet normal -9.787168e-01  2.052153e-01  0.000000e+00
   outer loop
     vertex -1.479542e+00  2.468919e-01  1.000000e+01
     vertex -1.454100e+00  3.682282e-01  0.000000e+00
     vertex -1.479542e+00  2.468919e-01  0.000000e+00
   endloop
 endfacet
 facet normal -9.923206e-01  1.236926e-01  0.000000e+00
   outer loop
     vertex -1.494877e+00  1.238690e-01  1.000000e+01
     vertex -1.479542e+00  2.468919e-01  1.000000e+01
     vertex -1.479542e+00  2.468919e-01  0.000000e+00
   endloop
 endfacet
 facet normal -9.923206e-01  1.236926e-01  0.000000e+00
   outer loop
     vertex -1.494877e+00  1.238690e-01  1.000000e+01
     vertex -1.479542e+00  2.468919e-01  0.000000e+00
     vertex -1.494877e+00  1.238690e-01  0.000000e+00
   endloop
 endfacet
 facet normal -9.991458e-01  4.132497e-02  0.000000e+00
   outer loop
     vertex -1.500000e+00  1.836970e-16  1.000000e+01
     vertex -1.494877e+00  1.238690e-01  1.000000e+01
     vertex -1.494877e+00  1.238690e-01  0.000000e+00
   endloop
 endfacet
 facet normal -9.991458e-01  4.132497e-02  0.000000e+00
   outer loop
     vertex -1.500000e+00  1.836970e-16  1.000000e+01
     vertex -1.494877e+00  1.238690e-01  0.000000e+00
     vertex -1.500000e+00  1.836970e-16  0.000000e+00
   endloop
 endfacet
 facet normal -9.991458e-01 -4.132497e-02 -0.000000e+00
   outer loop
     vertex -1.494877e+00 -1.238690e-01  1.000000e+01
     vertex -1.500000e+00  1.836970e-16  1.000000e+01
     vertex -1.500000e+00  1.836970e-16  0.000000e+00
   endloop
 endfacet
 facet normal -9.991458e-01 -4.132497e-02  0.000000e+00
   outer loop
     vertex -1.494877e+00 -1.238690e-01  1.000000e+01
     vertex -1.500000e+00  1.836970e-16  0.000000e+00
     vertex -1.494877e+00 -1.238690e-01  0.000000e+00
   endloop
 endfacet
 facet normal -9.923206e-01 -1.236926e-01 -0.000000e+00
   outer loop
     vertex -1.479542e+00 -2.468919e-01  1.000000e+01
     vertex -1.494877e+00 -1.238690e-01  1.000000e+01
     vertex -1.494877e+00 -1.238690e-01  0.000000e+00
   endloop
 endfacet
 facet normal -9.923206e-01 -1.236926e-01  0.000000e+00
   outer loop
     vertex -1.479542e+00 -2.468919e-01  1.000000e+01
     vertex -1.494877e+00 -1.238690e-01  0.000000e+00
     vertex -1.479542e+00 -2.468919e-01  0.000000e+00
   endloop
 endfacet
 facet normal -9.787168e-01 -2.052153e-01  0.000000e+00
   outer loop
     vertex -1.454100e+00 -3.682282e-01  1.000000e+01
     vertex -1.479542e+00 -2.468919e-01  0.000000e+00
     vertex -1.454100e+00 -3.682282e-01  0.000000e+00
   endloop
 endfacet
 facet normal -9.787168e-01 -2.052153e-01 -0.000000e+00
   outer loop
     vertex -1.454100e+00 -3.682282e-01  1.000000e+01
     vertex -1.479542e+00 -2.468919e-01  1.000000e+01
     vertex -1.479542e+00 -2.468919e-01  0.000000e+00
   endloop
 endfacet
 facet normal -9.584275e-01 -2.853362e-01  0.000000e+00
   outer loop
     vertex -1.418726e+00 -4.870492e-01  1.000000e+01
     vertex -1.454100e+00 -3.682282e-01  0.000000e+00
     vertex -1.418726e+00 -4.870492e-01  0.000000e+00
   endloop
 endfacet
 facet normal -9.584275e-01 -2.853362e-01 -0.000000e+00
   outer loop
     vertex -1.418726e+00 -4.870492e-01  1.000000e+01
     vertex -1.454100e+00 -3.682282e-01  1.000000e+01
     vertex -1.454100e+00 -3.682282e-01  0.000000e+00
   endloop
 endfacet
 facet normal -9.315911e-01 -3.635080e-01  0.000000e+00
   outer loop
     vertex -1.373660e+00 -6.025431e-01  1.000000e+01
     vertex -1.418726e+00 -4.870492e-01  0.000000e+00
     vertex -1.373660e+00 -6.025431e-01  0.000000e+00
   endloop
 endfacet
 facet normal -9.315911e-01 -3.635080e-01 -0.000000e+00
   outer loop
     vertex -1.373660e+00 -6.025431e-01  1.000000e+01
     vertex -1.418726e+00 -4.870492e-01  1.000000e+01
     vertex -1.418726e+00 -4.870492e-01  0.000000e+00
   endloop
 endfacet
 facet normal -8.983910e-01 -4.391966e-01  0.000000e+00
   outer loop
     vertex -1.319211e+00 -7.139211e-01  1.000000e+01
     vertex -1.373660e+00 -6.025431e-01  0.000000e+00
     vertex -1.319211e+00 -7.139211e-01  0.000000e+00
   endloop
 endfacet
 facet normal -8.983910e-01 -4.391966e-01 -0.000000e+00
   outer loop
     vertex -1.319211e+00 -7.139211e-01  1.000000e+01
     vertex -1.373660e+00 -6.025431e-01  1.000000e+01
     vertex -1.373660e+00 -6.025431e-01  0.000000e+00
   endloop
 endfacet
 facet normal -8.590540e-01 -5.118850e-01  0.000000e+00
   outer loop
     vertex -1.255750e+00 -8.204222e-01  1.000000e+01
     vertex -1.319211e+00 -7.139211e-01  0.000000e+00
     vertex -1.255750e+00 -8.204222e-01  0.000000e+00
   endloop
 endfacet
 facet normal -8.590540e-01 -5.118850e-01 -0.000000e+00
   outer loop
     vertex -1.255750e+00 -8.204222e-01  1.000000e+01
     vertex -1.319211e+00 -7.139211e-01  1.000000e+01
     vertex -1.319211e+00 -7.139211e-01  0.000000e+00
   endloop
 endfacet
 facet normal -8.138487e-01 -5.810768e-01  0.000000e+00
   outer loop
     vertex -1.183711e+00 -9.213191e-01  1.000000e+01
     vertex -1.255750e+00 -8.204222e-01  0.000000e+00
     vertex -1.183711e+00 -9.213191e-01  0.000000e+00
   endloop
 endfacet
 facet normal -8.138487e-01 -5.810768e-01 -0.000000e+00
   outer loop
     vertex -1.183711e+00 -9.213191e-01  1.000000e+01
     vertex -1.255750e+00 -8.204222e-01  1.000000e+01
     vertex -1.255750e+00 -8.204222e-01  0.000000e+00
   endloop
 endfacet
 facet normal -7.630841e-01 -6.462992e-01  0.000000e+00
   outer loop
     vertex -1.103586e+00 -1.015922e+00  1.000000e+01
     vertex -1.183711e+00 -9.213191e-01  0.000000e+00
     vertex -1.103586e+00 -1.015922e+00  0.000000e+00
   endloop
 endfacet
 facet normal -7.630841e-01 -6.462992e-01 -0.000000e+00
   outer loop
     vertex -1.103586e+00 -1.015922e+00  1.000000e+01
     vertex -1.183711e+00 -9.213191e-01  1.000000e+01
     vertex -1.183711e+00 -9.213191e-01  0.000000e+00
   endloop
 endfacet
 facet normal -7.071068e-01 -7.071068e-01  0.000000e+00
   outer loop
     vertex -1.015922e+00 -1.103586e+00  1.000000e+01
     vertex -1.103586e+00 -1.015922e+00  0.000000e+00
     vertex -1.015922e+00 -1.103586e+00  0.000000e+00
   endloop
 endfacet
 facet normal -7.071068e-01 -7.071068e-01 -0.000000e+00
   outer loop
     vertex -1.015922e+00 -1.103586e+00  1.000000e+01
     vertex -1.103586e+00 -1.015922e+00  1.000000e+01
     vertex -1.103586e+00 -1.015922e+00  0.000000e+00
   endloop
 endfacet
 facet normal -6.462992e-01 -7.630841e-01  0.000000e+00
   outer loop
     vertex -9.213191e-01 -1.183711e+00  1.000000e+01
     vertex -1.015922e+00 -1.103586e+00  0.000000e+00
     vertex -9.213191e-01 -1.183711e+00  0.000000e+00
   endloop
 endfacet
 facet normal -6.462992e-01 -7.630841e-01 -0.000000e+00
   outer loop
     vertex -9.213191e-01 -1.183711e+00  1.000000e+01
     vertex -1.015922e+00 -1.103586e+00  1.000000e+01
     vertex -1.015922e+00 -1.103586e+00  0.000000e+00
   endloop
 endfacet
 facet normal -5.810768e-01 -8.138487e-01  0.000000e+00
   outer loop
     vertex -8.204222e-01 -1.255750e+00  1.000000e+01
     vertex -9.213191e-01 -1.183711e+00  0.000000e+00
     vertex -8.204222e-01 -1.255750e+00  0.000000e+00
   endloop
 endfacet
 facet normal -5.810768e-01 -8.138487e-01 -0.000000e+00
   outer loop
     vertex -8.204222e-01 -1.255750e+00  1.000000e+01
     vertex -9.213191e-01 -1.183711e+00  1.000000e+01
     vertex -9.213191e-01 -1.183711e+00  0.000000e+00
   endloop
 endfacet
 facet normal -5.118850e-01 -8.590540e-01  0.000000e+00
   outer loop
     vertex -7.139211e-01 -1.319211e+00  1.000000e+01
     vertex -8.204222e-01 -1.255750e+00  0.000000e+00
     vertex -7.139211e-01 -1.319211e+00  0.000000e+00
   endloop
 endfacet
 facet normal -5.118850e-01 -8.590540e-01 -0.000000e+00
   outer loop
     vertex -7.139211e-01 -1.319211e+00  1.000000e+01
     vertex -8.204222e-01 -1.255750e+00  1.000000e+01
     vertex -8.204222e-01 -1.255750e+00  0.000000e+00
   endloop
 endfacet
 facet normal -4.391966e-01 -8.983910e-01  0.000000e+00
   outer loop
     vertex -6.025431e-01 -1.373660e+00  1.000000e+01
     vertex -7.139211e-01 -1.319211e+00  0.000000e+00
     vertex -6.025431e-01 -1.373660e+00  0.000000e+00
   endloop
 endfacet
 facet normal -4.391966e-01 -8.983910e-01 -0.000000e+00
   outer loop
     vertex -6.025431e-01 -1.373660e+00  1.000000e+01
     vertex -7.139211e-01 -1.319211e+00  1.000000e+01
     vertex -7.139211e-01 -1.319211e+00  0.000000e+00
   endloop
 endfacet
 facet normal -3.635080e-01 -9.315911e-01  0.000000e+00
   outer loop
     vertex -4.870492e-01 -1.418726e+00  1.000000e+01
     vertex -6.025431e-01 -1.373660e+00  0.000000e+00
     vertex -4.870492e-01 -1.418726e+00  0.000000e+00
   endloop
 endfacet
 facet normal -3.635080e-01 -9.315911e-01 -0.000000e+00
   outer loop
     vertex -4.870492e-01 -1.418726e+00  1.000000e+01
     vertex -6.025431e-01 -1.373660e+00  1.000000e+01
     vertex -6.025431e-01 -1.373660e+00  0.000000e+00
   endloop
 endfacet
 facet normal -2.853362e-01 -9.584275e-01  0.000000e+00
   outer loop
     vertex -3.682282e-01 -1.454100e+00  1.000000e+01
     vertex -4.870492e-01 -1.418726e+00  0.000000e+00
     vertex -3.682282e-01 -1.454100e+00  0.000000e+00
   endloop
 endfacet
 facet normal -2.853362e-01 -9.584275e-01 -0.000000e+00
   outer loop
     vertex -3.682282e-01 -1.454100e+00  1.000000e+01
     vertex -4.870492e-01 -1.418726e+00  1.000000e+01
     vertex -4.870492e-01 -1.418726e+00  0.000000e+00
   endloop
 endfacet
 facet normal -2.052153e-01 -9.787168e-01  0.000000e+00
   outer loop
     vertex -2.468919e-01 -1.479542e+00  1.000000e+01
     vertex -3.682282e-01 -1.454100e+00  0.000000e+00
     vertex -2.468919e-01 -1.479542e+00  0.000000e+00
   endloop
 endfacet
 facet normal -2.052153e-01 -9.787168e-01 -0.000000e+00
   outer loop
     vertex -2.468919e-01 -1.479542e+00  1.000000e+01
     vertex -3.682282e-01 -1.454100e+00  1.000000e+01
     vertex -3.682282e-01 -1.454100e+00  0.000000e+00
   endloop
 endfacet
 facet normal -1.236926e-01 -9.923206e-01  0.000000e+00
   outer loop
     vertex -1.238690e-01 -1.494877e+00  1.000000e+01
     vertex -2.468919e-01 -1.479542e+00  0.000000e+00
     vertex -1.238690e-01 -1.494877e+00  0.000000e+00
   endloop
 endfacet
 facet normal -1.236926e-01 -9.923206e-01 -0.000000e+00
   outer loop
     vertex -1.238690e-01 -1.494877e+00  1.000000e+01
     vertex -2.468919e-01 -1.479542e+00  1.000000e+01
     vertex -2.468919e-01 -1.479542e+00  0.000000e+00
   endloop
 endfacet
 facet normal -4.132497e-02 -9.991458e-01  0.000000e+00
   outer loop
     vertex -2.940081e-15 -1.500000e+00  1.000000e+01
     vertex -1.238690e-01 -1.494877e+00  0.000000e+00
     vertex -2.940081e-15 -1.500000e+00  0.000000e+00
   endloop
 endfacet
 facet normal -4.132497e-02 -9.991458e-01 -0.000000e+00
   outer loop
     vertex -2.940081e-15 -1.500000e+00  1.000000e+01
     vertex -1.238690e-01 -1.494877e+00  1.000000e+01
     vertex -1.238690e-01 -1.494877e+00  0.000000e+00
   endloop
 endfacet
 facet normal  4.132497e-02 -9.991458e-01  0.000000e+00
   outer loop
     vertex  1.238690e-01 -1.494877e+00  1.000000e+01
     vertex -2.940081e-15 -1.500000e+00  0.000000e+00
     vertex  1.238690e-01 -1.494877e+00  0.000000e+00
   endloop
 endfacet
 facet normal  4.132497e-02 -9.991458e-01  0.000000e+00
   outer loop
     vertex  1.238690e-01 -1.494877e+00  1.000000e+01
     vertex -2.940081e-15 -1.500000e+00  1.000000e+01
     vertex -2.940081e-15 -1.500000e+00  0.000000e+00
   endloop
 endfacet
 facet normal  1.236926e-01 -9.923206e-01  0.000000e+00
   outer loop
     vertex  2.468919e-01 -1.479542e+00  1.000000e+01
     vertex  1.238690e-01 -1.494877e+00  0.000000e+00
     vertex  2.468919e-01 -1.479542e+00  0.000000e+00
   endloop
 endfacet
 facet normal  1.236926e-01 -9.923206e-01  0.000000e+00
   outer loop
     vertex  2.468919e-01 -1.479542e+00  1.000000e+01
     vertex  1.238690e-01 -1.494877e+00  1.000000e+01
     vertex  1.238690e-01 -1.494877e+00  0.000000e+00
   endloop
 endfacet
 facet normal  2.052153e-01 -9.787168e-01  0.000000e+00
   outer loop
     vertex  3.682282e-01 -1.454100e+00  1.000000e+01
     vertex  2.468919e-01 -1.479542e+00  0.000000e+00
     vertex  3.682282e-01 -1.454100e+00  0.000000e+00
   endloop
 endfacet
 facet normal  2.052153e-01 -9.787168e-01  0.000000e+00
   outer loop
     vertex  3.682282e-01 -1.454100e+00  1.000000e+01
     vertex  2.468919e-01 -1.479542e+00  1.000000e+01
     vertex  2.468919e-01 -1.479542e+00  0.000000e+00
   endloop
 endfacet
 facet normal  2.853362e-01 -9.584275e-01  0.000000e+00
   outer loop
     vertex  4.870492e-01 -1.418726e+00  1.000000e+01
     vertex  3.682282e-01 -1.454100e+00  1.000000e+01
     vertex  3.682282e-01 -1.454100e+00  0.000000e+00
   endloop
 endfacet
 facet normal  2.853362e-01 -9.584275e-01  0.000000e+00
   outer loop
     vertex  4.870492e-01 -1.418726e+00  1.000000e+01
     vertex  3.682282e-01 -1.454100e+00  0.000000e+00
     vertex  4.870492e-01 -1.418726e+00  0.000000e+00
   endloop
 endfacet
 facet normal  3.635080e-01 -9.315911e-01  0.000000e+00
   outer loop
     vertex  6.025431e-01 -1.373660e+00  1.000000e+01
     vertex  4.870492e-01 -1.418726e+00  1.000000e+01
     vertex  4.870492e-01 -1.418726e+00  0.000000e+00
   endloop
 endfacet
 facet normal  3.635080e-01 -9.315911e-01  0.000000e+00
   outer loop
     vertex  6.025431e-01 -1.373660e+00  1.000000e+01
     vertex  4.870492e-01 -1.418726e+00  0.000000e+00
     vertex  6.025431e-01 -1.373660e+00  0.000000e+00
   endloop
 endfacet
 facet normal  4.391966e-01 -8.983910e-01  0.000000e+00
   outer loop
     vertex  7.139211e-01 -1.319211e+00  1.000000e+01
     vertex  6.025431e-01 -1.373660e+00  1.000000e+01
     vertex  6.025431e-01 -1.373660e+00  0.000000e+00
   endloop
 endfacet
 facet normal  4.391966e-01 -8.983910e-01  0.000000e+00
   outer loop
     vertex  7.139211e-01 -1.319211e+00  1.000000e+01
     vertex  6.025431e-01 -1.373660e+00  0.000000e+00
     vertex  7.139211e-01 -1.319211e+00  0.000000e+00
   endloop
 endfacet
 facet normal  5.118850e-01 -8.590540e-01  0.000000e+00
   outer loop
     vertex  8.204222e-01 -1.255750e+00  1.000000e+01
     vertex  7.139211e-01 -1.319211e+00  1.000000e+01
     vertex  7.139211e-01 -1.319211e+00  0.000000e+00
   endloop
 endfacet
 facet normal  5.118850e-01 -8.590540e-01  0.000000e+00
   outer loop
     vertex  8.204222e-01 -1.255750e+00  1.000000e+01
     vertex  7.139211e-01 -1.319211e+00  0.000000e+00
     vertex  8.204222e-01 -1.255750e+00  0.000000e+00
   endloop
 endfacet
 facet normal  5.810768e-01 -8.138487e-01  0.000000e+00
   outer loop
     vertex  9.213191e-01 -1.183711e+00  1.000000e+01
     vertex  8.204222e-01 -1.255750e+00  1.000000e+01
     vertex  8.204222e-01 -1.255750e+00  0.000000e+00
   endloop
 endfacet
 facet normal  5.810768e-01 -8.138487e-01  0.000000e+00
   outer loop
     vertex  9.213191e-01 -1.183711e+00  1.000000e+01
     vertex  8.204222e-01 -1.255750e+00  0.000000e+00
     vertex  9.213191e-01 -1.183711e+00  0.000000e+00
   endloop
 endfacet
 facet normal  6.462992e-01 -7.630841e-01  0.000000e+00
   outer loop
     vertex  1.015922e+00 -1.103586e+00  1.000000e+01
     vertex  9.213191e-01 -1.183711e+00  1.000000e+01
     vertex  9.213191e-01 -1.183711e+00  0.000000e+00
   endloop
 endfacet
 facet normal  6.462992e-01 -7.630841e-01  0.000000e+00
   outer loop
     vertex  1.015922e+00 -1.103586e+00  1.000000e+01
     vertex  9.213191e-01 -1.183711e+00  0.000000e+00
     vertex  1.015922e+00 -1.103586e+00  0.000000e+00
   endloop
 endfacet
 facet normal  7.071068e-01 -7.071068e-01  0.000000e+00
   outer loop
     vertex  1.103586e+00 -1.015922e+00  1.000000e+01
     vertex  1.015922e+00 -1.103586e+00  1.000000e+01
     vertex  1.015922e+00 -1.103586e+00  0.000000e+00
   endloop
 endfacet
 facet normal  7.071068e-01 -7.071068e-01  0.000000e+00
   outer loop
     vertex  1.103586e+00 -1.015922e+00  1.000000e+01
     vertex  1.015922e+00 -1.103586e+00  0.000000e+00
     vertex  1.103586e+00 -1.015922e+00  0.000000e+00
   endloop
 endfacet
 facet normal  7.630841e-01 -6.462992e-01  0.000000e+00
   outer loop
     vertex  1.183711e+00 -9.213191e-01  1.000000e+01
     vertex  1.103586e+00 -1.015922e+00  1.000000e+01
     vertex  1.103586e+00 -1.015922e+00  0.000000e+00
   endloop
 endfacet
 facet normal  7.630841e-01 -6.462992e-01  0.000000e+00
   outer loop
     vertex  1.183711e+00 -9.213191e-01  1.000000e+01
     vertex  1.103586e+00 -1.015922e+00  0.000000e+00
     vertex  1.183711e+00 -9.213191e-01  0.000000e+00
   endloop
 endfacet
 facet normal  8.138487e-01 -5.810768e-01  0.000000e+00
   outer loop
     vertex  1.255750e+00 -8.204222e-01  1.000000e+01
     vertex  1.183711e+00 -9.213191e-01  1.000000e+01
     vertex  1.183711e+00 -9.213191e-01  0.000000e+00
   endloop
 endfacet
 facet normal  8.138487e-01 -5.810768e-01  0.000000e+00
   outer loop
     vertex  1.255750e+00 -8.204222e-01  1.000000e+01
     vertex  1.183711e+00 -9.213191e-01  0.000000e+00
     vertex  1.255750e+00 -8.204222e-01  0.000000e+00
   endloop
 endfacet
 facet normal  8.590540e-01 -5.118850e-01  0.000000e+00
   outer loop
     vertex  1.319211e+00 -7.139211e-01  1.000000e+01
     vertex  1.255750e+00 -8.204222e-01  1.000000e+01
     vertex  1.255750e+00 -8.204222e-01  0.000000e+00
   endloop
 endfacet
 facet normal  8.590540e-01 -5.118850e-01  0.000000e+00
   outer loop
     vertex  1.319211e+00 -7.139211e-01  1.000000e+01
     vertex  1.255750e+00 -8.204222e-01  0.000000e+00
     vertex  1.319211e+00 -7.139211e-01  0.000000e+00
   endloop
 endfacet
 facet normal  8.983910e-01 -4.391966e-01  0.000000e+00
   outer loop
     vertex  1.373660e+00 -6.025431e-01  1.000000e+01
     vertex  1.319211e+00 -7.139211e-01  1.000000e+01
     vertex  1.319211e+00 -7.139211e-01  0.000000e+00
   endloop
 endfacet
 facet normal  8.983910e-01 -4.391966e-01  0.000000e+00
   outer loop
     vertex  1.373660e+00 -6.025431e-01  1.000000e+01
     vertex  1.319211e+00 -7.139211e-01  0.000000e+00
     vertex  1.373660e+00 -6.025431e-01  0.000000e+00
   endloop
 endfacet
 facet normal  9.315911e-01 -3.635080e-01  0.000000e+00
   outer loop
     vertex  1.418726e+00 -4.870492e-01  1.000000e+01
     vertex  1.373660e+00 -6.025431e-01  1.000000e+01
     vertex  1.373660e+00 -6.025431e-01  0.000000e+00
   endloop
 endfacet
 facet normal  9.315911e-01 -3.635080e-01  0.000000e+00
   outer loop
     vertex  1.418726e+00 -4.870492e-01  1.000000e+01
     vertex  1.373660e+00 -6.025431e-01  0.000000e+00
     vertex  1.418726e+00 -4.870492e-01  0.000000e+00
   endloop
 endfacet
 facet normal  9.584275e-01 -2.853362e-01  0.000000e+00
   outer loop
     vertex  1.454100e+00 -3.682282e-01  1.000000e+01
     vertex  1.418726e+00 -4.870492e-01  1.000000e+01
     vertex  1.418726e+00 -4.870492e-01  0.000000e+00
   endloop
 endfacet
 facet normal  9.584275e-01 -2.853362e-01  0.000000e+00
   outer loop
     vertex  1.454100e+00 -3.682282e-01  1.000000e+01
     vertex  1.418726e+00 -4.870492e-01  0.000000e+00
     vertex  1.454100e+00 -3.682282e-01  0.000000e+00
   endloop
 endfacet
 facet normal  9.787168e-01 -2.052153e-01  0.000000e+00
   outer loop
     vertex  1.479542e+00 -2.468919e-01  1.000000e+01
     vertex  1.454100e+00 -3.682282e-01  1.000000e+01
     vertex  1.454100e+00 -3.682282e-01  0.000000e+00
   endloop
 endfacet
 facet normal  9.787168e-01 -2.052153e-01  0.000000e+00
   outer loop
     vertex  1.479542e+00 -2.468919e-01  1.000000e+01
     vertex  1.454100e+00 -3.682282e-01  0.000000e+00
     vertex  1.479542e+00 -2.468919e-01  0.000000e+00
   endloop
 endfacet
 facet normal  9.923206e-01 -1.236926e-01  0.000000e+00
   outer loop
     vertex  1.494877e+00 -1.238690e-01  1.000000e+01
     vertex  1.479542e+00 -2.468919e-01  0.000000e+00
     vertex  1.494877e+00 -1.238690e-01  0.000000e+00
   endloop
 endfacet
 facet normal  9.923206e-01 -1.236926e-01  0.000000e+00
   outer loop
     vertex  1.494877e+00 -1.238690e-01  1.000000e+01
     vertex  1.479542e+00 -2.468919e-01  1.000000e+01
     vertex  1.479542e+00 -2.468919e-01  0.000000e+00
   endloop
 endfacet
 facet normal  9.991458e-01 -4.132497e-02  0.000000e+00
   outer loop
     vertex  1.500000e+00 -3.673940e-16  1.000000e+01
     vertex  1.494877e+00 -1.238690e-01  0.000000e+00
     vertex  1.500000e+00 -3.673940e-16  0.000000e+00
   endloop
 endfacet
 facet normal  9.991458e-01 -4.132497e-02  0.000000e+00
   outer loop
     vertex  1.500000e+00 -3.673940e-16  1.000000e+01
     vertex  1.494877e+00 -1.238690e-01  1.000000e+01
     vertex  1.494877e+00 -1.238690e-01  0.000000e+00
   endloop
 endfacet
 facet normal -0.000000e+00 -0.000000e+00  1.000000e+00
   outer loop
     vertex  1.015922e+00  1.103586e+00  1.000000e+01
     vertex  1.500000e+00 -3.673940e-16  1.000000e+01
     vertex  1.494877e+00  1.238690e-01  1.000000e+01
   endloop
 endfacet
 facet normal -0.000000e+00 -0.000000e+00  1.000000e+00
   outer loop
     vertex  1.015922e+00  1.103586e+00  1.000000e+01
     vertex  1.494877e+00  1.238690e-01  1.000000e+01
     vertex  1.479542e+00  2.468919e-01  1.000000e+01
   endloop
 endfacet
 facet normal -0.000000e+00 -0.000000e+00  1.000000e+00
   outer loop
     vertex  1.015922e+00  1.103586e+00  1.000000e+01
     vertex  1.479542e+00  2.468919e-01  1.000000e+01
     vertex  1.454100e+00  3.682282e-01  1.000000e+01
   endloop
 endfacet
 facet normal -0.000000e+00 -0.000000e+00  1.000000e+00
   outer loop
     vertex  1.015922e+00  1.103586e+00  1.000000e+01
     vertex  1.454100e+00  3.682282e-01  1.000000e+01
     vertex  1.418726e+00  4.870492e-01  1.000000e+01
   endloop
 endfacet
 facet normal -0.000000e+00 -0.000000e+00  1.000000e+00
   outer loop
     vertex  1.015922e+00  1.103586e+00  1.000000e+01
     vertex  1.418726e+00  4.870492e-01  1.000000e+01
     vertex  1.373660e+00  6.025431e-01  1.000000e+01
   endloop
 endfacet
 facet normal -0.000000e+00 -0.000000e+00  1.000000e+00
   outer loop
     vertex  1.015922e+00  1.103586e+00  1.000000e+01
     vertex  1.373660e+00  6.025431e-01  1.000000e+01
     vertex  1.319211e+00  7.139211e-01  1.000000e+01
   endloop
 endfacet
 facet normal -0.000000e+00 -0.000000e+00  1.000000e+00
   outer loop
     vertex  1.015922e+00  1.103586e+00  1.000000e+01
     vertex  1.319211e+00  7.139211e-01  1.000000e+01
     vertex  1.255750e+00  8.204222e-01  1.000000e+01
   endloop
 endfacet
 facet normal -0.000000e+00 -0.000000e+00  1.000000e+00
   outer loop
     vertex  1.015922e+00  1.103586e+00  1.000000e+01
     vertex  1.255750e+00  8.204222e-01  1.000000e+01
     vertex  1.183711e+00  9.213191e-01  1.000000e+01
   endloop
 endfacet
 facet normal -0.000000e+00 -0.000000e+00  1.000000e+00
   outer loop
     vertex  1.015922e+00  1.103586e+00  1.000000e+01
     vertex  1.183711e+00  9.213191e-01  1.000000e+01
     vertex  1.103586e+00  1.015922e+00  1.000000e+01
   endloop
 endfacet
 facet normal  0.000000e+00  0.000000e+00  1.000000e+00
   outer loop
     vertex  1.015922e+00  1.103586e+00  1.000000e+01
     vertex  9.213191e-01  1.183711e+00  1.000000e+01
     vertex  8.204222e-01  1.255750e+00  1.000000e+01
   endloop
 endfacet
 facet normal  0.000000e+00  0.000000e+00  1.000000e+00
   outer loop
     vertex  1.015922e+00  1.103586e+00  1.000000e+01
     vertex  8.204222e-01  1.255750e+00  1.000000e+01
     vertex  7.139211e-01  1.319211e+00  1.000000e+01
   endloop
 endfacet
 facet normal  0.000000e+00  0.000000e+00  1.000000e+00
   outer loop
     vertex  1.015922e+00  1.103586e+00  1.000000e+01
     vertex  7.139211e-01  1.319211e+00  1.000000e+01
     vertex  6.025431e-01  1.373660e+00  1.000000e+01
   endloop
 endfacet
 facet normal  0.000000e+00  0.000000e+00  1.000000e+00
   outer loop
     vertex  1.015922e+00  1.103586e+00  1.000000e+01
     vertex  6.025431e-01  1.373660e+00  1.000000e+01
     vertex  4.870492e-01  1.418726e+00  1.000000e+01
   endloop
 endfacet
 facet normal  0.000000e+00  0.000000e+00  1.000000e+00
   outer loop
     vertex  1.015922e+00  1.103586e+00  1.000000e+01
     vertex  4.870492e-01  1.418726e+00  1.000000e+01
     vertex  3.682282e-01  1.454100e+00  1.000000e+01
   endloop
 endfacet
 facet normal  0.000000e+00  0.000000e+00  1.000000e+00
   outer loop
     vertex  1.015922e+00  1.103586e+00  1.000000e+01
     vertex  3.682282e-01  1.454100e+00  1.000000e+01
     vertex  2.468919e-01  1.479542e+00  1.000000e+01
   endloop
 endfacet
 facet normal  0.000000e+00  0.000000e+00  1.000000e+00
   outer loop
     vertex  1.015922e+00  1.103586e+00  1.000000e+01
     vertex  2.468919e-01  1.479542e+00  1.000000e+01
     vertex  1.238690e-01  1.494877e+00  1.000000e+01
   endloop
 endfacet
 facet normal  0.000000e+00  0.000000e+00  1.000000e+00
   outer loop
     vertex  1.015922e+00  1.103586e+00  1.000000e+01
     vertex  1.238690e-01  1.494877e+00  1.000000e+01
     vertex  9.184851e-17  1.500000e+00  1.000000e+01
   endloop
 endfacet
 facet normal  0.000000e+00  0.000000e+00  1.000000e+00
   outer loop
     vertex  1.015922e+00  1.103586e+00  1.000000e+01
     vertex  9.184851e-17  1.500000e+00  1.000000e+01
     vertex -1.238690e-01  1.494877e+00  1.000000e+01
   endloop
 endfacet
 facet normal  0.000000e+00  0.000000e+00  1.000000e+00
   outer loop
     vertex  1.015922e+00  1.103586e+00  1.000000e+01
     vertex -1.238690e-01  1.494877e+00  1.000000e+01
     vertex -2.468919e-01  1.479542e+00  1.000000e+01
   endloop
 endfacet
 facet normal  0.000000e+00  0.000000e+00  1.000000e+00
   outer loop
     vertex  1.015922e+00  1.103586e+00  1.000000e+01
     vertex -2.468919e-01  1.479542e+00  1.000000e+01
     vertex -3.682282e-01  1.454100e+00  1.000000e+01
   endloop
 endfacet
 facet normal  0.000000e+00  0.000000e+00  1.000000e+00
   outer loop
     vertex  1.015922e+00  1.103586e+00  1.000000e+01
     vertex -3.682282e-01  1.454100e+00  1.000000e+01
     vertex -4.870492e-01  1.418726e+00  1.000000e+01
   endloop
 endfacet
 facet normal  0.000000e+00  0.000000e+00  1.000000e+00
   outer loop
     vertex  1.015922e+00  1.103586e+00  1.000000e+01
     vertex -4.870492e-01  1.418726e+00  1.000000e+01
     vertex -6.025431e-01  1.373660e+00  1.000000e+01
   endloop
 endfacet
 facet normal  0.000000e+00  0.000000e+00  1.000000e+00
   outer loop
     vertex  1.015922e+00  1.103586e+00  1.000000e+01
     vertex -6.025431e-01  1.373660e+00  1.000000e+01
     vertex -7.139211e-01  1.319211e+00  1.000000e+01
   endloop
 endfacet
 facet normal  0.000000e+00  0.000000e+00  1.000000e+00
   outer loop
     vertex  1.015922e+00  1.103586e+00  1.000000e+01
     vertex -7.139211e-01  1.319211e+00  1.000000e+01
     vertex -8.204222e-01  1.255750e+00  1.000000e+01
   endloop
 endfacet
 facet normal  0.000000e+00  0.000000e+00  1.000000e+00
   outer loop
     vertex  1.015922e+00  1.103586e+00  1.000000e+01
     vertex -8.204222e-01  1.255750e+00  1.000000e+01
     vertex -9.213191e-01  1.183711e+00  1.000000e+01
   endloop
 endfacet
 facet normal  0.000000e+00  0.000000e+00  1.000000e+00
   outer loop
     vertex  1.015922e+00  1.103586e+00  1.000000e+01
     vertex -9.213191e-01  1.183711e+00  1.000000e+01
     vertex -1.015922e+00  1.103586e+00  1.000000e+01
   endloop
 endfacet
 facet normal  0.000000e+00  0.000000e+00  1.000000e+00
   outer loop
     vertex  1.015922e+00  1.103586e+00  1.000000e+01
     vertex -1.015922e+00  1.103586e+00  1.000000e+01
     vertex -1.103586e+00  1.015922e+00  1.000000e+01
   endloop
 endfacet
 facet normal  0.000000e+00  0.000000e+00  1.000000e+00
   outer loop
     vertex  1.015922e+00  1.103586e+00  1.000000e+01
     vertex -1.103586e+00  1.015922e+00  1.000000e+01
     vertex -1.183711e+00  9.213191e-01  1.000000e+01
   endloop
 endfacet
 facet normal  0.000000e+00  0.000000e+00  1.000000e+00
   outer loop
     vertex  1.015922e+00  1.103586e+00  1.000000e+01
     vertex -1.183711e+00  9.213191e-01  1.000000e+01
     vertex -1.255750e+00  8.204222e-01  1.000000e+01
   endloop
 endfacet
 facet normal  0.000000e+00  0.000000e+00  1.000000e+00
   outer loop
     vertex  1.015922e+00  1.103586e+00  1.000000e+01
     vertex -1.255750e+00  8.204222e-01  1.000000e+01
     vertex -1.319211e+00  7.139211e-01  1.000000e+01
   endloop
 endfacet
 facet normal  0.000000e+00  0.000000e+00  1.000000e+00
   outer loop
     vertex  1.015922e+00  1.103586e+00  1.000000e+01
     vertex -1.319211e+00  7.139211e-01  1.000000e+01
     vertex -1.373660e+00  6.025431e-01  1.000000e+01
   endloop
 endfacet
 facet normal  0.000000e+00  0.000000e+00  1.000000e+00
   outer loop
     vertex  1.015922e+00  1.103586e+00  1.000000e+01
     vertex -1.373660e+00  6.025431e-01  1.000000e+01
     vertex -1.418726e+00  4.870492e-01  1.000000e+01
   endloop
 endfacet
 facet normal  0.000000e+00  0.000000e+00  1.000000e+00
   outer loop
     vertex  1.015922e+00  1.103586e+00  1.000000e+01
     vertex -1.418726e+00  4.870492e-01  1.000000e+01
     vertex -1.454100e+00  3.682282e-01  1.000000e+01
   endloop
 endfacet
 facet normal  0.000000e+00  0.000000e+00  1.000000e+00
   outer loop
     vertex  1.015922e+00  1.103586e+00  1.000000e+01
     vertex -1.454100e+00  3.682282e-01  1.000000e+01
     vertex -1.479542e+00  2.468919e-01  1.000000e+01
   endloop
 endfacet
 facet normal  0.000000e+00  0.000000e+00  1.000000e+00
   outer loop
     vertex  1.015922e+00  1.103586e+00  1.000000e+01
     vertex -1.479542e+00  2.468919e-01  1.000000e+01
     vertex -1.494877e+00  1.238690e-01  1.000000e+01
   endloop
 endfacet
 facet normal  0.000000e+00  0.000000e+00  1.000000e+00
   outer loop
     vertex  1.015922e+00  1.103586e+00  1.000000e+01
     vertex -1.494877e+00  1.238690e-01  1.000000e+01
     vertex -1.500000e+00  1.836970e-16  1.000000e+01
   endloop
 endfacet
 facet normal  0.000000e+00  0.000000e+00  1.000000e+00
   outer loop
     vertex  1.015922e+00  1.103586e+00  1.000000e+01
     vertex -1.500000e+00  1.836970e-16  1.000000e+01
     vertex -1.494877e+00 -1.238690e-01  1.000000e+01
   endloop
 endfacet
 facet normal  0.000000e+00  0.000000e+00  1.000000e+00
   outer loop
     vertex  1.015922e+00  1.103586e+00  1.000000e+01
     vertex -1.494877e+00 -1.238690e-01  1.000000e+01
     vertex -1.479542e+00 -2.468919e-01  1.000000e+01
   endloop
 endfacet
 facet normal  0.000000e+00  0.000000e+00  1.000000e+00
   outer loop
     vertex  1.015922e+00  1.103586e+00  1.000000e+01
     vertex -1.479542e+00 -2.468919e-01  1.000000e+01
     vertex -1.454100e+00 -3.682282e-01  1.000000e+01
   endloop
 endfacet
 facet normal  0.000000e+00  0.000000e+00  1.000000e+00
   outer loop
     vertex  1.015922e+00  1.103586e+00  1.000000e+01
     vertex -1.454100e+00 -3.682282e-01  1.000000e+01
     vertex -1.418726e+00 -4.870492e-01  1.000000e+01
   endloop
 endfacet
 facet normal  0.000000e+00  0.000000e+00  1.000000e+00
   outer loop
     vertex  1.015922e+00  1.103586e+00  1.000000e+01
     vertex -1.418726e+00 -4.870492e-01  1.000000e+01
     vertex -1.373660e+00 -6.025431e-01  1.000000e+01
   endloop
 endfacet
 facet normal  0.000000e+00  0.000000e+00  1.000000e+00
   outer loop
     vertex  1.015922e+00  1.103586e+00  1.000000e+01
     vertex -1.373660e+00 -6.025431e-01  1.000000e+01
     vertex -1.319211e+00 -7.139211e-01  1.000000e+01
   endloop
 endfacet
 facet normal  0.000000e+00  0.000000e+00  1.000000e+00
   outer loop
     vertex  1.015922e+00  1.103586e+00  1.000000e+01
     vertex -1.319211e+00 -7.139211e-01  1.000000e+01
     vertex -1.255750e+00 -8.204222e-01  1.000000e+01
   endloop
 endfacet
 facet normal  0.000000e+00  0.000000e+00  1.000000e+00
   outer loop
     vertex  1.015922e+00  1.103586e+00  1.000000e+01
     vertex -1.255750e+00 -8.204222e-01  1.000000e+01
     vertex -1.183711e+00 -9.213191e-01  1.000000e+01
   endloop
 endfacet
 facet normal  0.000000e+00  0.000000e+00  1.000000e+00
   outer loop
     vertex  1.015922e+00  1.103586e+00  1.000000e+01
     vertex -1.183711e+00 -9.213191e-01  1.000000e+01
     vertex -1.103586e+00 -1.015922e+00  1.000000e+01
   endloop
 endfacet
 facet normal  0.000000e+00  0.000000e+00  1.000000e+00
   outer loop
     vertex  1.015922e+00  1.103586e+00  1.000000e+01
     vertex -1.103586e+00 -1.015922e+00  1.000000e+01
     vertex -1.015922e+00 -1.103586e+00  1.000000e+01
   endloop
 endfacet
 facet normal  0.000000e+00  0.000000e+00  1.000000e+00
   outer loop
     vertex  1.015922e+00  1.103586e+00  1.000000e+01
     vertex -1.015922e+00 -1.103586e+00  1.000000e+01
     vertex -9.213191e-01 -1.183711e+00  1.000000e+01
   endloop
 endfacet
 facet normal  0.000000e+00  0.000000e+00  1.000000e+00
   outer loop
     vertex  1.015922e+00  1.103586e+00  1.000000e+01
     vertex -9.213191e-01 -1.183711e+00  1.000000e+01
     vertex -8.204222e-01 -1.255750e+00  1.000000e+01
   endloop
 endfacet
 facet normal  0.000000e+00  0.000000e+00  1.000000e+00
   outer loop
     vertex  1.015922e+00  1.103586e+00  1.000000e+01
     vertex -8.204222e-01 -1.255750e+00  1.000000e+01
     vertex -7.139211e-01 -1.319211e+00  1.000000e+01
   endloop
 endfacet
 facet normal  0.000000e+00  0.000000e+00  1.000000e+00
   outer loop
     vertex  1.015922e+00  1.103586e+00  1.000000e+01
     vertex -7.139211e-01 -1.319211e+00  1.000000e+01
     vertex -6.025431e-01 -1.373660e+00  1.000000e+01
   endloop
 endfacet
 facet normal  0.000000e+00  0.000000e+00  1.000000e+00
   outer loop
     vertex  1.015922e+00  1.103586e+00  1.000000e+01
     vertex -6.025431e-01 -1.373660e+00  1.000000e+01
     vertex -4.870492e-01 -1.418726e+00  1.000000e+01
   endloop
 endfacet
 facet normal  0.000000e+00  0.000000e+00  1.000000e+00
   outer loop
     vertex  1.015922e+00  1.103586e+00  1.000000e+01
     vertex -4.870492e-01 -1.418726e+00  1.000000e+01
     vertex -3.682282e-01 -1.454100e+00  1.000000e+01
   endloop
 endfacet
 facet normal  0.000000e+00  0.000000e+00  1.000000e+00
   outer loop
     vertex  1.015922e+00  1.103586e+00  1.000000e+01
     vertex -3.682282e-01 -1.454100e+00  1.000000e+01
     vertex -2.468919e-01 -1.479542e+00  1.000000e+01
   endloop
 endfacet
 facet normal  0.000000e+00  0.000000e+00  1.000000e+00
   outer loop
     vertex  1.015922e+00  1.103586e+00  1.000000e+01
     vertex -2.468919e-01 -1.479542e+00  1.000000e+01
     vertex -1.238690e-01 -1.494877e+00  1.000000e+01
   endloop
 endfacet
 facet normal  0.000000e+00  0.000000e+00  1.000000e+00
   outer loop
     vertex  1.015922e+00  1.103586e+00  1.000000e+01
     vertex -1.238690e-01 -1.494877e+00  1.000000e+01
     vertex -2.940081e-15 -1.500000e+00  1.000000e+01
   endloop
 endfacet
 facet normal -0.000000e+00  0.000000e+00  1.000000e+00
   outer loop
     vertex  1.015922e+00  1.103586e+00  1.000000e+01
     vertex -2.940081e-15 -1.500000e+00  1.000000e+01
     vertex  1.238690e-01 -1.494877e+00  1.000000e+01
   endloop
 endfacet
 facet normal -0.000000e+00  0.000000e+00  1.000000e+00
   outer loop
     vertex  1.015922e+00  1.103586e+00  1.000000e+01
     vertex  1.238690e-01 -1.494877e+00  1.000000e+01
     vertex  2.468919e-01 -1.479542e+00  1.000000e+01
   endloop
 endfacet
 facet normal -0.000000e+00  0.000000e+00  1.000000e+00
   outer loop
     vertex  1.015922e+00  1.103586e+00  1.000000e+01
     vertex  2.468919e-01 -1.479542e+00  1.000000e+01
     vertex  3.682282e-01 -1.454100e+00  1.000000e+01
   endloop
 endfacet
 facet normal -0.000000e+00  0.000000e+00  1.000000e+00
   outer loop
     vertex  1.015922e+00  1.103586e+00  1.000000e+01
     vertex  3.682282e-01 -1.454100e+00  1.000000e+01
     vertex  4.870492e-01 -1.418726e+00  1.000000e+01
   endloop
 endfacet
 facet normal -0.000000e+00  0.000000e+00  1.000000e+00
   outer loop
     vertex  1.015922e+00  1.103586e+00  1.000000e+01
     vertex  4.870492e-01 -1.418726e+00  1.000000e+01
     vertex  6.025431e-01 -1.373660e+00  1.000000e+01
   endloop
 endfacet
 facet normal -0.000000e+00  0.000000e+00  1.000000e+00
   outer loop
     vertex  1.015922e+00  1.103586e+00  1.000000e+01
     vertex  6.025431e-01 -1.373660e+00  1.000000e+01
     vertex  7.139211e-01 -1.319211e+00  1.000000e+01
   endloop
 endfacet
 facet normal -0.000000e+00  0.000000e+00  1.000000e+00
   outer loop
     vertex  1.015922e+00  1.103586e+00  1.000000e+01
     vertex  7.139211e-01 -1.319211e+00  1.000000e+01
     vertex  8.204222e-01 -1.255750e+00  1.000000e+01
   endloop
 endfacet
 facet normal -0.000000e+00  0.000000e+00  1.000000e+00
   outer loop
     vertex  1.015922e+00  1.103586e+00  1.000000e+01
     vertex  8.204222e-01 -1.255750e+00  1.000000e+01
     vertex  9.213191e-01 -1.183711e+00  1.000000e+01
   endloop
 endfacet
 facet normal -0.000000e+00  0.000000e+00  1.000000e+00
   outer loop
     vertex  1.015922e+00  1.103586e+00  1.000000e+01
     vertex  9.213191e-01 -1.183711e+00  1.000000e+01
     vertex  1.015922e+00 -1.103586e+00  1.000000e+01
   endloop
 endfacet
 facet normal -0.000000e+00  0.000000e+00  1.000000e+00
   outer loop
     vertex  1.015922e+00  1.103586e+00  1.000000e+01
     vertex  1.015922e+00 -1.103586e+00  1.000000e+01
     vertex  1.103586e+00 -1.015922e+00  1.000000e+01
   endloop
 endfacet
 facet normal -0.000000e+00  0.000000e+00  1.000000e+00
   outer loop
     vertex  1.015922e+00  1.103586e+00  1.000000e+01
     vertex  1.103586e+00 -1.015922e+00  1.000000e+01
     vertex  1.183711e+00 -9.213191e-01  1.000000e+01
   endloop
 endfacet
 facet normal -0.000000e+00  0.000000e+00  1.000000e+00
   outer loop
     vertex  1.015922e+00  1.103586e+00  1.000000e+01
     vertex  1.183711e+00 -9.213191e-01  1.000000e+01
     vertex  1.255750e+00 -8.204222e-01  1.000000e+01
   endloop
 endfacet
 facet normal -0.000000e+00  0.000000e+00  1.000000e+00
   outer loop
     vertex  1.015922e+00  1.103586e+00  1.000000e+01
     vertex  1.255750e+00 -8.204222e-01  1.000000e+01
     vertex  1.319211e+00 -7.139211e-01  1.000000e+01
   endloop
 endfacet
 facet normal -0.000000e+00  0.000000e+00  1.000000e+00
   outer loop
     vertex  1.015922e+00  1.103586e+00  1.000000e+01
     vertex  1.319211e+00 -7.139211e-01  1.000000e+01
     vertex  1.373660e+00 -6.025431e-01  1.000000e+01
   endloop
 endfacet
 facet normal -0.000000e+00  0.000000e+00  1.000000e+00
   outer loop
     vertex  1.015922e+00  1.103586e+00  1.000000e+01
     vertex  1.373660e+00 -6.025431e-01  1.000000e+01
     vertex  1.418726e+00 -4.870492e-01  1.000000e+01
   endloop
 endfacet
 facet normal -0.000000e+00  0.000000e+00  1.000000e+00
   outer loop
     vertex  1.015922e+00  1.103586e+00  1.000000e+01
     vertex  1.418726e+00 -4.870492e-01  1.000000e+01
     vertex  1.454100e+00 -3.682282e-01  1.000000e+01
   endloop
 endfacet
 facet normal -0.000000e+00  0.000000e+00  1.000000e+00
   outer loop
     vertex  1.015922e+00  1.103586e+00  1.000000e+01
     vertex  1.454100e+00 -3.682282e-01  1.000000e+01
     vertex  1.479542e+00 -2.468919e-01  1.000000e+01
   endloop
 endfacet
 facet normal -0.000000e+00  0.000000e+00  1.000000e+00
   outer loop
     vertex  1.015922e+00  1.103586e+00  1.000000e+01
     vertex  1.479542e+00 -2.468919e-01  1.000000e+01
     vertex  1.494877e+00 -1.238690e-01  1.000000e+01
   endloop
 endfacet
 facet normal -0.000000e+00  0.000000e+00  1.000000e+00
   outer loop
     vertex  1.015922e+00  1.103586e+00  1.000000e+01
     vertex  1.494877e+00 -1.238690e-01  1.000000e+01
     vertex  1.500000e+00 -3.673940e-16  1.000000e+01
   endloop
 endfacet
 facet normal -0.000000e+00 -0.000000e+00 -1.000000e+00
   outer loop
     vertex  1.494877e+00  1.238690e-01  0.000000e+00
     vertex  1.500000e+00 -3.673940e-16  0.000000e+00
     vertex  1.015922e+00  1.103586e+00  0.000000e+00
   endloop
 endfacet
 facet normal -0.000000e+00 -0.000000e+00 -1.000000e+00
   outer loop
     vertex  1.479542e+00  2.468919e-01  0.000000e+00
     vertex  1.494877e+00  1.238690e-01  0.000000e+00
     vertex  1.015922e+00  1.103586e+00  0.000000e+00
   endloop
 endfacet
 facet normal -0.000000e+00 -0.000000e+00 -1.000000e+00
   outer loop
     vertex  1.454100e+00  3.682282e-01  0.000000e+00
     vertex  1.479542e+00  2.468919e-01  0.000000e+00
     vertex  1.015922e+00  1.103586e+00  0.000000e+00
   endloop
 endfacet
 facet normal -0.000000e+00 -0.000000e+00 -1.000000e+00
   outer loop
     vertex  1.418726e+00  4.870492e-01  0.000000e+00
     vertex  1.454100e+00  3.682282e-01  0.000000e+00
     vertex  1.015922e+00  1.103586e+00  0.000000e+00
   endloop
 endfacet
 facet normal -0.000000e+00 -0.000000e+00 -1.000000e+00
   outer loop
     vertex  1.373660e+00  6.025431e-01  0.000000e+00
     vertex  1.418726e+00  4.870492e-01  0.000000e+00
     vertex  1.015922e+00  1.103586e+00  0.000000e+00
   endloop
 endfacet
 facet normal -0.000000e+00 -0.000000e+00 -1.000000e+00
   outer loop
     vertex  1.319211e+00  7.139211e-01  0.000000e+00
     vertex  1.373660e+00  6.025431e-01  0.000000e+00
     vertex  1.015922e+00  1.103586e+00  0.000000e+00
   endloop
 endfacet
 facet normal -0.000000e+00 -0.000000e+00 -1.000000e+00
   outer loop
     vertex  1.255750e+00  8.204222e-01  0.000000e+00
     vertex  1.319211e+00  7.139211e-01  0.000000e+00
     vertex  1.015922e+00  1.103586e+00  0.000000e+00
   endloop
 endfacet
 facet normal -0.000000e+00 -0.000000e+00 -1.000000e+00
   outer loop
     vertex  1.183711e+00  9.213191e-01  0.000000e+00
     vertex  1.255750e+00  8.204222e-01  0.000000e+00
     vertex  1.015922e+00  1.103586e+00  0.000000e+00
   endloop
 endfacet
 facet normal -0.000000e+00 -0.000000e+00 -1.000000e+00
   outer loop
     vertex  1.103586e+00  1.015922e+00  0.000000e+00
     vertex  1.183711e+00  9.213191e-01  0.000000e+00
     vertex  1.015922e+00  1.103586e+00  0.000000e+00
   endloop
 endfacet
 facet normal  0.000000e+00  0.000000e+00 -1.000000e+00
   outer loop
     vertex  8.204222e-01  1.255750e+00  0.000000e+00
     vertex  9.213191e-01  1.183711e+00  0.000000e+00
     vertex  1.015922e+00  1.103586e+00  0.000000e+00
   endloop
 endfacet
 facet normal  0.000000e+00  0.000000e+00 -1.000000e+00
   outer loop
     vertex  7.139211e-01  1.319211e+00  0.000000e+00
     vertex  8.204222e-01  1.255750e+00  0.000000e+00
     vertex  1.015922e+00  1.103586e+00  0.000000e+00
   endloop
 endfacet
 facet normal  0.000000e+00  0.000000e+00 -1.000000e+00
   outer loop
     vertex  6.025431e-01  1.373660e+00  0.000000e+00
     vertex  7.139211e-01  1.319211e+00  0.000000e+00
     vertex  1.015922e+00  1.103586e+00  0.000000e+00
   endloop
 endfacet
 facet normal  0.000000e+00  0.000000e+00 -1.000000e+00
   outer loop
     vertex  4.870492e-01  1.418726e+00  0.000000e+00
     vertex  6.025431e-01  1.373660e+00  0.000000e+00
     vertex  1.015922e+00  1.103586e+00  0.000000e+00
   endloop
 endfacet
 facet normal  0.000000e+00  0.000000e+00 -1.000000e+00
   outer loop
     vertex  3.682282e-01  1.454100e+00  0.000000e+00
     vertex  4.870492e-01  1.418726e+00  0.000000e+00
     vertex  1.015922e+00  1.103586e+00  0.000000e+00
   endloop
 endfacet
 facet normal  0.000000e+00  0.000000e+00 -1.000000e+00
   outer loop
     vertex  2.468919e-01  1.479542e+00  0.000000e+00
     vertex  3.682282e-01  1.454100e+00  0.000000e+00
     vertex  1.015922e+00  1.103586e+00  0.000000e+00
   endloop
 endfacet
 facet normal  0.000000e+00  0.000000e+00 -1.000000e+00
   outer loop
     vertex  1.238690e-01  1.494877e+00  0.000000e+00
     vertex  2.468919e-01  1.479542e+00  0.000000e+00
     vertex  1.015922e+00  1.103586e+00  0.000000e+00
   endloop
 endfacet
 facet normal  0.000000e+00  0.000000e+00 -1.000000e+00
   outer loop
     vertex  9.184851e-17  1.500000e+00  0.000000e+00
     vertex  1.238690e-01  1.494877e+00  0.000000e+00
     vertex  1.015922e+00  1.103586e+00  0.000000e+00
   endloop
 endfacet
 facet normal  0.000000e+00  0.000000e+00 -1.000000e+00
   outer loop
     vertex -1.238690e-01  1.494877e+00  0.000000e+00
     vertex  9.184851e-17  1.500000e+00  0.000000e+00
     vertex  1.015922e+00  1.103586e+00  0.000000e+00
   endloop
 endfacet
 facet normal  0.000000e+00  0.000000e+00 -1.000000e+00
   outer loop
     vertex -2.468919e-01  1.479542e+00  0.000000e+00
     vertex -1.238690e-01  1.494877e+00  0.000000e+00
     vertex  1.015922e+00  1.103586e+00  0.000000e+00
   endloop
 endfacet
 facet normal  0.000000e+00  0.000000e+00 -1.000000e+00
   outer loop
     vertex -3.682282e-01  1.454100e+00  0.000000e+00
     vertex -2.468919e-01  1.479542e+00  0.000000e+00
     vertex  1.015922e+00  1.103586e+00  0.000000e+00
   endloop
 endfacet
 facet normal  0.000000e+00  0.000000e+00 -1.000000e+00
   outer loop
     vertex -4.870492e-01  1.418726e+00  0.000000e+00
     vertex -3.682282e-01  1.454100e+00  0.000000e+00
     vertex  1.015922e+00  1.103586e+00  0.000000e+00
   endloop
 endfacet
 facet normal  0.000000e+00  0.000000e+00 -1.000000e+00
   outer loop
     vertex -6.025431e-01  1.373660e+00  0.000000e+00
     vertex -4.870492e-01  1.418726e+00  0.000000e+00
     vertex  1.015922e+00  1.103586e+00  0.000000e+00
   endloop
 endfacet
 facet normal  0.000000e+00  0.000000e+00 -1.000000e+00
   outer loop
     vertex -7.139211e-01  1.319211e+00  0.000000e+00
     vertex -6.025431e-01  1.373660e+00  0.000000e+00
     vertex  1.015922e+00  1.103586e+00  0.000000e+00
   endloop
 endfacet
 facet normal  0.000000e+00  0.000000e+00 -1.000000e+00
   outer loop
     vertex -8.204222e-01  1.255750e+00  0.000000e+00
     vertex -7.139211e-01  1.319211e+00  0.000000e+00
     vertex  1.015922e+00  1.103586e+00  0.000000e+00
   endloop
 endfacet
 facet normal  0.000000e+00  0.000000e+00 -1.000000e+00
   outer loop
     vertex -9.213191e-01  1.183711e+00  0.000000e+00
     vertex -8.204222e-01  1.255750e+00  0.000000e+00
     vertex  1.015922e+00  1.103586e+00  0.000000e+00
   endloop
 endfacet
 facet normal  0.000000e+00  0.000000e+00 -1.000000e+00
   outer loop
     vertex -1.015922e+00  1.103586e+00  0.000000e+00
     vertex -9.213191e-01  1.183711e+00  0.000000e+00
     vertex  1.015922e+00  1.103586e+00  0.000000e+00
   endloop
 endfacet
 facet normal  0.000000e+00  0.000000e+00 -1.000000e+00
   outer loop
     vertex -1.103586e+00  1.015922e+00  0.000000e+00
     vertex -1.015922e+00  1.103586e+00  0.000000e+00
     vertex  1.015922e+00  1.103586e+00  0.000000e+00
   endloop
 endfacet
 facet normal  0.000000e+00  0.000000e+00 -1.000000e+00
   outer loop
     vertex -1.183711e+00  9.213191e-01  0.000000e+00
     vertex -1.103586e+00  1.015922e+00  0.000000e+00
     vertex  1.015922e+00  1.103586e+00  0.000000e+00
   endloop
 endfacet
 facet normal  0.000000e+00  0.000000e+00 -1.000000e+00
   outer loop
     vertex -1.255750e+00  8.204222e-01  0.000000e+00
     vertex -1.183711e+00  9.213191e-01  0.000000e+00
     vertex  1.015922e+00  1.103586e+00  0.000000e+00
   endloop
 endfacet
 facet normal  0.000000e+00  0.000000e+00 -1.000000e+00
   outer loop
     vertex -1.319211e+00  7.139211e-01  0.000000e+00
     vertex -1.255750e+00  8.204222e-01  0.000000e+00
     vertex  1.015922e+00  1.103586e+00  0.000000e+00
   endloop
 endfacet
 facet normal  0.000000e+00  0.000000e+00 -1.000000e+00
   outer loop
     vertex -1.373660e+00  6.025431e-01  0.000000e+00
     vertex -1.319211e+00  7.139211e-01  0.000000e+00
     vertex  1.015922e+00  1.103586e+00  0.000000e+00
   endloop
 endfacet
 facet normal  0.000000e+00  0.000000e+00 -1.000000e+00
   outer loop
     vertex -1.418726e+00  4.870492e-01  0.000000e+00
     vertex -1.373660e+00  6.025431e-01  0.000000e+00
     vertex  1.015922e+00  1.103586e+00  0.000000e+00
   endloop
 endfacet
 facet normal  0.000000e+00  0.000000e+00 -1.000000e+00
   outer loop
     vertex -1.454100e+00  3.682282e-01  0.000000e+00
     vertex -1.418726e+00  4.870492e-01  0.000000e+00
     vertex  1.015922e+00  1.103586e+00  0.000000e+00
   endloop
 endfacet
 facet normal  0.000000e+00  0.000000e+00 -1.000000e+00
   outer loop
     vertex -1.479542e+00  2.468919e-01  0.000000e+00
     vertex -1.454100e+00  3.682282e-01  0.000000e+00
     vertex  1.015922e+00  1.103586e+00  0.000000e+00
   endloop
 endfacet
 facet normal  0.000000e+00  0.000000e+00 -1.000000e+00
   outer loop
     vertex -1.494877e+00  1.238690e-01  0.000000e+00
     vertex -1.479542e+00  2.468919e-01  0.000000e+00
     vertex  1.015922e+00  1.103586e+00  0.000000e+00
   endloop
 endfacet
 facet normal  0.000000e+00  0.000000e+00 -1.000000e+00
   outer loop
     vertex -1.500000e+00  1.836970e-16  0.000000e+00
     vertex -1.494877e+00  1.238690e-01  0.000000e+00
     vertex  1.015922e+00  1.103586e+00  0.000000e+00
   endloop
 endfacet
 facet normal  0.000000e+00  0.000000e+00 -1.000000e+00
   outer loop
     vertex -1.494877e+00 -1.238690e-01  0.000000e+00
     vertex -1.500000e+00  1.836970e-16  0.000000e+00
     vertex  1.015922e+00  1.103586e+00  0.000000e+00
   endloop
 endfacet
 facet normal  0.000000e+00  0.000000e+00 -1.000000e+00
   outer loop
     vertex -1.479542e+00 -2.468919e-01  0.000000e+00
     vertex -1.494877e+00 -1.238690e-01  0.000000e+00
     vertex  1.015922e+00  1.103586e+00  0.000000e+00
   endloop
 endfacet
 facet normal  0.000000e+00  0.000000e+00 -1.000000e+00
   outer loop
     vertex -1.454100e+00 -3.682282e-01  0.000000e+00
     vertex -1.479542e+00 -2.468919e-01  0.000000e+00
     vertex  1.015922e+00  1.103586e+00  0.000000e+00
   endloop
 endfacet
 facet normal  0.000000e+00  0.000000e+00 -1.000000e+00
   outer loop
     vertex -1.418726e+00 -4.870492e-01  0.000000e+00
     vertex -1.454100e+00 -3.682282e-01  0.000000e+00
     vertex  1.015922e+00  1.103586e+00  0.000000e+00
   endloop
 endfacet
 facet normal  0.000000e+00  0.000000e+00 -1.000000e+00
   outer loop
     vertex -1.373660e+00 -6.025431e-01  0.000000e+00
     vertex -1.418726e+00 -4.870492e-01  0.000000e+00
     vertex  1.015922e+00  1.103586e+00  0.000000e+00
   endloop
 endfacet
 facet normal  0.000000e+00  0.000000e+00 -1.000000e+00
   outer loop
     vertex -1.319211e+00 -7.139211e-01  0.000000e+00
     vertex -1.373660e+00 -6.025431e-01  0.000000e+00
     vertex  1.015922e+00  1.103586e+00  0.000000e+00
   endloop
 endfacet
 facet normal  0.000000e+00  0.000000e+00 -1.000000e+00
   outer loop
     vertex -1.255750e+00 -8.204222e-01  0.000000e+00
     vertex -1.319211e+00 -7.139211e-01  0.000000e+00
     vertex  1.015922e+00  1.103586e+00  0.000000e+00
   endloop
 endfacet
 facet normal  0.000000e+00  0.000000e+00 -1.000000e+00
   outer loop
     vertex -1.183711e+00 -9.213191e-01  0.000000e+00
     vertex -1.255750e+00 -8.204222e-01  0.000000e+00
     vertex  1.015922e+00  1.103586e+00  0.000000e+00
   endloop
 endfacet
 facet normal  0.000000e+00  0.000000e+00 -1.000000e+00
   outer loop
     vertex -1.103586e+00 -1.015922e+00  0.000000e+00
     vertex -1.183711e+00 -9.213191e-01  0.000000e+00
     vertex  1.015922e+00  1.103586e+00  0.000000e+00
   endloop
 endfacet
 facet normal  0.000000e+00  0.000000e+00 -1.000000e+00
   outer loop
     vertex -1.015922e+00 -1.103586e+00  0.000000e+00
     vertex -1.103586e+00 -1.015922e+00  0.000000e+00
     vertex  1.015922e+00  1.103586e+00  0.000000e+00
   endloop
 endfacet
 facet normal  0.000000e+00  0.000000e+00 -1.000000e+00
   outer loop
     vertex -9.213191e-01 -1.183711e+00  0.000000e+00
     vertex -1.015922e+00 -1.103586e+00  0.000000e+00
     vertex  1.015922e+00  1.103586e+00  0.000000e+00
   endloop
 endfacet
 facet normal  0.000000e+00  0.000000e+00 -1.000000e+00
   outer loop
     vertex -8.204222e-01 -1.255750e+00  0.000000e+00
     vertex -9.213191e-01 -1.183711e+00  0.000000e+00
     vertex  1.015922e+00  1.103586e+00  0.000000e+00
   endloop
 endfacet
 facet normal  0.000000e+00  0.000000e+00 -1.000000e+00
   outer loop
     vertex -7.139211e-01 -1.319211e+00  0.000000e+00
     vertex -8.204222e-01 -1.255750e+00  0.000000e+00
     vertex  1.015922e+00  1.103586e+00  0.000000e+00
   endloop
 endfacet
 facet normal  0.000000e+00  0.000000e+00 -1.000000e+00
   outer loop
     vertex -6.025431e-01 -1.373660e+00  0.000000e+00
     vertex -7.139211e-01 -1.319211e+00  0.000000e+00
     vertex  1.015922e+00  1.103586e+00  0.000000e+00
   endloop
 endfacet
 facet normal  0.000000e+00  0.000000e+00 -1.000000e+00
   outer loop
     vertex -4.870492e-01 -1.418726e+00  0.000000e+00
     vertex -6.025431e-01 -1.373660e+00  0.000000e+00
     vertex  1.015922e+00  1.103586e+00  0.000000e+00
   endloop
 endfacet
 facet normal  0.000000e+00  0.000000e+00 -1.000000e+00
   outer loop
     vertex -3.682282e-01 -1.454100e+00  0.000000e+00
     vertex -4.870492e-01 -1.418726e+00  0.000000e+00
     vertex  1.015922e+00  1.103586e+00  0.000000e+00
   endloop
 endfacet
 facet normal  0.000000e+00  0.000000e+00 -1.000000e+00
   outer loop
     vertex -2.468919e-01 -1.479542e+00  0.000000e+00
     vertex -3.682282e-01 -1.454100e+00  0.000000e+00
     vertex  1.015922e+00  1.103586e+00  0.000000e+00
   endloop
 endfacet
 facet normal  0.000000e+00  0.000000e+00 -1.000000e+00
   outer loop
     vertex -1.238690e-01 -1.494877e+00  0.000000e+00
     vertex -2.468919e-01 -1.479542e+00  0.000000e+00
     vertex  1.015922e+00  1.103586e+00  0.000000e+00
   endloop
 endfacet
 facet normal  0.000000e+00  0.000000e+00 -1.000000e+00
   outer loop
     vertex -2.940081e-15 -1.500000e+00  0.000000e+00
     vertex -1.238690e-01 -1.494877e+00  0.000000e+00
     vertex  1.015922e+00  1.103586e+00  0.000000e+00
   endloop
 endfacet
 facet normal -0.000000e+00  0.000000e+00 -1.000000e+00
   outer loop
     vertex  1.238690e-01 -1.494877e+00  0.000000e+00
     vertex -2.940081e-15 -1.500000e+00  0.000000e+00
     vertex  1.015922e+00  1.103586e+00  0.000000e+00
   endloop
 endfacet
 facet normal -0.000000e+00  0.000000e+00 -1.000000e+00
   outer loop
     vertex  2.468919e-01 -1.479542e+00  0.000000e+00
     vertex  1.238690e-01 -1.494877e+00  0.000000e+00
     vertex  1.015922e+00  1.103586e+00  0.000000e+00
   endloop
 endfacet
 facet normal -0.000000e+00  0.000000e+00 -1.000000e+00
   outer loop
     vertex  3.682282e-01 -1.454100e+00  0.000000e+00
     vertex  2.468919e-01 -1.479542e+00  0.000000e+00
     vertex  1.015922e+00  1.103586e+00  0.000000e+00
   endloop
 endfacet
 facet normal -0.000000e+00  0.000000e+00 -1.000000e+00
   outer loop
     vertex  4.870492e-01 -1.418726e+00  0.000000e+00
     vertex  3.682282e-01 -1.454100e+00  0.000000e+00
     vertex  1.015922e+00  1.103586e+00  0.000000e+00
   endloop
 endfacet
 facet normal -0.000000e+00  0.000000e+00 -1.000000e+00
   outer loop
     vertex  6.025431e-01 -1.373660e+00  0.000000e+00
     vertex  4.870492e-01 -1.418726e+00  0.000000e+00
     vertex  1.015922e+00  1.103586e+00  0.000000e+00
   endloop
 endfacet
 facet normal -0.000000e+00  0.000000e+00 -1.000000e+00
   outer loop
     vertex  7.139211e-01 -1.319211e+00  0.000000e+00
     vertex  6.025431e-01 -1.373660e+00  0.000000e+00
     vertex  1.015922e+00  1.103586e+00  0.000000e+00
   endloop
 endfacet
 facet normal -0.000000e+00  0.000000e+00 -1.000000e+00
   outer loop
     vertex  8.204222e-01 -1.255750e+00  0.000000e+00
     vertex  7.139211e-01 -1.319211e+00  0.000000e+00
     vertex  1.015922e+00  1.103586e+00  0.000000e+00
   endloop
 endfacet
 facet normal -0.000000e+00  0.000000e+00 -1.000000e+00
   outer loop
     vertex  9.213191e-01 -1.183711e+00  0.000000e+00
     vertex  8.204222e-01 -1.255750e+00  0.000000e+00
     vertex  1.015922e+00  1.103586e+00  0.000000e+00
   endloop
 endfacet
 facet normal -0.000000e+00  0.000000e+00 -1.000000e+00
   outer loop
     vertex  1.015922e+00 -1.103586e+00  0.000000e+00
     vertex  9.213191e-01 -1.183711e+00  0.000000e+00
     vertex  1.015922e+00  1.103586e+00  0.000000e+00
   endloop
 endfacet
 facet normal -0.000000e+00  0.000000e+00 -1.000000e+00
   outer loop
     vertex  1.103586e+00 -1.015922e+00  0.000000e+00
     vertex  1.015922e+00 -1.103586e+00  0.000000e+00
     vertex  1.015922e+00  1.103586e+00  0.000000e+00
   endloop
 endfacet
 facet normal -0.000000e+00  0.000000e+00 -1.000000e+00
   outer loop
     vertex  1.183711e+00 -9.213191e-01  0.000000e+00
     vertex  1.103586e+00 -1.015922e+00  0.000000e+00
     vertex  1.015922e+00  1.103586e+00  0.000000e+00
   endloop
 endfacet
 facet normal -0.000000e+00  0.000000e+00 -1.000000e+00
   outer loop
     vertex  1.255750e+00 -8.204222e-01  0.000000e+00
     vertex  1.183711e+00 -9.213191e-01  0.000000e+00
     vertex  1.015922e+00  1.103586e+00  0.000000e+00
   endloop
 endfacet
 facet normal -0.000000e+00  0.000000e+00 -1.000000e+00
   outer loop
     vertex  1.319211e+00 -7.139211e-01  0.000000e+00
     vertex  1.255750e+00 -8.204222e-01  0.000000e+00
     vertex  1.015922e+00  1.103586e+00  0.000000e+00
   endloop
 endfacet
 facet normal -0.000000e+00  0.000000e+00 -1.000000e+00
   outer loop
     vertex  1.373660e+00 -6.025431e-01  0.000000e+00
     vertex  1.319211e+00 -7.139211e-01  0.000000e+00
     vertex  1.015922e+00  1.103586e+00  0.000000e+00
   endloop
 endfacet
 facet normal -0.000000e+00  0.000000e+00 -1.000000e+00
   outer loop
     vertex  1.418726e+00 -4.870492e-01  0.000000e+00
     vertex  1.373660e+00 -6.025431e-01  0.000000e+00
     vertex  1.015922e+00  1.103586e+00  0.000000e+00
   endloop
 endfacet
 facet normal -0.000000e+00  0.000000e+00 -1.000000e+00
   outer loop
     vertex  1.454100e+00 -3.682282e-01  0.000000e+00
     vertex  1.418726e+00 -4.870492e-01  0.000000e+00
     vertex  1.015922e+00  1.103586e+00  0.000000e+00
   endloop
 endfacet
 facet normal -0.000000e+00  0.000000e+00 -1.000000e+00
   outer loop
     vertex  1.479542e+00 -2.468919e-01  0.000000e+00
     vertex  1.454100e+00 -3.682282e-01  0.000000e+00
     vertex  1.015922e+00  1.103586e+00  0.000000e+00
   endloop
 endfacet
 facet normal -0.000000e+00  0.000000e+00 -1.000000e+00
   outer loop
     vertex  1.494877e+00 -1.238690e-01  0.000000e+00
     vertex  1.479542e+00 -2.468919e-01  0.000000e+00
     vertex  1.015922e+00  1.103586e+00  0.000000e+00
   endloop
 endfacet
 facet normal -0.000000e+00  0.000000e+00 -1.000000e+00
   outer loop
     vertex  1.500000e+00 -3.673940e-16  0.000000e+00
     vertex  1.494877e+00 -1.238690e-01  0.000000e+00
     vertex  1.015922e+00  1.103586e+00  0.000000e+00
   endloop
 endfacet
endsolid
