solid
 facet normal -9.609173e-01 -2.768355e-01  0.000000e+00
   outer loop
     vertex -6.795960e+01 -2.378009e+01  1.500000e+01
     vertex -7.019481e+01 -1.602151e+01  0.000000e+00
     vertex -6.795960e+01 -2.378009e+01  0.000000e+00
   endloop
 endfacet
 facet normal  7.456422e-01 -6.663466e-01  0.000000e+00
   outer loop
     vertex  5.629187e+01 -4.489127e+01  1.500000e+01
     vertex  5.091169e+01 -5.091169e+01  1.500000e+01
     vertex  5.091169e+01 -5.091169e+01  0.000000e+00
   endloop
 endfacet
 facet normal  7.456422e-01 -6.663466e-01  0.000000e+00
   outer loop
     vertex  5.629187e+01 -4.489127e+01  1.500000e+01
     vertex  5.091169e+01 -5.091169e+01  0.000000e+00
     vertex  5.629187e+01 -4.489127e+01  0.000000e+00
   endloop
 endfacet
 facet normal -9.609173e-01 -2.768355e-01 -0.000000e+00
   outer loop
     vertex -6.795960e+01 -2.378009e+01  1.500000e+01
     vertex -7.019481e+01 -1.602151e+01  1.500000e+01
     vertex -7.019481e+01 -1.602151e+01  0.000000e+00
   endloop
 endfacet
 facet normal  8.155609e-01 -5.786713e-01  0.000000e+00
   outer loop
     vertex  6.096414e+01 -3.830631e+01  1.500000e+01
     vertex  5.629187e+01 -4.489127e+01  1.500000e+01
     vertex  5.629187e+01 -4.489127e+01  0.000000e+00
   endloop
 endfacet
 facet normal -9.238795e-01 -3.826834e-01  0.000000e+00
   outer loop
     vertex -6.486976e+01 -3.123963e+01  1.500000e+01
     vertex -6.795960e+01 -2.378009e+01  0.000000e+00
     vertex -6.486976e+01 -3.123963e+01  0.000000e+00
   endloop
 endfacet
 facet normal  8.155609e-01 -5.786713e-01  0.000000e+00
   outer loop
     vertex  6.096414e+01 -3.830631e+01  1.500000e+01
     vertex  5.629187e+01 -4.489127e+01  0.000000e+00
     vertex  6.096414e+01 -3.830631e+01  0.000000e+00
   endloop
 endfacet
 facet normal -9.238795e-01 -3.826834e-01 -0.000000e+00
   outer loop
     vertex -6.486976e+01 -3.123963e+01  1.500000e+01
     vertex -6.795960e+01 -2.378009e+01  1.500000e+01
     vertex -6.795960e+01 -2.378009e+01  0.000000e+00
   endloop
 endfacet
 facet normal  8.752234e-01 -4.837189e-01  0.000000e+00
   outer loop
     vertex  6.486976e+01 -3.123963e+01  1.500000e+01
     vertex  6.096414e+01 -3.830631e+01  0.000000e+00
     vertex  6.486976e+01 -3.123963e+01  0.000000e+00
   endloop
 endfacet
 facet normal  8.752234e-01 -4.837189e-01  0.000000e+00
   outer loop
     vertex  6.486976e+01 -3.123963e+01  1.500000e+01
     vertex  6.096414e+01 -3.830631e+01  1.500000e+01
     vertex  6.096414e+01 -3.830631e+01  0.000000e+00
   endloop
 endfacet
 facet normal -8.752234e-01 -4.837189e-01  0.000000e+00
   outer loop
     vertex -6.096414e+01 -3.830631e+01  1.500000e+01
     vertex -6.486976e+01 -3.123963e+01  0.000000e+00
     vertex -6.096414e+01 -3.830631e+01  0.000000e+00
   endloop
 endfacet
 facet normal -5.607045e-02  9.984268e-01  0.000000e+00
   outer loop
     vertex -8.061442e+00  7.154728e+01  1.500000e+01
     vertex  2.032580e-12  7.200000e+01  0.000000e+00
     vertex -8.061442e+00  7.154728e+01  0.000000e+00
   endloop
 endfacet
 facet normal -8.752234e-01 -4.837189e-01 -0.000000e+00
   outer loop
     vertex -6.096414e+01 -3.830631e+01  1.500000e+01
     vertex -6.486976e+01 -3.123963e+01  1.500000e+01
     vertex -6.486976e+01 -3.123963e+01  0.000000e+00
   endloop
 endfacet
 facet normal -5.607045e-02  9.984268e-01  0.000000e+00
   outer loop
     vertex -8.061442e+00  7.154728e+01  1.500000e+01
     vertex  2.032580e-12  7.200000e+01  1.500000e+01
     vertex  2.032580e-12  7.200000e+01  0.000000e+00
   endloop
 endfacet
 facet normal  9.238795e-01 -3.826834e-01  0.000000e+00
   outer loop
     vertex  6.795960e+01 -2.378009e+01  1.500000e+01
     vertex  6.486976e+01 -3.123963e+01  0.000000e+00
     vertex  6.795960e+01 -2.378009e+01  0.000000e+00
   endloop
 endfacet
 facet normal -8.155609e-01 -5.786713e-01  0.000000e+00
   outer loop
     vertex -5.629187e+01 -4.489127e+01  1.500000e+01
     vertex -6.096414e+01 -3.830631e+01  0.000000e+00
     vertex -5.629187e+01 -4.489127e+01  0.000000e+00
   endloop
 endfacet
 facet normal  9.238795e-01 -3.826834e-01  0.000000e+00
   outer loop
     vertex  6.795960e+01 -2.378009e+01  1.500000e+01
     vertex  6.486976e+01 -3.123963e+01  1.500000e+01
     vertex  6.486976e+01 -3.123963e+01  0.000000e+00
   endloop
 endfacet
 facet normal -8.155609e-01 -5.786713e-01 -0.000000e+00
   outer loop
     vertex -5.629187e+01 -4.489127e+01  1.500000e+01
     vertex -6.096414e+01 -3.830631e+01  1.500000e+01
     vertex -6.096414e+01 -3.830631e+01  0.000000e+00
   endloop
 endfacet
 facet normal -1.675062e-01  9.858710e-01  0.000000e+00
   outer loop
     vertex -1.602151e+01  7.019481e+01  1.500000e+01
     vertex -8.061442e+00  7.154728e+01  0.000000e+00
     vertex -1.602151e+01  7.019481e+01  0.000000e+00
   endloop
 endfacet
 facet normal -1.675062e-01  9.858710e-01  0.000000e+00
   outer loop
     vertex -1.602151e+01  7.019481e+01  1.500000e+01
     vertex -8.061442e+00  7.154728e+01  1.500000e+01
     vertex -8.061442e+00  7.154728e+01  0.000000e+00
   endloop
 endfacet
 facet normal  9.609173e-01 -2.768355e-01  0.000000e+00
   outer loop
     vertex  7.019481e+01 -1.602151e+01  1.500000e+01
     vertex  6.795960e+01 -2.378009e+01  0.000000e+00
     vertex  7.019481e+01 -1.602151e+01  0.000000e+00
   endloop
 endfacet
 facet normal -7.456422e-01 -6.663466e-01  0.000000e+00
   outer loop
     vertex -5.091169e+01 -5.091169e+01  1.500000e+01
     vertex -5.629187e+01 -4.489127e+01  0.000000e+00
     vertex -5.091169e+01 -5.091169e+01  0.000000e+00
   endloop
 endfacet
 facet normal  9.609173e-01 -2.768355e-01  0.000000e+00
   outer loop
     vertex  7.019481e+01 -1.602151e+01  1.500000e+01
     vertex  6.795960e+01 -2.378009e+01  1.500000e+01
     vertex  6.795960e+01 -2.378009e+01  0.000000e+00
   endloop
 endfacet
 facet normal -7.456422e-01 -6.663466e-01 -0.000000e+00
   outer loop
     vertex -5.091169e+01 -5.091169e+01  1.500000e+01
     vertex -5.629187e+01 -4.489127e+01  1.500000e+01
     vertex -5.629187e+01 -4.489127e+01  0.000000e+00
   endloop
 endfacet
 facet normal -2.768355e-01  9.609173e-01  0.000000e+00
   outer loop
     vertex -2.378009e+01  6.795960e+01  1.500000e+01
     vertex -1.602151e+01  7.019481e+01  0.000000e+00
     vertex -2.378009e+01  6.795960e+01  0.000000e+00
   endloop
 endfacet
 facet normal  9.858710e-01 -1.675062e-01  0.000000e+00
   outer loop
     vertex  7.154728e+01 -8.061442e+00  1.500000e+01
     vertex  7.019481e+01 -1.602151e+01  0.000000e+00
     vertex  7.154728e+01 -8.061442e+00  0.000000e+00
   endloop
 endfacet
 facet normal  9.858710e-01 -1.675062e-01  0.000000e+00
   outer loop
     vertex  7.154728e+01 -8.061442e+00  1.500000e+01
     vertex  7.019481e+01 -1.602151e+01  1.500000e+01
     vertex  7.019481e+01 -1.602151e+01  0.000000e+00
   endloop
 endfacet
 facet normal -2.768355e-01  9.609173e-01  0.000000e+00
   outer loop
     vertex -2.378009e+01  6.795960e+01  1.500000e+01
     vertex -1.602151e+01  7.019481e+01  1.500000e+01
     vertex -1.602151e+01  7.019481e+01  0.000000e+00
   endloop
 endfacet
 facet normal -6.663466e-01 -7.456422e-01  0.000000e+00
   outer loop
     vertex -4.489127e+01 -5.629187e+01  1.500000e+01
     vertex -5.091169e+01 -5.091169e+01  0.000000e+00
     vertex -4.489127e+01 -5.629187e+01  0.000000e+00
   endloop
 endfacet
 facet normal  9.984268e-01 -5.607045e-02  0.000000e+00
   outer loop
     vertex  7.200000e+01 -1.763491e-14  1.500000e+01
     vertex  7.154728e+01 -8.061442e+00  1.500000e+01
     vertex  7.154728e+01 -8.061442e+00  0.000000e+00
   endloop
 endfacet
 facet normal  9.984268e-01 -5.607045e-02  0.000000e+00
   outer loop
     vertex  7.200000e+01 -1.763491e-14  1.500000e+01
     vertex  7.154728e+01 -8.061442e+00  0.000000e+00
     vertex  7.200000e+01 -1.763491e-14  0.000000e+00
   endloop
 endfacet
 facet normal -6.663466e-01 -7.456422e-01 -0.000000e+00
   outer loop
     vertex -4.489127e+01 -5.629187e+01  1.500000e+01
     vertex -5.091169e+01 -5.091169e+01  1.500000e+01
     vertex -5.091169e+01 -5.091169e+01  0.000000e+00
   endloop
 endfacet
 facet normal -3.826834e-01  9.238795e-01  0.000000e+00
   outer loop
     vertex -3.123963e+01  6.486976e+01  1.500000e+01
     vertex -2.378009e+01  6.795960e+01  0.000000e+00
     vertex -3.123963e+01  6.486976e+01  0.000000e+00
   endloop
 endfacet
 facet normal -3.826834e-01  9.238795e-01  0.000000e+00
   outer loop
     vertex -3.123963e+01  6.486976e+01  1.500000e+01
     vertex -2.378009e+01  6.795960e+01  1.500000e+01
     vertex -2.378009e+01  6.795960e+01  0.000000e+00
   endloop
 endfacet
 facet normal -5.786713e-01 -8.155609e-01  0.000000e+00
   outer loop
     vertex -3.830631e+01 -6.096414e+01  1.500000e+01
     vertex -4.489127e+01 -5.629187e+01  0.000000e+00
     vertex -3.830631e+01 -6.096414e+01  0.000000e+00
   endloop
 endfacet
 facet normal -5.786713e-01 -8.155609e-01 -0.000000e+00
   outer loop
     vertex -3.830631e+01 -6.096414e+01  1.500000e+01
     vertex -4.489127e+01 -5.629187e+01  1.500000e+01
     vertex -4.489127e+01 -5.629187e+01  0.000000e+00
   endloop
 endfacet
 facet normal -4.837189e-01  8.752234e-01  0.000000e+00
   outer loop
     vertex -3.830631e+01  6.096414e+01  1.500000e+01
     vertex -3.123963e+01  6.486976e+01  0.000000e+00
     vertex -3.830631e+01  6.096414e+01  0.000000e+00
   endloop
 endfacet
 facet normal -4.837189e-01  8.752234e-01  0.000000e+00
   outer loop
     vertex -3.830631e+01  6.096414e+01  1.500000e+01
     vertex -3.123963e+01  6.486976e+01  1.500000e+01
     vertex -3.123963e+01  6.486976e+01  0.000000e+00
   endloop
 endfacet
 facet normal -4.837189e-01 -8.752234e-01  0.000000e+00
   outer loop
     vertex -3.123963e+01 -6.486976e+01  1.500000e+01
     vertex -3.830631e+01 -6.096414e+01  0.000000e+00
     vertex -3.123963e+01 -6.486976e+01  0.000000e+00
   endloop
 endfacet
 facet normal -4.837189e-01 -8.752234e-01 -0.000000e+00
   outer loop
     vertex -3.123963e+01 -6.486976e+01  1.500000e+01
     vertex -3.830631e+01 -6.096414e+01  1.500000e+01
     vertex -3.830631e+01 -6.096414e+01  0.000000e+00
   endloop
 endfacet
 facet normal -5.786713e-01  8.155609e-01  0.000000e+00
   outer loop
     vertex -4.489127e+01  5.629187e+01  1.500000e+01
     vertex -3.830631e+01  6.096414e+01  0.000000e+00
     vertex -4.489127e+01  5.629187e+01  0.000000e+00
   endloop
 endfacet
 facet normal -5.786713e-01  8.155609e-01  0.000000e+00
   outer loop
     vertex -4.489127e+01  5.629187e+01  1.500000e+01
     vertex -3.830631e+01  6.096414e+01  1.500000e+01
     vertex -3.830631e+01  6.096414e+01  0.000000e+00
   endloop
 endfacet
 facet normal -3.826834e-01 -9.238795e-01  0.000000e+00
   outer loop
     vertex -2.378009e+01 -6.795960e+01  1.500000e+01
     vertex -3.123963e+01 -6.486976e+01  0.000000e+00
     vertex -2.378009e+01 -6.795960e+01  0.000000e+00
   endloop
 endfacet
 facet normal -3.826834e-01 -9.238795e-01 -0.000000e+00
   outer loop
     vertex -2.378009e+01 -6.795960e+01  1.500000e+01
     vertex -3.123963e+01 -6.486976e+01  1.500000e+01
     vertex -3.123963e+01 -6.486976e+01  0.000000e+00
   endloop
 endfacet
 facet normal -6.663466e-01  7.456422e-01  0.000000e+00
   outer loop
     vertex -5.091169e+01  5.091169e+01  1.500000e+01
     vertex -4.489127e+01  5.629187e+01  0.000000e+00
     vertex -5.091169e+01  5.091169e+01  0.000000e+00
   endloop
 endfacet
 facet normal -6.663466e-01  7.456422e-01  0.000000e+00
   outer loop
     vertex -5.091169e+01  5.091169e+01  1.500000e+01
     vertex -4.489127e+01  5.629187e+01  1.500000e+01
     vertex -4.489127e+01  5.629187e+01  0.000000e+00
   endloop
 endfacet
 facet normal -2.768355e-01 -9.609173e-01  0.000000e+00
   outer loop
     vertex -1.602151e+01 -7.019481e+01  1.500000e+01
     vertex -2.378009e+01 -6.795960e+01  0.000000e+00
     vertex -1.602151e+01 -7.019481e+01  0.000000e+00
   endloop
 endfacet
 facet normal -2.768355e-01 -9.609173e-01 -0.000000e+00
   outer loop
     vertex -1.602151e+01 -7.019481e+01  1.500000e+01
     vertex -2.378009e+01 -6.795960e+01  1.500000e+01
     vertex -2.378009e+01 -6.795960e+01  0.000000e+00
   endloop
 endfacet
 facet normal -7.456422e-01  6.663466e-01  0.000000e+00
   outer loop
     vertex -5.629187e+01  4.489127e+01  1.500000e+01
     vertex -5.091169e+01  5.091169e+01  0.000000e+00
     vertex -5.629187e+01  4.489127e+01  0.000000e+00
   endloop
 endfacet
 facet normal -7.456422e-01  6.663466e-01  0.000000e+00
   outer loop
     vertex -5.629187e+01  4.489127e+01  1.500000e+01
     vertex -5.091169e+01  5.091169e+01  1.500000e+01
     vertex -5.091169e+01  5.091169e+01  0.000000e+00
   endloop
 endfacet
 facet normal -1.675062e-01 -9.858710e-01  0.000000e+00
   outer loop
     vertex -8.061442e+00 -7.154728e+01  1.500000e+01
     vertex -1.602151e+01 -7.019481e+01  0.000000e+00
     vertex -8.061442e+00 -7.154728e+01  0.000000e+00
   endloop
 endfacet
 facet normal -1.675062e-01 -9.858710e-01 -0.000000e+00
   outer loop
     vertex -8.061442e+00 -7.154728e+01  1.500000e+01
     vertex -1.602151e+01 -7.019481e+01  1.500000e+01
     vertex -1.602151e+01 -7.019481e+01  0.000000e+00
   endloop
 endfacet
 facet normal -8.155609e-01  5.786713e-01  0.000000e+00
   outer loop
     vertex -6.096414e+01  3.830631e+01  1.500000e+01
     vertex -5.629187e+01  4.489127e+01  0.000000e+00
     vertex -6.096414e+01  3.830631e+01  0.000000e+00
   endloop
 endfacet
 facet normal -8.155609e-01  5.786713e-01  0.000000e+00
   outer loop
     vertex -6.096414e+01  3.830631e+01  1.500000e+01
     vertex -5.629187e+01  4.489127e+01  1.500000e+01
     vertex -5.629187e+01  4.489127e+01  0.000000e+00
   endloop
 endfacet
 facet normal -5.607045e-02 -9.984268e-01 -0.000000e+00
   outer loop
     vertex -5.887658e-13 -7.200000e+01  1.500000e+01
     vertex -8.061442e+00 -7.154728e+01  1.500000e+01
     vertex -8.061442e+00 -7.154728e+01  0.000000e+00
   endloop
 endfacet
 facet normal -5.607045e-02 -9.984268e-01  0.000000e+00
   outer loop
     vertex -5.887658e-13 -7.200000e+01  1.500000e+01
     vertex -8.061442e+00 -7.154728e+01  0.000000e+00
     vertex -5.887658e-13 -7.200000e+01  0.000000e+00
   endloop
 endfacet
 facet normal -8.752234e-01  4.837189e-01  0.000000e+00
   outer loop
     vertex -6.486976e+01  3.123963e+01  1.500000e+01
     vertex -6.096414e+01  3.830631e+01  0.000000e+00
     vertex -6.486976e+01  3.123963e+01  0.000000e+00
   endloop
 endfacet
 facet normal -8.752234e-01  4.837189e-01  0.000000e+00
   outer loop
     vertex -6.486976e+01  3.123963e+01  1.500000e+01
     vertex -6.096414e+01  3.830631e+01  1.500000e+01
     vertex -6.096414e+01  3.830631e+01  0.000000e+00
   endloop
 endfacet
 facet normal  5.607045e-02 -9.984268e-01  0.000000e+00
   outer loop
     vertex  8.061442e+00 -7.154728e+01  1.500000e+01
     vertex -5.887658e-13 -7.200000e+01  1.500000e+01
     vertex -5.887658e-13 -7.200000e+01  0.000000e+00
   endloop
 endfacet
 facet normal  5.607045e-02 -9.984268e-01  0.000000e+00
   outer loop
     vertex  8.061442e+00 -7.154728e+01  1.500000e+01
     vertex -5.887658e-13 -7.200000e+01  0.000000e+00
     vertex  8.061442e+00 -7.154728e+01  0.000000e+00
   endloop
 endfacet
 facet normal -9.238795e-01  3.826834e-01  0.000000e+00
   outer loop
     vertex -6.795960e+01  2.378009e+01  1.500000e+01
     vertex -6.486976e+01  3.123963e+01  0.000000e+00
     vertex -6.795960e+01  2.378009e+01  0.000000e+00
   endloop
 endfacet
 facet normal -9.238795e-01  3.826834e-01  0.000000e+00
   outer loop
     vertex -6.795960e+01  2.378009e+01  1.500000e+01
     vertex -6.486976e+01  3.123963e+01  1.500000e+01
     vertex -6.486976e+01  3.123963e+01  0.000000e+00
   endloop
 endfacet
 facet normal  1.675062e-01 -9.858710e-01  0.000000e+00
   outer loop
     vertex  1.602151e+01 -7.019481e+01  1.500000e+01
     vertex  8.061442e+00 -7.154728e+01  1.500000e+01
     vertex  8.061442e+00 -7.154728e+01  0.000000e+00
   endloop
 endfacet
 facet normal  1.675062e-01 -9.858710e-01  0.000000e+00
   outer loop
     vertex  1.602151e+01 -7.019481e+01  1.500000e+01
     vertex  8.061442e+00 -7.154728e+01  0.000000e+00
     vertex  1.602151e+01 -7.019481e+01  0.000000e+00
   endloop
 endfacet
 facet normal -9.609173e-01  2.768355e-01  0.000000e+00
   outer loop
     vertex -7.019481e+01  1.602151e+01  1.500000e+01
     vertex -6.795960e+01  2.378009e+01  0.000000e+00
     vertex -7.019481e+01  1.602151e+01  0.000000e+00
   endloop
 endfacet
 facet normal -9.609173e-01  2.768355e-01  0.000000e+00
   outer loop
     vertex -7.019481e+01  1.602151e+01  1.500000e+01
     vertex -6.795960e+01  2.378009e+01  1.500000e+01
     vertex -6.795960e+01  2.378009e+01  0.000000e+00
   endloop
 endfacet
 facet normal  2.768355e-01 -9.609173e-01  0.000000e+00
   outer loop
     vertex  2.378009e+01 -6.795960e+01  1.500000e+01
     vertex  1.602151e+01 -7.019481e+01  1.500000e+01
     vertex  1.602151e+01 -7.019481e+01  0.000000e+00
   endloop
 endfacet
 facet normal  2.768355e-01 -9.609173e-01  0.000000e+00
   outer loop
     vertex  2.378009e+01 -6.795960e+01  1.500000e+01
     vertex  1.602151e+01 -7.019481e+01  0.000000e+00
     vertex  2.378009e+01 -6.795960e+01  0.000000e+00
   endloop
 endfacet
 facet normal -9.858710e-01  1.675062e-01  0.000000e+00
   outer loop
     vertex -7.154728e+01  8.061442e+00  1.500000e+01
     vertex -7.019481e+01  1.602151e+01  0.000000e+00
     vertex -7.154728e+01  8.061442e+00  0.000000e+00
   endloop
 endfacet
 facet normal -9.858710e-01  1.675062e-01  0.000000e+00
   outer loop
     vertex -7.154728e+01  8.061442e+00  1.500000e+01
     vertex -7.019481e+01  1.602151e+01  1.500000e+01
     vertex -7.019481e+01  1.602151e+01  0.000000e+00
   endloop
 endfacet
 facet normal  3.826834e-01 -9.238795e-01  0.000000e+00
   outer loop
     vertex  3.123963e+01 -6.486976e+01  1.500000e+01
     vertex  2.378009e+01 -6.795960e+01  1.500000e+01
     vertex  2.378009e+01 -6.795960e+01  0.000000e+00
   endloop
 endfacet
 facet normal  3.826834e-01 -9.238795e-01  0.000000e+00
   outer loop
     vertex  3.123963e+01 -6.486976e+01  1.500000e+01
     vertex  2.378009e+01 -6.795960e+01  0.000000e+00
     vertex  3.123963e+01 -6.486976e+01  0.000000e+00
   endloop
 endfacet
 facet normal -9.984268e-01  5.607045e-02  0.000000e+00
   outer loop
     vertex -7.200000e+01  1.351743e-12  1.500000e+01
     vertex -7.154728e+01  8.061442e+00  0.000000e+00
     vertex -7.200000e+01  1.351743e-12  0.000000e+00
   endloop
 endfacet
 facet normal -9.984268e-01  5.607045e-02  0.000000e+00
   outer loop
     vertex -7.200000e+01  1.351743e-12  1.500000e+01
     vertex -7.154728e+01  8.061442e+00  1.500000e+01
     vertex -7.154728e+01  8.061442e+00  0.000000e+00
   endloop
 endfacet
 facet normal  4.837189e-01 -8.752234e-01  0.000000e+00
   outer loop
     vertex  3.830631e+01 -6.096414e+01  1.500000e+01
     vertex  3.123963e+01 -6.486976e+01  1.500000e+01
     vertex  3.123963e+01 -6.486976e+01  0.000000e+00
   endloop
 endfacet
 facet normal  4.837189e-01 -8.752234e-01  0.000000e+00
   outer loop
     vertex  3.830631e+01 -6.096414e+01  1.500000e+01
     vertex  3.123963e+01 -6.486976e+01  0.000000e+00
     vertex  3.830631e+01 -6.096414e+01  0.000000e+00
   endloop
 endfacet
 facet normal -9.984268e-01 -5.607045e-02  0.000000e+00
   outer loop
     vertex -7.154728e+01 -8.061442e+00  1.500000e+01
     vertex -7.200000e+01  1.351743e-12  0.000000e+00
     vertex -7.154728e+01 -8.061442e+00  0.000000e+00
   endloop
 endfacet
 facet normal -9.984268e-01 -5.607045e-02 -0.000000e+00
   outer loop
     vertex -7.154728e+01 -8.061442e+00  1.500000e+01
     vertex -7.200000e+01  1.351743e-12  1.500000e+01
     vertex -7.200000e+01  1.351743e-12  0.000000e+00
   endloop
 endfacet
 facet normal  5.786713e-01 -8.155609e-01  0.000000e+00
   outer loop
     vertex  4.489127e+01 -5.629187e+01  1.500000e+01
     vertex  3.830631e+01 -6.096414e+01  1.500000e+01
     vertex  3.830631e+01 -6.096414e+01  0.000000e+00
   endloop
 endfacet
 facet normal  5.786713e-01 -8.155609e-01  0.000000e+00
   outer loop
     vertex  4.489127e+01 -5.629187e+01  1.500000e+01
     vertex  3.830631e+01 -6.096414e+01  0.000000e+00
     vertex  4.489127e+01 -5.629187e+01  0.000000e+00
   endloop
 endfacet
 facet normal -9.858710e-01 -1.675062e-01  0.000000e+00
   outer loop
     vertex -7.019481e+01 -1.602151e+01  1.500000e+01
     vertex -7.154728e+01 -8.061442e+00  0.000000e+00
     vertex -7.019481e+01 -1.602151e+01  0.000000e+00
   endloop
 endfacet
 facet normal  6.663466e-01 -7.456422e-01  0.000000e+00
   outer loop
     vertex  5.091169e+01 -5.091169e+01  1.500000e+01
     vertex  4.489127e+01 -5.629187e+01  1.500000e+01
     vertex  4.489127e+01 -5.629187e+01  0.000000e+00
   endloop
 endfacet
 facet normal -9.858710e-01 -1.675062e-01 -0.000000e+00
   outer loop
     vertex -7.019481e+01 -1.602151e+01  1.500000e+01
     vertex -7.154728e+01 -8.061442e+00  1.500000e+01
     vertex -7.154728e+01 -8.061442e+00  0.000000e+00
   endloop
 endfacet
 facet normal  6.663466e-01 -7.456422e-01  0.000000e+00
   outer loop
     vertex  5.091169e+01 -5.091169e+01  1.500000e+01
     vertex  4.489127e+01 -5.629187e+01  0.000000e+00
     vertex  5.091169e+01 -5.091169e+01  0.000000e+00
   endloop
 endfacet
 facet normal  2.449294e-16  1.000000e+00  0.000000e+00
   outer loop
     vertex  7.200000e+01 -1.763491e-14  1.500000e+01
     vertex  7.200000e+01 -1.763491e-14  0.000000e+00
     vertex  6.500000e+01 -1.592041e-14  0.000000e+00
   endloop
 endfacet
 facet normal  2.449294e-16  1.000000e+00 -0.000000e+00
   outer loop
     vertex  7.200000e+01 -1.763491e-14  1.500000e+01
     vertex  6.500000e+01 -1.592041e-14  0.000000e+00
     vertex  6.500000e+01 -1.592041e-14  1.500000e+01
   endloop
 endfacet
 facet normal  0.000000e+00  0.000000e+00 -1.000000e+00
   outer loop
     vertex  3.123963e+01 -6.486976e+01  0.000000e+00
     vertex  2.487442e+01 -6.005217e+01  0.000000e+00
     vertex  3.176038e+01 -5.671224e+01  0.000000e+00
   endloop
 endfacet
 facet normal  0.000000e+00  0.000000e+00 -1.000000e+00
   outer loop
     vertex  5.091169e+01 -5.091169e+01  0.000000e+00
     vertex  4.412205e+01 -4.773096e+01  0.000000e+00
     vertex  4.942639e+01 -4.221412e+01  0.000000e+00
   endloop
 endfacet
 facet normal  0.000000e+00  0.000000e+00 -1.000000e+00
   outer loop
     vertex -1.517395e+01  6.320404e+01  0.000000e+00
     vertex -1.602151e+01  7.019481e+01  0.000000e+00
     vertex -7.639931e+00  6.454945e+01  0.000000e+00
   endloop
 endfacet
 facet normal  0.000000e+00  0.000000e+00 -1.000000e+00
   outer loop
     vertex -5.887658e-13 -7.200000e+01  0.000000e+00
     vertex -5.099841e+00 -6.479963e+01  0.000000e+00
     vertex  2.551888e+00 -6.494989e+01  0.000000e+00
   endloop
 endfacet
 facet normal -0.000000e+00  0.000000e+00 -1.000000e+00
   outer loop
     vertex  8.061442e+00 -7.154728e+01  0.000000e+00
     vertex -5.887658e-13 -7.200000e+01  0.000000e+00
     vertex  2.551888e+00 -6.494989e+01  0.000000e+00
   endloop
 endfacet
 facet normal  0.000000e+00  0.000000e+00 -1.000000e+00
   outer loop
     vertex -6.479963e+01 -5.099841e+00  0.000000e+00
     vertex -7.200000e+01  1.351743e-12  0.000000e+00
     vertex -6.494989e+01  2.551888e+00  0.000000e+00
   endloop
 endfacet
 facet normal  0.000000e+00  0.000000e+00 -1.000000e+00
   outer loop
     vertex -7.200000e+01  1.351743e-12  0.000000e+00
     vertex -7.154728e+01  8.061442e+00  0.000000e+00
     vertex -6.494989e+01  2.551888e+00  0.000000e+00
   endloop
 endfacet
 facet normal  0.000000e+00  0.000000e+00 -1.000000e+00
   outer loop
     vertex -2.950938e+01  5.791542e+01  0.000000e+00
     vertex -3.123963e+01  6.486976e+01  0.000000e+00
     vertex -2.249761e+01  6.098244e+01  0.000000e+00
   endloop
 endfacet
 facet normal  0.000000e+00  0.000000e+00 -1.000000e+00
   outer loop
     vertex -4.773096e+01  4.412205e+01  0.000000e+00
     vertex -5.091169e+01  5.091169e+01  0.000000e+00
     vertex -4.221412e+01  4.942639e+01  0.000000e+00
   endloop
 endfacet
 facet normal  0.000000e+00  0.000000e+00 -1.000000e+00
   outer loop
     vertex -6.005217e+01  2.487442e+01  0.000000e+00
     vertex -6.486976e+01  3.123963e+01  0.000000e+00
     vertex -5.671224e+01  3.176038e+01  0.000000e+00
   endloop
 endfacet
 facet normal  0.000000e+00  0.000000e+00 -1.000000e+00
   outer loop
     vertex  5.091169e+01 -5.091169e+01  0.000000e+00
     vertex  4.942639e+01 -4.221412e+01  0.000000e+00
     vertex  5.629187e+01 -4.489127e+01  0.000000e+00
   endloop
 endfacet
 facet normal  0.000000e+00  0.000000e+00 -1.000000e+00
   outer loop
     vertex -4.221412e+01  4.942639e+01  0.000000e+00
     vertex -5.091169e+01  5.091169e+01  0.000000e+00
     vertex -4.489127e+01  5.629187e+01  0.000000e+00
   endloop
 endfacet
 facet normal  0.000000e+00  0.000000e+00 -1.000000e+00
   outer loop
     vertex  5.629187e+01 -4.489127e+01  0.000000e+00
     vertex  4.942639e+01 -4.221412e+01  0.000000e+00
     vertex  5.404552e+01 -3.611207e+01  0.000000e+00
   endloop
 endfacet
 facet normal  0.000000e+00  0.000000e+00 -1.000000e+00
   outer loop
     vertex -5.091169e+01 -5.091169e+01  0.000000e+00
     vertex -5.629187e+01 -4.489127e+01  0.000000e+00
     vertex -4.596194e+01 -4.596194e+01  0.000000e+00
   endloop
 endfacet
 facet normal  0.000000e+00  0.000000e+00 -1.000000e+00
   outer loop
     vertex  3.123963e+01 -6.486976e+01  0.000000e+00
     vertex  3.176038e+01 -5.671224e+01  0.000000e+00
     vertex  3.830631e+01 -6.096414e+01  0.000000e+00
   endloop
 endfacet
 facet normal  0.000000e+00  0.000000e+00 -1.000000e+00
   outer loop
     vertex -4.489127e+01 -5.629187e+01  0.000000e+00
     vertex -5.091169e+01 -5.091169e+01  0.000000e+00
     vertex -4.596194e+01 -4.596194e+01  0.000000e+00
   endloop
 endfacet
 facet normal  0.000000e+00  0.000000e+00 -1.000000e+00
   outer loop
     vertex  7.019481e+01 -1.602151e+01  0.000000e+00
     vertex  6.454945e+01 -7.639931e+00  0.000000e+00
     vertex  7.154728e+01 -8.061442e+00  0.000000e+00
   endloop
 endfacet
 facet normal -0.000000e+00  0.000000e+00 -1.000000e+00
   outer loop
     vertex -5.671224e+01  3.176038e+01  0.000000e+00
     vertex -6.486976e+01  3.123963e+01  0.000000e+00
     vertex -6.096414e+01  3.830631e+01  0.000000e+00
   endloop
 endfacet
 facet normal  0.000000e+00  0.000000e+00 -1.000000e+00
   outer loop
     vertex -7.639931e+00  6.454945e+01  0.000000e+00
     vertex -1.602151e+01  7.019481e+01  0.000000e+00
     vertex -8.061442e+00  7.154728e+01  0.000000e+00
   endloop
 endfacet
 facet normal  0.000000e+00  0.000000e+00 -1.000000e+00
   outer loop
     vertex -7.639931e+00  6.454945e+01  0.000000e+00
     vertex -8.061442e+00  7.154728e+01  0.000000e+00
     vertex  2.037029e-12  6.500000e+01  0.000000e+00
   endloop
 endfacet
 facet normal  0.000000e+00  0.000000e+00 -1.000000e+00
   outer loop
     vertex -4.489127e+01 -5.629187e+01  0.000000e+00
     vertex -4.596194e+01 -4.596194e+01  0.000000e+00
     vertex -4.024111e+01 -5.104560e+01  0.000000e+00
   endloop
 endfacet
 facet normal -0.000000e+00  0.000000e+00 -1.000000e+00
   outer loop
     vertex  1.602151e+01 -7.019481e+01  0.000000e+00
     vertex  8.061442e+00 -7.154728e+01  0.000000e+00
     vertex  1.016824e+01 -6.419974e+01  0.000000e+00
   endloop
 endfacet
 facet normal  0.000000e+00  0.000000e+00 -1.000000e+00
   outer loop
     vertex  8.061442e+00 -7.154728e+01  0.000000e+00
     vertex  2.551888e+00 -6.494989e+01  0.000000e+00
     vertex  1.016824e+01 -6.419974e+01  0.000000e+00
   endloop
 endfacet
 facet normal  0.000000e+00  0.000000e+00 -1.000000e+00
   outer loop
     vertex -3.830631e+01 -6.096414e+01  0.000000e+00
     vertex -4.489127e+01 -5.629187e+01  0.000000e+00
     vertex -4.024111e+01 -5.104560e+01  0.000000e+00
   endloop
 endfacet
 facet normal  0.000000e+00  0.000000e+00 -1.000000e+00
   outer loop
     vertex -5.629187e+01 -4.489127e+01  0.000000e+00
     vertex -6.096414e+01 -3.830631e+01  0.000000e+00
     vertex -5.104560e+01 -4.024111e+01  0.000000e+00
   endloop
 endfacet
 facet normal  0.000000e+00  0.000000e+00 -1.000000e+00
   outer loop
     vertex  6.486976e+01 -3.123963e+01  0.000000e+00
     vertex  6.098244e+01 -2.249761e+01  0.000000e+00
     vertex  6.795960e+01 -2.378009e+01  0.000000e+00
   endloop
 endfacet
 facet normal  0.000000e+00  0.000000e+00 -1.000000e+00
   outer loop
     vertex -4.596194e+01 -4.596194e+01  0.000000e+00
     vertex -5.629187e+01 -4.489127e+01  0.000000e+00
     vertex -5.104560e+01 -4.024111e+01  0.000000e+00
   endloop
 endfacet
 facet normal  0.000000e+00  0.000000e+00 -1.000000e+00
   outer loop
     vertex -2.249761e+01  6.098244e+01  0.000000e+00
     vertex -3.123963e+01  6.486976e+01  0.000000e+00
     vertex -2.378009e+01  6.795960e+01  0.000000e+00
   endloop
 endfacet
 facet normal  0.000000e+00  0.000000e+00 -1.000000e+00
   outer loop
     vertex -3.830631e+01 -6.096414e+01  0.000000e+00
     vertex -4.024111e+01 -5.104560e+01  0.000000e+00
     vertex -3.396241e+01 -5.542161e+01  0.000000e+00
   endloop
 endfacet
 facet normal  0.000000e+00  0.000000e+00 -1.000000e+00
   outer loop
     vertex -4.221412e+01  4.942639e+01  0.000000e+00
     vertex -4.489127e+01  5.629187e+01  0.000000e+00
     vertex -3.611207e+01  5.404552e+01  0.000000e+00
   endloop
 endfacet
 facet normal  0.000000e+00  0.000000e+00 -1.000000e+00
   outer loop
     vertex -3.123963e+01 -6.486976e+01  0.000000e+00
     vertex -3.830631e+01 -6.096414e+01  0.000000e+00
     vertex -3.396241e+01 -5.542161e+01  0.000000e+00
   endloop
 endfacet
 facet normal  0.000000e+00  0.000000e+00 -1.000000e+00
   outer loop
     vertex  3.830631e+01 -6.096414e+01  0.000000e+00
     vertex  3.176038e+01 -5.671224e+01  0.000000e+00
     vertex  3.820604e+01 -5.258610e+01  0.000000e+00
   endloop
 endfacet
 facet normal  0.000000e+00  0.000000e+00 -1.000000e+00
   outer loop
     vertex -7.154728e+01  8.061442e+00  0.000000e+00
     vertex -7.019481e+01  1.602151e+01  0.000000e+00
     vertex -6.419974e+01  1.016824e+01  0.000000e+00
   endloop
 endfacet
 facet normal  0.000000e+00  0.000000e+00 -1.000000e+00
   outer loop
     vertex -6.494989e+01  2.551888e+00  0.000000e+00
     vertex -7.154728e+01  8.061442e+00  0.000000e+00
     vertex -6.419974e+01  1.016824e+01  0.000000e+00
   endloop
 endfacet
 facet normal  0.000000e+00  0.000000e+00 -1.000000e+00
   outer loop
     vertex -5.104560e+01 -4.024111e+01  0.000000e+00
     vertex -6.096414e+01 -3.830631e+01  0.000000e+00
     vertex -5.542161e+01 -3.396241e+01  0.000000e+00
   endloop
 endfacet
 facet normal  0.000000e+00  0.000000e+00 -1.000000e+00
   outer loop
     vertex  6.795960e+01 -2.378009e+01  0.000000e+00
     vertex  6.098244e+01 -2.249761e+01  0.000000e+00
     vertex  6.320404e+01 -1.517395e+01  0.000000e+00
   endloop
 endfacet
 facet normal  0.000000e+00  0.000000e+00 -1.000000e+00
   outer loop
     vertex -6.096414e+01 -3.830631e+01  0.000000e+00
     vertex -6.486976e+01 -3.123963e+01  0.000000e+00
     vertex -5.542161e+01 -3.396241e+01  0.000000e+00
   endloop
 endfacet
 facet normal  0.000000e+00  0.000000e+00 -1.000000e+00
   outer loop
     vertex -3.123963e+01 -6.486976e+01  0.000000e+00
     vertex -3.396241e+01 -5.542161e+01  0.000000e+00
     vertex -2.721288e+01 -5.902931e+01  0.000000e+00
   endloop
 endfacet
 facet normal  0.000000e+00  0.000000e+00 -1.000000e+00
   outer loop
     vertex -2.378009e+01 -6.795960e+01  0.000000e+00
     vertex -3.123963e+01 -6.486976e+01  0.000000e+00
     vertex -2.721288e+01 -5.902931e+01  0.000000e+00
   endloop
 endfacet
 facet normal  0.000000e+00  0.000000e+00 -1.000000e+00
   outer loop
     vertex  1.602151e+01 -7.019481e+01  0.000000e+00
     vertex  1.016824e+01 -6.419974e+01  0.000000e+00
     vertex  1.764363e+01 -6.255959e+01  0.000000e+00
   endloop
 endfacet
 facet normal  0.000000e+00  0.000000e+00 -1.000000e+00
   outer loop
     vertex -6.486976e+01 -3.123963e+01  0.000000e+00
     vertex -6.795960e+01 -2.378009e+01  0.000000e+00
     vertex -5.902931e+01 -2.721288e+01  0.000000e+00
   endloop
 endfacet
 facet normal  0.000000e+00  0.000000e+00 -1.000000e+00
   outer loop
     vertex  7.154728e+01 -8.061442e+00  0.000000e+00
     vertex  6.454945e+01 -7.639931e+00  0.000000e+00
     vertex  6.500000e+01 -1.592041e-14  0.000000e+00
   endloop
 endfacet
 facet normal  0.000000e+00  0.000000e+00 -1.000000e+00
   outer loop
     vertex -5.671224e+01  3.176038e+01  0.000000e+00
     vertex -6.096414e+01  3.830631e+01  0.000000e+00
     vertex -5.258610e+01  3.820604e+01  0.000000e+00
   endloop
 endfacet
 facet normal  0.000000e+00  0.000000e+00 -1.000000e+00
   outer loop
     vertex -5.542161e+01 -3.396241e+01  0.000000e+00
     vertex -6.486976e+01 -3.123963e+01  0.000000e+00
     vertex -5.902931e+01 -2.721288e+01  0.000000e+00
   endloop
 endfacet
 facet normal  0.000000e+00  0.000000e+00 -1.000000e+00
   outer loop
     vertex  3.830631e+01 -6.096414e+01  0.000000e+00
     vertex  3.820604e+01 -5.258610e+01  0.000000e+00
     vertex  4.489127e+01 -5.629187e+01  0.000000e+00
   endloop
 endfacet
 facet normal  0.000000e+00  0.000000e+00 -1.000000e+00
   outer loop
     vertex  5.629187e+01 -4.489127e+01  0.000000e+00
     vertex  5.404552e+01 -3.611207e+01  0.000000e+00
     vertex  6.096414e+01 -3.830631e+01  0.000000e+00
   endloop
 endfacet
 facet normal  0.000000e+00  0.000000e+00 -1.000000e+00
   outer loop
     vertex -5.258610e+01  3.820604e+01  0.000000e+00
     vertex -6.096414e+01  3.830631e+01  0.000000e+00
     vertex -5.629187e+01  4.489127e+01  0.000000e+00
   endloop
 endfacet
 facet normal  0.000000e+00  0.000000e+00 -1.000000e+00
   outer loop
     vertex -3.611207e+01  5.404552e+01  0.000000e+00
     vertex -4.489127e+01  5.629187e+01  0.000000e+00
     vertex -3.830631e+01  6.096414e+01  0.000000e+00
   endloop
 endfacet
 facet normal  0.000000e+00  0.000000e+00 -1.000000e+00
   outer loop
     vertex -1.602151e+01 -7.019481e+01  0.000000e+00
     vertex -2.378009e+01 -6.795960e+01  0.000000e+00
     vertex -2.008610e+01 -6.181867e+01  0.000000e+00
   endloop
 endfacet
 facet normal  0.000000e+00  0.000000e+00 -1.000000e+00
   outer loop
     vertex -6.419974e+01  1.016824e+01  0.000000e+00
     vertex -7.019481e+01  1.602151e+01  0.000000e+00
     vertex -6.255959e+01  1.764363e+01  0.000000e+00
   endloop
 endfacet
 facet normal  0.000000e+00  0.000000e+00 -1.000000e+00
   outer loop
     vertex -2.249761e+01  6.098244e+01  0.000000e+00
     vertex -2.378009e+01  6.795960e+01  0.000000e+00
     vertex -1.517395e+01  6.320404e+01  0.000000e+00
   endloop
 endfacet
 facet normal  0.000000e+00  0.000000e+00 -1.000000e+00
   outer loop
     vertex  6.096414e+01 -3.830631e+01  0.000000e+00
     vertex  5.404552e+01 -3.611207e+01  0.000000e+00
     vertex  5.791542e+01 -2.950938e+01  0.000000e+00
   endloop
 endfacet
 facet normal  0.000000e+00  0.000000e+00 -1.000000e+00
   outer loop
     vertex -2.378009e+01 -6.795960e+01  0.000000e+00
     vertex -2.721288e+01 -5.902931e+01  0.000000e+00
     vertex -2.008610e+01 -6.181867e+01  0.000000e+00
   endloop
 endfacet
 facet normal  0.000000e+00  0.000000e+00 -1.000000e+00
   outer loop
     vertex -6.795960e+01 -2.378009e+01  0.000000e+00
     vertex -7.019481e+01 -1.602151e+01  0.000000e+00
     vertex -6.181867e+01 -2.008610e+01  0.000000e+00
   endloop
 endfacet
 facet normal  0.000000e+00  0.000000e+00 -1.000000e+00
   outer loop
     vertex -5.902931e+01 -2.721288e+01  0.000000e+00
     vertex -6.795960e+01 -2.378009e+01  0.000000e+00
     vertex -6.181867e+01 -2.008610e+01  0.000000e+00
   endloop
 endfacet
 facet normal  0.000000e+00  0.000000e+00 -1.000000e+00
   outer loop
     vertex  4.489127e+01 -5.629187e+01  0.000000e+00
     vertex  3.820604e+01 -5.258610e+01  0.000000e+00
     vertex  4.412205e+01 -4.773096e+01  0.000000e+00
   endloop
 endfacet
 facet normal  0.000000e+00  0.000000e+00 -1.000000e+00
   outer loop
     vertex  1.602151e+01 -7.019481e+01  0.000000e+00
     vertex  1.764363e+01 -6.255959e+01  0.000000e+00
     vertex  2.378009e+01 -6.795960e+01  0.000000e+00
   endloop
 endfacet
 facet normal  0.000000e+00  0.000000e+00 -1.000000e+00
   outer loop
     vertex  7.154728e+01 -8.061442e+00  0.000000e+00
     vertex  6.500000e+01 -1.592041e-14  0.000000e+00
     vertex  7.200000e+01 -1.763491e-14  0.000000e+00
   endloop
 endfacet
 facet normal -0.000000e+00  0.000000e+00 -1.000000e+00
   outer loop
     vertex -6.255959e+01  1.764363e+01  0.000000e+00
     vertex -7.019481e+01  1.602151e+01  0.000000e+00
     vertex -6.795960e+01  2.378009e+01  0.000000e+00
   endloop
 endfacet
 facet normal  0.000000e+00  0.000000e+00 -1.000000e+00
   outer loop
     vertex -1.602151e+01 -7.019481e+01  0.000000e+00
     vertex -2.008610e+01 -6.181867e+01  0.000000e+00
     vertex -1.268087e+01 -6.375104e+01  0.000000e+00
   endloop
 endfacet
 facet normal  0.000000e+00  0.000000e+00 -1.000000e+00
   outer loop
     vertex  2.037029e-12  6.500000e+01  0.000000e+00
     vertex -8.061442e+00  7.154728e+01  0.000000e+00
     vertex  2.032580e-12  7.200000e+01  0.000000e+00
   endloop
 endfacet
 facet normal  0.000000e+00  0.000000e+00 -1.000000e+00
   outer loop
     vertex -8.061442e+00 -7.154728e+01  0.000000e+00
     vertex -1.602151e+01 -7.019481e+01  0.000000e+00
     vertex -1.268087e+01 -6.375104e+01  0.000000e+00
   endloop
 endfacet
 facet normal  0.000000e+00  0.000000e+00 -1.000000e+00
   outer loop
     vertex  2.378009e+01 -6.795960e+01  0.000000e+00
     vertex  1.764363e+01 -6.255959e+01  0.000000e+00
     vertex  2.487442e+01 -6.005217e+01  0.000000e+00
   endloop
 endfacet
 facet normal  0.000000e+00  0.000000e+00 -1.000000e+00
   outer loop
     vertex -3.611207e+01  5.404552e+01  0.000000e+00
     vertex -3.830631e+01  6.096414e+01  0.000000e+00
     vertex -2.950938e+01  5.791542e+01  0.000000e+00
   endloop
 endfacet
 facet normal  0.000000e+00  0.000000e+00 -1.000000e+00
   outer loop
     vertex  6.795960e+01 -2.378009e+01  0.000000e+00
     vertex  6.320404e+01 -1.517395e+01  0.000000e+00
     vertex  7.019481e+01 -1.602151e+01  0.000000e+00
   endloop
 endfacet
 facet normal  0.000000e+00  0.000000e+00 -1.000000e+00
   outer loop
     vertex -7.019481e+01 -1.602151e+01  0.000000e+00
     vertex -7.154728e+01 -8.061442e+00  0.000000e+00
     vertex -6.375104e+01 -1.268087e+01  0.000000e+00
   endloop
 endfacet
 facet normal  0.000000e+00  0.000000e+00 -1.000000e+00
   outer loop
     vertex -6.181867e+01 -2.008610e+01  0.000000e+00
     vertex -7.019481e+01 -1.602151e+01  0.000000e+00
     vertex -6.375104e+01 -1.268087e+01  0.000000e+00
   endloop
 endfacet
 facet normal  0.000000e+00  0.000000e+00 -1.000000e+00
   outer loop
     vertex -1.517395e+01  6.320404e+01  0.000000e+00
     vertex -2.378009e+01  6.795960e+01  0.000000e+00
     vertex -1.602151e+01  7.019481e+01  0.000000e+00
   endloop
 endfacet
 facet normal  0.000000e+00  0.000000e+00 -1.000000e+00
   outer loop
     vertex  7.019481e+01 -1.602151e+01  0.000000e+00
     vertex  6.320404e+01 -1.517395e+01  0.000000e+00
     vertex  6.454945e+01 -7.639931e+00  0.000000e+00
   endloop
 endfacet
 facet normal  0.000000e+00  0.000000e+00 -1.000000e+00
   outer loop
     vertex -5.258610e+01  3.820604e+01  0.000000e+00
     vertex -5.629187e+01  4.489127e+01  0.000000e+00
     vertex -4.773096e+01  4.412205e+01  0.000000e+00
   endloop
 endfacet
 facet normal  0.000000e+00  0.000000e+00 -1.000000e+00
   outer loop
     vertex -6.255959e+01  1.764363e+01  0.000000e+00
     vertex -6.795960e+01  2.378009e+01  0.000000e+00
     vertex -6.005217e+01  2.487442e+01  0.000000e+00
   endloop
 endfacet
 facet normal  0.000000e+00  0.000000e+00 -1.000000e+00
   outer loop
     vertex  4.489127e+01 -5.629187e+01  0.000000e+00
     vertex  4.412205e+01 -4.773096e+01  0.000000e+00
     vertex  5.091169e+01 -5.091169e+01  0.000000e+00
   endloop
 endfacet
 facet normal  0.000000e+00  0.000000e+00 -1.000000e+00
   outer loop
     vertex -4.773096e+01  4.412205e+01  0.000000e+00
     vertex -5.629187e+01  4.489127e+01  0.000000e+00
     vertex -5.091169e+01  5.091169e+01  0.000000e+00
   endloop
 endfacet
 facet normal  0.000000e+00  0.000000e+00 -1.000000e+00
   outer loop
     vertex -5.887658e-13 -7.200000e+01  0.000000e+00
     vertex -8.061442e+00 -7.154728e+01  0.000000e+00
     vertex -5.099841e+00 -6.479963e+01  0.000000e+00
   endloop
 endfacet
 facet normal  0.000000e+00  0.000000e+00 -1.000000e+00
   outer loop
     vertex -8.061442e+00 -7.154728e+01  0.000000e+00
     vertex -1.268087e+01 -6.375104e+01  0.000000e+00
     vertex -5.099841e+00 -6.479963e+01  0.000000e+00
   endloop
 endfacet
 facet normal  0.000000e+00  0.000000e+00 -1.000000e+00
   outer loop
     vertex  6.096414e+01 -3.830631e+01  0.000000e+00
     vertex  5.791542e+01 -2.950938e+01  0.000000e+00
     vertex  6.486976e+01 -3.123963e+01  0.000000e+00
   endloop
 endfacet
 facet normal  0.000000e+00  0.000000e+00 -1.000000e+00
   outer loop
     vertex  2.378009e+01 -6.795960e+01  0.000000e+00
     vertex  2.487442e+01 -6.005217e+01  0.000000e+00
     vertex  3.123963e+01 -6.486976e+01  0.000000e+00
   endloop
 endfacet
 facet normal  0.000000e+00  0.000000e+00 -1.000000e+00
   outer loop
     vertex -7.154728e+01 -8.061442e+00  0.000000e+00
     vertex -7.200000e+01  1.351743e-12  0.000000e+00
     vertex -6.479963e+01 -5.099841e+00  0.000000e+00
   endloop
 endfacet
 facet normal  0.000000e+00  0.000000e+00 -1.000000e+00
   outer loop
     vertex -2.950938e+01  5.791542e+01  0.000000e+00
     vertex -3.830631e+01  6.096414e+01  0.000000e+00
     vertex -3.123963e+01  6.486976e+01  0.000000e+00
   endloop
 endfacet
 facet normal  0.000000e+00  0.000000e+00 -1.000000e+00
   outer loop
     vertex -6.375104e+01 -1.268087e+01  0.000000e+00
     vertex -7.154728e+01 -8.061442e+00  0.000000e+00
     vertex -6.479963e+01 -5.099841e+00  0.000000e+00
   endloop
 endfacet
 facet normal -0.000000e+00  0.000000e+00 -1.000000e+00
   outer loop
     vertex -6.005217e+01  2.487442e+01  0.000000e+00
     vertex -6.795960e+01  2.378009e+01  0.000000e+00
     vertex -6.486976e+01  3.123963e+01  0.000000e+00
   endloop
 endfacet
 facet normal  0.000000e+00  0.000000e+00 -1.000000e+00
   outer loop
     vertex  6.486976e+01 -3.123963e+01  0.000000e+00
     vertex  5.791542e+01 -2.950938e+01  0.000000e+00
     vertex  6.098244e+01 -2.249761e+01  0.000000e+00
   endloop
 endfacet
 facet normal  1.000000e+00  6.355176e-16 -0.000000e+00
   outer loop
     vertex  2.037029e-12  6.500000e+01  1.500000e+01
     vertex  2.032580e-12  7.200000e+01  0.000000e+00
     vertex  2.032580e-12  7.200000e+01  1.500000e+01
   endloop
 endfacet
 facet normal  1.000000e+00  6.355176e-16  0.000000e+00
   outer loop
     vertex  2.037029e-12  6.500000e+01  1.500000e+01
     vertex  2.037029e-12  6.500000e+01  0.000000e+00
     vertex  2.032580e-12  7.200000e+01  0.000000e+00
   endloop
 endfacet
 facet normal  0.000000e+00  0.000000e+00  1.000000e+00
   outer loop
     vertex  3.176038e+01 -5.671224e+01  1.500000e+01
     vertex  2.487442e+01 -6.005217e+01  1.500000e+01
     vertex  3.123963e+01 -6.486976e+01  1.500000e+01
   endloop
 endfacet
 facet normal  0.000000e+00  0.000000e+00  1.000000e+00
   outer loop
     vertex  4.942639e+01 -4.221412e+01  1.500000e+01
     vertex  4.412205e+01 -4.773096e+01  1.500000e+01
     vertex  5.091169e+01 -5.091169e+01  1.500000e+01
   endloop
 endfacet
 facet normal  0.000000e+00  0.000000e+00  1.000000e+00
   outer loop
     vertex -7.639931e+00  6.454945e+01  1.500000e+01
     vertex -1.602151e+01  7.019481e+01  1.500000e+01
     vertex -1.517395e+01  6.320404e+01  1.500000e+01
   endloop
 endfacet
 facet normal  0.000000e+00  0.000000e+00  1.000000e+00
   outer loop
     vertex  2.551888e+00 -6.494989e+01  1.500000e+01
     vertex -5.099841e+00 -6.479963e+01  1.500000e+01
     vertex -5.887658e-13 -7.200000e+01  1.500000e+01
   endloop
 endfacet
 facet normal -0.000000e+00  0.000000e+00  1.000000e+00
   outer loop
     vertex  2.551888e+00 -6.494989e+01  1.500000e+01
     vertex -5.887658e-13 -7.200000e+01  1.500000e+01
     vertex  8.061442e+00 -7.154728e+01  1.500000e+01
   endloop
 endfacet
 facet normal  0.000000e+00  0.000000e+00  1.000000e+00
   outer loop
     vertex -6.494989e+01  2.551888e+00  1.500000e+01
     vertex -7.200000e+01  1.351743e-12  1.500000e+01
     vertex -6.479963e+01 -5.099841e+00  1.500000e+01
   endloop
 endfacet
 facet normal  0.000000e+00  0.000000e+00  1.000000e+00
   outer loop
     vertex -6.494989e+01  2.551888e+00  1.500000e+01
     vertex -7.154728e+01  8.061442e+00  1.500000e+01
     vertex -7.200000e+01  1.351743e-12  1.500000e+01
   endloop
 endfacet
 facet normal  0.000000e+00  0.000000e+00  1.000000e+00
   outer loop
     vertex -2.249761e+01  6.098244e+01  1.500000e+01
     vertex -3.123963e+01  6.486976e+01  1.500000e+01
     vertex -2.950938e+01  5.791542e+01  1.500000e+01
   endloop
 endfacet
 facet normal  0.000000e+00  0.000000e+00  1.000000e+00
   outer loop
     vertex -4.221412e+01  4.942639e+01  1.500000e+01
     vertex -5.091169e+01  5.091169e+01  1.500000e+01
     vertex -4.773096e+01  4.412205e+01  1.500000e+01
   endloop
 endfacet
 facet normal  0.000000e+00  0.000000e+00  1.000000e+00
   outer loop
     vertex -5.671224e+01  3.176038e+01  1.500000e+01
     vertex -6.486976e+01  3.123963e+01  1.500000e+01
     vertex -6.005217e+01  2.487442e+01  1.500000e+01
   endloop
 endfacet
 facet normal  0.000000e+00  0.000000e+00  1.000000e+00
   outer loop
     vertex  5.629187e+01 -4.489127e+01  1.500000e+01
     vertex  4.942639e+01 -4.221412e+01  1.500000e+01
     vertex  5.091169e+01 -5.091169e+01  1.500000e+01
   endloop
 endfacet
 facet normal  0.000000e+00  0.000000e+00  1.000000e+00
   outer loop
     vertex -4.489127e+01  5.629187e+01  1.500000e+01
     vertex -5.091169e+01  5.091169e+01  1.500000e+01
     vertex -4.221412e+01  4.942639e+01  1.500000e+01
   endloop
 endfacet
 facet normal  0.000000e+00  0.000000e+00  1.000000e+00
   outer loop
     vertex  5.404552e+01 -3.611207e+01  1.500000e+01
     vertex  4.942639e+01 -4.221412e+01  1.500000e+01
     vertex  5.629187e+01 -4.489127e+01  1.500000e+01
   endloop
 endfacet
 facet normal  0.000000e+00  0.000000e+00  1.000000e+00
   outer loop
     vertex -4.596194e+01 -4.596194e+01  1.500000e+01
     vertex -5.629187e+01 -4.489127e+01  1.500000e+01
     vertex -5.091169e+01 -5.091169e+01  1.500000e+01
   endloop
 endfacet
 facet normal  0.000000e+00  0.000000e+00  1.000000e+00
   outer loop
     vertex  3.830631e+01 -6.096414e+01  1.500000e+01
     vertex  3.176038e+01 -5.671224e+01  1.500000e+01
     vertex  3.123963e+01 -6.486976e+01  1.500000e+01
   endloop
 endfacet
 facet normal  0.000000e+00  0.000000e+00  1.000000e+00
   outer loop
     vertex -4.596194e+01 -4.596194e+01  1.500000e+01
     vertex -5.091169e+01 -5.091169e+01  1.500000e+01
     vertex -4.489127e+01 -5.629187e+01  1.500000e+01
   endloop
 endfacet
 facet normal  0.000000e+00  0.000000e+00  1.000000e+00
   outer loop
     vertex  7.154728e+01 -8.061442e+00  1.500000e+01
     vertex  6.454945e+01 -7.639931e+00  1.500000e+01
     vertex  7.019481e+01 -1.602151e+01  1.500000e+01
   endloop
 endfacet
 facet normal -0.000000e+00  0.000000e+00  1.000000e+00
   outer loop
     vertex -6.096414e+01  3.830631e+01  1.500000e+01
     vertex -6.486976e+01  3.123963e+01  1.500000e+01
     vertex -5.671224e+01  3.176038e+01  1.500000e+01
   endloop
 endfacet
 facet normal  0.000000e+00  0.000000e+00  1.000000e+00
   outer loop
     vertex -8.061442e+00  7.154728e+01  1.500000e+01
     vertex -1.602151e+01  7.019481e+01  1.500000e+01
     vertex -7.639931e+00  6.454945e+01  1.500000e+01
   endloop
 endfacet
 facet normal  0.000000e+00  0.000000e+00  1.000000e+00
   outer loop
     vertex  2.037029e-12  6.500000e+01  1.500000e+01
     vertex -8.061442e+00  7.154728e+01  1.500000e+01
     vertex -7.639931e+00  6.454945e+01  1.500000e+01
   endloop
 endfacet
 facet normal  0.000000e+00  0.000000e+00  1.000000e+00
   outer loop
     vertex -4.024111e+01 -5.104560e+01  1.500000e+01
     vertex -4.596194e+01 -4.596194e+01  1.500000e+01
     vertex -4.489127e+01 -5.629187e+01  1.500000e+01
   endloop
 endfacet
 facet normal -0.000000e+00  0.000000e+00  1.000000e+00
   outer loop
     vertex  1.016824e+01 -6.419974e+01  1.500000e+01
     vertex  8.061442e+00 -7.154728e+01  1.500000e+01
     vertex  1.602151e+01 -7.019481e+01  1.500000e+01
   endloop
 endfacet
 facet normal  0.000000e+00  0.000000e+00  1.000000e+00
   outer loop
     vertex  1.016824e+01 -6.419974e+01  1.500000e+01
     vertex  2.551888e+00 -6.494989e+01  1.500000e+01
     vertex  8.061442e+00 -7.154728e+01  1.500000e+01
   endloop
 endfacet
 facet normal  0.000000e+00  0.000000e+00  1.000000e+00
   outer loop
     vertex -4.024111e+01 -5.104560e+01  1.500000e+01
     vertex -4.489127e+01 -5.629187e+01  1.500000e+01
     vertex -3.830631e+01 -6.096414e+01  1.500000e+01
   endloop
 endfacet
 facet normal  0.000000e+00  0.000000e+00  1.000000e+00
   outer loop
     vertex -5.104560e+01 -4.024111e+01  1.500000e+01
     vertex -6.096414e+01 -3.830631e+01  1.500000e+01
     vertex -5.629187e+01 -4.489127e+01  1.500000e+01
   endloop
 endfacet
 facet normal  0.000000e+00  0.000000e+00  1.000000e+00
   outer loop
     vertex  6.795960e+01 -2.378009e+01  1.500000e+01
     vertex  6.098244e+01 -2.249761e+01  1.500000e+01
     vertex  6.486976e+01 -3.123963e+01  1.500000e+01
   endloop
 endfacet
 facet normal  0.000000e+00  0.000000e+00  1.000000e+00
   outer loop
     vertex -5.104560e+01 -4.024111e+01  1.500000e+01
     vertex -5.629187e+01 -4.489127e+01  1.500000e+01
     vertex -4.596194e+01 -4.596194e+01  1.500000e+01
   endloop
 endfacet
 facet normal  0.000000e+00  0.000000e+00  1.000000e+00
   outer loop
     vertex -2.378009e+01  6.795960e+01  1.500000e+01
     vertex -3.123963e+01  6.486976e+01  1.500000e+01
     vertex -2.249761e+01  6.098244e+01  1.500000e+01
   endloop
 endfacet
 facet normal  0.000000e+00  0.000000e+00  1.000000e+00
   outer loop
     vertex -3.396241e+01 -5.542161e+01  1.500000e+01
     vertex -4.024111e+01 -5.104560e+01  1.500000e+01
     vertex -3.830631e+01 -6.096414e+01  1.500000e+01
   endloop
 endfacet
 facet normal  0.000000e+00  0.000000e+00  1.000000e+00
   outer loop
     vertex -3.611207e+01  5.404552e+01  1.500000e+01
     vertex -4.489127e+01  5.629187e+01  1.500000e+01
     vertex -4.221412e+01  4.942639e+01  1.500000e+01
   endloop
 endfacet
 facet normal  0.000000e+00  0.000000e+00  1.000000e+00
   outer loop
     vertex -3.396241e+01 -5.542161e+01  1.500000e+01
     vertex -3.830631e+01 -6.096414e+01  1.500000e+01
     vertex -3.123963e+01 -6.486976e+01  1.500000e+01
   endloop
 endfacet
 facet normal  0.000000e+00  0.000000e+00  1.000000e+00
   outer loop
     vertex  3.820604e+01 -5.258610e+01  1.500000e+01
     vertex  3.176038e+01 -5.671224e+01  1.500000e+01
     vertex  3.830631e+01 -6.096414e+01  1.500000e+01
   endloop
 endfacet
 facet normal  0.000000e+00  0.000000e+00  1.000000e+00
   outer loop
     vertex -6.419974e+01  1.016824e+01  1.500000e+01
     vertex -7.019481e+01  1.602151e+01  1.500000e+01
     vertex -7.154728e+01  8.061442e+00  1.500000e+01
   endloop
 endfacet
 facet normal  0.000000e+00  0.000000e+00  1.000000e+00
   outer loop
     vertex -6.419974e+01  1.016824e+01  1.500000e+01
     vertex -7.154728e+01  8.061442e+00  1.500000e+01
     vertex -6.494989e+01  2.551888e+00  1.500000e+01
   endloop
 endfacet
 facet normal  0.000000e+00  0.000000e+00  1.000000e+00
   outer loop
     vertex -5.542161e+01 -3.396241e+01  1.500000e+01
     vertex -6.096414e+01 -3.830631e+01  1.500000e+01
     vertex -5.104560e+01 -4.024111e+01  1.500000e+01
   endloop
 endfacet
 facet normal  0.000000e+00  0.000000e+00  1.000000e+00
   outer loop
     vertex  6.320404e+01 -1.517395e+01  1.500000e+01
     vertex  6.098244e+01 -2.249761e+01  1.500000e+01
     vertex  6.795960e+01 -2.378009e+01  1.500000e+01
   endloop
 endfacet
 facet normal  0.000000e+00  0.000000e+00  1.000000e+00
   outer loop
     vertex -5.542161e+01 -3.396241e+01  1.500000e+01
     vertex -6.486976e+01 -3.123963e+01  1.500000e+01
     vertex -6.096414e+01 -3.830631e+01  1.500000e+01
   endloop
 endfacet
 facet normal  0.000000e+00  0.000000e+00  1.000000e+00
   outer loop
     vertex -2.721288e+01 -5.902931e+01  1.500000e+01
     vertex -3.396241e+01 -5.542161e+01  1.500000e+01
     vertex -3.123963e+01 -6.486976e+01  1.500000e+01
   endloop
 endfacet
 facet normal  0.000000e+00  0.000000e+00  1.000000e+00
   outer loop
     vertex -2.721288e+01 -5.902931e+01  1.500000e+01
     vertex -3.123963e+01 -6.486976e+01  1.500000e+01
     vertex -2.378009e+01 -6.795960e+01  1.500000e+01
   endloop
 endfacet
 facet normal  0.000000e+00  0.000000e+00  1.000000e+00
   outer loop
     vertex  1.764363e+01 -6.255959e+01  1.500000e+01
     vertex  1.016824e+01 -6.419974e+01  1.500000e+01
     vertex  1.602151e+01 -7.019481e+01  1.500000e+01
   endloop
 endfacet
 facet normal  0.000000e+00  0.000000e+00  1.000000e+00
   outer loop
     vertex -5.902931e+01 -2.721288e+01  1.500000e+01
     vertex -6.795960e+01 -2.378009e+01  1.500000e+01
     vertex -6.486976e+01 -3.123963e+01  1.500000e+01
   endloop
 endfacet
 facet normal  0.000000e+00  0.000000e+00  1.000000e+00
   outer loop
     vertex  6.500000e+01 -1.592041e-14  1.500000e+01
     vertex  6.454945e+01 -7.639931e+00  1.500000e+01
     vertex  7.154728e+01 -8.061442e+00  1.500000e+01
   endloop
 endfacet
 facet normal  0.000000e+00  0.000000e+00  1.000000e+00
   outer loop
     vertex -5.258610e+01  3.820604e+01  1.500000e+01
     vertex -6.096414e+01  3.830631e+01  1.500000e+01
     vertex -5.671224e+01  3.176038e+01  1.500000e+01
   endloop
 endfacet
 facet normal  0.000000e+00  0.000000e+00  1.000000e+00
   outer loop
     vertex -5.902931e+01 -2.721288e+01  1.500000e+01
     vertex -6.486976e+01 -3.123963e+01  1.500000e+01
     vertex -5.542161e+01 -3.396241e+01  1.500000e+01
   endloop
 endfacet
 facet normal  0.000000e+00  0.000000e+00  1.000000e+00
   outer loop
     vertex  4.489127e+01 -5.629187e+01  1.500000e+01
     vertex  3.820604e+01 -5.258610e+01  1.500000e+01
     vertex  3.830631e+01 -6.096414e+01  1.500000e+01
   endloop
 endfacet
 facet normal  0.000000e+00  0.000000e+00  1.000000e+00
   outer loop
     vertex  6.096414e+01 -3.830631e+01  1.500000e+01
     vertex  5.404552e+01 -3.611207e+01  1.500000e+01
     vertex  5.629187e+01 -4.489127e+01  1.500000e+01
   endloop
 endfacet
 facet normal  0.000000e+00  0.000000e+00  1.000000e+00
   outer loop
     vertex -5.629187e+01  4.489127e+01  1.500000e+01
     vertex -6.096414e+01  3.830631e+01  1.500000e+01
     vertex -5.258610e+01  3.820604e+01  1.500000e+01
   endloop
 endfacet
 facet normal  0.000000e+00  0.000000e+00  1.000000e+00
   outer loop
     vertex -3.830631e+01  6.096414e+01  1.500000e+01
     vertex -4.489127e+01  5.629187e+01  1.500000e+01
     vertex -3.611207e+01  5.404552e+01  1.500000e+01
   endloop
 endfacet
 facet normal  0.000000e+00  0.000000e+00  1.000000e+00
   outer loop
     vertex -2.008610e+01 -6.181867e+01  1.500000e+01
     vertex -2.378009e+01 -6.795960e+01  1.500000e+01
     vertex -1.602151e+01 -7.019481e+01  1.500000e+01
   endloop
 endfacet
 facet normal  0.000000e+00  0.000000e+00  1.000000e+00
   outer loop
     vertex -6.255959e+01  1.764363e+01  1.500000e+01
     vertex -7.019481e+01  1.602151e+01  1.500000e+01
     vertex -6.419974e+01  1.016824e+01  1.500000e+01
   endloop
 endfacet
 facet normal  0.000000e+00  0.000000e+00  1.000000e+00
   outer loop
     vertex -1.517395e+01  6.320404e+01  1.500000e+01
     vertex -2.378009e+01  6.795960e+01  1.500000e+01
     vertex -2.249761e+01  6.098244e+01  1.500000e+01
   endloop
 endfacet
 facet normal  0.000000e+00  0.000000e+00  1.000000e+00
   outer loop
     vertex  5.791542e+01 -2.950938e+01  1.500000e+01
     vertex  5.404552e+01 -3.611207e+01  1.500000e+01
     vertex  6.096414e+01 -3.830631e+01  1.500000e+01
   endloop
 endfacet
 facet normal  0.000000e+00  0.000000e+00  1.000000e+00
   outer loop
     vertex -2.008610e+01 -6.181867e+01  1.500000e+01
     vertex -2.721288e+01 -5.902931e+01  1.500000e+01
     vertex -2.378009e+01 -6.795960e+01  1.500000e+01
   endloop
 endfacet
 facet normal  0.000000e+00  0.000000e+00  1.000000e+00
   outer loop
     vertex -6.181867e+01 -2.008610e+01  1.500000e+01
     vertex -7.019481e+01 -1.602151e+01  1.500000e+01
     vertex -6.795960e+01 -2.378009e+01  1.500000e+01
   endloop
 endfacet
 facet normal  0.000000e+00  0.000000e+00  1.000000e+00
   outer loop
     vertex -6.181867e+01 -2.008610e+01  1.500000e+01
     vertex -6.795960e+01 -2.378009e+01  1.500000e+01
     vertex -5.902931e+01 -2.721288e+01  1.500000e+01
   endloop
 endfacet
 facet normal  0.000000e+00  0.000000e+00  1.000000e+00
   outer loop
     vertex  4.412205e+01 -4.773096e+01  1.500000e+01
     vertex  3.820604e+01 -5.258610e+01  1.500000e+01
     vertex  4.489127e+01 -5.629187e+01  1.500000e+01
   endloop
 endfacet
 facet normal  0.000000e+00  0.000000e+00  1.000000e+00
   outer loop
     vertex  2.378009e+01 -6.795960e+01  1.500000e+01
     vertex  1.764363e+01 -6.255959e+01  1.500000e+01
     vertex  1.602151e+01 -7.019481e+01  1.500000e+01
   endloop
 endfacet
 facet normal  0.000000e+00  0.000000e+00  1.000000e+00
   outer loop
     vertex  7.200000e+01 -1.763491e-14  1.500000e+01
     vertex  6.500000e+01 -1.592041e-14  1.500000e+01
     vertex  7.154728e+01 -8.061442e+00  1.500000e+01
   endloop
 endfacet
 facet normal -0.000000e+00  0.000000e+00  1.000000e+00
   outer loop
     vertex -6.795960e+01  2.378009e+01  1.500000e+01
     vertex -7.019481e+01  1.602151e+01  1.500000e+01
     vertex -6.255959e+01  1.764363e+01  1.500000e+01
   endloop
 endfacet
 facet normal  0.000000e+00  0.000000e+00  1.000000e+00
   outer loop
     vertex -1.268087e+01 -6.375104e+01  1.500000e+01
     vertex -2.008610e+01 -6.181867e+01  1.500000e+01
     vertex -1.602151e+01 -7.019481e+01  1.500000e+01
   endloop
 endfacet
 facet normal  0.000000e+00  0.000000e+00  1.000000e+00
   outer loop
     vertex  2.032580e-12  7.200000e+01  1.500000e+01
     vertex -8.061442e+00  7.154728e+01  1.500000e+01
     vertex  2.037029e-12  6.500000e+01  1.500000e+01
   endloop
 endfacet
 facet normal  0.000000e+00  0.000000e+00  1.000000e+00
   outer loop
     vertex -1.268087e+01 -6.375104e+01  1.500000e+01
     vertex -1.602151e+01 -7.019481e+01  1.500000e+01
     vertex -8.061442e+00 -7.154728e+01  1.500000e+01
   endloop
 endfacet
 facet normal  0.000000e+00  0.000000e+00  1.000000e+00
   outer loop
     vertex  2.487442e+01 -6.005217e+01  1.500000e+01
     vertex  1.764363e+01 -6.255959e+01  1.500000e+01
     vertex  2.378009e+01 -6.795960e+01  1.500000e+01
   endloop
 endfacet
 facet normal  0.000000e+00  0.000000e+00  1.000000e+00
   outer loop
     vertex -2.950938e+01  5.791542e+01  1.500000e+01
     vertex -3.830631e+01  6.096414e+01  1.500000e+01
     vertex -3.611207e+01  5.404552e+01  1.500000e+01
   endloop
 endfacet
 facet normal  0.000000e+00  0.000000e+00  1.000000e+00
   outer loop
     vertex  7.019481e+01 -1.602151e+01  1.500000e+01
     vertex  6.320404e+01 -1.517395e+01  1.500000e+01
     vertex  6.795960e+01 -2.378009e+01  1.500000e+01
   endloop
 endfacet
 facet normal  0.000000e+00  0.000000e+00  1.000000e+00
   outer loop
     vertex -6.375104e+01 -1.268087e+01  1.500000e+01
     vertex -7.154728e+01 -8.061442e+00  1.500000e+01
     vertex -7.019481e+01 -1.602151e+01  1.500000e+01
   endloop
 endfacet
 facet normal  0.000000e+00  0.000000e+00  1.000000e+00
   outer loop
     vertex -6.375104e+01 -1.268087e+01  1.500000e+01
     vertex -7.019481e+01 -1.602151e+01  1.500000e+01
     vertex -6.181867e+01 -2.008610e+01  1.500000e+01
   endloop
 endfacet
 facet normal  0.000000e+00  0.000000e+00  1.000000e+00
   outer loop
     vertex -1.602151e+01  7.019481e+01  1.500000e+01
     vertex -2.378009e+01  6.795960e+01  1.500000e+01
     vertex -1.517395e+01  6.320404e+01  1.500000e+01
   endloop
 endfacet
 facet normal  0.000000e+00  0.000000e+00  1.000000e+00
   outer loop
     vertex  6.454945e+01 -7.639931e+00  1.500000e+01
     vertex  6.320404e+01 -1.517395e+01  1.500000e+01
     vertex  7.019481e+01 -1.602151e+01  1.500000e+01
   endloop
 endfacet
 facet normal  0.000000e+00  0.000000e+00  1.000000e+00
   outer loop
     vertex -4.773096e+01  4.412205e+01  1.500000e+01
     vertex -5.629187e+01  4.489127e+01  1.500000e+01
     vertex -5.258610e+01  3.820604e+01  1.500000e+01
   endloop
 endfacet
 facet normal  0.000000e+00  0.000000e+00  1.000000e+00
   outer loop
     vertex -6.005217e+01  2.487442e+01  1.500000e+01
     vertex -6.795960e+01  2.378009e+01  1.500000e+01
     vertex -6.255959e+01  1.764363e+01  1.500000e+01
   endloop
 endfacet
 facet normal  0.000000e+00  0.000000e+00  1.000000e+00
   outer loop
     vertex  5.091169e+01 -5.091169e+01  1.500000e+01
     vertex  4.412205e+01 -4.773096e+01  1.500000e+01
     vertex  4.489127e+01 -5.629187e+01  1.500000e+01
   endloop
 endfacet
 facet normal  0.000000e+00  0.000000e+00  1.000000e+00
   outer loop
     vertex -5.091169e+01  5.091169e+01  1.500000e+01
     vertex -5.629187e+01  4.489127e+01  1.500000e+01
     vertex -4.773096e+01  4.412205e+01  1.500000e+01
   endloop
 endfacet
 facet normal  0.000000e+00  0.000000e+00  1.000000e+00
   outer loop
     vertex -5.099841e+00 -6.479963e+01  1.500000e+01
     vertex -8.061442e+00 -7.154728e+01  1.500000e+01
     vertex -5.887658e-13 -7.200000e+01  1.500000e+01
   endloop
 endfacet
 facet normal  0.000000e+00  0.000000e+00  1.000000e+00
   outer loop
     vertex -5.099841e+00 -6.479963e+01  1.500000e+01
     vertex -1.268087e+01 -6.375104e+01  1.500000e+01
     vertex -8.061442e+00 -7.154728e+01  1.500000e+01
   endloop
 endfacet
 facet normal  0.000000e+00  0.000000e+00  1.000000e+00
   outer loop
     vertex  6.486976e+01 -3.123963e+01  1.500000e+01
     vertex  5.791542e+01 -2.950938e+01  1.500000e+01
     vertex  6.096414e+01 -3.830631e+01  1.500000e+01
   endloop
 endfacet
 facet normal  0.000000e+00  0.000000e+00  1.000000e+00
   outer loop
     vertex  3.123963e+01 -6.486976e+01  1.500000e+01
     vertex  2.487442e+01 -6.005217e+01  1.500000e+01
     vertex  2.378009e+01 -6.795960e+01  1.500000e+01
   endloop
 endfacet
 facet normal  0.000000e+00  0.000000e+00  1.000000e+00
   outer loop
     vertex -6.479963e+01 -5.099841e+00  1.500000e+01
     vertex -7.200000e+01  1.351743e-12  1.500000e+01
     vertex -7.154728e+01 -8.061442e+00  1.500000e+01
   endloop
 endfacet
 facet normal  0.000000e+00  0.000000e+00  1.000000e+00
   outer loop
     vertex -3.123963e+01  6.486976e+01  1.500000e+01
     vertex -3.830631e+01  6.096414e+01  1.500000e+01
     vertex -2.950938e+01  5.791542e+01  1.500000e+01
   endloop
 endfacet
 facet normal  0.000000e+00  0.000000e+00  1.000000e+00
   outer loop
     vertex -6.479963e+01 -5.099841e+00  1.500000e+01
     vertex -7.154728e+01 -8.061442e+00  1.500000e+01
     vertex -6.375104e+01 -1.268087e+01  1.500000e+01
   endloop
 endfacet
 facet normal -0.000000e+00  0.000000e+00  1.000000e+00
   outer loop
     vertex -6.486976e+01  3.123963e+01  1.500000e+01
     vertex -6.795960e+01  2.378009e+01  1.500000e+01
     vertex -6.005217e+01  2.487442e+01  1.500000e+01
   endloop
 endfacet
 facet normal  0.000000e+00  0.000000e+00  1.000000e+00
   outer loop
     vertex  6.098244e+01 -2.249761e+01  1.500000e+01
     vertex  5.791542e+01 -2.950938e+01  1.500000e+01
     vertex  6.486976e+01 -3.123963e+01  1.500000e+01
   endloop
 endfacet
 facet normal -8.627344e-01  5.056574e-01  0.000000e+00
   outer loop
     vertex  5.404552e+01 -3.611207e+01  0.000000e+00
     vertex  5.404552e+01 -3.611207e+01  1.500000e+01
     vertex  5.791542e+01 -2.950938e+01  1.500000e+01
   endloop
 endfacet
 facet normal  9.312149e-01  3.644705e-01  0.000000e+00
   outer loop
     vertex -5.902931e+01 -2.721288e+01  0.000000e+00
     vertex -6.181867e+01 -2.008610e+01  0.000000e+00
     vertex -5.902931e+01 -2.721288e+01  1.500000e+01
   endloop
 endfacet
 facet normal -8.627344e-01  5.056574e-01  0.000000e+00
   outer loop
     vertex  5.791542e+01 -2.950938e+01  0.000000e+00
     vertex  5.404552e+01 -3.611207e+01  0.000000e+00
     vertex  5.791542e+01 -2.950938e+01  1.500000e+01
   endloop
 endfacet
 facet normal  9.312149e-01  3.644705e-01 -0.000000e+00
   outer loop
     vertex -6.181867e+01 -2.008610e+01  0.000000e+00
     vertex -6.181867e+01 -2.008610e+01  1.500000e+01
     vertex -5.902931e+01 -2.721288e+01  1.500000e+01
   endloop
 endfacet
 facet normal -9.161880e-01  4.007488e-01  0.000000e+00
   outer loop
     vertex  5.791542e+01 -2.950938e+01  0.000000e+00
     vertex  5.791542e+01 -2.950938e+01  1.500000e+01
     vertex  6.098244e+01 -2.249761e+01  1.500000e+01
   endloop
 endfacet
 facet normal -9.161880e-01  4.007488e-01  0.000000e+00
   outer loop
     vertex  6.098244e+01 -2.249761e+01  0.000000e+00
     vertex  5.791542e+01 -2.950938e+01  0.000000e+00
     vertex  6.098244e+01 -2.249761e+01  1.500000e+01
   endloop
 endfacet
 facet normal  8.819213e-01  4.713967e-01  0.000000e+00
   outer loop
     vertex -5.542161e+01 -3.396241e+01  0.000000e+00
     vertex -5.902931e+01 -2.721288e+01  0.000000e+00
     vertex -5.542161e+01 -3.396241e+01  1.500000e+01
   endloop
 endfacet
 facet normal  8.819213e-01  4.713967e-01 -0.000000e+00
   outer loop
     vertex -5.902931e+01 -2.721288e+01  0.000000e+00
     vertex -5.902931e+01 -2.721288e+01  1.500000e+01
     vertex -5.542161e+01 -3.396241e+01  1.500000e+01
   endloop
 endfacet
 facet normal -9.569403e-01  2.902847e-01  0.000000e+00
   outer loop
     vertex  6.098244e+01 -2.249761e+01  0.000000e+00
     vertex  6.098244e+01 -2.249761e+01  1.500000e+01
     vertex  6.320404e+01 -1.517395e+01  1.500000e+01
   endloop
 endfacet
 facet normal -9.569403e-01  2.902847e-01  0.000000e+00
   outer loop
     vertex  6.320404e+01 -1.517395e+01  0.000000e+00
     vertex  6.098244e+01 -2.249761e+01  0.000000e+00
     vertex  6.320404e+01 -1.517395e+01  1.500000e+01
   endloop
 endfacet
 facet normal  8.204014e-01  5.717880e-01  0.000000e+00
   outer loop
     vertex -5.104560e+01 -4.024111e+01  0.000000e+00
     vertex -5.542161e+01 -3.396241e+01  0.000000e+00
     vertex -5.104560e+01 -4.024111e+01  1.500000e+01
   endloop
 endfacet
 facet normal  8.204014e-01  5.717880e-01 -0.000000e+00
   outer loop
     vertex -5.542161e+01 -3.396241e+01  0.000000e+00
     vertex -5.542161e+01 -3.396241e+01  1.500000e+01
     vertex -5.104560e+01 -4.024111e+01  1.500000e+01
   endloop
 endfacet
 facet normal  5.887080e-02 -9.982656e-01  0.000000e+00
   outer loop
     vertex -7.639931e+00  6.454945e+01  0.000000e+00
     vertex  2.037029e-12  6.500000e+01  0.000000e+00
     vertex -7.639931e+00  6.454945e+01  1.500000e+01
   endloop
 endfacet
 facet normal -9.844266e-01  1.757963e-01  0.000000e+00
   outer loop
     vertex  6.320404e+01 -1.517395e+01  0.000000e+00
     vertex  6.320404e+01 -1.517395e+01  1.500000e+01
     vertex  6.454945e+01 -7.639931e+00  1.500000e+01
   endloop
 endfacet
 facet normal -9.844266e-01  1.757963e-01  0.000000e+00
   outer loop
     vertex  6.454945e+01 -7.639931e+00  0.000000e+00
     vertex  6.320404e+01 -1.517395e+01  0.000000e+00
     vertex  6.454945e+01 -7.639931e+00  1.500000e+01
   endloop
 endfacet
 facet normal  5.887080e-02 -9.982656e-01  0.000000e+00
   outer loop
     vertex  2.037029e-12  6.500000e+01  0.000000e+00
     vertex  2.037029e-12  6.500000e+01  1.500000e+01
     vertex -7.639931e+00  6.454945e+01  1.500000e+01
   endloop
 endfacet
 facet normal  7.475083e-01  6.642524e-01  0.000000e+00
   outer loop
     vertex -4.596194e+01 -4.596194e+01  0.000000e+00
     vertex -5.104560e+01 -4.024111e+01  0.000000e+00
     vertex -4.596194e+01 -4.596194e+01  1.500000e+01
   endloop
 endfacet
 facet normal -9.982656e-01  5.887080e-02  0.000000e+00
   outer loop
     vertex  6.500000e+01 -1.592041e-14  0.000000e+00
     vertex  6.454945e+01 -7.639931e+00  0.000000e+00
     vertex  6.500000e+01 -1.592041e-14  1.500000e+01
   endloop
 endfacet
 facet normal -9.982656e-01  5.887080e-02  0.000000e+00
   outer loop
     vertex  6.454945e+01 -7.639931e+00  0.000000e+00
     vertex  6.454945e+01 -7.639931e+00  1.500000e+01
     vertex  6.500000e+01 -1.592041e-14  1.500000e+01
   endloop
 endfacet
 facet normal  7.475083e-01  6.642524e-01 -0.000000e+00
   outer loop
     vertex -5.104560e+01 -4.024111e+01  0.000000e+00
     vertex -5.104560e+01 -4.024111e+01  1.500000e+01
     vertex -4.596194e+01 -4.596194e+01  1.500000e+01
   endloop
 endfacet
 facet normal  1.757963e-01 -9.844266e-01  0.000000e+00
   outer loop
     vertex -1.517395e+01  6.320404e+01  0.000000e+00
     vertex -7.639931e+00  6.454945e+01  0.000000e+00
     vertex -1.517395e+01  6.320404e+01  1.500000e+01
   endloop
 endfacet
 facet normal  1.757963e-01 -9.844266e-01  0.000000e+00
   outer loop
     vertex -7.639931e+00  6.454945e+01  0.000000e+00
     vertex -7.639931e+00  6.454945e+01  1.500000e+01
     vertex -1.517395e+01  6.320404e+01  1.500000e+01
   endloop
 endfacet
 facet normal  6.642524e-01  7.475083e-01  0.000000e+00
   outer loop
     vertex -4.024111e+01 -5.104560e+01  0.000000e+00
     vertex -4.596194e+01 -4.596194e+01  0.000000e+00
     vertex -4.024111e+01 -5.104560e+01  1.500000e+01
   endloop
 endfacet
 facet normal  6.642524e-01  7.475083e-01 -0.000000e+00
   outer loop
     vertex -4.596194e+01 -4.596194e+01  0.000000e+00
     vertex -4.596194e+01 -4.596194e+01  1.500000e+01
     vertex -4.024111e+01 -5.104560e+01  1.500000e+01
   endloop
 endfacet
 facet normal  2.902847e-01 -9.569403e-01  0.000000e+00
   outer loop
     vertex -2.249761e+01  6.098244e+01  0.000000e+00
     vertex -1.517395e+01  6.320404e+01  0.000000e+00
     vertex -2.249761e+01  6.098244e+01  1.500000e+01
   endloop
 endfacet
 facet normal  5.717880e-01  8.204014e-01  0.000000e+00
   outer loop
     vertex -3.396241e+01 -5.542161e+01  0.000000e+00
     vertex -4.024111e+01 -5.104560e+01  0.000000e+00
     vertex -3.396241e+01 -5.542161e+01  1.500000e+01
   endloop
 endfacet
 facet normal  2.902847e-01 -9.569403e-01  0.000000e+00
   outer loop
     vertex -1.517395e+01  6.320404e+01  0.000000e+00
     vertex -1.517395e+01  6.320404e+01  1.500000e+01
     vertex -2.249761e+01  6.098244e+01  1.500000e+01
   endloop
 endfacet
 facet normal  5.717880e-01  8.204014e-01 -0.000000e+00
   outer loop
     vertex -4.024111e+01 -5.104560e+01  0.000000e+00
     vertex -4.024111e+01 -5.104560e+01  1.500000e+01
     vertex -3.396241e+01 -5.542161e+01  1.500000e+01
   endloop
 endfacet
 facet normal  4.007488e-01 -9.161880e-01  0.000000e+00
   outer loop
     vertex -2.950938e+01  5.791542e+01  0.000000e+00
     vertex -2.249761e+01  6.098244e+01  0.000000e+00
     vertex -2.950938e+01  5.791542e+01  1.500000e+01
   endloop
 endfacet
 facet normal  4.007488e-01 -9.161880e-01  0.000000e+00
   outer loop
     vertex -2.249761e+01  6.098244e+01  0.000000e+00
     vertex -2.249761e+01  6.098244e+01  1.500000e+01
     vertex -2.950938e+01  5.791542e+01  1.500000e+01
   endloop
 endfacet
 facet normal  4.713967e-01  8.819213e-01  0.000000e+00
   outer loop
     vertex -2.721288e+01 -5.902931e+01  0.000000e+00
     vertex -3.396241e+01 -5.542161e+01  0.000000e+00
     vertex -2.721288e+01 -5.902931e+01  1.500000e+01
   endloop
 endfacet
 facet normal  4.713967e-01  8.819213e-01 -0.000000e+00
   outer loop
     vertex -3.396241e+01 -5.542161e+01  0.000000e+00
     vertex -3.396241e+01 -5.542161e+01  1.500000e+01
     vertex -2.721288e+01 -5.902931e+01  1.500000e+01
   endloop
 endfacet
 facet normal  5.056574e-01 -8.627344e-01  0.000000e+00
   outer loop
     vertex -2.950938e+01  5.791542e+01  0.000000e+00
     vertex -2.950938e+01  5.791542e+01  1.500000e+01
     vertex -3.611207e+01  5.404552e+01  1.500000e+01
   endloop
 endfacet
 facet normal  5.056574e-01 -8.627344e-01  0.000000e+00
   outer loop
     vertex -3.611207e+01  5.404552e+01  0.000000e+00
     vertex -2.950938e+01  5.791542e+01  0.000000e+00
     vertex -3.611207e+01  5.404552e+01  1.500000e+01
   endloop
 endfacet
 facet normal  3.644705e-01  9.312149e-01  0.000000e+00
   outer loop
     vertex -2.008610e+01 -6.181867e+01  0.000000e+00
     vertex -2.721288e+01 -5.902931e+01  0.000000e+00
     vertex -2.008610e+01 -6.181867e+01  1.500000e+01
   endloop
 endfacet
 facet normal  3.644705e-01  9.312149e-01 -0.000000e+00
   outer loop
     vertex -2.721288e+01 -5.902931e+01  0.000000e+00
     vertex -2.721288e+01 -5.902931e+01  1.500000e+01
     vertex -2.008610e+01 -6.181867e+01  1.500000e+01
   endloop
 endfacet
 facet normal  6.035559e-01 -7.973207e-01  0.000000e+00
   outer loop
     vertex -4.221412e+01  4.942639e+01  0.000000e+00
     vertex -3.611207e+01  5.404552e+01  0.000000e+00
     vertex -4.221412e+01  4.942639e+01  1.500000e+01
   endloop
 endfacet
 facet normal  6.035559e-01 -7.973207e-01  0.000000e+00
   outer loop
     vertex -3.611207e+01  5.404552e+01  0.000000e+00
     vertex -3.611207e+01  5.404552e+01  1.500000e+01
     vertex -4.221412e+01  4.942639e+01  1.500000e+01
   endloop
 endfacet
 facet normal  2.524916e-01  9.675991e-01  0.000000e+00
   outer loop
     vertex -1.268087e+01 -6.375104e+01  0.000000e+00
     vertex -2.008610e+01 -6.181867e+01  0.000000e+00
     vertex -1.268087e+01 -6.375104e+01  1.500000e+01
   endloop
 endfacet
 facet normal  2.524916e-01  9.675991e-01 -0.000000e+00
   outer loop
     vertex -2.008610e+01 -6.181867e+01  0.000000e+00
     vertex -2.008610e+01 -6.181867e+01  1.500000e+01
     vertex -1.268087e+01 -6.375104e+01  1.500000e+01
   endloop
 endfacet
 facet normal  6.930874e-01 -7.208536e-01  0.000000e+00
   outer loop
     vertex -4.221412e+01  4.942639e+01  0.000000e+00
     vertex -4.221412e+01  4.942639e+01  1.500000e+01
     vertex -4.773096e+01  4.412205e+01  1.500000e+01
   endloop
 endfacet
 facet normal  6.930874e-01 -7.208536e-01  0.000000e+00
   outer loop
     vertex -4.773096e+01  4.412205e+01  0.000000e+00
     vertex -4.221412e+01  4.942639e+01  0.000000e+00
     vertex -4.773096e+01  4.412205e+01  1.500000e+01
   endloop
 endfacet
 facet normal  1.370123e-01  9.905693e-01  0.000000e+00
   outer loop
     vertex -5.099841e+00 -6.479963e+01  0.000000e+00
     vertex -1.268087e+01 -6.375104e+01  0.000000e+00
     vertex -5.099841e+00 -6.479963e+01  1.500000e+01
   endloop
 endfacet
 facet normal  1.370123e-01  9.905693e-01 -0.000000e+00
   outer loop
     vertex -1.268087e+01 -6.375104e+01  0.000000e+00
     vertex -1.268087e+01 -6.375104e+01  1.500000e+01
     vertex -5.099841e+00 -6.479963e+01  1.500000e+01
   endloop
 endfacet
 facet normal  7.730105e-01 -6.343933e-01  0.000000e+00
   outer loop
     vertex -5.258610e+01  3.820604e+01  0.000000e+00
     vertex -4.773096e+01  4.412205e+01  0.000000e+00
     vertex -5.258610e+01  3.820604e+01  1.500000e+01
   endloop
 endfacet
 facet normal  7.730105e-01 -6.343933e-01  0.000000e+00
   outer loop
     vertex -4.773096e+01  4.412205e+01  0.000000e+00
     vertex -4.773096e+01  4.412205e+01  1.500000e+01
     vertex -5.258610e+01  3.820604e+01  1.500000e+01
   endloop
 endfacet
 facet normal  1.963369e-02  9.998072e-01  0.000000e+00
   outer loop
     vertex  2.551888e+00 -6.494989e+01  0.000000e+00
     vertex -5.099841e+00 -6.479963e+01  0.000000e+00
     vertex  2.551888e+00 -6.494989e+01  1.500000e+01
   endloop
 endfacet
 facet normal  1.963369e-02  9.998072e-01 -0.000000e+00
   outer loop
     vertex -5.099841e+00 -6.479963e+01  0.000000e+00
     vertex -5.099841e+00 -6.479963e+01  1.500000e+01
     vertex  2.551888e+00 -6.494989e+01  1.500000e+01
   endloop
 endfacet
 facet normal  8.422172e-01 -5.391383e-01  0.000000e+00
   outer loop
     vertex -5.671224e+01  3.176038e+01  0.000000e+00
     vertex -5.258610e+01  3.820604e+01  0.000000e+00
     vertex -5.671224e+01  3.176038e+01  1.500000e+01
   endloop
 endfacet
 facet normal  8.422172e-01 -5.391383e-01  0.000000e+00
   outer loop
     vertex -5.258610e+01  3.820604e+01  0.000000e+00
     vertex -5.258610e+01  3.820604e+01  1.500000e+01
     vertex -5.671224e+01  3.176038e+01  1.500000e+01
   endloop
 endfacet
 facet normal -9.801714e-02  9.951847e-01  0.000000e+00
   outer loop
     vertex  1.016824e+01 -6.419974e+01  0.000000e+00
     vertex  2.551888e+00 -6.494989e+01  0.000000e+00
     vertex  1.016824e+01 -6.419974e+01  1.500000e+01
   endloop
 endfacet
 facet normal -9.801714e-02  9.951847e-01  0.000000e+00
   outer loop
     vertex  2.551888e+00 -6.494989e+01  0.000000e+00
     vertex  2.551888e+00 -6.494989e+01  1.500000e+01
     vertex  1.016824e+01 -6.419974e+01  1.500000e+01
   endloop
 endfacet
 facet normal  8.997483e-01 -4.364092e-01  0.000000e+00
   outer loop
     vertex -6.005217e+01  2.487442e+01  0.000000e+00
     vertex -5.671224e+01  3.176038e+01  0.000000e+00
     vertex -6.005217e+01  2.487442e+01  1.500000e+01
   endloop
 endfacet
 facet normal  8.997483e-01 -4.364092e-01  0.000000e+00
   outer loop
     vertex -5.671224e+01  3.176038e+01  0.000000e+00
     vertex -5.671224e+01  3.176038e+01  1.500000e+01
     vertex -6.005217e+01  2.487442e+01  1.500000e+01
   endloop
 endfacet
 facet normal -2.143092e-01  9.767659e-01  0.000000e+00
   outer loop
     vertex  1.016824e+01 -6.419974e+01  0.000000e+00
     vertex  1.016824e+01 -6.419974e+01  1.500000e+01
     vertex  1.764363e+01 -6.255959e+01  1.500000e+01
   endloop
 endfacet
 facet normal -2.143092e-01  9.767659e-01  0.000000e+00
   outer loop
     vertex  1.764363e+01 -6.255959e+01  0.000000e+00
     vertex  1.016824e+01 -6.419974e+01  0.000000e+00
     vertex  1.764363e+01 -6.255959e+01  1.500000e+01
   endloop
 endfacet
 facet normal  9.448060e-01 -3.276302e-01  0.000000e+00
   outer loop
     vertex -6.255959e+01  1.764363e+01  0.000000e+00
     vertex -6.005217e+01  2.487442e+01  0.000000e+00
     vertex -6.255959e+01  1.764363e+01  1.500000e+01
   endloop
 endfacet
 facet normal  9.448060e-01 -3.276302e-01  0.000000e+00
   outer loop
     vertex -6.005217e+01  2.487442e+01  0.000000e+00
     vertex -6.005217e+01  2.487442e+01  1.500000e+01
     vertex -6.255959e+01  1.764363e+01  1.500000e+01
   endloop
 endfacet
 facet normal -3.276302e-01  9.448060e-01  0.000000e+00
   outer loop
     vertex  1.764363e+01 -6.255959e+01  0.000000e+00
     vertex  1.764363e+01 -6.255959e+01  1.500000e+01
     vertex  2.487442e+01 -6.005217e+01  1.500000e+01
   endloop
 endfacet
 facet normal -3.276302e-01  9.448060e-01  0.000000e+00
   outer loop
     vertex  2.487442e+01 -6.005217e+01  0.000000e+00
     vertex  1.764363e+01 -6.255959e+01  0.000000e+00
     vertex  2.487442e+01 -6.005217e+01  1.500000e+01
   endloop
 endfacet
 facet normal  9.767659e-01 -2.143092e-01  0.000000e+00
   outer loop
     vertex -6.419974e+01  1.016824e+01  0.000000e+00
     vertex -6.255959e+01  1.764363e+01  0.000000e+00
     vertex -6.419974e+01  1.016824e+01  1.500000e+01
   endloop
 endfacet
 facet normal  9.767659e-01 -2.143092e-01  0.000000e+00
   outer loop
     vertex -6.255959e+01  1.764363e+01  0.000000e+00
     vertex -6.255959e+01  1.764363e+01  1.500000e+01
     vertex -6.419974e+01  1.016824e+01  1.500000e+01
   endloop
 endfacet
 facet normal -4.364092e-01  8.997483e-01  0.000000e+00
   outer loop
     vertex  2.487442e+01 -6.005217e+01  0.000000e+00
     vertex  2.487442e+01 -6.005217e+01  1.500000e+01
     vertex  3.176038e+01 -5.671224e+01  1.500000e+01
   endloop
 endfacet
 facet normal -4.364092e-01  8.997483e-01  0.000000e+00
   outer loop
     vertex  3.176038e+01 -5.671224e+01  0.000000e+00
     vertex  2.487442e+01 -6.005217e+01  0.000000e+00
     vertex  3.176038e+01 -5.671224e+01  1.500000e+01
   endloop
 endfacet
 facet normal  9.951847e-01 -9.801714e-02  0.000000e+00
   outer loop
     vertex -6.494989e+01  2.551888e+00  0.000000e+00
     vertex -6.419974e+01  1.016824e+01  0.000000e+00
     vertex -6.494989e+01  2.551888e+00  1.500000e+01
   endloop
 endfacet
 facet normal  9.951847e-01 -9.801714e-02  0.000000e+00
   outer loop
     vertex -6.419974e+01  1.016824e+01  0.000000e+00
     vertex -6.419974e+01  1.016824e+01  1.500000e+01
     vertex -6.494989e+01  2.551888e+00  1.500000e+01
   endloop
 endfacet
 facet normal -5.391383e-01  8.422172e-01  0.000000e+00
   outer loop
     vertex  3.176038e+01 -5.671224e+01  0.000000e+00
     vertex  3.176038e+01 -5.671224e+01  1.500000e+01
     vertex  3.820604e+01 -5.258610e+01  1.500000e+01
   endloop
 endfacet
 facet normal -5.391383e-01  8.422172e-01  0.000000e+00
   outer loop
     vertex  3.820604e+01 -5.258610e+01  0.000000e+00
     vertex  3.176038e+01 -5.671224e+01  0.000000e+00
     vertex  3.820604e+01 -5.258610e+01  1.500000e+01
   endloop
 endfacet
 facet normal  9.998072e-01  1.963369e-02  0.000000e+00
   outer loop
     vertex -6.479963e+01 -5.099841e+00  0.000000e+00
     vertex -6.494989e+01  2.551888e+00  0.000000e+00
     vertex -6.479963e+01 -5.099841e+00  1.500000e+01
   endloop
 endfacet
 facet normal -6.343933e-01  7.730105e-01  0.000000e+00
   outer loop
     vertex  3.820604e+01 -5.258610e+01  0.000000e+00
     vertex  3.820604e+01 -5.258610e+01  1.500000e+01
     vertex  4.412205e+01 -4.773096e+01  1.500000e+01
   endloop
 endfacet
 facet normal  9.998072e-01  1.963369e-02 -0.000000e+00
   outer loop
     vertex -6.494989e+01  2.551888e+00  0.000000e+00
     vertex -6.494989e+01  2.551888e+00  1.500000e+01
     vertex -6.479963e+01 -5.099841e+00  1.500000e+01
   endloop
 endfacet
 facet normal -6.343933e-01  7.730105e-01  0.000000e+00
   outer loop
     vertex  4.412205e+01 -4.773096e+01  0.000000e+00
     vertex  3.820604e+01 -5.258610e+01  0.000000e+00
     vertex  4.412205e+01 -4.773096e+01  1.500000e+01
   endloop
 endfacet
 facet normal  9.905693e-01  1.370123e-01  0.000000e+00
   outer loop
     vertex -6.375104e+01 -1.268087e+01  0.000000e+00
     vertex -6.479963e+01 -5.099841e+00  0.000000e+00
     vertex -6.375104e+01 -1.268087e+01  1.500000e+01
   endloop
 endfacet
 facet normal -7.208536e-01  6.930874e-01  0.000000e+00
   outer loop
     vertex  4.412205e+01 -4.773096e+01  0.000000e+00
     vertex  4.412205e+01 -4.773096e+01  1.500000e+01
     vertex  4.942639e+01 -4.221412e+01  1.500000e+01
   endloop
 endfacet
 facet normal  9.905693e-01  1.370123e-01 -0.000000e+00
   outer loop
     vertex -6.479963e+01 -5.099841e+00  0.000000e+00
     vertex -6.479963e+01 -5.099841e+00  1.500000e+01
     vertex -6.375104e+01 -1.268087e+01  1.500000e+01
   endloop
 endfacet
 facet normal -7.208536e-01  6.930874e-01  0.000000e+00
   outer loop
     vertex  4.942639e+01 -4.221412e+01  0.000000e+00
     vertex  4.412205e+01 -4.773096e+01  0.000000e+00
     vertex  4.942639e+01 -4.221412e+01  1.500000e+01
   endloop
 endfacet
 facet normal  9.675991e-01  2.524916e-01  0.000000e+00
   outer loop
     vertex -6.181867e+01 -2.008610e+01  0.000000e+00
     vertex -6.375104e+01 -1.268087e+01  0.000000e+00
     vertex -6.181867e+01 -2.008610e+01  1.500000e+01
   endloop
 endfacet
 facet normal -7.973207e-01  6.035559e-01  0.000000e+00
   outer loop
     vertex  4.942639e+01 -4.221412e+01  0.000000e+00
     vertex  4.942639e+01 -4.221412e+01  1.500000e+01
     vertex  5.404552e+01 -3.611207e+01  1.500000e+01
   endloop
 endfacet
 facet normal -7.973207e-01  6.035559e-01  0.000000e+00
   outer loop
     vertex  5.404552e+01 -3.611207e+01  0.000000e+00
     vertex  4.942639e+01 -4.221412e+01  0.000000e+00
     vertex  5.404552e+01 -3.611207e+01  1.500000e+01
   endloop
 endfacet
 facet normal  9.675991e-01  2.524916e-01 -0.000000e+00
   outer loop
     vertex -6.375104e+01 -1.268087e+01  0.000000e+00
     vertex -6.375104e+01 -1.268087e+01  1.500000e+01
     vertex -6.181867e+01 -2.008610e+01  1.500000e+01
   endloop
 endfacet
endsolid
